<?xml version="1.0" encoding="utf-8"?>
<!-- Generator: Adobe Illustrator 22.0.1, SVG Export Plug-In . SVG Version: 6.00 Build 0)  -->
<svg version="1.1" xmlns="http://www.w3.org/2000/svg" xmlns:xlink="http://www.w3.org/1999/xlink" x="0px" y="0px"
	 viewBox="0 0 570.1 388.5" style="enable-background:new 0 0 570.1 388.5;" xml:space="preserve">
<style type="text/css">
	.st0{display:none;}
	.st1{display:inline;}
	.st2{display:inline;fill:none;stroke:#B3B3B3;stroke-width:4;stroke-miterlimit:10;}
	.st3{display:inline;fill:#F2F2F2;}
	.st4{display:inline;fill:none;stroke:#CCCCCC;stroke-width:0.9851;stroke-miterlimit:10;}
	.st5{fill:none;}
	.st6{fill:none;stroke:#CCCCCC;stroke-width:0.9851;stroke-miterlimit:10;}
	.st7{fill:#F2F2F2;}
	.st8{fill:none;stroke:#CCCCCC;stroke-width:4;stroke-miterlimit:10;}
	.st9{display:inline;fill:none;stroke:#CCCCCC;stroke-width:3.3521;stroke-miterlimit:10;}
	.st10{fill:#FC9732;}
	.st11{fill:#D7E100;}
	.st12{fill:#DB169F;}
	.st13{fill:#714FB2;}
	.st14{fill:#3FA8EF;}
</style>
<g id="Lijnen" class="st0">
	<g id="Lijnen_roze_bol" class="st1">
	</g>
	<g id="Laag_1_1_" class="st1">
	</g>
	<g id="Lijnen_groene_bol">
		<rect x="-242.2" y="-135.6" class="st2" width="1041" height="881"/>
		<circle class="st3" cx="714.7" cy="492.3" r="84.4"/>
		<circle class="st3" cx="446.7" cy="-51.7" r="84.4"/>
		<circle class="st3" cx="9.7" cy="661.3" r="84.4"/>
		<circle class="st3" cx="-158.3" cy="116.3" r="84.4"/>
		<line class="st4" x1="-74.2" y1="961.4" x2="-74.2" y2="-328.6"/>
		<line class="st4" x1="-242.2" y1="960.9" x2="-242.2" y2="-329.1"/>
		<line class="st4" x1="28.8" y1="961.9" x2="28.8" y2="-328.1"/>
		<line class="st4" x1="530.8" y1="960.9" x2="530.8" y2="-329.1"/>
		<line class="st4" x1="629.8" y1="961.9" x2="629.8" y2="-328.1"/>
		<line class="st4" x1="798.8" y1="980.9" x2="798.8" y2="-309.1"/>
		<line class="st4" x1="-606.3" y1="32.4" x2="1234.8" y2="32.4"/>
		<line class="st4" x1="-618.8" y1="-135.6" x2="1222.3" y2="-135.6"/>
		<line class="st4" x1="-816.8" y1="745.4" x2="1024.3" y2="745.4"/>
		<line class="st4" x1="-605.8" y1="422.4" x2="1235.3" y2="422.4"/>
		<line class="st4" x1="-605.8" y1="403.4" x2="1235.3" y2="403.4"/>
		<line class="st4" x1="-605.8" y1="477.4" x2="1235.3" y2="477.4"/>
		<line class="st4" x1="-671.8" y1="508.4" x2="1169.3" y2="508.4"/>
		<line class="st4" x1="-618.8" y1="524.4" x2="1222.3" y2="524.4"/>
		<line class="st4" x1="-605.8" y1="577.4" x2="1235.3" y2="577.4"/>
		<line class="st4" x1="-605.8" y1="560.4" x2="1235.3" y2="560.4"/>
	</g>
	<g id="Laag_4">
		<rect x="-242.2" y="-135.6" class="st2" width="1041" height="881"/>
	</g>
	<g class="st1">
		<rect x="-346.2" y="-237.6" class="st5" width="1249" height="854.8"/>
		<g id="Laag_5">
			<g>
				<rect x="-346.2" y="-237.1" class="st5" width="1249" height="1087.5"/>
				<line class="st6" x1="-74.2" y1="961.4" x2="-74.2" y2="-328.6"/>
				<rect x="-346.2" y="-237.1" class="st5" width="1249" height="1087.5"/>
				<line class="st6" x1="-196.2" y1="961.9" x2="-196.2" y2="-328.1"/>
				<rect x="-346.2" y="-237.1" class="st5" width="1249" height="1087.5"/>
				<line class="st6" x1="752.8" y1="961.9" x2="752.8" y2="-328.1"/>
				<rect x="-346.2" y="-237.1" class="st5" width="1249" height="1087.5"/>
				<line class="st6" x1="28.8" y1="961.9" x2="28.8" y2="-328.1"/>
				<rect x="-346.2" y="-237.1" class="st5" width="1249" height="1087.5"/>
				<line class="st6" x1="530.8" y1="960.9" x2="530.8" y2="-329.1"/>
				<rect x="-346.2" y="-237.1" class="st5" width="1249" height="1087.5"/>
				<line class="st6" x1="629.8" y1="961.9" x2="629.8" y2="-328.1"/>
				<rect x="-346.2" y="-237.1" class="st5" width="1249" height="1087.5"/>
				<line class="st6" x1="-606.3" y1="32.4" x2="1234.8" y2="32.4"/>
				<rect x="-346.2" y="-237.1" class="st5" width="1249" height="1087.5"/>
				<line class="st6" x1="-605.8" y1="-89.6" x2="1235.3" y2="-89.6"/>
				<rect x="-346.2" y="-237.1" class="st5" width="1249" height="1087.5"/>
				<rect x="-346.2" y="-237.1" class="st5" width="1249" height="1087.5"/>
				<line class="st6" x1="-605.8" y1="343.2" x2="1235.3" y2="343.2"/>
				<line class="st6" x1="-605.8" y1="464.8" x2="1235.3" y2="464.8"/>
				<rect x="-346.2" y="-237.1" class="st5" width="1249" height="1087.5"/>
				<rect x="-346.2" y="-237.1" class="st5" width="1249" height="1087.5"/>
				<rect x="-346.2" y="-237.1" class="st5" width="1249" height="1087.5"/>
				<rect x="-346.2" y="-237.1" class="st5" width="1249" height="1087.5"/>
				<rect x="-346.2" y="-237.1" class="st5" width="1249" height="1087.5"/>
				<rect x="-346.2" y="-237.1" class="st5" width="1249" height="1087.5"/>
				<rect x="-346.2" y="-237.1" class="st5" width="1249" height="1087.5"/>
				<rect x="-346.2" y="-237.1" class="st5" width="1249" height="1087.5"/>
				<circle class="st7" cx="-135.7" cy="94.1" r="61"/>
				<rect x="-346.2" y="-237.1" class="st5" width="1249" height="1087.5"/>
				<circle class="st7" cx="568.6" cy="-29" r="61"/>
				<rect x="-346.2" y="-237.1" class="st5" width="1249" height="1087.5"/>
				<circle class="st7" cx="691.6" cy="282.2" r="61"/>
				<rect x="-346.2" y="-237.1" class="st5" width="1249" height="1087.5"/>
				<circle class="st7" cx="87.1" cy="404.2" r="61"/>
				<rect x="-346.2" y="-237.1" class="st5" width="1249" height="1087.5"/>
				<rect x="-196.2" y="-89.6" class="st8" width="949" height="554.8"/>
			</g>
		</g>
	</g>
	<rect x="-196.2" y="-89.6" class="st9" width="949" height="554.8"/>
</g>
<g id="Beeldmerk">
	<g>
		<g>
			<circle class="st10" cx="54.6" cy="281.1" r="25.7"/>
			<circle class="st11" cx="210.7" cy="116.3" r="84.4"/>
			<circle class="st12" cx="284.6" cy="282.2" r="61"/>
			<ellipse class="st13" cx="148.1" cy="258.8" rx="41.3" ry="41.3"/>
			<path class="st14" d="M326.2,143.9c0,56.5,45.8,102.3,102.3,102.3s102.3-45.8,102.3-102.3S485,41.6,428.5,41.6
				S326.2,87.4,326.2,143.9z M371.1,145.7c0-31.7,25.7-57.4,57.4-57.4s57.4,25.7,57.4,57.4s-25.7,57.4-57.4,57.4
				C396.8,203.2,371.1,177.5,371.1,145.7z"/>
		</g>
	</g>
</g>
</svg>
