<?xml version="1.0" encoding="utf-8"?>
<!-- Generator: Adobe Illustrator 22.0.1, SVG Export Plug-In . SVG Version: 6.00 Build 0)  -->
<svg version="1.1" id="Laag_1" xmlns="http://www.w3.org/2000/svg" xmlns:xlink="http://www.w3.org/1999/xlink" x="0px" y="0px"
	 viewBox="0 0 1251.8 1084.3" style="enable-background:new 0 0 1251.8 1084.3;" xml:space="preserve">
<style type="text/css">
	.st0{display:none;}
	.st1{display:inline;fill:none;stroke:#B3B3B3;stroke-width:4;stroke-miterlimit:10;}
	.st2{display:inline;fill:#F2F2F2;}
	.st3{display:inline;fill:none;stroke:#CCCCCC;stroke-width:0.9851;stroke-miterlimit:10;}
	.st4{clip-path:url(#SVGID_2_);fill:none;stroke:#CCCCCC;stroke-width:0.9851;stroke-miterlimit:10;}
	.st5{clip-path:url(#SVGID_4_);fill:none;stroke:#CCCCCC;stroke-width:0.9851;stroke-miterlimit:10;}
	.st6{clip-path:url(#SVGID_6_);fill:none;stroke:#CCCCCC;stroke-width:0.9851;stroke-miterlimit:10;}
	.st7{clip-path:url(#SVGID_8_);fill:none;stroke:#CCCCCC;stroke-width:0.9851;stroke-miterlimit:10;}
	.st8{clip-path:url(#SVGID_10_);fill:none;stroke:#CCCCCC;stroke-width:0.9851;stroke-miterlimit:10;}
	.st9{clip-path:url(#SVGID_12_);fill:none;stroke:#CCCCCC;stroke-width:0.9851;stroke-miterlimit:10;}
	.st10{clip-path:url(#SVGID_14_);fill:none;stroke:#CCCCCC;stroke-width:0.9851;stroke-miterlimit:10;}
	.st11{clip-path:url(#SVGID_16_);fill:none;stroke:#CCCCCC;stroke-width:0.9851;stroke-miterlimit:10;}
	.st12{clip-path:url(#SVGID_18_);fill:none;stroke:#CCCCCC;stroke-width:0.9851;stroke-miterlimit:10;}
	.st13{clip-path:url(#SVGID_20_);fill:none;stroke:#CCCCCC;stroke-width:0.9851;stroke-miterlimit:10;}
	.st14{clip-path:url(#SVGID_22_);fill:none;stroke:#CCCCCC;stroke-width:0.9851;stroke-miterlimit:10;}
	.st15{clip-path:url(#SVGID_24_);fill:none;stroke:#CCCCCC;stroke-width:0.9851;stroke-miterlimit:10;}
	.st16{clip-path:url(#SVGID_26_);fill:none;stroke:#CCCCCC;stroke-width:0.9851;stroke-miterlimit:10;}
	.st17{clip-path:url(#SVGID_28_);fill:none;stroke:#CCCCCC;stroke-width:0.9851;stroke-miterlimit:10;}
	.st18{clip-path:url(#SVGID_30_);fill:none;stroke:#CCCCCC;stroke-width:0.9851;stroke-miterlimit:10;}
	.st19{clip-path:url(#SVGID_32_);fill:none;stroke:#CCCCCC;stroke-width:0.9851;stroke-miterlimit:10;}
	.st20{clip-path:url(#SVGID_34_);fill:none;stroke:#CCCCCC;stroke-width:4;stroke-miterlimit:10;}
	.st21{clip-path:url(#SVGID_36_);fill:#F2F2F2;}
	.st22{clip-path:url(#SVGID_38_);fill:#F2F2F2;}
	.st23{clip-path:url(#SVGID_40_);fill:#F2F2F2;}
	.st24{clip-path:url(#SVGID_42_);fill:#F2F2F2;}
	.st25{clip-path:url(#SVGID_44_);}
	.st26{fill:#4C4C4C;}
	.st27{fill:#714FB2;}
	.st28{fill:#FC9732;}
	.st29{fill:#D7E100;}
	.st30{fill:#DB169F;}
	.st31{fill:#3FA8EF;}
	.st32{clip-path:url(#SVGID_46_);fill:none;stroke:#CCCCCC;stroke-width:4;stroke-miterlimit:10;}
	.st33{fill:none;stroke:#CCCCCC;stroke-width:4;stroke-miterlimit:10;}
</style>
<g id="Lijnen_roze_bol">
</g>
<g id="Laag_1_1_">
</g>
<g id="Lijnen_groene_bol" class="st0">
	<rect x="105.8" y="101.5" class="st1" width="1041" height="881"/>
	<circle class="st2" cx="1062.7" cy="729.4" r="84.4"/>
	<circle class="st2" cx="794.7" cy="185.4" r="84.4"/>
	<circle class="st2" cx="357.7" cy="898.4" r="84.4"/>
	<circle class="st2" cx="189.7" cy="353.4" r="84.4"/>
	<line class="st3" x1="273.8" y1="1198.5" x2="273.8" y2="-91.5"/>
	<line class="st3" x1="105.8" y1="1198" x2="105.8" y2="-92"/>
	<line class="st3" x1="376.8" y1="1199" x2="376.8" y2="-91"/>
	<line class="st3" x1="878.8" y1="1198" x2="878.8" y2="-92"/>
	<line class="st3" x1="977.8" y1="1199" x2="977.8" y2="-91"/>
	<line class="st3" x1="1146.8" y1="1218" x2="1146.8" y2="-72"/>
	<line class="st3" x1="-258.3" y1="269.5" x2="1582.8" y2="269.5"/>
	<line class="st3" x1="-270.8" y1="101.5" x2="1570.3" y2="101.5"/>
	<line class="st3" x1="-468.8" y1="982.5" x2="1372.3" y2="982.5"/>
	<line class="st3" x1="-257.8" y1="659.5" x2="1583.3" y2="659.5"/>
	<line class="st3" x1="-257.8" y1="640.5" x2="1583.3" y2="640.5"/>
	<line class="st3" x1="-257.8" y1="714.5" x2="1583.3" y2="714.5"/>
	<line class="st3" x1="-323.8" y1="745.5" x2="1517.3" y2="745.5"/>
	<line class="st3" x1="-270.8" y1="761.5" x2="1570.3" y2="761.5"/>
	<line class="st3" x1="-257.8" y1="814.5" x2="1583.3" y2="814.5"/>
	<line class="st3" x1="-257.8" y1="797.5" x2="1583.3" y2="797.5"/>
</g>
<g id="Laag_4" class="st0">
	<rect x="105.8" y="101.5" class="st1" width="1041" height="881"/>
</g>
<g id="Laag_5">
	<g>
		<g>
			<g>
				<defs>
					<rect id="SVGID_1_" x="1.8" width="1249" height="1087.5"/>
				</defs>
				<clipPath id="SVGID_2_">
					<use xlink:href="#SVGID_1_"  style="overflow:visible;"/>
				</clipPath>
				<line class="st4" x1="273.8" y1="1198.5" x2="273.8" y2="-91.5"/>
			</g>
		</g>
		<g>
			<g>
				<defs>
					<rect id="SVGID_3_" x="1.8" width="1249" height="1087.5"/>
				</defs>
				<clipPath id="SVGID_4_">
					<use xlink:href="#SVGID_3_"  style="overflow:visible;"/>
				</clipPath>
				<line class="st5" x1="151.8" y1="1199" x2="151.8" y2="-91"/>
			</g>
		</g>
		<g>
			<g>
				<defs>
					<rect id="SVGID_5_" x="1.8" width="1249" height="1087.5"/>
				</defs>
				<clipPath id="SVGID_6_">
					<use xlink:href="#SVGID_5_"  style="overflow:visible;"/>
				</clipPath>
				<line class="st6" x1="1100.8" y1="1199" x2="1100.8" y2="-91"/>
			</g>
		</g>
		<g>
			<g>
				<defs>
					<rect id="SVGID_7_" x="1.8" width="1249" height="1087.5"/>
				</defs>
				<clipPath id="SVGID_8_">
					<use xlink:href="#SVGID_7_"  style="overflow:visible;"/>
				</clipPath>
				<line class="st7" x1="376.8" y1="1199" x2="376.8" y2="-91"/>
			</g>
		</g>
		<g>
			<g>
				<defs>
					<rect id="SVGID_9_" x="1.8" width="1249" height="1087.5"/>
				</defs>
				<clipPath id="SVGID_10_">
					<use xlink:href="#SVGID_9_"  style="overflow:visible;"/>
				</clipPath>
				<line class="st8" x1="878.8" y1="1198" x2="878.8" y2="-92"/>
			</g>
		</g>
		<g>
			<g>
				<defs>
					<rect id="SVGID_11_" x="1.8" width="1249" height="1087.5"/>
				</defs>
				<clipPath id="SVGID_12_">
					<use xlink:href="#SVGID_11_"  style="overflow:visible;"/>
				</clipPath>
				<line class="st9" x1="977.8" y1="1199" x2="977.8" y2="-91"/>
			</g>
		</g>
		<g>
			<g>
				<defs>
					<rect id="SVGID_13_" x="1.8" width="1249" height="1087.5"/>
				</defs>
				<clipPath id="SVGID_14_">
					<use xlink:href="#SVGID_13_"  style="overflow:visible;"/>
				</clipPath>
				<line class="st10" x1="-258.3" y1="269.5" x2="1582.8" y2="269.5"/>
			</g>
		</g>
		<g>
			<g>
				<defs>
					<rect id="SVGID_15_" x="1.8" width="1249" height="1087.5"/>
				</defs>
				<clipPath id="SVGID_16_">
					<use xlink:href="#SVGID_15_"  style="overflow:visible;"/>
				</clipPath>
				<line class="st11" x1="-257.8" y1="147.5" x2="1583.3" y2="147.5"/>
			</g>
		</g>
		<g>
			<g>
				<defs>
					<rect id="SVGID_17_" x="1.8" width="1249" height="1087.5"/>
				</defs>
				<clipPath id="SVGID_18_">
					<use xlink:href="#SVGID_17_"  style="overflow:visible;"/>
				</clipPath>
				<line class="st12" x1="-257.8" y1="659.5" x2="1583.3" y2="659.5"/>
			</g>
		</g>
		<g>
			<g>
				<defs>
					<rect id="SVGID_19_" x="1.8" width="1249" height="1087.5"/>
				</defs>
				<clipPath id="SVGID_20_">
					<use xlink:href="#SVGID_19_"  style="overflow:visible;"/>
				</clipPath>
				<line class="st13" x1="-257.8" y1="640.5" x2="1583.3" y2="640.5"/>
			</g>
		</g>
		<g>
			<g>
				<defs>
					<rect id="SVGID_21_" x="1.8" width="1249" height="1087.5"/>
				</defs>
				<clipPath id="SVGID_22_">
					<use xlink:href="#SVGID_21_"  style="overflow:visible;"/>
				</clipPath>
				<line class="st14" x1="-257.8" y1="714.5" x2="1583.3" y2="714.5"/>
			</g>
		</g>
		<g>
			<g>
				<defs>
					<rect id="SVGID_23_" x="1.8" width="1249" height="1087.5"/>
				</defs>
				<clipPath id="SVGID_24_">
					<use xlink:href="#SVGID_23_"  style="overflow:visible;"/>
				</clipPath>
				<line class="st15" x1="-323.8" y1="745.5" x2="1517.3" y2="745.5"/>
			</g>
		</g>
		<g>
			<g>
				<defs>
					<rect id="SVGID_25_" x="1.8" width="1249" height="1087.5"/>
				</defs>
				<clipPath id="SVGID_26_">
					<use xlink:href="#SVGID_25_"  style="overflow:visible;"/>
				</clipPath>
				<line class="st16" x1="-270.8" y1="761.5" x2="1570.3" y2="761.5"/>
			</g>
		</g>
		<g>
			<g>
				<defs>
					<rect id="SVGID_27_" x="1.8" width="1249" height="1087.5"/>
				</defs>
				<clipPath id="SVGID_28_">
					<use xlink:href="#SVGID_27_"  style="overflow:visible;"/>
				</clipPath>
				<line class="st17" x1="-257.8" y1="814.5" x2="1583.3" y2="814.5"/>
			</g>
		</g>
		<g>
			<g>
				<defs>
					<rect id="SVGID_29_" x="1.8" width="1249" height="1087.5"/>
				</defs>
				<clipPath id="SVGID_30_">
					<use xlink:href="#SVGID_29_"  style="overflow:visible;"/>
				</clipPath>
				<line class="st18" x1="-257.8" y1="937.5" x2="1583.3" y2="937.5"/>
			</g>
		</g>
		<g>
			<g>
				<defs>
					<rect id="SVGID_31_" x="1.8" width="1249" height="1087.5"/>
				</defs>
				<clipPath id="SVGID_32_">
					<use xlink:href="#SVGID_31_"  style="overflow:visible;"/>
				</clipPath>
				<line class="st19" x1="-257.8" y1="797.5" x2="1583.3" y2="797.5"/>
			</g>
		</g>
		<g>
			<g>
				<defs>
					<rect id="SVGID_33_" x="1.8" width="1249" height="1087.5"/>
				</defs>
				<clipPath id="SVGID_34_">
					<use xlink:href="#SVGID_33_"  style="overflow:visible;"/>
				</clipPath>
				<rect x="151.8" y="147.5" class="st20" width="949" height="790"/>
			</g>
		</g>
		<g>
			<g>
				<defs>
					<rect id="SVGID_35_" x="1.8" width="1249" height="1087.5"/>
				</defs>
				<clipPath id="SVGID_36_">
					<use xlink:href="#SVGID_35_"  style="overflow:visible;"/>
				</clipPath>
				<circle class="st21" cx="212.3" cy="331.2" r="61"/>
			</g>
		</g>
		<g>
			<g>
				<defs>
					<rect id="SVGID_37_" x="1.8" width="1249" height="1087.5"/>
				</defs>
				<clipPath id="SVGID_38_">
					<use xlink:href="#SVGID_37_"  style="overflow:visible;"/>
				</clipPath>
				<circle class="st22" cx="817.6" cy="208.1" r="61"/>
			</g>
		</g>
		<g>
			<g>
				<defs>
					<rect id="SVGID_39_" x="1.8" width="1249" height="1087.5"/>
				</defs>
				<clipPath id="SVGID_40_">
					<use xlink:href="#SVGID_39_"  style="overflow:visible;"/>
				</clipPath>
				<circle class="st23" cx="1039.6" cy="752.1" r="61"/>
			</g>
		</g>
		<g>
			<g>
				<defs>
					<rect id="SVGID_41_" x="1.8" width="1249" height="1087.5"/>
				</defs>
				<clipPath id="SVGID_42_">
					<use xlink:href="#SVGID_41_"  style="overflow:visible;"/>
				</clipPath>
				<circle class="st24" cx="437.7" cy="876.4" r="61"/>
			</g>
		</g>
		<g>
			<g>
				<defs>
					<rect id="SVGID_43_" x="1.8" width="1249" height="1087.5"/>
				</defs>
				<clipPath id="SVGID_44_">
					<use xlink:href="#SVGID_43_"  style="overflow:visible;"/>
				</clipPath>
				<g class="st25">
					<g>
						<g>
							<g>
								<path class="st26" d="M286.5,686.8c0,2.6,0.2,5,0.7,7.1s1.3,3.9,2.4,5.4s2.6,2.6,4.5,3.4c1.8,0.8,4.1,1.2,6.8,1.2
									c2.2,0,4.1-0.3,5.8-0.8c1.7-0.5,3.2-1.3,4.6-2.3v-19.7h-8c-1.4,0-2.7-0.5-3.7-1.6c-1.1-1.1-1.6-2.3-1.6-3.8s0.5-2.7,1.6-3.8
									c1.1-1,2.3-1.5,3.7-1.5h12.1c2,0,3.7,0.5,5.2,1.5s2.2,2.6,2.2,4.6V701c0,2.3-0.7,4.3-2.1,6s-3.2,3-5.4,4.1
									c-2.2,1.1-4.6,1.8-7.3,2.3c-2.7,0.5-5.3,0.7-7.8,0.7c-4.4,0-8.2-0.7-11.4-2c-3.2-1.3-5.8-3.2-7.9-5.5
									c-2.1-2.4-3.7-5.3-4.7-8.6c-1-3.4-1.5-7.1-1.5-11.3v-18.9c0-4.1,0.5-7.9,1.5-11.3c1-3.4,2.6-6.3,4.7-8.7s4.7-4.2,7.9-5.5
									c3.2-1.3,7-2,11.4-2c2.6,0,5.2,0.3,7.6,0.8s4.6,1.3,6.5,2.2c1.9,1,3.4,2.1,4.6,3.3c1.1,1.2,1.7,2.5,1.7,3.9
									s-0.5,2.6-1.5,3.6s-2.3,1.5-3.9,1.5c-1,0-1.8-0.2-2.3-0.5s-1.2-0.7-2-1.2l-0.5-0.3c-1.4-1-2.9-1.7-4.5-2.2s-3.3-0.7-5.2-0.7
									c-2.7,0-5,0.4-6.8,1.2s-3.3,1.9-4.5,3.4c-1.1,1.5-1.9,3.3-2.4,5.4c-0.5,2.1-0.7,4.5-0.7,7.1v19H286.5z"/>
								<path class="st26" d="M361.7,677.9c0-6.2-3.3-9.4-9.8-9.4c-1.4,0-2.6,0.1-3.5,0.4c-0.9,0.3-1.8,0.6-2.8,1l-2,0.9
									c-0.7,0.4-1.6,0.5-2.8,0.5c-1.6,0-2.7-0.5-3.4-1.5c-0.7-1-1-2.1-1-3.2c0-1.4,0.5-2.6,1.4-3.6s2.2-1.8,3.7-2.4
									c1.6-0.6,3.3-1.1,5.3-1.4c2-0.3,4-0.4,6.1-0.4c7.2,0,12.4,1.8,15.5,5.5s4.7,9.1,4.7,16.2v21.6c0,1.3,0.2,2.2,0.7,2.6
									c0.5,0.4,1.1,0.7,1.9,0.8c2.1,0.4,3.2,1.7,3.2,3.8c0,3-2.1,4.5-6.3,4.5c-3.7,0-6.5-1.6-8.5-4.8c-4,3.4-8.8,5.1-14.5,5.1
									c-5.8,0-10.2-1.5-13.1-4.5s-4.4-7-4.4-11.9v-0.3c0-10.7,6.6-16.1,19.9-16.1c3.3,0,6.5,0.4,9.6,1.3L361.7,677.9L361.7,677.9z
									 M352.4,690.1c-1.8,0-3.4,0.2-4.5,0.6c-1.2,0.4-2.1,0.9-2.7,1.6c-0.6,0.7-1.1,1.5-1.3,2.4c-0.2,0.9-0.3,1.9-0.3,2.9v0.3
									c0,2.1,0.6,3.8,1.8,4.9c1.2,1.2,3.2,1.8,6.2,1.8c1.8,0,3.6-0.3,5.2-0.9c1.6-0.6,3.3-1.5,4.9-2.9v-9.6
									c-1.6-0.4-3.2-0.6-4.8-0.9C355.3,690.2,353.8,690.1,352.4,690.1z"/>
								<path class="st26" d="M424.1,669c-2.3,6.6-4.6,13.2-6.8,19.7c-2.2,6.5-4.4,13.1-6.7,19.8c-0.7,2.1-1.6,3.5-2.7,4.4
									s-2.5,1.3-4.3,1.3c-1.9,0-3.4-0.4-4.4-1.3c-1-0.9-1.9-2.3-2.6-4.3c-2.3-6.7-4.6-13.3-6.9-19.9c-2.3-6.6-4.6-13.2-6.9-19.9
									l-1.2-4.2c0-0.1,0-0.2-0.1-0.3c0-0.1-0.1-0.2-0.1-0.3c0-1.4,0.6-2.6,1.8-3.6c1.2-1,2.5-1.4,3.9-1.4c1.1,0,2.1,0.3,3.2,1
									c1.1,0.6,1.8,1.6,2.1,2.8c1,3.2,2,6.4,3,9.5s2,6.3,3,9.5s1.9,6.3,2.6,9.4c0.7,3.1,1.5,6.2,2.4,9.4c0.8-3.2,1.5-6.3,2.2-9.4
									c0.7-3.1,1.6-6.2,2.6-9.4s2-6.3,2.9-9.5c1-3.1,1.9-6.3,2.9-9.5c0.4-1.1,1-1.9,2.1-2.6c1-0.7,2.1-1,3.2-1
									c1.5,0,2.8,0.5,3.9,1.4c1.1,1,1.7,2.2,1.7,3.7v0.6L424.1,669z"/>
								<path class="st26" d="M453,692.4c-1.5,0-3-0.1-4.6-0.2c-1.6-0.1-3.2-0.3-4.9-0.6v4.9c0,2.4,0.8,4.3,2.4,5.7s4.2,2.1,7.6,2.1
									c2,0,3.8-0.2,5.3-0.7c1.6-0.5,3.2-1.1,5-1.9c0.1-0.1,0.4-0.3,0.8-0.4c0.4-0.1,0.9-0.2,1.5-0.2c1.8,0,3.2,0.5,4,1.6
									s1.2,2.1,1.2,3.2c0,1.6-0.7,3-2.1,4s-3.1,1.9-5,2.5c-2,0.6-4,1.1-6.2,1.3s-4,0.4-5.6,0.4c-3.3,0-6.2-0.5-8.7-1.4
									c-2.6-0.9-4.7-2.2-6.4-3.8c-1.7-1.6-3.1-3.6-4-5.8s-1.4-4.6-1.4-7.2v-18.8c0-2.6,0.5-5.1,1.4-7.3s2.3-4.2,4-5.8
									c1.8-1.6,4-2.9,6.6-3.9s5.6-1.4,9-1.4c6.5,0,11.3,1.6,14.5,4.8s4.8,7.5,4.8,12.8c0,5-1.5,9-4.6,11.8
									C464.8,691,459.8,692.4,453,692.4z M461,676.1c0-2.8-0.7-4.9-2.1-6.1c-1.4-1.2-3.4-1.8-6-1.8c-3,0-5.3,0.7-6.9,2.2
									s-2.4,3.5-2.4,6.1v6.3c1.8,0.2,3.7,0.4,5.5,0.5s3.1,0.2,3.9,0.2c3,0,5.2-0.7,6.3-2C460.4,680.2,461,678.4,461,676.1z"/>
								<path class="st26" d="M507,669.8c-1.1,0-2.2,0-3.1,0c-1,0-1.9,0.1-2.8,0.2c-0.9,0.1-1.8,0.4-2.8,0.7c-1,0.4-2,0.9-3.1,1.5
									c0.1,0.5,0.1,0.9,0.2,1.3c0,0.4,0.1,0.8,0.1,1.1v34.1c0,1.6-0.6,2.9-1.6,3.9c-1.1,1-2.5,1.5-4.1,1.5s-3-0.5-4.1-1.5
									s-1.7-2.3-1.7-3.9v-34.1c0-1.5-0.1-2.7-0.3-3.6c-0.2-0.9-0.6-1.8-1.2-2.6c-0.4-0.4-0.6-0.9-0.8-1.3c-0.2-0.4-0.3-1-0.3-1.6
									c0-1.5,0.5-2.7,1.6-3.6c1.1-0.9,2.4-1.4,3.9-1.4c1,0,1.9,0.3,2.7,0.9c0.8,0.6,1.5,1.3,2.2,2.2c2.4-1.4,4.9-2.5,7.4-3.4
									c2.5-0.8,4.7-1.2,6.5-1.2c2.7,0,4.6,0.5,5.6,1.5s1.5,2.2,1.5,3.7c0,1.7-0.6,3.1-1.7,4.1C510,669.5,508.6,670,507,669.8z"/>
								<path class="st26" d="M533.5,678.5l15.3-16.3c0.7-0.8,1.5-1.5,2.3-2.1c0.9-0.6,1.9-0.9,3.1-0.9c1.6,0,2.9,0.5,3.9,1.4
									c1.1,1,1.6,2.1,1.6,3.6c0,1.4-0.5,2.6-1.5,3.6l-14.4,14.9c2.8,4,5.7,7.9,8.5,11.8c2.8,3.9,5.6,7.8,8.4,11.8
									c0.4,0.4,0.6,0.9,0.7,1.5c0.1,0.6,0.2,1.2,0.2,1.7c-0.1,1.4-0.7,2.5-1.8,3.4c-1,0.8-2.3,1.2-3.8,1.2c-0.9,0-1.5-0.1-2.1-0.2
									c-0.5-0.1-1-0.4-1.4-0.7c-0.4-0.4-0.8-0.8-1.2-1.4c-0.4-0.6-0.9-1.3-1.4-2.1l-14.1-20.2c-0.4,0.4-0.8,0.8-1.2,1.2
									c-0.4,0.5-0.8,0.9-1.2,1.2v14.6c0,2-0.4,3.8-1.2,5.3c-0.8,1.6-2.3,2.3-4.5,2.3c-1.6,0-3-0.5-4.1-1.5s-1.7-2.3-1.7-3.8v-60.4
									c0-1.1,0.1-2.1,0.2-3c0.1-1,0.4-1.8,0.9-2.6c0.4-0.7,1-1.3,1.8-1.8c0.7-0.4,1.7-0.6,2.9-0.6c1.6,0,3,0.5,4.1,1.5
									s1.7,2.3,1.7,3.8V678.5z"/>
								<path class="st26" d="M589.2,692.4c-1.5,0-3-0.1-4.6-0.2c-1.6-0.1-3.2-0.3-4.9-0.6v4.9c0,2.4,0.8,4.3,2.4,5.7
									c1.6,1.4,4.2,2.1,7.6,2.1c2,0,3.8-0.2,5.3-0.7c1.6-0.5,3.2-1.1,5-1.9c0.1-0.1,0.4-0.3,0.8-0.4c0.4-0.1,0.9-0.2,1.5-0.2
									c1.8,0,3.2,0.5,4,1.6s1.2,2.1,1.2,3.2c0,1.6-0.7,3-2.1,4c-1.4,1-3.1,1.9-5,2.5c-2,0.6-4,1.1-6.2,1.3s-4,0.4-5.6,0.4
									c-3.3,0-6.2-0.5-8.7-1.4c-2.6-0.9-4.7-2.2-6.4-3.8s-3.1-3.6-4-5.8s-1.4-4.6-1.4-7.2v-18.8c0-2.6,0.5-5.1,1.4-7.3
									s2.3-4.2,4-5.8c1.8-1.6,4-2.9,6.6-3.9s5.6-1.4,9-1.4c6.5,0,11.3,1.6,14.5,4.8s4.8,7.5,4.8,12.8c0,5-1.5,9-4.6,11.8
									C600.9,691,596,692.4,589.2,692.4z M597.2,676.1c0-2.8-0.7-4.9-2.1-6.1c-1.4-1.2-3.4-1.8-6-1.8c-3,0-5.3,0.7-6.9,2.2
									c-1.6,1.5-2.4,3.5-2.4,6.1v6.3c1.8,0.2,3.7,0.4,5.5,0.5s3.1,0.2,3.9,0.2c3,0,5.2-0.7,6.3-2S597.2,678.4,597.2,676.1z"/>
								<g>
									<g>
										<path class="st27" d="M635.6,713.5c-0.4,1.1-1.2,2-2.3,2.5c-1.1,0.6-2.2,0.7-3.4,0.6c-0.7-0.1-1.3-0.4-1.9-0.7
											c-0.6-0.3-1-0.8-1.4-1.2c-0.4-0.5-0.6-1-0.8-1.6c-0.1-0.6-0.1-1.2,0.1-1.8l19.3-50.8c0.4-1.1,1.2-2,2.2-2.5
											c1-0.6,2.1-0.7,3.3-0.5c1.3,0.2,2.3,0.9,3.1,1.9s1.1,2.1,1,3.2c0,0.4-0.2,0.8-0.4,1.1L635.6,713.5z"/>
									</g>
								</g>
								<path class="st26" d="M674.8,667.8c0-4.1,0.5-7.9,1.5-11.3c1-3.4,2.6-6.3,4.7-8.7c2.1-2.4,4.7-4.2,7.9-5.5s7-2,11.4-2
									c2.6,0,5.2,0.3,7.6,0.8c2.4,0.5,4.6,1.3,6.5,2.2c1.9,1,3.4,2.1,4.6,3.3c1.1,1.2,1.7,2.5,1.7,3.9s-0.5,2.6-1.5,3.6
									s-2.3,1.5-3.9,1.5c-1,0-1.8-0.2-2.3-0.5s-1.2-0.7-2-1.2l-0.5-0.3c-2.8-2-6.1-3-9.7-3c-2.7,0-5,0.4-6.8,1.2s-3.3,1.9-4.5,3.4
									c-1.1,1.5-1.9,3.3-2.4,5.4c-0.5,2.1-0.7,4.5-0.7,7.1v18.9c0,2.6,0.2,5,0.7,7.1s1.3,3.9,2.4,5.4c1.1,1.5,2.6,2.6,4.5,3.4
									c1.8,0.8,4.1,1.2,6.8,1.2c3.5,0,6.8-1,9.7-2.9l0.5-0.3c0.8-0.5,1.4-0.9,2-1.2s1.3-0.5,2.3-0.5c1.6,0,2.9,0.5,3.9,1.5
									s1.5,2.2,1.5,3.5c0,1.4-0.6,2.7-1.7,4c-1.1,1.2-2.7,2.3-4.6,3.2c-1.9,0.9-4.1,1.7-6.5,2.2s-5,0.8-7.6,0.8
									c-4.4,0-8.2-0.7-11.4-2s-5.8-3.2-7.9-5.5c-2.1-2.4-3.7-5.3-4.7-8.6c-1-3.4-1.5-7.1-1.5-11.3V667.8z"/>
								<path class="st26" d="M750.3,714.2c-3.5,0-6.7-0.5-9.3-1.5c-2.7-1-4.9-2.4-6.7-4.1c-1.8-1.7-3.2-3.8-4.1-6.2
									c-0.9-2.4-1.4-4.9-1.4-7.6V678c0-2.8,0.5-5.3,1.4-7.7c0.9-2.3,2.3-4.4,4.1-6.1c1.8-1.7,4-3.1,6.7-4.1s5.8-1.5,9.3-1.5
									s6.6,0.5,9.3,1.5s4.9,2.4,6.8,4.1c1.8,1.7,3.2,3.8,4.1,6.1c0.9,2.3,1.4,4.9,1.4,7.7v16.8c0,2.7-0.5,5.2-1.4,7.6
									c-0.9,2.4-2.3,4.4-4.1,6.2c-1.8,1.7-4.1,3.1-6.8,4.1C756.9,713.7,753.8,714.2,750.3,714.2z M750.3,704.1
									c3.3,0,5.8-0.8,7.5-2.4c1.7-1.6,2.5-3.9,2.5-6.8V678c0-2.8-0.8-5.1-2.5-6.7c-1.7-1.6-4.2-2.4-7.5-2.4s-5.8,0.8-7.5,2.4
									c-1.7,1.6-2.5,3.9-2.5,6.7v16.9c0,2.9,0.8,5.2,2.5,6.8S747,704.1,750.3,704.1z"/>
								<path class="st26" d="M792.4,714.2c-0.9,0-1.8-0.1-2.8-0.4c-1-0.2-1.9-0.8-2.7-1.6s-1.5-2-2.1-3.6s-0.9-3.6-0.9-6.2v-56.8
									c0-1.4,0.5-2.7,1.7-3.7c1.1-1.1,2.5-1.6,4.1-1.6s3,0.5,4.1,1.5s1.7,2.3,1.7,3.8v56.1c0,1.1,0.1,2,0.2,2.6
									c0.1,0.6,0.6,1.3,1.3,2.1c0.4,0.4,0.7,0.7,1,1.1c0.3,0.4,0.4,1,0.4,1.8c0,1.5-0.5,2.7-1.6,3.5
									C795.7,713.8,794.2,714.2,792.4,714.2z"/>
								<path class="st26" d="M818.8,714.2c-0.9,0-1.8-0.1-2.8-0.4c-1-0.2-1.9-0.8-2.7-1.6s-1.5-2-2.1-3.6s-0.9-3.6-0.9-6.2v-56.8
									c0-1.4,0.5-2.7,1.7-3.7c1.1-1.1,2.5-1.6,4.1-1.6s3,0.5,4.1,1.5s1.7,2.3,1.7,3.8v56.1c0,1.1,0.1,2,0.2,2.6
									c0.1,0.6,0.6,1.3,1.3,2.1c0.4,0.4,0.7,0.7,1,1.1c0.3,0.4,0.4,1,0.4,1.8c0,1.5-0.5,2.7-1.6,3.5
									C822,713.8,820.6,714.2,818.8,714.2z"/>
								<path class="st26" d="M855.2,692.4c-1.5,0-3-0.1-4.6-0.2c-1.6-0.1-3.2-0.3-4.9-0.6v4.9c0,2.4,0.8,4.3,2.4,5.7
									c1.6,1.4,4.2,2.1,7.6,2.1c2,0,3.8-0.2,5.3-0.7c1.6-0.5,3.2-1.1,5-1.9c0.1-0.1,0.4-0.3,0.8-0.4c0.4-0.1,0.9-0.2,1.5-0.2
									c1.8,0,3.2,0.5,4,1.6s1.2,2.1,1.2,3.2c0,1.6-0.7,3-2.1,4c-1.4,1-3.1,1.9-5,2.5c-2,0.6-4,1.1-6.2,1.3s-4,0.4-5.6,0.4
									c-3.3,0-6.2-0.5-8.7-1.4c-2.6-0.9-4.7-2.2-6.4-3.8s-3.1-3.6-4-5.8s-1.4-4.6-1.4-7.2v-18.8c0-2.6,0.5-5.1,1.4-7.3
									s2.3-4.2,4-5.8c1.8-1.6,4-2.9,6.6-3.9s5.6-1.4,9-1.4c6.5,0,11.3,1.6,14.5,4.8s4.8,7.5,4.8,12.8c0,5-1.5,9-4.6,11.8
									C866.9,691,862,692.4,855.2,692.4z M863.1,676.1c0-2.8-0.7-4.9-2.1-6.1c-1.4-1.2-3.4-1.8-6-1.8c-3,0-5.3,0.7-6.9,2.2
									c-1.6,1.5-2.4,3.5-2.4,6.1v6.3c1.8,0.2,3.7,0.4,5.5,0.5s3.1,0.2,3.9,0.2c3,0,5.2-0.7,6.3-2
									C862.5,680.2,863.1,678.4,863.1,676.1z"/>
								<path class="st26" d="M903.8,658.8c2.6,0,5.1,0.3,7.4,0.9c2.3,0.6,4.6,1.5,6.8,2.7c1.3-2.1,2.7-3.6,4.4-4.6s3.2-1.5,4.5-1.5
									s2.6,0.5,3.7,1.4c1.1,1,1.7,2.1,1.7,3.6c0,0.7-0.1,1.3-0.4,1.8c-0.3,0.5-0.6,0.9-0.9,1.2l-1.6,1.6c-0.7,0.7-1.3,1.3-1.8,1.9
									c-0.5,0.5-0.8,1-1.1,1.5s-0.5,1-0.6,1.6s-0.2,1.3-0.2,2.1v6.3c0,2.8-0.4,5.3-1.3,7.7c-0.9,2.3-2.2,4.4-3.9,6.1
									c-1.8,1.7-4,3.1-6.6,4c-2.6,1-5.7,1.5-9.3,1.5c-1.2,0-2.4-0.1-3.7-0.2c-1.2-0.1-2.4-0.4-3.5-0.7c-0.4,0.8-0.6,1.5-0.7,2
									c-0.1,0.6-0.2,1.1-0.2,1.7c0,1.6,0.5,2.7,1.5,3.2s2,0.8,2.9,0.8h4.5c3.3,0,6.3,0.3,9,1c2.8,0.6,5.2,1.6,7.2,2.9
									c2.1,1.3,3.7,3,4.8,4.9c1.2,2,1.8,4.4,1.8,7.1s-0.6,5.2-1.8,7.4s-2.8,4-4.9,5.6c-2.1,1.6-4.6,2.7-7.4,3.6
									c-2.8,0.8-6,1.2-9.4,1.2c-3.3,0-6.2-0.4-8.9-1.2s-5-1.9-7-3.3c-2-1.4-3.5-3.2-4.5-5.3c-1.1-2.1-1.6-4.5-1.6-7.1
									c0-2.3,0.5-4.5,1.5-6.4c1-2,2.6-3.8,4.7-5.7c-1-1.4-1.7-2.9-2.1-4.4c-0.4-1.5-0.6-2.9-0.6-4.1c0-1.2,0.2-2.5,0.7-3.9
									s1.4-2.8,2.8-4.3c-4.2-3.8-6.3-8.7-6.3-14.9c0-2.8,0.4-5.5,1.3-7.9c0.9-2.4,2.1-4.5,3.8-6.3s3.8-3.2,6.3-4.2
									C897.5,659.3,900.5,658.8,903.8,658.8z M903.5,715.2c-1.1,0-2.2,0-3.2-0.1s-2-0.1-3-0.2c-1.8,1.8-2.8,4-2.8,6.4
									c0,2.6,0.9,4.5,2.7,6c1.8,1.4,4.5,2.1,8.1,2.1c3.4,0,6.2-0.7,8.4-2s3.3-3.2,3.3-5.8c0-4.3-3.7-6.4-11.2-6.4H903.5z
									 M914.3,676.1c0-0.9,0-1.7,0-2.6c0-0.9,0-1.8,0.1-2.6c-1.6-0.8-3.1-1.4-4.5-1.9c-1.5-0.5-3-0.7-4.6-0.7
									c-3.4,0-5.9,0.9-7.6,2.7c-1.7,1.8-2.5,4.4-2.5,7.8c0,3.1,0.8,5.6,2.3,7.5c1.5,1.8,4,2.8,7.5,2.8c3.2,0,5.6-0.8,7.1-2.5
									s2.3-4,2.3-7L914.3,676.1L914.3,676.1z"/>
								<path class="st26" d="M958.5,692.4c-1.5,0-3-0.1-4.6-0.2c-1.6-0.1-3.2-0.3-4.9-0.6v4.9c0,2.4,0.8,4.3,2.4,5.7
									c1.6,1.4,4.2,2.1,7.6,2.1c2,0,3.8-0.2,5.3-0.7c1.6-0.5,3.2-1.1,5-1.9c0.1-0.1,0.4-0.3,0.8-0.4c0.4-0.1,0.9-0.2,1.5-0.2
									c1.8,0,3.2,0.5,4,1.6s1.2,2.1,1.2,3.2c0,1.6-0.7,3-2.1,4c-1.4,1-3.1,1.9-5,2.5c-2,0.6-4,1.1-6.2,1.3s-4,0.4-5.6,0.4
									c-3.3,0-6.2-0.5-8.7-1.4c-2.6-0.9-4.7-2.2-6.4-3.8s-3.1-3.6-4-5.8s-1.4-4.6-1.4-7.2v-18.8c0-2.6,0.5-5.1,1.4-7.3
									s2.3-4.2,4-5.8c1.8-1.6,4-2.9,6.6-3.9s5.6-1.4,9-1.4c6.5,0,11.3,1.6,14.5,4.8s4.8,7.5,4.8,12.8c0,5-1.5,9-4.6,11.8
									C970.2,691,965.3,692.4,958.5,692.4z M966.5,676.1c0-2.8-0.7-4.9-2.1-6.1c-1.4-1.2-3.4-1.8-6-1.8c-3,0-5.3,0.7-6.9,2.2
									c-1.6,1.5-2.4,3.5-2.4,6.1v6.3c1.8,0.2,3.7,0.4,5.5,0.5s3.1,0.2,3.9,0.2c3,0,5.2-0.7,6.3-2
									C965.9,680.2,966.5,678.4,966.5,676.1z"/>
							</g>
						</g>
						<g>
							<g>
								<path class="st27" d="M291.1,794.8c-0.7,2.1-1.6,2.9-3.2,2.9s-2.5-0.9-3.1-2.8l-9.9-30.6c-0.5-1.4,0.8-2.6,2.2-2.6
									c0.8,0,1.6,0.3,1.9,1.5l8.9,28.7l8.8-28.7c0.2-0.7,0.9-1.5,2-1.5c1.2,0.1,2.2,1,2.2,2.3c0,0.2,0,0.3-0.1,0.6L291.1,794.8z"
									/>
								<path class="st27" d="M313.2,795.5c0,1.3-1,2.2-2.2,2.2c-1.3,0-2.3-1-2.3-2.2v-24.2c0-2.4-0.3-3.9-1.3-5.3
									c-0.3-0.3-0.4-0.8-0.4-1.2c0-1.2,1-2,2.1-2c0.9,0,1.9,0.9,2.7,2.2c3.3-2.1,7.4-3.3,9.9-3.3c2.4,0,3.2,1,3.2,2.2
									c0,1.4-1,2.4-2.2,2.4c-3.1-0.1-5.8-0.1-9.6,2.8v0.1c0,0,0.1,0.1,0.1,2.2L313.2,795.5L313.2,795.5z"/>
								<path class="st27" d="M334.4,752.8c-1.7,0-2.9-1.3-2.9-2.8c0-1.7,1.3-2.9,2.9-2.9c1.5,0,2.8,1.3,2.8,2.9
									C337.3,751.5,335.9,752.8,334.4,752.8z M334.4,797.7c-1.3,0-2.3-1-2.3-2.2V764c0-1.3,1-2.3,2.3-2.3c1.2,0,2.2,1,2.2,2.3
									v31.5C336.6,796.7,335.6,797.7,334.4,797.7z"/>
								<path class="st27" d="M353.7,801.8c0,7-3.7,11.9-9.7,12.8c-0.6,0.1-0.8,0-1.3,0c-0.8,0-1.7-0.6-1.9-1.4
									c-0.3-1.6,0.8-2.3,1.7-2.4c4.2-1,6.5-3.2,6.5-8.8v-38c0-1.3,1-2.3,2.3-2.3c1.2,0,2.2,1,2.2,2.3v37.8L353.7,801.8
									L353.7,801.8z M351.5,752.8c-1.7,0-3-1.3-3-2.8c0-1.7,1.3-2.9,3-2.9c1.5,0,2.8,1.3,2.8,2.9
									C354.3,751.5,353,752.8,351.5,752.8z"/>
								<path class="st27" d="M383.9,791.9c0.1-0.1,0.5-0.2,0.8-0.2c1.1,0,1.9,1,1.9,1.9c0,3.1-7.4,4.1-11,4.1
									c-7.8,0-12.2-4.9-12.2-11.3V773c0-6.6,4.4-11.6,12.6-11.6c7.6,0,11.2,4.4,11.2,11.1c0,6.3-3.4,10.1-11.5,10.1
									c-2.3,0-5.1-0.2-7.8-0.8v4.9c0,4.2,2.8,7.1,8.4,7.1C379.4,793.9,381.4,793,383.9,791.9z M375.7,765.4c-5,0-7.9,2.8-7.9,7.1
									v5.9c3,0.4,6.7,0.6,8.1,0.6c5.8,0,6.8-3.1,6.8-6.4C382.7,767.5,380.2,765.4,375.7,765.4z"/>
								<path class="st27" d="M409,748.5c0-1.1,0.8-2.2,2.3-2.2s2.2,1.1,2.2,2.2v16.3c3.1-2.2,6.3-3.4,10.1-3.4
									c7.7,0,10.5,4.7,10.5,10.6v13.5c0,6.9-4.2,12.2-12.5,12.2c-8.1,0-12.6-4.7-12.6-10.7V748.5z M413.5,787
									c0,4.1,3.1,6.6,8.1,6.6c5.5,0,8-3.1,8-8.1V772c0-4.3-2.2-6.9-7.4-6.9c-3.7,0-6.5,1.5-8.7,4V787z"/>
								<path class="st27" d="M460.4,773.5c0-5.6-2.6-8.3-8.1-8.3c-2.6,0-4,0.6-5.6,1.5c-0.4,0.3-1,0.6-1.7,0.6c-1,0-1.5-1-1.5-1.8
									c-0.3-2.9,4.9-4.1,9.5-4.1c8.5,0,11.9,4.9,11.9,14v15.7c0,1.8,0.6,2.7,1.9,2.7c0.3,0,0.4-0.1,0.6-0.1c1,0,1.5,1,1.5,1.9
									c0,1.4-1.4,1.9-2.6,1.9c-2.2,0-4-1.5-5.3-4c-2.9,2.8-6.2,4.2-9.9,4.2c-7,0-10.4-4.2-10.4-10.2v-0.3c0-6.7,4-10.1,12.1-10.1
									c2.4,0,5,0.5,7.7,1.3v-4.9L460.4,773.5L460.4,773.5z M445.1,787.3v0.3c0,3.6,1.6,6.3,6.9,6.3c3.2,0,5.8-1.1,8.5-3.4v-8.3
									c-2.8-0.9-5.7-1.3-7.8-1.3C446.3,780.8,445.1,783.7,445.1,787.3z"/>
								<path class="st27" d="M486.3,761.5c3.5,0,9,0.8,9,3.5c0,1.1-0.8,2-2,2c-0.4,0-0.7-0.1-1-0.3c-1.6-0.8-3-1.4-5.7-1.4
									c-4.7,0-6.9,1.9-6.9,5.6c0,2.5,1,3.7,3.7,5.2c5.5,2.7,13,3.4,13,11.7c0,6.1-3.9,9.9-11.5,9.9c-3.5,0-10.1-0.7-10.1-3.5
									c0-1,0.8-2.1,2.2-2.1c0.1,0,0.2,0,0.4,0.1c2.1,0.8,4.4,1.7,7.5,1.7c4.2,0,7.1-1.7,7.1-5.8c0-2.9-1.3-4.2-2.8-5.1
									c-5.4-2.7-13.8-3.4-13.8-11.7C475.3,765.3,479.1,761.5,486.3,761.5z"/>
								<path class="st27" d="M506.9,752.8c-1.7,0-2.9-1.3-2.9-2.8c0-1.7,1.3-2.9,2.9-2.9c1.5,0,2.8,1.3,2.8,2.9
									C509.7,751.5,508.4,752.8,506.9,752.8z M506.9,797.7c-1.3,0-2.3-1-2.3-2.2V764c0-1.3,1-2.3,2.3-2.3c1.2,0,2.2,1,2.2,2.3
									v31.5C509.1,796.7,508.1,797.7,506.9,797.7z"/>
								<path class="st27" d="M530.4,761.5c3.5,0,9,0.8,9,3.5c0,1.1-0.8,2-2,2c-0.4,0-0.7-0.1-1-0.3c-1.6-0.8-3-1.4-5.7-1.4
									c-4.7,0-6.9,1.9-6.9,5.6c0,2.5,1,3.7,3.7,5.2c5.5,2.7,13,3.4,13,11.7c0,6.1-3.9,9.9-11.5,9.9c-3.5,0-10.1-0.7-10.1-3.5
									c0-1,0.8-2.1,2.2-2.1c0.1,0,0.2,0,0.4,0.1c2.1,0.8,4.4,1.7,7.5,1.7c4.2,0,7.1-1.7,7.1-5.8c0-2.9-1.3-4.2-2.8-5.1
									c-5.4-2.7-13.8-3.4-13.8-11.7C519.4,765.3,523.2,761.5,530.4,761.5z"/>
								<path class="st27" d="M558,761.5c3.5,0,9,0.8,9,3.5c0,1.1-0.8,2-2,2c-0.4,0-0.7-0.1-1-0.3c-1.6-0.8-3-1.4-5.7-1.4
									c-4.7,0-6.9,1.9-6.9,5.6c0,2.5,1,3.7,3.7,5.2c5.5,2.7,13,3.4,13,11.7c0,6.1-3.9,9.9-11.5,9.9c-3.5,0-10.1-0.7-10.1-3.5
									c0-1,0.8-2.1,2.2-2.1c0.1,0,0.2,0,0.4,0.1c2.1,0.8,4.4,1.7,7.5,1.7c4.2,0,7.1-1.7,7.1-5.8c0-2.9-1.3-4.2-2.8-5.1
									c-5.4-2.7-13.8-3.4-13.8-11.7C546.9,765.3,550.8,761.5,558,761.5z"/>
								<path class="st27" d="M574.5,774.3c0-7.1,3.8-12.6,12.4-12.6c3.1,0,9.4,0.8,9.4,3.8c0,1-0.8,1.9-1.9,1.9
									c-0.4,0-0.7-0.1-1-0.1h0.1c-1.7-0.9-3.4-1.7-6-1.7c-6,0-8.4,3.3-8.4,8.8v10.8c0,5.5,2.4,8.8,8.4,8.8c2.7,0,4.3-0.8,6-1.7
									h-0.1c0.5-0.1,0.8-0.2,1-0.2c1,0,1.9,0.9,1.9,1.9c0,2.9-6.3,3.8-9.4,3.8c-8.6,0-12.4-5.5-12.4-12.6V774.3z"/>
								<path class="st27" d="M605.6,797.7c-1.3,0-2.3-1-2.3-2.2v-47.3c0-1.1,0.9-2.3,2.2-2.3s2.2,1,2.2,2.3v16.9
									c3-2.3,6.3-3.6,9.6-3.6c7.3,0,10.6,4.7,10.6,11.4v22.6c0,1.3-1,2.2-2.2,2.2s-2.3-1-2.3-2.2v-22.6c0-4.7-1.9-7.4-6.7-7.4
									c-3,0-6.5,1.5-8.9,4.6v25.3C607.7,796.7,606.8,797.7,605.6,797.7z"/>
								<path class="st27" d="M636.5,785.5v-11.9c0-6.9,4.5-12.2,12.8-12.2c8.4,0,12.8,5.3,12.8,12.2v11.9c0,6.9-4.4,12.2-12.8,12.2
									C641,797.7,636.5,792.4,636.5,785.5z M657.6,785.5v-12c0-5-2.8-8.1-8.3-8.1s-8.3,3.1-8.3,8.1v12c0,5,2.8,8.1,8.3,8.1
									C654.9,793.6,657.6,790.5,657.6,785.5z"/>
								<path class="st27" d="M668.7,785.5v-11.9c0-6.9,4.5-12.2,12.8-12.2c8.4,0,12.8,5.3,12.8,12.2v11.9c0,6.9-4.4,12.2-12.8,12.2
									C673.2,797.7,668.7,792.4,668.7,785.5z M689.9,785.5v-12c0-5-2.8-8.1-8.3-8.1s-8.3,3.1-8.3,8.1v12c0,5,2.8,8.1,8.3,8.1
									C687.1,793.6,689.9,790.5,689.9,785.5z"/>
								<path class="st27" d="M703.1,748.6c0-1.2,1-2.3,2.2-2.3s2.2,1,2.2,2.3V791c0,1.6,0.3,2.8,1.3,3.8c0.1,0.2,0.3,0.7,0.3,1
									c0,1.2-0.8,2-2,2c-1.5,0-4-0.8-4-6.7V748.6z"/>
								<path class="st27" d="M753.9,756.5c-2.6,11.6-6.2,27-8.8,38.5c-0.4,1.2-1.3,2.8-3.3,2.8c-1.7,0-2.8-1.3-3.3-2.8L728,750
									v-0.3c0-1.3,1.5-1.9,2.7-1.9c0.8,0,1.7,0.7,2.1,1.7l9.3,40.1l8.7-38.3c0.6-2.3,1.3-3.8,3.2-3.8s2.6,1.5,3.1,3.8l8.8,38.4
									l9.2-40.2c0.3-1,1-1.7,1.9-1.7c1.3,0,2.8,0.6,2.8,2c0,0.1,0,0.4-0.1,0.6v0.1L769.2,795c-0.4,1.5-1.5,2.8-3.3,2.8
									s-2.9-1.5-3.3-2.9L753.9,756.5z"/>
								<path class="st27" d="M801.6,773.5c0-5.6-2.6-8.3-8.1-8.3c-2.6,0-4,0.6-5.6,1.5c-0.4,0.3-1,0.6-1.7,0.6c-1,0-1.5-1-1.5-1.8
									c-0.3-2.9,4.9-4.1,9.5-4.1c8.5,0,11.9,4.9,11.9,14v15.7c0,1.8,0.6,2.7,1.9,2.7c0.3,0,0.4-0.1,0.6-0.1c1,0,1.5,1,1.5,1.9
									c0,1.4-1.4,1.9-2.6,1.9c-2.2,0-4-1.5-5.3-4c-2.9,2.8-6.2,4.2-9.9,4.2c-7,0-10.4-4.2-10.4-10.2v-0.3c0-6.7,4-10.1,12.1-10.1
									c2.4,0,5,0.5,7.7,1.3v-4.9L801.6,773.5L801.6,773.5z M786.3,787.3v0.3c0,3.6,1.6,6.3,6.9,6.3c3.2,0,5.8-1.1,8.5-3.4v-8.3
									c-2.8-0.9-5.7-1.3-7.8-1.3C787.5,780.8,786.3,783.7,786.3,787.3z"/>
								<path class="st27" d="M822.2,795.5c0,1.3-1,2.2-2.2,2.2c-1.3,0-2.3-1-2.3-2.2v-24.2c0-2.4-0.3-3.9-1.3-5.3
									c-0.3-0.3-0.4-0.8-0.4-1.2c0-1.2,1-2,2.1-2c0.9,0,1.9,0.9,2.7,2.2c3.3-2.1,7.4-3.3,9.9-3.3c2.4,0,3.2,1,3.2,2.2
									c0,1.4-1,2.4-2.2,2.4c-3.1-0.1-5.8-0.1-9.6,2.8v0.1c0,0,0.1,0.1,0.1,2.2V795.5z"/>
								<path class="st27" d="M859.1,791.9c0.1-0.1,0.5-0.2,0.8-0.2c1.1,0,1.9,1,1.9,1.9c0,3.1-7.4,4.1-11,4.1
									c-7.8,0-12.2-4.9-12.2-11.3V773c0-6.6,4.4-11.6,12.6-11.6c7.6,0,11.3,4.4,11.3,11.1c0,6.3-3.4,10.1-11.5,10.1
									c-2.3,0-5.1-0.2-7.8-0.8v4.9c0,4.2,2.8,7.1,8.4,7.1C854.7,793.9,856.6,793,859.1,791.9z M851,765.4c-5,0-7.9,2.8-7.9,7.1
									v5.9c3,0.4,6.7,0.6,8.1,0.6c5.8,0,6.8-3.1,6.8-6.4C858,767.5,855.5,765.4,851,765.4z"/>
								<path class="st27" d="M891.1,764.1c1.7-3.1,4.1-4.4,5.4-4.4c1.2,0,2.1,0.8,2.1,2c0,0.6-0.1,0.9-0.3,1l-0.6,0.7
									c-2.4,2.2-3.5,3.3-3.5,6.6v4.4c0,6.9-4.1,12.4-12.4,12.4c-2.1,0-4.1-0.4-5.9-1.1c-0.9,1.6-1.2,3-1.2,4
									c0,2.9,2.6,3.6,4.4,3.6h3c7.8,0,13.7,3.1,13.7,9.7c0,6.9-6,11-14.1,11c-7.8,0-13.2-3.8-13.2-10.4c0-3.2,1.4-5.9,4-8.2
									c-1.8-1.7-2.4-3.9-2.4-5.5c0-1.5,0.6-3.7,3.1-5.8c-2.8-2.6-4.2-6-4.2-10.1c0-7.2,4-12.6,12.3-12.6
									C884.6,761.5,888.2,762.4,891.1,764.1z M875.9,797.1c-1.9,1.5-2.8,3.5-2.8,5.8c0,4.7,3.1,7.2,8.9,7.2c5.5,0,9.4-2.2,9.4-6.9
									c0-4-3-5.7-9.1-5.7h-3C878,797.5,876.8,797.4,875.9,797.1z M890,767.8c-2.5-1.5-5.1-2.4-7.8-2.4c-5.6,0-8.5,3.2-8.5,8.8
									c0,5.1,2.4,8.6,8.2,8.6c5.5,0,7.9-3.1,7.9-8.1v-4.5C889.8,769.8,889.8,768.8,890,767.8z"/>
								<path class="st27" d="M922.7,791.9c0.1-0.1,0.5-0.2,0.8-0.2c1.1,0,1.9,1,1.9,1.9c0,3.1-7.4,4.1-11,4.1
									c-7.8,0-12.2-4.9-12.2-11.3V773c0-6.6,4.4-11.6,12.6-11.6c7.6,0,11.3,4.4,11.3,11.1c0,6.3-3.4,10.1-11.5,10.1
									c-2.3,0-5.1-0.2-7.8-0.8v4.9c0,4.2,2.8,7.1,8.4,7.1C918.2,793.9,920.2,793,922.7,791.9z M914.5,765.4c-5,0-7.9,2.8-7.9,7.1
									v5.9c3,0.4,6.7,0.6,8.1,0.6c5.8,0,6.8-3.1,6.8-6.4C921.6,767.5,919,765.4,914.5,765.4z"/>
								<path class="st27" d="M948.2,761.5c3.7,0,6.3,1.4,8.2,3.9c3.2-2.4,6.7-3.9,10.5-3.9c7.4,0,11.3,4.7,11.3,11.7v22.4
									c0,1.3-0.7,2.2-2.2,2.2s-2.3-0.9-2.3-2.2v-22.2c0-4.3-2.2-7.8-7-7.8c-3.3,0-6.5,1.8-8.4,4.2c0.2,1,0.3,2.2,0.3,3.5v22.4
									c0,1.3-0.7,2.2-2.2,2.2s-2.3-0.9-2.3-2.2v-20.8c0-5.4-0.9-9.2-6.5-9.2c-3.2,0-6.6,1.5-8.8,3.2c0.1,0.8,0.2,1.6,0.2,2.5v24.3
									c0,1.3-0.8,2.2-2.2,2.2c-1.5,0-2.3-0.9-2.3-2.2v-24.3c0-2.4-0.3-3.9-1.3-5.3c-0.3-0.3-0.4-0.8-0.4-1.2c0-1.2,1-2,2-2
									c0.9,0,1.9,0.6,2.7,2.2C940.9,762.7,944.5,761.5,948.2,761.5z"/>
							</g>
						</g>
					</g>
					<g>
						<circle class="st28" cx="402.6" cy="518.2" r="25.7"/>
						<circle class="st29" cx="558.7" cy="353.4" r="84.4"/>
						<circle class="st30" cx="632.6" cy="519.3" r="61"/>
						<ellipse class="st27" cx="496.1" cy="495.9" rx="41.3" ry="41.3"/>
						<path class="st31" d="M674.2,381c0,56.5,45.8,102.3,102.3,102.3S878.8,437.5,878.8,381S833,278.7,776.5,278.7
							S674.2,324.5,674.2,381z M719.1,382.8c0-31.7,25.7-57.4,57.4-57.4s57.4,25.7,57.4,57.4s-25.7,57.4-57.4,57.4
							C744.8,440.3,719.1,414.6,719.1,382.8z"/>
					</g>
				</g>
			</g>
		</g>
		<g>
			<g>
				<defs>
					<rect id="SVGID_45_" x="1.8" width="1249" height="1087.5"/>
				</defs>
				<clipPath id="SVGID_46_">
					<use xlink:href="#SVGID_45_"  style="overflow:visible;"/>
				</clipPath>
				<rect x="151.8" y="147.5" class="st32" width="949" height="790"/>
			</g>
		</g>
	</g>
	<rect x="151.8" y="147.5" class="st33" width="949" height="790"/>
</g>
</svg>
