<?xml version="1.0" encoding="utf-8"?>
<!-- Generator: Adobe Illustrator 22.0.1, SVG Export Plug-In . SVG Version: 6.00 Build 0)  -->
<svg version="1.1" id="Laag_1" xmlns="http://www.w3.org/2000/svg" xmlns:xlink="http://www.w3.org/1999/xlink" x="0px" y="0px"
	 viewBox="0 0 1251.8 853" style="enable-background:new 0 0 1251.8 853;" xml:space="preserve">
<style type="text/css">
	.st0{display:none;}
	.st1{display:inline;fill:none;stroke:#B3B3B3;stroke-width:4;stroke-miterlimit:10;}
	.st2{display:inline;fill:#F2F2F2;}
	.st3{display:inline;fill:none;stroke:#CCCCCC;stroke-width:0.9851;stroke-miterlimit:10;}
	.st4{clip-path:url(#SVGID_2_);}
	.st5{fill:none;}
	.st6{fill:none;stroke:#CCCCCC;stroke-width:0.9851;stroke-miterlimit:10;}
	.st7{fill:#F2F2F2;}
	.st8{fill:#FC9732;}
	.st9{fill:#D7E100;}
	.st10{fill:#DB169F;}
	.st11{fill:#714FB2;}
	.st12{fill:#3FA8EF;}
	.st13{fill:none;stroke:#CCCCCC;stroke-width:3.3521;stroke-miterlimit:10;}
</style>
<g id="Lijnen_roze_bol">
</g>
<g id="Laag_1_1_">
</g>
<g id="Lijnen_groene_bol" class="st0">
	<rect x="105.8" y="101.5" class="st1" width="1041" height="881"/>
	<circle class="st2" cx="1062.7" cy="729.4" r="84.4"/>
	<circle class="st2" cx="794.7" cy="185.4" r="84.4"/>
	<circle class="st2" cx="357.7" cy="898.4" r="84.4"/>
	<circle class="st2" cx="189.7" cy="353.4" r="84.4"/>
	<line class="st3" x1="273.8" y1="1198.5" x2="273.8" y2="-91.5"/>
	<line class="st3" x1="105.8" y1="1198" x2="105.8" y2="-92"/>
	<line class="st3" x1="376.8" y1="1199" x2="376.8" y2="-91"/>
	<line class="st3" x1="878.8" y1="1198" x2="878.8" y2="-92"/>
	<line class="st3" x1="977.8" y1="1199" x2="977.8" y2="-91"/>
	<line class="st3" x1="1146.8" y1="1218" x2="1146.8" y2="-72"/>
	<line class="st3" x1="-258.3" y1="269.5" x2="1582.8" y2="269.5"/>
	<line class="st3" x1="-270.8" y1="101.5" x2="1570.3" y2="101.5"/>
	<line class="st3" x1="-468.8" y1="982.5" x2="1372.3" y2="982.5"/>
	<line class="st3" x1="-257.8" y1="659.5" x2="1583.3" y2="659.5"/>
	<line class="st3" x1="-257.8" y1="640.5" x2="1583.3" y2="640.5"/>
	<line class="st3" x1="-257.8" y1="714.5" x2="1583.3" y2="714.5"/>
	<line class="st3" x1="-323.8" y1="745.5" x2="1517.3" y2="745.5"/>
	<line class="st3" x1="-270.8" y1="761.5" x2="1570.3" y2="761.5"/>
	<line class="st3" x1="-257.8" y1="814.5" x2="1583.3" y2="814.5"/>
	<line class="st3" x1="-257.8" y1="797.5" x2="1583.3" y2="797.5"/>
</g>
<g id="Laag_4" class="st0">
	<rect x="105.8" y="101.5" class="st1" width="1041" height="881"/>
</g>
<g>
	<g>
		<defs>
			<rect id="SVGID_1_" x="1.8" y="-0.5" width="1249" height="854.8"/>
		</defs>
		<clipPath id="SVGID_2_">
			<use xlink:href="#SVGID_1_"  style="overflow:visible;"/>
		</clipPath>
		<g id="Laag_5" class="st4">
			<g>
				<rect x="1.8" class="st5" width="1249" height="1087.5"/>
				<line class="st6" x1="273.8" y1="1198.5" x2="273.8" y2="-91.5"/>
				<rect x="1.8" class="st5" width="1249" height="1087.5"/>
				<line class="st6" x1="151.8" y1="1199" x2="151.8" y2="-91"/>
				<rect x="1.8" class="st5" width="1249" height="1087.5"/>
				<line class="st6" x1="1100.8" y1="1199" x2="1100.8" y2="-91"/>
				<rect x="1.8" class="st5" width="1249" height="1087.5"/>
				<line class="st6" x1="376.8" y1="1199" x2="376.8" y2="-91"/>
				<rect x="1.8" class="st5" width="1249" height="1087.5"/>
				<line class="st6" x1="878.8" y1="1198" x2="878.8" y2="-92"/>
				<rect x="1.8" class="st5" width="1249" height="1087.5"/>
				<line class="st6" x1="977.8" y1="1199" x2="977.8" y2="-91"/>
				<rect x="1.8" class="st5" width="1249" height="1087.5"/>
				<line class="st6" x1="-258.3" y1="269.5" x2="1582.8" y2="269.5"/>
				<rect x="1.8" class="st5" width="1249" height="1087.5"/>
				<line class="st6" x1="-257.8" y1="147.5" x2="1583.3" y2="147.5"/>
				<rect x="1.8" class="st5" width="1249" height="1087.5"/>
				<rect x="1.8" class="st5" width="1249" height="1087.5"/>
				<line class="st6" x1="-257.8" y1="580.3" x2="1583.3" y2="580.3"/>
				<line class="st6" x1="-257.8" y1="701.9" x2="1583.3" y2="701.9"/>
				<rect x="1.8" class="st5" width="1249" height="1087.5"/>
				<rect x="1.8" class="st5" width="1249" height="1087.5"/>
				<rect x="1.8" class="st5" width="1249" height="1087.5"/>
				<rect x="1.8" class="st5" width="1249" height="1087.5"/>
				<rect x="1.8" class="st5" width="1249" height="1087.5"/>
				<rect x="1.8" class="st5" width="1249" height="1087.5"/>
				<rect x="1.8" class="st5" width="1249" height="1087.5"/>
				<rect x="1.8" class="st5" width="1249" height="1087.5"/>
				<circle class="st7" cx="212.3" cy="331.2" r="61"/>
				<rect x="1.8" class="st5" width="1249" height="1087.5"/>
				<circle class="st7" cx="817.6" cy="208.1" r="61"/>
				<rect x="1.8" class="st5" width="1249" height="1087.5"/>
				<circle class="st7" cx="1039.6" cy="519.3" r="61"/>
				<rect x="1.8" class="st5" width="1249" height="1087.5"/>
				<circle class="st7" cx="435.1" cy="641.3" r="61"/>
				<rect x="1.8" class="st5" width="1249" height="1087.5"/>
				<g>
					<g>
						<circle class="st8" cx="402.6" cy="518.2" r="25.7"/>
						<circle class="st9" cx="558.7" cy="353.4" r="84.4"/>
						<circle class="st10" cx="632.6" cy="519.3" r="61"/>
						<ellipse class="st11" cx="496.1" cy="495.9" rx="41.3" ry="41.3"/>
						<path class="st12" d="M674.2,381c0,56.5,45.8,102.3,102.3,102.3S878.8,437.5,878.8,381S833,278.7,776.5,278.7
							S674.2,324.5,674.2,381z M719.1,382.8c0-31.7,25.7-57.4,57.4-57.4s57.4,25.7,57.4,57.4s-25.7,57.4-57.4,57.4
							C744.8,440.3,719.1,414.6,719.1,382.8z"/>
					</g>
				</g>
				<rect x="151.8" y="147.5" class="st13" width="949" height="554.8"/>
			</g>
		</g>
	</g>
</g>
<rect x="151.8" y="147.5" class="st13" width="949" height="554.8"/>
</svg>
