<?xml version="1.0" encoding="utf-8"?>
<!-- Generator: Adobe Illustrator 22.0.1, SVG Export Plug-In . SVG Version: 6.00 Build 0)  -->
<svg version="1.1" id="Laag_1" xmlns="http://www.w3.org/2000/svg" xmlns:xlink="http://www.w3.org/1999/xlink" x="0px" y="0px"
	 viewBox="0 0 848.8 1102.3" style="enable-background:new 0 0 848.8 1102.3;" xml:space="preserve">
<style type="text/css">
	.st0{fill:#3FA8EF;}
	.st1{fill:#FFFFFF;}
	.st2{display:none;}
	.st3{display:inline;fill:none;stroke:#CCCCCC;stroke-width:0.9851;stroke-miterlimit:10;}
	.st4{display:inline;fill:none;stroke:#B3B3B3;stroke-width:4;stroke-miterlimit:10;}
	.st5{display:inline;fill:#F2F2F2;}
</style>
<g id="Laag_1_1_">
	<rect x="-27.8" y="-23" class="st0" width="900" height="1155.5"/>
	<g>
		<g>
			<g>
				<g>
					<path class="st1" d="M134.1,911.1c0,2.2,0.2,4.3,0.6,6.1c0.4,1.8,1.1,3.3,2,4.6c0.9,1.3,2.2,2.2,3.8,2.9c1.5,0.7,3.5,1,5.8,1
						c1.9,0,3.5-0.3,5-0.7c1.5-0.4,2.7-1.1,3.9-2v-16.8h-6.8c-1.2,0-2.3-0.4-3.2-1.4c-0.9-0.9-1.4-2-1.4-3.2c0-1.3,0.4-2.3,1.4-3.2
						c0.9-0.9,2-1.3,3.2-1.3h10.3c1.7,0,3.2,0.4,4.4,1.3s1.9,2.2,1.9,3.9v20.9c0,2-0.6,3.7-1.8,5.1c-1.2,1.5-2.7,2.6-4.6,3.5
						c-1.9,0.9-3.9,1.5-6.2,2c-2.3,0.4-4.5,0.6-6.7,0.6c-3.8,0-7-0.6-9.7-1.7c-2.7-1.1-5-2.7-6.7-4.7c-1.8-2-3.2-4.5-4-7.3
						c-0.9-2.9-1.3-6.1-1.3-9.6v-16.1c0-3.5,0.4-6.7,1.3-9.6c0.9-2.9,2.2-5.4,4-7.4c1.8-2,4-3.6,6.7-4.7c2.7-1.1,6-1.7,9.7-1.7
						c2.2,0,4.4,0.3,6.5,0.7s3.9,1.1,5.6,1.9c1.6,0.9,2.9,1.8,3.9,2.8c0.9,1,1.5,2.1,1.5,3.3c0,1.2-0.4,2.2-1.3,3.1
						c-0.9,0.9-2,1.3-3.3,1.3c-0.9,0-1.5-0.2-2-0.4c-0.4-0.3-1-0.6-1.7-1l-0.4-0.3c-1.2-0.9-2.5-1.5-3.8-1.9s-2.8-0.6-4.4-0.6
						c-2.3,0-4.3,0.3-5.8,1c-1.5,0.7-2.8,1.6-3.8,2.9c-0.9,1.3-1.6,2.8-2,4.6c-0.4,1.8-0.6,3.8-0.6,6.1v16.2H134.1z"/>
					<path class="st1" d="M198.4,903.5c0-5.3-2.8-8-8.4-8c-1.2,0-2.2,0.1-3,0.3c-0.8,0.3-1.5,0.5-2.4,0.9l-1.7,0.8
						c-0.6,0.3-1.4,0.4-2.4,0.4c-1.4,0-2.3-0.4-2.9-1.3c-0.6-0.9-0.9-1.8-0.9-2.7c0-1.2,0.4-2.2,1.2-3.1c0.8-0.9,1.9-1.5,3.2-2
						c1.4-0.5,2.8-0.9,4.5-1.2c1.7-0.3,3.4-0.3,5.2-0.3c6.1,0,10.6,1.5,13.2,4.7c2.6,3.2,4,7.8,4,13.8v18.4c0,1.1,0.2,1.9,0.6,2.2
						c0.4,0.3,0.9,0.6,1.6,0.7c1.8,0.3,2.7,1.5,2.7,3.2c0,2.6-1.8,3.8-5.4,3.8c-3.2,0-5.6-1.4-7.3-4.1c-3.4,2.9-7.5,4.4-12.4,4.4
						c-5,0-8.7-1.3-11.2-3.8c-2.5-2.6-3.8-6-3.8-10.2v-0.3c0-9.1,5.6-13.7,17-13.7c2.8,0,5.6,0.3,8.2,1.1L198.4,903.5L198.4,903.5z
						 M190.4,913.9c-1.5,0-2.9,0.2-3.8,0.5c-1,0.3-1.8,0.8-2.3,1.4c-0.5,0.6-0.9,1.3-1.1,2s-0.3,1.6-0.3,2.5v0.3
						c0,1.8,0.5,3.2,1.5,4.2c1,1,2.7,1.5,5.3,1.5c1.5,0,3.1-0.3,4.4-0.8c1.4-0.5,2.8-1.3,4.2-2.5v-8.2c-1.4-0.3-2.7-0.5-4.1-0.8
						C192.9,914,191.6,913.9,190.4,913.9z"/>
					<path class="st1" d="M251.7,895.9c-2,5.6-3.9,11.3-5.8,16.8c-1.9,5.6-3.8,11.2-5.7,16.9c-0.6,1.8-1.4,3-2.3,3.8
						s-2.1,1.1-3.7,1.1c-1.6,0-2.9-0.3-3.8-1.1c-0.9-0.8-1.6-2-2.2-3.7c-2-5.7-3.9-11.4-5.9-17c-2-5.6-3.9-11.3-5.9-17l-1-3.6
						c0-0.1,0-0.2-0.1-0.3c0-0.1-0.1-0.2-0.1-0.3c0-1.2,0.5-2.2,1.5-3.1c1-0.9,2.1-1.2,3.3-1.2c0.9,0,1.8,0.3,2.7,0.9
						c0.9,0.5,1.5,1.4,1.8,2.4c0.9,2.7,1.7,5.5,2.6,8.1s1.7,5.4,2.6,8.1c0.9,2.7,1.6,5.4,2.2,8c0.6,2.6,1.3,5.3,2,8
						c0.7-2.7,1.3-5.4,1.9-8c0.6-2.6,1.4-5.3,2.2-8c0.9-2.7,1.7-5.4,2.5-8.1c0.9-2.6,1.6-5.4,2.5-8.1c0.3-0.9,0.9-1.6,1.8-2.2
						c0.9-0.6,1.8-0.9,2.7-0.9c1.3,0,2.4,0.4,3.3,1.2c0.9,0.9,1.5,1.9,1.5,3.2v0.5L251.7,895.9z"/>
					<path class="st1" d="M276.3,915.9c-1.3,0-2.6-0.1-3.9-0.2s-2.7-0.3-4.2-0.5v4.2c0,2,0.7,3.7,2,4.9c1.4,1.2,3.6,1.8,6.5,1.8
						c1.7,0,3.2-0.2,4.5-0.6c1.4-0.4,2.7-0.9,4.3-1.6c0.1-0.1,0.3-0.3,0.7-0.3s0.8-0.2,1.3-0.2c1.5,0,2.7,0.4,3.4,1.4
						c0.7,0.9,1,1.8,1,2.7c0,1.4-0.6,2.6-1.8,3.4c-1.2,0.9-2.6,1.6-4.3,2.1c-1.7,0.5-3.4,0.9-5.3,1.1c-1.9,0.2-3.4,0.3-4.8,0.3
						c-2.8,0-5.3-0.4-7.4-1.2c-2.2-0.8-4-1.9-5.5-3.2s-2.6-3.1-3.4-5c-0.8-1.9-1.2-3.9-1.2-6.1v-16.1c0-2.2,0.4-4.4,1.2-6.2
						c0.8-1.9,2-3.6,3.4-5c1.5-1.4,3.4-2.5,5.6-3.3c2.2-0.9,4.8-1.2,7.7-1.2c5.6,0,9.6,1.4,12.4,4.1c2.7,2.7,4.1,6.4,4.1,10.9
						c0,4.3-1.3,7.7-3.9,10.1C286.4,914.7,282.1,915.9,276.3,915.9z M283.2,901.9c0-2.4-0.6-4.2-1.8-5.2c-1.2-1-2.9-1.5-5.1-1.5
						c-2.6,0-4.5,0.6-5.9,1.9c-1.4,1.3-2,3-2,5.2v5.4c1.5,0.2,3.2,0.3,4.7,0.4c1.5,0.1,2.6,0.2,3.3,0.2c2.6,0,4.4-0.6,5.4-1.7
						C282.7,905.4,283.2,903.9,283.2,901.9z"/>
					<path class="st1" d="M322.4,896.6c-0.9,0-1.9,0-2.6,0c-0.9,0-1.6,0.1-2.4,0.2c-0.8,0.1-1.5,0.3-2.4,0.6
						c-0.9,0.3-1.7,0.8-2.6,1.3c0.1,0.4,0.1,0.8,0.2,1.1c0,0.3,0.1,0.7,0.1,0.9v29.1c0,1.4-0.5,2.5-1.4,3.3
						c-0.9,0.9-2.1,1.3-3.5,1.3s-2.6-0.4-3.5-1.3c-0.9-0.9-1.5-2-1.5-3.3v-29.1c0-1.3-0.1-2.3-0.3-3.1c-0.2-0.8-0.5-1.5-1-2.2
						c-0.3-0.3-0.5-0.8-0.7-1.1c-0.2-0.3-0.3-0.9-0.3-1.4c0-1.3,0.4-2.3,1.4-3.1c0.9-0.8,2-1.2,3.3-1.2c0.9,0,1.6,0.3,2.3,0.8
						c0.7,0.5,1.3,1.1,1.9,1.9c2-1.2,4.2-2.1,6.3-2.9c2.1-0.7,4-1,5.6-1c2.3,0,3.9,0.4,4.8,1.3c0.9,0.9,1.3,1.9,1.3,3.2
						c0,1.5-0.5,2.6-1.5,3.5C325,896.3,323.8,896.7,322.4,896.6z"/>
					<path class="st1" d="M345.1,904l13.1-13.9c0.6-0.7,1.3-1.3,2-1.8c0.8-0.5,1.6-0.8,2.6-0.8c1.4,0,2.5,0.4,3.3,1.2
						c0.9,0.9,1.4,1.8,1.4,3.1c0,1.2-0.4,2.2-1.3,3.1l-12.3,12.7c2.4,3.4,4.9,6.7,7.3,10.1s4.8,6.7,7.2,10.1
						c0.3,0.3,0.5,0.8,0.6,1.3c0.1,0.5,0.2,1,0.2,1.5c-0.1,1.2-0.6,2.1-1.5,2.9c-0.9,0.7-2,1-3.2,1c-0.8,0-1.3-0.1-1.8-0.2
						c-0.4-0.1-0.9-0.3-1.2-0.6c-0.3-0.3-0.7-0.7-1-1.2c-0.3-0.5-0.8-1.1-1.2-1.8l-12-17.2c-0.3,0.3-0.7,0.7-1,1
						c-0.3,0.4-0.7,0.8-1,1v12.5c0,1.7-0.3,3.2-1,4.5c-0.7,1.4-2,2-3.8,2c-1.4,0-2.6-0.4-3.5-1.3c-0.9-0.9-1.5-2-1.5-3.2v-51.6
						c0-0.9,0.1-1.8,0.2-2.6c0.1-0.9,0.3-1.5,0.8-2.2c0.3-0.6,0.9-1.1,1.5-1.5c0.6-0.3,1.5-0.5,2.5-0.5c1.4,0,2.6,0.4,3.5,1.3
						c0.9,0.9,1.5,2,1.5,3.2V904L345.1,904z"/>
					<path class="st1" d="M392.6,915.9c-1.3,0-2.6-0.1-3.9-0.2c-1.4-0.1-2.7-0.3-4.2-0.5v4.2c0,2,0.7,3.7,2,4.9
						c1.4,1.2,3.6,1.8,6.5,1.8c1.7,0,3.2-0.2,4.5-0.6c1.4-0.4,2.7-0.9,4.3-1.6c0.1-0.1,0.3-0.3,0.7-0.3s0.8-0.2,1.3-0.2
						c1.5,0,2.7,0.4,3.4,1.4c0.7,0.9,1,1.8,1,2.7c0,1.4-0.6,2.6-1.8,3.4c-1.2,0.9-2.6,1.6-4.3,2.1c-1.7,0.5-3.4,0.9-5.3,1.1
						c-1.9,0.2-3.4,0.3-4.8,0.3c-2.8,0-5.3-0.4-7.4-1.2c-2.2-0.8-4-1.9-5.5-3.2c-1.5-1.4-2.6-3.1-3.4-5c-0.8-1.9-1.2-3.9-1.2-6.1
						v-16.1c0-2.2,0.4-4.4,1.2-6.2c0.8-1.9,2-3.6,3.4-5c1.5-1.4,3.4-2.5,5.6-3.3c2.2-0.9,4.8-1.2,7.7-1.2c5.6,0,9.6,1.4,12.4,4.1
						c2.7,2.7,4.1,6.4,4.1,10.9c0,4.3-1.3,7.7-3.9,10.1C402.6,914.7,398.4,915.9,392.6,915.9z M399.4,901.9c0-2.4-0.6-4.2-1.8-5.2
						c-1.2-1-2.9-1.5-5.1-1.5c-2.6,0-4.5,0.6-5.9,1.9c-1.4,1.3-2,3-2,5.2v5.4c1.5,0.2,3.2,0.3,4.7,0.4c1.5,0.1,2.6,0.2,3.3,0.2
						c2.6,0,4.4-0.6,5.4-1.7C399,905.4,399.4,903.9,399.4,901.9z"/>
					<g>
						<g>
							<path class="st1" d="M432.3,933.9c-0.3,0.9-1,1.7-2,2.1c-0.9,0.5-1.9,0.6-2.9,0.5c-0.6-0.1-1.1-0.3-1.6-0.6
								c-0.5-0.3-0.9-0.7-1.2-1s-0.5-0.9-0.7-1.4c-0.1-0.5-0.1-1,0.1-1.5l16.5-43.4c0.3-0.9,1-1.7,1.9-2.1c0.9-0.5,1.8-0.6,2.8-0.4
								c1.1,0.2,2,0.8,2.6,1.6c0.7,0.9,0.9,1.8,0.9,2.7c0,0.3-0.2,0.7-0.3,0.9L432.3,933.9z"/>
						</g>
					</g>
					<path class="st1" d="M465.7,894.8c0-3.5,0.4-6.7,1.3-9.6c0.9-2.9,2.2-5.4,4-7.4c1.8-2,4-3.6,6.7-4.7c2.7-1.1,6-1.7,9.7-1.7
						c2.2,0,4.4,0.3,6.5,0.7s3.9,1.1,5.6,1.9c1.6,0.9,2.9,1.8,3.9,2.8c0.9,1,1.5,2.1,1.5,3.3s-0.4,2.2-1.3,3.1
						c-0.9,0.9-2,1.3-3.3,1.3c-0.9,0-1.5-0.2-2-0.4c-0.4-0.3-1-0.6-1.7-1l-0.4-0.3c-2.4-1.7-5.2-2.6-8.3-2.6c-2.3,0-4.3,0.3-5.8,1
						c-1.5,0.7-2.8,1.6-3.8,2.9c-0.9,1.3-1.6,2.8-2,4.6c-0.4,1.8-0.6,3.8-0.6,6.1v16.1c0,2.2,0.2,4.3,0.6,6.1c0.4,1.8,1.1,3.3,2,4.6
						c0.9,1.3,2.2,2.2,3.8,2.9c1.5,0.7,3.5,1,5.8,1c3,0,5.8-0.9,8.3-2.5l0.4-0.3c0.7-0.4,1.2-0.8,1.7-1c0.4-0.3,1.1-0.4,2-0.4
						c1.4,0,2.5,0.4,3.3,1.3c0.9,0.9,1.3,1.9,1.3,3c0,1.2-0.5,2.3-1.5,3.4c-0.9,1-2.3,2-3.9,2.7c-1.6,0.8-3.5,1.5-5.6,1.9
						s-4.3,0.7-6.5,0.7c-3.8,0-7-0.6-9.7-1.7s-5-2.7-6.7-4.7c-1.8-2-3.2-4.5-4-7.3c-0.9-2.9-1.3-6.1-1.3-9.6V894.8L465.7,894.8z"/>
					<path class="st1" d="M530.2,934.5c-3,0-5.7-0.4-7.9-1.3c-2.3-0.9-4.2-2-5.7-3.5c-1.5-1.5-2.7-3.2-3.5-5.3
						c-0.8-2-1.2-4.2-1.2-6.5v-14.3c0-2.4,0.4-4.5,1.2-6.6c0.8-2,2-3.8,3.5-5.2c1.5-1.5,3.4-2.6,5.7-3.5s5-1.3,7.9-1.3
						c3,0,5.6,0.4,7.9,1.3c2.3,0.9,4.2,2,5.8,3.5c1.5,1.5,2.7,3.2,3.5,5.2c0.8,2,1.2,4.2,1.2,6.6v14.3c0,2.3-0.4,4.4-1.2,6.5
						c-0.8,2-2,3.8-3.5,5.3c-1.5,1.5-3.5,2.6-5.8,3.5C535.8,934,533.2,934.5,530.2,934.5z M530.2,925.8c2.8,0,5-0.7,6.4-2
						c1.5-1.4,2.1-3.3,2.1-5.8v-14.4c0-2.4-0.7-4.4-2.1-5.7c-1.5-1.4-3.6-2-6.4-2c-2.8,0-5,0.7-6.4,2c-1.5,1.4-2.1,3.3-2.1,5.7V918
						c0,2.5,0.7,4.4,2.1,5.8C525.2,925.2,527.4,925.8,530.2,925.8z"/>
					<path class="st1" d="M566.1,934.5c-0.8,0-1.5-0.1-2.4-0.3c-0.9-0.2-1.6-0.7-2.3-1.4s-1.3-1.7-1.8-3.1s-0.8-3.1-0.8-5.3v-48.5
						c0-1.2,0.4-2.3,1.5-3.2c0.9-0.9,2.1-1.4,3.5-1.4s2.6,0.4,3.5,1.3s1.5,2,1.5,3.2v47.9c0,0.9,0.1,1.7,0.2,2.2
						c0.1,0.5,0.5,1.1,1.1,1.8c0.3,0.3,0.6,0.6,0.9,0.9s0.3,0.9,0.3,1.5c0,1.3-0.4,2.3-1.4,3S567.7,934.5,566.1,934.5z"/>
					<path class="st1" d="M588.6,934.5c-0.8,0-1.5-0.1-2.4-0.3c-0.9-0.2-1.6-0.7-2.3-1.4s-1.3-1.7-1.8-3.1c-0.5-1.4-0.8-3.1-0.8-5.3
						v-48.5c0-1.2,0.4-2.3,1.5-3.2c0.9-0.9,2.1-1.4,3.5-1.4s2.6,0.4,3.5,1.3c0.9,0.9,1.5,2,1.5,3.2v47.9c0,0.9,0.1,1.7,0.2,2.2
						s0.5,1.1,1.1,1.8c0.3,0.3,0.6,0.6,0.9,0.9s0.3,0.9,0.3,1.5c0,1.3-0.4,2.3-1.4,3C591.4,934.1,590.2,934.5,588.6,934.5z"/>
					<path class="st1" d="M619.7,915.9c-1.3,0-2.6-0.1-3.9-0.2s-2.7-0.3-4.2-0.5v4.2c0,2,0.7,3.7,2,4.9c1.4,1.2,3.6,1.8,6.5,1.8
						c1.7,0,3.2-0.2,4.5-0.6c1.4-0.4,2.7-0.9,4.3-1.6c0.1-0.1,0.3-0.3,0.7-0.3s0.8-0.2,1.3-0.2c1.5,0,2.7,0.4,3.4,1.4
						c0.7,0.9,1,1.8,1,2.7c0,1.4-0.6,2.6-1.8,3.4s-2.6,1.6-4.3,2.1c-1.7,0.5-3.4,0.9-5.3,1.1c-1.9,0.2-3.4,0.3-4.8,0.3
						c-2.8,0-5.3-0.4-7.4-1.2c-2.2-0.8-4-1.9-5.5-3.2c-1.5-1.4-2.6-3.1-3.4-5c-0.8-1.9-1.2-3.9-1.2-6.1v-16.1c0-2.2,0.4-4.4,1.2-6.2
						c0.8-1.9,2-3.6,3.4-5c1.5-1.4,3.4-2.5,5.6-3.3c2.2-0.9,4.8-1.2,7.7-1.2c5.6,0,9.6,1.4,12.4,4.1c2.7,2.7,4.1,6.4,4.1,10.9
						c0,4.3-1.3,7.7-3.9,10.1C629.8,914.7,625.6,915.9,619.7,915.9z M626.5,901.9c0-2.4-0.6-4.2-1.8-5.2c-1.2-1-2.9-1.5-5.1-1.5
						c-2.6,0-4.5,0.6-5.9,1.9c-1.4,1.3-2,3-2,5.2v5.4c1.5,0.2,3.2,0.3,4.7,0.4c1.5,0.1,2.6,0.2,3.3,0.2c2.6,0,4.4-0.6,5.4-1.7
						C626,905.4,626.5,903.9,626.5,901.9z"/>
					<path class="st1" d="M661.3,887.2c2.2,0,4.4,0.3,6.3,0.8c2,0.5,3.9,1.3,5.8,2.3c1.1-1.8,2.3-3.1,3.8-3.9
						c1.5-0.9,2.7-1.3,3.8-1.3s2.2,0.4,3.2,1.2c0.9,0.9,1.5,1.8,1.5,3.1c0,0.6-0.1,1.1-0.3,1.5c-0.3,0.4-0.5,0.8-0.8,1l-1.4,1.4
						c-0.6,0.6-1.1,1.1-1.5,1.6c-0.4,0.4-0.7,0.9-0.9,1.3c-0.3,0.4-0.4,0.9-0.5,1.4c-0.1,0.5-0.2,1.1-0.2,1.8v5.4
						c0,2.4-0.3,4.5-1.1,6.6c-0.8,2-1.9,3.8-3.3,5.2c-1.5,1.5-3.4,2.6-5.6,3.4c-2.2,0.9-4.9,1.3-7.9,1.3c-1,0-2-0.1-3.2-0.2
						c-1-0.1-2-0.3-3-0.6c-0.3,0.7-0.5,1.3-0.6,1.7c-0.1,0.5-0.2,0.9-0.2,1.5c0,1.4,0.4,2.3,1.3,2.7c0.9,0.4,1.7,0.7,2.5,0.7h3.8
						c2.8,0,5.4,0.3,7.7,0.9c2.4,0.5,4.4,1.4,6.1,2.5c1.8,1.1,3.2,2.6,4.1,4.2c1,1.7,1.5,3.8,1.5,6.1c0,2.3-0.5,4.4-1.5,6.3
						c-1,1.9-2.4,3.4-4.2,4.8c-1.8,1.4-3.9,2.3-6.3,3.1c-2.4,0.7-5.1,1-8,1c-2.8,0-5.3-0.3-7.6-1s-4.3-1.6-6-2.8
						c-1.7-1.2-3-2.7-3.8-4.5c-0.9-1.8-1.4-3.8-1.4-6.1c0-2,0.4-3.8,1.3-5.5c0.9-1.7,2.2-3.2,4-4.9c-0.9-1.2-1.5-2.5-1.8-3.8
						s-0.5-2.5-0.5-3.5c0-1,0.2-2.1,0.6-3.3c0.4-1.2,1.2-2.4,2.4-3.7c-3.6-3.2-5.4-7.4-5.4-12.7c0-2.4,0.3-4.7,1.1-6.7
						c0.8-2,1.8-3.8,3.2-5.4c1.5-1.5,3.2-2.7,5.4-3.6C655.9,887.6,658.5,887.2,661.3,887.2z M661,935.3c-0.9,0-1.9,0-2.7-0.1
						s-1.7-0.1-2.6-0.2c-1.5,1.5-2.4,3.4-2.4,5.5c0,2.2,0.8,3.8,2.3,5.1c1.5,1.2,3.8,1.8,6.9,1.8c2.9,0,5.3-0.6,7.2-1.7
						c1.9-1.1,2.8-2.7,2.8-5c0-3.7-3.2-5.5-9.6-5.5H661L661,935.3z M670.2,901.9c0-0.8,0-1.5,0-2.2s0-1.5,0.1-2.2
						c-1.4-0.7-2.6-1.2-3.8-1.6c-1.3-0.4-2.6-0.6-3.9-0.6c-2.9,0-5,0.8-6.5,2.3c-1.5,1.5-2.1,3.8-2.1,6.7c0,2.6,0.7,4.8,2,6.4
						c1.3,1.5,3.4,2.4,6.4,2.4c2.7,0,4.8-0.7,6.1-2.1c1.3-1.5,2-3.4,2-6L670.2,901.9L670.2,901.9z"/>
					<path class="st1" d="M708,915.9c-1.3,0-2.6-0.1-3.9-0.2c-1.4-0.1-2.7-0.3-4.2-0.5v4.2c0,2,0.7,3.7,2,4.9
						c1.4,1.2,3.6,1.8,6.5,1.8c1.7,0,3.2-0.2,4.5-0.6c1.4-0.4,2.7-0.9,4.3-1.6c0.1-0.1,0.3-0.3,0.7-0.3c0.3-0.1,0.8-0.2,1.3-0.2
						c1.5,0,2.7,0.4,3.4,1.4c0.7,0.9,1,1.8,1,2.7c0,1.4-0.6,2.6-1.8,3.4c-1.2,0.9-2.6,1.6-4.3,2.1c-1.7,0.5-3.4,0.9-5.3,1.1
						s-3.4,0.3-4.8,0.3c-2.8,0-5.3-0.4-7.4-1.2c-2.2-0.8-4-1.9-5.5-3.2c-1.5-1.4-2.6-3.1-3.4-5c-0.8-1.9-1.2-3.9-1.2-6.1v-16.1
						c0-2.2,0.4-4.4,1.2-6.2c0.8-1.9,2-3.6,3.4-5c1.5-1.4,3.4-2.5,5.6-3.3c2.2-0.9,4.8-1.2,7.7-1.2c5.6,0,9.6,1.4,12.4,4.1
						c2.7,2.7,4.1,6.4,4.1,10.9c0,4.3-1.3,7.7-3.9,10.1C718,914.7,713.8,915.9,708,915.9z M714.8,901.9c0-2.4-0.6-4.2-1.8-5.2
						c-1.2-1-2.9-1.5-5.1-1.5c-2.6,0-4.5,0.6-5.9,1.9c-1.4,1.3-2,3-2,5.2v5.4c1.5,0.2,3.2,0.3,4.7,0.4s2.6,0.2,3.3,0.2
						c2.6,0,4.4-0.6,5.4-1.7C714.3,905.4,714.8,903.9,714.8,901.9z"/>
				</g>
			</g>
			<g>
				<g>
					<path class="st1" d="M138.1,1003.3c-0.6,1.8-1.4,2.5-2.7,2.5c-1.4,0-2.1-0.8-2.6-2.4l-8.5-26.1c-0.4-1.2,0.7-2.2,1.9-2.2
						c0.7,0,1.4,0.3,1.6,1.3l7.6,24.5l7.5-24.5c0.2-0.6,0.8-1.3,1.7-1.3c1,0.1,1.9,0.9,1.9,2c0,0.2,0,0.3-0.1,0.5L138.1,1003.3z"/>
					<path class="st1" d="M157,1003.9c0,1.1-0.9,1.9-1.9,1.9c-1.1,0-2-0.9-2-1.9v-20.7c0-2-0.3-3.3-1.1-4.5c-0.3-0.3-0.3-0.7-0.3-1
						c0-1,0.9-1.7,1.8-1.7c0.8,0,1.6,0.8,2.3,1.9c2.8-1.8,6.3-2.8,8.5-2.8c2,0,2.7,0.9,2.7,1.9c0,1.2-0.9,2-1.9,2
						c-2.6-0.1-5-0.1-8.2,2.4v0.1c0,0,0.1,0.1,0.1,1.9C157,983.3,157,1003.9,157,1003.9z"/>
					<path class="st1" d="M175.1,967.4c-1.5,0-2.5-1.1-2.5-2.4c0-1.5,1.1-2.5,2.5-2.5c1.3,0,2.4,1.1,2.4,2.5
						C177.5,966.2,176.3,967.4,175.1,967.4z M175.1,1005.8c-1.1,0-2-0.9-2-1.9V977c0-1.1,0.9-2,2-2c1,0,1.9,0.9,1.9,2v26.9
						C176.9,1004.9,176.1,1005.8,175.1,1005.8z"/>
					<path class="st1" d="M191.5,1006.7c0,6-3.2,10.2-8.3,10.9c-0.5,0.1-0.7,0-1.1,0c-0.7,0-1.5-0.5-1.6-1.2c-0.3-1.4,0.7-2,1.5-2
						c3.6-0.9,5.6-2.7,5.6-7.5v-30c0-1.1,0.9-2,2-2c1,0,1.9,0.9,1.9,2v29.8H191.5z M189.7,967.4c-1.5,0-2.6-1.1-2.6-2.4
						c0-1.5,1.1-2.5,2.6-2.5c1.3,0,2.4,1.1,2.4,2.5C192.1,966.2,190.9,967.4,189.7,967.4z"/>
					<path class="st1" d="M217.2,1000.8c0.1-0.1,0.4-0.2,0.7-0.2c0.9,0,1.6,0.9,1.6,1.6c0,2.6-6.3,3.5-9.4,3.5
						c-6.7,0-10.4-4.2-10.4-9.6v-11.4c0-5.6,3.8-9.9,10.8-9.9c6.5,0,9.6,3.8,9.6,9.5c0,5.4-2.9,8.6-9.8,8.6c-2,0-4.4-0.2-6.7-0.7
						v4.2c0,3.6,2.4,6.1,7.2,6.1C213.5,1002.5,215.1,1001.8,217.2,1000.8z M210.3,978.2c-4.3,0-6.7,2.4-6.7,6.1v5
						c2.6,0.3,5.7,0.5,6.9,0.5c5,0,5.8-2.6,5.8-5.5C216.3,980,214.2,978.2,210.3,978.2z"/>
					<path class="st1" d="M238.8,963.8c0-0.9,0.7-1.9,2-1.9s1.9,0.9,1.9,1.9v13.9c2.6-1.9,5.4-2.9,8.6-2.9c6.6,0,9,4,9,9.1v11.5
						c0,5.9-3.6,10.4-10.7,10.4c-6.9,0-10.8-4-10.8-9.1V963.8z M242.6,996.6c0,3.5,2.6,5.6,6.9,5.6c4.7,0,6.8-2.6,6.8-6.9v-11.5
						c0-3.7-1.9-5.9-6.3-5.9c-3.2,0-5.6,1.3-7.4,3.4L242.6,996.6L242.6,996.6z"/>
					<path class="st1" d="M282.7,985.1c0-4.8-2.2-7.1-6.9-7.1c-2.2,0-3.4,0.5-4.8,1.3c-0.3,0.3-0.9,0.5-1.5,0.5
						c-0.9,0-1.3-0.9-1.3-1.5c-0.3-2.5,4.2-3.5,8.1-3.5c7.3,0,10.2,4.2,10.2,12v13.4c0,1.5,0.5,2.3,1.6,2.3c0.3,0,0.3-0.1,0.5-0.1
						c0.9,0,1.3,0.9,1.3,1.6c0,1.2-1.2,1.6-2.2,1.6c-1.9,0-3.4-1.3-4.5-3.4c-2.5,2.4-5.3,3.6-8.5,3.6c-6,0-8.9-3.6-8.9-8.7v-0.3
						c0-5.7,3.4-8.6,10.3-8.6c2,0,4.3,0.4,6.6,1.1L282.7,985.1L282.7,985.1z M269.6,996.9v0.3c0,3.1,1.4,5.4,5.9,5.4
						c2.7,0,5-0.9,7.3-2.9v-7.1c-2.4-0.8-4.9-1.1-6.7-1.1C270.6,991.3,269.6,993.8,269.6,996.9z"/>
					<path class="st1" d="M304.8,974.8c3,0,7.7,0.7,7.7,3c0,0.9-0.7,1.7-1.7,1.7c-0.3,0-0.6-0.1-0.9-0.3c-1.4-0.7-2.6-1.2-4.9-1.2
						c-4,0-5.9,1.6-5.9,4.8c0,2.1,0.9,3.2,3.2,4.4c4.7,2.3,11.1,2.9,11.1,10c0,5.2-3.3,8.5-9.8,8.5c-3,0-8.6-0.6-8.6-3
						c0-0.9,0.7-1.8,1.9-1.8c0.1,0,0.2,0,0.3,0.1c1.8,0.7,3.8,1.5,6.4,1.5c3.6,0,6.1-1.5,6.1-5c0-2.5-1.1-3.6-2.4-4.4
						c-4.6-2.3-11.8-2.9-11.8-10C295.4,978.1,298.6,974.8,304.8,974.8z"/>
					<path class="st1" d="M322.4,967.4c-1.5,0-2.5-1.1-2.5-2.4c0-1.5,1.1-2.5,2.5-2.5c1.3,0,2.4,1.1,2.4,2.5
						C324.8,966.2,323.6,967.4,322.4,967.4z M322.4,1005.8c-1.1,0-2-0.9-2-1.9V977c0-1.1,0.9-2,2-2c1,0,1.9,0.9,1.9,2v26.9
						C324.2,1004.9,323.4,1005.8,322.4,1005.8z"/>
					<path class="st1" d="M342.4,974.8c3,0,7.7,0.7,7.7,3c0,0.9-0.7,1.7-1.7,1.7c-0.3,0-0.6-0.1-0.9-0.3c-1.4-0.7-2.6-1.2-4.9-1.2
						c-4,0-5.9,1.6-5.9,4.8c0,2.1,0.9,3.2,3.2,4.4c4.7,2.3,11.1,2.9,11.1,10c0,5.2-3.3,8.5-9.8,8.5c-3,0-8.6-0.6-8.6-3
						c0-0.9,0.7-1.8,1.9-1.8c0.1,0,0.2,0,0.3,0.1c1.8,0.7,3.8,1.5,6.4,1.5c3.6,0,6.1-1.5,6.1-5c0-2.5-1.1-3.6-2.4-4.4
						c-4.6-2.3-11.8-2.9-11.8-10C333,978.1,336.3,974.8,342.4,974.8z"/>
					<path class="st1" d="M366,974.8c3,0,7.7,0.7,7.7,3c0,0.9-0.7,1.7-1.7,1.7c-0.3,0-0.6-0.1-0.9-0.3c-1.4-0.7-2.6-1.2-4.9-1.2
						c-4,0-5.9,1.6-5.9,4.8c0,2.1,0.9,3.2,3.2,4.4c4.7,2.3,11.1,2.9,11.1,10c0,5.2-3.3,8.5-9.8,8.5c-3,0-8.6-0.6-8.6-3
						c0-0.9,0.7-1.8,1.9-1.8c0.1,0,0.2,0,0.3,0.1c1.8,0.7,3.8,1.5,6.4,1.5c3.6,0,6.1-1.5,6.1-5c0-2.5-1.1-3.6-2.4-4.4
						c-4.6-2.3-11.8-2.9-11.8-10C356.5,978.1,359.8,974.8,366,974.8z"/>
					<path class="st1" d="M380.1,985.8c0-6.1,3.2-10.8,10.6-10.8c2.6,0,8,0.7,8,3.2c0,0.9-0.7,1.6-1.6,1.6c-0.3,0-0.6-0.1-0.9-0.1
						h0.1c-1.5-0.8-2.9-1.5-5.1-1.5c-5.1,0-7.2,2.8-7.2,7.5v9.2c0,4.7,2,7.5,7.2,7.5c2.3,0,3.7-0.7,5.1-1.5h-0.1
						c0.4-0.1,0.7-0.2,0.9-0.2c0.9,0,1.6,0.8,1.6,1.6c0,2.5-5.4,3.2-8,3.2c-7.3,0-10.6-4.7-10.6-10.8V985.8z"/>
					<path class="st1" d="M406.6,1005.8c-1.1,0-2-0.9-2-1.9v-40.4c0-0.9,0.8-2,1.9-2s1.9,0.9,1.9,2v14.4c2.6-2,5.4-3.1,8.2-3.1
						c6.2,0,9.1,4,9.1,9.7v19.3c0,1.1-0.9,1.9-1.9,1.9s-2-0.9-2-1.9v-19.3c0-4-1.6-6.3-5.7-6.3c-2.6,0-5.6,1.3-7.6,3.9v21.7
						C408.4,1004.9,407.7,1005.8,406.6,1005.8z"/>
					<path class="st1" d="M432.9,995.4v-10.2c0-5.9,3.8-10.4,10.9-10.4c7.2,0,10.9,4.5,10.9,10.4v10.2c0,5.9-3.8,10.4-10.9,10.4
						C436.9,1005.8,432.9,1001.2,432.9,995.4z M451,995.4v-10.2c0-4.3-2.4-6.9-7.1-6.9s-7.1,2.6-7.1,6.9v10.2c0,4.3,2.4,6.9,7.1,6.9
						C448.7,1002.3,451,999.6,451,995.4z"/>
					<path class="st1" d="M460.5,995.4v-10.2c0-5.9,3.8-10.4,10.9-10.4c7.2,0,10.9,4.5,10.9,10.4v10.2c0,5.9-3.8,10.4-10.9,10.4
						C464.4,1005.8,460.5,1001.2,460.5,995.4z M478.5,995.4v-10.2c0-4.3-2.4-6.9-7.1-6.9c-4.7,0-7.1,2.6-7.1,6.9v10.2
						c0,4.3,2.4,6.9,7.1,6.9C476.2,1002.3,478.5,999.6,478.5,995.4z"/>
					<path class="st1" d="M489.9,963.8c0-1,0.9-2,1.9-2s1.9,0.9,1.9,2v36.2c0,1.4,0.3,2.4,1.1,3.2c0.1,0.2,0.3,0.6,0.3,0.9
						c0,1-0.7,1.7-1.7,1.7c-1.3,0-3.4-0.7-3.4-5.7V963.8z"/>
					<path class="st1" d="M533.3,970.5c-2.2,9.9-5.3,23.1-7.5,32.9c-0.3,1-1.1,2.4-2.8,2.4c-1.5,0-2.4-1.1-2.8-2.4l-9.1-38.4v-0.3
						c0-1.1,1.3-1.6,2.3-1.6c0.7,0,1.5,0.6,1.8,1.5l7.9,34.2l7.4-32.7c0.5-2,1.1-3.2,2.7-3.2c1.6,0,2.2,1.3,2.6,3.2l7.5,32.8
						l7.9-34.3c0.3-0.9,0.9-1.5,1.6-1.5c1.1,0,2.4,0.5,2.4,1.7c0,0.1,0,0.3-0.1,0.5v0.1l-9.1,38c-0.3,1.3-1.3,2.4-2.8,2.4
						s-2.5-1.3-2.8-2.5L533.3,970.5z"/>
					<path class="st1" d="M574,985.1c0-4.8-2.2-7.1-6.9-7.1c-2.2,0-3.4,0.5-4.8,1.3c-0.3,0.3-0.9,0.5-1.5,0.5
						c-0.9,0-1.3-0.9-1.3-1.5c-0.3-2.5,4.2-3.5,8.1-3.5c7.3,0,10.2,4.2,10.2,12v13.4c0,1.5,0.5,2.3,1.6,2.3c0.3,0,0.3-0.1,0.5-0.1
						c0.9,0,1.3,0.9,1.3,1.6c0,1.2-1.2,1.6-2.2,1.6c-1.9,0-3.4-1.3-4.5-3.4c-2.5,2.4-5.3,3.6-8.5,3.6c-6,0-8.9-3.6-8.9-8.7v-0.3
						c0-5.7,3.4-8.6,10.3-8.6c2,0,4.3,0.4,6.6,1.1L574,985.1L574,985.1z M560.9,996.9v0.3c0,3.1,1.4,5.4,5.9,5.4
						c2.7,0,5-0.9,7.3-2.9v-7.1c-2.4-0.8-4.9-1.1-6.7-1.1C562,991.3,560.9,993.8,560.9,996.9z"/>
					<path class="st1" d="M591.6,1003.9c0,1.1-0.9,1.9-1.9,1.9c-1.1,0-2-0.9-2-1.9v-20.7c0-2-0.3-3.3-1.1-4.5
						c-0.3-0.3-0.3-0.7-0.3-1c0-1,0.9-1.7,1.8-1.7c0.8,0,1.6,0.8,2.3,1.9c2.8-1.8,6.3-2.8,8.5-2.8c2,0,2.7,0.9,2.7,1.9
						c0,1.2-0.9,2-1.9,2c-2.6-0.1-5-0.1-8.2,2.4v0.1c0,0,0.1,0.1,0.1,1.9V1003.9z"/>
					<path class="st1" d="M623.1,1000.8c0.1-0.1,0.4-0.2,0.7-0.2c0.9,0,1.6,0.9,1.6,1.6c0,2.6-6.3,3.5-9.4,3.5
						c-6.7,0-10.4-4.2-10.4-9.6v-11.4c0-5.6,3.8-9.9,10.8-9.9c6.5,0,9.6,3.8,9.6,9.5c0,5.4-2.9,8.6-9.8,8.6c-2,0-4.4-0.2-6.7-0.7
						v4.2c0,3.6,2.4,6.1,7.2,6.1C619.3,1002.5,621,1001.8,623.1,1000.8z M616.2,978.2c-4.3,0-6.7,2.4-6.7,6.1v5
						c2.6,0.3,5.7,0.5,6.9,0.5c5,0,5.8-2.6,5.8-5.5C622.2,980,619.9,978.2,616.2,978.2z"/>
					<path class="st1" d="M650.4,977.1c1.5-2.6,3.5-3.8,4.6-3.8c1,0,1.8,0.7,1.8,1.7c0,0.5-0.1,0.8-0.3,0.9l-0.5,0.6
						c-2,1.9-3,2.8-3,5.6v3.8c0,5.9-3.5,10.6-10.6,10.6c-1.8,0-3.5-0.3-5-0.9c-0.8,1.4-1,2.6-1,3.4c0,2.5,2.2,3.1,3.8,3.1h2.6
						c6.7,0,11.7,2.6,11.7,8.3c0,5.9-5.1,9.4-12,9.4c-6.7,0-11.3-3.2-11.3-8.9c0-2.7,1.2-5,3.4-7c-1.5-1.5-2-3.3-2-4.7
						c0-1.3,0.5-3.2,2.6-5c-2.4-2.2-3.6-5.1-3.6-8.6c0-6.1,3.4-10.8,10.5-10.8C644.9,974.8,647.9,975.6,650.4,977.1z M637.4,1005.3
						c-1.6,1.3-2.4,3-2.4,5c0,4,2.6,6.1,7.6,6.1c4.7,0,8-1.9,8-5.9c0-3.4-2.6-4.9-7.8-4.9h-2.6
						C639.2,1005.6,638.2,1005.4,637.4,1005.3z M649.5,980.2c-2.1-1.3-4.4-2-6.7-2c-4.8,0-7.3,2.7-7.3,7.5c0,4.4,2,7.3,7,7.3
						c4.7,0,6.7-2.6,6.7-6.9v-3.8C649.3,981.9,649.3,981.1,649.5,980.2z"/>
					<path class="st1" d="M677.4,1000.8c0.1-0.1,0.4-0.2,0.7-0.2c0.9,0,1.6,0.9,1.6,1.6c0,2.6-6.3,3.5-9.4,3.5
						c-6.7,0-10.4-4.2-10.4-9.6v-11.4c0-5.6,3.8-9.9,10.8-9.9c6.5,0,9.6,3.8,9.6,9.5c0,5.4-2.9,8.6-9.8,8.6c-2,0-4.4-0.2-6.7-0.7
						v4.2c0,3.6,2.4,6.1,7.2,6.1C673.6,1002.5,675.3,1001.8,677.4,1000.8z M670.4,978.2c-4.3,0-6.7,2.4-6.7,6.1v5
						c2.6,0.3,5.7,0.5,6.9,0.5c5,0,5.8-2.6,5.8-5.5C676.5,980,674.2,978.2,670.4,978.2z"/>
					<path class="st1" d="M699.2,974.8c3.2,0,5.4,1.2,7,3.3c2.7-2,5.7-3.3,9-3.3c6.3,0,9.6,4,9.6,10v19.1c0,1.1-0.6,1.9-1.9,1.9
						c-1.3,0-2-0.8-2-1.9v-19c0-3.7-1.9-6.7-6-6.7c-2.8,0-5.6,1.5-7.2,3.6c0.2,0.9,0.3,1.9,0.3,3v19c0,1.1-0.6,1.9-1.9,1.9
						s-2-0.8-2-1.9v-17.8c0-4.6-0.8-7.9-5.6-7.9c-2.7,0-5.6,1.3-7.5,2.7c0.1,0.7,0.2,1.4,0.2,2.1v20.7c0,1.1-0.7,1.9-1.9,1.9
						c-1.3,0-2-0.8-2-1.9v-20.7c0-2-0.3-3.3-1.1-4.5c-0.3-0.3-0.3-0.7-0.3-1c0-1,0.9-1.7,1.7-1.7c0.8,0,1.6,0.5,2.3,1.9
						C692.9,975.9,696,974.8,699.2,974.8z"/>
				</g>
			</g>
		</g>
		<g>
			<circle class="st1" cx="233.3" cy="767.1" r="21.9"/>
			<circle class="st1" cx="366.6" cy="626.4" r="72.1"/>
			<circle class="st1" cx="429.7" cy="768" r="52.1"/>
			<circle class="st1" cx="313.1" cy="748.1" r="35.3"/>
			<path class="st1" d="M465.2,649.9c0,48.2,39.1,87.4,87.4,87.4s87.4-39.1,87.4-87.4c0-48.2-39.1-87.4-87.4-87.4
				S465.2,601.7,465.2,649.9z M503.6,651.5c0-27.1,21.9-49,49-49s49,21.9,49,49c0,27.1-21.9,49-49,49
				C525.5,700.6,503.6,678.6,503.6,651.5z"/>
		</g>
	</g>
</g>
<g id="Lijnen" class="st2">
	<line class="st3" x1="71.7" y1="1444" x2="71.7" y2="154"/>
	<line class="st3" x1="-96.3" y1="1443.5" x2="-96.3" y2="153.5"/>
	<line class="st3" x1="174.7" y1="1444.5" x2="174.7" y2="154.5"/>
	<line class="st3" x1="676.7" y1="1443.5" x2="676.7" y2="153.5"/>
	<line class="st3" x1="775.7" y1="1444.5" x2="775.7" y2="154.5"/>
	<line class="st3" x1="944.7" y1="1463.5" x2="944.7" y2="173.5"/>
	<line class="st3" x1="-460.3" y1="515" x2="1380.7" y2="515"/>
	<line class="st3" x1="-472.8" y1="347" x2="1368.2" y2="347"/>
	<line class="st3" x1="-670.8" y1="1228" x2="1170.2" y2="1228"/>
	<line class="st3" x1="-459.8" y1="905" x2="1381.2" y2="905"/>
	<line class="st3" x1="-459.8" y1="886" x2="1381.2" y2="886"/>
	<line class="st3" x1="-459.8" y1="960" x2="1381.2" y2="960"/>
	<line class="st3" x1="-525.8" y1="991" x2="1315.2" y2="991"/>
	<line class="st3" x1="-472.8" y1="1007" x2="1368.2" y2="1007"/>
	<line class="st3" x1="-459.8" y1="1060" x2="1381.2" y2="1060"/>
	<line class="st3" x1="-459.8" y1="1043" x2="1381.2" y2="1043"/>
	<rect x="-96.3" y="347" class="st4" width="1041" height="881"/>
	<circle class="st5" cx="860.7" cy="958.9" r="84.4"/>
	<circle class="st5" cx="592.7" cy="430.9" r="84.4"/>
	<circle class="st5" cx="155.7" cy="1143.9" r="84.4"/>
	<circle class="st5" cx="-12.3" cy="598.9" r="84.4"/>
</g>
</svg>
