<?xml version="1.0" encoding="utf-8"?>
<!-- Generator: Adobe Illustrator 22.0.1, SVG Export Plug-In . SVG Version: 6.00 Build 0)  -->
<svg version="1.1" id="Laag_1" xmlns="http://www.w3.org/2000/svg" xmlns:xlink="http://www.w3.org/1999/xlink" x="0px" y="0px"
	 viewBox="0 0 1000 1000" style="enable-background:new 0 0 1000 1000;" xml:space="preserve">
<style type="text/css">
	.st0{fill:#4C4C4C;}
	.st1{fill:#714FB2;}
	.st2{fill:#FC9732;}
	.st3{fill:#D7E100;}
	.st4{fill:#DB169F;}
	.st5{fill:#3FA8EF;}
</style>
<g>
	<g>
		<g>
			<path class="st0" d="M147.3,616.6c0,2.6,0.2,5,0.7,7.1c0.5,2.1,1.3,3.9,2.4,5.4c1.1,1.5,2.6,2.6,4.5,3.4c1.8,0.8,4.1,1.2,6.8,1.2
				c2.2,0,4.1-0.3,5.8-0.8c1.7-0.5,3.2-1.3,4.6-2.3V611h-8c-1.4,0-2.7-0.5-3.7-1.6c-1.1-1.1-1.6-2.3-1.6-3.8c0-1.5,0.5-2.7,1.6-3.8
				c1.1-1,2.3-1.5,3.7-1.5h12.1c2,0,3.7,0.5,5.2,1.5c1.5,1,2.2,2.6,2.2,4.6v24.5c0,2.3-0.7,4.3-2.1,6c-1.4,1.7-3.2,3-5.4,4.1
				c-2.2,1.1-4.6,1.8-7.3,2.3c-2.7,0.5-5.3,0.7-7.8,0.7c-4.4,0-8.2-0.7-11.4-2c-3.2-1.3-5.8-3.2-7.9-5.5c-2.1-2.4-3.7-5.3-4.7-8.6
				c-1-3.4-1.5-7.1-1.5-11.3v-18.9c0-4.1,0.5-7.9,1.5-11.3c1-3.4,2.6-6.3,4.7-8.7c2.1-2.4,4.7-4.2,7.9-5.5c3.2-1.3,7-2,11.4-2
				c2.6,0,5.2,0.3,7.6,0.8c2.4,0.5,4.6,1.3,6.5,2.2c1.9,1,3.4,2.1,4.6,3.3c1.1,1.2,1.7,2.5,1.7,3.9c0,1.4-0.5,2.6-1.5,3.6
				c-1,1-2.3,1.5-3.9,1.5c-1,0-1.8-0.2-2.3-0.5c-0.5-0.3-1.2-0.7-2-1.2l-0.5-0.3c-1.4-1-2.9-1.7-4.5-2.2c-1.6-0.5-3.3-0.7-5.2-0.7
				c-2.7,0-5,0.4-6.8,1.2c-1.8,0.8-3.3,1.9-4.5,3.4c-1.1,1.5-1.9,3.3-2.4,5.4c-0.5,2.1-0.7,4.5-0.7,7.1V616.6z"/>
			<path class="st0" d="M222.6,607.8c0-6.2-3.3-9.4-9.8-9.4c-1.4,0-2.6,0.1-3.5,0.4c-0.9,0.3-1.8,0.6-2.8,1l-2,0.9
				c-0.7,0.4-1.6,0.5-2.8,0.5c-1.6,0-2.7-0.5-3.4-1.5c-0.7-1-1-2.1-1-3.2c0-1.4,0.5-2.6,1.4-3.6c0.9-1,2.2-1.8,3.7-2.4
				c1.6-0.6,3.3-1.1,5.3-1.4c2-0.3,4-0.4,6.1-0.4c7.2,0,12.4,1.8,15.5,5.5c3.1,3.7,4.7,9.1,4.7,16.2V632c0,1.3,0.2,2.2,0.7,2.6
				c0.5,0.4,1.1,0.7,1.9,0.8c2.1,0.4,3.2,1.7,3.2,3.8c0,3-2.1,4.5-6.3,4.5c-3.7,0-6.5-1.6-8.5-4.8c-4,3.4-8.8,5.1-14.5,5.1
				c-5.8,0-10.2-1.5-13.1-4.5c-2.9-3-4.4-7-4.4-11.9v-0.3c0-10.7,6.6-16.1,19.9-16.1c3.3,0,6.5,0.4,9.6,1.3V607.8z M213.3,619.9
				c-1.8,0-3.4,0.2-4.5,0.6c-1.2,0.4-2.1,0.9-2.7,1.6c-0.6,0.7-1.1,1.5-1.3,2.4c-0.2,0.9-0.3,1.9-0.3,2.9v0.3c0,2.1,0.6,3.8,1.8,4.9
				c1.2,1.2,3.2,1.8,6.2,1.8c1.8,0,3.6-0.3,5.2-0.9c1.6-0.6,3.3-1.5,4.9-2.9v-9.6c-1.6-0.4-3.2-0.6-4.8-0.9
				C216.2,620,214.7,619.9,213.3,619.9z"/>
			<path class="st0" d="M285,598.9c-2.3,6.6-4.6,13.2-6.8,19.7c-2.2,6.5-4.4,13.1-6.7,19.8c-0.7,2.1-1.6,3.5-2.7,4.4
				c-1.1,0.9-2.5,1.3-4.3,1.3c-1.9,0-3.4-0.4-4.4-1.3c-1-0.9-1.9-2.3-2.6-4.3c-2.3-6.7-4.6-13.3-6.9-19.9
				c-2.3-6.6-4.6-13.2-6.9-19.9l-1.2-4.2c0-0.1,0-0.2-0.1-0.3c0-0.1-0.1-0.2-0.1-0.3c0-1.4,0.6-2.6,1.8-3.6c1.2-1,2.5-1.4,3.9-1.4
				c1.1,0,2.1,0.3,3.2,1c1.1,0.6,1.8,1.6,2.1,2.8c1,3.2,2,6.4,3,9.5c1,3.1,2,6.3,3,9.5c1,3.2,1.9,6.3,2.6,9.4
				c0.7,3.1,1.5,6.2,2.4,9.4c0.8-3.2,1.5-6.3,2.2-9.4c0.7-3.1,1.6-6.2,2.6-9.4c1-3.2,2-6.3,2.9-9.5c1-3.1,1.9-6.3,2.9-9.5
				c0.4-1.1,1-1.9,2.1-2.6c1-0.7,2.1-1,3.2-1c1.5,0,2.8,0.5,3.9,1.4c1.1,1,1.7,2.2,1.7,3.7v0.6L285,598.9z"/>
			<path class="st0" d="M313.9,622.3c-1.5,0-3-0.1-4.6-0.2c-1.6-0.1-3.2-0.3-4.9-0.6v4.9c0,2.4,0.8,4.3,2.4,5.7
				c1.6,1.4,4.2,2.1,7.6,2.1c2,0,3.8-0.2,5.3-0.7c1.6-0.5,3.2-1.1,5-1.9c0.1-0.1,0.4-0.3,0.8-0.4c0.4-0.1,0.9-0.2,1.5-0.2
				c1.8,0,3.2,0.5,4,1.6c0.8,1.1,1.2,2.1,1.2,3.2c0,1.6-0.7,3-2.1,4c-1.4,1-3.1,1.9-5,2.5c-2,0.6-4,1.1-6.2,1.3
				c-2.2,0.2-4,0.4-5.6,0.4c-3.3,0-6.2-0.5-8.7-1.4c-2.6-0.9-4.7-2.2-6.4-3.8c-1.7-1.6-3.1-3.6-4-5.8c-0.9-2.2-1.4-4.6-1.4-7.2
				v-18.8c0-2.6,0.5-5.1,1.4-7.3c0.9-2.2,2.3-4.2,4-5.8c1.8-1.6,4-2.9,6.6-3.9c2.6-1,5.6-1.4,9-1.4c6.5,0,11.3,1.6,14.5,4.8
				c3.2,3.2,4.8,7.5,4.8,12.8c0,5-1.5,9-4.6,11.8C325.7,620.9,320.7,622.3,313.9,622.3z M321.9,606c0-2.8-0.7-4.9-2.1-6.1
				c-1.4-1.2-3.4-1.8-6-1.8c-3,0-5.3,0.7-6.9,2.2c-1.6,1.5-2.4,3.5-2.4,6.1v6.3c1.8,0.2,3.7,0.4,5.5,0.5c1.8,0.1,3.1,0.2,3.9,0.2
				c3,0,5.2-0.7,6.3-2C321.3,610.1,321.9,608.3,321.9,606z"/>
			<path class="st0" d="M367.9,599.7c-1.1,0-2.2,0-3.1,0c-1,0-1.9,0.1-2.8,0.2c-0.9,0.1-1.8,0.4-2.8,0.7c-1,0.4-2,0.9-3.1,1.5
				c0.1,0.5,0.1,0.9,0.2,1.3c0,0.4,0.1,0.8,0.1,1.1v34.1c0,1.6-0.6,2.9-1.6,3.9c-1.1,1-2.5,1.5-4.1,1.5c-1.6,0-3-0.5-4.1-1.5
				c-1.1-1-1.7-2.3-1.7-3.9v-34.1c0-1.5-0.1-2.7-0.3-3.6c-0.2-0.9-0.6-1.8-1.2-2.6c-0.4-0.4-0.6-0.9-0.8-1.3c-0.2-0.4-0.3-1-0.3-1.6
				c0-1.5,0.5-2.7,1.6-3.6c1.1-0.9,2.4-1.4,3.9-1.4c1,0,1.9,0.3,2.7,0.9c0.8,0.6,1.5,1.3,2.2,2.2c2.4-1.4,4.9-2.5,7.4-3.4
				c2.5-0.8,4.7-1.2,6.5-1.2c2.7,0,4.6,0.5,5.6,1.5c1,1,1.5,2.2,1.5,3.7c0,1.7-0.6,3.1-1.7,4.1C370.9,599.4,369.5,599.9,367.9,599.7
				z"/>
			<path class="st0" d="M394.4,608.3l15.3-16.3c0.7-0.8,1.5-1.5,2.3-2.1c0.9-0.6,1.9-0.9,3.1-0.9c1.6,0,2.9,0.5,3.9,1.4
				c1.1,1,1.6,2.1,1.6,3.6c0,1.4-0.5,2.6-1.5,3.6l-14.4,14.9c2.8,4,5.7,7.9,8.5,11.8c2.8,3.9,5.6,7.8,8.4,11.8
				c0.4,0.4,0.6,0.9,0.7,1.5c0.1,0.6,0.2,1.2,0.2,1.7c-0.1,1.4-0.7,2.5-1.8,3.4c-1,0.8-2.3,1.2-3.8,1.2c-0.9,0-1.5-0.1-2.1-0.2
				c-0.5-0.1-1-0.4-1.4-0.7c-0.4-0.4-0.8-0.8-1.2-1.4c-0.4-0.6-0.9-1.3-1.4-2.1l-14.1-20.2c-0.4,0.4-0.8,0.8-1.2,1.2
				c-0.4,0.5-0.8,0.9-1.2,1.2v14.6c0,2-0.4,3.8-1.2,5.3c-0.8,1.6-2.3,2.3-4.5,2.3c-1.6,0-3-0.5-4.1-1.5c-1.1-1-1.7-2.3-1.7-3.8
				v-60.4c0-1.1,0.1-2.1,0.2-3c0.1-1,0.4-1.8,0.9-2.6c0.4-0.7,1-1.3,1.8-1.8c0.7-0.4,1.7-0.6,2.9-0.6c1.6,0,3,0.5,4.1,1.5
				c1.1,1,1.7,2.3,1.7,3.8V608.3z"/>
			<path class="st0" d="M450.1,622.3c-1.5,0-3-0.1-4.6-0.2c-1.6-0.1-3.2-0.3-4.9-0.6v4.9c0,2.4,0.8,4.3,2.4,5.7
				c1.6,1.4,4.2,2.1,7.6,2.1c2,0,3.8-0.2,5.3-0.7c1.6-0.5,3.2-1.1,5-1.9c0.1-0.1,0.4-0.3,0.8-0.4c0.4-0.1,0.9-0.2,1.5-0.2
				c1.8,0,3.2,0.5,4,1.6c0.8,1.1,1.2,2.1,1.2,3.2c0,1.6-0.7,3-2.1,4c-1.4,1-3.1,1.9-5,2.5c-2,0.6-4,1.1-6.2,1.3
				c-2.2,0.2-4,0.4-5.6,0.4c-3.3,0-6.2-0.5-8.7-1.4c-2.6-0.9-4.7-2.2-6.4-3.8c-1.7-1.6-3.1-3.6-4-5.8c-0.9-2.2-1.4-4.6-1.4-7.2
				v-18.8c0-2.6,0.5-5.1,1.4-7.3c0.9-2.2,2.3-4.2,4-5.8c1.8-1.6,4-2.9,6.6-3.9c2.6-1,5.6-1.4,9-1.4c6.5,0,11.3,1.6,14.5,4.8
				c3.2,3.2,4.8,7.5,4.8,12.8c0,5-1.5,9-4.6,11.8C461.8,620.9,456.9,622.3,450.1,622.3z M458,606c0-2.8-0.7-4.9-2.1-6.1
				c-1.4-1.2-3.4-1.8-6-1.8c-3,0-5.3,0.7-6.9,2.2c-1.6,1.5-2.4,3.5-2.4,6.1v6.3c1.8,0.2,3.7,0.4,5.5,0.5c1.8,0.1,3.1,0.2,3.9,0.2
				c3,0,5.2-0.7,6.3-2C457.5,610.1,458,608.3,458,606z"/>
			<g>
				<g>
					<path class="st1" d="M496.5,643.4c-0.4,1.1-1.2,2-2.3,2.5c-1.1,0.6-2.2,0.7-3.4,0.6c-0.7-0.1-1.3-0.4-1.9-0.7
						c-0.6-0.3-1-0.8-1.4-1.2c-0.4-0.5-0.6-1-0.8-1.6c-0.1-0.6-0.1-1.2,0.1-1.8l19.3-50.8c0.4-1.1,1.2-2,2.2-2.5
						c1-0.6,2.1-0.7,3.3-0.5c1.3,0.2,2.3,0.9,3.1,1.9c0.8,1,1.1,2.1,1,3.2c0,0.4-0.2,0.8-0.4,1.1L496.5,643.4z"/>
				</g>
			</g>
			<path class="st0" d="M535.7,597.7c0-4.1,0.5-7.9,1.5-11.3c1-3.4,2.6-6.3,4.7-8.7c2.1-2.4,4.7-4.2,7.9-5.5c3.2-1.3,7-2,11.4-2
				c2.6,0,5.2,0.3,7.6,0.8c2.4,0.5,4.6,1.3,6.5,2.2c1.9,1,3.4,2.1,4.6,3.3c1.1,1.2,1.7,2.5,1.7,3.9c0,1.4-0.5,2.6-1.5,3.6
				c-1,1-2.3,1.5-3.9,1.5c-1,0-1.8-0.2-2.3-0.5c-0.5-0.3-1.2-0.7-2-1.2l-0.5-0.3c-2.8-2-6.1-3-9.7-3c-2.7,0-5,0.4-6.8,1.2
				c-1.8,0.8-3.3,1.9-4.5,3.4c-1.1,1.5-1.9,3.3-2.4,5.4c-0.5,2.1-0.7,4.5-0.7,7.1v18.9c0,2.6,0.2,5,0.7,7.1c0.5,2.1,1.3,3.9,2.4,5.4
				c1.1,1.5,2.6,2.6,4.5,3.4c1.8,0.8,4.1,1.2,6.8,1.2c3.5,0,6.8-1,9.7-2.9l0.5-0.3c0.8-0.5,1.4-0.9,2-1.2s1.3-0.5,2.3-0.5
				c1.6,0,2.9,0.5,3.9,1.5c1,1,1.5,2.2,1.5,3.5c0,1.4-0.6,2.7-1.7,4c-1.1,1.2-2.7,2.3-4.6,3.2c-1.9,0.9-4.1,1.7-6.5,2.2
				c-2.4,0.5-5,0.8-7.6,0.8c-4.4,0-8.2-0.7-11.4-2c-3.2-1.3-5.8-3.2-7.9-5.5c-2.1-2.4-3.7-5.3-4.7-8.6c-1-3.4-1.5-7.1-1.5-11.3
				V597.7z"/>
			<path class="st0" d="M611.2,644.1c-3.5,0-6.7-0.5-9.3-1.5c-2.7-1-4.9-2.4-6.7-4.1c-1.8-1.7-3.2-3.8-4.1-6.2
				c-0.9-2.4-1.4-4.9-1.4-7.6v-16.8c0-2.8,0.5-5.3,1.4-7.7c0.9-2.3,2.3-4.4,4.1-6.1c1.8-1.7,4-3.1,6.7-4.1c2.7-1,5.8-1.5,9.3-1.5
				c3.5,0,6.6,0.5,9.3,1.5c2.7,1,4.9,2.4,6.8,4.1c1.8,1.7,3.2,3.8,4.1,6.1c0.9,2.3,1.4,4.9,1.4,7.7v16.8c0,2.7-0.5,5.2-1.4,7.6
				c-0.9,2.4-2.3,4.4-4.1,6.2c-1.8,1.7-4.1,3.1-6.8,4.1C617.8,643.6,614.7,644.1,611.2,644.1z M611.2,634c3.3,0,5.8-0.8,7.5-2.4
				c1.7-1.6,2.5-3.9,2.5-6.8v-16.9c0-2.8-0.8-5.1-2.5-6.7c-1.7-1.6-4.2-2.4-7.5-2.4c-3.3,0-5.8,0.8-7.5,2.4
				c-1.7,1.6-2.5,3.9-2.5,6.7v16.9c0,2.9,0.8,5.2,2.5,6.8C605.4,633.2,607.9,634,611.2,634z"/>
			<path class="st0" d="M653.2,644.1c-0.9,0-1.8-0.1-2.8-0.4c-1-0.2-1.9-0.8-2.7-1.6c-0.8-0.8-1.5-2-2.1-3.6
				c-0.6-1.6-0.9-3.6-0.9-6.2v-56.8c0-1.4,0.5-2.7,1.7-3.7c1.1-1.1,2.5-1.6,4.1-1.6c1.6,0,3,0.5,4.1,1.5c1.1,1,1.7,2.3,1.7,3.8v56.1
				c0,1.1,0.1,2,0.2,2.6c0.1,0.6,0.6,1.3,1.3,2.1c0.4,0.4,0.7,0.7,1,1.1c0.3,0.4,0.4,1,0.4,1.8c0,1.5-0.5,2.7-1.6,3.5
				C656.5,643.7,655.1,644.1,653.2,644.1z"/>
			<path class="st0" d="M679.6,644.1c-0.9,0-1.8-0.1-2.8-0.4c-1-0.2-1.9-0.8-2.7-1.6c-0.8-0.8-1.5-2-2.1-3.6
				c-0.6-1.6-0.9-3.6-0.9-6.2v-56.8c0-1.4,0.5-2.7,1.7-3.7c1.1-1.1,2.5-1.6,4.1-1.6c1.6,0,3,0.5,4.1,1.5c1.1,1,1.7,2.3,1.7,3.8v56.1
				c0,1.1,0.1,2,0.2,2.6c0.1,0.6,0.6,1.3,1.3,2.1c0.4,0.4,0.7,0.7,1,1.1c0.3,0.4,0.4,1,0.4,1.8c0,1.5-0.5,2.7-1.6,3.5
				C682.9,643.7,681.5,644.1,679.6,644.1z"/>
			<path class="st0" d="M716,622.3c-1.5,0-3-0.1-4.6-0.2c-1.6-0.1-3.2-0.3-4.9-0.6v4.9c0,2.4,0.8,4.3,2.4,5.7
				c1.6,1.4,4.2,2.1,7.6,2.1c2,0,3.8-0.2,5.3-0.7c1.6-0.5,3.2-1.1,5-1.9c0.1-0.1,0.4-0.3,0.8-0.4c0.4-0.1,0.9-0.2,1.5-0.2
				c1.8,0,3.2,0.5,4,1.6c0.8,1.1,1.2,2.1,1.2,3.2c0,1.6-0.7,3-2.1,4c-1.4,1-3.1,1.9-5,2.5c-2,0.6-4,1.1-6.2,1.3
				c-2.2,0.2-4,0.4-5.6,0.4c-3.3,0-6.2-0.5-8.7-1.4c-2.6-0.9-4.7-2.2-6.4-3.8c-1.7-1.6-3.1-3.6-4-5.8c-0.9-2.2-1.4-4.6-1.4-7.2
				v-18.8c0-2.6,0.5-5.1,1.4-7.3c0.9-2.2,2.3-4.2,4-5.8c1.8-1.6,4-2.9,6.6-3.9c2.6-1,5.6-1.4,9-1.4c6.5,0,11.3,1.6,14.5,4.8
				c3.2,3.2,4.8,7.5,4.8,12.8c0,5-1.5,9-4.6,11.8C727.8,620.9,722.9,622.3,716,622.3z M724,606c0-2.8-0.7-4.9-2.1-6.1
				c-1.4-1.2-3.4-1.8-6-1.8c-3,0-5.3,0.7-6.9,2.2c-1.6,1.5-2.4,3.5-2.4,6.1v6.3c1.8,0.2,3.7,0.4,5.5,0.5c1.8,0.1,3.1,0.2,3.9,0.2
				c3,0,5.2-0.7,6.3-2C723.4,610.1,724,608.3,724,606z"/>
			<path class="st0" d="M764.7,588.6c2.6,0,5.1,0.3,7.4,0.9c2.3,0.6,4.6,1.5,6.8,2.7c1.3-2.1,2.7-3.6,4.4-4.6c1.7-1,3.2-1.5,4.5-1.5
				c1.3,0,2.6,0.5,3.7,1.4c1.1,1,1.7,2.1,1.7,3.6c0,0.7-0.1,1.3-0.4,1.8c-0.3,0.5-0.6,0.9-0.9,1.2l-1.6,1.6
				c-0.7,0.7-1.3,1.3-1.8,1.9c-0.5,0.5-0.8,1-1.1,1.5c-0.3,0.5-0.5,1-0.6,1.6c-0.1,0.6-0.2,1.3-0.2,2.1v6.3c0,2.8-0.4,5.3-1.3,7.7
				c-0.9,2.3-2.2,4.4-3.9,6.1c-1.8,1.7-4,3.1-6.6,4c-2.6,1-5.7,1.5-9.3,1.5c-1.2,0-2.4-0.1-3.7-0.2c-1.2-0.1-2.4-0.4-3.5-0.7
				c-0.4,0.8-0.6,1.5-0.7,2c-0.1,0.6-0.2,1.1-0.2,1.7c0,1.6,0.5,2.7,1.5,3.2c1,0.5,2,0.8,2.9,0.8h4.5c3.3,0,6.3,0.3,9,1
				c2.8,0.6,5.2,1.6,7.2,2.9c2.1,1.3,3.7,3,4.8,4.9c1.2,2,1.8,4.4,1.8,7.1s-0.6,5.2-1.8,7.4c-1.2,2.2-2.8,4-4.9,5.6
				c-2.1,1.6-4.6,2.7-7.4,3.6c-2.8,0.8-6,1.2-9.4,1.2c-3.3,0-6.2-0.4-8.9-1.2c-2.7-0.8-5-1.9-7-3.3c-2-1.4-3.5-3.2-4.5-5.3
				c-1.1-2.1-1.6-4.5-1.6-7.1c0-2.3,0.5-4.5,1.5-6.4c1-2,2.6-3.8,4.7-5.7c-1-1.4-1.7-2.9-2.1-4.4c-0.4-1.5-0.6-2.9-0.6-4.1
				c0-1.2,0.2-2.5,0.7-3.9c0.5-1.4,1.4-2.8,2.8-4.3c-4.2-3.8-6.3-8.7-6.3-14.9c0-2.8,0.4-5.5,1.3-7.9c0.9-2.4,2.1-4.5,3.8-6.3
				c1.7-1.8,3.8-3.2,6.3-4.2C758.4,589.1,761.3,588.6,764.7,588.6z M764.4,645.1c-1.1,0-2.2,0-3.2-0.1c-1-0.1-2-0.1-3-0.2
				c-1.8,1.8-2.8,4-2.8,6.4c0,2.6,0.9,4.5,2.7,6c1.8,1.4,4.5,2.1,8.1,2.1c3.4,0,6.2-0.7,8.4-2c2.2-1.3,3.3-3.2,3.3-5.8
				c0-4.3-3.7-6.4-11.2-6.4H764.4z M775.2,606c0-0.9,0-1.7,0-2.6c0-0.9,0-1.8,0.1-2.6c-1.6-0.8-3.1-1.4-4.5-1.9
				c-1.5-0.5-3-0.7-4.6-0.7c-3.4,0-5.9,0.9-7.6,2.7c-1.7,1.8-2.5,4.4-2.5,7.8c0,3.1,0.8,5.6,2.3,7.5c1.5,1.8,4,2.8,7.5,2.8
				c3.2,0,5.6-0.8,7.1-2.5c1.5-1.7,2.3-4,2.3-7V606z"/>
			<path class="st0" d="M819.4,622.3c-1.5,0-3-0.1-4.6-0.2c-1.6-0.1-3.2-0.3-4.9-0.6v4.9c0,2.4,0.8,4.3,2.4,5.7
				c1.6,1.4,4.2,2.1,7.6,2.1c2,0,3.8-0.2,5.3-0.7c1.6-0.5,3.2-1.1,5-1.9c0.1-0.1,0.4-0.3,0.8-0.4c0.4-0.1,0.9-0.2,1.5-0.2
				c1.8,0,3.2,0.5,4,1.6c0.8,1.1,1.2,2.1,1.2,3.2c0,1.6-0.7,3-2.1,4c-1.4,1-3.1,1.9-5,2.5c-2,0.6-4,1.1-6.2,1.3
				c-2.2,0.2-4,0.4-5.6,0.4c-3.3,0-6.2-0.5-8.7-1.4c-2.6-0.9-4.7-2.2-6.4-3.8c-1.7-1.6-3.1-3.6-4-5.8c-0.9-2.2-1.4-4.6-1.4-7.2
				v-18.8c0-2.6,0.5-5.1,1.4-7.3c0.9-2.2,2.3-4.2,4-5.8c1.8-1.6,4-2.9,6.6-3.9c2.6-1,5.6-1.4,9-1.4c6.5,0,11.3,1.6,14.5,4.8
				c3.2,3.2,4.8,7.5,4.8,12.8c0,5-1.5,9-4.6,11.8C831.1,620.9,826.2,622.3,819.4,622.3z M827.4,606c0-2.8-0.7-4.9-2.1-6.1
				c-1.4-1.2-3.4-1.8-6-1.8c-3,0-5.3,0.7-6.9,2.2c-1.6,1.5-2.4,3.5-2.4,6.1v6.3c1.8,0.2,3.7,0.4,5.5,0.5c1.8,0.1,3.1,0.2,3.9,0.2
				c3,0,5.2-0.7,6.3-2C826.8,610.1,827.4,608.3,827.4,606z"/>
		</g>
	</g>
	<g>
		<g>
			<path class="st1" d="M152,724.7c-0.7,2.1-1.6,2.9-3.2,2.9s-2.5-0.9-3.1-2.8l-9.9-30.6c-0.5-1.4,0.8-2.6,2.2-2.6
				c0.8,0,1.6,0.3,1.9,1.5l8.9,28.7l8.8-28.7c0.2-0.7,0.9-1.5,2-1.5c1.2,0.1,2.2,1,2.2,2.3c0,0.2,0,0.3-0.1,0.6L152,724.7z"/>
			<path class="st1" d="M174,725.4c0,1.3-1,2.2-2.2,2.2c-1.3,0-2.3-1-2.3-2.2v-24.2c0-2.4-0.3-3.9-1.3-5.3c-0.3-0.3-0.4-0.8-0.4-1.2
				c0-1.2,1-2,2.1-2c0.9,0,1.9,0.9,2.7,2.2c3.3-2.1,7.4-3.3,9.9-3.3c2.4,0,3.2,1,3.2,2.2c0,1.4-1,2.4-2.2,2.4
				c-3.1-0.1-5.8-0.1-9.6,2.8v0.1c0,0,0.1,0.1,0.1,2.2V725.4z"/>
			<path class="st1" d="M195.3,682.6c-1.7,0-2.9-1.3-2.9-2.8c0-1.7,1.3-2.9,2.9-2.9c1.5,0,2.8,1.3,2.8,2.9
				C198.1,681.3,196.8,682.6,195.3,682.6z M195.3,727.6c-1.3,0-2.3-1-2.3-2.2v-31.5c0-1.3,1-2.3,2.3-2.3c1.2,0,2.2,1,2.2,2.3v31.5
				C197.5,726.6,196.5,727.6,195.3,727.6z"/>
			<path class="st1" d="M214.6,728.7c0,7-3.7,11.9-9.7,12.8c-0.6,0.1-0.8,0-1.3,0c-0.8,0-1.7-0.6-1.9-1.4c-0.3-1.6,0.8-2.3,1.7-2.4
				c4.2-1,6.5-3.2,6.5-8.8v-35.1c0-1.3,1-2.3,2.3-2.3c1.2,0,2.2,1,2.2,2.3V728.7z M212.4,682.6c-1.7,0-3-1.3-3-2.8
				c0-1.7,1.3-2.9,3-2.9c1.5,0,2.8,1.3,2.8,2.9C215.2,681.3,213.9,682.6,212.4,682.6z"/>
			<path class="st1" d="M244.7,721.7c0.1-0.1,0.5-0.2,0.8-0.2c1.1,0,1.9,1,1.9,1.9c0,3.1-7.4,4.1-11,4.1c-7.8,0-12.2-4.9-12.2-11.3
				v-13.3c0-6.6,4.4-11.6,12.6-11.6c7.6,0,11.2,4.4,11.2,11.1c0,6.3-3.4,10.1-11.5,10.1c-2.3,0-5.1-0.2-7.8-0.8v4.9
				c0,4.2,2.8,7.1,8.4,7.1C240.3,723.8,242.2,722.9,244.7,721.7z M236.6,695.3c-5,0-7.9,2.8-7.9,7.1v5.9c3,0.4,6.7,0.6,8.1,0.6
				c5.8,0,6.8-3.1,6.8-6.4C243.6,697.4,241.1,695.3,236.6,695.3z"/>
			<path class="st1" d="M269.9,678.4c0-1.1,0.8-2.2,2.3-2.2c1.5,0,2.2,1.1,2.2,2.2v16.3c3.1-2.2,6.3-3.4,10.1-3.4
				c7.7,0,10.5,4.7,10.5,10.6v13.5c0,6.9-4.2,12.2-12.5,12.2c-8.1,0-12.6-4.7-12.6-10.7V678.4z M274.4,716.9c0,4.1,3.1,6.6,8.1,6.6
				c5.5,0,8-3.1,8-8.1V702c0-4.3-2.2-6.9-7.4-6.9c-3.7,0-6.5,1.5-8.7,4V716.9z"/>
			<path class="st1" d="M321.3,703.4c0-5.6-2.6-8.3-8.1-8.3c-2.6,0-4,0.6-5.6,1.5c-0.4,0.3-1,0.6-1.7,0.6c-1,0-1.5-1-1.5-1.8
				c-0.3-2.9,4.9-4.1,9.5-4.1c8.5,0,11.9,4.9,11.9,14V721c0,1.8,0.6,2.7,1.9,2.7c0.3,0,0.4-0.1,0.6-0.1c1,0,1.5,1,1.5,1.9
				c0,1.4-1.4,1.9-2.6,1.9c-2.2,0-4-1.5-5.3-4c-2.9,2.8-6.2,4.2-9.9,4.2c-7,0-10.4-4.2-10.4-10.2v-0.3c0-6.7,4-10.1,12.1-10.1
				c2.4,0,5,0.5,7.7,1.3V703.4z M306,717.2v0.3c0,3.6,1.6,6.3,6.9,6.3c3.2,0,5.8-1.1,8.5-3.4V712c-2.8-0.9-5.7-1.3-7.8-1.3
				C307.2,710.6,306,713.6,306,717.2z"/>
			<path class="st1" d="M347.2,691.3c3.5,0,9,0.8,9,3.5c0,1.1-0.8,2-2,2c-0.4,0-0.7-0.1-1-0.3c-1.6-0.8-3-1.4-5.7-1.4
				c-4.7,0-6.9,1.9-6.9,5.6c0,2.5,1,3.7,3.7,5.2c5.5,2.7,13,3.4,13,11.7c0,6.1-3.9,9.9-11.5,9.9c-3.5,0-10.1-0.7-10.1-3.5
				c0-1,0.8-2.1,2.2-2.1c0.1,0,0.2,0,0.4,0.1c2.1,0.8,4.4,1.7,7.5,1.7c4.2,0,7.1-1.7,7.1-5.8c0-2.9-1.3-4.2-2.8-5.1
				c-5.4-2.7-13.8-3.4-13.8-11.7C336.2,695.2,340,691.3,347.2,691.3z"/>
			<path class="st1" d="M367.8,682.6c-1.7,0-2.9-1.3-2.9-2.8c0-1.7,1.3-2.9,2.9-2.9c1.5,0,2.8,1.3,2.8,2.9
				C370.6,681.3,369.3,682.6,367.8,682.6z M367.8,727.6c-1.3,0-2.3-1-2.3-2.2v-31.5c0-1.3,1-2.3,2.3-2.3c1.2,0,2.2,1,2.2,2.3v31.5
				C370,726.6,369,727.6,367.8,727.6z"/>
			<path class="st1" d="M391.3,691.3c3.5,0,9,0.8,9,3.5c0,1.1-0.8,2-2,2c-0.4,0-0.7-0.1-1-0.3c-1.6-0.8-3-1.4-5.7-1.4
				c-4.7,0-6.9,1.9-6.9,5.6c0,2.5,1,3.7,3.7,5.2c5.5,2.7,13,3.4,13,11.7c0,6.1-3.9,9.9-11.5,9.9c-3.5,0-10.1-0.7-10.1-3.5
				c0-1,0.8-2.1,2.2-2.1c0.1,0,0.2,0,0.4,0.1c2.1,0.8,4.4,1.7,7.5,1.7c4.2,0,7.1-1.7,7.1-5.8c0-2.9-1.3-4.2-2.8-5.1
				c-5.4-2.7-13.8-3.4-13.8-11.7C380.3,695.2,384.1,691.3,391.3,691.3z"/>
			<path class="st1" d="M418.9,691.3c3.5,0,9,0.8,9,3.5c0,1.1-0.8,2-2,2c-0.4,0-0.7-0.1-1-0.3c-1.6-0.8-3-1.4-5.7-1.4
				c-4.7,0-6.9,1.9-6.9,5.6c0,2.5,1,3.7,3.7,5.2c5.5,2.7,13,3.4,13,11.7c0,6.1-3.9,9.9-11.5,9.9c-3.5,0-10.1-0.7-10.1-3.5
				c0-1,0.8-2.1,2.2-2.1c0.1,0,0.2,0,0.4,0.1c2.1,0.8,4.4,1.7,7.5,1.7c4.2,0,7.1-1.7,7.1-5.8c0-2.9-1.3-4.2-2.8-5.1
				c-5.4-2.7-13.8-3.4-13.8-11.7C407.8,695.2,411.7,691.3,418.9,691.3z"/>
			<path class="st1" d="M435.4,704.2c0-7.1,3.8-12.6,12.4-12.6c3.1,0,9.4,0.8,9.4,3.8c0,1-0.8,1.9-1.9,1.9c-0.4,0-0.7-0.1-1-0.1h0.1
				c-1.7-0.9-3.4-1.7-6-1.7c-6,0-8.4,3.3-8.4,8.8V715c0,5.5,2.4,8.8,8.4,8.8c2.7,0,4.3-0.8,6-1.7h-0.1c0.5-0.1,0.8-0.2,1-0.2
				c1,0,1.9,0.9,1.9,1.9c0,2.9-6.2,3.8-9.4,3.8c-8.6,0-12.4-5.5-12.4-12.6V704.2z"/>
			<path class="st1" d="M466.5,727.6c-1.3,0-2.3-1-2.3-2.2v-47.3c0-1.1,0.9-2.3,2.2-2.3s2.2,1,2.2,2.3v16.9c3-2.3,6.3-3.6,9.6-3.6
				c7.3,0,10.6,4.7,10.6,11.4v22.6c0,1.3-1,2.2-2.2,2.2s-2.3-1-2.3-2.2v-22.6c0-4.7-1.9-7.4-6.7-7.4c-3,0-6.5,1.5-8.9,4.6v25.3
				C468.6,726.6,467.7,727.6,466.5,727.6z"/>
			<path class="st1" d="M497.3,715.4v-11.9c0-6.9,4.5-12.2,12.8-12.2c8.4,0,12.8,5.3,12.8,12.2v11.9c0,6.9-4.4,12.2-12.8,12.2
				C501.9,727.6,497.3,722.3,497.3,715.4z M518.5,715.4v-12c0-5-2.8-8.1-8.3-8.1c-5.5,0-8.3,3.1-8.3,8.1v12c0,5,2.8,8.1,8.3,8.1
				C515.7,723.5,518.5,720.4,518.5,715.4z"/>
			<path class="st1" d="M529.6,715.4v-11.9c0-6.9,4.5-12.2,12.8-12.2c8.4,0,12.8,5.3,12.8,12.2v11.9c0,6.9-4.4,12.2-12.8,12.2
				C534.1,727.6,529.6,722.3,529.6,715.4z M550.7,715.4v-12c0-5-2.8-8.1-8.3-8.1c-5.5,0-8.3,3.1-8.3,8.1v12c0,5,2.8,8.1,8.3,8.1
				C548,723.5,550.7,720.4,550.7,715.4z"/>
			<path class="st1" d="M564,678.5c0-1.2,1-2.3,2.2-2.3s2.2,1,2.2,2.3v42.4c0,1.6,0.3,2.8,1.3,3.8c0.1,0.2,0.3,0.7,0.3,1
				c0,1.2-0.8,2-2,2c-1.5,0-4-0.8-4-6.7V678.5z"/>
			<path class="st1" d="M614.8,686.3c-2.6,11.6-6.2,27-8.8,38.5c-0.4,1.2-1.3,2.8-3.3,2.8c-1.7,0-2.8-1.3-3.3-2.8l-10.6-45v-0.3
				c0-1.3,1.5-1.9,2.7-1.9c0.8,0,1.7,0.7,2.1,1.7l9.3,40.1l8.7-38.3c0.6-2.3,1.3-3.8,3.2-3.8c1.9,0,2.6,1.5,3.1,3.8l8.8,38.4
				l9.2-40.2c0.3-1,1-1.7,1.9-1.7c1.3,0,2.8,0.6,2.8,2c0,0.1,0,0.4-0.1,0.6v0.1l-10.6,44.5c-0.4,1.5-1.5,2.8-3.3,2.8
				c-1.8,0-2.9-1.5-3.3-2.9L614.8,686.3z"/>
			<path class="st1" d="M662.5,703.4c0-5.6-2.6-8.3-8.1-8.3c-2.6,0-4,0.6-5.6,1.5c-0.4,0.3-1,0.6-1.7,0.6c-1,0-1.5-1-1.5-1.8
				c-0.3-2.9,4.9-4.1,9.5-4.1c8.5,0,11.9,4.9,11.9,14V721c0,1.8,0.6,2.7,1.9,2.7c0.3,0,0.4-0.1,0.6-0.1c1,0,1.5,1,1.5,1.9
				c0,1.4-1.4,1.9-2.6,1.9c-2.2,0-4-1.5-5.3-4c-2.9,2.8-6.2,4.2-9.9,4.2c-7,0-10.4-4.2-10.4-10.2v-0.3c0-6.7,4-10.1,12.1-10.1
				c2.4,0,5,0.5,7.7,1.3V703.4z M647.2,717.2v0.3c0,3.6,1.6,6.3,6.9,6.3c3.2,0,5.8-1.1,8.5-3.4V712c-2.8-0.9-5.7-1.3-7.8-1.3
				C648.4,710.6,647.2,713.6,647.2,717.2z"/>
			<path class="st1" d="M683.1,725.4c0,1.3-1,2.2-2.2,2.2c-1.3,0-2.3-1-2.3-2.2v-24.2c0-2.4-0.3-3.9-1.3-5.3
				c-0.3-0.3-0.4-0.8-0.4-1.2c0-1.2,1-2,2.1-2c0.9,0,1.9,0.9,2.7,2.2c3.3-2.1,7.4-3.3,9.9-3.3c2.4,0,3.2,1,3.2,2.2
				c0,1.4-1,2.4-2.2,2.4c-3.1-0.1-5.8-0.1-9.6,2.8v0.1c0,0,0.1,0.1,0.1,2.2V725.4z"/>
			<path class="st1" d="M720,721.7c0.1-0.1,0.5-0.2,0.8-0.2c1.1,0,1.9,1,1.9,1.9c0,3.1-7.4,4.1-11,4.1c-7.8,0-12.2-4.9-12.2-11.3
				v-13.3c0-6.6,4.4-11.6,12.6-11.6c7.6,0,11.3,4.4,11.3,11.1c0,6.3-3.4,10.1-11.5,10.1c-2.3,0-5.1-0.2-7.8-0.8v4.9
				c0,4.2,2.8,7.1,8.4,7.1C715.6,723.8,717.5,722.9,720,721.7z M711.9,695.3c-5,0-7.9,2.8-7.9,7.1v5.9c3,0.4,6.7,0.6,8.1,0.6
				c5.8,0,6.8-3.1,6.8-6.4C718.9,697.4,716.3,695.3,711.9,695.3z"/>
			<path class="st1" d="M752,694c1.7-3.1,4.1-4.4,5.4-4.4c1.2,0,2.1,0.8,2.1,2c0,0.6-0.1,0.9-0.3,1l-0.6,0.7
				c-2.4,2.2-3.5,3.3-3.5,6.6v4.4c0,6.9-4.1,12.4-12.4,12.4c-2.1,0-4.1-0.4-5.9-1.1c-0.9,1.6-1.2,3-1.2,4c0,2.9,2.6,3.6,4.4,3.6h3
				c7.8,0,13.7,3.1,13.7,9.7c0,6.9-6,11-14.1,11c-7.8,0-13.2-3.8-13.2-10.4c0-3.2,1.4-5.9,4-8.2c-1.8-1.7-2.4-3.9-2.4-5.5
				c0-1.5,0.6-3.7,3.1-5.8c-2.8-2.6-4.2-6-4.2-10.1c0-7.2,4-12.6,12.3-12.6C745.5,691.3,749,692.2,752,694z M736.8,727
				c-1.9,1.5-2.8,3.5-2.8,5.8c0,4.7,3.1,7.2,8.9,7.2c5.5,0,9.4-2.2,9.4-6.9c0-4-3-5.7-9.1-5.7h-3C738.9,727.4,737.7,727.2,736.8,727
				z M750.9,697.6c-2.5-1.5-5.1-2.4-7.8-2.4c-5.6,0-8.5,3.2-8.5,8.8c0,5.1,2.4,8.6,8.2,8.6c5.5,0,7.9-3.1,7.9-8.1V700
				C750.6,699.7,750.7,698.7,750.9,697.6z"/>
			<path class="st1" d="M783.6,721.7c0.1-0.1,0.5-0.2,0.8-0.2c1.1,0,1.9,1,1.9,1.9c0,3.1-7.4,4.1-11,4.1c-7.8,0-12.2-4.9-12.2-11.3
				v-13.3c0-6.6,4.4-11.6,12.6-11.6c7.6,0,11.3,4.4,11.3,11.1c0,6.3-3.4,10.1-11.5,10.1c-2.3,0-5.1-0.2-7.8-0.8v4.9
				c0,4.2,2.8,7.1,8.4,7.1C779.1,723.8,781.1,722.9,783.6,721.7z M775.4,695.3c-5,0-7.9,2.8-7.9,7.1v5.9c3,0.4,6.7,0.6,8.1,0.6
				c5.8,0,6.8-3.1,6.8-6.4C782.4,697.4,779.9,695.3,775.4,695.3z"/>
			<path class="st1" d="M809,691.3c3.7,0,6.3,1.4,8.2,3.9c3.2-2.4,6.7-3.9,10.5-3.9c7.4,0,11.3,4.7,11.3,11.7v22.4
				c0,1.3-0.7,2.2-2.2,2.2c-1.5,0-2.3-0.9-2.3-2.2v-22.2c0-4.3-2.2-7.8-7-7.8c-3.3,0-6.5,1.8-8.4,4.2c0.2,1,0.3,2.2,0.3,3.5v22.4
				c0,1.3-0.7,2.2-2.2,2.2c-1.5,0-2.3-0.9-2.3-2.2v-20.8c0-5.4-0.9-9.2-6.5-9.2c-3.2,0-6.6,1.5-8.8,3.2c0.1,0.8,0.2,1.6,0.2,2.5
				v24.3c0,1.3-0.8,2.2-2.2,2.2c-1.5,0-2.3-0.9-2.3-2.2V701c0-2.4-0.3-3.9-1.3-5.3c-0.3-0.3-0.4-0.8-0.4-1.2c0-1.2,1-2,2-2
				c0.9,0,1.9,0.6,2.7,2.2C801.8,692.6,805.4,691.3,809,691.3z"/>
		</g>
	</g>
</g>
<g>
	<circle class="st2" cx="276.5" cy="448" r="25.7"/>
	<circle class="st3" cx="432.6" cy="283.3" r="84.4"/>
	<circle class="st4" cx="506.5" cy="449.2" r="61"/>
	<circle class="st1" cx="370" cy="425.7" r="41.3"/>
	<path class="st5" d="M545.1,307.9c0,56.5,45.8,102.3,102.3,102.3s102.3-45.8,102.3-102.3s-45.8-102.3-102.3-102.3
		S545.1,251.4,545.1,307.9z M590,309.7c0-31.7,25.7-57.4,57.4-57.4s57.4,25.7,57.4,57.4c0,31.7-25.7,57.4-57.4,57.4
		S590,341.4,590,309.7z"/>
</g>
</svg>
