<?xml version="1.0" encoding="utf-8"?>
<!-- Generator: Adobe Illustrator 22.0.1, SVG Export Plug-In . SVG Version: 6.00 Build 0)  -->
<svg version="1.1" id="Laag_1" xmlns="http://www.w3.org/2000/svg" xmlns:xlink="http://www.w3.org/1999/xlink" x="0px" y="0px"
	 viewBox="0 0 323.5 110.1" style="enable-background:new 0 0 323.5 110.1;" xml:space="preserve">
<style type="text/css">
	.st0{fill:#4C4C4C;}
	.st1{fill:#714FB2;}
	.st2{fill:#FC9732;}
	.st3{fill:#D7E100;}
	.st4{fill:#DB169F;}
	.st5{fill:#3FA8EF;}
	.st6{fill:none;stroke:#4C4C4C;stroke-miterlimit:10;}
	.st7{fill:none;stroke:#714FB2;stroke-miterlimit:10;}
	.st8{fill:none;stroke:#FC9732;stroke-miterlimit:10;}
	.st9{fill:none;stroke:#D7E100;stroke-miterlimit:10;}
	.st10{fill:none;stroke:#DB169F;stroke-miterlimit:10;}
	.st11{fill:none;stroke:#3FA8EF;stroke-miterlimit:10;}
	.st12{clip-path:url(#SVGID_2_);}
	.st13{fill:none;stroke:#714FB2;stroke-width:0.9575;stroke-linejoin:round;stroke-miterlimit:10;}
	.st14{fill:none;stroke:#714FB2;stroke-width:0.9654;stroke-linejoin:round;stroke-miterlimit:10;}
	.st15{fill:#FFFFFF;}
	.st16{fill:none;}
	.st17{fill:#C20E1A;}
	.st18{clip-path:url(#SVGID_4_);}
</style>
<g>
	<circle class="st4" cx="14.2" cy="14.8" r="11.6"/>
	<path class="st15" d="M15.4,14.8l4.5-4.5c0.3-0.3,0.3-0.9,0-1.2c-0.3-0.3-0.9-0.3-1.2,0l-4.5,4.5L9.7,9.1c-0.3-0.3-0.9-0.3-1.2,0
		c-0.3,0.3-0.3,0.9,0,1.2l4.5,4.5l-4.5,4.5c-0.3,0.3-0.3,0.9,0,1.2c0.2,0.2,0.4,0.2,0.6,0.2s0.4-0.1,0.6-0.2l4.5-4.5l4.5,4.5
		c0.2,0.2,0.4,0.2,0.6,0.2s0.4-0.1,0.6-0.2c0.3-0.3,0.3-0.9,0-1.2L15.4,14.8z"/>
</g>
<g>
	<g>
		<g>
			<g>
				<path class="st0" d="M51.7,71.4c0.1,0.3,0.2,0.5,0.3,0.7c0.1,0.2,0.2,0.4,0.4,0.5c0.2,0.1,0.3,0.2,0.6,0.2c0.2,0,0.5,0,0.7-0.1
					c0.2-0.1,0.4-0.1,0.6-0.2c0.2-0.1,0.3-0.2,0.4-0.4l-0.5-2.1l-0.8,0.2c-0.1,0-0.3,0-0.4-0.1c-0.1-0.1-0.2-0.2-0.3-0.4
					c0-0.2,0-0.3,0.1-0.4c0.1-0.1,0.2-0.2,0.3-0.3l1.3-0.3c0.2-0.1,0.4,0,0.6,0s0.3,0.2,0.4,0.4l0.7,2.6c0.1,0.2,0,0.5-0.1,0.7
					c-0.1,0.2-0.2,0.4-0.5,0.6c-0.2,0.2-0.4,0.3-0.7,0.4c-0.3,0.1-0.5,0.2-0.8,0.3C53.5,74,53,74,52.7,74c-0.4,0-0.7-0.2-1-0.4
					c-0.3-0.2-0.5-0.5-0.7-0.8c-0.2-0.3-0.4-0.7-0.5-1.1l-0.5-2c-0.1-0.4-0.2-0.8-0.1-1.2c0-0.4,0.1-0.7,0.3-1
					c0.2-0.3,0.4-0.6,0.7-0.8c0.3-0.2,0.7-0.4,1.1-0.5c0.3-0.1,0.5-0.1,0.8-0.1c0.3,0,0.5,0,0.7,0.1c0.2,0,0.4,0.1,0.6,0.2
					c0.2,0.1,0.2,0.2,0.3,0.4c0,0.1,0,0.3-0.1,0.4c-0.1,0.1-0.2,0.2-0.4,0.3c-0.1,0-0.2,0-0.3,0c-0.1,0-0.1,0-0.2-0.1l-0.1,0
					c-0.2-0.1-0.4-0.1-0.5-0.1c-0.2,0-0.4,0-0.6,0.1c-0.3,0.1-0.5,0.2-0.7,0.3c-0.2,0.1-0.3,0.3-0.4,0.5c-0.1,0.2-0.1,0.4-0.1,0.6
					c0,0.2,0.1,0.5,0.1,0.8L51.7,71.4z"/>
				<path class="st0" d="M59.4,68.4c-0.2-0.7-0.6-0.9-1.3-0.7c-0.1,0-0.3,0.1-0.4,0.1c-0.1,0.1-0.2,0.1-0.3,0.2l-0.2,0.1
					c-0.1,0.1-0.2,0.1-0.3,0.1c-0.2,0-0.3,0-0.4-0.1c-0.1-0.1-0.2-0.2-0.2-0.3c0-0.1,0-0.3,0-0.4c0.1-0.1,0.2-0.2,0.3-0.4
					c0.1-0.1,0.3-0.2,0.5-0.3c0.2-0.1,0.4-0.2,0.6-0.2c0.8-0.2,1.4-0.1,1.8,0.2c0.4,0.3,0.7,0.8,0.9,1.6l0.6,2.3
					c0,0.1,0.1,0.2,0.1,0.3c0.1,0,0.1,0,0.2,0c0.2,0,0.4,0.1,0.4,0.3c0.1,0.3-0.1,0.5-0.5,0.6c-0.4,0.1-0.7,0-1-0.3
					c-0.3,0.5-0.8,0.8-1.4,0.9c-0.6,0.2-1.1,0.1-1.5-0.1c-0.4-0.2-0.7-0.6-0.8-1.1l0,0c-0.3-1.1,0.3-1.9,1.6-2.2
					c0.3-0.1,0.7-0.1,1-0.1L59.4,68.4z M58.7,69.9c-0.2,0.1-0.3,0.1-0.5,0.2c-0.1,0.1-0.2,0.2-0.2,0.2c0,0.1-0.1,0.2-0.1,0.3
					c0,0.1,0,0.2,0,0.3l0,0c0.1,0.2,0.2,0.4,0.3,0.5c0.2,0.1,0.4,0.1,0.7,0c0.2-0.1,0.4-0.1,0.5-0.2c0.2-0.1,0.3-0.2,0.4-0.4l-0.3-1
					c-0.2,0-0.3,0-0.5,0C59,69.8,58.9,69.9,58.7,69.9z"/>
				<path class="st0" d="M65.7,65.7c-0.1,0.8-0.1,1.5-0.2,2.3c-0.1,0.7-0.1,1.5-0.2,2.3c0,0.2-0.1,0.4-0.2,0.5
					c-0.1,0.1-0.2,0.2-0.4,0.3c-0.2,0.1-0.4,0-0.5,0c-0.1-0.1-0.3-0.2-0.4-0.4c-0.4-0.6-0.8-1.3-1.3-1.9c-0.4-0.6-0.8-1.3-1.3-1.9
					l-0.2-0.4c0,0,0,0,0,0c0,0,0,0,0,0c0-0.1,0-0.3,0.1-0.4c0.1-0.1,0.2-0.2,0.4-0.3c0.1,0,0.2,0,0.4,0c0.1,0,0.2,0.1,0.3,0.2
					c0.2,0.3,0.4,0.6,0.6,0.9c0.2,0.3,0.4,0.6,0.6,0.9c0.2,0.3,0.4,0.6,0.5,0.9c0.2,0.3,0.3,0.6,0.5,0.9c0-0.4,0-0.7,0-1
					c0-0.3,0-0.7,0-1.1c0-0.4,0-0.7,0-1.1c0-0.4,0-0.7,0-1.1c0-0.1,0.1-0.2,0.1-0.3c0.1-0.1,0.2-0.2,0.3-0.2c0.2,0,0.3,0,0.4,0
					c0.1,0.1,0.2,0.2,0.3,0.3l0,0.1L65.7,65.7z"/>
				<path class="st0" d="M69.3,67.4c-0.2,0-0.3,0.1-0.5,0.1c-0.2,0-0.3,0.1-0.5,0.1l0.1,0.5c0.1,0.3,0.2,0.4,0.4,0.5
					c0.2,0.1,0.5,0.1,0.9,0c0.2-0.1,0.4-0.1,0.5-0.2c0.1-0.1,0.3-0.2,0.5-0.3c0,0,0,0,0.1-0.1c0,0,0.1,0,0.2-0.1
					c0.2-0.1,0.3,0,0.5,0.1c0.1,0.1,0.2,0.2,0.2,0.3c0,0.2,0,0.3-0.1,0.5c-0.1,0.1-0.3,0.3-0.5,0.4c-0.2,0.1-0.4,0.2-0.6,0.3
					c-0.2,0.1-0.4,0.1-0.6,0.2c-0.3,0.1-0.7,0.1-1,0.1c-0.3,0-0.6-0.1-0.8-0.2c-0.2-0.1-0.4-0.3-0.6-0.5c-0.2-0.2-0.3-0.4-0.3-0.7
					l-0.5-2c-0.1-0.3-0.1-0.5-0.1-0.8c0-0.3,0.1-0.5,0.3-0.7c0.1-0.2,0.3-0.4,0.6-0.6c0.2-0.2,0.6-0.3,0.9-0.4
					c0.7-0.2,1.2-0.1,1.7,0.1c0.4,0.3,0.7,0.7,0.9,1.2c0.1,0.5,0.1,1-0.2,1.4C70.5,66.9,70.1,67.2,69.3,67.4z M69.7,65.5
					c-0.1-0.3-0.2-0.5-0.4-0.6c-0.2-0.1-0.4-0.1-0.7,0c-0.3,0.1-0.5,0.2-0.7,0.4c-0.1,0.2-0.2,0.4-0.1,0.7l0.2,0.7
					c0.2,0,0.4-0.1,0.6-0.1c0.2,0,0.3-0.1,0.4-0.1c0.3-0.1,0.5-0.2,0.6-0.4C69.8,65.9,69.8,65.7,69.7,65.5z"/>
				<path class="st0" d="M74.4,63.5c-0.1,0-0.2,0.1-0.3,0.1c-0.1,0-0.2,0.1-0.3,0.1c-0.1,0-0.2,0.1-0.3,0.2
					c-0.1,0.1-0.2,0.1-0.3,0.2c0,0.1,0,0.1,0.1,0.1c0,0,0,0.1,0,0.1l0.9,3.6c0,0.2,0,0.3-0.1,0.5c-0.1,0.1-0.2,0.2-0.4,0.3
					c-0.2,0-0.3,0-0.5,0c-0.1-0.1-0.2-0.2-0.3-0.4l-0.9-3.6c0-0.2-0.1-0.3-0.1-0.4c0-0.1-0.1-0.2-0.2-0.2c0,0-0.1-0.1-0.1-0.1
					c0,0-0.1-0.1-0.1-0.2c0-0.2,0-0.3,0.1-0.4c0.1-0.1,0.2-0.2,0.4-0.3c0.1,0,0.2,0,0.3,0c0.1,0,0.2,0.1,0.3,0.2
					c0.2-0.2,0.4-0.4,0.7-0.6c0.2-0.2,0.5-0.3,0.7-0.3c0.3-0.1,0.5-0.1,0.6,0c0.1,0.1,0.2,0.2,0.3,0.3c0,0.2,0,0.3-0.1,0.5
					C74.7,63.4,74.6,63.5,74.4,63.5z"/>
				<path class="st0" d="M77.4,63.7l1.2-2.1c0.1-0.1,0.1-0.2,0.2-0.3c0.1-0.1,0.2-0.1,0.3-0.2c0.2,0,0.3,0,0.5,0
					c0.1,0.1,0.2,0.2,0.3,0.3c0,0.1,0,0.3-0.1,0.4l-1.1,2c0.4,0.3,0.8,0.7,1.2,1c0.4,0.3,0.8,0.7,1.2,1c0,0,0.1,0.1,0.1,0.1
					c0,0.1,0.1,0.1,0.1,0.2c0,0.2,0,0.3-0.1,0.4c-0.1,0.1-0.2,0.2-0.4,0.2c-0.1,0-0.2,0-0.2,0c-0.1,0-0.1,0-0.2,0
					c-0.1,0-0.1-0.1-0.2-0.1c-0.1,0-0.1-0.1-0.2-0.2l-2-1.7c0,0-0.1,0.1-0.1,0.2c0,0.1-0.1,0.1-0.1,0.2l0.4,1.5
					c0.1,0.2,0.1,0.4,0,0.6c0,0.2-0.2,0.3-0.4,0.4c-0.2,0-0.3,0-0.5,0c-0.1-0.1-0.2-0.2-0.3-0.4l-1.7-6.3c0-0.1,0-0.2-0.1-0.3
					c0-0.1,0-0.2,0-0.3c0-0.1,0.1-0.2,0.1-0.2c0.1-0.1,0.2-0.1,0.3-0.1c0.2,0,0.3,0,0.5,0c0.1,0.1,0.2,0.2,0.3,0.4L77.4,63.7z"/>
				<path class="st0" d="M83.6,63.6c-0.2,0-0.3,0.1-0.5,0.1c-0.2,0-0.3,0.1-0.5,0.1l0.1,0.5c0.1,0.3,0.2,0.4,0.4,0.5
					c0.2,0.1,0.5,0.1,0.9,0c0.2-0.1,0.4-0.1,0.5-0.2c0.1-0.1,0.3-0.2,0.5-0.3c0,0,0,0,0.1-0.1c0,0,0.1,0,0.2-0.1
					c0.2-0.1,0.3,0,0.5,0.1c0.1,0.1,0.2,0.2,0.2,0.3c0,0.2,0,0.3-0.1,0.5c-0.1,0.1-0.3,0.3-0.5,0.4c-0.2,0.1-0.4,0.2-0.6,0.3
					c-0.2,0.1-0.4,0.1-0.6,0.2c-0.3,0.1-0.7,0.1-1,0.1c-0.3,0-0.6-0.1-0.8-0.2c-0.2-0.1-0.4-0.3-0.6-0.5c-0.2-0.2-0.3-0.4-0.3-0.7
					l-0.5-2c-0.1-0.3-0.1-0.5-0.1-0.8c0-0.3,0.1-0.5,0.3-0.7c0.1-0.2,0.3-0.4,0.6-0.6c0.2-0.2,0.6-0.3,0.9-0.4
					c0.7-0.2,1.2-0.1,1.7,0.1c0.4,0.3,0.7,0.7,0.9,1.2c0.1,0.5,0.1,1-0.2,1.4C84.8,63.2,84.3,63.5,83.6,63.6z M84,61.7
					c-0.1-0.3-0.2-0.5-0.4-0.6c-0.2-0.1-0.4-0.1-0.7,0c-0.3,0.1-0.5,0.2-0.7,0.4c-0.1,0.2-0.2,0.4-0.1,0.7l0.2,0.7
					c0.2,0,0.4-0.1,0.6-0.1c0.2,0,0.3-0.1,0.4-0.1c0.3-0.1,0.5-0.2,0.6-0.4C84.1,62.2,84.1,62,84,61.7z"/>
				<g>
					<g>
						<path class="st1" d="M89.1,64.6c0,0.1-0.1,0.2-0.2,0.3c-0.1,0.1-0.2,0.1-0.3,0.2c-0.1,0-0.1,0-0.2,0c-0.1,0-0.1-0.1-0.2-0.1
							s-0.1-0.1-0.1-0.1c0-0.1,0-0.1,0-0.2l0.6-5.9c0-0.1,0.1-0.2,0.2-0.3c0.1-0.1,0.2-0.1,0.3-0.1c0.1,0,0.3,0,0.4,0.1
							c0.1,0.1,0.2,0.2,0.2,0.3c0,0,0,0.1,0,0.1L89.1,64.6z"/>
					</g>
				</g>
				<path class="st0" d="M91.9,58.7c-0.1-0.4-0.2-0.8-0.1-1.2c0-0.4,0.1-0.7,0.3-1c0.2-0.3,0.4-0.6,0.7-0.8c0.3-0.2,0.7-0.4,1.1-0.5
					c0.3-0.1,0.5-0.1,0.8-0.1c0.3,0,0.5,0,0.7,0.1c0.2,0,0.4,0.1,0.6,0.2c0.2,0.1,0.2,0.2,0.3,0.4c0,0.1,0,0.3-0.1,0.4
					c-0.1,0.1-0.2,0.2-0.4,0.3c-0.1,0-0.2,0-0.3,0c-0.1,0-0.1,0-0.2-0.1l-0.1,0c-0.4-0.1-0.7-0.1-1.1,0c-0.3,0.1-0.5,0.2-0.7,0.3
					c-0.2,0.1-0.3,0.3-0.4,0.5c-0.1,0.2-0.1,0.4-0.1,0.6c0,0.2,0.1,0.5,0.1,0.8l0.5,2c0.1,0.3,0.2,0.5,0.3,0.7
					c0.1,0.2,0.2,0.4,0.4,0.5c0.2,0.1,0.3,0.2,0.6,0.2c0.2,0,0.5,0,0.7-0.1c0.4-0.1,0.7-0.3,0.9-0.6l0,0c0.1-0.1,0.1-0.1,0.2-0.2
					s0.1-0.1,0.2-0.1c0.2,0,0.3,0,0.4,0c0.1,0.1,0.2,0.2,0.3,0.3c0,0.1,0,0.3-0.1,0.5c-0.1,0.2-0.2,0.3-0.4,0.5
					c-0.2,0.1-0.4,0.3-0.6,0.4c-0.2,0.1-0.5,0.2-0.8,0.3C95.4,63,95,63,94.6,63c-0.4,0-0.7-0.2-1-0.4c-0.3-0.2-0.5-0.5-0.7-0.8
					c-0.2-0.3-0.4-0.7-0.5-1.1L91.9,58.7z"/>
				<path class="st0" d="M101.1,61.5c-0.4,0.1-0.7,0.1-1,0.1c-0.3,0-0.6-0.1-0.8-0.2c-0.2-0.1-0.4-0.3-0.6-0.5
					c-0.2-0.2-0.3-0.5-0.4-0.8l-0.5-1.8c-0.1-0.3-0.1-0.6-0.1-0.8c0-0.3,0.1-0.5,0.3-0.8c0.1-0.2,0.3-0.4,0.6-0.6
					c0.3-0.2,0.6-0.3,0.9-0.4c0.4-0.1,0.7-0.1,1-0.1c0.3,0,0.6,0.1,0.8,0.2c0.2,0.1,0.4,0.3,0.6,0.5c0.2,0.2,0.3,0.5,0.4,0.8
					l0.5,1.8c0.1,0.3,0.1,0.6,0.1,0.8c0,0.3-0.1,0.5-0.3,0.8c-0.1,0.2-0.3,0.4-0.6,0.6C101.8,61.3,101.5,61.4,101.1,61.5z
					 M100.8,60.4c0.3-0.1,0.6-0.2,0.7-0.5c0.1-0.2,0.2-0.5,0.1-0.8l-0.5-1.8c-0.1-0.3-0.2-0.5-0.4-0.6c-0.2-0.1-0.5-0.1-0.9-0.1
					c-0.3,0.1-0.6,0.2-0.7,0.5C99,57.4,99,57.7,99.1,58l0.5,1.8c0.1,0.3,0.2,0.5,0.4,0.6C100.2,60.5,100.5,60.5,100.8,60.4z"/>
				<path class="st0" d="M105.5,60.3c-0.1,0-0.2,0-0.3,0c-0.1,0-0.2,0-0.3-0.1c-0.1-0.1-0.2-0.2-0.3-0.3c-0.1-0.1-0.2-0.4-0.3-0.6
					l-1.6-6c0-0.1,0-0.3,0.1-0.4c0.1-0.1,0.2-0.2,0.4-0.3c0.2,0,0.3,0,0.5,0c0.1,0.1,0.2,0.2,0.3,0.4l1.5,5.9c0,0.1,0.1,0.2,0.1,0.3
					c0,0.1,0.1,0.1,0.2,0.2c0,0,0.1,0.1,0.1,0.1c0,0,0.1,0.1,0.1,0.2c0,0.2,0,0.3-0.1,0.4C105.9,60.2,105.7,60.3,105.5,60.3z"/>
				<path class="st0" d="M108.3,59.6c-0.1,0-0.2,0-0.3,0c-0.1,0-0.2,0-0.3-0.1c-0.1-0.1-0.2-0.2-0.3-0.3c-0.1-0.1-0.2-0.4-0.3-0.6
					l-1.6-6c0-0.1,0-0.3,0.1-0.4c0.1-0.1,0.2-0.2,0.4-0.3c0.2,0,0.3,0,0.5,0c0.1,0.1,0.2,0.2,0.3,0.4l1.5,5.9c0,0.1,0.1,0.2,0.1,0.3
					c0,0.1,0.1,0.1,0.2,0.2c0,0,0.1,0.1,0.1,0.1c0,0,0.1,0.1,0.1,0.2c0,0.2,0,0.3-0.1,0.4C108.6,59.5,108.5,59.6,108.3,59.6z"/>
				<path class="st0" d="M111.5,56.3c-0.2,0-0.3,0.1-0.5,0.1c-0.2,0-0.3,0.1-0.5,0.1l0.1,0.5c0.1,0.3,0.2,0.4,0.4,0.5
					c0.2,0.1,0.5,0.1,0.9,0c0.2-0.1,0.4-0.1,0.5-0.2c0.1-0.1,0.3-0.2,0.5-0.3c0,0,0,0,0.1-0.1c0,0,0.1,0,0.2-0.1
					c0.2-0.1,0.3,0,0.5,0.1c0.1,0.1,0.2,0.2,0.2,0.3c0,0.2,0,0.3-0.1,0.5c-0.1,0.1-0.3,0.3-0.5,0.4c-0.2,0.1-0.4,0.2-0.6,0.3
					c-0.2,0.1-0.4,0.1-0.6,0.2c-0.3,0.1-0.7,0.1-1,0.1c-0.3,0-0.6-0.1-0.8-0.2c-0.2-0.1-0.4-0.3-0.6-0.5c-0.2-0.2-0.3-0.4-0.3-0.7
					l-0.5-2c-0.1-0.3-0.1-0.5-0.1-0.8c0-0.3,0.1-0.5,0.3-0.7c0.1-0.2,0.3-0.4,0.6-0.6c0.2-0.2,0.6-0.3,0.9-0.4
					c0.7-0.2,1.2-0.1,1.7,0.1c0.4,0.3,0.7,0.7,0.9,1.2c0.1,0.5,0.1,1-0.2,1.4C112.7,55.9,112.2,56.1,111.5,56.3z M111.9,54.4
					c-0.1-0.3-0.2-0.5-0.4-0.6c-0.2-0.1-0.4-0.1-0.7,0c-0.3,0.1-0.5,0.2-0.7,0.4c-0.1,0.2-0.2,0.4-0.1,0.7l0.2,0.7
					c0.2,0,0.4-0.1,0.6-0.1c0.2,0,0.3-0.1,0.4-0.1c0.3-0.1,0.5-0.2,0.6-0.4C112,54.8,112,54.6,111.9,54.4z"/>
				<path class="st0" d="M115.7,51.5c0.3-0.1,0.5-0.1,0.8-0.1c0.3,0,0.5,0,0.8,0.1c0.1-0.3,0.2-0.5,0.3-0.6c0.1-0.2,0.3-0.2,0.4-0.3
					c0.1,0,0.3,0,0.4,0c0.1,0.1,0.2,0.2,0.3,0.3c0,0.1,0,0.1,0,0.2c0,0.1,0,0.1-0.1,0.1l-0.1,0.2c-0.1,0.1-0.1,0.2-0.1,0.2
					c0,0.1-0.1,0.1-0.1,0.2c0,0.1,0,0.1,0,0.2c0,0.1,0,0.1,0,0.2l0.2,0.7c0.1,0.3,0.1,0.6,0.1,0.8c0,0.3-0.1,0.5-0.2,0.7
					c-0.1,0.2-0.3,0.4-0.6,0.6c-0.2,0.2-0.6,0.3-0.9,0.4c-0.1,0-0.3,0.1-0.4,0.1c-0.1,0-0.3,0-0.4,0c0,0.1,0,0.2,0,0.2
					c0,0.1,0,0.1,0,0.2c0,0.2,0.1,0.3,0.2,0.3c0.1,0,0.2,0,0.3,0l0.5-0.1c0.3-0.1,0.7-0.1,1-0.1c0.3,0,0.6,0,0.8,0.1
					c0.3,0.1,0.5,0.2,0.6,0.4c0.2,0.2,0.3,0.4,0.4,0.7c0.1,0.3,0.1,0.6,0,0.8c-0.1,0.3-0.2,0.5-0.4,0.7c-0.2,0.2-0.4,0.4-0.7,0.6
					c-0.3,0.2-0.6,0.3-0.9,0.4c-0.3,0.1-0.7,0.1-1,0.1c-0.3,0-0.6-0.1-0.8-0.2c-0.2-0.1-0.5-0.2-0.6-0.4c-0.2-0.2-0.3-0.4-0.4-0.7
					c-0.1-0.2-0.1-0.5,0-0.7c0.1-0.2,0.2-0.5,0.3-0.7c-0.1-0.1-0.3-0.3-0.3-0.4c-0.1-0.1-0.1-0.3-0.2-0.4c0-0.1,0-0.3,0-0.4
					c0-0.2,0.1-0.3,0.2-0.5c-0.5-0.3-0.9-0.7-1.1-1.4c-0.1-0.3-0.1-0.6-0.1-0.9c0-0.3,0.1-0.5,0.2-0.8c0.1-0.2,0.3-0.4,0.5-0.6
					C115.1,51.7,115.3,51.6,115.7,51.5z M117.2,57.4c-0.1,0-0.2,0.1-0.3,0.1c-0.1,0-0.2,0-0.3,0.1c-0.1,0.2-0.2,0.5-0.1,0.7
					c0.1,0.3,0.2,0.5,0.4,0.6c0.2,0.1,0.5,0.1,0.9,0c0.4-0.1,0.6-0.2,0.8-0.4c0.2-0.2,0.3-0.4,0.2-0.7c-0.1-0.4-0.6-0.6-1.3-0.4
					L117.2,57.4z M117.3,53c0-0.1,0-0.2-0.1-0.3c0-0.1,0-0.2-0.1-0.3c-0.2,0-0.4-0.1-0.5-0.1c-0.2,0-0.3,0-0.5,0.1
					c-0.4,0.1-0.6,0.3-0.7,0.5c-0.1,0.2-0.1,0.5,0,0.9c0.1,0.3,0.2,0.6,0.4,0.7c0.2,0.2,0.5,0.2,0.9,0.1c0.3-0.1,0.6-0.2,0.7-0.5
					c0.1-0.2,0.1-0.5,0-0.8L117.3,53z"/>
				<path class="st0" d="M122.4,53.5c-0.2,0-0.3,0.1-0.5,0.1c-0.2,0-0.3,0.1-0.5,0.1l0.1,0.5c0.1,0.3,0.2,0.4,0.4,0.5
					c0.2,0.1,0.5,0.1,0.9,0c0.2-0.1,0.4-0.1,0.5-0.2c0.1-0.1,0.3-0.2,0.5-0.3c0,0,0,0,0.1-0.1c0,0,0.1,0,0.2-0.1
					c0.2-0.1,0.3,0,0.5,0.1c0.1,0.1,0.2,0.2,0.2,0.3c0,0.2,0,0.3-0.1,0.5c-0.1,0.1-0.3,0.3-0.5,0.4c-0.2,0.1-0.4,0.2-0.6,0.3
					c-0.2,0.1-0.4,0.1-0.6,0.2c-0.3,0.1-0.7,0.1-1,0.1c-0.3,0-0.6-0.1-0.8-0.2c-0.2-0.1-0.4-0.3-0.6-0.5c-0.2-0.2-0.3-0.4-0.3-0.7
					l-0.5-2c-0.1-0.3-0.1-0.5-0.1-0.8c0-0.3,0.1-0.5,0.3-0.7c0.1-0.2,0.3-0.4,0.6-0.6c0.2-0.2,0.6-0.3,0.9-0.4
					c0.7-0.2,1.2-0.1,1.7,0.1c0.4,0.3,0.7,0.7,0.9,1.2c0.1,0.5,0.1,1-0.2,1.4C123.6,53,123.1,53.3,122.4,53.5z M122.8,51.6
					c-0.1-0.3-0.2-0.5-0.4-0.6c-0.2-0.1-0.4-0.1-0.7,0c-0.3,0.1-0.5,0.2-0.7,0.4c-0.1,0.2-0.2,0.4-0.1,0.7l0.2,0.7
					c0.2,0,0.4-0.1,0.6-0.1c0.2,0,0.3-0.1,0.4-0.1c0.3-0.1,0.5-0.2,0.6-0.4C122.8,52,122.8,51.8,122.8,51.6z"/>
			</g>
		</g>
		<g>
			<g>
				<path class="st1" d="M55.2,82.6c0,0.2-0.1,0.3-0.3,0.4c-0.2,0-0.3,0-0.4-0.2l-1.9-2.9c-0.1-0.1,0-0.3,0.2-0.3
					c0.1,0,0.2,0,0.2,0.1l1.7,2.8l0.1-3.2c0-0.1,0.1-0.2,0.2-0.2c0.1,0,0.3,0,0.3,0.2c0,0,0,0,0,0.1L55.2,82.6z"/>
				<path class="st1" d="M57.5,82c0,0.1,0,0.3-0.2,0.3c-0.1,0-0.3,0-0.3-0.2l-0.7-2.5c-0.1-0.3-0.1-0.4-0.3-0.5c0,0-0.1-0.1-0.1-0.1
					c0-0.1,0-0.2,0.2-0.3c0.1,0,0.2,0,0.3,0.2c0.3-0.3,0.7-0.5,1-0.6c0.3-0.1,0.4,0,0.4,0.1c0,0.1,0,0.3-0.2,0.3
					c-0.3,0.1-0.6,0.2-0.9,0.6l0,0c0,0,0,0,0.1,0.2L57.5,82z"/>
				<path class="st1" d="M58.6,77c-0.2,0-0.3-0.1-0.4-0.2c0-0.2,0.1-0.3,0.2-0.4c0.2,0,0.3,0.1,0.4,0.2C58.8,76.8,58.7,76.9,58.6,77
					z M59.8,81.7c-0.1,0-0.3,0-0.3-0.2l-0.9-3.3c0-0.1,0-0.3,0.2-0.3c0.1,0,0.3,0,0.3,0.2l0.9,3.3C60,81.5,59.9,81.7,59.8,81.7z"/>
				<path class="st1" d="M61.8,81.3c0.2,0.7-0.1,1.3-0.7,1.6c-0.1,0-0.1,0-0.1,0c-0.1,0-0.2,0-0.2-0.1c-0.1-0.2,0-0.3,0.1-0.3
					c0.4-0.2,0.6-0.5,0.4-1.1l-1-3.7c0-0.1,0-0.3,0.2-0.3c0.1,0,0.3,0,0.3,0.2L61.8,81.3z M60.3,76.5c-0.2,0-0.3-0.1-0.4-0.2
					c0-0.2,0.1-0.3,0.2-0.4c0.2,0,0.3,0.1,0.4,0.2C60.6,76.3,60.5,76.5,60.3,76.5z"/>
				<path class="st1" d="M64.8,79.7C64.8,79.7,64.9,79.7,64.8,79.7c0.2-0.1,0.3,0,0.3,0.1c0.1,0.3-0.7,0.6-1,0.7
					c-0.8,0.2-1.4-0.2-1.6-0.9l-0.4-1.4c-0.2-0.7,0.1-1.3,1-1.6c0.8-0.2,1.3,0.1,1.5,0.9c0.2,0.7-0.1,1.1-0.9,1.4
					c-0.2,0.1-0.5,0.1-0.8,0.1l0.1,0.5c0.1,0.4,0.5,0.7,1.1,0.5C64.4,80.1,64.6,79.9,64.8,79.7z M63.2,77.2c-0.5,0.1-0.8,0.5-0.6,1
					l0.2,0.6c0.3,0,0.7-0.1,0.9-0.2c0.6-0.2,0.6-0.5,0.5-0.9C64,77.2,63.7,77.1,63.2,77.2z"/>
				<path class="st1" d="M66.3,74.5c0-0.1,0-0.3,0.2-0.3c0.2,0,0.3,0.1,0.3,0.2l0.4,1.7c0.3-0.3,0.6-0.5,1-0.6
					c0.8-0.2,1.2,0.2,1.4,0.8l0.4,1.4c0.2,0.7-0.1,1.4-1,1.6c-0.8,0.2-1.5-0.1-1.6-0.8L66.3,74.5z M67.8,78.4c0.1,0.4,0.5,0.6,1,0.5
					c0.6-0.2,0.8-0.5,0.6-1.1l-0.4-1.4c-0.1-0.5-0.4-0.7-1-0.5c-0.4,0.1-0.6,0.3-0.8,0.7L67.8,78.4z"/>
				<path class="st1" d="M72.3,75.7c-0.2-0.6-0.5-0.8-1.1-0.6c-0.3,0.1-0.4,0.2-0.5,0.3c0,0-0.1,0.1-0.2,0.1c-0.1,0-0.2-0.1-0.2-0.1
					c-0.1-0.3,0.4-0.6,0.9-0.7c0.9-0.2,1.4,0.2,1.6,1.1l0.4,1.6c0,0.2,0.1,0.3,0.3,0.2c0,0,0,0,0.1,0c0.1,0,0.2,0.1,0.2,0.2
					c0,0.1-0.1,0.2-0.2,0.3c-0.2,0.1-0.5,0-0.7-0.3c-0.2,0.4-0.5,0.6-0.9,0.7c-0.7,0.2-1.2-0.2-1.4-0.8l0,0c-0.2-0.7,0.1-1.2,1-1.4
					c0.2-0.1,0.5-0.1,0.8-0.1L72.3,75.7z M71.1,77.6L71.1,77.6c0.1,0.4,0.3,0.6,0.9,0.5c0.3-0.1,0.6-0.3,0.8-0.6l-0.2-0.9
					c-0.3,0-0.6,0-0.9,0.1C71.1,76.8,71,77.2,71.1,77.6z"/>
				<path class="st1" d="M74.7,73.7c0.4-0.1,1-0.2,1,0.1c0,0.1,0,0.2-0.2,0.3c0,0-0.1,0-0.1,0c-0.2,0-0.4-0.1-0.6,0
					c-0.5,0.1-0.7,0.4-0.6,0.8c0.1,0.3,0.2,0.4,0.5,0.4c0.7,0.1,1.5,0,1.7,0.9c0.2,0.6-0.1,1.1-0.9,1.3c-0.4,0.1-1.1,0.2-1.2-0.1
					c0-0.1,0-0.2,0.2-0.3c0,0,0,0,0,0c0.2,0,0.5,0.1,0.8,0c0.4-0.1,0.7-0.4,0.6-0.8c-0.1-0.3-0.3-0.4-0.4-0.5
					c-0.6-0.1-1.5,0-1.8-0.9C73.7,74.4,74,73.9,74.7,73.7z"/>
				<path class="st1" d="M76.6,72.2c-0.2,0-0.3-0.1-0.4-0.2c0-0.2,0.1-0.3,0.2-0.4c0.2,0,0.3,0.1,0.4,0.2
					C76.9,72,76.8,72.2,76.6,72.2z M77.9,77c-0.1,0-0.3,0-0.3-0.2l-0.9-3.3c0-0.1,0-0.3,0.2-0.3c0.1,0,0.3,0,0.3,0.2l0.9,3.3
					C78.1,76.8,78,76.9,77.9,77z"/>
				<path class="st1" d="M79.4,72.5c0.4-0.1,1-0.2,1,0.1c0,0.1,0,0.2-0.2,0.3c0,0-0.1,0-0.1,0c-0.2,0-0.4-0.1-0.6,0
					c-0.5,0.1-0.7,0.4-0.6,0.8c0.1,0.3,0.2,0.4,0.5,0.4c0.7,0.1,1.5,0,1.7,0.9c0.2,0.6-0.1,1.1-0.9,1.3c-0.4,0.1-1.1,0.2-1.2-0.1
					c0-0.1,0-0.2,0.2-0.3c0,0,0,0,0,0c0.2,0,0.5,0.1,0.8,0c0.4-0.1,0.7-0.4,0.6-0.8c-0.1-0.3-0.3-0.4-0.4-0.5
					c-0.6-0.1-1.5,0-1.8-0.9C78.3,73.2,78.6,72.7,79.4,72.5z"/>
				<path class="st1" d="M82.2,71.7c0.4-0.1,1-0.2,1,0.1c0,0.1,0,0.2-0.2,0.3c0,0-0.1,0-0.1,0c-0.2,0-0.4-0.1-0.6,0
					c-0.5,0.1-0.7,0.4-0.6,0.8c0.1,0.3,0.2,0.4,0.5,0.4c0.7,0.1,1.5,0,1.7,0.9c0.2,0.6-0.1,1.1-0.9,1.3c-0.4,0.1-1.1,0.2-1.2-0.1
					c0-0.1,0-0.2,0.2-0.3c0,0,0,0,0,0c0.2,0,0.5,0.1,0.8,0c0.4-0.1,0.7-0.4,0.6-0.8c-0.1-0.3-0.3-0.4-0.4-0.5
					c-0.6-0.1-1.5,0-1.8-0.9C81.2,72.5,81.5,71.9,82.2,71.7z"/>
				<path class="st1" d="M84.3,72.6c-0.2-0.7,0-1.4,0.9-1.7c0.3-0.1,1-0.2,1.1,0.1c0,0.1,0,0.2-0.1,0.2c0,0-0.1,0-0.1,0l0,0
					c-0.2,0-0.4-0.1-0.7,0c-0.6,0.2-0.8,0.6-0.6,1.2l0.3,1.1c0.2,0.6,0.5,0.9,1.1,0.7c0.3-0.1,0.4-0.2,0.6-0.3l0,0
					c0,0,0.1,0,0.1-0.1c0.1,0,0.2,0,0.3,0.2c0.1,0.3-0.6,0.6-0.9,0.7c-0.9,0.2-1.4-0.2-1.6-1L84.3,72.6z"/>
				<path class="st1" d="M88.2,74.2c-0.1,0-0.3,0-0.3-0.2l-1.3-5c0-0.1,0-0.3,0.2-0.3c0.1,0,0.3,0,0.3,0.2l0.5,1.8
					c0.3-0.3,0.6-0.6,0.9-0.6c0.8-0.2,1.2,0.2,1.4,0.9l0.6,2.4c0,0.1,0,0.3-0.2,0.3s-0.3,0-0.3-0.2l-0.6-2.4
					c-0.1-0.5-0.4-0.7-0.9-0.6c-0.3,0.1-0.6,0.3-0.8,0.7l0.7,2.7C88.4,74.1,88.4,74.2,88.2,74.2z"/>
				<path class="st1" d="M91.1,72.1l-0.3-1.3c-0.2-0.7,0.1-1.4,1-1.6c0.9-0.2,1.5,0.2,1.7,0.9l0.3,1.3c0.2,0.7-0.1,1.4-1,1.6
					C91.9,73.3,91.3,72.8,91.1,72.1z M93.4,71.5L93,70.3c-0.1-0.5-0.5-0.8-1.1-0.6c-0.6,0.2-0.8,0.6-0.7,1.1l0.3,1.3
					c0.1,0.5,0.5,0.8,1.1,0.6C93.3,72.5,93.5,72.1,93.4,71.5z"/>
				<path class="st1" d="M94.5,71.2L94.2,70c-0.2-0.7,0.1-1.4,1-1.6c0.9-0.2,1.5,0.2,1.7,0.9l0.3,1.3c0.2,0.7-0.1,1.4-1,1.6
					C95.3,72.4,94.7,71.9,94.5,71.2z M96.7,70.6l-0.3-1.3c-0.1-0.5-0.5-0.8-1.1-0.6c-0.6,0.2-0.8,0.6-0.7,1.1l0.3,1.3
					c0.1,0.5,0.5,0.8,1.1,0.6C96.7,71.6,96.9,71.2,96.7,70.6z"/>
				<path class="st1" d="M97.1,66.4c0-0.1,0-0.3,0.2-0.3s0.3,0,0.3,0.2l1.2,4.4c0,0.2,0.1,0.3,0.2,0.4c0,0,0,0.1,0.1,0.1
					c0,0.1,0,0.2-0.2,0.3c-0.2,0-0.4,0-0.6-0.6L97.1,66.4z"/>
				<path class="st1" d="M102.7,65.8c0,1.3,0.1,3,0.1,4.3c0,0.1-0.1,0.3-0.3,0.4c-0.2,0-0.3-0.1-0.4-0.2l-2.4-4.4l0,0
					c0-0.1,0.1-0.2,0.2-0.3c0.1,0,0.2,0,0.3,0.1l2.1,4l-0.1-4.3c0-0.3,0-0.4,0.2-0.5c0.2-0.1,0.3,0.1,0.4,0.3l2,3.8l-0.1-4.5
					c0-0.1,0.1-0.2,0.2-0.2c0.1,0,0.3,0,0.4,0.1c0,0,0,0,0,0.1l0,0l0.1,5c0,0.2-0.1,0.3-0.3,0.4c-0.2,0-0.3-0.1-0.4-0.2L102.7,65.8z
					"/>
				<path class="st1" d="M108.1,66.3c-0.2-0.6-0.5-0.8-1.1-0.6c-0.3,0.1-0.4,0.2-0.5,0.3c0,0-0.1,0.1-0.2,0.1
					c-0.1,0-0.2-0.1-0.2-0.1c-0.1-0.3,0.4-0.6,0.9-0.7c0.9-0.2,1.4,0.2,1.6,1.1l0.4,1.6c0,0.2,0.1,0.3,0.3,0.2c0,0,0,0,0.1,0
					c0.1,0,0.2,0.1,0.2,0.2c0,0.1-0.1,0.2-0.2,0.3c-0.2,0.1-0.5,0-0.7-0.3c-0.2,0.4-0.5,0.6-0.9,0.7c-0.7,0.2-1.2-0.2-1.4-0.8l0,0
					c-0.2-0.7,0.1-1.2,1-1.4c0.2-0.1,0.5-0.1,0.8-0.1L108.1,66.3z M106.9,68.2L106.9,68.2c0.1,0.4,0.3,0.6,0.9,0.5
					c0.3-0.1,0.6-0.3,0.8-0.6l-0.2-0.9c-0.3,0-0.6,0-0.9,0.1C106.9,67.5,106.8,67.8,106.9,68.2z"/>
				<path class="st1" d="M110.9,68c0,0.1,0,0.3-0.2,0.3c-0.1,0-0.3,0-0.3-0.2l-0.7-2.5c-0.1-0.3-0.1-0.4-0.3-0.5
					c0,0-0.1-0.1-0.1-0.1c0-0.1,0-0.2,0.2-0.3c0.1,0,0.2,0,0.3,0.2c0.3-0.3,0.7-0.5,1-0.6c0.3-0.1,0.4,0,0.4,0.1
					c0,0.1,0,0.3-0.2,0.3c-0.3,0.1-0.6,0.2-0.9,0.6l0,0c0,0,0,0,0.1,0.2L110.9,68z"/>
				<path class="st1" d="M114.7,66.7C114.7,66.6,114.7,66.6,114.7,66.7c0.2-0.1,0.3,0,0.3,0.1c0.1,0.3-0.7,0.6-1,0.7
					c-0.8,0.2-1.4-0.2-1.6-0.9l-0.4-1.4c-0.2-0.7,0.1-1.3,1-1.6c0.8-0.2,1.3,0.1,1.5,0.9c0.2,0.7-0.1,1.1-0.9,1.4
					c-0.2,0.1-0.5,0.1-0.8,0.1l0.1,0.5c0.1,0.4,0.5,0.7,1.1,0.5C114.3,67,114.4,66.8,114.7,66.7z M113.1,64.1
					c-0.5,0.1-0.8,0.5-0.6,1l0.2,0.6c0.3,0,0.7-0.1,0.9-0.2c0.6-0.2,0.6-0.5,0.5-0.9C113.9,64.1,113.6,64,113.1,64.1z"/>
				<path class="st1" d="M117.3,62.9c0.1-0.4,0.3-0.6,0.4-0.6c0.1,0,0.2,0,0.3,0.2c0,0.1,0,0.1,0,0.1l0,0.1
					c-0.2,0.3-0.3,0.4-0.2,0.8l0.1,0.5c0.2,0.7-0.1,1.4-1,1.6c-0.2,0.1-0.4,0.1-0.6,0c-0.1,0.2,0,0.3,0,0.5c0.1,0.3,0.4,0.3,0.6,0.3
					l0.3-0.1c0.8-0.2,1.5-0.1,1.7,0.6c0.2,0.7-0.3,1.3-1.2,1.5c-0.8,0.2-1.5,0-1.7-0.7c-0.1-0.3,0-0.7,0.2-1
					c-0.2-0.1-0.4-0.3-0.4-0.5c0-0.2,0-0.4,0.2-0.7c-0.4-0.2-0.6-0.5-0.7-0.9c-0.2-0.8,0.1-1.4,0.9-1.7
					C116.5,62.8,116.9,62.8,117.3,62.9z M116.6,66.7c-0.2,0.2-0.2,0.4-0.1,0.7c0.1,0.5,0.5,0.7,1.1,0.5c0.6-0.2,0.9-0.5,0.8-1
					c-0.1-0.4-0.5-0.5-1.1-0.3l-0.3,0.1C116.8,66.7,116.7,66.7,116.6,66.7z M117.2,63.3c-0.3-0.1-0.6-0.1-0.9,0
					c-0.6,0.2-0.8,0.6-0.6,1.2c0.1,0.5,0.5,0.8,1.1,0.7c0.6-0.2,0.7-0.5,0.6-1.1l-0.1-0.5C117.3,63.5,117.3,63.4,117.2,63.3z"/>
				<path class="st1" d="M121.3,64.9C121.4,64.9,121.4,64.9,121.3,64.9c0.2-0.1,0.3,0,0.3,0.1c0.1,0.3-0.7,0.6-1,0.7
					c-0.8,0.2-1.4-0.2-1.6-0.9l-0.4-1.4c-0.2-0.7,0.1-1.3,1-1.6c0.8-0.2,1.3,0.1,1.5,0.9c0.2,0.7-0.1,1.1-0.9,1.4
					c-0.2,0.1-0.5,0.1-0.8,0.1l0.1,0.5c0.1,0.4,0.5,0.7,1.1,0.5C120.9,65.2,121.1,65.1,121.3,64.9z M119.8,62.4
					c-0.5,0.1-0.8,0.5-0.6,1l0.2,0.6c0.3,0,0.7-0.1,0.9-0.2c0.6-0.2,0.6-0.5,0.5-0.9C120.6,62.4,120.2,62.2,119.8,62.4z"/>
				<path class="st1" d="M123.2,61c0.4-0.1,0.7,0,1,0.2c0.3-0.3,0.6-0.6,1-0.7c0.8-0.2,1.3,0.2,1.5,0.9l0.6,2.3c0,0.1,0,0.2-0.2,0.3
					c-0.2,0-0.3,0-0.3-0.2l-0.6-2.3c-0.1-0.5-0.4-0.8-0.9-0.6c-0.3,0.1-0.6,0.4-0.8,0.7c0.1,0.1,0.1,0.2,0.1,0.4l0.6,2.3
					c0,0.1,0,0.2-0.2,0.3c-0.2,0-0.3,0-0.3-0.2l-0.6-2.2c-0.1-0.6-0.3-0.9-0.9-0.8c-0.3,0.1-0.7,0.3-0.8,0.6c0,0.1,0.1,0.2,0.1,0.3
					l0.7,2.5c0,0.1,0,0.2-0.2,0.3c-0.2,0-0.3,0-0.3-0.2l-0.7-2.5c-0.1-0.3-0.1-0.4-0.3-0.5c0,0-0.1-0.1-0.1-0.1c0-0.1,0-0.2,0.2-0.3
					c0.1,0,0.2,0,0.3,0.2C122.4,61.3,122.8,61.1,123.2,61z"/>
			</g>
		</g>
	</g>
	<g>
		<circle class="st2" cx="60.6" cy="50.1" r="2.8"/>
		<circle class="st3" cx="72.5" cy="28.6" r="9.1"/>
		<circle class="st4" cx="84.8" cy="43.9" r="6.6"/>
		<circle class="st1" cx="69.8" cy="45.2" r="4.5"/>
		<path class="st5" d="M84.9,28.1c1.6,5.9,7.6,9.5,13.5,7.9s9.5-7.6,7.9-13.5c-1.6-5.9-7.6-9.5-13.5-7.9S83.4,22.1,84.9,28.1z
			 M89.7,27c-0.9-3.3,1.1-6.7,4.4-7.6c3.3-0.9,6.7,1.1,7.6,4.4c0.9,3.3-1.1,6.7-4.4,7.6S90.6,30.3,89.7,27z"/>
	</g>
</g>
<g>
	<g>
		<g>
			<g>
				<path class="st0" d="M257.2,50.9c0.1-0.3,0.2-0.5,0.2-0.8c0-0.2,0-0.4,0-0.6c-0.1-0.2-0.2-0.4-0.3-0.5c-0.2-0.1-0.4-0.3-0.7-0.4
					c-0.2-0.1-0.4-0.1-0.6-0.1c-0.2,0-0.4,0-0.6,0.1l-0.7,2l0.8,0.3c0.1,0.1,0.3,0.2,0.3,0.3c0.1,0.1,0.1,0.3,0,0.4
					c-0.1,0.2-0.2,0.3-0.3,0.3c-0.1,0.1-0.3,0.1-0.4,0l-1.2-0.4c-0.2-0.1-0.4-0.2-0.5-0.3s-0.1-0.3-0.1-0.6l0.9-2.5
					c0.1-0.2,0.2-0.4,0.4-0.5c0.2-0.1,0.4-0.2,0.7-0.2c0.3,0,0.5,0,0.8,0c0.3,0,0.6,0.1,0.8,0.2c0.5,0.2,0.8,0.4,1.1,0.6
					c0.3,0.2,0.5,0.5,0.6,0.9c0.1,0.3,0.2,0.7,0.2,1.1c0,0.4-0.1,0.8-0.2,1.2l-0.7,1.9c-0.1,0.4-0.3,0.8-0.6,1.1
					c-0.2,0.3-0.5,0.6-0.8,0.7c-0.3,0.2-0.6,0.3-1,0.3c-0.4,0-0.8-0.1-1.2-0.2c-0.3-0.1-0.5-0.2-0.7-0.4c-0.2-0.1-0.4-0.3-0.6-0.5
					c-0.2-0.2-0.3-0.3-0.3-0.5c-0.1-0.2-0.1-0.3,0-0.5c0.1-0.1,0.1-0.3,0.3-0.3c0.1-0.1,0.3-0.1,0.5,0c0.1,0,0.2,0.1,0.2,0.1
					c0,0.1,0.1,0.1,0.2,0.2l0,0.1c0.1,0.2,0.2,0.3,0.4,0.4c0.1,0.1,0.3,0.2,0.5,0.3c0.3,0.1,0.5,0.1,0.7,0.1c0.2,0,0.4-0.1,0.6-0.2
					c0.2-0.1,0.3-0.3,0.4-0.5c0.1-0.2,0.2-0.4,0.3-0.7L257.2,50.9z"/>
				<path class="st0" d="M249.2,49.1c-0.2,0.6,0,1.1,0.7,1.3c0.1,0.1,0.3,0.1,0.4,0.1c0.1,0,0.2,0,0.3,0l0.2,0c0.1,0,0.2,0,0.3,0
					c0.2,0.1,0.3,0.1,0.3,0.3c0,0.1,0,0.2,0,0.4c-0.1,0.1-0.1,0.3-0.3,0.3c-0.1,0.1-0.3,0.1-0.5,0.1c-0.2,0-0.4,0-0.6,0
					c-0.2,0-0.4-0.1-0.6-0.2c-0.7-0.3-1.2-0.6-1.4-1.1c-0.2-0.5-0.2-1.1,0.1-1.8l0.8-2.2c0-0.1,0.1-0.2,0-0.3c0-0.1-0.1-0.1-0.2-0.2
					c-0.2-0.1-0.3-0.3-0.2-0.5c0.1-0.3,0.4-0.4,0.8-0.2c0.4,0.1,0.6,0.4,0.7,0.8c0.5-0.2,1.1-0.2,1.7,0c0.6,0.2,1,0.5,1.2,0.9
					c0.2,0.4,0.2,0.9,0,1.4l0,0c-0.4,1.1-1.3,1.4-2.6,0.9c-0.3-0.1-0.6-0.3-0.9-0.5L249.2,49.1z M250.5,48.2
					c0.2,0.1,0.4,0.1,0.5,0.1c0.1,0,0.2,0,0.3-0.1c0.1,0,0.2-0.1,0.2-0.2c0.1-0.1,0.1-0.2,0.1-0.3l0,0c0.1-0.2,0.1-0.4,0-0.6
					c-0.1-0.2-0.3-0.3-0.6-0.4c-0.2-0.1-0.4-0.1-0.6-0.1c-0.2,0-0.4,0-0.6,0.1l-0.3,1c0.1,0.1,0.3,0.2,0.5,0.3
					C250.3,48,250.4,48.1,250.5,48.2z"/>
				<path class="st0" d="M242.5,47.7c0.5-0.6,0.9-1.2,1.4-1.8c0.5-0.6,0.9-1.2,1.4-1.8c0.1-0.2,0.3-0.3,0.4-0.4c0.1,0,0.3,0,0.5,0
					c0.2,0.1,0.3,0.2,0.4,0.3c0.1,0.1,0.1,0.3,0.1,0.5c0,0.8,0,1.5,0,2.3c0,0.8,0,1.5,0,2.3l0,0.5c0,0,0,0,0,0c0,0,0,0,0,0
					c-0.1,0.1-0.2,0.2-0.3,0.3c-0.2,0.1-0.3,0.1-0.5,0c-0.1,0-0.2-0.1-0.3-0.2c-0.1-0.1-0.1-0.2-0.1-0.4c0-0.4,0-0.7,0-1.1
					c0-0.4,0-0.7,0-1.1c0-0.4,0-0.7,0.1-1.1c0-0.3,0.1-0.7,0.1-1c-0.2,0.3-0.4,0.6-0.6,0.9c-0.2,0.3-0.4,0.6-0.6,0.9
					c-0.2,0.3-0.4,0.6-0.6,0.9c-0.2,0.3-0.4,0.6-0.6,0.9c-0.1,0.1-0.2,0.2-0.3,0.2c-0.1,0-0.3,0-0.4,0c-0.2-0.1-0.3-0.1-0.3-0.3
					c-0.1-0.1-0.1-0.3,0-0.4l0-0.1L242.5,47.7z"/>
				<path class="st0" d="M240.3,44.3c0.2,0.1,0.3,0.1,0.5,0.2c0.2,0.1,0.3,0.1,0.5,0.2l0.2-0.5c0.1-0.2,0.1-0.5,0-0.7
					c-0.1-0.2-0.3-0.4-0.7-0.5c-0.2-0.1-0.4-0.1-0.6-0.1c-0.2,0-0.4,0-0.6,0c0,0-0.1,0-0.1,0c0,0-0.1,0-0.2,0
					c-0.2-0.1-0.3-0.2-0.4-0.3c0-0.1,0-0.3,0-0.4c0.1-0.2,0.2-0.3,0.4-0.3c0.2-0.1,0.4-0.1,0.6-0.1c0.2,0,0.4,0,0.7,0.1
					c0.2,0.1,0.4,0.1,0.6,0.2c0.3,0.1,0.6,0.3,0.8,0.5c0.2,0.2,0.4,0.4,0.5,0.6c0.1,0.2,0.2,0.5,0.2,0.7c0,0.3,0,0.5-0.1,0.8
					l-0.7,1.9c-0.1,0.3-0.2,0.5-0.4,0.7c-0.2,0.2-0.4,0.3-0.6,0.4c-0.2,0.1-0.5,0.2-0.8,0.2c-0.3,0-0.6-0.1-1-0.2
					c-0.7-0.2-1.1-0.6-1.3-1c-0.2-0.4-0.2-0.9,0-1.5c0.2-0.5,0.5-0.9,0.9-1C239.1,44,239.6,44,240.3,44.3z M238.9,45.7
					c-0.1,0.3-0.1,0.5,0,0.7c0.1,0.2,0.3,0.3,0.6,0.4c0.3,0.1,0.6,0.1,0.8,0c0.2-0.1,0.4-0.3,0.5-0.5l0.2-0.6
					c-0.2-0.1-0.4-0.2-0.5-0.2c-0.2-0.1-0.3-0.1-0.4-0.2c-0.3-0.1-0.6-0.1-0.7,0C239.1,45.3,239,45.4,238.9,45.7z"/>
				<path class="st0" d="M234,44.7c0.1,0,0.2,0.1,0.3,0.1c0.1,0,0.2,0.1,0.3,0.1c0.1,0,0.2,0,0.3,0c0.1,0,0.2,0,0.4,0
					c0-0.1,0-0.1,0-0.1c0,0,0-0.1,0-0.1l1.2-3.5c0.1-0.2,0.2-0.3,0.3-0.3c0.1-0.1,0.3-0.1,0.5,0c0.2,0.1,0.3,0.2,0.4,0.3
					c0.1,0.1,0.1,0.3,0,0.5l-1.2,3.5c-0.1,0.2-0.1,0.3-0.1,0.4c0,0.1,0,0.2,0,0.3c0,0.1,0,0.1,0,0.2c0,0,0,0.1,0,0.2
					c-0.1,0.2-0.2,0.3-0.3,0.3c-0.1,0.1-0.3,0.1-0.4,0c-0.1,0-0.2-0.1-0.2-0.2c-0.1-0.1-0.1-0.2-0.1-0.3c-0.3,0.1-0.6,0.1-0.9,0.1
					c-0.3,0-0.5,0-0.7-0.1c-0.3-0.1-0.4-0.2-0.5-0.4c-0.1-0.1-0.1-0.3,0-0.4c0.1-0.2,0.2-0.3,0.3-0.4
					C233.7,44.6,233.8,44.6,234,44.7z"/>
				<path class="st0" d="M231.6,42.8l-2.2,1.1c-0.1,0.1-0.2,0.1-0.3,0.1c-0.1,0-0.2,0-0.3,0c-0.2-0.1-0.3-0.2-0.4-0.3
					c-0.1-0.1-0.1-0.3,0-0.4c0.1-0.1,0.1-0.3,0.3-0.3l2-1c-0.1-0.5-0.3-1-0.4-1.5c-0.1-0.5-0.3-1-0.4-1.5c0-0.1,0-0.1,0-0.2
					c0-0.1,0-0.1,0-0.2c0.1-0.1,0.2-0.2,0.3-0.3c0.1,0,0.3,0,0.4,0c0.1,0,0.2,0.1,0.2,0.1c0,0,0.1,0.1,0.1,0.1
					c0,0.1,0.1,0.1,0.1,0.2c0,0.1,0,0.2,0.1,0.3l0.7,2.6c0.1,0,0.1,0,0.2-0.1c0.1,0,0.1-0.1,0.2-0.1l0.5-1.5
					c0.1-0.2,0.2-0.4,0.3-0.5c0.1-0.1,0.3-0.2,0.5-0.1c0.2,0.1,0.3,0.2,0.4,0.3c0.1,0.1,0.1,0.3,0,0.5l-2.2,6.2
					c0,0.1-0.1,0.2-0.1,0.3c0,0.1-0.1,0.2-0.2,0.2c-0.1,0.1-0.2,0.1-0.2,0.1c-0.1,0-0.2,0-0.3,0c-0.2-0.1-0.3-0.2-0.4-0.3
					c-0.1-0.1-0.1-0.3,0-0.4L231.6,42.8z"/>
				<path class="st0" d="M226.4,39.4c0.2,0.1,0.3,0.1,0.5,0.2c0.2,0.1,0.3,0.1,0.5,0.2l0.2-0.5c0.1-0.2,0.1-0.5,0-0.7
					c-0.1-0.2-0.3-0.4-0.7-0.5c-0.2-0.1-0.4-0.1-0.6-0.1c-0.2,0-0.4,0-0.6,0c0,0-0.1,0-0.1,0c0,0-0.1,0-0.2,0
					c-0.2-0.1-0.3-0.2-0.4-0.3c0-0.1,0-0.3,0-0.4c0.1-0.2,0.2-0.3,0.4-0.3c0.2-0.1,0.4-0.1,0.6-0.1c0.2,0,0.4,0,0.7,0.1
					c0.2,0.1,0.4,0.1,0.6,0.2c0.3,0.1,0.6,0.3,0.8,0.5c0.2,0.2,0.4,0.4,0.5,0.6c0.1,0.2,0.2,0.5,0.2,0.7c0,0.3,0,0.5-0.1,0.8
					l-0.7,1.9c-0.1,0.3-0.2,0.5-0.4,0.7c-0.2,0.2-0.4,0.3-0.6,0.4c-0.2,0.1-0.5,0.2-0.8,0.2c-0.3,0-0.6-0.1-1-0.2
					c-0.7-0.2-1.1-0.6-1.3-1c-0.2-0.4-0.2-0.9,0-1.5c0.2-0.5,0.5-0.9,0.9-1C225.2,39.1,225.7,39.1,226.4,39.4z M225,40.8
					c-0.1,0.3-0.1,0.5,0,0.7c0.1,0.2,0.3,0.3,0.6,0.4c0.3,0.1,0.6,0.1,0.8,0c0.2-0.1,0.4-0.3,0.5-0.5l0.2-0.6
					c-0.2-0.1-0.4-0.2-0.5-0.2c-0.2-0.1-0.3-0.1-0.4-0.2c-0.3-0.1-0.6-0.1-0.7,0C225.2,40.4,225.1,40.5,225,40.8z"/>
				<g>
					<g>
						<path class="st1" d="M222.4,35.6c0.1-0.1,0.2-0.2,0.3-0.2c0.1,0,0.2,0,0.4,0.1c0.1,0,0.1,0.1,0.2,0.1c0,0.1,0.1,0.1,0.1,0.2
							c0,0.1,0,0.1,0,0.2c0,0.1,0,0.1-0.1,0.2l-3.8,4.5c-0.1,0.1-0.2,0.2-0.3,0.2c-0.1,0-0.2,0-0.4-0.1c-0.1-0.1-0.2-0.2-0.2-0.3
							c0-0.1,0-0.3,0-0.4c0,0,0-0.1,0.1-0.1L222.4,35.6z"/>
					</g>
				</g>
				<path class="st0" d="M216.8,38.8c-0.1,0.4-0.3,0.8-0.6,1.1c-0.2,0.3-0.5,0.6-0.8,0.7c-0.3,0.2-0.6,0.3-1,0.3
					c-0.4,0-0.8-0.1-1.2-0.2c-0.3-0.1-0.5-0.2-0.7-0.4c-0.2-0.1-0.4-0.3-0.6-0.5c-0.2-0.2-0.3-0.3-0.3-0.5c-0.1-0.2-0.1-0.3,0-0.5
					c0.1-0.1,0.1-0.3,0.3-0.3c0.1-0.1,0.3-0.1,0.5,0c0.1,0,0.2,0.1,0.2,0.1c0,0.1,0.1,0.1,0.2,0.2l0,0.1c0.2,0.3,0.5,0.5,0.9,0.7
					c0.3,0.1,0.5,0.1,0.7,0.1c0.2,0,0.4-0.1,0.6-0.2c0.2-0.1,0.3-0.3,0.4-0.5c0.1-0.2,0.2-0.4,0.3-0.7l0.7-1.9
					c0.1-0.3,0.2-0.5,0.2-0.8c0-0.2,0-0.4,0-0.6c-0.1-0.2-0.2-0.4-0.3-0.5c-0.2-0.1-0.4-0.3-0.7-0.4c-0.4-0.1-0.7-0.1-1.1-0.1
					l-0.1,0c-0.1,0-0.2,0-0.2,0.1c-0.1,0-0.1,0-0.3,0c-0.2-0.1-0.3-0.2-0.3-0.3c-0.1-0.1-0.1-0.3,0-0.4c0.1-0.1,0.2-0.3,0.3-0.3
					c0.2-0.1,0.4-0.1,0.6-0.2c0.2,0,0.5,0,0.7,0c0.3,0,0.5,0.1,0.8,0.2c0.5,0.2,0.8,0.4,1.1,0.6c0.3,0.2,0.5,0.5,0.6,0.9
					c0.1,0.3,0.2,0.7,0.2,1.1c0,0.4-0.1,0.8-0.2,1.2L216.8,38.8z"/>
				<path class="st0" d="M210.7,31.4c0.4,0.1,0.7,0.3,0.9,0.5c0.2,0.2,0.4,0.4,0.5,0.7c0.1,0.2,0.2,0.5,0.2,0.8c0,0.3,0,0.6-0.1,0.8
					l-0.6,1.7c-0.1,0.3-0.2,0.5-0.4,0.7c-0.2,0.2-0.4,0.4-0.6,0.5c-0.2,0.1-0.5,0.2-0.8,0.2c-0.3,0-0.6-0.1-1-0.2
					c-0.4-0.1-0.7-0.3-0.9-0.5c-0.2-0.2-0.4-0.4-0.5-0.7c-0.1-0.2-0.2-0.5-0.2-0.8c0-0.3,0-0.6,0.1-0.8l0.6-1.7
					c0.1-0.3,0.2-0.5,0.4-0.7c0.2-0.2,0.4-0.4,0.6-0.5c0.2-0.1,0.5-0.2,0.8-0.2C210,31.2,210.4,31.2,210.7,31.4z M210.3,32.4
					c-0.3-0.1-0.6-0.1-0.9,0c-0.2,0.1-0.4,0.3-0.5,0.6l-0.6,1.7c-0.1,0.3-0.1,0.5,0,0.8c0.1,0.2,0.3,0.4,0.7,0.5
					c0.3,0.1,0.6,0.1,0.9,0c0.2-0.1,0.4-0.3,0.5-0.6l0.6-1.7c0.1-0.3,0.1-0.6,0-0.8C210.9,32.7,210.7,32.5,210.3,32.4z"/>
				<path class="st0" d="M206.4,29.9c0.1,0,0.2,0.1,0.3,0.1c0.1,0.1,0.2,0.1,0.2,0.3c0.1,0.1,0.1,0.3,0.1,0.4c0,0.2,0,0.4-0.1,0.7
					l-2,5.8c-0.1,0.1-0.2,0.3-0.3,0.3c-0.2,0.1-0.3,0.1-0.5,0c-0.2-0.1-0.3-0.2-0.4-0.3c-0.1-0.1-0.1-0.3,0-0.4l2-5.7
					c0-0.1,0.1-0.2,0.1-0.3c0-0.1,0-0.2-0.1-0.3c0,0,0-0.1-0.1-0.1c0-0.1,0-0.1,0-0.2c0.1-0.2,0.2-0.3,0.3-0.3
					S206.2,29.8,206.4,29.9z"/>
				<path class="st0" d="M203.7,28.9c0.1,0,0.2,0.1,0.3,0.1c0.1,0.1,0.2,0.1,0.2,0.3c0.1,0.1,0.1,0.3,0.1,0.4c0,0.2,0,0.4-0.1,0.7
					l-2,5.8c-0.1,0.1-0.2,0.3-0.3,0.3c-0.2,0.1-0.3,0.1-0.5,0c-0.2-0.1-0.3-0.2-0.4-0.3c-0.1-0.1-0.1-0.3,0-0.4l2-5.7
					c0-0.1,0.1-0.2,0.1-0.3c0-0.1,0-0.2-0.1-0.3c0,0,0-0.1-0.1-0.1c0-0.1,0-0.1,0-0.2c0.1-0.2,0.2-0.3,0.3-0.3
					C203.4,28.8,203.5,28.8,203.7,28.9z"/>
				<path class="st0" d="M199.2,29.8c0.2,0.1,0.3,0.1,0.5,0.2c0.2,0.1,0.3,0.1,0.5,0.2l0.2-0.5c0.1-0.2,0.1-0.5,0-0.7
					c-0.1-0.2-0.3-0.4-0.7-0.5c-0.2-0.1-0.4-0.1-0.6-0.1c-0.2,0-0.4,0-0.6,0c0,0-0.1,0-0.1,0c0,0-0.1,0-0.2,0
					c-0.2-0.1-0.3-0.2-0.4-0.3c0-0.1,0-0.3,0-0.4c0.1-0.2,0.2-0.3,0.4-0.3c0.2-0.1,0.4-0.1,0.6-0.1c0.2,0,0.4,0,0.7,0.1
					c0.2,0.1,0.4,0.1,0.6,0.2c0.3,0.1,0.6,0.3,0.8,0.5c0.2,0.2,0.4,0.4,0.5,0.6c0.1,0.2,0.2,0.5,0.2,0.7c0,0.3,0,0.5-0.1,0.8
					l-0.7,1.9c-0.1,0.3-0.2,0.5-0.4,0.7c-0.2,0.2-0.4,0.3-0.6,0.4c-0.2,0.1-0.5,0.2-0.8,0.2c-0.3,0-0.6-0.1-1-0.2
					c-0.7-0.2-1.1-0.6-1.3-1c-0.2-0.4-0.2-0.9,0-1.5c0.2-0.5,0.5-0.9,0.9-1C197.9,29.5,198.5,29.6,199.2,29.8z M197.8,31.2
					c-0.1,0.3-0.1,0.5,0,0.7c0.1,0.2,0.3,0.3,0.6,0.4c0.3,0.1,0.6,0.1,0.8,0c0.2-0.1,0.4-0.3,0.5-0.5l0.2-0.6
					c-0.2-0.1-0.4-0.2-0.5-0.2c-0.2-0.1-0.3-0.1-0.4-0.2c-0.3-0.1-0.6-0.1-0.7,0C198,30.8,197.9,31,197.8,31.2z"/>
				<path class="st0" d="M193,31.5c-0.3-0.1-0.5-0.2-0.7-0.4c-0.2-0.1-0.4-0.3-0.6-0.5c-0.2,0.2-0.4,0.3-0.6,0.3c-0.2,0-0.4,0-0.5,0
					c-0.1,0-0.2-0.1-0.3-0.3c-0.1-0.1-0.1-0.3,0-0.4c0-0.1,0.1-0.1,0.1-0.2c0,0,0.1-0.1,0.1-0.1l0.2-0.1c0.1,0,0.2-0.1,0.2-0.1
					c0.1,0,0.1-0.1,0.2-0.1c0,0,0.1-0.1,0.1-0.1c0-0.1,0.1-0.1,0.1-0.2l0.2-0.6c0.1-0.3,0.2-0.5,0.4-0.7c0.2-0.2,0.4-0.4,0.6-0.5
					c0.2-0.1,0.5-0.2,0.8-0.2c0.3,0,0.6,0.1,1,0.2c0.1,0,0.2,0.1,0.4,0.2c0.1,0.1,0.2,0.1,0.3,0.2c0.1-0.1,0.1-0.1,0.1-0.2
					c0-0.1,0.1-0.1,0.1-0.2c0.1-0.2,0-0.3,0-0.4c-0.1-0.1-0.2-0.2-0.3-0.2l-0.5-0.2c-0.3-0.1-0.6-0.3-0.9-0.4
					c-0.3-0.2-0.5-0.4-0.6-0.6c-0.2-0.2-0.3-0.4-0.3-0.7c0-0.2,0-0.5,0.1-0.8c0.1-0.3,0.2-0.5,0.4-0.7c0.2-0.2,0.4-0.3,0.7-0.4
					c0.3-0.1,0.6-0.1,0.9-0.1c0.3,0,0.7,0.1,1,0.2c0.3,0.1,0.6,0.3,0.9,0.4c0.2,0.2,0.4,0.4,0.6,0.6c0.1,0.2,0.2,0.4,0.3,0.7
					c0,0.3,0,0.5-0.1,0.8c-0.1,0.2-0.2,0.4-0.4,0.6c-0.2,0.2-0.4,0.3-0.7,0.4c0.1,0.2,0.1,0.4,0.1,0.5c0,0.2,0,0.3-0.1,0.4
					c0,0.1-0.1,0.2-0.2,0.4c-0.1,0.1-0.2,0.2-0.4,0.3c0.3,0.5,0.3,1.1,0.1,1.8c-0.1,0.3-0.2,0.5-0.4,0.8c-0.2,0.2-0.4,0.4-0.6,0.5
					c-0.2,0.1-0.5,0.2-0.8,0.2C193.7,31.7,193.4,31.6,193,31.5z M195.1,25.8c0.1,0,0.2,0.1,0.3,0.1c0.1,0,0.2,0.1,0.3,0.1
					c0.3-0.1,0.4-0.3,0.5-0.6c0.1-0.3,0.1-0.5-0.1-0.7c-0.1-0.2-0.4-0.4-0.8-0.5c-0.3-0.1-0.7-0.2-0.9-0.1c-0.3,0.1-0.5,0.2-0.5,0.5
					c-0.2,0.4,0.2,0.8,0.9,1.1L195.1,25.8z M192.6,29.4c0,0.1-0.1,0.2-0.1,0.3c0,0.1-0.1,0.2-0.1,0.3c0.1,0.1,0.3,0.3,0.4,0.4
					c0.1,0.1,0.3,0.2,0.4,0.2c0.3,0.1,0.6,0.1,0.9,0c0.2-0.1,0.4-0.4,0.5-0.7c0.1-0.3,0.1-0.6,0-0.8c-0.1-0.2-0.3-0.4-0.7-0.6
					c-0.3-0.1-0.6-0.1-0.8,0c-0.2,0.1-0.4,0.3-0.5,0.6L192.6,29.4z"/>
				<path class="st0" d="M188.6,26.1c0.2,0.1,0.3,0.1,0.5,0.2c0.2,0.1,0.3,0.1,0.5,0.2l0.2-0.5c0.1-0.2,0.1-0.5,0-0.7
					c-0.1-0.2-0.3-0.4-0.7-0.5c-0.2-0.1-0.4-0.1-0.6-0.1c-0.2,0-0.4,0-0.6,0c0,0-0.1,0-0.1,0c0,0-0.1,0-0.2,0
					c-0.2-0.1-0.3-0.2-0.4-0.3c0-0.1,0-0.3,0-0.4c0.1-0.2,0.2-0.3,0.4-0.3c0.2-0.1,0.4-0.1,0.6-0.1c0.2,0,0.4,0,0.7,0.1
					c0.2,0.1,0.4,0.1,0.6,0.2c0.3,0.1,0.6,0.3,0.8,0.5c0.2,0.2,0.4,0.4,0.5,0.6c0.1,0.2,0.2,0.5,0.2,0.7c0,0.3,0,0.5-0.1,0.8
					l-0.7,1.9c-0.1,0.3-0.2,0.5-0.4,0.7c-0.2,0.2-0.4,0.3-0.6,0.4c-0.2,0.1-0.5,0.2-0.8,0.2c-0.3,0-0.6-0.1-1-0.2
					c-0.7-0.2-1.1-0.6-1.3-1c-0.2-0.4-0.2-0.9,0-1.5c0.2-0.5,0.5-0.9,0.9-1C187.4,25.8,187.9,25.9,188.6,26.1z M187.2,27.5
					c-0.1,0.3-0.1,0.5,0,0.7c0.1,0.2,0.3,0.3,0.6,0.4c0.3,0.1,0.6,0.1,0.8,0c0.2-0.1,0.4-0.3,0.5-0.5l0.2-0.6
					c-0.2-0.1-0.4-0.2-0.5-0.2c-0.2-0.1-0.3-0.1-0.4-0.2c-0.3-0.1-0.6-0.1-0.7,0C187.4,27.1,187.3,27.3,187.2,27.5z"/>
			</g>
		</g>
		<g>
			<g>
				<path class="st1" d="M260.6,39.6c0.1-0.2,0.3-0.2,0.4-0.2c0.2,0.1,0.2,0.2,0.2,0.4l-0.1,3.5c0,0.2-0.2,0.2-0.3,0.2
					c-0.1,0-0.2-0.1-0.1-0.2l0.1-3.3l-1.9,2.6c0,0.1-0.1,0.1-0.3,0.1c-0.1,0-0.2-0.2-0.1-0.3c0,0,0,0,0-0.1L260.6,39.6z"/>
				<path class="st1" d="M258.4,38.8c0-0.1,0.2-0.2,0.3-0.1c0.1,0,0.2,0.2,0.2,0.3l-0.9,2.5c-0.1,0.2-0.1,0.4-0.1,0.6
					c0,0,0,0.1,0,0.1c0,0.1-0.2,0.2-0.3,0.1c-0.1,0-0.2-0.2-0.2-0.3c-0.4,0.1-0.9,0.1-1.1,0c-0.2-0.1-0.3-0.2-0.2-0.3
					c0-0.1,0.2-0.2,0.3-0.2c0.3,0.1,0.6,0.2,1.1,0.1l0,0c0,0,0,0,0.1-0.2L258.4,38.8z"/>
				<path class="st1" d="M254.6,42.4c0.2,0.1,0.3,0.2,0.2,0.4c-0.1,0.2-0.2,0.3-0.4,0.2c-0.2-0.1-0.2-0.2-0.2-0.4
					C254.3,42.4,254.5,42.3,254.6,42.4z M256.3,37.8c0.1,0,0.2,0.2,0.2,0.3l-1.1,3.2c0,0.1-0.2,0.2-0.3,0.2c-0.1,0-0.2-0.2-0.1-0.3
					l1.1-3.2C256,37.8,256.1,37.7,256.3,37.8z"/>
				<path class="st1" d="M254.3,37c0.3-0.7,0.8-1.1,1.4-1c0.1,0,0.1,0,0.1,0c0.1,0,0.2,0.1,0.1,0.2c0,0.2-0.2,0.2-0.3,0.2
					c-0.5-0.1-0.8,0.1-1,0.7l-1.3,3.6c0,0.1-0.2,0.2-0.3,0.2c-0.1,0-0.2-0.2-0.1-0.3L254.3,37z M252.9,41.8c0.2,0.1,0.3,0.2,0.2,0.4
					c-0.1,0.2-0.2,0.3-0.4,0.2c-0.2-0.1-0.2-0.2-0.2-0.4C252.6,41.8,252.7,41.7,252.9,41.8z"/>
				<path class="st1" d="M251,36.6C251,36.6,250.9,36.6,251,36.6c-0.2,0-0.2-0.2-0.2-0.3c0.1-0.3,0.9-0.2,1.3,0
					c0.8,0.3,1.1,0.9,0.8,1.6l-0.5,1.4c-0.2,0.7-0.9,1-1.7,0.7c-0.8-0.3-1-0.9-0.8-1.5c0.2-0.6,0.7-0.9,1.5-0.6
					c0.2,0.1,0.5,0.2,0.8,0.4l0.2-0.5c0.2-0.4,0-0.8-0.6-1C251.5,36.6,251.3,36.6,251,36.6z M250.9,39.6c0.5,0.2,0.9,0,1.1-0.4
					l0.2-0.6c-0.3-0.2-0.7-0.3-0.8-0.3c-0.6-0.2-0.8,0.1-0.9,0.4C250.2,39.1,250.4,39.4,250.9,39.6z"/>
				<path class="st1" d="M246.9,40.1c0,0.1-0.2,0.2-0.3,0.1c-0.1-0.1-0.2-0.2-0.1-0.3l0.6-1.7c-0.4,0.1-0.8,0.1-1.2,0
					c-0.8-0.3-0.9-0.9-0.7-1.5l0.5-1.4c0.2-0.7,0.9-1.1,1.7-0.8c0.8,0.3,1.1,0.9,0.9,1.5L246.9,40.1z M247.8,36
					c0.1-0.4-0.1-0.8-0.6-1c-0.6-0.2-0.9,0-1.1,0.5l-0.5,1.4c-0.2,0.4,0,0.8,0.5,1c0.4,0.1,0.7,0.1,1-0.1L247.8,36z"/>
				<path class="st1" d="M242.5,35.7c-0.2,0.6,0,0.9,0.5,1.1c0.3,0.1,0.4,0.1,0.6,0c0.1,0,0.1,0,0.2,0c0.1,0,0.1,0.2,0.1,0.2
					c-0.1,0.3-0.6,0.2-1.1,0.1c-0.9-0.3-1-0.9-0.7-1.9l0.6-1.6c0.1-0.2,0-0.3-0.1-0.3c0,0,0,0-0.1,0c-0.1,0-0.1-0.2-0.1-0.2
					c0.1-0.1,0.2-0.1,0.3-0.1c0.2,0.1,0.4,0.3,0.4,0.6c0.4-0.2,0.8-0.2,1.2-0.1c0.7,0.3,0.9,0.8,0.7,1.4l0,0
					c-0.2,0.7-0.8,0.9-1.6,0.6c-0.2-0.1-0.5-0.2-0.7-0.4L242.5,35.7z M244.6,34.9L244.6,34.9c0.1-0.4,0.1-0.7-0.5-0.9
					c-0.3-0.1-0.6-0.1-1,0l-0.3,0.9c0.3,0.2,0.5,0.3,0.7,0.4C244.2,35.5,244.4,35.2,244.6,34.9z"/>
				<path class="st1" d="M239.4,36c-0.4-0.1-0.9-0.4-0.8-0.7c0-0.1,0.2-0.2,0.3-0.1c0,0,0.1,0,0.1,0.1c0.1,0.1,0.3,0.2,0.5,0.3
					c0.5,0.2,0.8,0,0.9-0.3c0.1-0.3,0-0.4-0.2-0.7c-0.5-0.5-1.2-0.8-0.9-1.7c0.2-0.6,0.8-0.9,1.5-0.6c0.4,0.1,1,0.4,0.9,0.7
					c0,0.1-0.2,0.2-0.3,0.1c0,0,0,0,0,0c-0.2-0.2-0.4-0.3-0.7-0.4c-0.4-0.2-0.8-0.1-0.9,0.3c-0.1,0.3,0,0.5,0.1,0.6
					c0.5,0.5,1.3,0.8,1,1.7C240.7,36,240.2,36.3,239.4,36z"/>
				<path class="st1" d="M237,36.2c0.2,0.1,0.3,0.2,0.2,0.4c-0.1,0.2-0.2,0.3-0.4,0.2c-0.2-0.1-0.2-0.2-0.2-0.4
					C236.7,36.2,236.8,36.1,237,36.2z M238.6,31.6c0.1,0,0.2,0.2,0.2,0.3l-1.1,3.2c0,0.1-0.2,0.2-0.3,0.2c-0.1,0-0.2-0.2-0.1-0.3
					l1.1-3.2C238.4,31.6,238.5,31.5,238.6,31.6z"/>
				<path class="st1" d="M234.9,34.4c-0.4-0.1-0.9-0.4-0.8-0.7c0-0.1,0.2-0.2,0.3-0.1c0,0,0.1,0,0.1,0.1c0.1,0.1,0.3,0.2,0.5,0.3
					c0.5,0.2,0.8,0,0.9-0.3c0.1-0.3,0-0.4-0.2-0.7c-0.5-0.5-1.2-0.8-0.9-1.7c0.2-0.6,0.8-0.9,1.5-0.6c0.4,0.1,1,0.4,0.9,0.7
					c0,0.1-0.2,0.2-0.3,0.1c0,0,0,0,0,0c-0.2-0.2-0.4-0.3-0.7-0.4c-0.4-0.2-0.8-0.1-0.9,0.3c-0.1,0.3,0,0.5,0.1,0.6
					c0.5,0.5,1.3,0.8,1,1.7C236.2,34.4,235.6,34.7,234.9,34.4z"/>
				<path class="st1" d="M232.1,33.5c-0.4-0.1-0.9-0.4-0.8-0.7c0-0.1,0.2-0.2,0.3-0.1c0,0,0.1,0,0.1,0.1c0.1,0.1,0.3,0.2,0.5,0.3
					c0.5,0.2,0.8,0,0.9-0.3c0.1-0.3,0-0.4-0.2-0.7c-0.5-0.5-1.2-0.8-0.9-1.7c0.2-0.6,0.8-0.9,1.5-0.6c0.4,0.1,1,0.4,0.9,0.7
					c0,0.1-0.2,0.2-0.3,0.1c0,0,0,0,0,0c-0.2-0.2-0.4-0.3-0.7-0.4c-0.4-0.2-0.8-0.1-0.9,0.3c-0.1,0.3,0,0.5,0.1,0.6
					c0.5,0.5,1.3,0.8,1,1.7C233.4,33.5,232.8,33.7,232.1,33.5z"/>
				<path class="st1" d="M230.9,31.5c-0.3,0.7-0.8,1.2-1.7,0.8c-0.3-0.1-0.9-0.4-0.8-0.7c0-0.1,0.2-0.2,0.3-0.1c0,0,0.1,0,0.1,0.1
					l0,0c0.1,0.2,0.3,0.3,0.5,0.4c0.6,0.2,1,0,1.2-0.6l0.4-1.1c0.2-0.6,0.1-1-0.5-1.2c-0.3-0.1-0.5-0.1-0.7,0l0,0
					c-0.1,0-0.1,0-0.1,0c-0.1,0-0.2-0.2-0.1-0.3c0.1-0.3,0.8-0.2,1.1,0c0.9,0.3,1.1,1,0.8,1.7L230.9,31.5z"/>
				<path class="st1" d="M228.5,28c0.1,0,0.2,0.2,0.2,0.3l-1.7,4.8c0,0.1-0.2,0.2-0.3,0.2s-0.2-0.2-0.1-0.3l0.6-1.7
					c-0.4,0.1-0.8,0.1-1.1,0c-0.7-0.3-0.9-0.9-0.7-1.5l0.8-2.3c0-0.1,0.2-0.2,0.3-0.1c0.1,0,0.2,0.2,0.2,0.3l-0.8,2.3
					c-0.2,0.5-0.1,0.8,0.4,1c0.3,0.1,0.7,0.1,1.1-0.1l0.9-2.6C228.3,28.1,228.4,28,228.5,28z"/>
				<path class="st1" d="M224.9,28.2l-0.4,1.2c-0.2,0.7-0.9,1.1-1.8,0.8c-0.9-0.3-1.1-1-0.9-1.7l0.4-1.2c0.2-0.7,0.9-1.1,1.8-0.8
					C224.9,26.8,225.2,27.5,224.9,28.2z M222.8,27.4l-0.4,1.2c-0.2,0.5,0,0.9,0.6,1.1c0.6,0.2,1,0,1.1-0.5l0.4-1.2
					c0.2-0.5,0-0.9-0.6-1.1C223.3,26.7,222.9,26.9,222.8,27.4z"/>
				<path class="st1" d="M221.6,27l-0.4,1.2c-0.2,0.7-0.9,1.1-1.8,0.8c-0.9-0.3-1.1-1-0.9-1.7l0.4-1.2c0.2-0.7,0.9-1.1,1.8-0.8
					C221.6,25.6,221.9,26.3,221.6,27z M219.5,26.2l-0.4,1.2c-0.2,0.5,0,0.9,0.6,1.1c0.6,0.2,1,0,1.1-0.5l0.4-1.2
					c0.2-0.5,0-0.9-0.6-1.1C220,25.5,219.6,25.7,219.5,26.2z"/>
				<path class="st1" d="M216.8,29.5c0,0.1-0.2,0.2-0.3,0.2c-0.1,0-0.2-0.2-0.1-0.3l1.5-4.3c0.1-0.2,0.1-0.3,0-0.4c0,0,0-0.1,0-0.1
					c0-0.1,0.2-0.2,0.3-0.1c0.2,0.1,0.4,0.2,0.2,0.8L216.8,29.5z"/>
				<path class="st1" d="M211.9,26.9c0.7-1.1,1.6-2.5,2.3-3.6c0.1-0.1,0.2-0.2,0.4-0.2c0.2,0.1,0.2,0.2,0.2,0.4l-0.5,5l0,0
					c0,0.1-0.2,0.1-0.3,0.1c-0.1,0-0.2-0.1-0.2-0.2l0.5-4.4l-2.3,3.6c-0.1,0.2-0.3,0.3-0.5,0.3c-0.2-0.1-0.2-0.3-0.2-0.5l0.5-4.2
					l-2.4,3.8c-0.1,0.1-0.2,0.1-0.3,0.1c-0.1,0-0.3-0.2-0.2-0.3c0,0,0,0,0-0.1l0,0l2.7-4.2c0.1-0.1,0.3-0.2,0.4-0.2
					c0.2,0.1,0.2,0.3,0.2,0.4L211.9,26.9z"/>
				<path class="st1" d="M207.6,23.4c-0.2,0.6,0,0.9,0.5,1.1c0.3,0.1,0.4,0.1,0.6,0c0.1,0,0.1,0,0.2,0c0.1,0,0.1,0.2,0.1,0.2
					c-0.1,0.3-0.6,0.2-1.1,0.1c-0.9-0.3-1-0.9-0.7-1.9l0.6-1.6c0.1-0.2,0-0.3-0.1-0.3c0,0,0,0-0.1,0c-0.1,0-0.1-0.2-0.1-0.2
					c0.1-0.1,0.2-0.1,0.3-0.1c0.2,0.1,0.4,0.3,0.4,0.6c0.4-0.2,0.8-0.2,1.2-0.1c0.7,0.3,0.9,0.8,0.7,1.4l0,0
					c-0.2,0.7-0.8,0.9-1.6,0.6c-0.2-0.1-0.5-0.2-0.7-0.4L207.6,23.4z M209.7,22.6L209.7,22.6c0.1-0.4,0.1-0.7-0.5-0.9
					c-0.3-0.1-0.6-0.1-1,0l-0.3,0.9c0.3,0.2,0.5,0.3,0.7,0.4C209.3,23.2,209.5,23,209.7,22.6z"/>
				<path class="st1" d="M206.3,20.5c0-0.1,0.2-0.2,0.3-0.1c0.1,0,0.2,0.2,0.2,0.3l-0.9,2.5c-0.1,0.2-0.1,0.4-0.1,0.6
					c0,0,0,0.1,0,0.1c0,0.1-0.2,0.2-0.3,0.1c-0.1,0-0.2-0.2-0.2-0.3c-0.4,0.1-0.9,0.1-1.1,0c-0.2-0.1-0.3-0.2-0.2-0.3
					c0-0.1,0.2-0.2,0.3-0.2c0.3,0.1,0.6,0.2,1.1,0.1l0,0c0,0,0,0,0.1-0.2L206.3,20.5z"/>
				<path class="st1" d="M202.4,19.5C202.4,19.5,202.3,19.5,202.4,19.5c-0.2,0-0.2-0.2-0.2-0.3c0.1-0.3,0.9-0.2,1.3,0
					c0.8,0.3,1.1,0.9,0.8,1.6l-0.5,1.4c-0.2,0.7-0.9,1-1.7,0.7c-0.8-0.3-1-0.9-0.8-1.5c0.2-0.6,0.7-0.9,1.5-0.6
					c0.2,0.1,0.5,0.2,0.8,0.4l0.2-0.5c0.2-0.4,0-0.8-0.6-1C202.9,19.5,202.7,19.5,202.4,19.5z M202.3,22.5c0.5,0.2,0.9,0,1.1-0.4
					l0.2-0.6c-0.3-0.2-0.7-0.3-0.8-0.3c-0.6-0.2-0.8,0.1-0.9,0.4C201.6,22,201.8,22.3,202.3,22.5z"/>
				<path class="st1" d="M198.1,21.2c-0.3,0.3-0.6,0.3-0.7,0.3c-0.1,0-0.2-0.2-0.1-0.3c0-0.1,0-0.1,0.1-0.1l0.1,0
					c0.3-0.1,0.5-0.2,0.6-0.5l0.2-0.5c0.2-0.7,0.9-1.1,1.7-0.8c0.2,0.1,0.4,0.2,0.6,0.3c0.1-0.1,0.2-0.3,0.3-0.4
					c0.1-0.3-0.1-0.5-0.3-0.5l-0.3-0.1c-0.8-0.3-1.3-0.8-1.1-1.5c0.2-0.7,1-0.9,1.8-0.6c0.8,0.3,1.2,0.9,1,1.5
					c-0.1,0.3-0.4,0.6-0.7,0.7c0.1,0.2,0.1,0.5,0,0.6c-0.1,0.2-0.2,0.4-0.5,0.5c0.2,0.4,0.2,0.8,0.1,1.2c-0.3,0.7-0.9,1.1-1.7,0.8
					C198.7,21.7,198.3,21.5,198.1,21.2z M200.8,18.4c0.3-0.1,0.4-0.3,0.5-0.5c0.2-0.5-0.1-0.8-0.7-1.1c-0.6-0.2-1-0.1-1.2,0.4
					c-0.1,0.4,0.1,0.7,0.7,0.9l0.3,0.1C200.6,18.2,200.8,18.3,200.8,18.4z M198.4,20.9c0.2,0.2,0.4,0.4,0.7,0.5c0.6,0.2,1,0,1.2-0.6
					c0.2-0.5,0.1-1-0.5-1.2c-0.6-0.2-0.9,0-1.1,0.5l-0.2,0.5C198.4,20.7,198.4,20.8,198.4,20.9z"/>
				<path class="st1" d="M195.9,17.2C195.9,17.2,195.8,17.2,195.9,17.2c-0.2,0-0.2-0.2-0.2-0.3c0.1-0.3,0.9-0.2,1.3,0
					c0.8,0.3,1.1,0.9,0.8,1.6l-0.5,1.4c-0.2,0.7-0.9,1-1.7,0.7c-0.8-0.3-1-0.9-0.8-1.5c0.2-0.6,0.7-0.9,1.5-0.6
					c0.2,0.1,0.5,0.2,0.8,0.4l0.2-0.5c0.2-0.4,0-0.8-0.6-1C196.4,17.2,196.2,17.2,195.9,17.2z M195.8,20.2c0.5,0.2,0.9,0,1.1-0.4
					l0.2-0.6c-0.3-0.2-0.7-0.3-0.8-0.3c-0.6-0.2-0.8,0.1-0.9,0.4C195.1,19.8,195.3,20.1,195.8,20.2z"/>
				<path class="st1" d="M192.2,19.4c-0.4-0.1-0.6-0.4-0.7-0.7c-0.4,0.1-0.8,0.2-1.2,0c-0.8-0.3-1-0.9-0.7-1.6l0.8-2.3
					c0-0.1,0.1-0.2,0.3-0.1c0.1,0.1,0.2,0.2,0.2,0.3l-0.8,2.3c-0.2,0.4-0.1,0.9,0.4,1c0.3,0.1,0.7,0.1,1-0.1c0-0.1,0-0.2,0.1-0.4
					l0.8-2.3c0-0.1,0.1-0.2,0.3-0.1c0.2,0.1,0.2,0.2,0.2,0.3l-0.7,2.1c-0.2,0.6-0.2,1,0.3,1.2c0.3,0.1,0.7,0.1,1,0
					c0-0.1,0-0.2,0.1-0.3l0.9-2.5c0-0.1,0.2-0.2,0.3-0.1c0.2,0.1,0.2,0.2,0.2,0.3l-0.9,2.5c-0.1,0.2-0.1,0.4-0.1,0.6
					c0,0,0,0.1,0,0.1c0,0.1-0.2,0.2-0.3,0.1c-0.1,0-0.2-0.1-0.2-0.3C193,19.5,192.5,19.5,192.2,19.4z"/>
			</g>
		</g>
	</g>
	<g>
		<circle class="st2" cx="237.9" cy="63.5" r="2.8"/>
		<circle class="st3" cx="216" cy="74.7" r="9.1"/>
		<circle class="st4" cx="214.4" cy="55.1" r="6.6"/>
		<circle class="st1" cx="227.5" cy="62.4" r="4.5"/>
		<path class="st5" d="M205.4,68.1c2-5.8-1-12.1-6.8-14.1c-5.8-2-12.1,1-14.1,6.8c-2,5.8,1,12.1,6.8,14.1
			C197,77,203.3,73.9,205.4,68.1z M200.9,66.3c-1.1,3.2-4.7,5-7.9,3.8c-3.2-1.1-5-4.7-3.8-7.9c1.1-3.2,4.7-5,7.9-3.8
			S202,63.1,200.9,66.3z"/>
	</g>
</g>
<g>
	<defs>
		<rect id="SVGID_3_" x="152.6" y="-62.5" width="131.3" height="56.7"/>
	</defs>
	<clipPath id="SVGID_2_">
		<use xlink:href="#SVGID_3_"  style="overflow:visible;"/>
	</clipPath>
	<g class="st12">
		<g>
			<g>
				<g>
					<path class="st0" d="M261-11.4c0.4,0,0.9,0.1,1.2,0.2c0.4,0.1,0.8,0.3,1.1,0.5c0.2-0.3,0.5-0.6,0.7-0.8
						c0.3-0.2,0.5-0.3,0.8-0.3c0.2,0,0.4,0.1,0.6,0.2c0.2,0.2,0.3,0.4,0.3,0.6c0,0.1,0,0.2-0.1,0.3c0,0.1-0.1,0.1-0.1,0.2l-0.3,0.3
						c-0.1,0.1-0.2,0.2-0.3,0.3c-0.1,0.1-0.1,0.2-0.2,0.3c0,0.1-0.1,0.2-0.1,0.3c0,0.1,0,0.2,0,0.3v1.1c0,0.5-0.1,0.9-0.2,1.3
						c-0.1,0.4-0.4,0.7-0.7,1c-0.3,0.3-0.7,0.5-1.1,0.7c-0.4,0.2-1,0.3-1.6,0.3c-0.2,0-0.4,0-0.6,0c-0.2,0-0.4-0.1-0.6-0.1
						c-0.1,0.1-0.1,0.2-0.1,0.3c0,0.1,0,0.2,0,0.3c0,0.3,0.1,0.5,0.3,0.5c0.2,0.1,0.3,0.1,0.5,0.1h0.8c0.5,0,1.1,0.1,1.5,0.2
						c0.5,0.1,0.9,0.3,1.2,0.5c0.3,0.2,0.6,0.5,0.8,0.8c0.2,0.3,0.3,0.7,0.3,1.2S265,0,264.8,0.4c-0.2,0.4-0.5,0.7-0.8,0.9
						c-0.4,0.3-0.8,0.5-1.2,0.6c-0.5,0.1-1,0.2-1.6,0.2c-0.5,0-1.1-0.1-1.5-0.2c-0.5-0.1-0.8-0.3-1.2-0.6c-0.3-0.2-0.6-0.5-0.8-0.9
						c-0.2-0.4-0.3-0.7-0.3-1.2c0-0.4,0.1-0.8,0.3-1.1c0.2-0.3,0.4-0.6,0.8-1c-0.2-0.2-0.3-0.5-0.3-0.7c-0.1-0.3-0.1-0.5-0.1-0.7
						c0-0.2,0-0.4,0.1-0.7c0.1-0.2,0.2-0.5,0.5-0.7c-0.7-0.6-1.1-1.5-1.1-2.5c0-0.5,0.1-0.9,0.2-1.3c0.1-0.4,0.4-0.8,0.6-1.1
						c0.3-0.3,0.6-0.5,1.1-0.7C259.9-11.3,260.4-11.4,261-11.4z M260.9-1.9c-0.2,0-0.4,0-0.5,0c-0.2,0-0.3,0-0.5,0
						c-0.3,0.3-0.5,0.7-0.5,1.1c0,0.4,0.1,0.8,0.4,1c0.3,0.2,0.8,0.4,1.4,0.4c0.6,0,1-0.1,1.4-0.3c0.4-0.2,0.6-0.5,0.6-1
						c0-0.7-0.6-1.1-1.9-1.1H260.9z M262.8-8.5c0-0.1,0-0.3,0-0.4c0-0.1,0-0.3,0-0.4c-0.3-0.1-0.5-0.2-0.8-0.3
						c-0.2-0.1-0.5-0.1-0.8-0.1c-0.6,0-1,0.1-1.3,0.4c-0.3,0.3-0.4,0.7-0.4,1.3c0,0.5,0.1,0.9,0.4,1.3c0.3,0.3,0.7,0.5,1.3,0.5
						c0.5,0,0.9-0.1,1.2-0.4c0.3-0.3,0.4-0.7,0.4-1.2V-8.5z"/>
				</g>
			</g>
			<g>
				<g>
					<path class="st1" d="M157.9,11.5c-0.1,0.4-0.3,0.5-0.5,0.5c-0.3,0-0.4-0.2-0.5-0.5l-1.7-5.1c-0.1-0.2,0.1-0.4,0.4-0.4
						c0.1,0,0.3,0,0.3,0.2l1.5,4.8l1.5-4.8c0-0.1,0.2-0.3,0.3-0.2c0.2,0,0.4,0.2,0.4,0.4c0,0,0,0.1,0,0.1L157.9,11.5z"/>
					<path class="st1" d="M161.6,11.6c0,0.2-0.2,0.4-0.4,0.4c-0.2,0-0.4-0.2-0.4-0.4V7.5c0-0.4,0-0.7-0.2-0.9c0-0.1-0.1-0.1-0.1-0.2
						c0-0.2,0.2-0.3,0.4-0.3c0.2,0,0.3,0.2,0.5,0.4c0.5-0.4,1.2-0.5,1.7-0.5c0.4,0,0.5,0.2,0.5,0.4c0,0.2-0.2,0.4-0.4,0.4
						c-0.5,0-1,0-1.6,0.5v0c0,0,0,0,0,0.4V11.6z"/>
					<path class="st1" d="M165.2,4.4c-0.3,0-0.5-0.2-0.5-0.5c0-0.3,0.2-0.5,0.5-0.5c0.3,0,0.5,0.2,0.5,0.5
						C165.7,4.2,165.5,4.4,165.2,4.4z M165.2,12c-0.2,0-0.4-0.2-0.4-0.4V6.3c0-0.2,0.2-0.4,0.4-0.4c0.2,0,0.4,0.2,0.4,0.4v5.3
						C165.6,11.8,165.4,12,165.2,12z"/>
					<path class="st1" d="M168.5,12.2c0,1.2-0.6,2-1.6,2.2c-0.1,0-0.1,0-0.2,0c-0.1,0-0.3-0.1-0.3-0.2c-0.1-0.3,0.1-0.4,0.3-0.4
						c0.7-0.2,1.1-0.5,1.1-1.5V6.3c0-0.2,0.2-0.4,0.4-0.4c0.2,0,0.4,0.2,0.4,0.4V12.2z M168.1,4.4c-0.3,0-0.5-0.2-0.5-0.5
						c0-0.3,0.2-0.5,0.5-0.5c0.3,0,0.5,0.2,0.5,0.5C168.6,4.2,168.3,4.4,168.1,4.4z"/>
					<path class="st1" d="M173.5,11c0,0,0.1,0,0.1,0c0.2,0,0.3,0.2,0.3,0.3c0,0.5-1.2,0.7-1.9,0.7c-1.3,0-2.1-0.8-2.1-1.9V7.8
						c0-1.1,0.7-2,2.1-2c1.3,0,1.9,0.7,1.9,1.9c0,1.1-0.6,1.7-1.9,1.7c-0.4,0-0.9,0-1.3-0.1v0.8c0,0.7,0.5,1.2,1.4,1.2
						C172.8,11.3,173.1,11.2,173.5,11z M172.2,6.6c-0.8,0-1.3,0.5-1.3,1.2v1c0.5,0.1,1.1,0.1,1.4,0.1c1,0,1.1-0.5,1.1-1.1
						C173.3,6.9,172.9,6.6,172.2,6.6z"/>
					<path class="st1" d="M177.7,3.7c0-0.2,0.1-0.4,0.4-0.4c0.2,0,0.4,0.2,0.4,0.4v2.7c0.5-0.4,1.1-0.6,1.7-0.6
						c1.3,0,1.8,0.8,1.8,1.8v2.3c0,1.2-0.7,2-2.1,2c-1.4,0-2.1-0.8-2.1-1.8V3.7z M178.5,10.2c0,0.7,0.5,1.1,1.4,1.1
						c0.9,0,1.3-0.5,1.3-1.4V7.7c0-0.7-0.4-1.2-1.2-1.2c-0.6,0-1.1,0.3-1.5,0.7V10.2z"/>
					<path class="st1" d="M186.4,7.9c0-0.9-0.4-1.4-1.4-1.4c-0.4,0-0.7,0.1-0.9,0.3c-0.1,0-0.2,0.1-0.3,0.1c-0.2,0-0.2-0.2-0.3-0.3
						c0-0.5,0.8-0.7,1.6-0.7c1.4,0,2,0.8,2,2.3v2.6c0,0.3,0.1,0.5,0.3,0.5c0,0,0.1,0,0.1,0c0.2,0,0.3,0.2,0.3,0.3
						c0,0.2-0.2,0.3-0.4,0.3c-0.4,0-0.7-0.3-0.9-0.7c-0.5,0.5-1,0.7-1.7,0.7c-1.2,0-1.8-0.7-1.8-1.7v0c0-1.1,0.7-1.7,2-1.7
						c0.4,0,0.8,0.1,1.3,0.2V7.9z M183.8,10.2L183.8,10.2c0,0.7,0.3,1.1,1.2,1.1c0.5,0,1-0.2,1.4-0.6V9.4c-0.5-0.2-1-0.2-1.3-0.2
						C184,9.1,183.8,9.6,183.8,10.2z"/>
					<path class="st1" d="M190.8,5.9c0.6,0,1.5,0.1,1.5,0.6c0,0.2-0.1,0.3-0.3,0.3c-0.1,0-0.1,0-0.2,0c-0.3-0.1-0.5-0.2-1-0.2
						c-0.8,0-1.2,0.3-1.2,0.9c0,0.4,0.2,0.6,0.6,0.9c0.9,0.5,2.2,0.6,2.2,2c0,1-0.7,1.7-1.9,1.7c-0.6,0-1.7-0.1-1.7-0.6
						c0-0.2,0.1-0.4,0.4-0.4c0,0,0,0,0.1,0c0.4,0.1,0.7,0.3,1.3,0.3c0.7,0,1.2-0.3,1.2-1c0-0.5-0.2-0.7-0.5-0.9
						c-0.9-0.5-2.3-0.6-2.3-2C188.9,6.5,189.5,5.9,190.8,5.9z"/>
					<path class="st1" d="M194.2,4.4c-0.3,0-0.5-0.2-0.5-0.5c0-0.3,0.2-0.5,0.5-0.5c0.3,0,0.5,0.2,0.5,0.5
						C194.7,4.2,194.5,4.4,194.2,4.4z M194.2,12c-0.2,0-0.4-0.2-0.4-0.4V6.3c0-0.2,0.2-0.4,0.4-0.4c0.2,0,0.4,0.2,0.4,0.4v5.3
						C194.6,11.8,194.4,12,194.2,12z"/>
					<path class="st1" d="M198.2,5.9c0.6,0,1.5,0.1,1.5,0.6c0,0.2-0.1,0.3-0.3,0.3c-0.1,0-0.1,0-0.2,0c-0.3-0.1-0.5-0.2-1-0.2
						c-0.8,0-1.2,0.3-1.2,0.9c0,0.4,0.2,0.6,0.6,0.9c0.9,0.5,2.2,0.6,2.2,2c0,1-0.7,1.7-1.9,1.7c-0.6,0-1.7-0.1-1.7-0.6
						c0-0.2,0.1-0.4,0.4-0.4c0,0,0,0,0.1,0c0.4,0.1,0.7,0.3,1.3,0.3c0.7,0,1.2-0.3,1.2-1c0-0.5-0.2-0.7-0.5-0.9
						c-0.9-0.5-2.3-0.6-2.3-2C196.3,6.5,197,5.9,198.2,5.9z"/>
					<path class="st1" d="M202.8,5.9c0.6,0,1.5,0.1,1.5,0.6c0,0.2-0.1,0.3-0.3,0.3c-0.1,0-0.1,0-0.2,0c-0.3-0.1-0.5-0.2-1-0.2
						c-0.8,0-1.2,0.3-1.2,0.9c0,0.4,0.2,0.6,0.6,0.9c0.9,0.5,2.2,0.6,2.2,2c0,1-0.7,1.7-1.9,1.7c-0.6,0-1.7-0.1-1.7-0.6
						c0-0.2,0.1-0.4,0.4-0.4c0,0,0,0,0.1,0c0.4,0.1,0.7,0.3,1.3,0.3c0.7,0,1.2-0.3,1.2-1c0-0.5-0.2-0.7-0.5-0.9
						c-0.9-0.5-2.3-0.6-2.3-2C201,6.5,201.6,5.9,202.8,5.9z"/>
					<path class="st1" d="M205.6,8c0-1.2,0.6-2.1,2.1-2.1c0.5,0,1.6,0.1,1.6,0.6c0,0.2-0.1,0.3-0.3,0.3c-0.1,0-0.1,0-0.2,0h0
						c-0.3-0.2-0.6-0.3-1-0.3c-1,0-1.4,0.5-1.4,1.5v1.8c0,0.9,0.4,1.5,1.4,1.5c0.5,0,0.7-0.1,1-0.3h0c0.1,0,0.1,0,0.2,0
						c0.2,0,0.3,0.2,0.3,0.3c0,0.5-1.1,0.6-1.6,0.6c-1.4,0-2.1-0.9-2.1-2.1V8z"/>
					<path class="st1" d="M210.8,12c-0.2,0-0.4-0.2-0.4-0.4v-8c0-0.2,0.2-0.4,0.4-0.4c0.2,0,0.4,0.2,0.4,0.4v2.8
						c0.5-0.4,1.1-0.6,1.6-0.6c1.2,0,1.8,0.8,1.8,1.9v3.8c0,0.2-0.2,0.4-0.4,0.4c-0.2,0-0.4-0.2-0.4-0.4V7.8c0-0.8-0.3-1.2-1.1-1.2
						c-0.5,0-1.1,0.2-1.5,0.8v4.3C211.2,11.8,211,12,210.8,12z"/>
					<path class="st1" d="M216,9.9v-2c0-1.2,0.8-2.1,2.2-2.1c1.4,0,2.2,0.9,2.2,2.1v2c0,1.2-0.7,2-2.2,2C216.8,12,216,11.1,216,9.9z
						 M219.6,9.9v-2c0-0.8-0.5-1.4-1.4-1.4c-0.9,0-1.4,0.5-1.4,1.4v2c0,0.8,0.5,1.4,1.4,1.4C219.1,11.3,219.6,10.8,219.6,9.9z"/>
					<path class="st1" d="M221.4,9.9v-2c0-1.2,0.8-2.1,2.2-2.1c1.4,0,2.2,0.9,2.2,2.1v2c0,1.2-0.7,2-2.2,2
						C222.2,12,221.4,11.1,221.4,9.9z M225,9.9v-2c0-0.8-0.5-1.4-1.4-1.4c-0.9,0-1.4,0.5-1.4,1.4v2c0,0.8,0.5,1.4,1.4,1.4
						C224.5,11.3,225,10.8,225,9.9z"/>
					<path class="st1" d="M227.2,3.7c0-0.2,0.2-0.4,0.4-0.4c0.2,0,0.4,0.2,0.4,0.4v7.1c0,0.3,0.1,0.5,0.2,0.6c0,0,0,0.1,0,0.2
						c0,0.2-0.1,0.3-0.3,0.3c-0.3,0-0.7-0.1-0.7-1.1V3.7z"/>
					<path class="st1" d="M235.8,5c-0.4,2-1,4.5-1.5,6.5c-0.1,0.2-0.2,0.5-0.5,0.5c-0.3,0-0.5-0.2-0.6-0.5L231.4,4v0
						c0-0.2,0.2-0.3,0.5-0.3c0.1,0,0.3,0.1,0.4,0.3l1.6,6.8l1.5-6.4c0.1-0.4,0.2-0.6,0.5-0.6c0.3,0,0.4,0.3,0.5,0.6l1.5,6.5l1.6-6.8
						c0.1-0.2,0.2-0.3,0.3-0.3c0.2,0,0.5,0.1,0.5,0.3c0,0,0,0.1,0,0.1v0l-1.8,7.5c-0.1,0.2-0.3,0.5-0.5,0.5c-0.3,0-0.5-0.2-0.6-0.5
						L235.8,5z"/>
					<path class="st1" d="M243.8,7.9c0-0.9-0.4-1.4-1.4-1.4c-0.4,0-0.7,0.1-0.9,0.3c-0.1,0-0.2,0.1-0.3,0.1c-0.2,0-0.2-0.2-0.3-0.3
						c0-0.5,0.8-0.7,1.6-0.7c1.4,0,2,0.8,2,2.3v2.6c0,0.3,0.1,0.5,0.3,0.5c0,0,0.1,0,0.1,0c0.2,0,0.3,0.2,0.3,0.3
						c0,0.2-0.2,0.3-0.4,0.3c-0.4,0-0.7-0.3-0.9-0.7c-0.5,0.5-1,0.7-1.7,0.7c-1.2,0-1.8-0.7-1.8-1.7v0c0-1.1,0.7-1.7,2-1.7
						c0.4,0,0.8,0.1,1.3,0.2V7.9z M241.2,10.2L241.2,10.2c0,0.7,0.3,1.1,1.2,1.1c0.5,0,1-0.2,1.4-0.6V9.4c-0.5-0.2-1-0.2-1.3-0.2
						C241.4,9.1,241.2,9.6,241.2,10.2z"/>
					<path class="st1" d="M247.3,11.6c0,0.2-0.2,0.4-0.4,0.4c-0.2,0-0.4-0.2-0.4-0.4V7.5c0-0.4,0-0.7-0.2-0.9c0-0.1-0.1-0.1-0.1-0.2
						c0-0.2,0.2-0.3,0.4-0.3c0.2,0,0.3,0.2,0.5,0.4c0.5-0.4,1.2-0.5,1.7-0.5c0.4,0,0.5,0.2,0.5,0.4c0,0.2-0.2,0.4-0.4,0.4
						c-0.5,0-1,0-1.6,0.5v0c0,0,0,0,0,0.4V11.6z"/>
					<path class="st1" d="M253.5,11c0,0,0.1,0,0.1,0c0.2,0,0.3,0.2,0.3,0.3c0,0.5-1.2,0.7-1.9,0.7c-1.3,0-2.1-0.8-2.1-1.9V7.8
						c0-1.1,0.7-2,2.1-2c1.3,0,1.9,0.7,1.9,1.9c0,1.1-0.6,1.7-1.9,1.7c-0.4,0-0.9,0-1.3-0.1v0.8c0,0.7,0.5,1.2,1.4,1.2
						C252.7,11.3,253.1,11.2,253.5,11z M252.1,6.6c-0.8,0-1.3,0.5-1.3,1.2v1c0.5,0.1,1.1,0.1,1.4,0.1c1,0,1.1-0.5,1.1-1.1
						C253.3,6.9,252.9,6.6,252.1,6.6z"/>
					<path class="st1" d="M258.9,6.3c0.3-0.5,0.7-0.7,0.9-0.7c0.2,0,0.4,0.1,0.4,0.3c0,0.1,0,0.2,0,0.2L260,6.2
						c-0.4,0.4-0.6,0.6-0.6,1.1v0.7c0,1.2-0.7,2.1-2.1,2.1c-0.4,0-0.7-0.1-1-0.2c-0.2,0.3-0.2,0.5-0.2,0.7c0,0.5,0.4,0.6,0.7,0.6
						h0.5c1.3,0,2.3,0.5,2.3,1.6c0,1.2-1,1.9-2.4,1.9c-1.3,0-2.2-0.6-2.2-1.8c0-0.5,0.2-1,0.7-1.4c-0.3-0.3-0.4-0.7-0.4-0.9
						c0-0.3,0.1-0.6,0.5-1c-0.5-0.4-0.7-1-0.7-1.7c0-1.2,0.7-2.1,2.1-2.1C257.8,5.9,258.4,6,258.9,6.3z M256.3,11.9
						c-0.3,0.3-0.5,0.6-0.5,1c0,0.8,0.5,1.2,1.5,1.2c0.9,0,1.6-0.4,1.6-1.2c0-0.7-0.5-1-1.5-1h-0.5
						C256.7,11.9,256.5,11.9,256.3,11.9z M258.7,6.9c-0.4-0.3-0.9-0.4-1.3-0.4c-0.9,0-1.4,0.5-1.4,1.5c0,0.9,0.4,1.4,1.4,1.4
						c0.9,0,1.3-0.5,1.3-1.4V7.3C258.6,7.3,258.6,7.1,258.7,6.9z"/>
					<path class="st1" d="M264.2,11c0,0,0.1,0,0.1,0c0.2,0,0.3,0.2,0.3,0.3c0,0.5-1.2,0.7-1.9,0.7c-1.3,0-2.1-0.8-2.1-1.9V7.8
						c0-1.1,0.7-2,2.1-2c1.3,0,1.9,0.7,1.9,1.9c0,1.1-0.6,1.7-1.9,1.7c-0.4,0-0.9,0-1.3-0.1v0.8c0,0.7,0.5,1.2,1.4,1.2
						C263.4,11.3,263.8,11.2,264.2,11z M262.8,6.6c-0.8,0-1.3,0.5-1.3,1.2v1c0.5,0.1,1.1,0.1,1.4,0.1c1,0,1.1-0.5,1.1-1.1
						C264,6.9,263.6,6.6,262.8,6.6z"/>
					<path class="st1" d="M268.5,5.9c0.6,0,1.1,0.2,1.4,0.7c0.5-0.4,1.1-0.7,1.8-0.7c1.2,0,1.9,0.8,1.9,2v3.8c0,0.2-0.1,0.4-0.4,0.4
						c-0.2,0-0.4-0.2-0.4-0.4V7.9c0-0.7-0.4-1.3-1.2-1.3c-0.5,0-1.1,0.3-1.4,0.7c0,0.2,0.1,0.4,0.1,0.6v3.8c0,0.2-0.1,0.4-0.4,0.4
						c-0.3,0-0.4-0.2-0.4-0.4V8.1c0-0.9-0.2-1.6-1.1-1.6c-0.5,0-1.1,0.3-1.5,0.5c0,0.1,0,0.3,0,0.4v4.1c0,0.2-0.1,0.4-0.4,0.4
						c-0.3,0-0.4-0.2-0.4-0.4V7.5c0-0.4,0-0.7-0.2-0.9c0-0.1-0.1-0.1-0.1-0.2c0-0.2,0.2-0.3,0.3-0.3c0.2,0,0.3,0.1,0.5,0.4
						C267.2,6.1,267.8,5.9,268.5,5.9z"/>
				</g>
			</g>
		</g>
	</g>
</g>
</svg>
