<?xml version="1.0" encoding="utf-8"?>
<!-- Generator: Adobe Illustrator 22.0.1, SVG Export Plug-In . SVG Version: 6.00 Build 0)  -->
<svg version="1.1" id="Laag_1" xmlns="http://www.w3.org/2000/svg" xmlns:xlink="http://www.w3.org/1999/xlink" x="0px" y="0px"
	 viewBox="0 0 602.8 481.3" style="enable-background:new 0 0 602.8 481.3;" xml:space="preserve">
<style type="text/css">
	.st0{fill:none;}
	.st1{display:none;}
	.st2{display:inline;fill:none;stroke:#CCCCCC;stroke-width:0.9851;stroke-miterlimit:10;}
	.st3{display:inline;fill:none;stroke:#B3B3B3;stroke-width:4;stroke-miterlimit:10;}
	.st4{display:inline;fill:#F2F2F2;}
</style>
<g id="Laag_1_1_">
	<rect x="-21.8" y="-111.5" class="st0" width="900" height="702"/>
	<g>
		<g>
			<g>
				<g>
					<path d="M30.7,362.8c0,2.1,0.2,4.1,0.6,5.8c0.4,1.7,1.1,3.2,1.9,4.4s2.1,2.1,3.6,2.8c1.5,0.6,3.3,1,5.5,1
						c1.8,0,3.3-0.2,4.7-0.6c1.4-0.4,2.6-1.1,3.7-1.9v-16h-6.5c-1.1,0-2.2-0.4-3-1.3c-0.9-0.9-1.3-1.9-1.3-3.1s0.4-2.2,1.3-3.1
						c0.9-0.8,1.9-1.2,3-1.2h9.8c1.6,0,3,0.4,4.2,1.2s1.8,2.1,1.8,3.7v19.9c0,1.9-0.6,3.5-1.7,4.9s-2.6,2.4-4.4,3.3
						c-1.8,0.9-3.7,1.5-5.9,1.9c-2.2,0.4-4.3,0.6-6.3,0.6c-3.6,0-6.7-0.6-9.2-1.6c-2.6-1.1-4.7-2.6-6.4-4.5c-1.7-1.9-3-4.3-3.8-7
						c-0.8-2.8-1.2-5.8-1.2-9.2v-15.3c0-3.3,0.4-6.4,1.2-9.2c0.8-2.8,2.1-5.1,3.8-7.1c1.7-1.9,3.8-3.4,6.4-4.5
						c2.6-1.1,5.7-1.6,9.2-1.6c2.1,0,4.2,0.2,6.2,0.6c1.9,0.4,3.7,1.1,5.3,1.8c1.5,0.8,2.8,1.7,3.7,2.7c0.9,1,1.4,2,1.4,3.2
						s-0.4,2.1-1.2,2.9c-0.8,0.8-1.9,1.2-3.2,1.2c-0.8,0-1.5-0.2-1.9-0.4c-0.4-0.2-1-0.6-1.6-1l-0.4-0.2c-1.1-0.8-2.4-1.4-3.6-1.8
						c-1.3-0.4-2.7-0.6-4.2-0.6c-2.2,0-4.1,0.3-5.5,1c-1.5,0.6-2.7,1.5-3.6,2.8c-0.9,1.2-1.5,2.7-1.9,4.4c-0.4,1.7-0.6,3.6-0.6,5.8
						v15.4H30.7z"/>
					<path d="M91.7,355.6c0-5-2.7-7.6-7.9-7.6c-1.1,0-2.1,0.1-2.8,0.3c-0.7,0.2-1.5,0.5-2.3,0.8l-1.6,0.7c-0.6,0.3-1.3,0.4-2.3,0.4
						c-1.3,0-2.2-0.4-2.8-1.2s-0.8-1.7-0.8-2.6c0-1.1,0.4-2.1,1.1-2.9c0.7-0.8,1.8-1.5,3-1.9c1.3-0.5,2.7-0.9,4.3-1.1
						c1.6-0.2,3.2-0.3,4.9-0.3c5.8,0,10.1,1.5,12.6,4.5c2.5,3,3.8,7.4,3.8,13.1v17.5c0,1.1,0.2,1.8,0.6,2.1c0.4,0.3,0.9,0.6,1.5,0.6
						c1.7,0.3,2.6,1.4,2.6,3.1c0,2.4-1.7,3.6-5.1,3.6c-3,0-5.3-1.3-6.9-3.9c-3.2,2.8-7.1,4.1-11.8,4.1c-4.7,0-8.3-1.2-10.6-3.6
						c-2.4-2.4-3.6-5.7-3.6-9.7v-0.2c0-8.7,5.4-13.1,16.1-13.1c2.7,0,5.3,0.3,7.8,1.1L91.7,355.6L91.7,355.6z M84.2,365.5
						c-1.5,0-2.8,0.2-3.6,0.5c-1,0.3-1.7,0.7-2.2,1.3c-0.5,0.6-0.9,1.2-1.1,1.9c-0.2,0.7-0.2,1.5-0.2,2.4v0.2c0,1.7,0.5,3.1,1.5,4
						c1,1,2.6,1.5,5,1.5c1.5,0,2.9-0.2,4.2-0.7c1.3-0.5,2.7-1.2,4-2.4v-7.8c-1.3-0.3-2.6-0.5-3.9-0.7
						C86.5,365.6,85.3,365.5,84.2,365.5z"/>
					<path d="M142.3,348.4c-1.9,5.4-3.7,10.7-5.5,16c-1.8,5.3-3.6,10.6-5.4,16.1c-0.6,1.7-1.3,2.8-2.2,3.6c-0.9,0.7-2,1.1-3.5,1.1
						c-1.5,0-2.8-0.3-3.6-1.1c-0.8-0.7-1.5-1.9-2.1-3.5c-1.9-5.4-3.7-10.8-5.6-16.1c-1.9-5.4-3.7-10.7-5.6-16.1l-1-3.4
						c0-0.1,0-0.2-0.1-0.2c0-0.1-0.1-0.2-0.1-0.2c0-1.1,0.5-2.1,1.5-2.9c1-0.8,2-1.1,3.2-1.1c0.9,0,1.7,0.2,2.6,0.8
						c0.9,0.5,1.5,1.3,1.7,2.3c0.8,2.6,1.6,5.2,2.4,7.7c0.8,2.5,1.6,5.1,2.4,7.7c0.8,2.6,1.5,5.1,2.1,7.6c0.6,2.5,1.2,5,1.9,7.6
						c0.6-2.6,1.2-5.1,1.8-7.6s1.3-5,2.1-7.6c0.8-2.6,1.6-5.1,2.4-7.7c0.8-2.5,1.5-5.1,2.4-7.7c0.3-0.9,0.8-1.5,1.7-2.1
						c0.8-0.6,1.7-0.8,2.6-0.8c1.2,0,2.3,0.4,3.2,1.1c0.9,0.8,1.4,1.8,1.4,3v0.5L142.3,348.4z"/>
					<path d="M165.8,367.4c-1.2,0-2.4-0.1-3.7-0.2c-1.3-0.1-2.6-0.2-4-0.5v4c0,1.9,0.6,3.5,1.9,4.6c1.3,1.1,3.4,1.7,6.2,1.7
						c1.6,0,3.1-0.2,4.3-0.6c1.3-0.4,2.6-0.9,4.1-1.5c0.1-0.1,0.3-0.2,0.6-0.3c0.3-0.1,0.7-0.2,1.2-0.2c1.5,0,2.6,0.4,3.2,1.3
						s1,1.7,1,2.6c0,1.3-0.6,2.4-1.7,3.2s-2.5,1.5-4.1,2c-1.6,0.5-3.2,0.9-5,1.1c-1.8,0.2-3.2,0.3-4.5,0.3c-2.7,0-5-0.4-7.1-1.1
						c-2.1-0.7-3.8-1.8-5.2-3.1c-1.4-1.3-2.5-2.9-3.2-4.7c-0.7-1.8-1.1-3.7-1.1-5.8V355c0-2.1,0.4-4.1,1.1-5.9
						c0.7-1.8,1.9-3.4,3.2-4.7c1.5-1.3,3.2-2.4,5.4-3.2c2.1-0.8,4.5-1.1,7.3-1.1c5.3,0,9.2,1.3,11.8,3.9c2.6,2.6,3.9,6.1,3.9,10.4
						c0,4.1-1.2,7.3-3.7,9.6C175.3,366.2,171.3,367.4,165.8,367.4z M172.3,354.2c0-2.3-0.6-4-1.7-4.9c-1.1-1-2.8-1.5-4.9-1.5
						c-2.4,0-4.3,0.6-5.6,1.8c-1.3,1.2-1.9,2.8-1.9,4.9v5.1c1.5,0.2,3,0.3,4.5,0.4c1.5,0.1,2.5,0.2,3.2,0.2c2.4,0,4.2-0.6,5.1-1.6
						C171.8,357.5,172.3,356,172.3,354.2z"/>
					<path d="M209.6,349.1c-0.9,0-1.8,0-2.5,0c-0.8,0-1.5,0.1-2.3,0.2c-0.7,0.1-1.5,0.3-2.3,0.6c-0.8,0.3-1.6,0.7-2.5,1.2
						c0.1,0.4,0.1,0.7,0.2,1.1c0,0.3,0.1,0.6,0.1,0.9v27.7c0,1.3-0.5,2.4-1.3,3.2c-0.9,0.8-2,1.2-3.3,1.2s-2.4-0.4-3.3-1.2
						c-0.9-0.8-1.4-1.9-1.4-3.2v-27.7c0-1.2-0.1-2.2-0.2-2.9c-0.2-0.7-0.5-1.5-1-2.1c-0.3-0.3-0.5-0.7-0.6-1.1
						c-0.2-0.3-0.2-0.8-0.2-1.3c0-1.2,0.4-2.2,1.3-2.9c0.9-0.7,1.9-1.1,3.2-1.1c0.8,0,1.5,0.2,2.2,0.7c0.6,0.5,1.2,1.1,1.8,1.8
						c1.9-1.1,4-2,6-2.8c2-0.6,3.8-1,5.3-1c2.2,0,3.7,0.4,4.5,1.2c0.8,0.8,1.2,1.8,1.2,3c0,1.4-0.5,2.5-1.4,3.3
						C212,348.8,210.9,349.2,209.6,349.1z"/>
					<path d="M231.1,356.1l12.4-13.2c0.6-0.6,1.2-1.2,1.9-1.7c0.7-0.5,1.5-0.7,2.5-0.7c1.3,0,2.4,0.4,3.2,1.1
						c0.9,0.8,1.3,1.7,1.3,2.9c0,1.1-0.4,2.1-1.2,2.9l-11.7,12.1c2.3,3.2,4.6,6.4,6.9,9.6s4.5,6.3,6.8,9.6c0.3,0.3,0.5,0.7,0.6,1.2
						c0.1,0.5,0.2,1,0.2,1.4c-0.1,1.1-0.6,2-1.5,2.8c-0.8,0.6-1.9,1-3.1,1c-0.7,0-1.2-0.1-1.7-0.2c-0.4-0.1-0.8-0.3-1.1-0.6
						c-0.3-0.3-0.6-0.6-1-1.1c-0.3-0.5-0.7-1.1-1.1-1.7L232.9,365c-0.3,0.3-0.6,0.6-1,1c-0.3,0.4-0.6,0.7-1,1v11.8
						c0,1.6-0.3,3.1-1,4.3c-0.6,1.3-1.9,1.9-3.6,1.9c-1.3,0-2.4-0.4-3.3-1.2c-0.9-0.8-1.4-1.9-1.4-3.1v-49c0-0.9,0.1-1.7,0.2-2.4
						c0.1-0.8,0.3-1.5,0.7-2.1c0.3-0.6,0.8-1.1,1.5-1.5c0.6-0.3,1.4-0.5,2.4-0.5c1.3,0,2.4,0.4,3.3,1.2c0.9,0.8,1.4,1.9,1.4,3.1
						L231.1,356.1L231.1,356.1z"/>
					<path d="M276.2,367.4c-1.2,0-2.4-0.1-3.7-0.2c-1.3-0.1-2.6-0.2-4-0.5v4c0,1.9,0.6,3.5,1.9,4.6c1.3,1.1,3.4,1.7,6.2,1.7
						c1.6,0,3.1-0.2,4.3-0.6c1.3-0.4,2.6-0.9,4.1-1.5c0.1-0.1,0.3-0.2,0.6-0.3c0.3-0.1,0.7-0.2,1.2-0.2c1.5,0,2.6,0.4,3.2,1.3
						c0.6,0.9,1,1.7,1,2.6c0,1.3-0.6,2.4-1.7,3.2s-2.5,1.5-4.1,2c-1.6,0.5-3.2,0.9-5,1.1s-3.2,0.3-4.5,0.3c-2.7,0-5-0.4-7.1-1.1
						c-2.1-0.7-3.8-1.8-5.2-3.1c-1.4-1.3-2.5-2.9-3.2-4.7c-0.7-1.8-1.1-3.7-1.1-5.8V355c0-2.1,0.4-4.1,1.1-5.9
						c0.7-1.8,1.9-3.4,3.2-4.7c1.5-1.3,3.2-2.4,5.4-3.2c2.1-0.8,4.5-1.1,7.3-1.1c5.3,0,9.2,1.3,11.8,3.9c2.6,2.6,3.9,6.1,3.9,10.4
						c0,4.1-1.2,7.3-3.7,9.6C285.7,366.2,281.7,367.4,276.2,367.4z M282.6,354.2c0-2.3-0.6-4-1.7-4.9c-1.1-1-2.8-1.5-4.9-1.5
						c-2.4,0-4.3,0.6-5.6,1.8c-1.3,1.2-1.9,2.8-1.9,4.9v5.1c1.5,0.2,3,0.3,4.5,0.4c1.5,0.1,2.5,0.2,3.2,0.2c2.4,0,4.2-0.6,5.1-1.6
						C282.2,357.5,282.6,356,282.6,354.2z"/>
					<g>
						<g>
							<path d="M313.9,384.5c-0.3,0.9-1,1.6-1.9,2c-0.9,0.5-1.8,0.6-2.8,0.5c-0.6-0.1-1.1-0.3-1.5-0.6c-0.5-0.2-0.8-0.6-1.1-1
								s-0.5-0.8-0.6-1.3c-0.1-0.5-0.1-1,0.1-1.5l15.7-41.2c0.3-0.9,1-1.6,1.8-2c0.8-0.5,1.7-0.6,2.7-0.4c1.1,0.2,1.9,0.7,2.5,1.5
								c0.6,0.8,0.9,1.7,0.8,2.6c0,0.3-0.2,0.6-0.3,0.9L313.9,384.5z"/>
						</g>
					</g>
					<path d="M345.7,347.4c0-3.3,0.4-6.4,1.2-9.2s2.1-5.1,3.8-7.1c1.7-1.9,3.8-3.4,6.4-4.5c2.6-1.1,5.7-1.6,9.2-1.6
						c2.1,0,4.2,0.2,6.2,0.6c1.9,0.4,3.7,1.1,5.3,1.8c1.5,0.8,2.8,1.7,3.7,2.7c0.9,1,1.4,2,1.4,3.2s-0.4,2.1-1.2,2.9
						s-1.9,1.2-3.2,1.2c-0.8,0-1.5-0.2-1.9-0.4s-1-0.6-1.6-1l-0.4-0.2c-2.3-1.6-4.9-2.4-7.9-2.4c-2.2,0-4.1,0.3-5.5,1
						s-2.7,1.5-3.6,2.8c-0.9,1.2-1.5,2.7-1.9,4.4c-0.4,1.7-0.6,3.6-0.6,5.8v15.3c0,2.1,0.2,4.1,0.6,5.8c0.4,1.7,1.1,3.2,1.9,4.4
						c0.9,1.2,2.1,2.1,3.6,2.8c1.5,0.6,3.3,1,5.5,1c2.8,0,5.5-0.8,7.9-2.4l0.4-0.2c0.6-0.4,1.1-0.7,1.6-1c0.4-0.2,1.1-0.4,1.9-0.4
						c1.3,0,2.4,0.4,3.2,1.2s1.2,1.8,1.2,2.8c0,1.1-0.5,2.2-1.4,3.2c-0.9,1-2.2,1.9-3.7,2.6c-1.5,0.7-3.3,1.4-5.3,1.8
						c-1.9,0.4-4.1,0.6-6.2,0.6c-3.6,0-6.7-0.6-9.2-1.6c-2.6-1.1-4.7-2.6-6.4-4.5c-1.7-1.9-3-4.3-3.8-7c-0.8-2.8-1.2-5.8-1.2-9.2
						L345.7,347.4L345.7,347.4z"/>
					<path d="M406.9,385.1c-2.8,0-5.4-0.4-7.5-1.2c-2.2-0.8-4-1.9-5.4-3.3s-2.6-3.1-3.3-5c-0.7-1.9-1.1-4-1.1-6.2v-13.6
						c0-2.3,0.4-4.3,1.1-6.2c0.7-1.9,1.9-3.6,3.3-4.9s3.2-2.5,5.4-3.3s4.7-1.2,7.5-1.2s5.4,0.4,7.5,1.2s4,1.9,5.5,3.3
						c1.5,1.4,2.6,3.1,3.3,4.9c0.7,1.9,1.1,4,1.1,6.2v13.6c0,2.2-0.4,4.2-1.1,6.2c-0.7,1.9-1.9,3.6-3.3,5c-1.5,1.4-3.3,2.5-5.5,3.3
						C412.2,384.7,409.7,385.1,406.9,385.1z M406.9,376.9c2.7,0,4.7-0.6,6.1-1.9s2-3.2,2-5.5v-13.7c0-2.3-0.6-4.1-2-5.4
						c-1.4-1.3-3.4-1.9-6.1-1.9c-2.7,0-4.7,0.6-6.1,1.9c-1.4,1.3-2,3.2-2,5.4v13.7c0,2.4,0.6,4.2,2,5.5S404.2,376.9,406.9,376.9z"/>
					<path d="M440.9,385.1c-0.7,0-1.5-0.1-2.3-0.3c-0.8-0.2-1.5-0.6-2.2-1.3c-0.6-0.6-1.2-1.6-1.7-2.9c-0.5-1.3-0.7-2.9-0.7-5v-46.1
						c0-1.1,0.4-2.2,1.4-3c0.9-0.9,2-1.3,3.3-1.3c1.3,0,2.4,0.4,3.3,1.2s1.4,1.9,1.4,3.1v45.5c0,0.9,0.1,1.6,0.2,2.1
						c0.1,0.5,0.5,1.1,1.1,1.7c0.3,0.3,0.6,0.6,0.8,0.9c0.2,0.3,0.3,0.8,0.3,1.5c0,1.2-0.4,2.2-1.3,2.8
						C443.6,384.6,442.5,385.1,440.9,385.1z"/>
					<path d="M462.4,385.1c-0.7,0-1.5-0.1-2.3-0.3c-0.8-0.2-1.5-0.6-2.2-1.3c-0.6-0.6-1.2-1.6-1.7-2.9c-0.5-1.3-0.7-2.9-0.7-5v-46.1
						c0-1.1,0.4-2.2,1.4-3c0.9-0.9,2-1.3,3.3-1.3c1.3,0,2.4,0.4,3.3,1.2s1.4,1.9,1.4,3.1v45.5c0,0.9,0.1,1.6,0.2,2.1
						c0.1,0.5,0.5,1.1,1.1,1.7c0.3,0.3,0.6,0.6,0.8,0.9c0.2,0.3,0.3,0.8,0.3,1.5c0,1.2-0.4,2.2-1.3,2.8
						C465,384.7,463.9,385.1,462.4,385.1z"/>
					<path d="M491.9,367.4c-1.2,0-2.4-0.1-3.7-0.2c-1.3-0.1-2.6-0.2-4-0.5v4c0,1.9,0.6,3.5,1.9,4.6c1.3,1.1,3.4,1.7,6.2,1.7
						c1.6,0,3.1-0.2,4.3-0.6c1.3-0.4,2.6-0.9,4.1-1.5c0.1-0.1,0.3-0.2,0.6-0.3c0.3-0.1,0.7-0.2,1.2-0.2c1.5,0,2.6,0.4,3.2,1.3
						s1,1.7,1,2.6c0,1.3-0.6,2.4-1.7,3.2c-1.1,0.8-2.5,1.5-4.1,2c-1.6,0.5-3.2,0.9-5,1.1c-1.8,0.2-3.2,0.3-4.5,0.3
						c-2.7,0-5-0.4-7.1-1.1c-2.1-0.7-3.8-1.8-5.2-3.1c-1.4-1.3-2.5-2.9-3.2-4.7c-0.7-1.8-1.1-3.7-1.1-5.8V355c0-2.1,0.4-4.1,1.1-5.9
						c0.7-1.8,1.9-3.4,3.2-4.7c1.5-1.3,3.2-2.4,5.4-3.2c2.1-0.8,4.5-1.1,7.3-1.1c5.3,0,9.2,1.3,11.8,3.9c2.6,2.6,3.9,6.1,3.9,10.4
						c0,4.1-1.2,7.3-3.7,9.6C501.4,366.2,497.5,367.4,491.9,367.4z M498.4,354.2c0-2.3-0.6-4-1.7-4.9c-1.1-1-2.8-1.5-4.9-1.5
						c-2.4,0-4.3,0.6-5.6,1.8c-1.3,1.2-1.9,2.8-1.9,4.9v5.1c1.5,0.2,3,0.3,4.5,0.4c1.5,0.1,2.5,0.2,3.2,0.2c2.4,0,4.2-0.6,5.1-1.6
						C497.9,357.5,498.4,356,498.4,354.2z"/>
					<path d="M531.4,340.1c2.1,0,4.1,0.2,6,0.7c1.9,0.5,3.7,1.2,5.5,2.2c1.1-1.7,2.2-2.9,3.6-3.7s2.6-1.2,3.6-1.2s2.1,0.4,3,1.1
						c0.9,0.8,1.4,1.7,1.4,2.9c0,0.6-0.1,1.1-0.3,1.5c-0.2,0.4-0.5,0.7-0.7,1l-1.3,1.3c-0.6,0.6-1.1,1.1-1.5,1.5
						c-0.4,0.4-0.6,0.8-0.9,1.2c-0.2,0.4-0.4,0.8-0.5,1.3c-0.1,0.5-0.2,1.1-0.2,1.7v5.1c0,2.3-0.3,4.3-1.1,6.2
						c-0.7,1.9-1.8,3.6-3.2,4.9c-1.5,1.4-3.2,2.5-5.4,3.2c-2.1,0.8-4.6,1.2-7.5,1.2c-1,0-1.9-0.1-3-0.2c-1-0.1-1.9-0.3-2.8-0.6
						c-0.3,0.6-0.5,1.2-0.6,1.6c-0.1,0.5-0.2,0.9-0.2,1.4c0,1.3,0.4,2.2,1.2,2.6c0.8,0.4,1.6,0.6,2.4,0.6h3.6c2.7,0,5.1,0.2,7.3,0.8
						c2.3,0.5,4.2,1.3,5.8,2.4c1.7,1.1,3,2.4,3.9,4c1,1.6,1.5,3.6,1.5,5.8s-0.5,4.2-1.5,6s-2.3,3.2-4,4.5c-1.7,1.3-3.7,2.2-6,2.9
						c-2.3,0.6-4.9,1-7.6,1c-2.7,0-5-0.3-7.2-1c-2.2-0.6-4.1-1.5-5.7-2.7s-2.8-2.6-3.6-4.3c-0.9-1.7-1.3-3.6-1.3-5.8
						c0-1.9,0.4-3.6,1.2-5.2c0.8-1.6,2.1-3.1,3.8-4.6c-0.8-1.1-1.4-2.4-1.7-3.6c-0.3-1.2-0.5-2.4-0.5-3.3c0-1,0.2-2,0.6-3.2
						s1.1-2.3,2.3-3.5c-3.4-3.1-5.1-7.1-5.1-12.1c0-2.3,0.3-4.5,1.1-6.4c0.7-1.9,1.7-3.6,3.1-5.1c1.4-1.5,3.1-2.6,5.1-3.4
						C526.3,340.5,528.7,340.1,531.4,340.1z M531.1,385.9c-0.9,0-1.8,0-2.6-0.1c-0.8-0.1-1.6-0.1-2.4-0.2c-1.5,1.5-2.3,3.2-2.3,5.2
						c0,2.1,0.7,3.6,2.2,4.9c1.5,1.1,3.6,1.7,6.6,1.7c2.8,0,5-0.6,6.8-1.6s2.7-2.6,2.7-4.7c0-3.5-3-5.2-9.1-5.2H531.1L531.1,385.9z
						 M539.9,354.2c0-0.7,0-1.4,0-2.1c0-0.7,0-1.5,0.1-2.1c-1.3-0.6-2.5-1.1-3.6-1.5c-1.2-0.4-2.4-0.6-3.7-0.6
						c-2.8,0-4.8,0.7-6.2,2.2c-1.4,1.5-2,3.6-2,6.3c0,2.5,0.6,4.5,1.9,6.1c1.2,1.5,3.2,2.3,6.1,2.3c2.6,0,4.5-0.6,5.8-2
						c1.2-1.4,1.9-3.2,1.9-5.7L539.9,354.2L539.9,354.2z"/>
					<path d="M575.7,367.4c-1.2,0-2.4-0.1-3.7-0.2c-1.3-0.1-2.6-0.2-4-0.5v4c0,1.9,0.6,3.5,1.9,4.6c1.3,1.1,3.4,1.7,6.2,1.7
						c1.6,0,3.1-0.2,4.3-0.6c1.3-0.4,2.6-0.9,4.1-1.5c0.1-0.1,0.3-0.2,0.6-0.3c0.3-0.1,0.7-0.2,1.2-0.2c1.5,0,2.6,0.4,3.2,1.3
						s1,1.7,1,2.6c0,1.3-0.6,2.4-1.7,3.2c-1.1,0.8-2.5,1.5-4.1,2c-1.6,0.5-3.2,0.9-5,1.1s-3.2,0.3-4.5,0.3c-2.7,0-5-0.4-7.1-1.1
						c-2.1-0.7-3.8-1.8-5.2-3.1c-1.4-1.3-2.5-2.9-3.2-4.7c-0.7-1.8-1.1-3.7-1.1-5.8V355c0-2.1,0.4-4.1,1.1-5.9
						c0.7-1.8,1.9-3.4,3.2-4.7c1.5-1.3,3.2-2.4,5.4-3.2c2.1-0.8,4.5-1.1,7.3-1.1c5.3,0,9.2,1.3,11.8,3.9c2.6,2.6,3.9,6.1,3.9,10.4
						c0,4.1-1.2,7.3-3.7,9.6C585.2,366.2,581.3,367.4,575.7,367.4z M582.2,354.2c0-2.3-0.6-4-1.7-4.9c-1.1-1-2.8-1.5-4.9-1.5
						c-2.4,0-4.3,0.6-5.6,1.8s-1.9,2.8-1.9,4.9v5.1c1.5,0.2,3,0.3,4.5,0.4c1.5,0.1,2.5,0.2,3.2,0.2c2.5,0,4.2-0.6,5.1-1.6
						C581.7,357.5,582.2,356,582.2,354.2z"/>
				</g>
			</g>
			<g>
				<g>
					<path d="M34.5,450.4c-0.6,1.7-1.3,2.4-2.6,2.4c-1.3,0-2-0.7-2.5-2.3l-8-24.8c-0.4-1.1,0.6-2.1,1.8-2.1c0.6,0,1.3,0.2,1.5,1.2
						l7.2,23.3l7.1-23.3c0.2-0.6,0.7-1.2,1.6-1.2c1,0.1,1.8,0.8,1.8,1.9c0,0.2,0,0.2-0.1,0.5L34.5,450.4z"/>
					<path d="M52.4,451c0,1.1-0.8,1.8-1.8,1.8c-1.1,0-1.9-0.8-1.9-1.8v-19.6c0-1.9-0.2-3.2-1.1-4.3c-0.2-0.2-0.3-0.6-0.3-1
						c0-1,0.8-1.6,1.7-1.6c0.7,0,1.5,0.7,2.2,1.8c2.7-1.7,6-2.7,8-2.7c1.9,0,2.6,0.8,2.6,1.8c0,1.1-0.8,1.9-1.8,1.9
						c-2.5-0.1-4.7-0.1-7.8,2.3v0.1c0,0,0.1,0.1,0.1,1.8C52.4,431.5,52.4,451,52.4,451z"/>
					<path d="M69.6,416.4c-1.4,0-2.4-1.1-2.4-2.3c0-1.4,1.1-2.4,2.4-2.4c1.2,0,2.3,1.1,2.3,2.4C71.9,415.2,70.8,416.4,69.6,416.4z
						 M69.6,452.8c-1.1,0-1.9-0.8-1.9-1.8v-25.5c0-1.1,0.8-1.9,1.9-1.9c1,0,1.8,0.8,1.8,1.9V451C71.4,452,70.6,452.8,69.6,452.8z"/>
					<path d="M85.2,453.7c0,5.7-3,9.7-7.9,10.4c-0.5,0.1-0.6,0-1.1,0c-0.6,0-1.4-0.5-1.5-1.1c-0.2-1.3,0.6-1.9,1.4-1.9
						c3.4-0.8,5.3-2.6,5.3-7.1v-28.5c0-1.1,0.8-1.9,1.9-1.9c1,0,1.8,0.8,1.8,1.9v28.3H85.2z M83.5,416.4c-1.4,0-2.4-1.1-2.4-2.3
						c0-1.4,1.1-2.4,2.4-2.4c1.2,0,2.3,1.1,2.3,2.4C85.7,415.2,84.7,416.4,83.5,416.4z"/>
					<path d="M109.6,448.1c0.1-0.1,0.4-0.2,0.6-0.2c0.9,0,1.5,0.8,1.5,1.5c0,2.5-6,3.3-8.9,3.3c-6.3,0-9.9-4-9.9-9.2v-10.8
						c0-5.4,3.6-9.4,10.2-9.4c6.2,0,9.1,3.6,9.1,9c0,5.1-2.8,8.2-9.3,8.2c-1.9,0-4.1-0.2-6.3-0.6v4c0,3.4,2.3,5.8,6.8,5.8
						C106.1,449.7,107.6,449,109.6,448.1z M103.1,426.6c-4.1,0-6.4,2.3-6.4,5.8v4.8c2.4,0.3,5.4,0.5,6.6,0.5c4.7,0,5.5-2.5,5.5-5.2
						C108.8,428.3,106.7,426.6,103.1,426.6z"/>
					<path d="M130.1,412.9c0-0.9,0.6-1.8,1.9-1.8s1.8,0.9,1.8,1.8v13.2c2.5-1.8,5.1-2.8,8.2-2.8c6.2,0,8.5,3.8,8.5,8.6v10.9
						c0,5.6-3.4,9.9-10.1,9.9c-6.6,0-10.2-3.8-10.2-8.7V412.9z M133.7,444.1c0,3.3,2.5,5.4,6.6,5.4c4.5,0,6.5-2.5,6.5-6.6v-10.9
						c0-3.5-1.8-5.6-6-5.6c-3,0-5.3,1.2-7.1,3.2L133.7,444.1L133.7,444.1z"/>
					<path d="M171.8,433.2c0-4.5-2.1-6.7-6.6-6.7c-2.1,0-3.2,0.5-4.5,1.2c-0.3,0.2-0.8,0.5-1.4,0.5c-0.8,0-1.2-0.8-1.2-1.5
						c-0.2-2.4,4-3.3,7.7-3.3c6.9,0,9.7,4,9.7,11.4v12.7c0,1.5,0.5,2.2,1.5,2.2c0.2,0,0.3-0.1,0.5-0.1c0.8,0,1.2,0.8,1.2,1.5
						c0,1.1-1.1,1.5-2.1,1.5c-1.8,0-3.2-1.2-4.3-3.2c-2.4,2.3-5,3.4-8,3.4c-5.7,0-8.4-3.4-8.4-8.3v-0.2c0-5.4,3.2-8.2,9.8-8.2
						c1.9,0,4.1,0.4,6.2,1.1L171.8,433.2L171.8,433.2z M159.4,444.3v0.2c0,2.9,1.3,5.1,5.6,5.1c2.6,0,4.7-0.9,6.9-2.8v-6.7
						c-2.3-0.7-4.6-1.1-6.3-1.1C160.3,439.1,159.4,441.4,159.4,444.3z"/>
					<path d="M192.8,423.3c2.8,0,7.3,0.6,7.3,2.8c0,0.9-0.6,1.6-1.6,1.6c-0.3,0-0.6-0.1-0.8-0.2c-1.3-0.6-2.4-1.1-4.6-1.1
						c-3.8,0-5.6,1.5-5.6,4.5c0,2,0.8,3,3,4.2c4.5,2.2,10.5,2.8,10.5,9.5c0,4.9-3.2,8-9.3,8c-2.8,0-8.2-0.6-8.2-2.8
						c0-0.8,0.6-1.7,1.8-1.7c0.1,0,0.2,0,0.3,0.1c1.7,0.6,3.6,1.4,6.1,1.4c3.4,0,5.8-1.4,5.8-4.7c0-2.4-1.1-3.4-2.3-4.1
						c-4.4-2.2-11.2-2.8-11.2-9.5C183.9,426.5,186.9,423.3,192.8,423.3z"/>
					<path d="M209.5,416.4c-1.4,0-2.4-1.1-2.4-2.3c0-1.4,1.1-2.4,2.4-2.4c1.2,0,2.3,1.1,2.3,2.4
						C211.8,415.2,210.7,416.4,209.5,416.4z M209.5,452.8c-1.1,0-1.9-0.8-1.9-1.8v-25.5c0-1.1,0.8-1.9,1.9-1.9c1,0,1.8,0.8,1.8,1.9
						V451C211.3,452,210.5,452.8,209.5,452.8z"/>
					<path d="M228.5,423.3c2.8,0,7.3,0.6,7.3,2.8c0,0.9-0.6,1.6-1.6,1.6c-0.3,0-0.6-0.1-0.8-0.2c-1.3-0.6-2.4-1.1-4.6-1.1
						c-3.8,0-5.6,1.5-5.6,4.5c0,2,0.8,3,3,4.2c4.5,2.2,10.5,2.8,10.5,9.5c0,4.9-3.2,8-9.3,8c-2.8,0-8.2-0.6-8.2-2.8
						c0-0.8,0.6-1.7,1.8-1.7c0.1,0,0.2,0,0.3,0.1c1.7,0.6,3.6,1.4,6.1,1.4c3.4,0,5.8-1.4,5.8-4.7c0-2.4-1.1-3.4-2.3-4.1
						c-4.4-2.2-11.2-2.8-11.2-9.5C219.6,426.5,222.7,423.3,228.5,423.3z"/>
					<path d="M250.9,423.3c2.8,0,7.3,0.6,7.3,2.8c0,0.9-0.6,1.6-1.6,1.6c-0.3,0-0.6-0.1-0.8-0.2c-1.3-0.6-2.4-1.1-4.6-1.1
						c-3.8,0-5.6,1.5-5.6,4.5c0,2,0.8,3,3,4.2c4.5,2.2,10.5,2.8,10.5,9.5c0,4.9-3.2,8-9.3,8c-2.8,0-8.2-0.6-8.2-2.8
						c0-0.8,0.6-1.7,1.8-1.7c0.1,0,0.2,0,0.3,0.1c1.7,0.6,3.6,1.4,6.1,1.4c3.4,0,5.8-1.4,5.8-4.7c0-2.4-1.1-3.4-2.3-4.1
						c-4.4-2.2-11.2-2.8-11.2-9.5C241.9,426.5,245.1,423.3,250.9,423.3z"/>
					<path d="M264.3,433.8c0-5.8,3.1-10.2,10.1-10.2c2.5,0,7.6,0.6,7.6,3.1c0,0.8-0.6,1.5-1.5,1.5c-0.3,0-0.6-0.1-0.8-0.1h0.1
						c-1.4-0.7-2.8-1.4-4.9-1.4c-4.9,0-6.8,2.7-6.8,7.1v8.8c0,4.5,1.9,7.1,6.8,7.1c2.2,0,3.5-0.6,4.9-1.4h-0.1
						c0.4-0.1,0.6-0.2,0.8-0.2c0.8,0,1.5,0.7,1.5,1.5c0,2.4-5.1,3.1-7.6,3.1c-7,0-10.1-4.5-10.1-10.2V433.8z"/>
					<path d="M289.5,452.8c-1.1,0-1.9-0.8-1.9-1.8v-38.4c0-0.9,0.7-1.9,1.8-1.9c1.1,0,1.8,0.8,1.8,1.9v13.7c2.4-1.9,5.1-2.9,7.8-2.9
						c5.9,0,8.6,3.8,8.6,9.2V451c0,1.1-0.8,1.8-1.8,1.8c-1,0-1.9-0.8-1.9-1.8v-18.3c0-3.8-1.5-6-5.4-6c-2.4,0-5.3,1.2-7.2,3.7V451
						C291.2,452,290.5,452.8,289.5,452.8z"/>
					<path d="M314.5,442.9v-9.7c0-5.6,3.6-9.9,10.4-9.9c6.8,0,10.4,4.3,10.4,9.9v9.7c0,5.6-3.6,9.9-10.4,9.9
						C318.2,452.8,314.5,448.5,314.5,442.9z M331.7,442.9v-9.7c0-4.1-2.3-6.6-6.7-6.6c-4.5,0-6.7,2.5-6.7,6.6v9.7
						c0,4.1,2.3,6.6,6.7,6.6C329.5,449.5,331.7,446.9,331.7,442.9z"/>
					<path d="M340.7,442.9v-9.7c0-5.6,3.6-9.9,10.4-9.9c6.8,0,10.4,4.3,10.4,9.9v9.7c0,5.6-3.6,9.9-10.4,9.9
						C344.4,452.8,340.7,448.5,340.7,442.9z M357.8,442.9v-9.7c0-4.1-2.3-6.6-6.7-6.6s-6.7,2.5-6.7,6.6v9.7c0,4.1,2.3,6.6,6.7,6.6
						C355.6,449.5,357.8,446.9,357.8,442.9z"/>
					<path d="M368.6,413c0-1,0.8-1.9,1.8-1.9c1,0,1.8,0.8,1.8,1.9v34.4c0,1.3,0.2,2.3,1.1,3.1c0.1,0.2,0.2,0.6,0.2,0.8
						c0,1-0.6,1.6-1.6,1.6c-1.2,0-3.2-0.6-3.2-5.4V413z"/>
					<path d="M409.8,419.3c-2.1,9.4-5,21.9-7.1,31.2c-0.3,1-1.1,2.3-2.7,2.3c-1.4,0-2.3-1.1-2.7-2.3l-8.6-36.5v-0.2
						c0-1.1,1.2-1.5,2.2-1.5c0.6,0,1.4,0.6,1.7,1.4l7.5,32.5l7.1-31.1c0.5-1.9,1.1-3.1,2.6-3.1c1.5,0,2.1,1.2,2.5,3.1l7.1,31.1
						l7.5-32.6c0.2-0.8,0.8-1.4,1.5-1.4c1.1,0,2.3,0.5,2.3,1.6c0,0.1,0,0.3-0.1,0.5v0.1l-8.6,36.1c-0.3,1.2-1.2,2.3-2.7,2.3
						s-2.4-1.2-2.7-2.4L409.8,419.3z"/>
					<path d="M448.5,433.2c0-4.5-2.1-6.7-6.6-6.7c-2.1,0-3.2,0.5-4.5,1.2c-0.3,0.2-0.8,0.5-1.4,0.5c-0.8,0-1.2-0.8-1.2-1.5
						c-0.2-2.4,4-3.3,7.7-3.3c6.9,0,9.7,4,9.7,11.4v12.7c0,1.5,0.5,2.2,1.5,2.2c0.2,0,0.3-0.1,0.5-0.1c0.8,0,1.2,0.8,1.2,1.5
						c0,1.1-1.1,1.5-2.1,1.5c-1.8,0-3.2-1.2-4.3-3.2c-2.4,2.3-5,3.4-8,3.4c-5.7,0-8.4-3.4-8.4-8.3v-0.2c0-5.4,3.2-8.2,9.8-8.2
						c1.9,0,4.1,0.4,6.2,1.1L448.5,433.2L448.5,433.2z M436.1,444.3v0.2c0,2.9,1.3,5.1,5.6,5.1c2.6,0,4.7-0.9,6.9-2.8v-6.7
						c-2.3-0.7-4.6-1.1-6.3-1.1C437.1,439.1,436.1,441.4,436.1,444.3z"/>
					<path d="M465.2,451c0,1.1-0.8,1.8-1.8,1.8c-1.1,0-1.9-0.8-1.9-1.8v-19.6c0-1.9-0.2-3.2-1.1-4.3c-0.2-0.2-0.3-0.6-0.3-1
						c0-1,0.8-1.6,1.7-1.6c0.7,0,1.5,0.7,2.2,1.8c2.7-1.7,6-2.7,8-2.7c1.9,0,2.6,0.8,2.6,1.8c0,1.1-0.8,1.9-1.8,1.9
						c-2.5-0.1-4.7-0.1-7.8,2.3v0.1c0,0,0.1,0.1,0.1,1.8V451z"/>
					<path d="M495.1,448.1c0.1-0.1,0.4-0.2,0.6-0.2c0.9,0,1.5,0.8,1.5,1.5c0,2.5-6,3.3-8.9,3.3c-6.3,0-9.9-4-9.9-9.2v-10.8
						c0-5.4,3.6-9.4,10.2-9.4c6.2,0,9.2,3.6,9.2,9c0,5.1-2.8,8.2-9.3,8.2c-1.9,0-4.1-0.2-6.3-0.6v4c0,3.4,2.3,5.8,6.8,5.8
						C491.6,449.7,493.1,449,495.1,448.1z M488.6,426.6c-4.1,0-6.4,2.3-6.4,5.8v4.8c2.4,0.3,5.4,0.5,6.6,0.5c4.7,0,5.5-2.5,5.5-5.2
						C494.2,428.3,492.1,426.6,488.6,426.6z"/>
					<path d="M521.1,425.5c1.4-2.5,3.3-3.6,4.4-3.6c1,0,1.7,0.6,1.7,1.6c0,0.5-0.1,0.7-0.2,0.8l-0.5,0.6c-1.9,1.8-2.8,2.7-2.8,5.4
						v3.6c0,5.6-3.3,10.1-10.1,10.1c-1.7,0-3.3-0.3-4.8-0.9c-0.7,1.3-1,2.4-1,3.2c0,2.4,2.1,2.9,3.6,2.9h2.4
						c6.3,0,11.1,2.5,11.1,7.9c0,5.6-4.9,8.9-11.4,8.9c-6.3,0-10.7-3.1-10.7-8.4c0-2.6,1.1-4.8,3.2-6.7c-1.5-1.4-1.9-3.2-1.9-4.5
						c0-1.2,0.5-3,2.5-4.7c-2.3-2.1-3.4-4.9-3.4-8.2c0-5.8,3.2-10.2,10-10.2C515.8,423.3,518.7,424.2,521.1,425.5z M508.7,452.3
						c-1.5,1.2-2.3,2.8-2.3,4.7c0,3.8,2.5,5.8,7.2,5.8c4.5,0,7.6-1.8,7.6-5.6c0-3.2-2.4-4.6-7.4-4.6h-2.4
						C510.4,452.6,509.5,452.5,508.7,452.3z M520.2,428.5c-2-1.2-4.1-1.9-6.3-1.9c-4.5,0-6.9,2.6-6.9,7.1c0,4.1,1.9,7,6.7,7
						c4.5,0,6.4-2.5,6.4-6.6v-3.6C520,430.2,520,429.3,520.2,428.5z"/>
					<path d="M546.7,448.1c0.1-0.1,0.4-0.2,0.6-0.2c0.9,0,1.5,0.8,1.5,1.5c0,2.5-6,3.3-8.9,3.3c-6.3,0-9.9-4-9.9-9.2v-10.8
						c0-5.4,3.6-9.4,10.2-9.4c6.2,0,9.2,3.6,9.2,9c0,5.1-2.8,8.2-9.3,8.2c-1.9,0-4.1-0.2-6.3-0.6v4c0,3.4,2.3,5.8,6.8,5.8
						C543.1,449.7,544.7,449,546.7,448.1z M540.1,426.6c-4.1,0-6.4,2.3-6.4,5.8v4.8c2.4,0.3,5.4,0.5,6.6,0.5c4.7,0,5.5-2.5,5.5-5.2
						C545.8,428.3,543.7,426.6,540.1,426.6z"/>
					<path d="M567.4,423.3c3,0,5.1,1.1,6.7,3.2c2.6-1.9,5.4-3.2,8.5-3.2c6,0,9.2,3.8,9.2,9.5V451c0,1.1-0.6,1.8-1.8,1.8
						c-1.2,0-1.9-0.7-1.9-1.8v-18c0-3.5-1.8-6.3-5.7-6.3c-2.7,0-5.3,1.5-6.8,3.4c0.2,0.8,0.2,1.8,0.2,2.8V451c0,1.1-0.6,1.8-1.8,1.8
						c-1.2,0-1.9-0.7-1.9-1.8v-16.9c0-4.4-0.7-7.5-5.3-7.5c-2.6,0-5.4,1.2-7.1,2.6c0.1,0.6,0.2,1.3,0.2,2V451c0,1.1-0.6,1.8-1.8,1.8
						c-1.2,0-1.9-0.7-1.9-1.8v-19.7c0-1.9-0.2-3.2-1.1-4.3c-0.2-0.2-0.3-0.6-0.3-1c0-1,0.8-1.6,1.6-1.6c0.7,0,1.5,0.5,2.2,1.8
						C561.5,424.4,564.4,423.3,567.4,423.3z"/>
				</g>
			</g>
		</g>
		<g>
			<circle cx="124.9" cy="226.1" r="20.8"/>
			<circle cx="251.5" cy="92.4" r="68.4"/>
			<circle cx="311.4" cy="227" r="49.5"/>
			<circle cx="200.7" cy="208" r="33.5"/>
			<path d="M345.2,114.8c0,45.8,37.1,83,83,83s83-37.1,83-83s-37.1-83-83-83S345.2,69,345.2,114.8z M381.6,116.3
				c0-25.7,20.8-46.6,46.6-46.6c25.7,0,46.6,20.8,46.6,46.6s-20.8,46.6-46.6,46.6C402.4,162.9,381.6,142.1,381.6,116.3z"/>
		</g>
	</g>
</g>
<g id="Lijnen" class="st1">
	<line class="st2" x1="71.7" y1="902" x2="71.7" y2="-388"/>
	<line class="st2" x1="-96.3" y1="901.5" x2="-96.3" y2="-388.5"/>
	<line class="st2" x1="174.7" y1="902.5" x2="174.7" y2="-387.5"/>
	<line class="st2" x1="676.7" y1="901.5" x2="676.7" y2="-388.5"/>
	<line class="st2" x1="775.7" y1="902.5" x2="775.7" y2="-387.5"/>
	<line class="st2" x1="944.7" y1="921.5" x2="944.7" y2="-368.5"/>
	<line class="st2" x1="-460.3" y1="-27" x2="1380.7" y2="-27"/>
	<line class="st2" x1="-472.8" y1="-195" x2="1368.2" y2="-195"/>
	<line class="st2" x1="-670.8" y1="686" x2="1170.2" y2="686"/>
	<line class="st2" x1="-459.8" y1="363" x2="1381.2" y2="363"/>
	<line class="st2" x1="-459.8" y1="344" x2="1381.2" y2="344"/>
	<line class="st2" x1="-459.8" y1="418" x2="1381.2" y2="418"/>
	<line class="st2" x1="-525.8" y1="449" x2="1315.2" y2="449"/>
	<line class="st2" x1="-472.8" y1="465" x2="1368.2" y2="465"/>
	<line class="st2" x1="-459.8" y1="518" x2="1381.2" y2="518"/>
	<line class="st2" x1="-459.8" y1="501" x2="1381.2" y2="501"/>
	<rect x="-96.3" y="-195" class="st3" width="1041" height="881"/>
	<circle class="st4" cx="860.7" cy="416.9" r="84.4"/>
	<circle class="st4" cx="592.7" cy="-111.1" r="84.4"/>
	<circle class="st4" cx="155.7" cy="601.9" r="84.4"/>
	<circle class="st4" cx="-12.3" cy="56.9" r="84.4"/>
</g>
</svg>
