<?xml version="1.0" encoding="utf-8"?>
<!-- Generator: Adobe Illustrator 22.0.1, SVG Export Plug-In . SVG Version: 6.00 Build 0)  -->
<svg version="1.1" xmlns="http://www.w3.org/2000/svg" xmlns:xlink="http://www.w3.org/1999/xlink" x="0px" y="0px"
	 viewBox="0 0 848.8 641.3" style="enable-background:new 0 0 848.8 641.3;" xml:space="preserve">
<style type="text/css">
	.st0{fill:#FFFFFF;}
	.st1{display:none;}
	.st2{display:inline;fill:none;stroke:#CCCCCC;stroke-width:0.9851;stroke-miterlimit:10;}
	.st3{display:inline;fill:none;stroke:#B3B3B3;stroke-width:4;stroke-miterlimit:10;}
	.st4{display:inline;fill:#F2F2F2;}
</style>
<g id="Laag_1">
	<rect x="-27.8" y="-30.5" width="900" height="702"/>
	<g>
		<g>
			<g>
				<g>
					<path class="st0" d="M84.4,471.3c0,2.6,0.2,5,0.7,7.1c0.5,2.1,1.3,3.9,2.4,5.4c1.1,1.5,2.6,2.6,4.5,3.4
						c1.8,0.8,4.1,1.2,6.8,1.2c2.2,0,4.1-0.3,5.8-0.8c1.7-0.5,3.2-1.3,4.6-2.3v-19.7h-8c-1.4,0-2.7-0.5-3.7-1.6
						c-1.1-1.1-1.6-2.3-1.6-3.8c0-1.5,0.5-2.7,1.6-3.8c1.1-1,2.3-1.5,3.7-1.5h12.1c2,0,3.7,0.5,5.2,1.5c1.5,1,2.2,2.6,2.2,4.6v24.5
						c0,2.3-0.7,4.3-2.1,6c-1.4,1.7-3.2,3-5.4,4.1c-2.2,1.1-4.6,1.8-7.3,2.3c-2.7,0.5-5.3,0.7-7.8,0.7c-4.4,0-8.2-0.7-11.4-2
						c-3.2-1.3-5.8-3.2-7.9-5.5c-2.1-2.4-3.7-5.3-4.7-8.6c-1-3.4-1.5-7.1-1.5-11.3v-18.9c0-4.1,0.5-7.9,1.5-11.3
						c1-3.4,2.6-6.3,4.7-8.7c2.1-2.4,4.7-4.2,7.9-5.5s7-2,11.4-2c2.6,0,5.2,0.3,7.6,0.8c2.4,0.5,4.6,1.3,6.5,2.2
						c1.9,1,3.4,2.1,4.6,3.3c1.1,1.2,1.7,2.5,1.7,3.9c0,1.4-0.5,2.6-1.5,3.6c-1,1-2.3,1.5-3.9,1.5c-1,0-1.8-0.2-2.3-0.5
						c-0.5-0.3-1.2-0.7-2-1.2l-0.5-0.3c-1.4-1-2.9-1.7-4.5-2.2c-1.6-0.5-3.3-0.7-5.2-0.7c-2.7,0-5,0.4-6.8,1.2
						c-1.8,0.8-3.3,1.9-4.5,3.4c-1.1,1.5-1.9,3.3-2.4,5.4c-0.5,2.1-0.7,4.5-0.7,7.1V471.3z"/>
					<path class="st0" d="M159.7,462.4c0-6.2-3.3-9.4-9.8-9.4c-1.4,0-2.6,0.1-3.5,0.4c-0.9,0.3-1.8,0.6-2.8,1l-2,0.9
						c-0.7,0.4-1.6,0.5-2.8,0.5c-1.6,0-2.7-0.5-3.4-1.5c-0.7-1-1-2.1-1-3.2c0-1.4,0.5-2.6,1.4-3.6c0.9-1,2.2-1.8,3.7-2.4
						c1.6-0.6,3.3-1.1,5.3-1.4c2-0.3,4-0.4,6.1-0.4c7.2,0,12.4,1.8,15.5,5.5c3.1,3.7,4.7,9.1,4.7,16.2v21.6c0,1.3,0.2,2.2,0.7,2.6
						c0.5,0.4,1.1,0.7,1.9,0.8c2.1,0.4,3.2,1.7,3.2,3.8c0,3-2.1,4.5-6.3,4.5c-3.7,0-6.5-1.6-8.5-4.8c-4,3.4-8.8,5.1-14.5,5.1
						c-5.8,0-10.2-1.5-13.1-4.5c-2.9-3-4.4-7-4.4-11.9v-0.3c0-10.7,6.6-16.1,19.9-16.1c3.3,0,6.5,0.4,9.6,1.3V462.4z M150.4,474.6
						c-1.8,0-3.4,0.2-4.5,0.6c-1.2,0.4-2.1,0.9-2.7,1.6c-0.6,0.7-1.1,1.5-1.3,2.4c-0.2,0.9-0.3,1.9-0.3,2.9v0.3
						c0,2.1,0.6,3.8,1.8,4.9c1.2,1.2,3.2,1.8,6.2,1.8c1.8,0,3.6-0.3,5.2-0.9c1.6-0.6,3.3-1.5,4.9-2.9v-9.6c-1.6-0.4-3.2-0.6-4.8-0.9
						C153.3,474.7,151.8,474.6,150.4,474.6z"/>
					<path class="st0" d="M222.1,453.5c-2.3,6.6-4.6,13.2-6.8,19.7c-2.2,6.5-4.4,13.1-6.7,19.8c-0.7,2.1-1.6,3.5-2.7,4.4
						c-1.1,0.9-2.5,1.3-4.3,1.3c-1.9,0-3.4-0.4-4.4-1.3c-1-0.9-1.9-2.3-2.6-4.3c-2.3-6.7-4.6-13.3-6.9-19.9
						c-2.3-6.6-4.6-13.2-6.9-19.9l-1.2-4.2c0-0.1,0-0.2-0.1-0.3c0-0.1-0.1-0.2-0.1-0.3c0-1.4,0.6-2.6,1.8-3.6c1.2-1,2.5-1.4,3.9-1.4
						c1.1,0,2.1,0.3,3.2,1c1.1,0.6,1.8,1.6,2.1,2.8c1,3.2,2,6.4,3,9.5c1,3.1,2,6.3,3,9.5c1,3.2,1.9,6.3,2.6,9.4
						c0.7,3.1,1.5,6.2,2.4,9.4c0.8-3.2,1.5-6.3,2.2-9.4c0.7-3.1,1.6-6.2,2.6-9.4c1-3.2,2-6.3,2.9-9.5c1-3.1,1.9-6.3,2.9-9.5
						c0.4-1.1,1-1.9,2.1-2.6c1-0.7,2.1-1,3.2-1c1.5,0,2.8,0.5,3.9,1.4c1.1,1,1.7,2.2,1.7,3.7v0.6L222.1,453.5z"/>
					<path class="st0" d="M251,476.9c-1.5,0-3-0.1-4.6-0.2c-1.6-0.1-3.2-0.3-4.9-0.6v4.9c0,2.4,0.8,4.3,2.4,5.7
						c1.6,1.4,4.2,2.1,7.6,2.1c2,0,3.8-0.2,5.3-0.7c1.6-0.5,3.2-1.1,5-1.9c0.1-0.1,0.4-0.3,0.8-0.4c0.4-0.1,0.9-0.2,1.5-0.2
						c1.8,0,3.2,0.5,4,1.6c0.8,1.1,1.2,2.1,1.2,3.2c0,1.6-0.7,3-2.1,4c-1.4,1-3.1,1.9-5,2.5c-2,0.6-4,1.1-6.2,1.3
						c-2.2,0.2-4,0.4-5.6,0.4c-3.3,0-6.2-0.5-8.7-1.4c-2.6-0.9-4.7-2.2-6.4-3.8c-1.7-1.6-3.1-3.6-4-5.8c-0.9-2.2-1.4-4.6-1.4-7.2
						v-18.8c0-2.6,0.5-5.1,1.4-7.3c0.9-2.2,2.3-4.2,4-5.8c1.8-1.6,4-2.9,6.6-3.9c2.6-1,5.6-1.4,9-1.4c6.5,0,11.3,1.6,14.5,4.8
						c3.2,3.2,4.8,7.5,4.8,12.8c0,5-1.5,9-4.6,11.8C262.8,475.5,257.8,476.9,251,476.9z M259,460.6c0-2.8-0.7-4.9-2.1-6.1
						c-1.4-1.2-3.4-1.8-6-1.8c-3,0-5.3,0.7-6.9,2.2c-1.6,1.5-2.4,3.5-2.4,6.1v6.3c1.8,0.2,3.7,0.4,5.5,0.5c1.8,0.1,3.1,0.2,3.9,0.2
						c3,0,5.2-0.7,6.3-2C258.4,464.7,259,462.9,259,460.6z"/>
					<path class="st0" d="M305,454.3c-1.1,0-2.2,0-3.1,0c-1,0-1.9,0.1-2.8,0.2c-0.9,0.1-1.8,0.4-2.8,0.7c-1,0.4-2,0.9-3.1,1.5
						c0.1,0.5,0.1,0.9,0.2,1.3c0,0.4,0.1,0.8,0.1,1.1v34.1c0,1.6-0.6,2.9-1.6,3.9c-1.1,1-2.5,1.5-4.1,1.5c-1.6,0-3-0.5-4.1-1.5
						c-1.1-1-1.7-2.3-1.7-3.9v-34.1c0-1.5-0.1-2.7-0.3-3.6c-0.2-0.9-0.6-1.8-1.2-2.6c-0.4-0.4-0.6-0.9-0.8-1.3
						c-0.2-0.4-0.3-1-0.3-1.6c0-1.5,0.5-2.7,1.6-3.6c1.1-0.9,2.4-1.4,3.9-1.4c1,0,1.9,0.3,2.7,0.9c0.8,0.6,1.5,1.3,2.2,2.2
						c2.4-1.4,4.9-2.5,7.4-3.4c2.5-0.8,4.7-1.2,6.5-1.2c2.7,0,4.6,0.5,5.6,1.5c1,1,1.5,2.2,1.5,3.7c0,1.7-0.6,3.1-1.7,4.1
						C308,454,306.6,454.5,305,454.3z"/>
					<path class="st0" d="M331.5,463l15.3-16.3c0.7-0.8,1.5-1.5,2.3-2.1c0.9-0.6,1.9-0.9,3.1-0.9c1.6,0,2.9,0.5,3.9,1.4
						c1.1,1,1.6,2.1,1.6,3.6c0,1.4-0.5,2.6-1.5,3.6l-14.4,14.9c2.8,4,5.7,7.9,8.5,11.8c2.8,3.9,5.6,7.8,8.4,11.8
						c0.4,0.4,0.6,0.9,0.7,1.5c0.1,0.6,0.2,1.2,0.2,1.7c-0.1,1.4-0.7,2.5-1.8,3.4c-1,0.8-2.3,1.2-3.8,1.2c-0.9,0-1.5-0.1-2.1-0.2
						c-0.5-0.1-1-0.4-1.4-0.7c-0.4-0.4-0.8-0.8-1.2-1.4c-0.4-0.6-0.9-1.3-1.4-2.1l-14.1-20.2c-0.4,0.4-0.8,0.8-1.2,1.2
						c-0.4,0.5-0.8,0.9-1.2,1.2v14.6c0,2-0.4,3.8-1.2,5.3c-0.8,1.6-2.3,2.3-4.5,2.3c-1.6,0-3-0.5-4.1-1.5c-1.1-1-1.7-2.3-1.7-3.8
						v-60.4c0-1.1,0.1-2.1,0.2-3c0.1-1,0.4-1.8,0.9-2.6c0.4-0.7,1-1.3,1.8-1.8c0.7-0.4,1.7-0.6,2.9-0.6c1.6,0,3,0.5,4.1,1.5
						c1.1,1,1.7,2.3,1.7,3.8V463z"/>
					<path class="st0" d="M387.2,476.9c-1.5,0-3-0.1-4.6-0.2c-1.6-0.1-3.2-0.3-4.9-0.6v4.9c0,2.4,0.8,4.3,2.4,5.7
						c1.6,1.4,4.2,2.1,7.6,2.1c2,0,3.8-0.2,5.3-0.7c1.6-0.5,3.2-1.1,5-1.9c0.1-0.1,0.4-0.3,0.8-0.4c0.4-0.1,0.9-0.2,1.5-0.2
						c1.8,0,3.2,0.5,4,1.6c0.8,1.1,1.2,2.1,1.2,3.2c0,1.6-0.7,3-2.1,4c-1.4,1-3.1,1.9-5,2.5c-2,0.6-4,1.1-6.2,1.3
						c-2.2,0.2-4,0.4-5.6,0.4c-3.3,0-6.2-0.5-8.7-1.4c-2.6-0.9-4.7-2.2-6.4-3.8c-1.7-1.6-3.1-3.6-4-5.8c-0.9-2.2-1.4-4.6-1.4-7.2
						v-18.8c0-2.6,0.5-5.1,1.4-7.3c0.9-2.2,2.3-4.2,4-5.8c1.8-1.6,4-2.9,6.6-3.9c2.6-1,5.6-1.4,9-1.4c6.5,0,11.3,1.6,14.5,4.8
						c3.2,3.2,4.8,7.5,4.8,12.8c0,5-1.5,9-4.6,11.8C398.9,475.5,394,476.9,387.2,476.9z M395.1,460.6c0-2.8-0.7-4.9-2.1-6.1
						c-1.4-1.2-3.4-1.8-6-1.8c-3,0-5.3,0.7-6.9,2.2c-1.6,1.5-2.4,3.5-2.4,6.1v6.3c1.8,0.2,3.7,0.4,5.5,0.5c1.8,0.1,3.1,0.2,3.9,0.2
						c3,0,5.2-0.7,6.3-2C394.6,464.7,395.1,462.9,395.1,460.6z"/>
					<g>
						<g>
							<path class="st0" d="M433.6,498c-0.4,1.1-1.2,2-2.3,2.5c-1.1,0.6-2.2,0.7-3.4,0.6c-0.7-0.1-1.3-0.4-1.9-0.7
								c-0.6-0.3-1-0.8-1.4-1.2s-0.6-1-0.8-1.6c-0.1-0.6-0.1-1.2,0.1-1.8l19.3-50.8c0.4-1.1,1.2-2,2.2-2.5c1-0.6,2.1-0.7,3.3-0.5
								c1.3,0.2,2.3,0.9,3.1,1.9c0.8,1,1.1,2.1,1,3.2c0,0.4-0.2,0.8-0.4,1.1L433.6,498z"/>
						</g>
					</g>
					<path class="st0" d="M472.8,452.3c0-4.1,0.5-7.9,1.5-11.3c1-3.4,2.6-6.3,4.7-8.7c2.1-2.4,4.7-4.2,7.9-5.5s7-2,11.4-2
						c2.6,0,5.2,0.3,7.6,0.8c2.4,0.5,4.6,1.3,6.5,2.2c1.9,1,3.4,2.1,4.6,3.3c1.1,1.2,1.7,2.5,1.7,3.9c0,1.4-0.5,2.6-1.5,3.6
						c-1,1-2.3,1.5-3.9,1.5c-1,0-1.8-0.2-2.3-0.5c-0.5-0.3-1.2-0.7-2-1.2l-0.5-0.3c-2.8-2-6.1-3-9.7-3c-2.7,0-5,0.4-6.8,1.2
						c-1.8,0.8-3.3,1.9-4.5,3.4c-1.1,1.5-1.9,3.3-2.4,5.4c-0.5,2.1-0.7,4.5-0.7,7.1v18.9c0,2.6,0.2,5,0.7,7.1
						c0.5,2.1,1.3,3.9,2.4,5.4c1.1,1.5,2.6,2.6,4.5,3.4c1.8,0.8,4.1,1.2,6.8,1.2c3.5,0,6.8-1,9.7-2.9l0.5-0.3c0.8-0.5,1.4-0.9,2-1.2
						c0.5-0.3,1.3-0.5,2.3-0.5c1.6,0,2.9,0.5,3.9,1.5c1,1,1.5,2.2,1.5,3.5c0,1.4-0.6,2.7-1.7,4c-1.1,1.2-2.7,2.3-4.6,3.2
						c-1.9,0.9-4.1,1.7-6.5,2.2c-2.4,0.5-5,0.8-7.6,0.8c-4.4,0-8.2-0.7-11.4-2c-3.2-1.3-5.8-3.2-7.9-5.5c-2.1-2.4-3.7-5.3-4.7-8.6
						c-1-3.4-1.5-7.1-1.5-11.3V452.3z"/>
					<path class="st0" d="M548.3,498.7c-3.5,0-6.7-0.5-9.3-1.5c-2.7-1-4.9-2.4-6.7-4.1c-1.8-1.7-3.2-3.8-4.1-6.2
						c-0.9-2.4-1.4-4.9-1.4-7.6v-16.8c0-2.8,0.5-5.3,1.4-7.7c0.9-2.3,2.3-4.4,4.1-6.1c1.8-1.7,4-3.1,6.7-4.1c2.7-1,5.8-1.5,9.3-1.5
						c3.5,0,6.6,0.5,9.3,1.5c2.7,1,4.9,2.4,6.8,4.1c1.8,1.7,3.2,3.8,4.1,6.1c0.9,2.3,1.4,4.9,1.4,7.7v16.8c0,2.7-0.5,5.2-1.4,7.6
						c-0.9,2.4-2.3,4.4-4.1,6.2c-1.8,1.7-4.1,3.1-6.8,4.1C554.9,498.2,551.8,498.7,548.3,498.7z M548.3,488.6c3.3,0,5.8-0.8,7.5-2.4
						c1.7-1.6,2.5-3.9,2.5-6.8v-16.9c0-2.8-0.8-5.1-2.5-6.7c-1.7-1.6-4.2-2.4-7.5-2.4c-3.3,0-5.8,0.8-7.5,2.4
						c-1.7,1.6-2.5,3.9-2.5,6.7v16.9c0,2.9,0.8,5.2,2.5,6.8C542.5,487.8,545,488.6,548.3,488.6z"/>
					<path class="st0" d="M590.3,498.7c-0.9,0-1.8-0.1-2.8-0.4c-1-0.2-1.9-0.8-2.7-1.6c-0.8-0.8-1.5-2-2.1-3.6
						c-0.6-1.6-0.9-3.6-0.9-6.2v-56.8c0-1.4,0.5-2.7,1.7-3.7c1.1-1.1,2.5-1.6,4.1-1.6c1.6,0,3,0.5,4.1,1.5c1.1,1,1.7,2.3,1.7,3.8
						v56.1c0,1.1,0.1,2,0.2,2.6c0.1,0.6,0.6,1.3,1.3,2.1c0.4,0.4,0.7,0.7,1,1.1c0.3,0.4,0.4,1,0.4,1.8c0,1.5-0.5,2.7-1.6,3.5
						S592.2,498.7,590.3,498.7z"/>
					<path class="st0" d="M616.7,498.7c-0.9,0-1.8-0.1-2.8-0.4c-1-0.2-1.9-0.8-2.7-1.6c-0.8-0.8-1.5-2-2.1-3.6
						c-0.6-1.6-0.9-3.6-0.9-6.2v-56.8c0-1.4,0.5-2.7,1.7-3.7c1.1-1.1,2.5-1.6,4.1-1.6c1.6,0,3,0.5,4.1,1.5c1.1,1,1.7,2.3,1.7,3.8
						v56.1c0,1.1,0.1,2,0.2,2.6c0.1,0.6,0.6,1.3,1.3,2.1c0.4,0.4,0.7,0.7,1,1.1c0.3,0.4,0.4,1,0.4,1.8c0,1.5-0.5,2.7-1.6,3.5
						C620,498.3,618.6,498.7,616.7,498.7z"/>
					<path class="st0" d="M653.1,476.9c-1.5,0-3-0.1-4.6-0.2c-1.6-0.1-3.2-0.3-4.9-0.6v4.9c0,2.4,0.8,4.3,2.4,5.7
						c1.6,1.4,4.2,2.1,7.6,2.1c2,0,3.8-0.2,5.3-0.7c1.6-0.5,3.2-1.1,5-1.9c0.1-0.1,0.4-0.3,0.8-0.4c0.4-0.1,0.9-0.2,1.5-0.2
						c1.8,0,3.2,0.5,4,1.6c0.8,1.1,1.2,2.1,1.2,3.2c0,1.6-0.7,3-2.1,4c-1.4,1-3.1,1.9-5,2.5c-2,0.6-4,1.1-6.2,1.3
						c-2.2,0.2-4,0.4-5.6,0.4c-3.3,0-6.2-0.5-8.7-1.4c-2.6-0.9-4.7-2.2-6.4-3.8c-1.7-1.6-3.1-3.6-4-5.8c-0.9-2.2-1.4-4.6-1.4-7.2
						v-18.8c0-2.6,0.5-5.1,1.4-7.3c0.9-2.2,2.3-4.2,4-5.8c1.8-1.6,4-2.9,6.6-3.9c2.6-1,5.6-1.4,9-1.4c6.5,0,11.3,1.6,14.5,4.8
						c3.2,3.2,4.8,7.5,4.8,12.8c0,5-1.5,9-4.6,11.8C664.9,475.5,660,476.9,653.1,476.9z M661.1,460.6c0-2.8-0.7-4.9-2.1-6.1
						c-1.4-1.2-3.4-1.8-6-1.8c-3,0-5.3,0.7-6.9,2.2c-1.6,1.5-2.4,3.5-2.4,6.1v6.3c1.8,0.2,3.7,0.4,5.5,0.5c1.8,0.1,3.1,0.2,3.9,0.2
						c3,0,5.2-0.7,6.3-2C660.5,464.7,661.1,462.9,661.1,460.6z"/>
					<path class="st0" d="M701.8,443.3c2.6,0,5.1,0.3,7.4,0.9c2.3,0.6,4.6,1.5,6.8,2.7c1.3-2.1,2.7-3.6,4.4-4.6
						c1.7-1,3.2-1.5,4.5-1.5c1.3,0,2.6,0.5,3.7,1.4c1.1,1,1.7,2.1,1.7,3.6c0,0.7-0.1,1.3-0.4,1.8c-0.3,0.5-0.6,0.9-0.9,1.2l-1.6,1.6
						c-0.7,0.7-1.3,1.3-1.8,1.9c-0.5,0.5-0.8,1-1.1,1.5c-0.3,0.5-0.5,1-0.6,1.6c-0.1,0.6-0.2,1.3-0.2,2.1v6.3c0,2.8-0.4,5.3-1.3,7.7
						c-0.9,2.3-2.2,4.4-3.9,6.1c-1.8,1.7-4,3.1-6.6,4c-2.6,1-5.7,1.5-9.3,1.5c-1.2,0-2.4-0.1-3.7-0.2c-1.2-0.1-2.4-0.4-3.5-0.7
						c-0.4,0.8-0.6,1.5-0.7,2c-0.1,0.6-0.2,1.1-0.2,1.7c0,1.6,0.5,2.7,1.5,3.2c1,0.5,2,0.8,2.9,0.8h4.5c3.3,0,6.3,0.3,9,1
						c2.8,0.6,5.2,1.6,7.2,2.9c2.1,1.3,3.7,3,4.8,4.9c1.2,2,1.8,4.4,1.8,7.1s-0.6,5.2-1.8,7.4c-1.2,2.2-2.8,4-4.9,5.6
						c-2.1,1.6-4.6,2.7-7.4,3.6c-2.8,0.8-6,1.2-9.4,1.2c-3.3,0-6.2-0.4-8.9-1.2c-2.7-0.8-5-1.9-7-3.3c-2-1.4-3.5-3.2-4.5-5.3
						c-1.1-2.1-1.6-4.5-1.6-7.1c0-2.3,0.5-4.5,1.5-6.4c1-2,2.6-3.8,4.7-5.7c-1-1.4-1.7-2.9-2.1-4.4c-0.4-1.5-0.6-2.9-0.6-4.1
						c0-1.2,0.2-2.5,0.7-3.9c0.5-1.4,1.4-2.8,2.8-4.3c-4.2-3.8-6.3-8.7-6.3-14.9c0-2.8,0.4-5.5,1.3-7.9c0.9-2.4,2.1-4.5,3.8-6.3
						c1.7-1.8,3.8-3.2,6.3-4.2C695.5,443.8,698.5,443.3,701.8,443.3z M701.5,499.7c-1.1,0-2.2,0-3.2-0.1c-1-0.1-2-0.1-3-0.2
						c-1.8,1.8-2.8,4-2.8,6.4c0,2.6,0.9,4.5,2.7,6c1.8,1.4,4.5,2.1,8.1,2.1c3.4,0,6.2-0.7,8.4-2c2.2-1.3,3.3-3.2,3.3-5.8
						c0-4.3-3.7-6.4-11.2-6.4H701.5z M712.3,460.6c0-0.9,0-1.7,0-2.6c0-0.9,0-1.8,0.1-2.6c-1.6-0.8-3.1-1.4-4.5-1.9
						c-1.5-0.5-3-0.7-4.6-0.7c-3.4,0-5.9,0.9-7.6,2.7c-1.7,1.8-2.5,4.4-2.5,7.8c0,3.1,0.8,5.6,2.3,7.5c1.5,1.8,4,2.8,7.5,2.8
						c3.2,0,5.6-0.8,7.1-2.5c1.5-1.7,2.3-4,2.3-7V460.6z"/>
					<path class="st0" d="M756.5,476.9c-1.5,0-3-0.1-4.6-0.2c-1.6-0.1-3.2-0.3-4.9-0.6v4.9c0,2.4,0.8,4.3,2.4,5.7
						c1.6,1.4,4.2,2.1,7.6,2.1c2,0,3.8-0.2,5.3-0.7c1.6-0.5,3.2-1.1,5-1.9c0.1-0.1,0.4-0.3,0.8-0.4c0.4-0.1,0.9-0.2,1.5-0.2
						c1.8,0,3.2,0.5,4,1.6c0.8,1.1,1.2,2.1,1.2,3.2c0,1.6-0.7,3-2.1,4c-1.4,1-3.1,1.9-5,2.5c-2,0.6-4,1.1-6.2,1.3
						c-2.2,0.2-4,0.4-5.6,0.4c-3.3,0-6.2-0.5-8.7-1.4c-2.6-0.9-4.7-2.2-6.4-3.8c-1.7-1.6-3.1-3.6-4-5.8c-0.9-2.2-1.4-4.6-1.4-7.2
						v-18.8c0-2.6,0.5-5.1,1.4-7.3c0.9-2.2,2.3-4.2,4-5.8c1.8-1.6,4-2.9,6.6-3.9c2.6-1,5.6-1.4,9-1.4c6.5,0,11.3,1.6,14.5,4.8
						c3.2,3.2,4.8,7.5,4.8,12.8c0,5-1.5,9-4.6,11.8C768.2,475.5,763.3,476.9,756.5,476.9z M764.5,460.6c0-2.8-0.7-4.9-2.1-6.1
						c-1.4-1.2-3.4-1.8-6-1.8c-3,0-5.3,0.7-6.9,2.2c-1.6,1.5-2.4,3.5-2.4,6.1v6.3c1.8,0.2,3.7,0.4,5.5,0.5c1.8,0.1,3.1,0.2,3.9,0.2
						c3.1,0,5.2-0.7,6.3-2C763.9,464.7,764.5,462.9,764.5,460.6z"/>
				</g>
			</g>
			<g>
				<g>
					<path class="st0" d="M89.1,579.3c-0.7,2.1-1.6,2.9-3.2,2.9s-2.5-0.9-3.1-2.8l-9.9-30.6c-0.5-1.4,0.8-2.6,2.2-2.6
						c0.8,0,1.6,0.3,1.9,1.5l8.9,28.7l8.8-28.7c0.2-0.7,0.9-1.5,2-1.5c1.2,0.1,2.2,1,2.2,2.3c0,0.2,0,0.3-0.1,0.6L89.1,579.3z"/>
					<path class="st0" d="M111.2,580c0,1.3-1,2.2-2.2,2.2c-1.3,0-2.3-1-2.3-2.2v-24.2c0-2.4-0.3-3.9-1.3-5.3
						c-0.3-0.3-0.4-0.8-0.4-1.2c0-1.2,1-2,2.1-2c0.9,0,1.9,0.9,2.7,2.2c3.3-2.1,7.4-3.3,9.9-3.3c2.4,0,3.2,1,3.2,2.2
						c0,1.4-1,2.4-2.2,2.4c-3.1-0.1-5.8-0.1-9.6,2.8v0.1c0,0,0.1,0.1,0.1,2.2V580z"/>
					<path class="st0" d="M132.4,537.3c-1.7,0-2.9-1.3-2.9-2.8c0-1.7,1.3-2.9,2.9-2.9c1.5,0,2.8,1.3,2.8,2.9
						C135.3,535.9,133.9,537.3,132.4,537.3z M132.4,582.2c-1.3,0-2.3-1-2.3-2.2v-31.5c0-1.3,1-2.3,2.3-2.3c1.2,0,2.2,1,2.2,2.3V580
						C134.6,581.2,133.6,582.2,132.4,582.2z"/>
					<path class="st0" d="M151.7,583.3c0,7-3.7,11.9-9.7,12.8c-0.6,0.1-0.8,0-1.3,0c-0.8,0-1.7-0.6-1.9-1.4
						c-0.3-1.6,0.8-2.3,1.7-2.4c4.2-1,6.5-3.2,6.5-8.8v-35.1c0-1.3,1-2.3,2.3-2.3c1.2,0,2.2,1,2.2,2.3V583.3z M149.5,537.3
						c-1.7,0-3-1.3-3-2.8c0-1.7,1.3-2.9,3-2.9c1.5,0,2.8,1.3,2.8,2.9C152.3,535.9,151,537.3,149.5,537.3z"/>
					<path class="st0" d="M181.8,576.4c0.1-0.1,0.5-0.2,0.8-0.2c1.1,0,1.9,1,1.9,1.9c0,3.1-7.4,4.1-11,4.1
						c-7.8,0-12.2-4.9-12.2-11.3v-13.3c0-6.6,4.4-11.6,12.6-11.6c7.6,0,11.2,4.4,11.2,11.1c0,6.3-3.4,10.1-11.5,10.1
						c-2.3,0-5.1-0.2-7.8-0.8v4.9c0,4.2,2.8,7.1,8.4,7.1C177.4,578.4,179.3,577.5,181.8,576.4z M173.7,549.9c-5,0-7.9,2.8-7.9,7.1
						v5.9c3,0.4,6.7,0.6,8.1,0.6c5.8,0,6.8-3.1,6.8-6.4C180.7,552,178.2,549.9,173.7,549.9z"/>
					<path class="st0" d="M207,533c0-1.1,0.8-2.2,2.3-2.2c1.5,0,2.2,1.1,2.2,2.2v16.3c3.1-2.2,6.3-3.4,10.1-3.4
						c7.7,0,10.5,4.7,10.5,10.6V570c0,6.9-4.2,12.2-12.5,12.2c-8.1,0-12.6-4.7-12.6-10.7V533z M211.5,571.5c0,4.1,3.1,6.6,8.1,6.6
						c5.5,0,8-3.1,8-8.1v-13.5c0-4.3-2.2-6.9-7.4-6.9c-3.7,0-6.5,1.5-8.7,4V571.5z"/>
					<path class="st0" d="M258.4,558c0-5.6-2.6-8.3-8.1-8.3c-2.6,0-4,0.6-5.6,1.5c-0.4,0.3-1,0.6-1.7,0.6c-1,0-1.5-1-1.5-1.8
						c-0.3-2.9,4.9-4.1,9.5-4.1c8.5,0,11.9,4.9,11.9,14v15.7c0,1.8,0.6,2.7,1.9,2.7c0.3,0,0.4-0.1,0.6-0.1c1,0,1.5,1,1.5,1.9
						c0,1.4-1.4,1.9-2.6,1.9c-2.2,0-4-1.5-5.3-4c-2.9,2.8-6.2,4.2-9.9,4.2c-7,0-10.4-4.2-10.4-10.2v-0.3c0-6.7,4-10.1,12.1-10.1
						c2.4,0,5,0.5,7.7,1.3V558z M243.1,571.8v0.3c0,3.6,1.6,6.3,6.9,6.3c3.2,0,5.8-1.1,8.5-3.4v-8.3c-2.8-0.9-5.7-1.3-7.8-1.3
						C244.3,565.3,243.1,568.2,243.1,571.8z"/>
					<path class="st0" d="M284.3,545.9c3.5,0,9,0.8,9,3.5c0,1.1-0.8,2-2,2c-0.4,0-0.7-0.1-1-0.3c-1.6-0.8-3-1.4-5.7-1.4
						c-4.7,0-6.9,1.9-6.9,5.6c0,2.5,1,3.7,3.7,5.2c5.5,2.7,13,3.4,13,11.7c0,6.1-3.9,9.9-11.5,9.9c-3.5,0-10.1-0.7-10.1-3.5
						c0-1,0.8-2.1,2.2-2.1c0.1,0,0.2,0,0.4,0.1c2.1,0.8,4.4,1.7,7.5,1.7c4.2,0,7.1-1.7,7.1-5.8c0-2.9-1.3-4.2-2.8-5.1
						c-5.4-2.7-13.8-3.4-13.8-11.7C273.3,549.8,277.1,545.9,284.3,545.9z"/>
					<path class="st0" d="M304.9,537.3c-1.7,0-2.9-1.3-2.9-2.8c0-1.7,1.3-2.9,2.9-2.9c1.5,0,2.8,1.3,2.8,2.9
						C307.7,535.9,306.4,537.3,304.9,537.3z M304.9,582.2c-1.3,0-2.3-1-2.3-2.2v-31.5c0-1.3,1-2.3,2.3-2.3c1.2,0,2.2,1,2.2,2.3V580
						C307.1,581.2,306.1,582.2,304.9,582.2z"/>
					<path class="st0" d="M328.4,545.9c3.5,0,9,0.8,9,3.5c0,1.1-0.8,2-2,2c-0.4,0-0.7-0.1-1-0.3c-1.6-0.8-3-1.4-5.7-1.4
						c-4.7,0-6.9,1.9-6.9,5.6c0,2.5,1,3.7,3.7,5.2c5.5,2.7,13,3.4,13,11.7c0,6.1-3.9,9.9-11.5,9.9c-3.5,0-10.1-0.7-10.1-3.5
						c0-1,0.8-2.1,2.2-2.1c0.1,0,0.2,0,0.4,0.1c2.1,0.8,4.4,1.7,7.5,1.7c4.2,0,7.1-1.7,7.1-5.8c0-2.9-1.3-4.2-2.8-5.1
						c-5.4-2.7-13.8-3.4-13.8-11.7C317.4,549.8,321.2,545.9,328.4,545.9z"/>
					<path class="st0" d="M356,545.9c3.5,0,9,0.8,9,3.5c0,1.1-0.8,2-2,2c-0.4,0-0.7-0.1-1-0.3c-1.6-0.8-3-1.4-5.7-1.4
						c-4.7,0-6.9,1.9-6.9,5.6c0,2.5,1,3.7,3.7,5.2c5.5,2.7,13,3.4,13,11.7c0,6.1-3.9,9.9-11.5,9.9c-3.5,0-10.1-0.7-10.1-3.5
						c0-1,0.8-2.1,2.2-2.1c0.1,0,0.2,0,0.4,0.1c2.1,0.8,4.4,1.7,7.5,1.7c4.2,0,7.1-1.7,7.1-5.8c0-2.9-1.3-4.2-2.8-5.1
						c-5.4-2.7-13.8-3.4-13.8-11.7C344.9,549.8,348.8,545.9,356,545.9z"/>
					<path class="st0" d="M372.5,558.8c0-7.1,3.8-12.6,12.4-12.6c3.1,0,9.4,0.8,9.4,3.8c0,1-0.8,1.9-1.9,1.9c-0.4,0-0.7-0.1-1-0.1
						h0.1c-1.7-0.9-3.4-1.7-6-1.7c-6,0-8.4,3.3-8.4,8.8v10.8c0,5.5,2.4,8.8,8.4,8.8c2.7,0,4.3-0.8,6-1.7h-0.1c0.5-0.1,0.8-0.2,1-0.2
						c1,0,1.9,0.9,1.9,1.9c0,2.9-6.3,3.8-9.4,3.8c-8.6,0-12.4-5.5-12.4-12.6V558.8z"/>
					<path class="st0" d="M403.6,582.2c-1.3,0-2.3-1-2.3-2.2v-47.3c0-1.1,0.9-2.3,2.2-2.3s2.2,1,2.2,2.3v16.9c3-2.3,6.3-3.6,9.6-3.6
						c7.3,0,10.6,4.7,10.6,11.4V580c0,1.3-1,2.2-2.2,2.2s-2.3-1-2.3-2.2v-22.6c0-4.7-1.9-7.4-6.7-7.4c-3,0-6.5,1.5-8.9,4.6V580
						C405.7,581.2,404.8,582.2,403.6,582.2z"/>
					<path class="st0" d="M434.4,570v-11.9c0-6.9,4.5-12.2,12.8-12.2c8.4,0,12.8,5.3,12.8,12.2V570c0,6.9-4.4,12.2-12.8,12.2
						C439,582.2,434.4,576.9,434.4,570z M455.6,570v-12c0-5-2.8-8.1-8.3-8.1c-5.5,0-8.3,3.1-8.3,8.1v12c0,5,2.8,8.1,8.3,8.1
						C452.9,578.1,455.6,575,455.6,570z"/>
					<path class="st0" d="M466.7,570v-11.9c0-6.9,4.5-12.2,12.8-12.2c8.4,0,12.8,5.3,12.8,12.2V570c0,6.9-4.4,12.2-12.8,12.2
						C471.2,582.2,466.7,576.9,466.7,570z M487.8,570v-12c0-5-2.8-8.1-8.3-8.1c-5.5,0-8.3,3.1-8.3,8.1v12c0,5,2.8,8.1,8.3,8.1
						C485.1,578.1,487.8,575,487.8,570z"/>
					<path class="st0" d="M501.1,533.1c0-1.2,1-2.3,2.2-2.3s2.2,1,2.2,2.3v42.4c0,1.6,0.3,2.8,1.3,3.8c0.1,0.2,0.3,0.7,0.3,1
						c0,1.2-0.8,2-2,2c-1.5,0-4-0.8-4-6.7V533.1z"/>
					<path class="st0" d="M551.9,540.9c-2.6,11.6-6.2,27-8.8,38.5c-0.4,1.2-1.3,2.8-3.3,2.8c-1.7,0-2.8-1.3-3.3-2.8l-10.6-45v-0.3
						c0-1.3,1.5-1.9,2.7-1.9c0.8,0,1.7,0.7,2.1,1.7l9.3,40.1l8.7-38.3c0.6-2.3,1.3-3.8,3.2-3.8c1.9,0,2.6,1.5,3.1,3.8l8.8,38.4
						l9.2-40.2c0.3-1,1-1.7,1.9-1.7c1.3,0,2.8,0.6,2.8,2c0,0.1,0,0.4-0.1,0.6v0.1l-10.6,44.5c-0.4,1.5-1.5,2.8-3.3,2.8
						c-1.8,0-2.9-1.5-3.3-2.9L551.9,540.9z"/>
					<path class="st0" d="M599.6,558c0-5.6-2.6-8.3-8.1-8.3c-2.6,0-4,0.6-5.6,1.5c-0.4,0.3-1,0.6-1.7,0.6c-1,0-1.5-1-1.5-1.8
						c-0.3-2.9,4.9-4.1,9.5-4.1c8.5,0,11.9,4.9,11.9,14v15.7c0,1.8,0.6,2.7,1.9,2.7c0.3,0,0.4-0.1,0.6-0.1c1,0,1.5,1,1.5,1.9
						c0,1.4-1.4,1.9-2.6,1.9c-2.2,0-4-1.5-5.3-4c-2.9,2.8-6.2,4.2-9.9,4.2c-7,0-10.4-4.2-10.4-10.2v-0.3c0-6.7,4-10.1,12.1-10.1
						c2.4,0,5,0.5,7.7,1.3V558z M584.3,571.8v0.3c0,3.6,1.6,6.3,6.9,6.3c3.2,0,5.8-1.1,8.5-3.4v-8.3c-2.8-0.9-5.7-1.3-7.8-1.3
						C585.5,565.3,584.3,568.2,584.3,571.8z"/>
					<path class="st0" d="M620.2,580c0,1.3-1,2.2-2.2,2.2c-1.3,0-2.3-1-2.3-2.2v-24.2c0-2.4-0.3-3.9-1.3-5.3
						c-0.3-0.3-0.4-0.8-0.4-1.2c0-1.2,1-2,2.1-2c0.9,0,1.9,0.9,2.7,2.2c3.3-2.1,7.4-3.3,9.9-3.3c2.4,0,3.2,1,3.2,2.2
						c0,1.4-1,2.4-2.2,2.4c-3.1-0.1-5.8-0.1-9.6,2.8v0.1c0,0,0.1,0.1,0.1,2.2V580z"/>
					<path class="st0" d="M657.1,576.4c0.1-0.1,0.5-0.2,0.8-0.2c1.1,0,1.9,1,1.9,1.9c0,3.1-7.4,4.1-11,4.1
						c-7.8,0-12.2-4.9-12.2-11.3v-13.3c0-6.6,4.4-11.6,12.6-11.6c7.6,0,11.3,4.4,11.3,11.1c0,6.3-3.4,10.1-11.5,10.1
						c-2.3,0-5.1-0.2-7.8-0.8v4.9c0,4.2,2.8,7.1,8.4,7.1C652.7,578.4,654.6,577.5,657.1,576.4z M649,549.9c-5,0-7.9,2.8-7.9,7.1v5.9
						c3,0.4,6.7,0.6,8.1,0.6c5.8,0,6.8-3.1,6.8-6.4C656,552,653.4,549.9,649,549.9z"/>
					<path class="st0" d="M689.1,548.6c1.7-3.1,4.1-4.4,5.4-4.4c1.2,0,2.1,0.8,2.1,2c0,0.6-0.1,0.9-0.3,1l-0.6,0.7
						c-2.4,2.2-3.5,3.3-3.5,6.6v4.4c0,6.9-4.1,12.4-12.4,12.4c-2.1,0-4.1-0.4-5.9-1.1c-0.9,1.6-1.2,3-1.2,4c0,2.9,2.6,3.6,4.4,3.6h3
						c7.8,0,13.7,3.1,13.7,9.7c0,6.9-6,11-14.1,11c-7.8,0-13.2-3.8-13.2-10.4c0-3.2,1.4-5.9,4-8.2c-1.8-1.7-2.4-3.9-2.4-5.5
						c0-1.5,0.6-3.7,3.1-5.8c-2.8-2.6-4.2-6-4.2-10.1c0-7.2,4-12.6,12.3-12.6C682.6,545.9,686.2,546.9,689.1,548.6z M673.9,581.6
						c-1.9,1.5-2.8,3.5-2.8,5.8c0,4.7,3.1,7.2,8.9,7.2c5.5,0,9.4-2.2,9.4-6.9c0-4-3-5.7-9.1-5.7h-3C676,582,674.8,581.8,673.9,581.6
						z M688,552.3c-2.5-1.5-5.1-2.4-7.8-2.4c-5.6,0-8.5,3.2-8.5,8.8c0,5.1,2.4,8.6,8.2,8.6c5.5,0,7.9-3.1,7.9-8.1v-4.5
						C687.8,554.3,687.8,553.3,688,552.3z"/>
					<path class="st0" d="M720.7,576.4c0.1-0.1,0.5-0.2,0.8-0.2c1.1,0,1.9,1,1.9,1.9c0,3.1-7.4,4.1-11,4.1
						c-7.8,0-12.2-4.9-12.2-11.3v-13.3c0-6.6,4.4-11.6,12.6-11.6c7.6,0,11.3,4.4,11.3,11.1c0,6.3-3.4,10.1-11.5,10.1
						c-2.3,0-5.1-0.2-7.8-0.8v4.9c0,4.2,2.8,7.1,8.4,7.1C716.2,578.4,718.2,577.5,720.7,576.4z M712.5,549.9c-5,0-7.9,2.8-7.9,7.1
						v5.9c3,0.4,6.7,0.6,8.1,0.6c5.8,0,6.8-3.1,6.8-6.4C719.6,552,717,549.9,712.5,549.9z"/>
					<path class="st0" d="M746.2,545.9c3.7,0,6.3,1.4,8.2,3.9c3.2-2.4,6.7-3.9,10.5-3.9c7.4,0,11.3,4.7,11.3,11.7V580
						c0,1.3-0.7,2.2-2.2,2.2c-1.5,0-2.3-0.9-2.3-2.2v-22.2c0-4.3-2.2-7.8-7-7.8c-3.3,0-6.5,1.8-8.4,4.2c0.2,1,0.3,2.2,0.3,3.5V580
						c0,1.3-0.7,2.2-2.2,2.2c-1.5,0-2.3-0.9-2.3-2.2v-20.8c0-5.4-0.9-9.2-6.5-9.2c-3.2,0-6.6,1.5-8.8,3.2c0.1,0.8,0.2,1.6,0.2,2.5
						V580c0,1.3-0.8,2.2-2.2,2.2c-1.5,0-2.3-0.9-2.3-2.2v-24.3c0-2.4-0.3-3.9-1.3-5.3c-0.3-0.3-0.4-0.8-0.4-1.2c0-1.2,1-2,2-2
						c0.9,0,1.9,0.6,2.7,2.2C738.9,547.2,742.5,545.9,746.2,545.9z"/>
				</g>
			</g>
		</g>
		<g>
			<circle class="st0" cx="200.6" cy="302.7" r="25.7"/>
			<circle class="st0" cx="356.7" cy="137.9" r="84.4"/>
			<circle class="st0" cx="430.6" cy="303.8" r="61"/>
			<circle class="st0" cx="294.1" cy="280.4" r="41.3"/>
			<path class="st0" d="M472.2,165.5c0,56.5,45.8,102.3,102.3,102.3c56.5,0,102.3-45.8,102.3-102.3S631,63.2,574.5,63.2
				C518,63.2,472.2,109,472.2,165.5z M517.1,167.3c0-31.7,25.7-57.4,57.4-57.4c31.7,0,57.4,25.7,57.4,57.4
				c0,31.7-25.7,57.4-57.4,57.4C542.8,224.8,517.1,199.1,517.1,167.3z"/>
		</g>
	</g>
</g>
<g id="Lijnen" class="st1">
	<line class="st2" x1="71.7" y1="983" x2="71.7" y2="-307"/>
	<line class="st2" x1="-96.3" y1="982.5" x2="-96.3" y2="-307.5"/>
	<line class="st2" x1="174.7" y1="983.5" x2="174.7" y2="-306.5"/>
	<line class="st2" x1="676.7" y1="982.5" x2="676.7" y2="-307.5"/>
	<line class="st2" x1="775.7" y1="983.5" x2="775.7" y2="-306.5"/>
	<line class="st2" x1="944.7" y1="1002.5" x2="944.7" y2="-287.5"/>
	<line class="st2" x1="-460.3" y1="54" x2="1380.7" y2="54"/>
	<line class="st2" x1="-472.8" y1="-114" x2="1368.2" y2="-114"/>
	<line class="st2" x1="-670.8" y1="767" x2="1170.2" y2="767"/>
	<line class="st2" x1="-459.8" y1="444" x2="1381.2" y2="444"/>
	<line class="st2" x1="-459.8" y1="425" x2="1381.2" y2="425"/>
	<line class="st2" x1="-459.8" y1="499" x2="1381.2" y2="499"/>
	<line class="st2" x1="-525.8" y1="530" x2="1315.2" y2="530"/>
	<line class="st2" x1="-472.8" y1="546" x2="1368.2" y2="546"/>
	<line class="st2" x1="-459.8" y1="599" x2="1381.2" y2="599"/>
	<line class="st2" x1="-459.8" y1="582" x2="1381.2" y2="582"/>
	<rect x="-96.3" y="-114" class="st3" width="1041" height="881"/>
	<circle class="st4" cx="860.7" cy="497.9" r="84.4"/>
	<circle class="st4" cx="592.7" cy="-30.1" r="84.4"/>
	<circle class="st4" cx="155.7" cy="682.9" r="84.4"/>
	<circle class="st4" cx="-12.3" cy="137.9" r="84.4"/>
</g>
</svg>
