<?xml version="1.0" encoding="utf-8"?>
<!-- Generator: Adobe Illustrator 22.0.1, SVG Export Plug-In . SVG Version: 6.00 Build 0)  -->
<svg version="1.1" xmlns="http://www.w3.org/2000/svg" xmlns:xlink="http://www.w3.org/1999/xlink" x="0px" y="0px"
	 viewBox="0 0 1251.8 1104.3" style="enable-background:new 0 0 1251.8 1104.3;" xml:space="preserve">
<style type="text/css">
	.st0{fill:none;stroke:#CCCCCC;stroke-width:0.9851;stroke-miterlimit:10;}
	.st1{fill:#F7D0EB;}
	.st2{fill:#4C4C4C;}
	.st3{fill:#714FB2;}
	.st4{fill:#FC9732;}
	.st5{fill:#D7E100;}
	.st6{fill:#3FA8EF;}
	.st7{fill:#DB169F;}
	.st8{display:none;}
	.st9{display:inline;fill:none;stroke:#B3B3B3;stroke-width:4;stroke-miterlimit:10;}
	.st10{display:inline;fill:#F2F2F2;}
	.st11{display:inline;fill:none;stroke:#CCCCCC;stroke-width:0.9851;stroke-miterlimit:10;}
	.st12{fill:none;stroke:#CCCCCC;stroke-width:4.0849;stroke-miterlimit:10;}
	.st13{display:inline;fill:#FC9732;}
	.st14{fill:#E2DBEF;}
	.st15{fill:none;stroke:#714FB2;stroke-width:7;stroke-miterlimit:10;}
</style>
<g id="Laag_2">
	<g id="Lijnen_roze_bol">
		<line class="st0" x1="273.8" y1="1218.5" x2="273.8" y2="-71.5"/>
		<line class="st0" x1="151.8" y1="1219" x2="151.8" y2="-71"/>
		<line class="st0" x1="1100.8" y1="1219" x2="1100.8" y2="-71"/>
		<line class="st0" x1="354.8" y1="1219" x2="354.8" y2="-71"/>
		<line class="st0" x1="894.8" y1="1218" x2="894.8" y2="-72"/>
		<line class="st0" x1="977.8" y1="1219" x2="977.8" y2="-71"/>
		<line class="st0" x1="-258.3" y1="258.5" x2="1582.8" y2="258.5"/>
		<line class="st0" x1="-257.8" y1="660.5" x2="1583.3" y2="660.5"/>
		<line class="st0" x1="-257.8" y1="593.5" x2="1583.3" y2="593.5"/>
		<line class="st0" x1="-257.8" y1="677.5" x2="1583.3" y2="677.5"/>
		<line class="st0" x1="-257.8" y1="734.5" x2="1583.3" y2="734.5"/>
		<line class="st0" x1="-323.8" y1="765.5" x2="1517.3" y2="765.5"/>
		<line class="st0" x1="-257.8" y1="834.5" x2="1583.3" y2="834.5"/>
		<line class="st0" x1="-257.8" y1="818.5" x2="1583.3" y2="818.5"/>
		<line class="st0" x1="-257.8" y1="780.5" x2="1583.3" y2="780.5"/>
		<line class="st0" x1="-257.8" y1="957.5" x2="1583.3" y2="957.5"/>
		<circle class="st1" cx="212.3" cy="323.2" r="61"/>
		<circle class="st1" cx="915.6" cy="197.1" r="61"/>
		<circle class="st1" cx="1039.6" cy="772.1" r="61"/>
		<circle class="st1" cx="334.7" cy="896.4" r="61"/>
	</g>
</g>
<g id="Laag_1">
	<g id="Laag_1_1_">
		<g>
			<g>
				<g>
					<g>
						<path class="st2" d="M286.5,706.8c0,2.6,0.2,5,0.7,7.1s1.3,3.9,2.4,5.4s2.6,2.6,4.5,3.4c1.8,0.8,4.1,1.2,6.8,1.2
							c2.2,0,4.1-0.3,5.8-0.8c1.7-0.5,3.2-1.3,4.6-2.3v-19.7h-8c-1.4,0-2.7-0.5-3.7-1.6c-1.1-1.1-1.6-2.3-1.6-3.8s0.5-2.7,1.6-3.8
							c1.1-1,2.3-1.5,3.7-1.5h12.1c2,0,3.7,0.5,5.2,1.5s2.2,2.6,2.2,4.6V721c0,2.3-0.7,4.3-2.1,6s-3.2,3-5.4,4.1
							c-2.2,1.1-4.6,1.8-7.3,2.3c-2.7,0.5-5.3,0.7-7.8,0.7c-4.4,0-8.2-0.7-11.4-2c-3.2-1.3-5.8-3.2-7.9-5.5
							c-2.1-2.4-3.7-5.3-4.7-8.6c-1-3.4-1.5-7.1-1.5-11.3v-18.9c0-4.1,0.5-7.9,1.5-11.3c1-3.4,2.6-6.3,4.7-8.7s4.7-4.2,7.9-5.5
							c3.2-1.3,7-2,11.4-2c2.6,0,5.2,0.3,7.6,0.8s4.6,1.3,6.5,2.2c1.9,1,3.4,2.1,4.6,3.3c1.1,1.2,1.7,2.5,1.7,3.9s-0.5,2.6-1.5,3.6
							s-2.3,1.5-3.9,1.5c-1,0-1.8-0.2-2.3-0.5s-1.2-0.7-2-1.2l-0.5-0.3c-1.4-1-2.9-1.7-4.5-2.2s-3.3-0.7-5.2-0.7
							c-2.7,0-5,0.4-6.8,1.2s-3.3,1.9-4.5,3.4c-1.1,1.5-1.9,3.3-2.4,5.4c-0.5,2.1-0.7,4.5-0.7,7.1v19H286.5z"/>
						<path class="st2" d="M361.7,697.9c0-6.2-3.3-9.4-9.8-9.4c-1.4,0-2.6,0.1-3.5,0.4c-0.9,0.3-1.8,0.6-2.8,1l-2,0.9
							c-0.7,0.4-1.6,0.5-2.8,0.5c-1.6,0-2.7-0.5-3.4-1.5c-0.7-1-1-2.1-1-3.2c0-1.4,0.5-2.6,1.4-3.6s2.2-1.8,3.7-2.4
							c1.6-0.6,3.3-1.1,5.3-1.4c2-0.3,4-0.4,6.1-0.4c7.2,0,12.4,1.8,15.5,5.5s4.7,9.1,4.7,16.2v21.6c0,1.3,0.2,2.2,0.7,2.6
							c0.5,0.4,1.1,0.7,1.9,0.8c2.1,0.4,3.2,1.7,3.2,3.8c0,3-2.1,4.5-6.3,4.5c-3.7,0-6.5-1.6-8.5-4.8c-4,3.4-8.8,5.1-14.5,5.1
							c-5.8,0-10.2-1.5-13.1-4.5s-4.4-7-4.4-11.9v-0.3c0-10.7,6.6-16.1,19.9-16.1c3.3,0,6.5,0.4,9.6,1.3L361.7,697.9L361.7,697.9z
							 M352.4,710.1c-1.8,0-3.4,0.2-4.5,0.6c-1.2,0.4-2.1,0.9-2.7,1.6c-0.6,0.7-1.1,1.5-1.3,2.4c-0.2,0.9-0.3,1.9-0.3,2.9v0.3
							c0,2.1,0.6,3.8,1.8,4.9c1.2,1.2,3.2,1.8,6.2,1.8c1.8,0,3.6-0.3,5.2-0.9c1.6-0.6,3.3-1.5,4.9-2.9v-9.6
							c-1.6-0.4-3.2-0.6-4.8-0.9C355.3,710.2,353.8,710.1,352.4,710.1z"/>
						<path class="st2" d="M424.1,689c-2.3,6.6-4.6,13.2-6.8,19.7c-2.2,6.5-4.4,13.1-6.7,19.8c-0.7,2.1-1.6,3.5-2.7,4.4
							s-2.5,1.3-4.3,1.3c-1.9,0-3.4-0.4-4.4-1.3c-1-0.9-1.9-2.3-2.6-4.3c-2.3-6.7-4.6-13.3-6.9-19.9c-2.3-6.6-4.6-13.2-6.9-19.9
							l-1.2-4.2c0-0.1,0-0.2-0.1-0.3c0-0.1-0.1-0.2-0.1-0.3c0-1.4,0.6-2.6,1.8-3.6c1.2-1,2.5-1.4,3.9-1.4c1.1,0,2.1,0.3,3.2,1
							c1.1,0.6,1.8,1.6,2.1,2.8c1,3.2,2,6.4,3,9.5s2,6.3,3,9.5s1.9,6.3,2.6,9.4c0.7,3.1,1.5,6.2,2.4,9.4c0.8-3.2,1.5-6.3,2.2-9.4
							c0.7-3.1,1.6-6.2,2.6-9.4s2-6.3,2.9-9.5c1-3.1,1.9-6.3,2.9-9.5c0.4-1.1,1-1.9,2.1-2.6c1-0.7,2.1-1,3.2-1
							c1.5,0,2.8,0.5,3.9,1.4c1.1,1,1.7,2.2,1.7,3.7v0.6L424.1,689z"/>
						<path class="st2" d="M453,712.4c-1.5,0-3-0.1-4.6-0.2c-1.6-0.1-3.2-0.3-4.9-0.6v4.9c0,2.4,0.8,4.3,2.4,5.7s4.2,2.1,7.6,2.1
							c2,0,3.8-0.2,5.3-0.7c1.6-0.5,3.2-1.1,5-1.9c0.1-0.1,0.4-0.3,0.8-0.4c0.4-0.1,0.9-0.2,1.5-0.2c1.8,0,3.2,0.5,4,1.6
							s1.2,2.1,1.2,3.2c0,1.6-0.7,3-2.1,4s-3.1,1.9-5,2.5c-2,0.6-4,1.1-6.2,1.3s-4,0.4-5.6,0.4c-3.3,0-6.2-0.5-8.7-1.4
							c-2.6-0.9-4.7-2.2-6.4-3.8c-1.7-1.6-3.1-3.6-4-5.8s-1.4-4.6-1.4-7.2v-18.8c0-2.6,0.5-5.1,1.4-7.3s2.3-4.2,4-5.8
							c1.8-1.6,4-2.9,6.6-3.9s5.6-1.4,9-1.4c6.5,0,11.3,1.6,14.5,4.8s4.8,7.5,4.8,12.8c0,5-1.5,9-4.6,11.8
							C464.8,711,459.8,712.4,453,712.4z M461,696.1c0-2.8-0.7-4.9-2.1-6.1c-1.4-1.2-3.4-1.8-6-1.8c-3,0-5.3,0.7-6.9,2.2
							s-2.4,3.5-2.4,6.1v6.3c1.8,0.2,3.7,0.4,5.5,0.5s3.1,0.2,3.9,0.2c3,0,5.2-0.7,6.3-2C460.4,700.2,461,698.4,461,696.1z"/>
						<path class="st2" d="M507,689.8c-1.1,0-2.2,0-3.1,0c-1,0-1.9,0.1-2.8,0.2c-0.9,0.1-1.8,0.4-2.8,0.7c-1,0.4-2,0.9-3.1,1.5
							c0.1,0.5,0.1,0.9,0.2,1.3c0,0.4,0.1,0.8,0.1,1.1v34.1c0,1.6-0.6,2.9-1.6,3.9c-1.1,1-2.5,1.5-4.1,1.5s-3-0.5-4.1-1.5
							s-1.7-2.3-1.7-3.9v-34.1c0-1.5-0.1-2.7-0.3-3.6c-0.2-0.9-0.6-1.8-1.2-2.6c-0.4-0.4-0.6-0.9-0.8-1.3c-0.2-0.4-0.3-1-0.3-1.6
							c0-1.5,0.5-2.7,1.6-3.6c1.1-0.9,2.4-1.4,3.9-1.4c1,0,1.9,0.3,2.7,0.9c0.8,0.6,1.5,1.3,2.2,2.2c2.4-1.4,4.9-2.5,7.4-3.4
							c2.5-0.8,4.7-1.2,6.5-1.2c2.7,0,4.6,0.5,5.6,1.5s1.5,2.2,1.5,3.7c0,1.7-0.6,3.1-1.7,4.1C510,689.5,508.6,690,507,689.8z"/>
						<path class="st2" d="M533.5,698.5l15.3-16.3c0.7-0.8,1.5-1.5,2.3-2.1c0.9-0.6,1.9-0.9,3.1-0.9c1.6,0,2.9,0.5,3.9,1.4
							c1.1,1,1.6,2.1,1.6,3.6c0,1.4-0.5,2.6-1.5,3.6l-14.4,14.9c2.8,4,5.7,7.9,8.5,11.8c2.8,3.9,5.6,7.8,8.4,11.8
							c0.4,0.4,0.6,0.9,0.7,1.5c0.1,0.6,0.2,1.2,0.2,1.7c-0.1,1.4-0.7,2.5-1.8,3.4c-1,0.8-2.3,1.2-3.8,1.2c-0.9,0-1.5-0.1-2.1-0.2
							c-0.5-0.1-1-0.4-1.4-0.7c-0.4-0.4-0.8-0.8-1.2-1.4c-0.4-0.6-0.9-1.3-1.4-2.1l-14.1-20.2c-0.4,0.4-0.8,0.8-1.2,1.2
							c-0.4,0.5-0.8,0.9-1.2,1.2v14.6c0,2-0.4,3.8-1.2,5.3c-0.8,1.6-2.3,2.3-4.5,2.3c-1.6,0-3-0.5-4.1-1.5s-1.7-2.3-1.7-3.8v-60.4
							c0-1.1,0.1-2.1,0.2-3c0.1-1,0.4-1.8,0.9-2.6c0.4-0.7,1-1.3,1.8-1.8c0.7-0.4,1.7-0.6,2.9-0.6c1.6,0,3,0.5,4.1,1.5
							s1.7,2.3,1.7,3.8V698.5z"/>
						<path class="st2" d="M589.2,712.4c-1.5,0-3-0.1-4.6-0.2c-1.6-0.1-3.2-0.3-4.9-0.6v4.9c0,2.4,0.8,4.3,2.4,5.7
							c1.6,1.4,4.2,2.1,7.6,2.1c2,0,3.8-0.2,5.3-0.7c1.6-0.5,3.2-1.1,5-1.9c0.1-0.1,0.4-0.3,0.8-0.4c0.4-0.1,0.9-0.2,1.5-0.2
							c1.8,0,3.2,0.5,4,1.6s1.2,2.1,1.2,3.2c0,1.6-0.7,3-2.1,4c-1.4,1-3.1,1.9-5,2.5c-2,0.6-4,1.1-6.2,1.3s-4,0.4-5.6,0.4
							c-3.3,0-6.2-0.5-8.7-1.4c-2.6-0.9-4.7-2.2-6.4-3.8s-3.1-3.6-4-5.8s-1.4-4.6-1.4-7.2v-18.8c0-2.6,0.5-5.1,1.4-7.3
							s2.3-4.2,4-5.8c1.8-1.6,4-2.9,6.6-3.9s5.6-1.4,9-1.4c6.5,0,11.3,1.6,14.5,4.8s4.8,7.5,4.8,12.8c0,5-1.5,9-4.6,11.8
							C600.9,711,596,712.4,589.2,712.4z M597.2,696.1c0-2.8-0.7-4.9-2.1-6.1c-1.4-1.2-3.4-1.8-6-1.8c-3,0-5.3,0.7-6.9,2.2
							c-1.6,1.5-2.4,3.5-2.4,6.1v6.3c1.8,0.2,3.7,0.4,5.5,0.5s3.1,0.2,3.9,0.2c3,0,5.2-0.7,6.3-2S597.2,698.4,597.2,696.1z"/>
						<g>
							<g>
								<path class="st3" d="M635.6,733.5c-0.4,1.1-1.2,2-2.3,2.5c-1.1,0.6-2.2,0.7-3.4,0.6c-0.7-0.1-1.3-0.4-1.9-0.7
									c-0.6-0.3-1-0.8-1.4-1.2c-0.4-0.5-0.6-1-0.8-1.6c-0.1-0.6-0.1-1.2,0.1-1.8l19.3-50.8c0.4-1.1,1.2-2,2.2-2.5
									c1-0.6,2.1-0.7,3.3-0.5c1.3,0.2,2.3,0.9,3.1,1.9s1.1,2.1,1,3.2c0,0.4-0.2,0.8-0.4,1.1L635.6,733.5z"/>
							</g>
						</g>
						<path class="st2" d="M674.8,687.8c0-4.1,0.5-7.9,1.5-11.3c1-3.4,2.6-6.3,4.7-8.7c2.1-2.4,4.7-4.2,7.9-5.5s7-2,11.4-2
							c2.6,0,5.2,0.3,7.6,0.8c2.4,0.5,4.6,1.3,6.5,2.2c1.9,1,3.4,2.1,4.6,3.3c1.1,1.2,1.7,2.5,1.7,3.9s-0.5,2.6-1.5,3.6
							s-2.3,1.5-3.9,1.5c-1,0-1.8-0.2-2.3-0.5s-1.2-0.7-2-1.2l-0.5-0.3c-2.8-2-6.1-3-9.7-3c-2.7,0-5,0.4-6.8,1.2s-3.3,1.9-4.5,3.4
							c-1.1,1.5-1.9,3.3-2.4,5.4c-0.5,2.1-0.7,4.5-0.7,7.1v18.9c0,2.6,0.2,5,0.7,7.1s1.3,3.9,2.4,5.4c1.1,1.5,2.6,2.6,4.5,3.4
							c1.8,0.8,4.1,1.2,6.8,1.2c3.5,0,6.8-1,9.7-2.9l0.5-0.3c0.8-0.5,1.4-0.9,2-1.2s1.3-0.5,2.3-0.5c1.6,0,2.9,0.5,3.9,1.5
							s1.5,2.2,1.5,3.5c0,1.4-0.6,2.7-1.7,4c-1.1,1.2-2.7,2.3-4.6,3.2c-1.9,0.9-4.1,1.7-6.5,2.2s-5,0.8-7.6,0.8
							c-4.4,0-8.2-0.7-11.4-2s-5.8-3.2-7.9-5.5c-2.1-2.4-3.7-5.3-4.7-8.6c-1-3.4-1.5-7.1-1.5-11.3V687.8z"/>
						<path class="st2" d="M750.3,734.2c-3.5,0-6.7-0.5-9.3-1.5c-2.7-1-4.9-2.4-6.7-4.1c-1.8-1.7-3.2-3.8-4.1-6.2
							c-0.9-2.4-1.4-4.9-1.4-7.6V698c0-2.8,0.5-5.3,1.4-7.7c0.9-2.3,2.3-4.4,4.1-6.1c1.8-1.7,4-3.1,6.7-4.1s5.8-1.5,9.3-1.5
							s6.6,0.5,9.3,1.5s4.9,2.4,6.8,4.1c1.8,1.7,3.2,3.8,4.1,6.1c0.9,2.3,1.4,4.9,1.4,7.7v16.8c0,2.7-0.5,5.2-1.4,7.6
							c-0.9,2.4-2.3,4.4-4.1,6.2c-1.8,1.7-4.1,3.1-6.8,4.1C756.9,733.7,753.8,734.2,750.3,734.2z M750.3,724.1
							c3.3,0,5.8-0.8,7.5-2.4c1.7-1.6,2.5-3.9,2.5-6.8V698c0-2.8-0.8-5.1-2.5-6.7c-1.7-1.6-4.2-2.4-7.5-2.4s-5.8,0.8-7.5,2.4
							c-1.7,1.6-2.5,3.9-2.5,6.7v16.9c0,2.9,0.8,5.2,2.5,6.8C744.5,723.3,747,724.1,750.3,724.1z"/>
						<path class="st2" d="M792.4,734.2c-0.9,0-1.8-0.1-2.8-0.4c-1-0.2-1.9-0.8-2.7-1.6s-1.5-2-2.1-3.6s-0.9-3.6-0.9-6.2v-56.8
							c0-1.4,0.5-2.7,1.7-3.7c1.1-1.1,2.5-1.6,4.1-1.6s3,0.5,4.1,1.5s1.7,2.3,1.7,3.8v56.1c0,1.1,0.1,2,0.2,2.6
							c0.1,0.6,0.6,1.3,1.3,2.1c0.4,0.4,0.7,0.7,1,1.1c0.3,0.4,0.4,1,0.4,1.8c0,1.5-0.5,2.7-1.6,3.5
							C795.7,733.8,794.2,734.2,792.4,734.2z"/>
						<path class="st2" d="M818.8,734.2c-0.9,0-1.8-0.1-2.8-0.4c-1-0.2-1.9-0.8-2.7-1.6s-1.5-2-2.1-3.6s-0.9-3.6-0.9-6.2v-56.8
							c0-1.4,0.5-2.7,1.7-3.7c1.1-1.1,2.5-1.6,4.1-1.6s3,0.5,4.1,1.5s1.7,2.3,1.7,3.8v56.1c0,1.1,0.1,2,0.2,2.6
							c0.1,0.6,0.6,1.3,1.3,2.1c0.4,0.4,0.7,0.7,1,1.1c0.3,0.4,0.4,1,0.4,1.8c0,1.5-0.5,2.7-1.6,3.5
							C822,733.8,820.6,734.2,818.8,734.2z"/>
						<path class="st2" d="M855.2,712.4c-1.5,0-3-0.1-4.6-0.2c-1.6-0.1-3.2-0.3-4.9-0.6v4.9c0,2.4,0.8,4.3,2.4,5.7
							c1.6,1.4,4.2,2.1,7.6,2.1c2,0,3.8-0.2,5.3-0.7c1.6-0.5,3.2-1.1,5-1.9c0.1-0.1,0.4-0.3,0.8-0.4c0.4-0.1,0.9-0.2,1.5-0.2
							c1.8,0,3.2,0.5,4,1.6s1.2,2.1,1.2,3.2c0,1.6-0.7,3-2.1,4c-1.4,1-3.1,1.9-5,2.5c-2,0.6-4,1.1-6.2,1.3s-4,0.4-5.6,0.4
							c-3.3,0-6.2-0.5-8.7-1.4c-2.6-0.9-4.7-2.2-6.4-3.8s-3.1-3.6-4-5.8s-1.4-4.6-1.4-7.2v-18.8c0-2.6,0.5-5.1,1.4-7.3
							s2.3-4.2,4-5.8c1.8-1.6,4-2.9,6.6-3.9s5.6-1.4,9-1.4c6.5,0,11.3,1.6,14.5,4.8s4.8,7.5,4.8,12.8c0,5-1.5,9-4.6,11.8
							C866.9,711,862,712.4,855.2,712.4z M863.1,696.1c0-2.8-0.7-4.9-2.1-6.1c-1.4-1.2-3.4-1.8-6-1.8c-3,0-5.3,0.7-6.9,2.2
							c-1.6,1.5-2.4,3.5-2.4,6.1v6.3c1.8,0.2,3.7,0.4,5.5,0.5s3.1,0.2,3.9,0.2c3,0,5.2-0.7,6.3-2
							C862.5,700.2,863.1,698.4,863.1,696.1z"/>
						<path class="st2" d="M903.8,678.8c2.6,0,5.1,0.3,7.4,0.9c2.3,0.6,4.6,1.5,6.8,2.7c1.3-2.1,2.7-3.6,4.4-4.6s3.2-1.5,4.5-1.5
							s2.6,0.5,3.7,1.4c1.1,1,1.7,2.1,1.7,3.6c0,0.7-0.1,1.3-0.4,1.8c-0.3,0.5-0.6,0.9-0.9,1.2l-1.6,1.6c-0.7,0.7-1.3,1.3-1.8,1.9
							c-0.5,0.5-0.8,1-1.1,1.5s-0.5,1-0.6,1.6s-0.2,1.3-0.2,2.1v6.3c0,2.8-0.4,5.3-1.3,7.7c-0.9,2.3-2.2,4.4-3.9,6.1
							c-1.8,1.7-4,3.1-6.6,4c-2.6,1-5.7,1.5-9.3,1.5c-1.2,0-2.4-0.1-3.7-0.2c-1.2-0.1-2.4-0.4-3.5-0.7c-0.4,0.8-0.6,1.5-0.7,2
							c-0.1,0.6-0.2,1.1-0.2,1.7c0,1.6,0.5,2.7,1.5,3.2s2,0.8,2.9,0.8h4.5c3.3,0,6.3,0.3,9,1c2.8,0.6,5.2,1.6,7.2,2.9
							c2.1,1.3,3.7,3,4.8,4.9c1.2,2,1.8,4.4,1.8,7.1s-0.6,5.2-1.8,7.4s-2.8,4-4.9,5.6c-2.1,1.6-4.6,2.7-7.4,3.6
							c-2.8,0.8-6,1.2-9.4,1.2c-3.3,0-6.2-0.4-8.9-1.2s-5-1.9-7-3.3c-2-1.4-3.5-3.2-4.5-5.3c-1.1-2.1-1.6-4.5-1.6-7.1
							c0-2.3,0.5-4.5,1.5-6.4c1-2,2.6-3.8,4.7-5.7c-1-1.4-1.7-2.9-2.1-4.4c-0.4-1.5-0.6-2.9-0.6-4.1c0-1.2,0.2-2.5,0.7-3.9
							s1.4-2.8,2.8-4.3c-4.2-3.8-6.3-8.7-6.3-14.9c0-2.8,0.4-5.5,1.3-7.9c0.9-2.4,2.1-4.5,3.8-6.3s3.8-3.2,6.3-4.2
							C897.5,679.3,900.5,678.8,903.8,678.8z M903.5,735.2c-1.1,0-2.2,0-3.2-0.1s-2-0.1-3-0.2c-1.8,1.8-2.8,4-2.8,6.4
							c0,2.6,0.9,4.5,2.7,6c1.8,1.4,4.5,2.1,8.1,2.1c3.4,0,6.2-0.7,8.4-2s3.3-3.2,3.3-5.8c0-4.3-3.7-6.4-11.2-6.4H903.5z
							 M914.3,696.1c0-0.9,0-1.7,0-2.6c0-0.9,0-1.8,0.1-2.6c-1.6-0.8-3.1-1.4-4.5-1.9c-1.5-0.5-3-0.7-4.6-0.7
							c-3.4,0-5.9,0.9-7.6,2.7c-1.7,1.8-2.5,4.4-2.5,7.8c0,3.1,0.8,5.6,2.3,7.5c1.5,1.8,4,2.8,7.5,2.8c3.2,0,5.6-0.8,7.1-2.5
							s2.3-4,2.3-7L914.3,696.1L914.3,696.1z"/>
						<path class="st2" d="M958.5,712.4c-1.5,0-3-0.1-4.6-0.2c-1.6-0.1-3.2-0.3-4.9-0.6v4.9c0,2.4,0.8,4.3,2.4,5.7
							c1.6,1.4,4.2,2.1,7.6,2.1c2,0,3.8-0.2,5.3-0.7c1.6-0.5,3.2-1.1,5-1.9c0.1-0.1,0.4-0.3,0.8-0.4c0.4-0.1,0.9-0.2,1.5-0.2
							c1.8,0,3.2,0.5,4,1.6s1.2,2.1,1.2,3.2c0,1.6-0.7,3-2.1,4c-1.4,1-3.1,1.9-5,2.5c-2,0.6-4,1.1-6.2,1.3s-4,0.4-5.6,0.4
							c-3.3,0-6.2-0.5-8.7-1.4c-2.6-0.9-4.7-2.2-6.4-3.8s-3.1-3.6-4-5.8s-1.4-4.6-1.4-7.2v-18.8c0-2.6,0.5-5.1,1.4-7.3
							s2.3-4.2,4-5.8c1.8-1.6,4-2.9,6.6-3.9s5.6-1.4,9-1.4c6.5,0,11.3,1.6,14.5,4.8s4.8,7.5,4.8,12.8c0,5-1.5,9-4.6,11.8
							C970.2,711,965.3,712.4,958.5,712.4z M966.5,696.1c0-2.8-0.7-4.9-2.1-6.1c-1.4-1.2-3.4-1.8-6-1.8c-3,0-5.3,0.7-6.9,2.2
							c-1.6,1.5-2.4,3.5-2.4,6.1v6.3c1.8,0.2,3.7,0.4,5.5,0.5s3.1,0.2,3.9,0.2c3,0,5.2-0.7,6.3-2
							C965.9,700.2,966.5,698.4,966.5,696.1z"/>
					</g>
				</g>
				<g>
					<g>
						<path class="st3" d="M291.1,814.8c-0.7,2.1-1.6,2.9-3.2,2.9s-2.5-0.9-3.1-2.8l-9.9-30.6c-0.5-1.4,0.8-2.6,2.2-2.6
							c0.8,0,1.6,0.3,1.9,1.5l8.9,28.7l8.8-28.7c0.2-0.7,0.9-1.5,2-1.5c1.2,0.1,2.2,1,2.2,2.3c0,0.2,0,0.3-0.1,0.6L291.1,814.8z"/>
						<path class="st3" d="M313.2,815.5c0,1.3-1,2.2-2.2,2.2c-1.3,0-2.3-1-2.3-2.2v-24.2c0-2.4-0.3-3.9-1.3-5.3
							c-0.3-0.3-0.4-0.8-0.4-1.2c0-1.2,1-2,2.1-2c0.9,0,1.9,0.9,2.7,2.2c3.3-2.1,7.4-3.3,9.9-3.3c2.4,0,3.2,1,3.2,2.2
							c0,1.4-1,2.4-2.2,2.4c-3.1-0.1-5.8-0.1-9.6,2.8v0.1c0,0,0.1,0.1,0.1,2.2L313.2,815.5L313.2,815.5z"/>
						<path class="st3" d="M334.4,772.8c-1.7,0-2.9-1.3-2.9-2.8c0-1.7,1.3-2.9,2.9-2.9c1.5,0,2.8,1.3,2.8,2.9
							C337.3,771.5,335.9,772.8,334.4,772.8z M334.4,817.7c-1.3,0-2.3-1-2.3-2.2V784c0-1.3,1-2.3,2.3-2.3c1.2,0,2.2,1,2.2,2.3v31.5
							C336.6,816.7,335.6,817.7,334.4,817.7z"/>
						<path class="st3" d="M353.7,818.8c0,7-3.7,11.9-9.7,12.8c-0.6,0.1-0.8,0-1.3,0c-0.8,0-1.7-0.6-1.9-1.4
							c-0.3-1.6,0.8-2.3,1.7-2.4c4.2-1,6.5-3.2,6.5-8.8v-35c0-1.3,1-2.3,2.3-2.3c1.2,0,2.2,1,2.2,2.3v34.8H353.7z M351.5,772.8
							c-1.7,0-3-1.3-3-2.8c0-1.7,1.3-2.9,3-2.9c1.5,0,2.8,1.3,2.8,2.9C354.3,771.5,353,772.8,351.5,772.8z"/>
						<path class="st3" d="M383.9,811.9c0.1-0.1,0.5-0.2,0.8-0.2c1.1,0,1.9,1,1.9,1.9c0,3.1-7.4,4.1-11,4.1
							c-7.8,0-12.2-4.9-12.2-11.3V793c0-6.6,4.4-11.6,12.6-11.6c7.6,0,11.2,4.4,11.2,11.1c0,6.3-3.4,10.1-11.5,10.1
							c-2.3,0-5.1-0.2-7.8-0.8v4.9c0,4.2,2.8,7.1,8.4,7.1C379.4,813.9,381.4,813,383.9,811.9z M375.7,785.4c-5,0-7.9,2.8-7.9,7.1
							v5.9c3,0.4,6.7,0.6,8.1,0.6c5.8,0,6.8-3.1,6.8-6.4C382.7,787.5,380.2,785.4,375.7,785.4z"/>
						<path class="st3" d="M409,768.5c0-1.1,0.8-2.2,2.3-2.2s2.2,1.1,2.2,2.2v16.3c3.1-2.2,6.3-3.4,10.1-3.4
							c7.7,0,10.5,4.7,10.5,10.6v13.5c0,6.9-4.2,12.2-12.5,12.2c-8.1,0-12.6-4.7-12.6-10.7V768.5z M413.5,807c0,4.1,3.1,6.6,8.1,6.6
							c5.5,0,8-3.1,8-8.1V792c0-4.3-2.2-6.9-7.4-6.9c-3.7,0-6.5,1.5-8.7,4V807z"/>
						<path class="st3" d="M460.4,793.5c0-5.6-2.6-8.3-8.1-8.3c-2.6,0-4,0.6-5.6,1.5c-0.4,0.3-1,0.6-1.7,0.6c-1,0-1.5-1-1.5-1.8
							c-0.3-2.9,4.9-4.1,9.5-4.1c8.5,0,11.9,4.9,11.9,14v15.7c0,1.8,0.6,2.7,1.9,2.7c0.3,0,0.4-0.1,0.6-0.1c1,0,1.5,1,1.5,1.9
							c0,1.4-1.4,1.9-2.6,1.9c-2.2,0-4-1.5-5.3-4c-2.9,2.8-6.2,4.2-9.9,4.2c-7,0-10.4-4.2-10.4-10.2v-0.3c0-6.7,4-10.1,12.1-10.1
							c2.4,0,5,0.5,7.7,1.3v-4.9H460.4z M445.1,807.3v0.3c0,3.6,1.6,6.3,6.9,6.3c3.2,0,5.8-1.1,8.5-3.4v-8.3
							c-2.8-0.9-5.7-1.3-7.8-1.3C446.3,800.8,445.1,803.7,445.1,807.3z"/>
						<path class="st3" d="M486.3,781.5c3.5,0,9,0.8,9,3.5c0,1.1-0.8,2-2,2c-0.4,0-0.7-0.1-1-0.3c-1.6-0.8-3-1.4-5.7-1.4
							c-4.7,0-6.9,1.9-6.9,5.6c0,2.5,1,3.7,3.7,5.2c5.5,2.7,13,3.4,13,11.7c0,6.1-3.9,9.9-11.5,9.9c-3.5,0-10.1-0.7-10.1-3.5
							c0-1,0.8-2.1,2.2-2.1c0.1,0,0.2,0,0.4,0.1c2.1,0.8,4.4,1.7,7.5,1.7c4.2,0,7.1-1.7,7.1-5.8c0-2.9-1.3-4.2-2.8-5.1
							c-5.4-2.7-13.8-3.4-13.8-11.7C475.3,785.3,479.1,781.5,486.3,781.5z"/>
						<path class="st3" d="M506.9,772.8c-1.7,0-2.9-1.3-2.9-2.8c0-1.7,1.3-2.9,2.9-2.9c1.5,0,2.8,1.3,2.8,2.9
							C509.7,771.5,508.4,772.8,506.9,772.8z M506.9,817.7c-1.3,0-2.3-1-2.3-2.2V784c0-1.3,1-2.3,2.3-2.3c1.2,0,2.2,1,2.2,2.3v31.5
							C509.1,816.7,508.1,817.7,506.9,817.7z"/>
						<path class="st3" d="M530.4,781.5c3.5,0,9,0.8,9,3.5c0,1.1-0.8,2-2,2c-0.4,0-0.7-0.1-1-0.3c-1.6-0.8-3-1.4-5.7-1.4
							c-4.7,0-6.9,1.9-6.9,5.6c0,2.5,1,3.7,3.7,5.2c5.5,2.7,13,3.4,13,11.7c0,6.1-3.9,9.9-11.5,9.9c-3.5,0-10.1-0.7-10.1-3.5
							c0-1,0.8-2.1,2.2-2.1c0.1,0,0.2,0,0.4,0.1c2.1,0.8,4.4,1.7,7.5,1.7c4.2,0,7.1-1.7,7.1-5.8c0-2.9-1.3-4.2-2.8-5.1
							c-5.4-2.7-13.8-3.4-13.8-11.7C519.4,785.3,523.2,781.5,530.4,781.5z"/>
						<path class="st3" d="M558,781.5c3.5,0,9,0.8,9,3.5c0,1.1-0.8,2-2,2c-0.4,0-0.7-0.1-1-0.3c-1.6-0.8-3-1.4-5.7-1.4
							c-4.7,0-6.9,1.9-6.9,5.6c0,2.5,1,3.7,3.7,5.2c5.5,2.7,13,3.4,13,11.7c0,6.1-3.9,9.9-11.5,9.9c-3.5,0-10.1-0.7-10.1-3.5
							c0-1,0.8-2.1,2.2-2.1c0.1,0,0.2,0,0.4,0.1c2.1,0.8,4.4,1.7,7.5,1.7c4.2,0,7.1-1.7,7.1-5.8c0-2.9-1.3-4.2-2.8-5.1
							c-5.4-2.7-13.8-3.4-13.8-11.7C546.9,785.3,550.8,781.5,558,781.5z"/>
						<path class="st3" d="M574.5,794.3c0-7.1,3.8-12.6,12.4-12.6c3.1,0,9.4,0.8,9.4,3.8c0,1-0.8,1.9-1.9,1.9c-0.4,0-0.7-0.1-1-0.1
							h0.1c-1.7-0.9-3.4-1.7-6-1.7c-6,0-8.4,3.3-8.4,8.8v10.8c0,5.5,2.4,8.8,8.4,8.8c2.7,0,4.3-0.8,6-1.7h-0.1
							c0.5-0.1,0.8-0.2,1-0.2c1,0,1.9,0.9,1.9,1.9c0,2.9-6.3,3.8-9.4,3.8c-8.6,0-12.4-5.5-12.4-12.6V794.3z"/>
						<path class="st3" d="M605.6,817.7c-1.3,0-2.3-1-2.3-2.2v-47.3c0-1.1,0.9-2.3,2.2-2.3s2.2,1,2.2,2.3v16.9
							c3-2.3,6.3-3.6,9.6-3.6c7.3,0,10.6,4.7,10.6,11.4v22.6c0,1.3-1,2.2-2.2,2.2s-2.3-1-2.3-2.2v-22.6c0-4.7-1.9-7.4-6.7-7.4
							c-3,0-6.5,1.5-8.9,4.6v25.3C607.7,816.7,606.8,817.7,605.6,817.7z"/>
						<path class="st3" d="M636.5,805.5v-11.9c0-6.9,4.5-12.2,12.8-12.2c8.4,0,12.8,5.3,12.8,12.2v11.9c0,6.9-4.4,12.2-12.8,12.2
							C641,817.7,636.5,812.4,636.5,805.5z M657.6,805.5v-12c0-5-2.8-8.1-8.3-8.1s-8.3,3.1-8.3,8.1v12c0,5,2.8,8.1,8.3,8.1
							C654.9,813.6,657.6,810.5,657.6,805.5z"/>
						<path class="st3" d="M668.7,805.5v-11.9c0-6.9,4.5-12.2,12.8-12.2c8.4,0,12.8,5.3,12.8,12.2v11.9c0,6.9-4.4,12.2-12.8,12.2
							C673.2,817.7,668.7,812.4,668.7,805.5z M689.9,805.5v-12c0-5-2.8-8.1-8.3-8.1s-8.3,3.1-8.3,8.1v12c0,5,2.8,8.1,8.3,8.1
							C687.1,813.6,689.9,810.5,689.9,805.5z"/>
						<path class="st3" d="M703.1,768.6c0-1.2,1-2.3,2.2-2.3s2.2,1,2.2,2.3V811c0,1.6,0.3,2.8,1.3,3.8c0.1,0.2,0.3,0.7,0.3,1
							c0,1.2-0.8,2-2,2c-1.5,0-4-0.8-4-6.7V768.6z"/>
						<path class="st3" d="M753.9,776.5c-2.6,11.6-6.2,27-8.8,38.5c-0.4,1.2-1.3,2.8-3.3,2.8c-1.7,0-2.8-1.3-3.3-2.8L728,770v-0.3
							c0-1.3,1.5-1.9,2.7-1.9c0.8,0,1.7,0.7,2.1,1.7l9.3,40.1l8.7-38.3c0.6-2.3,1.3-3.8,3.2-3.8s2.6,1.5,3.1,3.8l8.8,38.4l9.2-40.2
							c0.3-1,1-1.7,1.9-1.7c1.3,0,2.8,0.6,2.8,2c0,0.1,0,0.4-0.1,0.6v0.1L769.2,815c-0.4,1.5-1.5,2.8-3.3,2.8s-2.9-1.5-3.3-2.9
							L753.9,776.5z"/>
						<path class="st3" d="M801.6,793.5c0-5.6-2.6-8.3-8.1-8.3c-2.6,0-4,0.6-5.6,1.5c-0.4,0.3-1,0.6-1.7,0.6c-1,0-1.5-1-1.5-1.8
							c-0.3-2.9,4.9-4.1,9.5-4.1c8.5,0,11.9,4.9,11.9,14v15.7c0,1.8,0.6,2.7,1.9,2.7c0.3,0,0.4-0.1,0.6-0.1c1,0,1.5,1,1.5,1.9
							c0,1.4-1.4,1.9-2.6,1.9c-2.2,0-4-1.5-5.3-4c-2.9,2.8-6.2,4.2-9.9,4.2c-7,0-10.4-4.2-10.4-10.2v-0.3c0-6.7,4-10.1,12.1-10.1
							c2.4,0,5,0.5,7.7,1.3v-4.9H801.6z M786.3,807.3v0.3c0,3.6,1.6,6.3,6.9,6.3c3.2,0,5.8-1.1,8.5-3.4v-8.3
							c-2.8-0.9-5.7-1.3-7.8-1.3C787.5,800.8,786.3,803.7,786.3,807.3z"/>
						<path class="st3" d="M822.2,815.5c0,1.3-1,2.2-2.2,2.2c-1.3,0-2.3-1-2.3-2.2v-24.2c0-2.4-0.3-3.9-1.3-5.3
							c-0.3-0.3-0.4-0.8-0.4-1.2c0-1.2,1-2,2.1-2c0.9,0,1.9,0.9,2.7,2.2c3.3-2.1,7.4-3.3,9.9-3.3c2.4,0,3.2,1,3.2,2.2
							c0,1.4-1,2.4-2.2,2.4c-3.1-0.1-5.8-0.1-9.6,2.8v0.1c0,0,0.1,0.1,0.1,2.2V815.5z"/>
						<path class="st3" d="M859.1,811.9c0.1-0.1,0.5-0.2,0.8-0.2c1.1,0,1.9,1,1.9,1.9c0,3.1-7.4,4.1-11,4.1
							c-7.8,0-12.2-4.9-12.2-11.3V793c0-6.6,4.4-11.6,12.6-11.6c7.6,0,11.3,4.4,11.3,11.1c0,6.3-3.4,10.1-11.5,10.1
							c-2.3,0-5.1-0.2-7.8-0.8v4.9c0,4.2,2.8,7.1,8.4,7.1C854.7,813.9,856.6,813,859.1,811.9z M851,785.4c-5,0-7.9,2.8-7.9,7.1v5.9
							c3,0.4,6.7,0.6,8.1,0.6c5.8,0,6.8-3.1,6.8-6.4C858,787.5,855.5,785.4,851,785.4z"/>
						<path class="st3" d="M891.1,784.1c1.7-3.1,4.1-4.4,5.4-4.4c1.2,0,2.1,0.8,2.1,2c0,0.6-0.1,0.9-0.3,1l-0.6,0.7
							c-2.4,2.2-3.5,3.3-3.5,6.6v4.4c0,6.9-4.1,12.4-12.4,12.4c-2.1,0-4.1-0.4-5.9-1.1c-0.9,1.6-1.2,3-1.2,4c0,2.9,2.6,3.6,4.4,3.6
							h3c7.8,0,13.7,3.1,13.7,9.7c0,6.9-6,11-14.1,11c-7.8,0-13.2-3.8-13.2-10.4c0-3.2,1.4-5.9,4-8.2c-1.8-1.7-2.4-3.9-2.4-5.5
							c0-1.5,0.6-3.7,3.1-5.8c-2.8-2.6-4.2-6-4.2-10.1c0-7.2,4-12.6,12.3-12.6C884.6,781.5,888.2,782.4,891.1,784.1z M875.9,817.1
							c-1.9,1.5-2.8,3.5-2.8,5.8c0,4.7,3.1,7.2,8.9,7.2c5.5,0,9.4-2.2,9.4-6.9c0-4-3-5.7-9.1-5.7h-3
							C878,817.5,876.8,817.4,875.9,817.1z M890,787.8c-2.5-1.5-5.1-2.4-7.8-2.4c-5.6,0-8.5,3.2-8.5,8.8c0,5.1,2.4,8.6,8.2,8.6
							c5.5,0,7.9-3.1,7.9-8.1v-4.5C889.8,789.8,889.8,788.8,890,787.8z"/>
						<path class="st3" d="M922.7,811.9c0.1-0.1,0.5-0.2,0.8-0.2c1.1,0,1.9,1,1.9,1.9c0,3.1-7.4,4.1-11,4.1
							c-7.8,0-12.2-4.9-12.2-11.3V793c0-6.6,4.4-11.6,12.6-11.6c7.6,0,11.3,4.4,11.3,11.1c0,6.3-3.4,10.1-11.5,10.1
							c-2.3,0-5.1-0.2-7.8-0.8v4.9c0,4.2,2.8,7.1,8.4,7.1C918.2,813.9,920.2,813,922.7,811.9z M914.5,785.4c-5,0-7.9,2.8-7.9,7.1
							v5.9c3,0.4,6.7,0.6,8.1,0.6c5.8,0,6.8-3.1,6.8-6.4C921.6,787.5,919,785.4,914.5,785.4z"/>
						<path class="st3" d="M948.2,781.5c3.7,0,6.3,1.4,8.2,3.9c3.2-2.4,6.7-3.9,10.5-3.9c7.4,0,11.3,4.7,11.3,11.7v22.4
							c0,1.3-0.7,2.2-2.2,2.2s-2.3-0.9-2.3-2.2v-22.2c0-4.3-2.2-7.8-7-7.8c-3.3,0-6.5,1.8-8.4,4.2c0.2,1,0.3,2.2,0.3,3.5v22.4
							c0,1.3-0.7,2.2-2.2,2.2s-2.3-0.9-2.3-2.2v-20.8c0-5.4-0.9-9.2-6.5-9.2c-3.2,0-6.6,1.5-8.8,3.2c0.1,0.8,0.2,1.6,0.2,2.5v24.3
							c0,1.3-0.8,2.2-2.2,2.2c-1.5,0-2.3-0.9-2.3-2.2v-24.3c0-2.4-0.3-3.9-1.3-5.3c-0.3-0.3-0.4-0.8-0.4-1.2c0-1.2,1-2,2-2
							c0.9,0,1.9,0.6,2.7,2.2C940.9,782.7,944.5,781.5,948.2,781.5z"/>
					</g>
				</g>
			</g>
			<g>
				<circle class="st4" cx="383.8" cy="527.4" r="27.6"/>
				<circle class="st5" cx="551.3" cy="350.6" r="90.6"/>
				
					<ellipse transform="matrix(0.7071 -0.7071 0.7071 0.7071 -214.1846 489.8037)" class="st3" cx="484.2" cy="503.4" rx="44.3" ry="44.3"/>
				<path class="st6" d="M675.2,380.2c0,60.6,49.1,109.8,109.8,109.8s109.8-49.1,109.8-109.8S845.6,270.4,785,270.4
					S675.2,319.5,675.2,380.2z M723.4,382.1c0-34,27.6-61.6,61.6-61.6s61.6,27.6,61.6,61.6S819,443.7,785,443.7
					C751,443.8,723.4,416.2,723.4,382.1z"/>
				<circle class="st7" cx="630.6" cy="528.6" r="65.4"/>
			</g>
		</g>
	</g>
	<g id="Lijnen_groene_bol" class="st8">
		<rect x="105.8" y="121.5" class="st9" width="1041" height="881"/>
		<circle class="st10" cx="1062.7" cy="749.4" r="84.4"/>
		<circle class="st10" cx="794.7" cy="205.4" r="84.4"/>
		<circle class="st10" cx="357.7" cy="918.4" r="84.4"/>
		<circle class="st10" cx="189.7" cy="373.4" r="84.4"/>
		<line class="st11" x1="273.8" y1="1218.5" x2="273.8" y2="-71.5"/>
		<line class="st11" x1="105.8" y1="1218" x2="105.8" y2="-72"/>
		<line class="st11" x1="376.8" y1="1219" x2="376.8" y2="-71"/>
		<line class="st11" x1="878.8" y1="1218" x2="878.8" y2="-72"/>
		<line class="st11" x1="977.8" y1="1219" x2="977.8" y2="-71"/>
		<line class="st11" x1="1146.8" y1="1238" x2="1146.8" y2="-52"/>
		<line class="st11" x1="-258.3" y1="289.5" x2="1582.8" y2="289.5"/>
		<line class="st11" x1="-270.8" y1="121.5" x2="1570.3" y2="121.5"/>
		<line class="st11" x1="-468.8" y1="1002.5" x2="1372.3" y2="1002.5"/>
		<line class="st11" x1="-257.8" y1="679.5" x2="1583.3" y2="679.5"/>
		<line class="st11" x1="-257.8" y1="660.5" x2="1583.3" y2="660.5"/>
		<line class="st11" x1="-257.8" y1="734.5" x2="1583.3" y2="734.5"/>
		<line class="st11" x1="-323.8" y1="765.5" x2="1517.3" y2="765.5"/>
		<line class="st11" x1="-270.8" y1="781.5" x2="1570.3" y2="781.5"/>
		<line class="st11" x1="-257.8" y1="834.5" x2="1583.3" y2="834.5"/>
		<line class="st11" x1="-257.8" y1="817.5" x2="1583.3" y2="817.5"/>
	</g>
	<g id="Laag_4" class="st8">
		<rect x="105.8" y="121.5" class="st9" width="1041" height="881"/>
	</g>
	<g id="Laag_5">
		<rect x="151.8" y="133.6" class="st12" width="949" height="823.9"/>
	</g>
	<g id="Oranje_bollen" class="st8">
		<circle class="st13" cx="403.6" cy="987.4" r="27.6"/>
		<circle class="st13" cx="347.9" cy="987.4" r="27.6"/>
		<circle class="st13" cx="292.2" cy="987.4" r="27.6"/>
		<circle class="st13" cx="236.5" cy="987.4" r="27.6"/>
		<circle class="st13" cx="180.8" cy="987.4" r="27.6"/>
		<circle class="st13" cx="459.3" cy="987.4" r="27.6"/>
		<circle class="st13" cx="515" cy="987.4" r="27.6"/>
		<circle class="st13" cx="737.7" cy="987.4" r="27.6"/>
		<circle class="st13" cx="793.4" cy="987.4" r="27.6"/>
		<circle class="st13" cx="849.1" cy="987.4" r="27.6"/>
		<circle class="st13" cx="904.8" cy="987.4" r="27.6"/>
		<circle class="st13" cx="960.5" cy="987.4" r="27.6"/>
		<circle class="st13" cx="1016.1" cy="987.4" r="27.6"/>
		<circle class="st13" cx="1071.8" cy="987.4" r="27.6"/>
		<circle class="st13" cx="682" cy="987.4" r="27.6"/>
		<circle class="st13" cx="626.3" cy="987.4" r="27.6"/>
		<circle class="st13" cx="570.6" cy="987.4" r="27.6"/>
		<circle class="st13" cx="121.3" cy="707.1" r="27.6"/>
		<circle class="st13" cx="121.3" cy="762.8" r="27.6"/>
		<circle class="st13" cx="121.3" cy="818.5" r="27.6"/>
		<circle class="st13" cx="121.3" cy="874.2" r="27.6"/>
		<circle class="st13" cx="121.3" cy="929.9" r="27.6"/>
		<circle class="st13" cx="121.3" cy="651.4" r="27.6"/>
		<circle class="st13" cx="121.3" cy="595.7" r="27.6"/>
		<circle class="st13" cx="121.3" cy="373" r="27.6"/>
		<circle class="st13" cx="121.3" cy="317.3" r="27.6"/>
		<circle class="st13" cx="121.3" cy="261.6" r="27.6"/>
		<circle class="st13" cx="121.3" cy="205.9" r="27.6"/>
		<circle class="st13" cx="121.3" cy="150.2" r="27.6"/>
		<circle class="st13" cx="121.3" cy="428.7" r="27.6"/>
		<circle class="st13" cx="121.3" cy="484.4" r="27.6"/>
		<circle class="st13" cx="121.3" cy="540.1" r="27.6"/>
	</g>
	<g id="Paarse_bollekes_1_">
		
			<ellipse transform="matrix(0.7071 -0.7071 0.7071 0.7071 92.1405 362.4202)" class="st14" cx="483.6" cy="70" rx="41.3" ry="41.3"/>
	</g>
	<g>
		<g>
			<line class="st15" x1="281.8" y1="528.9" x2="349" y2="528.9"/>
			<g>
				<polygon class="st3" points="295.7,540.8 283.8,528.9 295.7,517.1 285.6,517.1 273.8,528.9 285.6,540.8 				"/>
			</g>
			<g>
				<polygon class="st3" points="335.1,540.8 346.9,528.9 335.1,517.1 345.1,517.1 357,528.9 345.1,540.8 				"/>
			</g>
		</g>
	</g>
	<g>
		<g>
			<line class="st15" x1="629.4" y1="669.6" x2="629.4" y2="602.3"/>
			<g>
				<polygon class="st3" points="641.2,655.6 629.4,667.5 617.5,655.6 617.5,665.7 629.4,677.6 641.2,665.7 				"/>
			</g>
			<g>
				<polygon class="st3" points="641.2,616.3 629.4,604.4 617.5,616.3 617.5,606.2 629.4,594.3 641.2,606.2 				"/>
			</g>
		</g>
	</g>
	<g>
		<g>
			<line class="st15" x1="870.9" y1="250.1" x2="870.9" y2="142.8"/>
			<g>
				<polygon class="st3" points="882.7,236.2 870.9,248 859,236.2 859,246.2 870.9,258.1 882.7,246.2 				"/>
			</g>
			<g>
				<polygon class="st3" points="882.7,156.8 870.9,144.9 859,156.8 859,146.7 870.9,134.8 882.7,146.7 				"/>
			</g>
		</g>
	</g>
	<g>
		<g>
			<line class="st15" x1="902.8" y1="382.9" x2="970" y2="382.9"/>
			<g>
				<polygon class="st3" points="916.7,394.8 904.8,382.9 916.7,371.1 906.6,371.1 894.8,382.9 906.6,394.8 				"/>
			</g>
			<g>
				<polygon class="st3" points="956.1,394.8 967.9,382.9 956.1,371.1 966.1,371.1 978,382.9 966.1,394.8 				"/>
			</g>
		</g>
	</g>
	<g>
		<g>
			<line class="st15" x1="128.4" y1="827" x2="128.4" y2="266.9"/>
			<g>
				<polygon class="st3" points="140.3,813.1 128.4,824.9 116.6,813.1 116.6,823.1 128.4,835 140.3,823.1 				"/>
			</g>
			<g>
				<polygon class="st3" points="140.3,280.8 128.4,269 116.6,280.8 116.6,270.8 128.4,258.9 140.3,270.8 				"/>
			</g>
		</g>
	</g>
	<g>
		<g>
			<line class="st15" x1="971.1" y1="1007.4" x2="281.9" y2="1007.4"/>
			<g>
				<polygon class="st3" points="957.1,995.6 969,1007.4 957.1,1019.3 967.2,1019.3 979.1,1007.4 967.2,995.6 				"/>
			</g>
			<g>
				<polygon class="st3" points="295.8,995.6 283.9,1007.4 295.8,1019.3 285.7,1019.3 273.9,1007.4 285.7,995.6 				"/>
			</g>
		</g>
	</g>
	<g>
		<g>
			<line class="st15" x1="450.3" y1="72.5" x2="517.5" y2="72.5"/>
			<g>
				<polygon class="st3" points="464.2,84.3 452.3,72.5 464.2,60.6 454.1,60.6 442.3,72.5 454.1,84.3 				"/>
			</g>
			<g>
				<polygon class="st3" points="503.6,84.3 515.4,72.5 503.6,60.6 513.6,60.6 525.5,72.5 513.6,84.3 				"/>
			</g>
		</g>
	</g>
	<g>
		<g>
			<line class="st15" x1="343.9" y1="949.1" x2="343.9" y2="841.8"/>
			<g>
				<polygon class="st3" points="355.7,935.1 343.9,947 332,935.1 332,945.2 343.9,957.1 355.7,945.2 				"/>
			</g>
			<g>
				<polygon class="st3" points="355.7,855.8 343.9,843.9 332,855.8 332,845.7 343.9,833.8 355.7,845.7 				"/>
			</g>
		</g>
	</g>
	<g>
		<g>
			<line class="st15" x1="1094.5" y1="799.5" x2="987.2" y2="799.5"/>
			<g>
				<polygon class="st3" points="1080.5,787.6 1092.4,799.5 1080.5,811.3 1090.6,811.3 1102.5,799.5 1090.6,787.6 				"/>
			</g>
			<g>
				<polygon class="st3" points="1001.2,787.6 989.3,799.5 1001.2,811.3 991.1,811.3 979.2,799.5 991.1,787.6 				"/>
			</g>
		</g>
	</g>
	<g>
		<polygon class="st3" points="50.5,493.1 67,493.1 54.1,521.5 60,521.5 73.5,491.3 73.5,488 50.5,488 		"/>
		<polygon class="st3" points="106.8,495.8 100.2,495.8 94.9,503.8 89.6,495.8 83,495.8 91.7,508.4 82.7,521.5 89.3,521.5 
			94.9,513.1 100.6,521.5 107.2,521.5 98.1,508.4 		"/>
		<polygon class="st3" points="571.2,58.4 564.5,58.4 559.2,66.3 553.9,58.4 547.3,58.4 556,71 547,84 553.6,84 559.3,75.6 
			564.9,84 571.5,84 562.5,71 		"/>
		<polygon class="st3" points="328.2,487.4 321.5,487.4 316.2,495.3 310.9,487.4 304.3,487.4 313,500 304,513 310.6,513 
			316.3,504.6 321.9,513 328.5,513 319.5,500 		"/>
		<path class="st3" d="M612.9,1053.7c0.6-0.5,1.2-1.1,1.7-1.8c1.1-1.5,1.7-3.2,1.7-5.1c0-2.9-1-5.3-2.9-7.1
			c-1.9-1.8-4.4-2.7-7.5-2.7s-5.6,0.9-7.5,2.6c-1.9,1.8-2.9,4.2-2.9,7.1c0,1.9,0.5,3.6,1.6,5.1c0.5,0.7,1,1.3,1.7,1.8
			c-0.9,0.6-1.6,1.3-2.2,2.1c-1.2,1.6-1.8,3.5-1.8,5.5c0,3.1,1.1,5.5,3.2,7.3c2,1.8,4.7,2.6,8,2.6c3.3,0,6-0.9,8-2.7
			c2.1-1.8,3.2-4.3,3.2-7.3c0-2.1-0.6-4-1.9-5.6C614.5,1055,613.7,1054.3,612.9,1053.7z M610,1064.9c-1,0.9-2.4,1.3-4.2,1.3
			c-1.9,0-3.3-0.4-4.3-1.3c-1-0.9-1.4-2-1.4-3.5c0-1.5,0.5-2.7,1.5-3.6c1.1-1,2.4-1.4,4.2-1.4c1.7,0,3.1,0.5,4.2,1.4
			c1,0.9,1.5,2.1,1.5,3.6C611.5,1062.9,611,1064.1,610,1064.9z M602.2,1043.5c0.9-0.9,2.1-1.3,3.6-1.3c1.5,0,2.6,0.4,3.6,1.3
			c0.9,0.9,1.4,2,1.4,3.3c0,1.3-0.4,2.4-1.3,3.2c-0.9,0.8-2.1,1.2-3.6,1.2c-1.5,0-2.7-0.4-3.6-1.2c-0.9-0.8-1.3-1.8-1.3-3.2
			C600.9,1045.4,601.3,1044.3,602.2,1043.5z"/>
		<path class="st3" d="M622.4,1064.7c-1.2,0-2,0.5-2.4,1c-0.6,0.6-0.9,1.4-0.9,2.3c0,0.9,0.3,1.7,0.9,2.3c0.4,0.4,1.2,0.9,2.4,0.9
			c1.2,0,1.9-0.5,2.4-0.9c0.6-0.6,0.9-1.4,0.9-2.3c0-0.9-0.3-1.7-0.9-2.3C624.4,1065.2,623.7,1064.7,622.4,1064.7z"/>
		<path class="st3" d="M640.7,1048.5c-1.4,0-2.7,0.2-4,0.6l0.6-6.2h13.2v-5.3h-18.1l-1.7,17.4l4,1.1l0.6-0.5
			c0.8-0.7,1.6-1.2,2.3-1.4c0.7-0.2,1.6-0.4,2.6-0.4c1.7,0,3,0.5,4,1.6c1,1.1,1.5,2.6,1.5,4.5c0,2.2-0.4,3.9-1.3,5
			c-0.8,1-2,1.5-3.8,1.5c-1.6,0-2.8-0.4-3.7-1.2c-0.9-0.8-1.4-2.1-1.6-3.8l-0.2-1.3h-5.4l0.1,1.6c0.3,3,1.4,5.5,3.3,7.2
			c1.9,1.7,4.4,2.6,7.4,2.6c3.3,0,6-1.1,7.8-3.2c1.8-2,2.8-4.9,2.8-8.5c0-3.3-1-6.1-2.8-8.1C646.5,1049.5,643.9,1048.5,640.7,1048.5
			z"/>
		<polygon class="st3" points="684.3,1045.3 677.7,1045.3 672.4,1053.3 667.1,1045.3 660.5,1045.3 669.2,1057.9 660.1,1071 
			666.8,1071 672.4,1062.6 678,1071 684.7,1071 675.6,1057.9 		"/>
		<polygon class="st3" points="671.5,645 662.5,632 671.2,619.4 664.5,619.4 659.2,627.3 653.9,619.4 647.3,619.4 656,632 647,645 
			653.6,645 659.3,636.6 664.9,645 		"/>
		<polygon class="st3" points="754.6,177.3 754.6,182.8 762.9,179.7 762.9,206.5 768.4,206.5 768.4,173 766.2,173 		"/>
		<path class="st3" d="M780.9,200.2c-1.2,0-2,0.5-2.4,1c-0.6,0.6-0.9,1.4-0.9,2.3c0,0.9,0.3,1.7,0.9,2.3c0.4,0.4,1.2,0.9,2.4,0.9
			c1.2,0,1.9-0.5,2.4-0.9c0.6-0.6,0.9-1.4,0.9-2.3c0-0.9-0.3-1.7-0.9-2.3C782.9,200.8,782.1,200.2,780.9,200.2z"/>
		<path class="st3" d="M799.2,184c-1.4,0-2.7,0.2-4,0.6l0.6-6.2h13.2v-5.3H791l-1.7,17.4l4,1.1l0.6-0.5c0.8-0.7,1.6-1.2,2.3-1.4
			c0.7-0.2,1.6-0.4,2.6-0.4c1.7,0,3,0.5,4,1.6c1,1.1,1.5,2.6,1.5,4.5c0,2.2-0.4,3.9-1.3,5c-0.8,1-2,1.5-3.8,1.5
			c-1.6,0-2.8-0.4-3.7-1.2c-0.9-0.8-1.4-2.1-1.6-3.8l-0.2-1.3h-5.4l0.1,1.6c0.3,3,1.4,5.5,3.3,7.2c1.9,1.7,4.4,2.6,7.4,2.6
			c3.3,0,6-1.1,7.8-3.2c1.8-2,2.8-4.9,2.8-8.5c0-3.3-1-6.1-2.8-8.1C804.9,185.1,802.4,184,799.2,184z"/>
		<polygon class="st3" points="842.8,180.9 836.1,180.9 830.8,188.9 825.5,180.9 818.9,180.9 827.6,193.5 818.6,206.5 825.2,206.5 
			830.9,198.1 836.5,206.5 843.1,206.5 834.1,193.5 		"/>
		<polygon class="st3" points="949.2,341.4 942.5,341.4 937.2,349.3 931.9,341.4 925.3,341.4 934,354 925,367 931.6,367 
			937.3,358.6 942.9,367 949.5,367 940.5,354 		"/>
		<polygon class="st3" points="227.6,878.2 227.6,883.8 235.9,880.7 235.9,907.5 241.4,907.5 241.4,873.9 239.2,873.9 		"/>
		<path class="st3" d="M253.9,901.2c-1.2,0-2,0.5-2.4,1c-0.6,0.6-0.9,1.4-0.9,2.3c0,0.9,0.3,1.7,0.9,2.3c0.4,0.4,1.2,0.9,2.4,0.9
			c1.2,0,1.9-0.5,2.4-0.9c0.6-0.6,0.9-1.4,0.9-2.3c0-0.9-0.3-1.7-0.9-2.3C255.9,901.8,255.2,901.2,253.9,901.2z"/>
		<path class="st3" d="M272.2,885c-1.4,0-2.7,0.2-4,0.6l0.6-6.2h13.2V874H264l-1.7,17.4l4,1.1l0.6-0.5c0.8-0.7,1.6-1.2,2.3-1.4
			c0.7-0.2,1.6-0.4,2.6-0.4c1.7,0,3,0.5,4,1.6c1,1.1,1.5,2.6,1.5,4.5c0,2.2-0.4,3.9-1.3,5c-0.8,1-2,1.5-3.8,1.5
			c-1.6,0-2.8-0.4-3.7-1.2c-0.9-0.8-1.4-2.1-1.6-3.8l-0.2-1.3h-5.4l0.1,1.6c0.3,3,1.4,5.5,3.3,7.2c1.9,1.7,4.4,2.6,7.4,2.6
			c3.3,0,6-1.1,7.8-3.2c1.8-2,2.8-4.9,2.8-8.5c0-3.3-1-6.1-2.8-8.1C278,886,275.4,885,272.2,885z"/>
		<polygon class="st3" points="315.8,881.9 309.2,881.9 303.9,889.8 298.6,881.9 291.9,881.9 300.7,894.5 291.6,907.5 298.2,907.5 
			303.9,899.1 309.5,907.5 316.1,907.5 307.1,894.5 		"/>
		<polygon class="st3" points="997.1,824.2 997.1,829.8 1005.4,826.7 1005.4,853.5 1010.9,853.5 1010.9,819.9 1008.7,819.9 		"/>
		<path class="st3" d="M1023.4,847.2c-1.2,0-2,0.5-2.4,1c-0.6,0.6-0.9,1.4-0.9,2.3c0,0.9,0.3,1.7,0.9,2.3c0.4,0.4,1.2,0.9,2.4,0.9
			c1.2,0,1.9-0.5,2.4-0.9c0.6-0.6,0.9-1.4,0.9-2.3c0-0.9-0.3-1.7-0.9-2.3C1025.4,847.8,1024.6,847.2,1023.4,847.2z"/>
		<path class="st3" d="M1041.7,831c-1.4,0-2.7,0.2-4,0.6l0.6-6.2h13.2V820h-18.1l-1.7,17.4l4,1.1l0.6-0.5c0.8-0.7,1.6-1.2,2.3-1.4
			c0.7-0.2,1.6-0.4,2.6-0.4c1.7,0,3,0.5,4,1.6c1,1.1,1.5,2.6,1.5,4.5c0,2.2-0.4,3.9-1.3,5c-0.8,1-2,1.5-3.8,1.5
			c-1.6,0-2.8-0.4-3.7-1.2c-0.9-0.8-1.4-2.1-1.6-3.8l-0.2-1.3h-5.4l0.1,1.6c0.3,3,1.4,5.5,3.3,7.2c1.9,1.7,4.4,2.6,7.4,2.6
			c3.3,0,6-1.1,7.8-3.2c1.8-2,2.8-4.9,2.8-8.5c0-3.3-1-6.1-2.8-8.1C1047.4,832,1044.8,831,1041.7,831z"/>
		<polygon class="st3" points="1076.5,840.5 1085.3,827.9 1078.6,827.9 1073.3,835.8 1068,827.9 1061.4,827.9 1070.1,840.5 
			1061.1,853.5 1067.7,853.5 1073.3,845.1 1079,853.5 1085.6,853.5 		"/>
		<polygon class="st3" points="170.6,349.8 170.6,355.3 178.9,352.2 178.9,379 184.4,379 184.4,345.4 182.2,345.4 		"/>
		<path class="st3" d="M196.9,372.7c-1.2,0-2,0.5-2.4,1c-0.6,0.6-0.9,1.4-0.9,2.3c0,0.9,0.3,1.7,0.9,2.3c0.4,0.4,1.2,0.9,2.4,0.9
			c1.2,0,1.9-0.5,2.4-0.9c0.6-0.6,0.9-1.4,0.9-2.3c0-0.9-0.3-1.7-0.9-2.3C198.9,373.3,198.1,372.7,196.9,372.7z"/>
		<path class="st3" d="M215.2,356.5c-1.4,0-2.7,0.2-4,0.6l0.6-6.2h13.2v-5.3H207l-1.7,17.4l4,1.1l0.6-0.5c0.8-0.7,1.6-1.2,2.3-1.4
			c0.7-0.2,1.6-0.4,2.6-0.4c1.7,0,3,0.5,4,1.6c1,1.1,1.5,2.6,1.5,4.5c0,2.2-0.4,3.9-1.3,5c-0.8,1-2,1.5-3.8,1.5
			c-1.6,0-2.8-0.4-3.7-1.2c-0.9-0.8-1.4-2.1-1.6-3.8l-0.2-1.3h-5.4l0.1,1.6c0.3,3,1.4,5.5,3.3,7.2c1.9,1.7,4.4,2.6,7.4,2.6
			c3.3,0,6-1.1,7.8-3.2c1.8-2,2.8-4.9,2.8-8.5c0-3.3-1-6.1-2.8-8.1C220.9,357.6,218.4,356.5,215.2,356.5z"/>
		<polygon class="st3" points="258.8,353.4 252.1,353.4 246.8,361.3 241.5,353.4 234.9,353.4 243.6,366 234.6,379 241.2,379 
			246.9,370.6 252.5,379 259.1,379 250.1,366 		"/>
	</g>
	<g>
		<g>
			<line class="st15" x1="267" y1="325" x2="159.7" y2="325"/>
			<g>
				<polygon class="st3" points="253.1,313.1 264.9,325 253.1,336.8 263.1,336.8 275,325 263.1,313.1 				"/>
			</g>
			<g>
				<polygon class="st3" points="173.7,313.1 161.8,325 173.7,336.8 163.6,336.8 151.7,325 163.6,313.1 				"/>
			</g>
		</g>
	</g>
</g>
</svg>
