<?xml version="1.0" encoding="utf-8"?>
<!-- Generator: Adobe Illustrator 22.0.1, SVG Export Plug-In . SVG Version: 6.00 Build 0)  -->
<svg version="1.1" id="Laag_1" xmlns="http://www.w3.org/2000/svg" xmlns:xlink="http://www.w3.org/1999/xlink" x="0px" y="0px"
	 viewBox="0 0 848.8 641.3" style="enable-background:new 0 0 848.8 641.3;" xml:space="preserve">
<style type="text/css">
	.st0{fill:#FFFFFF;}
	.st1{display:none;}
	.st2{display:inline;fill:none;stroke:#CCCCCC;stroke-width:0.9851;stroke-miterlimit:10;}
	.st3{display:inline;fill:none;stroke:#B3B3B3;stroke-width:4;stroke-miterlimit:10;}
	.st4{display:inline;fill:#F2F2F2;}
</style>
<g id="Laag_1_1_">
	<rect x="-27.8" y="-30.5" width="900" height="702"/>
	<g>
		<g>
			<g>
				<g>
					<path class="st0" d="M148.7,443.8c0,2.1,0.2,4.1,0.6,5.8s1.1,3.2,1.9,4.4s2.1,2.1,3.6,2.8c1.5,0.6,3.3,1,5.5,1
						c1.8,0,3.3-0.2,4.7-0.6s2.6-1.1,3.7-1.9v-16h-6.5c-1.1,0-2.2-0.4-3-1.3c-0.9-0.9-1.3-1.9-1.3-3.1s0.4-2.2,1.3-3.1
						c0.9-0.8,1.9-1.2,3-1.2h9.8c1.6,0,3,0.4,4.2,1.2s1.8,2.1,1.8,3.7v19.9c0,1.9-0.6,3.5-1.7,4.9c-1.1,1.4-2.6,2.4-4.4,3.3
						c-1.8,0.9-3.7,1.5-5.9,1.9c-2.2,0.4-4.3,0.6-6.3,0.6c-3.6,0-6.7-0.6-9.2-1.6c-2.6-1.1-4.7-2.6-6.4-4.5c-1.7-1.9-3-4.3-3.8-7
						c-0.8-2.8-1.2-5.8-1.2-9.2v-15.3c0-3.3,0.4-6.4,1.2-9.2c0.8-2.8,2.1-5.1,3.8-7.1c1.7-1.9,3.8-3.4,6.4-4.5
						c2.6-1.1,5.7-1.6,9.2-1.6c2.1,0,4.2,0.2,6.2,0.6c1.9,0.4,3.7,1.1,5.3,1.8c1.5,0.8,2.8,1.7,3.7,2.7c0.9,1,1.4,2,1.4,3.2
						s-0.4,2.1-1.2,2.9c-0.8,0.8-1.9,1.2-3.2,1.2c-0.8,0-1.5-0.2-1.9-0.4s-1-0.6-1.6-1l-0.4-0.2c-1.1-0.8-2.4-1.4-3.6-1.8
						c-1.3-0.4-2.7-0.6-4.2-0.6c-2.2,0-4.1,0.3-5.5,1c-1.5,0.6-2.7,1.5-3.6,2.8c-0.9,1.2-1.5,2.7-1.9,4.4s-0.6,3.6-0.6,5.8v15.4
						H148.7z"/>
					<path class="st0" d="M209.7,436.6c0-5-2.7-7.6-7.9-7.6c-1.1,0-2.1,0.1-2.8,0.3c-0.7,0.2-1.5,0.5-2.3,0.8l-1.6,0.7
						c-0.6,0.3-1.3,0.4-2.3,0.4c-1.3,0-2.2-0.4-2.8-1.2s-0.8-1.7-0.8-2.6c0-1.1,0.4-2.1,1.1-2.9c0.7-0.8,1.8-1.5,3-1.9
						c1.3-0.5,2.7-0.9,4.3-1.1c1.6-0.2,3.2-0.3,4.9-0.3c5.8,0,10.1,1.5,12.6,4.5c2.5,3,3.8,7.4,3.8,13.1v17.5c0,1.1,0.2,1.8,0.6,2.1
						c0.4,0.3,0.9,0.6,1.5,0.6c1.7,0.3,2.6,1.4,2.6,3.1c0,2.4-1.7,3.6-5.1,3.6c-3,0-5.3-1.3-6.9-3.9c-3.2,2.8-7.1,4.1-11.8,4.1
						c-4.7,0-8.3-1.2-10.6-3.6c-2.4-2.4-3.6-5.7-3.6-9.7v-0.2c0-8.7,5.4-13.1,16.1-13.1c2.7,0,5.3,0.3,7.8,1.1L209.7,436.6
						L209.7,436.6z M202.2,446.5c-1.5,0-2.8,0.2-3.6,0.5c-1,0.3-1.7,0.7-2.2,1.3s-0.9,1.2-1.1,1.9c-0.2,0.7-0.2,1.5-0.2,2.4v0.2
						c0,1.7,0.5,3.1,1.5,4c1,1,2.6,1.5,5,1.5c1.5,0,2.9-0.2,4.2-0.7c1.3-0.5,2.7-1.2,4-2.4v-7.8c-1.3-0.3-2.6-0.5-3.9-0.7
						C204.5,446.6,203.3,446.5,202.2,446.5z"/>
					<path class="st0" d="M260.3,429.4c-1.9,5.4-3.7,10.7-5.5,16c-1.8,5.3-3.6,10.6-5.4,16.1c-0.6,1.7-1.3,2.8-2.2,3.6
						c-0.9,0.7-2,1.1-3.5,1.1c-1.5,0-2.8-0.3-3.6-1.1c-0.8-0.7-1.5-1.9-2.1-3.5c-1.9-5.4-3.7-10.8-5.6-16.1
						c-1.9-5.4-3.7-10.7-5.6-16.1l-1-3.4c0-0.1,0-0.2-0.1-0.2c0-0.1-0.1-0.2-0.1-0.2c0-1.1,0.5-2.1,1.5-2.9s2-1.1,3.2-1.1
						c0.9,0,1.7,0.2,2.6,0.8c0.9,0.5,1.5,1.3,1.7,2.3c0.8,2.6,1.6,5.2,2.4,7.7c0.8,2.5,1.6,5.1,2.4,7.7c0.8,2.6,1.5,5.1,2.1,7.6
						c0.6,2.5,1.2,5,1.9,7.6c0.6-2.6,1.2-5.1,1.8-7.6c0.6-2.5,1.3-5,2.1-7.6c0.8-2.6,1.6-5.1,2.4-7.7c0.8-2.5,1.5-5.1,2.4-7.7
						c0.3-0.9,0.8-1.5,1.7-2.1c0.8-0.6,1.7-0.8,2.6-0.8c1.2,0,2.3,0.4,3.2,1.1c0.9,0.8,1.4,1.8,1.4,3v0.5L260.3,429.4z"/>
					<path class="st0" d="M283.8,448.4c-1.2,0-2.4-0.1-3.7-0.2c-1.3-0.1-2.6-0.2-4-0.5v4c0,1.9,0.6,3.5,1.9,4.6
						c1.3,1.1,3.4,1.7,6.2,1.7c1.6,0,3.1-0.2,4.3-0.6c1.3-0.4,2.6-0.9,4.1-1.5c0.1-0.1,0.3-0.2,0.6-0.3c0.3-0.1,0.7-0.2,1.2-0.2
						c1.5,0,2.6,0.4,3.2,1.3s1,1.7,1,2.6c0,1.3-0.6,2.4-1.7,3.2c-1.1,0.8-2.5,1.5-4.1,2c-1.6,0.5-3.2,0.9-5,1.1s-3.2,0.3-4.5,0.3
						c-2.7,0-5-0.4-7.1-1.1c-2.1-0.7-3.8-1.8-5.2-3.1c-1.4-1.3-2.5-2.9-3.2-4.7c-0.7-1.8-1.1-3.7-1.1-5.8V436c0-2.1,0.4-4.1,1.1-5.9
						c0.7-1.8,1.9-3.4,3.2-4.7c1.5-1.3,3.2-2.4,5.4-3.2c2.1-0.8,4.5-1.1,7.3-1.1c5.3,0,9.2,1.3,11.8,3.9c2.6,2.6,3.9,6.1,3.9,10.4
						c0,4.1-1.2,7.3-3.7,9.6C293.3,447.2,289.3,448.4,283.8,448.4z M290.3,435.2c0-2.3-0.6-4-1.7-4.9c-1.1-1-2.8-1.5-4.9-1.5
						c-2.4,0-4.3,0.6-5.6,1.8c-1.3,1.2-1.9,2.8-1.9,4.9v5.1c1.5,0.2,3,0.3,4.5,0.4c1.5,0.1,2.5,0.2,3.2,0.2c2.4,0,4.2-0.6,5.1-1.6
						C289.8,438.5,290.3,437,290.3,435.2z"/>
					<path class="st0" d="M327.6,430.1c-0.9,0-1.8,0-2.5,0c-0.8,0-1.5,0.1-2.3,0.2c-0.7,0.1-1.5,0.3-2.3,0.6
						c-0.8,0.3-1.6,0.7-2.5,1.2c0.1,0.4,0.1,0.7,0.2,1.1c0,0.3,0.1,0.6,0.1,0.9v27.7c0,1.3-0.5,2.4-1.3,3.2c-0.9,0.8-2,1.2-3.3,1.2
						c-1.3,0-2.4-0.4-3.3-1.2s-1.4-1.9-1.4-3.2v-27.7c0-1.2-0.1-2.2-0.2-2.9c-0.2-0.7-0.5-1.5-1-2.1c-0.3-0.3-0.5-0.7-0.6-1.1
						c-0.2-0.3-0.2-0.8-0.2-1.3c0-1.2,0.4-2.2,1.3-2.9c0.9-0.7,1.9-1.1,3.2-1.1c0.8,0,1.5,0.2,2.2,0.7c0.6,0.5,1.2,1.1,1.8,1.8
						c1.9-1.1,4-2,6-2.8c2-0.6,3.8-1,5.3-1c2.2,0,3.7,0.4,4.5,1.2c0.8,0.8,1.2,1.8,1.2,3c0,1.4-0.5,2.5-1.4,3.3
						C330,429.8,328.9,430.2,327.6,430.1z"/>
					<path class="st0" d="M349.1,437.1l12.4-13.2c0.6-0.6,1.2-1.2,1.9-1.7c0.7-0.5,1.5-0.7,2.5-0.7c1.3,0,2.4,0.4,3.2,1.1
						c0.9,0.8,1.3,1.7,1.3,2.9c0,1.1-0.4,2.1-1.2,2.9l-11.7,12.1c2.3,3.2,4.6,6.4,6.9,9.6c2.3,3.2,4.5,6.3,6.8,9.6
						c0.3,0.3,0.5,0.7,0.6,1.2c0.1,0.5,0.2,1,0.2,1.4c-0.1,1.1-0.6,2-1.5,2.8c-0.8,0.6-1.9,1-3.1,1c-0.7,0-1.2-0.1-1.7-0.2
						c-0.4-0.1-0.8-0.3-1.1-0.6c-0.3-0.3-0.6-0.6-1-1.1c-0.3-0.5-0.7-1.1-1.1-1.7L350.9,446c-0.3,0.3-0.6,0.6-1,1
						c-0.3,0.4-0.6,0.7-1,1v11.8c0,1.6-0.3,3.1-1,4.3c-0.6,1.3-1.9,1.9-3.6,1.9c-1.3,0-2.4-0.4-3.3-1.2c-0.9-0.8-1.4-1.9-1.4-3.1
						v-49c0-0.9,0.1-1.7,0.2-2.4c0.1-0.8,0.3-1.5,0.7-2.1c0.3-0.6,0.8-1.1,1.5-1.5c0.6-0.3,1.4-0.5,2.4-0.5c1.3,0,2.4,0.4,3.3,1.2
						s1.4,1.9,1.4,3.1L349.1,437.1L349.1,437.1z"/>
					<path class="st0" d="M394.2,448.4c-1.2,0-2.4-0.1-3.7-0.2c-1.3-0.1-2.6-0.2-4-0.5v4c0,1.9,0.6,3.5,1.9,4.6
						c1.3,1.1,3.4,1.7,6.2,1.7c1.6,0,3.1-0.2,4.3-0.6c1.3-0.4,2.6-0.9,4.1-1.5c0.1-0.1,0.3-0.2,0.6-0.3c0.3-0.1,0.7-0.2,1.2-0.2
						c1.5,0,2.6,0.4,3.2,1.3c0.6,0.9,1,1.7,1,2.6c0,1.3-0.6,2.4-1.7,3.2s-2.5,1.5-4.1,2c-1.6,0.5-3.2,0.9-5,1.1s-3.2,0.3-4.5,0.3
						c-2.7,0-5-0.4-7.1-1.1c-2.1-0.7-3.8-1.8-5.2-3.1c-1.4-1.3-2.5-2.9-3.2-4.7c-0.7-1.8-1.1-3.7-1.1-5.8V436c0-2.1,0.4-4.1,1.1-5.9
						c0.7-1.8,1.9-3.4,3.2-4.7c1.5-1.3,3.2-2.4,5.4-3.2c2.1-0.8,4.5-1.1,7.3-1.1c5.3,0,9.2,1.3,11.8,3.9c2.6,2.6,3.9,6.1,3.9,10.4
						c0,4.1-1.2,7.3-3.7,9.6C403.7,447.2,399.7,448.4,394.2,448.4z M400.6,435.2c0-2.3-0.6-4-1.7-4.9c-1.1-1-2.8-1.5-4.9-1.5
						c-2.4,0-4.3,0.6-5.6,1.8c-1.3,1.2-1.9,2.8-1.9,4.9v5.1c1.5,0.2,3,0.3,4.5,0.4c1.5,0.1,2.5,0.2,3.2,0.2c2.4,0,4.2-0.6,5.1-1.6
						C400.2,438.5,400.6,437,400.6,435.2z"/>
					<g>
						<g>
							<path class="st0" d="M431.9,465.5c-0.3,0.9-1,1.6-1.9,2c-0.9,0.5-1.8,0.6-2.8,0.5c-0.6-0.1-1.1-0.3-1.5-0.6
								c-0.5-0.2-0.8-0.6-1.1-1s-0.5-0.8-0.6-1.3c-0.1-0.5-0.1-1,0.1-1.5l15.7-41.2c0.3-0.9,1-1.6,1.8-2c0.8-0.5,1.7-0.6,2.7-0.4
								c1.1,0.2,1.9,0.7,2.5,1.5c0.6,0.8,0.9,1.7,0.8,2.6c0,0.3-0.2,0.6-0.3,0.9L431.9,465.5z"/>
						</g>
					</g>
					<path class="st0" d="M463.7,428.4c0-3.3,0.4-6.4,1.2-9.2s2.1-5.1,3.8-7.1c1.7-1.9,3.8-3.4,6.4-4.5c2.6-1.1,5.7-1.6,9.2-1.6
						c2.1,0,4.2,0.2,6.2,0.6c1.9,0.4,3.7,1.1,5.3,1.8c1.5,0.8,2.8,1.7,3.7,2.7c0.9,1,1.4,2,1.4,3.2s-0.4,2.1-1.2,2.9
						s-1.9,1.2-3.2,1.2c-0.8,0-1.5-0.2-1.9-0.4s-1-0.6-1.6-1l-0.4-0.2c-2.3-1.6-4.9-2.4-7.9-2.4c-2.2,0-4.1,0.3-5.5,1
						s-2.7,1.5-3.6,2.8c-0.9,1.2-1.5,2.7-1.9,4.4c-0.4,1.7-0.6,3.6-0.6,5.8v15.3c0,2.1,0.2,4.1,0.6,5.8c0.4,1.7,1.1,3.2,1.9,4.4
						c0.9,1.2,2.1,2.1,3.6,2.8c1.5,0.6,3.3,1,5.5,1c2.8,0,5.5-0.8,7.9-2.4l0.4-0.2c0.6-0.4,1.1-0.7,1.6-1c0.4-0.2,1.1-0.4,1.9-0.4
						c1.3,0,2.4,0.4,3.2,1.2s1.2,1.8,1.2,2.8c0,1.1-0.5,2.2-1.4,3.2c-0.9,1-2.2,1.9-3.7,2.6c-1.5,0.7-3.3,1.4-5.3,1.8
						c-1.9,0.4-4.1,0.6-6.2,0.6c-3.6,0-6.7-0.6-9.2-1.6c-2.6-1.1-4.7-2.6-6.4-4.5c-1.7-1.9-3-4.3-3.8-7c-0.8-2.8-1.2-5.8-1.2-9.2
						L463.7,428.4L463.7,428.4z"/>
					<path class="st0" d="M524.9,466.1c-2.8,0-5.4-0.4-7.5-1.2c-2.2-0.8-4-1.9-5.4-3.3s-2.6-3.1-3.3-5c-0.7-1.9-1.1-4-1.1-6.2v-13.6
						c0-2.3,0.4-4.3,1.1-6.2c0.7-1.9,1.9-3.6,3.3-4.9s3.2-2.5,5.4-3.3c2.2-0.8,4.7-1.2,7.5-1.2c2.8,0,5.4,0.4,7.5,1.2
						c2.2,0.8,4,1.9,5.5,3.3c1.5,1.4,2.6,3.1,3.3,4.9c0.7,1.9,1.1,4,1.1,6.2v13.6c0,2.2-0.4,4.2-1.1,6.2s-1.9,3.6-3.3,5
						c-1.5,1.4-3.3,2.5-5.5,3.3C530.2,465.7,527.7,466.1,524.9,466.1z M524.9,457.9c2.7,0,4.7-0.6,6.1-1.9s2-3.2,2-5.5v-13.7
						c0-2.3-0.6-4.1-2-5.4c-1.4-1.3-3.4-1.9-6.1-1.9s-4.7,0.6-6.1,1.9c-1.4,1.3-2,3.2-2,5.4v13.7c0,2.4,0.6,4.2,2,5.5
						S522.2,457.9,524.9,457.9z"/>
					<path class="st0" d="M558.9,466.1c-0.7,0-1.5-0.1-2.3-0.3c-0.8-0.2-1.5-0.6-2.2-1.3c-0.6-0.6-1.2-1.6-1.7-2.9
						c-0.5-1.3-0.7-2.9-0.7-5v-46.1c0-1.1,0.4-2.2,1.4-3c0.9-0.9,2-1.3,3.3-1.3c1.3,0,2.4,0.4,3.3,1.2s1.4,1.9,1.4,3.1v45.5
						c0,0.9,0.1,1.6,0.2,2.1c0.1,0.5,0.5,1.1,1.1,1.7c0.3,0.3,0.6,0.6,0.8,0.9c0.2,0.3,0.3,0.8,0.3,1.5c0,1.2-0.4,2.2-1.3,2.8
						C561.6,465.6,560.5,466.1,558.9,466.1z"/>
					<path class="st0" d="M580.4,466.1c-0.7,0-1.5-0.1-2.3-0.3c-0.8-0.2-1.5-0.6-2.2-1.3c-0.6-0.6-1.2-1.6-1.7-2.9
						c-0.5-1.3-0.7-2.9-0.7-5v-46.1c0-1.1,0.4-2.2,1.4-3c0.9-0.9,2-1.3,3.3-1.3c1.3,0,2.4,0.4,3.3,1.2s1.4,1.9,1.4,3.1v45.5
						c0,0.9,0.1,1.6,0.2,2.1c0.1,0.5,0.5,1.1,1.1,1.7c0.3,0.3,0.6,0.6,0.8,0.9c0.2,0.3,0.3,0.8,0.3,1.5c0,1.2-0.4,2.2-1.3,2.8
						C583,465.7,581.9,466.1,580.4,466.1z"/>
					<path class="st0" d="M609.9,448.4c-1.2,0-2.4-0.1-3.7-0.2c-1.3-0.1-2.6-0.2-4-0.5v4c0,1.9,0.6,3.5,1.9,4.6
						c1.3,1.1,3.4,1.7,6.2,1.7c1.6,0,3.1-0.2,4.3-0.6c1.3-0.4,2.6-0.9,4.1-1.5c0.1-0.1,0.3-0.2,0.6-0.3c0.3-0.1,0.7-0.2,1.2-0.2
						c1.5,0,2.6,0.4,3.2,1.3s1,1.7,1,2.6c0,1.3-0.6,2.4-1.7,3.2c-1.1,0.8-2.5,1.5-4.1,2c-1.6,0.5-3.2,0.9-5,1.1s-3.2,0.3-4.5,0.3
						c-2.7,0-5-0.4-7.1-1.1c-2.1-0.7-3.8-1.8-5.2-3.1c-1.4-1.3-2.5-2.9-3.2-4.7c-0.7-1.8-1.1-3.7-1.1-5.8V436c0-2.1,0.4-4.1,1.1-5.9
						c0.7-1.8,1.9-3.4,3.2-4.7c1.5-1.3,3.2-2.4,5.4-3.2c2.1-0.8,4.5-1.1,7.3-1.1c5.3,0,9.2,1.3,11.8,3.9c2.6,2.6,3.9,6.1,3.9,10.4
						c0,4.1-1.2,7.3-3.7,9.6C619.4,447.2,615.5,448.4,609.9,448.4z M616.4,435.2c0-2.3-0.6-4-1.7-4.9c-1.1-1-2.8-1.5-4.9-1.5
						c-2.4,0-4.3,0.6-5.6,1.8c-1.3,1.2-1.9,2.8-1.9,4.9v5.1c1.5,0.2,3,0.3,4.5,0.4c1.5,0.1,2.5,0.2,3.2,0.2c2.4,0,4.2-0.6,5.1-1.6
						C615.9,438.5,616.4,437,616.4,435.2z"/>
					<path class="st0" d="M649.4,421.1c2.1,0,4.1,0.2,6,0.7c1.9,0.5,3.7,1.2,5.5,2.2c1.1-1.7,2.2-2.9,3.6-3.7s2.6-1.2,3.6-1.2
						s2.1,0.4,3,1.1c0.9,0.8,1.4,1.7,1.4,2.9c0,0.6-0.1,1.1-0.3,1.5c-0.2,0.4-0.5,0.7-0.7,1l-1.3,1.3c-0.6,0.6-1.1,1.1-1.5,1.5
						c-0.4,0.4-0.6,0.8-0.9,1.2c-0.2,0.4-0.4,0.8-0.5,1.3c-0.1,0.5-0.2,1.1-0.2,1.7v5.1c0,2.3-0.3,4.3-1.1,6.2
						c-0.7,1.9-1.8,3.6-3.2,4.9c-1.5,1.4-3.2,2.5-5.4,3.2c-2.1,0.8-4.6,1.2-7.5,1.2c-1,0-1.9-0.1-3-0.2c-1-0.1-1.9-0.3-2.8-0.6
						c-0.3,0.6-0.5,1.2-0.6,1.6c-0.1,0.5-0.2,0.9-0.2,1.4c0,1.3,0.4,2.2,1.2,2.6c0.8,0.4,1.6,0.6,2.4,0.6h3.6c2.7,0,5.1,0.2,7.3,0.8
						c2.3,0.5,4.2,1.3,5.8,2.4c1.7,1.1,3,2.4,3.9,4c1,1.6,1.5,3.6,1.5,5.8s-0.5,4.2-1.5,6s-2.3,3.2-4,4.5c-1.7,1.3-3.7,2.2-6,2.9
						c-2.3,0.6-4.9,1-7.6,1c-2.7,0-5-0.3-7.2-1c-2.2-0.6-4.1-1.5-5.7-2.7s-2.8-2.6-3.6-4.3c-0.9-1.7-1.3-3.6-1.3-5.8
						c0-1.9,0.4-3.6,1.2-5.2c0.8-1.6,2.1-3.1,3.8-4.6c-0.8-1.1-1.4-2.4-1.7-3.6c-0.3-1.2-0.5-2.4-0.5-3.3c0-1,0.2-2,0.6-3.2
						s1.1-2.3,2.3-3.5c-3.4-3.1-5.1-7.1-5.1-12.1c0-2.3,0.3-4.5,1.1-6.4c0.7-1.9,1.7-3.6,3.1-5.1c1.4-1.5,3.1-2.6,5.1-3.4
						C644.3,421.5,646.7,421.1,649.4,421.1z M649.1,466.9c-0.9,0-1.8,0-2.6-0.1c-0.8-0.1-1.6-0.1-2.4-0.2c-1.5,1.5-2.3,3.2-2.3,5.2
						c0,2.1,0.7,3.6,2.2,4.9c1.5,1.1,3.6,1.7,6.6,1.7c2.8,0,5-0.6,6.8-1.6s2.7-2.6,2.7-4.7c0-3.5-3-5.2-9.1-5.2H649.1L649.1,466.9z
						 M657.9,435.2c0-0.7,0-1.4,0-2.1c0-0.7,0-1.5,0.1-2.1c-1.3-0.6-2.5-1.1-3.6-1.5c-1.2-0.4-2.4-0.6-3.7-0.6
						c-2.8,0-4.8,0.7-6.2,2.2c-1.4,1.5-2,3.6-2,6.3c0,2.5,0.6,4.5,1.9,6.1c1.2,1.5,3.2,2.3,6.1,2.3c2.6,0,4.5-0.6,5.8-2
						c1.2-1.4,1.9-3.2,1.9-5.7L657.9,435.2L657.9,435.2z"/>
					<path class="st0" d="M693.7,448.4c-1.2,0-2.4-0.1-3.7-0.2c-1.3-0.1-2.6-0.2-4-0.5v4c0,1.9,0.6,3.5,1.9,4.6
						c1.3,1.1,3.4,1.7,6.2,1.7c1.6,0,3.1-0.2,4.3-0.6c1.3-0.4,2.6-0.9,4.1-1.5c0.1-0.1,0.3-0.2,0.6-0.3c0.3-0.1,0.7-0.2,1.2-0.2
						c1.5,0,2.6,0.4,3.2,1.3s1,1.7,1,2.6c0,1.3-0.6,2.4-1.7,3.2c-1.1,0.8-2.5,1.5-4.1,2c-1.6,0.5-3.2,0.9-5,1.1s-3.2,0.3-4.5,0.3
						c-2.7,0-5-0.4-7.1-1.1c-2.1-0.7-3.8-1.8-5.2-3.1c-1.4-1.3-2.5-2.9-3.2-4.7c-0.7-1.8-1.1-3.7-1.1-5.8V436c0-2.1,0.4-4.1,1.1-5.9
						c0.7-1.8,1.9-3.4,3.2-4.7c1.5-1.3,3.2-2.4,5.4-3.2c2.1-0.8,4.5-1.1,7.3-1.1c5.3,0,9.2,1.3,11.8,3.9c2.6,2.6,3.9,6.1,3.9,10.4
						c0,4.1-1.2,7.3-3.7,9.6C703.2,447.2,699.3,448.4,693.7,448.4z M700.2,435.2c0-2.3-0.6-4-1.7-4.9c-1.1-1-2.8-1.5-4.9-1.5
						c-2.4,0-4.3,0.6-5.6,1.8s-1.9,2.8-1.9,4.9v5.1c1.5,0.2,3,0.3,4.5,0.4c1.5,0.1,2.5,0.2,3.2,0.2c2.5,0,4.2-0.6,5.1-1.6
						C699.7,438.5,700.2,437,700.2,435.2z"/>
				</g>
			</g>
			<g>
				<g>
					<path class="st0" d="M152.5,531.4c-0.6,1.7-1.3,2.4-2.6,2.4c-1.3,0-2-0.7-2.5-2.3l-8-24.8c-0.4-1.1,0.6-2.1,1.8-2.1
						c0.6,0,1.3,0.2,1.5,1.2l7.2,23.3l7.1-23.3c0.2-0.6,0.7-1.2,1.6-1.2c1,0.1,1.8,0.8,1.8,1.9c0,0.2,0,0.2-0.1,0.5L152.5,531.4z"/>
					<path class="st0" d="M170.4,532c0,1.1-0.8,1.8-1.8,1.8c-1.1,0-1.9-0.8-1.9-1.8v-19.6c0-1.9-0.2-3.2-1.1-4.3
						c-0.2-0.2-0.3-0.6-0.3-1c0-1,0.8-1.6,1.7-1.6c0.7,0,1.5,0.7,2.2,1.8c2.7-1.7,6-2.7,8-2.7c1.9,0,2.6,0.8,2.6,1.8
						c0,1.1-0.8,1.9-1.8,1.9c-2.5-0.1-4.7-0.1-7.8,2.3v0.1c0,0,0.1,0.1,0.1,1.8C170.4,512.5,170.4,532,170.4,532z"/>
					<path class="st0" d="M187.6,497.4c-1.4,0-2.4-1.1-2.4-2.3c0-1.4,1.1-2.4,2.4-2.4c1.2,0,2.3,1.1,2.3,2.4
						C189.9,496.2,188.8,497.4,187.6,497.4z M187.6,533.8c-1.1,0-1.9-0.8-1.9-1.8v-25.5c0-1.1,0.8-1.9,1.9-1.9c1,0,1.8,0.8,1.8,1.9
						V532C189.4,533,188.6,533.8,187.6,533.8z"/>
					<path class="st0" d="M203.2,534.7c0,5.7-3,9.7-7.9,10.4c-0.5,0.1-0.6,0-1.1,0c-0.6,0-1.4-0.5-1.5-1.1c-0.2-1.3,0.6-1.9,1.4-1.9
						c3.4-0.8,5.3-2.6,5.3-7.1v-28.5c0-1.1,0.8-1.9,1.9-1.9c1,0,1.8,0.8,1.8,1.9v28.3H203.2z M201.5,497.4c-1.4,0-2.4-1.1-2.4-2.3
						c0-1.4,1.1-2.4,2.4-2.4c1.2,0,2.3,1.1,2.3,2.4C203.7,496.2,202.7,497.4,201.5,497.4z"/>
					<path class="st0" d="M227.6,529.1c0.1-0.1,0.4-0.2,0.6-0.2c0.9,0,1.5,0.8,1.5,1.5c0,2.5-6,3.3-8.9,3.3c-6.3,0-9.9-4-9.9-9.2
						v-10.8c0-5.4,3.6-9.4,10.2-9.4c6.2,0,9.1,3.6,9.1,9c0,5.1-2.8,8.2-9.3,8.2c-1.9,0-4.1-0.2-6.3-0.6v4c0,3.4,2.3,5.8,6.8,5.8
						C224.1,530.7,225.6,530,227.6,529.1z M221.1,507.6c-4.1,0-6.4,2.3-6.4,5.8v4.8c2.4,0.3,5.4,0.5,6.6,0.5c4.7,0,5.5-2.5,5.5-5.2
						C226.8,509.3,224.7,507.6,221.1,507.6z"/>
					<path class="st0" d="M248.1,493.9c0-0.9,0.6-1.8,1.9-1.8s1.8,0.9,1.8,1.8v13.2c2.5-1.8,5.1-2.8,8.2-2.8c6.2,0,8.5,3.8,8.5,8.6
						v10.9c0,5.6-3.4,9.9-10.1,9.9c-6.6,0-10.2-3.8-10.2-8.7V493.9z M251.7,525.1c0,3.3,2.5,5.4,6.6,5.4c4.5,0,6.5-2.5,6.5-6.6
						v-10.9c0-3.5-1.8-5.6-6-5.6c-3,0-5.3,1.2-7.1,3.2L251.7,525.1L251.7,525.1z"/>
					<path class="st0" d="M289.8,514.2c0-4.5-2.1-6.7-6.6-6.7c-2.1,0-3.2,0.5-4.5,1.2c-0.3,0.2-0.8,0.5-1.4,0.5
						c-0.8,0-1.2-0.8-1.2-1.5c-0.2-2.4,4-3.3,7.7-3.3c6.9,0,9.7,4,9.7,11.4v12.7c0,1.5,0.5,2.2,1.5,2.2c0.2,0,0.3-0.1,0.5-0.1
						c0.8,0,1.2,0.8,1.2,1.5c0,1.1-1.1,1.5-2.1,1.5c-1.8,0-3.2-1.2-4.3-3.2c-2.4,2.3-5,3.4-8,3.4c-5.7,0-8.4-3.4-8.4-8.3v-0.2
						c0-5.4,3.2-8.2,9.8-8.2c1.9,0,4.1,0.4,6.2,1.1L289.8,514.2L289.8,514.2z M277.4,525.3v0.2c0,2.9,1.3,5.1,5.6,5.1
						c2.6,0,4.7-0.9,6.9-2.8v-6.7c-2.3-0.7-4.6-1.1-6.3-1.1C278.3,520.1,277.4,522.4,277.4,525.3z"/>
					<path class="st0" d="M310.8,504.3c2.8,0,7.3,0.6,7.3,2.8c0,0.9-0.6,1.6-1.6,1.6c-0.3,0-0.6-0.1-0.8-0.2
						c-1.3-0.6-2.4-1.1-4.6-1.1c-3.8,0-5.6,1.5-5.6,4.5c0,2,0.8,3,3,4.2c4.5,2.2,10.5,2.8,10.5,9.5c0,4.9-3.2,8-9.3,8
						c-2.8,0-8.2-0.6-8.2-2.8c0-0.8,0.6-1.7,1.8-1.7c0.1,0,0.2,0,0.3,0.1c1.7,0.6,3.6,1.4,6.1,1.4c3.4,0,5.8-1.4,5.8-4.7
						c0-2.4-1.1-3.4-2.3-4.1c-4.4-2.2-11.2-2.8-11.2-9.5C301.9,507.5,304.9,504.3,310.8,504.3z"/>
					<path class="st0" d="M327.5,497.4c-1.4,0-2.4-1.1-2.4-2.3c0-1.4,1.1-2.4,2.4-2.4c1.2,0,2.3,1.1,2.3,2.4
						C329.8,496.2,328.7,497.4,327.5,497.4z M327.5,533.8c-1.1,0-1.9-0.8-1.9-1.8v-25.5c0-1.1,0.8-1.9,1.9-1.9c1,0,1.8,0.8,1.8,1.9
						V532C329.3,533,328.5,533.8,327.5,533.8z"/>
					<path class="st0" d="M346.5,504.3c2.8,0,7.3,0.6,7.3,2.8c0,0.9-0.6,1.6-1.6,1.6c-0.3,0-0.6-0.1-0.8-0.2
						c-1.3-0.6-2.4-1.1-4.6-1.1c-3.8,0-5.6,1.5-5.6,4.5c0,2,0.8,3,3,4.2c4.5,2.2,10.5,2.8,10.5,9.5c0,4.9-3.2,8-9.3,8
						c-2.8,0-8.2-0.6-8.2-2.8c0-0.8,0.6-1.7,1.8-1.7c0.1,0,0.2,0,0.3,0.1c1.7,0.6,3.6,1.4,6.1,1.4c3.4,0,5.8-1.4,5.8-4.7
						c0-2.4-1.1-3.4-2.3-4.1c-4.4-2.2-11.2-2.8-11.2-9.5C337.6,507.5,340.7,504.3,346.5,504.3z"/>
					<path class="st0" d="M368.9,504.3c2.8,0,7.3,0.6,7.3,2.8c0,0.9-0.6,1.6-1.6,1.6c-0.3,0-0.6-0.1-0.8-0.2
						c-1.3-0.6-2.4-1.1-4.6-1.1c-3.8,0-5.6,1.5-5.6,4.5c0,2,0.8,3,3,4.2c4.5,2.2,10.5,2.8,10.5,9.5c0,4.9-3.2,8-9.3,8
						c-2.8,0-8.2-0.6-8.2-2.8c0-0.8,0.6-1.7,1.8-1.7c0.1,0,0.2,0,0.3,0.1c1.7,0.6,3.6,1.4,6.1,1.4c3.4,0,5.8-1.4,5.8-4.7
						c0-2.4-1.1-3.4-2.3-4.1c-4.4-2.2-11.2-2.8-11.2-9.5C359.9,507.5,363.1,504.3,368.9,504.3z"/>
					<path class="st0" d="M382.3,514.8c0-5.8,3.1-10.2,10.1-10.2c2.5,0,7.6,0.6,7.6,3.1c0,0.8-0.6,1.5-1.5,1.5
						c-0.3,0-0.6-0.1-0.8-0.1h0.1c-1.4-0.7-2.8-1.4-4.9-1.4c-4.9,0-6.8,2.7-6.8,7.1v8.8c0,4.5,1.9,7.1,6.8,7.1
						c2.2,0,3.5-0.6,4.9-1.4h-0.1c0.4-0.1,0.6-0.2,0.8-0.2c0.8,0,1.5,0.7,1.5,1.5c0,2.4-5.1,3.1-7.6,3.1c-7,0-10.1-4.5-10.1-10.2
						V514.8z"/>
					<path class="st0" d="M407.5,533.8c-1.1,0-1.9-0.8-1.9-1.8v-38.4c0-0.9,0.7-1.9,1.8-1.9c1.1,0,1.8,0.8,1.8,1.9v13.7
						c2.4-1.9,5.1-2.9,7.8-2.9c5.9,0,8.6,3.8,8.6,9.2V532c0,1.1-0.8,1.8-1.8,1.8c-1,0-1.9-0.8-1.9-1.8v-18.3c0-3.8-1.5-6-5.4-6
						c-2.4,0-5.3,1.2-7.2,3.7V532C409.2,533,408.5,533.8,407.5,533.8z"/>
					<path class="st0" d="M432.5,523.9v-9.7c0-5.6,3.6-9.9,10.4-9.9c6.8,0,10.4,4.3,10.4,9.9v9.7c0,5.6-3.6,9.9-10.4,9.9
						C436.2,533.8,432.5,529.5,432.5,523.9z M449.7,523.9v-9.7c0-4.1-2.3-6.6-6.7-6.6c-4.5,0-6.7,2.5-6.7,6.6v9.7
						c0,4.1,2.3,6.6,6.7,6.6C447.5,530.5,449.7,527.9,449.7,523.9z"/>
					<path class="st0" d="M458.7,523.9v-9.7c0-5.6,3.6-9.9,10.4-9.9c6.8,0,10.4,4.3,10.4,9.9v9.7c0,5.6-3.6,9.9-10.4,9.9
						C462.4,533.8,458.7,529.5,458.7,523.9z M475.8,523.9v-9.7c0-4.1-2.3-6.6-6.7-6.6s-6.7,2.5-6.7,6.6v9.7c0,4.1,2.3,6.6,6.7,6.6
						C473.6,530.5,475.8,527.9,475.8,523.9z"/>
					<path class="st0" d="M486.6,494c0-1,0.8-1.9,1.8-1.9c1,0,1.8,0.8,1.8,1.9v34.4c0,1.3,0.2,2.3,1.1,3.1c0.1,0.2,0.2,0.6,0.2,0.8
						c0,1-0.6,1.6-1.6,1.6c-1.2,0-3.2-0.6-3.2-5.4V494z"/>
					<path class="st0" d="M527.8,500.3c-2.1,9.4-5,21.9-7.1,31.2c-0.3,1-1.1,2.3-2.7,2.3c-1.4,0-2.3-1.1-2.7-2.3l-8.6-36.5v-0.2
						c0-1.1,1.2-1.5,2.2-1.5c0.6,0,1.4,0.6,1.7,1.4l7.5,32.5l7.1-31.1c0.5-1.9,1.1-3.1,2.6-3.1c1.5,0,2.1,1.2,2.5,3.1l7.1,31.1
						l7.5-32.6c0.2-0.8,0.8-1.4,1.5-1.4c1.1,0,2.3,0.5,2.3,1.6c0,0.1,0,0.3-0.1,0.5v0.1l-8.6,36.1c-0.3,1.2-1.2,2.3-2.7,2.3
						c-1.5,0-2.4-1.2-2.7-2.4L527.8,500.3z"/>
					<path class="st0" d="M566.5,514.2c0-4.5-2.1-6.7-6.6-6.7c-2.1,0-3.2,0.5-4.5,1.2c-0.3,0.2-0.8,0.5-1.4,0.5
						c-0.8,0-1.2-0.8-1.2-1.5c-0.2-2.4,4-3.3,7.7-3.3c6.9,0,9.7,4,9.7,11.4v12.7c0,1.5,0.5,2.2,1.5,2.2c0.2,0,0.3-0.1,0.5-0.1
						c0.8,0,1.2,0.8,1.2,1.5c0,1.1-1.1,1.5-2.1,1.5c-1.8,0-3.2-1.2-4.3-3.2c-2.4,2.3-5,3.4-8,3.4c-5.7,0-8.4-3.4-8.4-8.3v-0.2
						c0-5.4,3.2-8.2,9.8-8.2c1.9,0,4.1,0.4,6.2,1.1L566.5,514.2L566.5,514.2z M554.1,525.3v0.2c0,2.9,1.3,5.1,5.6,5.1
						c2.6,0,4.7-0.9,6.9-2.8v-6.7c-2.3-0.7-4.6-1.1-6.3-1.1C555.1,520.1,554.1,522.4,554.1,525.3z"/>
					<path class="st0" d="M583.2,532c0,1.1-0.8,1.8-1.8,1.8c-1.1,0-1.9-0.8-1.9-1.8v-19.6c0-1.9-0.2-3.2-1.1-4.3
						c-0.2-0.2-0.3-0.6-0.3-1c0-1,0.8-1.6,1.7-1.6c0.7,0,1.5,0.7,2.2,1.8c2.7-1.7,6-2.7,8-2.7c1.9,0,2.6,0.8,2.6,1.8
						c0,1.1-0.8,1.9-1.8,1.9c-2.5-0.1-4.7-0.1-7.8,2.3v0.1c0,0,0.1,0.1,0.1,1.8V532z"/>
					<path class="st0" d="M613.1,529.1c0.1-0.1,0.4-0.2,0.6-0.2c0.9,0,1.5,0.8,1.5,1.5c0,2.5-6,3.3-8.9,3.3c-6.3,0-9.9-4-9.9-9.2
						v-10.8c0-5.4,3.6-9.4,10.2-9.4c6.2,0,9.2,3.6,9.2,9c0,5.1-2.8,8.2-9.3,8.2c-1.9,0-4.1-0.2-6.3-0.6v4c0,3.4,2.3,5.8,6.8,5.8
						C609.6,530.7,611.1,530,613.1,529.1z M606.6,507.6c-4.1,0-6.4,2.3-6.4,5.8v4.8c2.4,0.3,5.4,0.5,6.6,0.5c4.7,0,5.5-2.5,5.5-5.2
						C612.2,509.3,610.1,507.6,606.6,507.6z"/>
					<path class="st0" d="M639.1,506.5c1.4-2.5,3.3-3.6,4.4-3.6c1,0,1.7,0.6,1.7,1.6c0,0.5-0.1,0.7-0.2,0.8l-0.5,0.6
						c-1.9,1.8-2.8,2.7-2.8,5.4v3.6c0,5.6-3.3,10.1-10.1,10.1c-1.7,0-3.3-0.3-4.8-0.9c-0.7,1.3-1,2.4-1,3.2c0,2.4,2.1,2.9,3.6,2.9
						h2.4c6.3,0,11.1,2.5,11.1,7.9c0,5.6-4.9,8.9-11.4,8.9c-6.3,0-10.7-3.1-10.7-8.4c0-2.6,1.1-4.8,3.2-6.7
						c-1.5-1.4-1.9-3.2-1.9-4.5c0-1.2,0.5-3,2.5-4.7c-2.3-2.1-3.4-4.9-3.4-8.2c0-5.8,3.2-10.2,10-10.2
						C633.8,504.3,636.7,505.2,639.1,506.5z M626.7,533.3c-1.5,1.2-2.3,2.8-2.3,4.7c0,3.8,2.5,5.8,7.2,5.8c4.5,0,7.6-1.8,7.6-5.6
						c0-3.2-2.4-4.6-7.4-4.6h-2.4C628.4,533.6,627.5,533.5,626.7,533.3z M638.2,509.5c-2-1.2-4.1-1.9-6.3-1.9
						c-4.5,0-6.9,2.6-6.9,7.1c0,4.1,1.9,7,6.7,7c4.5,0,6.4-2.5,6.4-6.6v-3.6C638,511.2,638,510.3,638.2,509.5z"/>
					<path class="st0" d="M664.7,529.1c0.1-0.1,0.4-0.2,0.6-0.2c0.9,0,1.5,0.8,1.5,1.5c0,2.5-6,3.3-8.9,3.3c-6.3,0-9.9-4-9.9-9.2
						v-10.8c0-5.4,3.6-9.4,10.2-9.4c6.2,0,9.2,3.6,9.2,9c0,5.1-2.8,8.2-9.3,8.2c-1.9,0-4.1-0.2-6.3-0.6v4c0,3.4,2.3,5.8,6.8,5.8
						C661.1,530.7,662.7,530,664.7,529.1z M658.1,507.6c-4.1,0-6.4,2.3-6.4,5.8v4.8c2.4,0.3,5.4,0.5,6.6,0.5c4.7,0,5.5-2.5,5.5-5.2
						C663.8,509.3,661.7,507.6,658.1,507.6z"/>
					<path class="st0" d="M685.4,504.3c3,0,5.1,1.1,6.7,3.2c2.6-1.9,5.4-3.2,8.5-3.2c6,0,9.2,3.8,9.2,9.5V532c0,1.1-0.6,1.8-1.8,1.8
						c-1.2,0-1.9-0.7-1.9-1.8v-18c0-3.5-1.8-6.3-5.7-6.3c-2.7,0-5.3,1.5-6.8,3.4c0.2,0.8,0.2,1.8,0.2,2.8V532c0,1.1-0.6,1.8-1.8,1.8
						c-1.2,0-1.9-0.7-1.9-1.8v-16.9c0-4.4-0.7-7.5-5.3-7.5c-2.6,0-5.4,1.2-7.1,2.6c0.1,0.6,0.2,1.3,0.2,2V532c0,1.1-0.6,1.8-1.8,1.8
						c-1.2,0-1.9-0.7-1.9-1.8v-19.7c0-1.9-0.2-3.2-1.1-4.3c-0.2-0.2-0.3-0.6-0.3-1c0-1,0.8-1.6,1.6-1.6c0.7,0,1.5,0.5,2.2,1.8
						C679.5,505.4,682.4,504.3,685.4,504.3z"/>
				</g>
			</g>
		</g>
		<g>
			<circle class="st0" cx="242.9" cy="307.1" r="20.8"/>
			<circle class="st0" cx="369.5" cy="173.4" r="68.4"/>
			<circle class="st0" cx="429.4" cy="308" r="49.5"/>
			<circle class="st0" cx="318.7" cy="289" r="33.5"/>
			<path class="st0" d="M463.2,195.8c0,45.8,37.1,83,83,83s83-37.1,83-83s-37.1-83-83-83S463.2,150,463.2,195.8z M499.6,197.3
				c0-25.7,20.8-46.6,46.6-46.6c25.7,0,46.6,20.8,46.6,46.6s-20.8,46.6-46.6,46.6C520.4,243.9,499.6,223.1,499.6,197.3z"/>
		</g>
	</g>
</g>
<g id="Lijnen" class="st1">
	<line class="st2" x1="71.7" y1="983" x2="71.7" y2="-307"/>
	<line class="st2" x1="-96.3" y1="982.5" x2="-96.3" y2="-307.5"/>
	<line class="st2" x1="174.7" y1="983.5" x2="174.7" y2="-306.5"/>
	<line class="st2" x1="676.7" y1="982.5" x2="676.7" y2="-307.5"/>
	<line class="st2" x1="775.7" y1="983.5" x2="775.7" y2="-306.5"/>
	<line class="st2" x1="944.7" y1="1002.5" x2="944.7" y2="-287.5"/>
	<line class="st2" x1="-460.3" y1="54" x2="1380.7" y2="54"/>
	<line class="st2" x1="-472.8" y1="-114" x2="1368.2" y2="-114"/>
	<line class="st2" x1="-670.8" y1="767" x2="1170.2" y2="767"/>
	<line class="st2" x1="-459.8" y1="444" x2="1381.2" y2="444"/>
	<line class="st2" x1="-459.8" y1="425" x2="1381.2" y2="425"/>
	<line class="st2" x1="-459.8" y1="499" x2="1381.2" y2="499"/>
	<line class="st2" x1="-525.8" y1="530" x2="1315.2" y2="530"/>
	<line class="st2" x1="-472.8" y1="546" x2="1368.2" y2="546"/>
	<line class="st2" x1="-459.8" y1="599" x2="1381.2" y2="599"/>
	<line class="st2" x1="-459.8" y1="582" x2="1381.2" y2="582"/>
	<rect x="-96.3" y="-114" class="st3" width="1041" height="881"/>
	<circle class="st4" cx="860.7" cy="497.9" r="84.4"/>
	<circle class="st4" cx="592.7" cy="-30.1" r="84.4"/>
	<circle class="st4" cx="155.7" cy="682.9" r="84.4"/>
	<circle class="st4" cx="-12.3" cy="137.9" r="84.4"/>
</g>
</svg>
