<?xml version="1.0" encoding="utf-8"?>
<!-- Generator: Adobe Illustrator 22.0.1, SVG Export Plug-In . SVG Version: 6.00 Build 0)  -->
<svg version="1.1" xmlns="http://www.w3.org/2000/svg" xmlns:xlink="http://www.w3.org/1999/xlink" x="0px" y="0px"
	 viewBox="0 0 850.8 657.8" style="enable-background:new 0 0 850.8 657.8;" xml:space="preserve">
<style type="text/css">
	.st0{fill:#FFFFFF;}
	.st1{display:none;}
	.st2{display:inline;fill:none;stroke:#CCCCCC;stroke-width:0.9851;stroke-miterlimit:10;}
	.st3{display:inline;fill:none;stroke:#B3B3B3;stroke-width:4;stroke-miterlimit:10;}
	.st4{display:inline;fill:#F2F2F2;}
</style>
<g id="Laag_1">
	<g>
		<g>
			<g>
				<g>
					<path class="st0" d="M81.4,491.3c0,2.6,0.2,5,0.7,7.1c0.5,2.1,1.3,3.9,2.4,5.4c1.1,1.5,2.6,2.6,4.5,3.4
						c1.8,0.8,4.1,1.2,6.8,1.2c2.2,0,4.1-0.3,5.8-0.8c1.7-0.5,3.2-1.3,4.6-2.3v-19.7h-8c-1.4,0-2.7-0.5-3.7-1.6
						c-1.1-1.1-1.6-2.3-1.6-3.8c0-1.5,0.5-2.7,1.6-3.8c1.1-1,2.3-1.5,3.7-1.5h12.1c2,0,3.7,0.5,5.2,1.5c1.5,1,2.2,2.6,2.2,4.6v24.5
						c0,2.3-0.7,4.3-2.1,6c-1.4,1.7-3.2,3-5.4,4.1c-2.2,1.1-4.6,1.8-7.3,2.3c-2.7,0.5-5.3,0.7-7.8,0.7c-4.4,0-8.2-0.7-11.4-2
						c-3.2-1.3-5.8-3.2-7.9-5.5c-2.1-2.4-3.7-5.3-4.7-8.6c-1-3.4-1.5-7.1-1.5-11.3v-18.9c0-4.1,0.5-7.9,1.5-11.3
						c1-3.4,2.6-6.3,4.7-8.7c2.1-2.4,4.7-4.2,7.9-5.5s7-2,11.4-2c2.6,0,5.2,0.3,7.6,0.8c2.4,0.5,4.6,1.3,6.5,2.2
						c1.9,1,3.4,2.1,4.6,3.3c1.1,1.2,1.7,2.5,1.7,3.9c0,1.4-0.5,2.6-1.5,3.6c-1,1-2.3,1.5-3.9,1.5c-1,0-1.8-0.2-2.3-0.5
						c-0.5-0.3-1.2-0.7-2-1.2l-0.5-0.3c-1.4-1-2.9-1.7-4.5-2.2c-1.6-0.5-3.3-0.7-5.2-0.7c-2.7,0-5,0.4-6.8,1.2
						c-1.8,0.8-3.3,1.9-4.5,3.4c-1.1,1.5-1.9,3.3-2.4,5.4c-0.5,2.1-0.7,4.5-0.7,7.1V491.3z"/>
					<path class="st0" d="M156.7,482.4c0-6.2-3.3-9.4-9.8-9.4c-1.4,0-2.6,0.1-3.5,0.4c-0.9,0.3-1.8,0.6-2.8,1l-2,0.9
						c-0.7,0.4-1.6,0.5-2.8,0.5c-1.6,0-2.7-0.5-3.4-1.5c-0.7-1-1-2.1-1-3.2c0-1.4,0.5-2.6,1.4-3.6c0.9-1,2.2-1.8,3.7-2.4
						c1.6-0.6,3.3-1.1,5.3-1.4c2-0.3,4-0.4,6.1-0.4c7.2,0,12.4,1.8,15.5,5.5c3.1,3.7,4.7,9.1,4.7,16.2v21.6c0,1.3,0.2,2.2,0.7,2.6
						c0.5,0.4,1.1,0.7,1.9,0.8c2.1,0.4,3.2,1.7,3.2,3.8c0,3-2.1,4.5-6.3,4.5c-3.7,0-6.5-1.6-8.5-4.8c-4,3.4-8.8,5.1-14.5,5.1
						c-5.8,0-10.2-1.5-13.1-4.5c-2.9-3-4.4-7-4.4-11.9v-0.3c0-10.7,6.6-16.1,19.9-16.1c3.3,0,6.5,0.4,9.6,1.3V482.4z M147.4,494.6
						c-1.8,0-3.4,0.2-4.5,0.6c-1.2,0.4-2.1,0.9-2.7,1.6c-0.6,0.7-1.1,1.5-1.3,2.4c-0.2,0.9-0.3,1.9-0.3,2.9v0.3
						c0,2.1,0.6,3.8,1.8,4.9c1.2,1.2,3.2,1.8,6.2,1.8c1.8,0,3.6-0.3,5.2-0.9c1.6-0.6,3.3-1.5,4.9-2.9v-9.6c-1.6-0.4-3.2-0.6-4.8-0.9
						C150.3,494.7,148.8,494.6,147.4,494.6z"/>
					<path class="st0" d="M219.1,473.5c-2.3,6.6-4.6,13.2-6.8,19.7c-2.2,6.5-4.4,13.1-6.7,19.8c-0.7,2.1-1.6,3.5-2.7,4.4
						c-1.1,0.9-2.5,1.3-4.3,1.3c-1.9,0-3.4-0.4-4.4-1.3c-1-0.9-1.9-2.3-2.6-4.3c-2.3-6.7-4.6-13.3-6.9-19.9
						c-2.3-6.6-4.6-13.2-6.9-19.9l-1.2-4.2c0-0.1,0-0.2-0.1-0.3c0-0.1-0.1-0.2-0.1-0.3c0-1.4,0.6-2.6,1.8-3.6c1.2-1,2.5-1.4,3.9-1.4
						c1.1,0,2.1,0.3,3.2,1c1.1,0.6,1.8,1.6,2.1,2.8c1,3.2,2,6.4,3,9.5c1,3.1,2,6.3,3,9.5c1,3.2,1.9,6.3,2.6,9.4
						c0.7,3.1,1.5,6.2,2.4,9.4c0.8-3.2,1.5-6.3,2.2-9.4c0.7-3.1,1.6-6.2,2.6-9.4c1-3.2,2-6.3,2.9-9.5c1-3.1,1.9-6.3,2.9-9.5
						c0.4-1.1,1-1.9,2.1-2.6c1-0.7,2.1-1,3.2-1c1.5,0,2.8,0.5,3.9,1.4c1.1,1,1.7,2.2,1.7,3.7v0.6L219.1,473.5z"/>
					<path class="st0" d="M248,496.9c-1.5,0-3-0.1-4.6-0.2c-1.6-0.1-3.2-0.3-4.9-0.6v4.9c0,2.4,0.8,4.3,2.4,5.7
						c1.6,1.4,4.2,2.1,7.6,2.1c2,0,3.8-0.2,5.3-0.7c1.6-0.5,3.2-1.1,5-1.9c0.1-0.1,0.4-0.3,0.8-0.4c0.4-0.1,0.9-0.2,1.5-0.2
						c1.8,0,3.2,0.5,4,1.6c0.8,1.1,1.2,2.1,1.2,3.2c0,1.6-0.7,3-2.1,4c-1.4,1-3.1,1.9-5,2.5c-2,0.6-4,1.1-6.2,1.3
						c-2.2,0.2-4,0.4-5.6,0.4c-3.3,0-6.2-0.5-8.7-1.4c-2.6-0.9-4.7-2.2-6.4-3.8c-1.7-1.6-3.1-3.6-4-5.8c-0.9-2.2-1.4-4.6-1.4-7.2
						v-18.8c0-2.6,0.5-5.1,1.4-7.3c0.9-2.2,2.3-4.2,4-5.8c1.8-1.6,4-2.9,6.6-3.9c2.6-1,5.6-1.4,9-1.4c6.5,0,11.3,1.6,14.5,4.8
						c3.2,3.2,4.8,7.5,4.8,12.8c0,5-1.5,9-4.6,11.8C259.8,495.5,254.8,496.9,248,496.9z M256,480.6c0-2.8-0.7-4.9-2.1-6.1
						c-1.4-1.2-3.4-1.8-6-1.8c-3,0-5.3,0.7-6.9,2.2c-1.6,1.5-2.4,3.5-2.4,6.1v6.3c1.8,0.2,3.7,0.4,5.5,0.5c1.8,0.1,3.1,0.2,3.9,0.2
						c3,0,5.2-0.7,6.3-2C255.4,484.7,256,482.9,256,480.6z"/>
					<path class="st0" d="M302,474.3c-1.1,0-2.2,0-3.1,0c-1,0-1.9,0.1-2.8,0.2c-0.9,0.1-1.8,0.4-2.8,0.7c-1,0.4-2,0.9-3.1,1.5
						c0.1,0.5,0.1,0.9,0.2,1.3c0,0.4,0.1,0.8,0.1,1.1v34.1c0,1.6-0.6,2.9-1.6,3.9c-1.1,1-2.5,1.5-4.1,1.5c-1.6,0-3-0.5-4.1-1.5
						c-1.1-1-1.7-2.3-1.7-3.9v-34.1c0-1.5-0.1-2.7-0.3-3.6c-0.2-0.9-0.6-1.8-1.2-2.6c-0.4-0.4-0.6-0.9-0.8-1.3
						c-0.2-0.4-0.3-1-0.3-1.6c0-1.5,0.5-2.7,1.6-3.6c1.1-0.9,2.4-1.4,3.9-1.4c1,0,1.9,0.3,2.7,0.9c0.8,0.6,1.5,1.3,2.2,2.2
						c2.4-1.4,4.9-2.5,7.4-3.4c2.5-0.8,4.7-1.2,6.5-1.2c2.7,0,4.6,0.5,5.6,1.5c1,1,1.5,2.2,1.5,3.7c0,1.7-0.6,3.1-1.7,4.1
						C305,474,303.6,474.5,302,474.3z"/>
					<path class="st0" d="M328.5,483l15.3-16.3c0.7-0.8,1.5-1.5,2.3-2.1c0.9-0.6,1.9-0.9,3.1-0.9c1.6,0,2.9,0.5,3.9,1.4
						c1.1,1,1.6,2.1,1.6,3.6c0,1.4-0.5,2.6-1.5,3.6l-14.4,14.9c2.8,4,5.7,7.9,8.5,11.8c2.8,3.9,5.6,7.8,8.4,11.8
						c0.4,0.4,0.6,0.9,0.7,1.5c0.1,0.6,0.2,1.2,0.2,1.7c-0.1,1.4-0.7,2.5-1.8,3.4c-1,0.8-2.3,1.2-3.8,1.2c-0.9,0-1.5-0.1-2.1-0.2
						c-0.5-0.1-1-0.4-1.4-0.7c-0.4-0.4-0.8-0.8-1.2-1.4c-0.4-0.6-0.9-1.3-1.4-2.1l-14.1-20.2c-0.4,0.4-0.8,0.8-1.2,1.2
						c-0.4,0.5-0.8,0.9-1.2,1.2v14.6c0,2-0.4,3.8-1.2,5.3c-0.8,1.6-2.3,2.3-4.5,2.3c-1.6,0-3-0.5-4.1-1.5c-1.1-1-1.7-2.3-1.7-3.8
						v-60.4c0-1.1,0.1-2.1,0.2-3c0.1-1,0.4-1.8,0.9-2.6c0.4-0.7,1-1.3,1.8-1.8c0.7-0.4,1.7-0.6,2.9-0.6c1.6,0,3,0.5,4.1,1.5
						c1.1,1,1.7,2.3,1.7,3.8V483z"/>
					<path class="st0" d="M384.2,496.9c-1.5,0-3-0.1-4.6-0.2c-1.6-0.1-3.2-0.3-4.9-0.6v4.9c0,2.4,0.8,4.3,2.4,5.7
						c1.6,1.4,4.2,2.1,7.6,2.1c2,0,3.8-0.2,5.3-0.7c1.6-0.5,3.2-1.1,5-1.9c0.1-0.1,0.4-0.3,0.8-0.4c0.4-0.1,0.9-0.2,1.5-0.2
						c1.8,0,3.2,0.5,4,1.6c0.8,1.1,1.2,2.1,1.2,3.2c0,1.6-0.7,3-2.1,4c-1.4,1-3.1,1.9-5,2.5c-2,0.6-4,1.1-6.2,1.3
						c-2.2,0.2-4,0.4-5.6,0.4c-3.3,0-6.2-0.5-8.7-1.4c-2.6-0.9-4.7-2.2-6.4-3.8c-1.7-1.6-3.1-3.6-4-5.8c-0.9-2.2-1.4-4.6-1.4-7.2
						v-18.8c0-2.6,0.5-5.1,1.4-7.3c0.9-2.2,2.3-4.2,4-5.8c1.8-1.6,4-2.9,6.6-3.9c2.6-1,5.6-1.4,9-1.4c6.5,0,11.3,1.6,14.5,4.8
						c3.2,3.2,4.8,7.5,4.8,12.8c0,5-1.5,9-4.6,11.8C395.9,495.5,391,496.9,384.2,496.9z M392.1,480.6c0-2.8-0.7-4.9-2.1-6.1
						c-1.4-1.2-3.4-1.8-6-1.8c-3,0-5.3,0.7-6.9,2.2c-1.6,1.5-2.4,3.5-2.4,6.1v6.3c1.8,0.2,3.7,0.4,5.5,0.5c1.8,0.1,3.1,0.2,3.9,0.2
						c3,0,5.2-0.7,6.3-2C391.6,484.7,392.1,482.9,392.1,480.6z"/>
					<g>
						<g>
							<path class="st0" d="M430.6,518c-0.4,1.1-1.2,2-2.3,2.5c-1.1,0.6-2.2,0.7-3.4,0.6c-0.7-0.1-1.3-0.4-1.9-0.7
								c-0.6-0.3-1-0.8-1.4-1.2c-0.4-0.5-0.6-1-0.8-1.6c-0.1-0.6-0.1-1.2,0.1-1.8l19.3-50.8c0.4-1.1,1.2-2,2.2-2.5
								c1-0.6,2.1-0.7,3.3-0.5c1.3,0.2,2.3,0.9,3.1,1.9c0.8,1,1.1,2.1,1,3.2c0,0.4-0.2,0.8-0.4,1.1L430.6,518z"/>
						</g>
					</g>
					<path class="st0" d="M469.8,472.3c0-4.1,0.5-7.9,1.5-11.3c1-3.4,2.6-6.3,4.7-8.7c2.1-2.4,4.7-4.2,7.9-5.5s7-2,11.4-2
						c2.6,0,5.2,0.3,7.6,0.8c2.4,0.5,4.6,1.3,6.5,2.2c1.9,1,3.4,2.1,4.6,3.3c1.1,1.2,1.7,2.5,1.7,3.9c0,1.4-0.5,2.6-1.5,3.6
						c-1,1-2.3,1.5-3.9,1.5c-1,0-1.8-0.2-2.3-0.5c-0.5-0.3-1.2-0.7-2-1.2l-0.5-0.3c-2.8-2-6.1-3-9.7-3c-2.7,0-5,0.4-6.8,1.2
						c-1.8,0.8-3.3,1.9-4.5,3.4c-1.1,1.5-1.9,3.3-2.4,5.4c-0.5,2.1-0.7,4.5-0.7,7.1v18.9c0,2.6,0.2,5,0.7,7.1
						c0.5,2.1,1.3,3.9,2.4,5.4c1.1,1.5,2.6,2.6,4.5,3.4c1.8,0.8,4.1,1.2,6.8,1.2c3.5,0,6.8-1,9.7-2.9l0.5-0.3c0.8-0.5,1.4-0.9,2-1.2
						c0.5-0.3,1.3-0.5,2.3-0.5c1.6,0,2.9,0.5,3.9,1.5c1,1,1.5,2.2,1.5,3.5c0,1.4-0.6,2.7-1.7,4c-1.1,1.2-2.7,2.3-4.6,3.2
						c-1.9,0.9-4.1,1.7-6.5,2.2c-2.4,0.5-5,0.8-7.6,0.8c-4.4,0-8.2-0.7-11.4-2c-3.2-1.3-5.8-3.2-7.9-5.5c-2.1-2.4-3.7-5.3-4.7-8.6
						c-1-3.4-1.5-7.1-1.5-11.3V472.3z"/>
					<path class="st0" d="M545.3,518.7c-3.5,0-6.7-0.5-9.3-1.5c-2.7-1-4.9-2.4-6.7-4.1c-1.8-1.7-3.2-3.8-4.1-6.2
						c-0.9-2.4-1.4-4.9-1.4-7.6v-16.8c0-2.8,0.5-5.3,1.4-7.7c0.9-2.3,2.3-4.4,4.1-6.1c1.8-1.7,4-3.1,6.7-4.1c2.7-1,5.8-1.5,9.3-1.5
						c3.5,0,6.6,0.5,9.3,1.5c2.7,1,4.9,2.4,6.8,4.1c1.8,1.7,3.2,3.8,4.1,6.1c0.9,2.3,1.4,4.9,1.4,7.7v16.8c0,2.7-0.5,5.2-1.4,7.6
						c-0.9,2.4-2.3,4.4-4.1,6.2c-1.8,1.7-4.1,3.1-6.8,4.1C551.9,518.2,548.8,518.7,545.3,518.7z M545.3,508.6c3.3,0,5.8-0.8,7.5-2.4
						c1.7-1.6,2.5-3.9,2.5-6.8v-16.9c0-2.8-0.8-5.1-2.5-6.7c-1.7-1.6-4.2-2.4-7.5-2.4c-3.3,0-5.8,0.8-7.5,2.4
						c-1.7,1.6-2.5,3.9-2.5,6.7v16.9c0,2.9,0.8,5.2,2.5,6.8C539.5,507.8,542,508.6,545.3,508.6z"/>
					<path class="st0" d="M587.3,518.7c-0.9,0-1.8-0.1-2.8-0.4c-1-0.2-1.9-0.8-2.7-1.6c-0.8-0.8-1.5-2-2.1-3.6
						c-0.6-1.6-0.9-3.6-0.9-6.2v-56.8c0-1.4,0.5-2.7,1.7-3.7c1.1-1.1,2.5-1.6,4.1-1.6c1.6,0,3,0.5,4.1,1.5c1.1,1,1.7,2.3,1.7,3.8
						v56.1c0,1.1,0.1,2,0.2,2.6c0.1,0.6,0.6,1.3,1.3,2.1c0.4,0.4,0.7,0.7,1,1.1c0.3,0.4,0.4,1,0.4,1.8c0,1.5-0.5,2.7-1.6,3.5
						C590.6,518.3,589.2,518.7,587.3,518.7z"/>
					<path class="st0" d="M613.7,518.7c-0.9,0-1.8-0.1-2.8-0.4c-1-0.2-1.9-0.8-2.7-1.6c-0.8-0.8-1.5-2-2.1-3.6
						c-0.6-1.6-0.9-3.6-0.9-6.2v-56.8c0-1.4,0.5-2.7,1.7-3.7c1.1-1.1,2.5-1.6,4.1-1.6c1.6,0,3,0.5,4.1,1.5c1.1,1,1.7,2.3,1.7,3.8
						v56.1c0,1.1,0.1,2,0.2,2.6c0.1,0.6,0.6,1.3,1.3,2.1c0.4,0.4,0.7,0.7,1,1.1c0.3,0.4,0.4,1,0.4,1.8c0,1.5-0.5,2.7-1.6,3.5
						C617,518.3,615.6,518.7,613.7,518.7z"/>
					<path class="st0" d="M650.1,496.9c-1.5,0-3-0.1-4.6-0.2c-1.6-0.1-3.2-0.3-4.9-0.6v4.9c0,2.4,0.8,4.3,2.4,5.7
						c1.6,1.4,4.2,2.1,7.6,2.1c2,0,3.8-0.2,5.3-0.7c1.6-0.5,3.2-1.1,5-1.9c0.1-0.1,0.4-0.3,0.8-0.4c0.4-0.1,0.9-0.2,1.5-0.2
						c1.8,0,3.2,0.5,4,1.6c0.8,1.1,1.2,2.1,1.2,3.2c0,1.6-0.7,3-2.1,4c-1.4,1-3.1,1.9-5,2.5c-2,0.6-4,1.1-6.2,1.3
						c-2.2,0.2-4,0.4-5.6,0.4c-3.3,0-6.2-0.5-8.7-1.4c-2.6-0.9-4.7-2.2-6.4-3.8c-1.7-1.6-3.1-3.6-4-5.8c-0.9-2.2-1.4-4.6-1.4-7.2
						v-18.8c0-2.6,0.5-5.1,1.4-7.3c0.9-2.2,2.3-4.2,4-5.8c1.8-1.6,4-2.9,6.6-3.9c2.6-1,5.6-1.4,9-1.4c6.5,0,11.3,1.6,14.5,4.8
						c3.2,3.2,4.8,7.5,4.8,12.8c0,5-1.5,9-4.6,11.8C661.9,495.5,657,496.9,650.1,496.9z M658.1,480.6c0-2.8-0.7-4.9-2.1-6.1
						c-1.4-1.2-3.4-1.8-6-1.8c-3,0-5.3,0.7-6.9,2.2c-1.6,1.5-2.4,3.5-2.4,6.1v6.3c1.8,0.2,3.7,0.4,5.5,0.5c1.8,0.1,3.1,0.2,3.9,0.2
						c3,0,5.2-0.7,6.3-2C657.5,484.7,658.1,482.9,658.1,480.6z"/>
					<path class="st0" d="M698.8,463.3c2.6,0,5.1,0.3,7.4,0.9c2.3,0.6,4.6,1.5,6.8,2.7c1.3-2.1,2.7-3.6,4.4-4.6
						c1.7-1,3.2-1.5,4.5-1.5c1.3,0,2.6,0.5,3.7,1.4c1.1,1,1.7,2.1,1.7,3.6c0,0.7-0.1,1.3-0.4,1.8c-0.3,0.5-0.6,0.9-0.9,1.2l-1.6,1.6
						c-0.7,0.7-1.3,1.3-1.8,1.9c-0.5,0.5-0.8,1-1.1,1.5c-0.3,0.5-0.5,1-0.6,1.6c-0.1,0.6-0.2,1.3-0.2,2.1v6.3c0,2.8-0.4,5.3-1.3,7.7
						c-0.9,2.3-2.2,4.4-3.9,6.1c-1.8,1.7-4,3.1-6.6,4c-2.6,1-5.7,1.5-9.3,1.5c-1.2,0-2.4-0.1-3.7-0.2c-1.2-0.1-2.4-0.4-3.5-0.7
						c-0.4,0.8-0.6,1.5-0.7,2c-0.1,0.6-0.2,1.1-0.2,1.7c0,1.6,0.5,2.7,1.5,3.2c1,0.5,2,0.8,2.9,0.8h4.5c3.3,0,6.3,0.3,9,1
						c2.8,0.6,5.2,1.6,7.2,2.9c2.1,1.3,3.7,3,4.8,4.9c1.2,2,1.8,4.4,1.8,7.1s-0.6,5.2-1.8,7.4c-1.2,2.2-2.8,4-4.9,5.6
						c-2.1,1.6-4.6,2.7-7.4,3.6c-2.8,0.8-6,1.2-9.4,1.2c-3.3,0-6.2-0.4-8.9-1.2c-2.7-0.8-5-1.9-7-3.3c-2-1.4-3.5-3.2-4.5-5.3
						c-1.1-2.1-1.6-4.5-1.6-7.1c0-2.3,0.5-4.5,1.5-6.4c1-2,2.6-3.8,4.7-5.7c-1-1.4-1.7-2.9-2.1-4.4c-0.4-1.5-0.6-2.9-0.6-4.1
						c0-1.2,0.2-2.5,0.7-3.9c0.5-1.4,1.4-2.8,2.8-4.3c-4.2-3.8-6.3-8.7-6.3-14.9c0-2.8,0.4-5.5,1.3-7.9c0.9-2.4,2.1-4.5,3.8-6.3
						c1.7-1.8,3.8-3.2,6.3-4.2C692.5,463.8,695.5,463.3,698.8,463.3z M698.5,519.7c-1.1,0-2.2,0-3.2-0.1c-1-0.1-2-0.1-3-0.2
						c-1.8,1.8-2.8,4-2.8,6.4c0,2.6,0.9,4.5,2.7,6c1.8,1.4,4.5,2.1,8.1,2.1c3.4,0,6.2-0.7,8.4-2c2.2-1.3,3.3-3.2,3.3-5.8
						c0-4.3-3.7-6.4-11.2-6.4H698.5z M709.3,480.6c0-0.9,0-1.7,0-2.6c0-0.9,0-1.8,0.1-2.6c-1.6-0.8-3.1-1.4-4.5-1.9
						c-1.5-0.5-3-0.7-4.6-0.7c-3.4,0-5.9,0.9-7.6,2.7c-1.7,1.8-2.5,4.4-2.5,7.8c0,3.1,0.8,5.6,2.3,7.5c1.5,1.8,4,2.8,7.5,2.8
						c3.2,0,5.6-0.8,7.1-2.5c1.5-1.7,2.3-4,2.3-7V480.6z"/>
					<path class="st0" d="M753.5,496.9c-1.5,0-3-0.1-4.6-0.2c-1.6-0.1-3.2-0.3-4.9-0.6v4.9c0,2.4,0.8,4.3,2.4,5.7
						c1.6,1.4,4.2,2.1,7.6,2.1c2,0,3.8-0.2,5.3-0.7c1.6-0.5,3.2-1.1,5-1.9c0.1-0.1,0.4-0.3,0.8-0.4c0.4-0.1,0.9-0.2,1.5-0.2
						c1.8,0,3.2,0.5,4,1.6c0.8,1.1,1.2,2.1,1.2,3.2c0,1.6-0.7,3-2.1,4c-1.4,1-3.1,1.9-5,2.5c-2,0.6-4,1.1-6.2,1.3
						c-2.2,0.2-4,0.4-5.6,0.4c-3.3,0-6.2-0.5-8.7-1.4c-2.6-0.9-4.7-2.2-6.4-3.8c-1.7-1.6-3.1-3.6-4-5.8c-0.9-2.2-1.4-4.6-1.4-7.2
						v-18.8c0-2.6,0.5-5.1,1.4-7.3c0.9-2.2,2.3-4.2,4-5.8c1.8-1.6,4-2.9,6.6-3.9c2.6-1,5.6-1.4,9-1.4c6.5,0,11.3,1.6,14.5,4.8
						c3.2,3.2,4.8,7.5,4.8,12.8c0,5-1.5,9-4.6,11.8C765.2,495.5,760.3,496.9,753.5,496.9z M761.5,480.6c0-2.8-0.7-4.9-2.1-6.1
						c-1.4-1.2-3.4-1.8-6-1.8c-3,0-5.3,0.7-6.9,2.2c-1.6,1.5-2.4,3.5-2.4,6.1v6.3c1.8,0.2,3.7,0.4,5.5,0.5c1.8,0.1,3.1,0.2,3.9,0.2
						c3.1,0,5.2-0.7,6.3-2C760.9,484.7,761.5,482.9,761.5,480.6z"/>
				</g>
			</g>
			<g>
				<g>
					<path class="st0" d="M86.1,599.3c-0.7,2.1-1.6,2.9-3.2,2.9s-2.5-0.9-3.1-2.8l-9.9-30.6c-0.5-1.4,0.8-2.6,2.2-2.6
						c0.8,0,1.6,0.3,1.9,1.5l8.9,28.7l8.8-28.7c0.2-0.7,0.9-1.5,2-1.5c1.2,0.1,2.2,1,2.2,2.3c0,0.2,0,0.3-0.1,0.6L86.1,599.3z"/>
					<path class="st0" d="M108.2,600c0,1.3-1,2.2-2.2,2.2c-1.3,0-2.3-1-2.3-2.2v-24.2c0-2.4-0.3-3.9-1.3-5.3
						c-0.3-0.3-0.4-0.8-0.4-1.2c0-1.2,1-2,2.1-2c0.9,0,1.9,0.9,2.7,2.2c3.3-2.1,7.4-3.3,9.9-3.3c2.4,0,3.2,1,3.2,2.2
						c0,1.4-1,2.4-2.2,2.4c-3.1-0.1-5.8-0.1-9.6,2.8v0.1c0,0,0.1,0.1,0.1,2.2V600z"/>
					<path class="st0" d="M129.4,557.3c-1.7,0-2.9-1.3-2.9-2.8c0-1.7,1.3-2.9,2.9-2.9c1.5,0,2.8,1.3,2.8,2.9
						C132.3,555.9,130.9,557.3,129.4,557.3z M129.4,602.2c-1.3,0-2.3-1-2.3-2.2v-31.5c0-1.3,1-2.3,2.3-2.3c1.2,0,2.2,1,2.2,2.3V600
						C131.6,601.2,130.6,602.2,129.4,602.2z"/>
					<path class="st0" d="M148.7,603.3c0,7-3.7,11.9-9.7,12.8c-0.6,0.1-0.8,0-1.3,0c-0.8,0-1.7-0.6-1.9-1.4
						c-0.3-1.6,0.8-2.3,1.7-2.4c4.2-1,6.5-3.2,6.5-8.8v-35.1c0-1.3,1-2.3,2.3-2.3c1.2,0,2.2,1,2.2,2.3V603.3z M146.5,557.3
						c-1.7,0-3-1.3-3-2.8c0-1.7,1.3-2.9,3-2.9c1.5,0,2.8,1.3,2.8,2.9C149.3,555.9,148,557.3,146.5,557.3z"/>
					<path class="st0" d="M178.8,596.4c0.1-0.1,0.5-0.2,0.8-0.2c1.1,0,1.9,1,1.9,1.9c0,3.1-7.4,4.1-11,4.1
						c-7.8,0-12.2-4.9-12.2-11.3v-13.3c0-6.6,4.4-11.6,12.6-11.6c7.6,0,11.2,4.4,11.2,11.1c0,6.3-3.4,10.1-11.5,10.1
						c-2.3,0-5.1-0.2-7.8-0.8v4.9c0,4.2,2.8,7.1,8.4,7.1C174.4,598.4,176.3,597.5,178.8,596.4z M170.7,569.9c-5,0-7.9,2.8-7.9,7.1
						v5.9c3,0.4,6.7,0.6,8.1,0.6c5.8,0,6.8-3.1,6.8-6.4C177.7,572,175.2,569.9,170.7,569.9z"/>
					<path class="st0" d="M204,553c0-1.1,0.8-2.2,2.3-2.2c1.5,0,2.2,1.1,2.2,2.2v16.3c3.1-2.2,6.3-3.4,10.1-3.4
						c7.7,0,10.5,4.7,10.5,10.6V590c0,6.9-4.2,12.2-12.5,12.2c-8.1,0-12.6-4.7-12.6-10.7V553z M208.5,591.5c0,4.1,3.1,6.6,8.1,6.6
						c5.5,0,8-3.1,8-8.1v-13.5c0-4.3-2.2-6.9-7.4-6.9c-3.7,0-6.5,1.5-8.7,4V591.5z"/>
					<path class="st0" d="M255.4,578c0-5.6-2.6-8.3-8.1-8.3c-2.6,0-4,0.6-5.6,1.5c-0.4,0.3-1,0.6-1.7,0.6c-1,0-1.5-1-1.5-1.8
						c-0.3-2.9,4.9-4.1,9.5-4.1c8.5,0,11.9,4.9,11.9,14v15.7c0,1.8,0.6,2.7,1.9,2.7c0.3,0,0.4-0.1,0.6-0.1c1,0,1.5,1,1.5,1.9
						c0,1.4-1.4,1.9-2.6,1.9c-2.2,0-4-1.5-5.3-4c-2.9,2.8-6.2,4.2-9.9,4.2c-7,0-10.4-4.2-10.4-10.2v-0.3c0-6.7,4-10.1,12.1-10.1
						c2.4,0,5,0.5,7.7,1.3V578z M240.1,591.8v0.3c0,3.6,1.6,6.3,6.9,6.3c3.2,0,5.8-1.1,8.5-3.4v-8.3c-2.8-0.9-5.7-1.3-7.8-1.3
						C241.3,585.3,240.1,588.2,240.1,591.8z"/>
					<path class="st0" d="M281.3,565.9c3.5,0,9,0.8,9,3.5c0,1.1-0.8,2-2,2c-0.4,0-0.7-0.1-1-0.3c-1.6-0.8-3-1.4-5.7-1.4
						c-4.7,0-6.9,1.9-6.9,5.6c0,2.5,1,3.7,3.7,5.2c5.5,2.7,13,3.4,13,11.7c0,6.1-3.9,9.9-11.5,9.9c-3.5,0-10.1-0.7-10.1-3.5
						c0-1,0.8-2.1,2.2-2.1c0.1,0,0.2,0,0.4,0.1c2.1,0.8,4.4,1.7,7.5,1.7c4.2,0,7.1-1.7,7.1-5.8c0-2.9-1.3-4.2-2.8-5.1
						c-5.4-2.7-13.8-3.4-13.8-11.7C270.3,569.8,274.1,565.9,281.3,565.9z"/>
					<path class="st0" d="M301.9,557.3c-1.7,0-2.9-1.3-2.9-2.8c0-1.7,1.3-2.9,2.9-2.9c1.5,0,2.8,1.3,2.8,2.9
						C304.7,555.9,303.4,557.3,301.9,557.3z M301.9,602.2c-1.3,0-2.3-1-2.3-2.2v-31.5c0-1.3,1-2.3,2.3-2.3c1.2,0,2.2,1,2.2,2.3V600
						C304.1,601.2,303.1,602.2,301.9,602.2z"/>
					<path class="st0" d="M325.4,565.9c3.5,0,9,0.8,9,3.5c0,1.1-0.8,2-2,2c-0.4,0-0.7-0.1-1-0.3c-1.6-0.8-3-1.4-5.7-1.4
						c-4.7,0-6.9,1.9-6.9,5.6c0,2.5,1,3.7,3.7,5.2c5.5,2.7,13,3.4,13,11.7c0,6.1-3.9,9.9-11.5,9.9c-3.5,0-10.1-0.7-10.1-3.5
						c0-1,0.8-2.1,2.2-2.1c0.1,0,0.2,0,0.4,0.1c2.1,0.8,4.4,1.7,7.5,1.7c4.2,0,7.1-1.7,7.1-5.8c0-2.9-1.3-4.2-2.8-5.1
						c-5.4-2.7-13.8-3.4-13.8-11.7C314.4,569.8,318.2,565.9,325.4,565.9z"/>
					<path class="st0" d="M353,565.9c3.5,0,9,0.8,9,3.5c0,1.1-0.8,2-2,2c-0.4,0-0.7-0.1-1-0.3c-1.6-0.8-3-1.4-5.7-1.4
						c-4.7,0-6.9,1.9-6.9,5.6c0,2.5,1,3.7,3.7,5.2c5.5,2.7,13,3.4,13,11.7c0,6.1-3.9,9.9-11.5,9.9c-3.5,0-10.1-0.7-10.1-3.5
						c0-1,0.8-2.1,2.2-2.1c0.1,0,0.2,0,0.4,0.1c2.1,0.8,4.4,1.7,7.5,1.7c4.2,0,7.1-1.7,7.1-5.8c0-2.9-1.3-4.2-2.8-5.1
						c-5.4-2.7-13.8-3.4-13.8-11.7C341.9,569.8,345.8,565.9,353,565.9z"/>
					<path class="st0" d="M369.5,578.8c0-7.1,3.8-12.6,12.4-12.6c3.1,0,9.4,0.8,9.4,3.8c0,1-0.8,1.9-1.9,1.9c-0.4,0-0.7-0.1-1-0.1
						h0.1c-1.7-0.9-3.4-1.7-6-1.7c-6,0-8.4,3.3-8.4,8.8v10.8c0,5.5,2.4,8.8,8.4,8.8c2.7,0,4.3-0.8,6-1.7h-0.1c0.5-0.1,0.8-0.2,1-0.2
						c1,0,1.9,0.9,1.9,1.9c0,2.9-6.3,3.8-9.4,3.8c-8.6,0-12.4-5.5-12.4-12.6V578.8z"/>
					<path class="st0" d="M400.6,602.2c-1.3,0-2.3-1-2.3-2.2v-47.3c0-1.1,0.9-2.3,2.2-2.3s2.2,1,2.2,2.3v16.9c3-2.3,6.3-3.6,9.6-3.6
						c7.3,0,10.6,4.7,10.6,11.4V600c0,1.3-1,2.2-2.2,2.2s-2.3-1-2.3-2.2v-22.6c0-4.7-1.9-7.4-6.7-7.4c-3,0-6.5,1.5-8.9,4.6V600
						C402.7,601.2,401.8,602.2,400.6,602.2z"/>
					<path class="st0" d="M431.4,590v-11.9c0-6.9,4.5-12.2,12.8-12.2c8.4,0,12.8,5.3,12.8,12.2V590c0,6.9-4.4,12.2-12.8,12.2
						C436,602.2,431.4,596.9,431.4,590z M452.6,590v-12c0-5-2.8-8.1-8.3-8.1c-5.5,0-8.3,3.1-8.3,8.1v12c0,5,2.8,8.1,8.3,8.1
						C449.9,598.1,452.6,595,452.6,590z"/>
					<path class="st0" d="M463.7,590v-11.9c0-6.9,4.5-12.2,12.8-12.2c8.4,0,12.8,5.3,12.8,12.2V590c0,6.9-4.4,12.2-12.8,12.2
						C468.2,602.2,463.7,596.9,463.7,590z M484.8,590v-12c0-5-2.8-8.1-8.3-8.1c-5.5,0-8.3,3.1-8.3,8.1v12c0,5,2.8,8.1,8.3,8.1
						C482.1,598.1,484.8,595,484.8,590z"/>
					<path class="st0" d="M498.1,553.1c0-1.2,1-2.3,2.2-2.3s2.2,1,2.2,2.3v42.4c0,1.6,0.3,2.8,1.3,3.8c0.1,0.2,0.3,0.7,0.3,1
						c0,1.2-0.8,2-2,2c-1.5,0-4-0.8-4-6.7V553.1z"/>
					<path class="st0" d="M548.9,560.9c-2.6,11.6-6.2,27-8.8,38.5c-0.4,1.2-1.3,2.8-3.3,2.8c-1.7,0-2.8-1.3-3.3-2.8l-10.6-45v-0.3
						c0-1.3,1.5-1.9,2.7-1.9c0.8,0,1.7,0.7,2.1,1.7l9.3,40.1l8.7-38.3c0.6-2.3,1.3-3.8,3.2-3.8c1.9,0,2.6,1.5,3.1,3.8l8.8,38.4
						l9.2-40.2c0.3-1,1-1.7,1.9-1.7c1.3,0,2.8,0.6,2.8,2c0,0.1,0,0.4-0.1,0.6v0.1l-10.6,44.5c-0.4,1.5-1.5,2.8-3.3,2.8
						c-1.8,0-2.9-1.5-3.3-2.9L548.9,560.9z"/>
					<path class="st0" d="M596.6,578c0-5.6-2.6-8.3-8.1-8.3c-2.6,0-4,0.6-5.6,1.5c-0.4,0.3-1,0.6-1.7,0.6c-1,0-1.5-1-1.5-1.8
						c-0.3-2.9,4.9-4.1,9.5-4.1c8.5,0,11.9,4.9,11.9,14v15.7c0,1.8,0.6,2.7,1.9,2.7c0.3,0,0.4-0.1,0.6-0.1c1,0,1.5,1,1.5,1.9
						c0,1.4-1.4,1.9-2.6,1.9c-2.2,0-4-1.5-5.3-4c-2.9,2.8-6.2,4.2-9.9,4.2c-7,0-10.4-4.2-10.4-10.2v-0.3c0-6.7,4-10.1,12.1-10.1
						c2.4,0,5,0.5,7.7,1.3V578z M581.3,591.8v0.3c0,3.6,1.6,6.3,6.9,6.3c3.2,0,5.8-1.1,8.5-3.4v-8.3c-2.8-0.9-5.7-1.3-7.8-1.3
						C582.5,585.3,581.3,588.2,581.3,591.8z"/>
					<path class="st0" d="M617.2,600c0,1.3-1,2.2-2.2,2.2c-1.3,0-2.3-1-2.3-2.2v-24.2c0-2.4-0.3-3.9-1.3-5.3
						c-0.3-0.3-0.4-0.8-0.4-1.2c0-1.2,1-2,2.1-2c0.9,0,1.9,0.9,2.7,2.2c3.3-2.1,7.4-3.3,9.9-3.3c2.4,0,3.2,1,3.2,2.2
						c0,1.4-1,2.4-2.2,2.4c-3.1-0.1-5.8-0.1-9.6,2.8v0.1c0,0,0.1,0.1,0.1,2.2V600z"/>
					<path class="st0" d="M654.1,596.4c0.1-0.1,0.5-0.2,0.8-0.2c1.1,0,1.9,1,1.9,1.9c0,3.1-7.4,4.1-11,4.1
						c-7.8,0-12.2-4.9-12.2-11.3v-13.3c0-6.6,4.4-11.6,12.6-11.6c7.6,0,11.3,4.4,11.3,11.1c0,6.3-3.4,10.1-11.5,10.1
						c-2.3,0-5.1-0.2-7.8-0.8v4.9c0,4.2,2.8,7.1,8.4,7.1C649.7,598.4,651.6,597.5,654.1,596.4z M646,569.9c-5,0-7.9,2.8-7.9,7.1v5.9
						c3,0.4,6.7,0.6,8.1,0.6c5.8,0,6.8-3.1,6.8-6.4C653,572,650.4,569.9,646,569.9z"/>
					<path class="st0" d="M686.1,568.6c1.7-3.1,4.1-4.4,5.4-4.4c1.2,0,2.1,0.8,2.1,2c0,0.6-0.1,0.9-0.3,1l-0.6,0.7
						c-2.4,2.2-3.5,3.3-3.5,6.6v4.4c0,6.9-4.1,12.4-12.4,12.4c-2.1,0-4.1-0.4-5.9-1.1c-0.9,1.6-1.2,3-1.2,4c0,2.9,2.6,3.6,4.4,3.6h3
						c7.8,0,13.7,3.1,13.7,9.7c0,6.9-6,11-14.1,11c-7.8,0-13.2-3.8-13.2-10.4c0-3.2,1.4-5.9,4-8.2c-1.8-1.7-2.4-3.9-2.4-5.5
						c0-1.5,0.6-3.7,3.1-5.8c-2.8-2.6-4.2-6-4.2-10.1c0-7.2,4-12.6,12.3-12.6C679.6,565.9,683.2,566.9,686.1,568.6z M670.9,601.6
						c-1.9,1.5-2.8,3.5-2.8,5.8c0,4.7,3.1,7.2,8.9,7.2c5.5,0,9.4-2.2,9.4-6.9c0-4-3-5.7-9.1-5.7h-3C673,602,671.8,601.8,670.9,601.6
						z M685,572.3c-2.5-1.5-5.1-2.4-7.8-2.4c-5.6,0-8.5,3.2-8.5,8.8c0,5.1,2.4,8.6,8.2,8.6c5.5,0,7.9-3.1,7.9-8.1v-4.5
						C684.8,574.3,684.8,573.3,685,572.3z"/>
					<path class="st0" d="M717.7,596.4c0.1-0.1,0.5-0.2,0.8-0.2c1.1,0,1.9,1,1.9,1.9c0,3.1-7.4,4.1-11,4.1
						c-7.8,0-12.2-4.9-12.2-11.3v-13.3c0-6.6,4.4-11.6,12.6-11.6c7.6,0,11.3,4.4,11.3,11.1c0,6.3-3.4,10.1-11.5,10.1
						c-2.3,0-5.1-0.2-7.8-0.8v4.9c0,4.2,2.8,7.1,8.4,7.1C713.2,598.4,715.2,597.5,717.7,596.4z M709.5,569.9c-5,0-7.9,2.8-7.9,7.1
						v5.9c3,0.4,6.7,0.6,8.1,0.6c5.8,0,6.8-3.1,6.8-6.4C716.6,572,714,569.9,709.5,569.9z"/>
					<path class="st0" d="M743.2,565.9c3.7,0,6.3,1.4,8.2,3.9c3.2-2.4,6.7-3.9,10.5-3.9c7.4,0,11.3,4.7,11.3,11.7V600
						c0,1.3-0.7,2.2-2.2,2.2c-1.5,0-2.3-0.9-2.3-2.2v-22.2c0-4.3-2.2-7.8-7-7.8c-3.3,0-6.5,1.8-8.4,4.2c0.2,1,0.3,2.2,0.3,3.5V600
						c0,1.3-0.7,2.2-2.2,2.2c-1.5,0-2.3-0.9-2.3-2.2v-20.8c0-5.4-0.9-9.2-6.5-9.2c-3.2,0-6.6,1.5-8.8,3.2c0.1,0.8,0.2,1.6,0.2,2.5
						V600c0,1.3-0.8,2.2-2.2,2.2c-1.5,0-2.3-0.9-2.3-2.2v-24.3c0-2.4-0.3-3.9-1.3-5.3c-0.3-0.3-0.4-0.8-0.4-1.2c0-1.2,1-2,2-2
						c0.9,0,1.9,0.6,2.7,2.2C735.9,567.2,739.5,565.9,743.2,565.9z"/>
				</g>
			</g>
		</g>
		<g>
			<circle class="st0" cx="197.6" cy="322.7" r="25.7"/>
			<circle class="st0" cx="353.7" cy="157.9" r="84.4"/>
			<circle class="st0" cx="427.6" cy="323.8" r="61"/>
			<circle class="st0" cx="291.1" cy="300.4" r="41.3"/>
			<path class="st0" d="M469.2,185.5c0,56.5,45.8,102.3,102.3,102.3c56.5,0,102.3-45.8,102.3-102.3S628,83.2,571.5,83.2
				C515,83.2,469.2,129,469.2,185.5z M514.1,187.3c0-31.7,25.7-57.4,57.4-57.4c31.7,0,57.4,25.7,57.4,57.4
				c0,31.7-25.7,57.4-57.4,57.4C539.8,244.8,514.1,219.1,514.1,187.3z"/>
		</g>
	</g>
</g>
<g id="Lijnen" class="st1">
	<line class="st2" x1="68.7" y1="1003" x2="68.7" y2="-287"/>
	<line class="st2" x1="-99.3" y1="1002.5" x2="-99.3" y2="-287.5"/>
	<line class="st2" x1="171.7" y1="1003.5" x2="171.7" y2="-286.5"/>
	<line class="st2" x1="673.7" y1="1002.5" x2="673.7" y2="-287.5"/>
	<line class="st2" x1="772.7" y1="1003.5" x2="772.7" y2="-286.5"/>
	<line class="st2" x1="941.7" y1="1022.5" x2="941.7" y2="-267.5"/>
	<line class="st2" x1="-463.3" y1="74" x2="1377.7" y2="74"/>
	<line class="st2" x1="-475.8" y1="-94" x2="1365.2" y2="-94"/>
	<line class="st2" x1="-673.8" y1="787" x2="1167.2" y2="787"/>
	<line class="st2" x1="-462.8" y1="464" x2="1378.2" y2="464"/>
	<line class="st2" x1="-462.8" y1="445" x2="1378.2" y2="445"/>
	<line class="st2" x1="-462.8" y1="519" x2="1378.2" y2="519"/>
	<line class="st2" x1="-528.8" y1="550" x2="1312.2" y2="550"/>
	<line class="st2" x1="-475.8" y1="566" x2="1365.2" y2="566"/>
	<line class="st2" x1="-462.8" y1="619" x2="1378.2" y2="619"/>
	<line class="st2" x1="-462.8" y1="602" x2="1378.2" y2="602"/>
	<rect x="-99.3" y="-94" class="st3" width="1041" height="881"/>
	<circle class="st4" cx="857.7" cy="517.9" r="84.4"/>
	<circle class="st4" cx="589.7" cy="-10.1" r="84.4"/>
	<circle class="st4" cx="152.7" cy="702.9" r="84.4"/>
	<circle class="st4" cx="-15.3" cy="157.9" r="84.4"/>
</g>
</svg>
