<?xml version="1.0" encoding="utf-8"?>
<!-- Generator: Adobe Illustrator 22.0.1, SVG Export Plug-In . SVG Version: 6.00 Build 0)  -->
<svg version="1.1" xmlns="http://www.w3.org/2000/svg" xmlns:xlink="http://www.w3.org/1999/xlink" x="0px" y="0px"
	 viewBox="0 0 1054.8 728.3" style="enable-background:new 0 0 1054.8 728.3;" xml:space="preserve">
<style type="text/css">
	.st0{display:none;}
	.st1{display:inline;}
	.st2{fill:#4C4C4C;}
	.st3{display:inline;fill:none;stroke:#CCCCCC;stroke-width:0.9851;stroke-miterlimit:10;}
	.st4{display:inline;fill:none;stroke:#B3B3B3;stroke-width:4;stroke-miterlimit:10;}
	.st5{display:inline;fill:#F2F2F2;}
	.st6{fill:#714FB2;}
	.st7{fill:#FC9732;}
	.st8{fill:#D7E100;}
	.st9{fill:#DB169F;}
	.st10{fill:#3FA8EF;}
</style>
<g id="Laag_1" class="st0">
	<g id="Laag_1_1_" class="st1">
		<g>
			<g>
				<g>
					<g>
						<path class="st2" d="M84.4,471.3c0,2.6,0.2,5,0.7,7.1s1.3,3.9,2.4,5.4s2.6,2.6,4.5,3.4c1.8,0.8,4.1,1.2,6.8,1.2
							c2.2,0,4.1-0.3,5.8-0.8c1.7-0.5,3.2-1.3,4.6-2.3v-19.7h-8c-1.4,0-2.7-0.5-3.7-1.6c-1.1-1.1-1.6-2.3-1.6-3.8s0.5-2.7,1.6-3.8
							c1.1-1,2.3-1.5,3.7-1.5h12.1c2,0,3.7,0.5,5.2,1.5s2.2,2.6,2.2,4.6v24.5c0,2.3-0.7,4.3-2.1,6s-3.2,3-5.4,4.1
							c-2.2,1.1-4.6,1.8-7.3,2.3c-2.7,0.5-5.3,0.7-7.8,0.7c-4.4,0-8.2-0.7-11.4-2c-3.2-1.3-5.8-3.2-7.9-5.5
							c-2.1-2.4-3.7-5.3-4.7-8.6c-1-3.4-1.5-7.1-1.5-11.3v-18.9c0-4.1,0.5-7.9,1.5-11.3s2.6-6.3,4.7-8.7c2.1-2.4,4.7-4.2,7.9-5.5
							s7-2,11.4-2c2.6,0,5.2,0.3,7.6,0.8s4.6,1.3,6.5,2.2c1.9,1,3.4,2.1,4.6,3.3c1.1,1.2,1.7,2.5,1.7,3.9s-0.5,2.6-1.5,3.6
							s-2.3,1.5-3.9,1.5c-1,0-1.8-0.2-2.3-0.5s-1.2-0.7-2-1.2l-0.5-0.3c-1.4-1-2.9-1.7-4.5-2.2s-3.3-0.7-5.2-0.7
							c-2.7,0-5,0.4-6.8,1.2c-1.8,0.8-3.3,1.9-4.5,3.4c-1.1,1.5-1.9,3.3-2.4,5.4s-0.7,4.5-0.7,7.1v19H84.4z"/>
						<path class="st2" d="M159.7,462.4c0-6.2-3.3-9.4-9.8-9.4c-1.4,0-2.6,0.1-3.5,0.4s-1.8,0.6-2.8,1l-2,0.9
							c-0.7,0.4-1.6,0.5-2.8,0.5c-1.6,0-2.7-0.5-3.4-1.5s-1-2.1-1-3.2c0-1.4,0.5-2.6,1.4-3.6s2.2-1.8,3.7-2.4
							c1.6-0.6,3.3-1.1,5.3-1.4s4-0.4,6.1-0.4c7.2,0,12.4,1.8,15.5,5.5s4.7,9.1,4.7,16.2v21.6c0,1.3,0.2,2.2,0.7,2.6
							s1.1,0.7,1.9,0.8c2.1,0.4,3.2,1.7,3.2,3.8c0,3-2.1,4.5-6.3,4.5c-3.7,0-6.5-1.6-8.5-4.8c-4,3.4-8.8,5.1-14.5,5.1
							c-5.8,0-10.2-1.5-13.1-4.5c-2.9-3-4.4-7-4.4-11.9v-0.3c0-10.7,6.6-16.1,19.9-16.1c3.3,0,6.5,0.4,9.6,1.3v-4.7H159.7z
							 M150.4,474.6c-1.8,0-3.4,0.2-4.5,0.6c-1.2,0.4-2.1,0.9-2.7,1.6c-0.6,0.7-1.1,1.5-1.3,2.4s-0.3,1.9-0.3,2.9v0.3
							c0,2.1,0.6,3.8,1.8,4.9c1.2,1.2,3.2,1.8,6.2,1.8c1.8,0,3.6-0.3,5.2-0.9c1.6-0.6,3.3-1.5,4.9-2.9v-9.6
							c-1.6-0.4-3.2-0.6-4.8-0.9C153.3,474.7,151.8,474.6,150.4,474.6z"/>
						<path class="st2" d="M222.1,453.5c-2.3,6.6-4.6,13.2-6.8,19.7s-4.4,13.1-6.7,19.8c-0.7,2.1-1.6,3.5-2.7,4.4
							c-1.1,0.9-2.5,1.3-4.3,1.3c-1.9,0-3.4-0.4-4.4-1.3s-1.9-2.3-2.6-4.3c-2.3-6.7-4.6-13.3-6.9-19.9c-2.3-6.6-4.6-13.2-6.9-19.9
							l-1.2-4.2c0-0.1,0-0.2-0.1-0.3c0-0.1-0.1-0.2-0.1-0.3c0-1.4,0.6-2.6,1.8-3.6s2.5-1.4,3.9-1.4c1.1,0,2.1,0.3,3.2,1
							c1.1,0.6,1.8,1.6,2.1,2.8c1,3.2,2,6.4,3,9.5s2,6.3,3,9.5s1.9,6.3,2.6,9.4c0.7,3.1,1.5,6.2,2.4,9.4c0.8-3.2,1.5-6.3,2.2-9.4
							s1.6-6.2,2.6-9.4c1-3.2,2-6.3,2.9-9.5c1-3.1,1.9-6.3,2.9-9.5c0.4-1.1,1-1.9,2.1-2.6c1-0.7,2.1-1,3.2-1c1.5,0,2.8,0.5,3.9,1.4
							c1.1,1,1.7,2.2,1.7,3.7v0.6L222.1,453.5z"/>
						<path class="st2" d="M251,476.9c-1.5,0-3-0.1-4.6-0.2s-3.2-0.3-4.9-0.6v4.9c0,2.4,0.8,4.3,2.4,5.7c1.6,1.4,4.2,2.1,7.6,2.1
							c2,0,3.8-0.2,5.3-0.7c1.6-0.5,3.2-1.1,5-1.9c0.1-0.1,0.4-0.3,0.8-0.4s0.9-0.2,1.5-0.2c1.8,0,3.2,0.5,4,1.6s1.2,2.1,1.2,3.2
							c0,1.6-0.7,3-2.1,4s-3.1,1.9-5,2.5c-2,0.6-4,1.1-6.2,1.3c-2.2,0.2-4,0.4-5.6,0.4c-3.3,0-6.2-0.5-8.7-1.4
							c-2.6-0.9-4.7-2.2-6.4-3.8c-1.7-1.6-3.1-3.6-4-5.8c-0.9-2.2-1.4-4.6-1.4-7.2v-18.8c0-2.6,0.5-5.1,1.4-7.3
							c0.9-2.2,2.3-4.2,4-5.8c1.8-1.6,4-2.9,6.6-3.9s5.6-1.4,9-1.4c6.5,0,11.3,1.6,14.5,4.8c3.2,3.2,4.8,7.5,4.8,12.8
							c0,5-1.5,9-4.6,11.8C262.8,475.5,257.8,476.9,251,476.9z M259,460.6c0-2.8-0.7-4.9-2.1-6.1s-3.4-1.8-6-1.8
							c-3,0-5.3,0.7-6.9,2.2c-1.6,1.5-2.4,3.5-2.4,6.1v6.3c1.8,0.2,3.7,0.4,5.5,0.5s3.1,0.2,3.9,0.2c3,0,5.2-0.7,6.3-2
							C258.4,464.7,259,462.9,259,460.6z"/>
						<path class="st2" d="M305,454.3c-1.1,0-2.2,0-3.1,0c-1,0-1.9,0.1-2.8,0.2s-1.8,0.4-2.8,0.7c-1,0.4-2,0.9-3.1,1.5
							c0.1,0.5,0.1,0.9,0.2,1.3c0,0.4,0.1,0.8,0.1,1.1v34.1c0,1.6-0.6,2.9-1.6,3.9c-1.1,1-2.5,1.5-4.1,1.5s-3-0.5-4.1-1.5
							s-1.7-2.3-1.7-3.9v-34.1c0-1.5-0.1-2.7-0.3-3.6c-0.2-0.9-0.6-1.8-1.2-2.6c-0.4-0.4-0.6-0.9-0.8-1.3c-0.2-0.4-0.3-1-0.3-1.6
							c0-1.5,0.5-2.7,1.6-3.6s2.4-1.4,3.9-1.4c1,0,1.9,0.3,2.7,0.9c0.8,0.6,1.5,1.3,2.2,2.2c2.4-1.4,4.9-2.5,7.4-3.4
							c2.5-0.8,4.7-1.2,6.5-1.2c2.7,0,4.6,0.5,5.6,1.5s1.5,2.2,1.5,3.7c0,1.7-0.6,3.1-1.7,4.1C308,454,306.6,454.5,305,454.3z"/>
						<path class="st2" d="M331.5,463l15.3-16.3c0.7-0.8,1.5-1.5,2.3-2.1c0.9-0.6,1.9-0.9,3.1-0.9c1.6,0,2.9,0.5,3.9,1.4
							c1.1,1,1.6,2.1,1.6,3.6c0,1.4-0.5,2.6-1.5,3.6l-14.4,14.9c2.8,4,5.7,7.9,8.5,11.8s5.6,7.8,8.4,11.8c0.4,0.4,0.6,0.9,0.7,1.5
							s0.2,1.2,0.2,1.7c-0.1,1.4-0.7,2.5-1.8,3.4c-1,0.8-2.3,1.2-3.8,1.2c-0.9,0-1.5-0.1-2.1-0.2c-0.5-0.1-1-0.4-1.4-0.7
							c-0.4-0.4-0.8-0.8-1.2-1.4c-0.4-0.6-0.9-1.3-1.4-2.1L333.8,474c-0.4,0.4-0.8,0.8-1.2,1.2c-0.4,0.5-0.8,0.9-1.2,1.2V491
							c0,2-0.4,3.8-1.2,5.3c-0.8,1.6-2.3,2.3-4.5,2.3c-1.6,0-3-0.5-4.1-1.5s-1.7-2.3-1.7-3.8v-60.4c0-1.1,0.1-2.1,0.2-3
							c0.1-1,0.4-1.8,0.9-2.6c0.4-0.7,1-1.3,1.8-1.8c0.7-0.4,1.7-0.6,2.9-0.6c1.6,0,3,0.5,4.1,1.5s1.7,2.3,1.7,3.8L331.5,463
							L331.5,463z"/>
						<path class="st2" d="M387.2,476.9c-1.5,0-3-0.1-4.6-0.2s-3.2-0.3-4.9-0.6v4.9c0,2.4,0.8,4.3,2.4,5.7c1.6,1.4,4.2,2.1,7.6,2.1
							c2,0,3.8-0.2,5.3-0.7c1.6-0.5,3.2-1.1,5-1.9c0.1-0.1,0.4-0.3,0.8-0.4s0.9-0.2,1.5-0.2c1.8,0,3.2,0.5,4,1.6s1.2,2.1,1.2,3.2
							c0,1.6-0.7,3-2.1,4s-3.1,1.9-5,2.5c-2,0.6-4,1.1-6.2,1.3c-2.2,0.2-4,0.4-5.6,0.4c-3.3,0-6.2-0.5-8.7-1.4
							c-2.6-0.9-4.7-2.2-6.4-3.8c-1.7-1.6-3.1-3.6-4-5.8c-0.9-2.2-1.4-4.6-1.4-7.2v-18.8c0-2.6,0.5-5.1,1.4-7.3
							c0.9-2.2,2.3-4.2,4-5.8c1.8-1.6,4-2.9,6.6-3.9s5.6-1.4,9-1.4c6.5,0,11.3,1.6,14.5,4.8c3.2,3.2,4.8,7.5,4.8,12.8
							c0,5-1.5,9-4.6,11.8C398.9,475.5,394,476.9,387.2,476.9z M395.1,460.6c0-2.8-0.7-4.9-2.1-6.1s-3.4-1.8-6-1.8
							c-3,0-5.3,0.7-6.9,2.2s-2.4,3.5-2.4,6.1v6.3c1.8,0.2,3.7,0.4,5.5,0.5s3.1,0.2,3.9,0.2c3,0,5.2-0.7,6.3-2
							C394.6,464.7,395.1,462.9,395.1,460.6z"/>
						<g>
							<g>
								<path class="st2" d="M433.6,498c-0.4,1.1-1.2,2-2.3,2.5c-1.1,0.6-2.2,0.7-3.4,0.6c-0.7-0.1-1.3-0.4-1.9-0.7
									c-0.6-0.3-1-0.8-1.4-1.2s-0.6-1-0.8-1.6c-0.1-0.6-0.1-1.2,0.1-1.8l19.3-50.8c0.4-1.1,1.2-2,2.2-2.5c1-0.6,2.1-0.7,3.3-0.5
									c1.3,0.2,2.3,0.9,3.1,1.9c0.8,1,1.1,2.1,1,3.2c0,0.4-0.2,0.8-0.4,1.1L433.6,498z"/>
							</g>
						</g>
						<path class="st2" d="M472.8,452.3c0-4.1,0.5-7.9,1.5-11.3s2.6-6.3,4.7-8.7c2.1-2.4,4.7-4.2,7.9-5.5s7-2,11.4-2
							c2.6,0,5.2,0.3,7.6,0.8s4.6,1.3,6.5,2.2c1.9,1,3.4,2.1,4.6,3.3c1.1,1.2,1.7,2.5,1.7,3.9s-0.5,2.6-1.5,3.6s-2.3,1.5-3.9,1.5
							c-1,0-1.8-0.2-2.3-0.5s-1.2-0.7-2-1.2l-0.5-0.3c-2.8-2-6.1-3-9.7-3c-2.7,0-5,0.4-6.8,1.2c-1.8,0.8-3.3,1.9-4.5,3.4
							c-1.1,1.5-1.9,3.3-2.4,5.4s-0.7,4.5-0.7,7.1v18.9c0,2.6,0.2,5,0.7,7.1s1.3,3.9,2.4,5.4s2.6,2.6,4.5,3.4
							c1.8,0.8,4.1,1.2,6.8,1.2c3.5,0,6.8-1,9.7-2.9l0.5-0.3c0.8-0.5,1.4-0.9,2-1.2c0.5-0.3,1.3-0.5,2.3-0.5c1.6,0,2.9,0.5,3.9,1.5
							s1.5,2.2,1.5,3.5c0,1.4-0.6,2.7-1.7,4c-1.1,1.2-2.7,2.3-4.6,3.2c-1.9,0.9-4.1,1.7-6.5,2.2s-5,0.8-7.6,0.8
							c-4.4,0-8.2-0.7-11.4-2c-3.2-1.3-5.8-3.2-7.9-5.5c-2.1-2.4-3.7-5.3-4.7-8.6c-1-3.4-1.5-7.1-1.5-11.3L472.8,452.3L472.8,452.3z
							"/>
						<path class="st2" d="M548.3,498.7c-3.5,0-6.7-0.5-9.3-1.5c-2.7-1-4.9-2.4-6.7-4.1s-3.2-3.8-4.1-6.2c-0.9-2.4-1.4-4.9-1.4-7.6
							v-16.8c0-2.8,0.5-5.3,1.4-7.7c0.9-2.3,2.3-4.4,4.1-6.1s4-3.1,6.7-4.1s5.8-1.5,9.3-1.5s6.6,0.5,9.3,1.5s4.9,2.4,6.8,4.1
							c1.8,1.7,3.2,3.8,4.1,6.1c0.9,2.3,1.4,4.9,1.4,7.7v16.8c0,2.7-0.5,5.2-1.4,7.6s-2.3,4.4-4.1,6.2c-1.8,1.7-4.1,3.1-6.8,4.1
							C554.9,498.2,551.8,498.7,548.3,498.7z M548.3,488.6c3.3,0,5.8-0.8,7.5-2.4s2.5-3.9,2.5-6.8v-16.9c0-2.8-0.8-5.1-2.5-6.7
							s-4.2-2.4-7.5-2.4s-5.8,0.8-7.5,2.4s-2.5,3.9-2.5,6.7v16.9c0,2.9,0.8,5.2,2.5,6.8S545,488.6,548.3,488.6z"/>
						<path class="st2" d="M590.3,498.7c-0.9,0-1.8-0.1-2.8-0.4c-1-0.2-1.9-0.8-2.7-1.6c-0.8-0.8-1.5-2-2.1-3.6s-0.9-3.6-0.9-6.2
							v-56.8c0-1.4,0.5-2.7,1.7-3.7c1.1-1.1,2.5-1.6,4.1-1.6s3,0.5,4.1,1.5s1.7,2.3,1.7,3.8v56.1c0,1.1,0.1,2,0.2,2.6
							c0.1,0.6,0.6,1.3,1.3,2.1c0.4,0.4,0.7,0.7,1,1.1s0.4,1,0.4,1.8c0,1.5-0.5,2.7-1.6,3.5S592.2,498.7,590.3,498.7z"/>
						<path class="st2" d="M616.7,498.7c-0.9,0-1.8-0.1-2.8-0.4c-1-0.2-1.9-0.8-2.7-1.6c-0.8-0.8-1.5-2-2.1-3.6s-0.9-3.6-0.9-6.2
							v-56.8c0-1.4,0.5-2.7,1.7-3.7c1.1-1.1,2.5-1.6,4.1-1.6s3,0.5,4.1,1.5s1.7,2.3,1.7,3.8v56.1c0,1.1,0.1,2,0.2,2.6
							c0.1,0.6,0.6,1.3,1.3,2.1c0.4,0.4,0.7,0.7,1,1.1s0.4,1,0.4,1.8c0,1.5-0.5,2.7-1.6,3.5C620,498.3,618.6,498.7,616.7,498.7z"/>
						<path class="st2" d="M653.1,476.9c-1.5,0-3-0.1-4.6-0.2s-3.2-0.3-4.9-0.6v4.9c0,2.4,0.8,4.3,2.4,5.7c1.6,1.4,4.2,2.1,7.6,2.1
							c2,0,3.8-0.2,5.3-0.7c1.6-0.5,3.2-1.1,5-1.9c0.1-0.1,0.4-0.3,0.8-0.4c0.4-0.1,0.9-0.2,1.5-0.2c1.8,0,3.2,0.5,4,1.6
							s1.2,2.1,1.2,3.2c0,1.6-0.7,3-2.1,4c-1.4,1-3.1,1.9-5,2.5c-2,0.6-4,1.1-6.2,1.3c-2.2,0.2-4,0.4-5.6,0.4
							c-3.3,0-6.2-0.5-8.7-1.4c-2.6-0.9-4.7-2.2-6.4-3.8c-1.7-1.6-3.1-3.6-4-5.8c-0.9-2.2-1.4-4.6-1.4-7.2v-18.8
							c0-2.6,0.5-5.1,1.4-7.3c0.9-2.2,2.3-4.2,4-5.8c1.8-1.6,4-2.9,6.6-3.9s5.6-1.4,9-1.4c6.5,0,11.3,1.6,14.5,4.8
							c3.2,3.2,4.8,7.5,4.8,12.8c0,5-1.5,9-4.6,11.8C664.9,475.5,660,476.9,653.1,476.9z M661.1,460.6c0-2.8-0.7-4.9-2.1-6.1
							c-1.4-1.2-3.4-1.8-6-1.8c-3,0-5.3,0.7-6.9,2.2c-1.6,1.5-2.4,3.5-2.4,6.1v6.3c1.8,0.2,3.7,0.4,5.5,0.5s3.1,0.2,3.9,0.2
							c3,0,5.2-0.7,6.3-2C660.5,464.7,661.1,462.9,661.1,460.6z"/>
						<path class="st2" d="M701.8,443.3c2.6,0,5.1,0.3,7.4,0.9c2.3,0.6,4.6,1.5,6.8,2.7c1.3-2.1,2.7-3.6,4.4-4.6s3.2-1.5,4.5-1.5
							s2.6,0.5,3.7,1.4c1.1,1,1.7,2.1,1.7,3.6c0,0.7-0.1,1.3-0.4,1.8c-0.3,0.5-0.6,0.9-0.9,1.2l-1.6,1.6c-0.7,0.7-1.3,1.3-1.8,1.9
							c-0.5,0.5-0.8,1-1.1,1.5s-0.5,1-0.6,1.6s-0.2,1.3-0.2,2.1v6.3c0,2.8-0.4,5.3-1.3,7.7c-0.9,2.3-2.2,4.4-3.9,6.1
							c-1.8,1.7-4,3.1-6.6,4c-2.6,1-5.7,1.5-9.3,1.5c-1.2,0-2.4-0.1-3.7-0.2c-1.2-0.1-2.4-0.4-3.5-0.7c-0.4,0.8-0.6,1.5-0.7,2
							c-0.1,0.6-0.2,1.1-0.2,1.7c0,1.6,0.5,2.7,1.5,3.2s2,0.8,2.9,0.8h4.5c3.3,0,6.3,0.3,9,1c2.8,0.6,5.2,1.6,7.2,2.9
							c2.1,1.3,3.7,3,4.8,4.9c1.2,2,1.8,4.4,1.8,7.1s-0.6,5.2-1.8,7.4s-2.8,4-4.9,5.6c-2.1,1.6-4.6,2.7-7.4,3.6
							c-2.8,0.8-6,1.2-9.4,1.2c-3.3,0-6.2-0.4-8.9-1.2s-5-1.9-7-3.3c-2-1.4-3.5-3.2-4.5-5.3c-1.1-2.1-1.6-4.5-1.6-7.1
							c0-2.3,0.5-4.5,1.5-6.4c1-2,2.6-3.8,4.7-5.7c-1-1.4-1.7-2.9-2.1-4.4c-0.4-1.5-0.6-2.9-0.6-4.1s0.2-2.5,0.7-3.9
							s1.4-2.8,2.8-4.3c-4.2-3.8-6.3-8.7-6.3-14.9c0-2.8,0.4-5.5,1.3-7.9c0.9-2.4,2.1-4.5,3.8-6.3s3.8-3.2,6.3-4.2
							C695.5,443.8,698.5,443.3,701.8,443.3z M701.5,499.7c-1.1,0-2.2,0-3.2-0.1s-2-0.1-3-0.2c-1.8,1.8-2.8,4-2.8,6.4
							c0,2.6,0.9,4.5,2.7,6c1.8,1.4,4.5,2.1,8.1,2.1c3.4,0,6.2-0.7,8.4-2s3.3-3.2,3.3-5.8c0-4.3-3.7-6.4-11.2-6.4L701.5,499.7
							L701.5,499.7z M712.3,460.6c0-0.9,0-1.7,0-2.6s0-1.8,0.1-2.6c-1.6-0.8-3.1-1.4-4.5-1.9c-1.5-0.5-3-0.7-4.6-0.7
							c-3.4,0-5.9,0.9-7.6,2.7c-1.7,1.8-2.5,4.4-2.5,7.8c0,3.1,0.8,5.6,2.3,7.5c1.5,1.8,4,2.8,7.5,2.8c3.2,0,5.6-0.8,7.1-2.5
							s2.3-4,2.3-7L712.3,460.6L712.3,460.6z"/>
						<path class="st2" d="M756.5,476.9c-1.5,0-3-0.1-4.6-0.2s-3.2-0.3-4.9-0.6v4.9c0,2.4,0.8,4.3,2.4,5.7c1.6,1.4,4.2,2.1,7.6,2.1
							c2,0,3.8-0.2,5.3-0.7c1.6-0.5,3.2-1.1,5-1.9c0.1-0.1,0.4-0.3,0.8-0.4c0.4-0.1,0.9-0.2,1.5-0.2c1.8,0,3.2,0.5,4,1.6
							s1.2,2.1,1.2,3.2c0,1.6-0.7,3-2.1,4c-1.4,1-3.1,1.9-5,2.5c-2,0.6-4,1.1-6.2,1.3c-2.2,0.2-4,0.4-5.6,0.4
							c-3.3,0-6.2-0.5-8.7-1.4c-2.6-0.9-4.7-2.2-6.4-3.8c-1.7-1.6-3.1-3.6-4-5.8c-0.9-2.2-1.4-4.6-1.4-7.2v-18.8
							c0-2.6,0.5-5.1,1.4-7.3c0.9-2.2,2.3-4.2,4-5.8c1.8-1.6,4-2.9,6.6-3.9s5.6-1.4,9-1.4c6.5,0,11.3,1.6,14.5,4.8
							c3.2,3.2,4.8,7.5,4.8,12.8c0,5-1.5,9-4.6,11.8C768.2,475.5,763.3,476.9,756.5,476.9z M764.5,460.6c0-2.8-0.7-4.9-2.1-6.1
							c-1.4-1.2-3.4-1.8-6-1.8c-3,0-5.3,0.7-6.9,2.2c-1.6,1.5-2.4,3.5-2.4,6.1v6.3c1.8,0.2,3.7,0.4,5.5,0.5s3.1,0.2,3.9,0.2
							c3.1,0,5.2-0.7,6.3-2C763.9,464.7,764.5,462.9,764.5,460.6z"/>
					</g>
				</g>
				<g>
					<g>
						<path class="st2" d="M89.1,579.3c-0.7,2.1-1.6,2.9-3.2,2.9s-2.5-0.9-3.1-2.8l-9.9-30.6c-0.5-1.4,0.8-2.6,2.2-2.6
							c0.8,0,1.6,0.3,1.9,1.5l8.9,28.7l8.8-28.7c0.2-0.7,0.9-1.5,2-1.5c1.2,0.1,2.2,1,2.2,2.3c0,0.2,0,0.3-0.1,0.6L89.1,579.3z"/>
						<path class="st2" d="M111.2,580c0,1.3-1,2.2-2.2,2.2c-1.3,0-2.3-1-2.3-2.2v-24.2c0-2.4-0.3-3.9-1.3-5.3
							c-0.3-0.3-0.4-0.8-0.4-1.2c0-1.2,1-2,2.1-2c0.9,0,1.9,0.9,2.7,2.2c3.3-2.1,7.4-3.3,9.9-3.3c2.4,0,3.2,1,3.2,2.2
							c0,1.4-1,2.4-2.2,2.4c-3.1-0.1-5.8-0.1-9.6,2.8v0.1c0,0,0.1,0.1,0.1,2.2C111.2,555.9,111.2,580,111.2,580z"/>
						<path class="st2" d="M132.4,537.3c-1.7,0-2.9-1.3-2.9-2.8c0-1.7,1.3-2.9,2.9-2.9c1.5,0,2.8,1.3,2.8,2.9
							C135.3,535.9,133.9,537.3,132.4,537.3z M132.4,582.2c-1.3,0-2.3-1-2.3-2.2v-31.5c0-1.3,1-2.3,2.3-2.3c1.2,0,2.2,1,2.2,2.3V580
							C134.6,581.2,133.6,582.2,132.4,582.2z"/>
						<path class="st2" d="M151.7,583.3c0,7-3.7,11.9-9.7,12.8c-0.6,0.1-0.8,0-1.3,0c-0.8,0-1.7-0.6-1.9-1.4
							c-0.3-1.6,0.8-2.3,1.7-2.4c4.2-1,6.5-3.2,6.5-8.8v-35.1c0-1.3,1-2.3,2.3-2.3c1.2,0,2.2,1,2.2,2.3v34.9H151.7z M149.5,537.3
							c-1.7,0-3-1.3-3-2.8c0-1.7,1.3-2.9,3-2.9c1.5,0,2.8,1.3,2.8,2.9C152.3,535.9,151,537.3,149.5,537.3z"/>
						<path class="st2" d="M181.8,576.4c0.1-0.1,0.5-0.2,0.8-0.2c1.1,0,1.9,1,1.9,1.9c0,3.1-7.4,4.1-11,4.1
							c-7.8,0-12.2-4.9-12.2-11.3v-13.3c0-6.6,4.4-11.6,12.6-11.6c7.6,0,11.2,4.4,11.2,11.1c0,6.3-3.4,10.1-11.5,10.1
							c-2.3,0-5.1-0.2-7.8-0.8v4.9c0,4.2,2.8,7.1,8.4,7.1C177.4,578.4,179.3,577.5,181.8,576.4z M173.7,549.9c-5,0-7.9,2.8-7.9,7.1
							v5.9c3,0.4,6.7,0.6,8.1,0.6c5.8,0,6.8-3.1,6.8-6.4C180.7,552,178.2,549.9,173.7,549.9z"/>
						<path class="st2" d="M207,533c0-1.1,0.8-2.2,2.3-2.2s2.2,1.1,2.2,2.2v16.3c3.1-2.2,6.3-3.4,10.1-3.4c7.7,0,10.5,4.7,10.5,10.6
							V570c0,6.9-4.2,12.2-12.5,12.2c-8.1,0-12.6-4.7-12.6-10.7V533z M211.5,571.5c0,4.1,3.1,6.6,8.1,6.6c5.5,0,8-3.1,8-8.1v-13.5
							c0-4.3-2.2-6.9-7.4-6.9c-3.7,0-6.5,1.5-8.7,4L211.5,571.5L211.5,571.5z"/>
						<path class="st2" d="M258.4,558c0-5.6-2.6-8.3-8.1-8.3c-2.6,0-4,0.6-5.6,1.5c-0.4,0.3-1,0.6-1.7,0.6c-1,0-1.5-1-1.5-1.8
							c-0.3-2.9,4.9-4.1,9.5-4.1c8.5,0,11.9,4.9,11.9,14v15.7c0,1.8,0.6,2.7,1.9,2.7c0.3,0,0.4-0.1,0.6-0.1c1,0,1.5,1,1.5,1.9
							c0,1.4-1.4,1.9-2.6,1.9c-2.2,0-4-1.5-5.3-4c-2.9,2.8-6.2,4.2-9.9,4.2c-7,0-10.4-4.2-10.4-10.2v-0.3c0-6.7,4-10.1,12.1-10.1
							c2.4,0,5,0.5,7.7,1.3V558H258.4z M243.1,571.8v0.3c0,3.6,1.6,6.3,6.9,6.3c3.2,0,5.8-1.1,8.5-3.4v-8.3
							c-2.8-0.9-5.7-1.3-7.8-1.3C244.3,565.3,243.1,568.2,243.1,571.8z"/>
						<path class="st2" d="M284.3,545.9c3.5,0,9,0.8,9,3.5c0,1.1-0.8,2-2,2c-0.4,0-0.7-0.1-1-0.3c-1.6-0.8-3-1.4-5.7-1.4
							c-4.7,0-6.9,1.9-6.9,5.6c0,2.5,1,3.7,3.7,5.2c5.5,2.7,13,3.4,13,11.7c0,6.1-3.9,9.9-11.5,9.9c-3.5,0-10.1-0.7-10.1-3.5
							c0-1,0.8-2.1,2.2-2.1c0.1,0,0.2,0,0.4,0.1c2.1,0.8,4.4,1.7,7.5,1.7c4.2,0,7.1-1.7,7.1-5.8c0-2.9-1.3-4.2-2.8-5.1
							c-5.4-2.7-13.8-3.4-13.8-11.7C273.3,549.8,277.1,545.9,284.3,545.9z"/>
						<path class="st2" d="M304.9,537.3c-1.7,0-2.9-1.3-2.9-2.8c0-1.7,1.3-2.9,2.9-2.9c1.5,0,2.8,1.3,2.8,2.9
							C307.7,535.9,306.4,537.3,304.9,537.3z M304.9,582.2c-1.3,0-2.3-1-2.3-2.2v-31.5c0-1.3,1-2.3,2.3-2.3c1.2,0,2.2,1,2.2,2.3V580
							C307.1,581.2,306.1,582.2,304.9,582.2z"/>
						<path class="st2" d="M328.4,545.9c3.5,0,9,0.8,9,3.5c0,1.1-0.8,2-2,2c-0.4,0-0.7-0.1-1-0.3c-1.6-0.8-3-1.4-5.7-1.4
							c-4.7,0-6.9,1.9-6.9,5.6c0,2.5,1,3.7,3.7,5.2c5.5,2.7,13,3.4,13,11.7c0,6.1-3.9,9.9-11.5,9.9c-3.5,0-10.1-0.7-10.1-3.5
							c0-1,0.8-2.1,2.2-2.1c0.1,0,0.2,0,0.4,0.1c2.1,0.8,4.4,1.7,7.5,1.7c4.2,0,7.1-1.7,7.1-5.8c0-2.9-1.3-4.2-2.8-5.1
							c-5.4-2.7-13.8-3.4-13.8-11.7C317.4,549.8,321.2,545.9,328.4,545.9z"/>
						<path class="st2" d="M356,545.9c3.5,0,9,0.8,9,3.5c0,1.1-0.8,2-2,2c-0.4,0-0.7-0.1-1-0.3c-1.6-0.8-3-1.4-5.7-1.4
							c-4.7,0-6.9,1.9-6.9,5.6c0,2.5,1,3.7,3.7,5.2c5.5,2.7,13,3.4,13,11.7c0,6.1-3.9,9.9-11.5,9.9c-3.5,0-10.1-0.7-10.1-3.5
							c0-1,0.8-2.1,2.2-2.1c0.1,0,0.2,0,0.4,0.1c2.1,0.8,4.4,1.7,7.5,1.7c4.2,0,7.1-1.7,7.1-5.8c0-2.9-1.3-4.2-2.8-5.1
							c-5.4-2.7-13.8-3.4-13.8-11.7C344.9,549.8,348.8,545.9,356,545.9z"/>
						<path class="st2" d="M372.5,558.8c0-7.1,3.8-12.6,12.4-12.6c3.1,0,9.4,0.8,9.4,3.8c0,1-0.8,1.9-1.9,1.9c-0.4,0-0.7-0.1-1-0.1
							h0.1c-1.7-0.9-3.4-1.7-6-1.7c-6,0-8.4,3.3-8.4,8.8v10.8c0,5.5,2.4,8.8,8.4,8.8c2.7,0,4.3-0.8,6-1.7h-0.1
							c0.5-0.1,0.8-0.2,1-0.2c1,0,1.9,0.9,1.9,1.9c0,2.9-6.3,3.8-9.4,3.8c-8.6,0-12.4-5.5-12.4-12.6V558.8z"/>
						<path class="st2" d="M403.6,582.2c-1.3,0-2.3-1-2.3-2.2v-47.3c0-1.1,0.9-2.3,2.2-2.3s2.2,1,2.2,2.3v16.9
							c3-2.3,6.3-3.6,9.6-3.6c7.3,0,10.6,4.7,10.6,11.4V580c0,1.3-1,2.2-2.2,2.2s-2.3-1-2.3-2.2v-22.6c0-4.7-1.9-7.4-6.7-7.4
							c-3,0-6.5,1.5-8.9,4.6V580C405.7,581.2,404.8,582.2,403.6,582.2z"/>
						<path class="st2" d="M434.4,570v-11.9c0-6.9,4.5-12.2,12.8-12.2c8.4,0,12.8,5.3,12.8,12.2V570c0,6.9-4.4,12.2-12.8,12.2
							C439,582.2,434.4,576.9,434.4,570z M455.6,570v-12c0-5-2.8-8.1-8.3-8.1S439,553,439,558v12c0,5,2.8,8.1,8.3,8.1
							C452.9,578.1,455.6,575,455.6,570z"/>
						<path class="st2" d="M466.7,570v-11.9c0-6.9,4.5-12.2,12.8-12.2c8.4,0,12.8,5.3,12.8,12.2V570c0,6.9-4.4,12.2-12.8,12.2
							C471.2,582.2,466.7,576.9,466.7,570z M487.8,570v-12c0-5-2.8-8.1-8.3-8.1s-8.3,3.1-8.3,8.1v12c0,5,2.8,8.1,8.3,8.1
							C485.1,578.1,487.8,575,487.8,570z"/>
						<path class="st2" d="M501.1,533.1c0-1.2,1-2.3,2.2-2.3s2.2,1,2.2,2.3v42.4c0,1.6,0.3,2.8,1.3,3.8c0.1,0.2,0.3,0.7,0.3,1
							c0,1.2-0.8,2-2,2c-1.5,0-4-0.8-4-6.7V533.1z"/>
						<path class="st2" d="M551.9,540.9c-2.6,11.6-6.2,27-8.8,38.5c-0.4,1.2-1.3,2.8-3.3,2.8c-1.7,0-2.8-1.3-3.3-2.8l-10.6-45v-0.3
							c0-1.3,1.5-1.9,2.7-1.9c0.8,0,1.7,0.7,2.1,1.7L540,574l8.7-38.3c0.6-2.3,1.3-3.8,3.2-3.8s2.6,1.5,3.1,3.8l8.8,38.4l9.2-40.2
							c0.3-1,1-1.7,1.9-1.7c1.3,0,2.8,0.6,2.8,2c0,0.1,0,0.4-0.1,0.6v0.1L567,579.4c-0.4,1.5-1.5,2.8-3.3,2.8s-2.9-1.5-3.3-2.9
							L551.9,540.9z"/>
						<path class="st2" d="M599.6,558c0-5.6-2.6-8.3-8.1-8.3c-2.6,0-4,0.6-5.6,1.5c-0.4,0.3-1,0.6-1.7,0.6c-1,0-1.5-1-1.5-1.8
							c-0.3-2.9,4.9-4.1,9.5-4.1c8.5,0,11.9,4.9,11.9,14v15.7c0,1.8,0.6,2.7,1.9,2.7c0.3,0,0.4-0.1,0.6-0.1c1,0,1.5,1,1.5,1.9
							c0,1.4-1.4,1.9-2.6,1.9c-2.2,0-4-1.5-5.3-4c-2.9,2.8-6.2,4.2-9.9,4.2c-7,0-10.4-4.2-10.4-10.2v-0.3c0-6.7,4-10.1,12.1-10.1
							c2.4,0,5,0.5,7.7,1.3V558H599.6z M584.3,571.8v0.3c0,3.6,1.6,6.3,6.9,6.3c3.2,0,5.8-1.1,8.5-3.4v-8.3
							c-2.8-0.9-5.7-1.3-7.8-1.3C585.5,565.3,584.3,568.2,584.3,571.8z"/>
						<path class="st2" d="M620.2,580c0,1.3-1,2.2-2.2,2.2c-1.3,0-2.3-1-2.3-2.2v-24.2c0-2.4-0.3-3.9-1.3-5.3
							c-0.3-0.3-0.4-0.8-0.4-1.2c0-1.2,1-2,2.1-2c0.9,0,1.9,0.9,2.7,2.2c3.3-2.1,7.4-3.3,9.9-3.3c2.4,0,3.2,1,3.2,2.2
							c0,1.4-1,2.4-2.2,2.4c-3.1-0.1-5.8-0.1-9.6,2.8v0.1c0,0,0.1,0.1,0.1,2.2V580z"/>
						<path class="st2" d="M657.1,576.4c0.1-0.1,0.5-0.2,0.8-0.2c1.1,0,1.9,1,1.9,1.9c0,3.1-7.4,4.1-11,4.1
							c-7.8,0-12.2-4.9-12.2-11.3v-13.3c0-6.6,4.4-11.6,12.6-11.6c7.6,0,11.3,4.4,11.3,11.1c0,6.3-3.4,10.1-11.5,10.1
							c-2.3,0-5.1-0.2-7.8-0.8v4.9c0,4.2,2.8,7.1,8.4,7.1C652.7,578.4,654.6,577.5,657.1,576.4z M649,549.9c-5,0-7.9,2.8-7.9,7.1
							v5.9c3,0.4,6.7,0.6,8.1,0.6c5.8,0,6.8-3.1,6.8-6.4C656,552,653.4,549.9,649,549.9z"/>
						<path class="st2" d="M689.1,548.6c1.7-3.1,4.1-4.4,5.4-4.4c1.2,0,2.1,0.8,2.1,2c0,0.6-0.1,0.9-0.3,1l-0.6,0.7
							c-2.4,2.2-3.5,3.3-3.5,6.6v4.4c0,6.9-4.1,12.4-12.4,12.4c-2.1,0-4.1-0.4-5.9-1.1c-0.9,1.6-1.2,3-1.2,4c0,2.9,2.6,3.6,4.4,3.6
							h3c7.8,0,13.7,3.1,13.7,9.7c0,6.9-6,11-14.1,11c-7.8,0-13.2-3.8-13.2-10.4c0-3.2,1.4-5.9,4-8.2c-1.8-1.7-2.4-3.9-2.4-5.5
							c0-1.5,0.6-3.7,3.1-5.8c-2.8-2.6-4.2-6-4.2-10.1c0-7.2,4-12.6,12.3-12.6C682.6,545.9,686.2,546.9,689.1,548.6z M673.9,581.6
							c-1.9,1.5-2.8,3.5-2.8,5.8c0,4.7,3.1,7.2,8.9,7.2c5.5,0,9.4-2.2,9.4-6.9c0-4-3-5.7-9.1-5.7h-3
							C676,582,674.8,581.8,673.9,581.6z M688,552.3c-2.5-1.5-5.1-2.4-7.8-2.4c-5.6,0-8.5,3.2-8.5,8.8c0,5.1,2.4,8.6,8.2,8.6
							c5.5,0,7.9-3.1,7.9-8.1v-4.5C687.8,554.3,687.8,553.3,688,552.3z"/>
						<path class="st2" d="M720.7,576.4c0.1-0.1,0.5-0.2,0.8-0.2c1.1,0,1.9,1,1.9,1.9c0,3.1-7.4,4.1-11,4.1
							c-7.8,0-12.2-4.9-12.2-11.3v-13.3c0-6.6,4.4-11.6,12.6-11.6c7.6,0,11.3,4.4,11.3,11.1c0,6.3-3.4,10.1-11.5,10.1
							c-2.3,0-5.1-0.2-7.8-0.8v4.9c0,4.2,2.8,7.1,8.4,7.1C716.2,578.4,718.2,577.5,720.7,576.4z M712.5,549.9c-5,0-7.9,2.8-7.9,7.1
							v5.9c3,0.4,6.7,0.6,8.1,0.6c5.8,0,6.8-3.1,6.8-6.4C719.6,552,717,549.9,712.5,549.9z"/>
						<path class="st2" d="M746.2,545.9c3.7,0,6.3,1.4,8.2,3.9c3.2-2.4,6.7-3.9,10.5-3.9c7.4,0,11.3,4.7,11.3,11.7V580
							c0,1.3-0.7,2.2-2.2,2.2s-2.3-0.9-2.3-2.2v-22.2c0-4.3-2.2-7.8-7-7.8c-3.3,0-6.5,1.8-8.4,4.2c0.2,1,0.3,2.2,0.3,3.5V580
							c0,1.3-0.7,2.2-2.2,2.2s-2.3-0.9-2.3-2.2v-20.8c0-5.4-0.9-9.2-6.5-9.2c-3.2,0-6.6,1.5-8.8,3.2c0.1,0.8,0.2,1.6,0.2,2.5V580
							c0,1.3-0.8,2.2-2.2,2.2c-1.5,0-2.3-0.9-2.3-2.2v-24.3c0-2.4-0.3-3.9-1.3-5.3c-0.3-0.3-0.4-0.8-0.4-1.2c0-1.2,1-2,2-2
							c0.9,0,1.9,0.6,2.7,2.2C738.9,547.2,742.5,545.9,746.2,545.9z"/>
					</g>
				</g>
			</g>
			<g>
				<circle class="st2" cx="200.6" cy="302.7" r="25.7"/>
				<circle class="st2" cx="356.7" cy="137.9" r="84.4"/>
				<circle class="st2" cx="430.6" cy="303.8" r="61"/>
				<circle class="st2" cx="294.1" cy="280.4" r="41.3"/>
				<path class="st2" d="M472.2,165.5c0,56.5,45.8,102.3,102.3,102.3S676.8,222,676.8,165.5S631,63.2,574.5,63.2
					S472.2,109,472.2,165.5z M517.1,167.3c0-31.7,25.7-57.4,57.4-57.4s57.4,25.7,57.4,57.4s-25.7,57.4-57.4,57.4
					C542.8,224.8,517.1,199.1,517.1,167.3z"/>
			</g>
		</g>
	</g>
	<g id="Lijnen">
		<line class="st3" x1="71.7" y1="983" x2="71.7" y2="-307"/>
		<line class="st3" x1="-96.3" y1="982.5" x2="-96.3" y2="-307.5"/>
		<line class="st3" x1="174.7" y1="983.5" x2="174.7" y2="-306.5"/>
		<line class="st3" x1="676.7" y1="982.5" x2="676.7" y2="-307.5"/>
		<line class="st3" x1="775.7" y1="983.5" x2="775.7" y2="-306.5"/>
		<line class="st3" x1="944.7" y1="1002.5" x2="944.7" y2="-287.5"/>
		<line class="st3" x1="-460.3" y1="54" x2="1380.7" y2="54"/>
		<line class="st3" x1="-472.8" y1="-114" x2="1368.2" y2="-114"/>
		<line class="st3" x1="-670.8" y1="767" x2="1170.2" y2="767"/>
		<line class="st3" x1="-459.8" y1="444" x2="1381.2" y2="444"/>
		<line class="st3" x1="-459.8" y1="425" x2="1381.2" y2="425"/>
		<line class="st3" x1="-459.8" y1="499" x2="1381.2" y2="499"/>
		<line class="st3" x1="-525.8" y1="530" x2="1315.2" y2="530"/>
		<line class="st3" x1="-472.8" y1="546" x2="1368.2" y2="546"/>
		<line class="st3" x1="-459.8" y1="599" x2="1381.2" y2="599"/>
		<line class="st3" x1="-459.8" y1="582" x2="1381.2" y2="582"/>
		<rect x="-96.3" y="-114" class="st4" width="1041" height="881"/>
		<circle class="st5" cx="860.7" cy="497.9" r="84.4"/>
		<circle class="st5" cx="592.7" cy="-30.1" r="84.4"/>
		<circle class="st5" cx="155.7" cy="682.9" r="84.4"/>
		<circle class="st5" cx="-12.3" cy="137.9" r="84.4"/>
	</g>
</g>
<g id="Laag_2">
	<g>
		<g>
			<g>
				<g>
					<path class="st2" d="M39.7,549.1c0,3.3,0.3,6.4,0.9,9.1c0.6,2.7,1.6,5,3.1,6.9c1.4,1.9,3.3,3.3,5.7,4.3c2.4,1,5.2,1.5,8.7,1.5
						c2.8,0,5.3-0.3,7.4-1c2.1-0.7,4.1-1.6,5.9-2.9v-25.1H61.1c-1.8,0-3.4-0.7-4.7-2c-1.4-1.4-2-3-2-4.9c0-1.9,0.7-3.5,2-4.8
						s2.9-2,4.7-2h15.5c2.5,0,4.7,0.7,6.6,2s2.8,3.3,2.8,5.9v31.2c0,3-0.9,5.5-2.6,7.7c-1.8,2.1-4,3.9-6.8,5.2
						c-2.8,1.4-5.9,2.4-9.3,3c-3.4,0.6-6.7,0.9-10,0.9c-5.6,0-10.4-0.8-14.5-2.5c-4.1-1.7-7.4-4-10.1-7.1c-2.7-3-4.7-6.7-6-11
						c-1.3-4.3-2-9.1-2-14.4V525c0-5.2,0.7-10,2-14.4c1.3-4.3,3.3-8,6-11.1c2.7-3,6-5.4,10.1-7.1c4.1-1.7,8.9-2.5,14.5-2.5
						c3.3,0,6.6,0.3,9.7,1c3.1,0.7,5.9,1.6,8.3,2.8c2.4,1.2,4.4,2.6,5.8,4.2c1.4,1.6,2.2,3.2,2.2,4.9c0,1.8-0.7,3.3-2,4.6
						c-1.3,1.3-3,1.9-4.9,1.9c-1.3,0-2.2-0.2-2.9-0.6c-0.7-0.4-1.5-0.9-2.5-1.6l-0.7-0.4c-1.8-1.3-3.7-2.2-5.8-2.8
						c-2-0.6-4.2-0.9-6.6-0.9c-3.4,0-6.3,0.5-8.7,1.5c-2.4,1-4.3,2.4-5.7,4.3c-1.4,1.9-2.5,4.2-3.1,6.9c-0.6,2.7-0.9,5.7-0.9,9.1
						V549.1z"/>
					<path class="st2" d="M135.6,537.9c0-8-4.2-11.9-12.5-11.9c-1.8,0-3.3,0.2-4.5,0.5c-1.2,0.4-2.4,0.8-3.5,1.2l-2.6,1.1
						c-0.9,0.5-2.1,0.7-3.5,0.7c-2,0-3.4-0.6-4.3-1.9c-0.9-1.3-1.3-2.6-1.3-4.1c0-1.8,0.6-3.3,1.8-4.6c1.2-1.3,2.8-2.3,4.7-3.1
						c2-0.8,4.2-1.4,6.8-1.8c2.5-0.4,5.1-0.5,7.7-0.5c9.2,0,15.8,2.4,19.8,7.1c4,4.7,6,11.6,6,20.6v27.5c0,1.7,0.3,2.8,0.9,3.3
						c0.6,0.5,1.4,0.8,2.4,1c2.7,0.5,4.1,2.2,4.1,4.9c0,3.8-2.7,5.7-8,5.7c-4.7,0-8.3-2-10.8-6.1c-5.1,4.3-11.2,6.5-18.4,6.5
						c-7.4,0-13-1.9-16.7-5.7c-3.8-3.8-5.6-8.9-5.6-15.2v-0.4c0-13.6,8.5-20.5,25.4-20.5c4.2,0,8.2,0.5,12.2,1.6V537.9z
						 M123.8,553.3c-2.4,0-4.3,0.3-5.8,0.7c-1.5,0.5-2.6,1.2-3.5,2c-0.8,0.9-1.4,1.9-1.6,3.1c-0.3,1.2-0.4,2.4-0.4,3.7v0.4
						c0,2.7,0.7,4.8,2.2,6.3c1.5,1.5,4.1,2.2,7.9,2.2c2.4,0,4.6-0.4,6.6-1.1c2.1-0.7,4.2-1.9,6.2-3.7v-12.2c-2-0.5-4-0.8-6.1-1.1
						C127.4,553.5,125.5,553.3,123.8,553.3z"/>
					<path class="st2" d="M215.1,526.5c-3,8.4-5.9,16.8-8.7,25.1c-2.8,8.3-5.7,16.7-8.5,25.2c-0.9,2.6-2,4.5-3.4,5.6
						c-1.4,1.1-3.2,1.6-5.4,1.6c-2.4,0-4.3-0.5-5.6-1.6c-1.3-1.1-2.4-2.9-3.3-5.4c-2.9-8.5-5.8-17-8.7-25.4
						c-2.9-8.4-5.9-16.9-8.7-25.4l-1.5-5.3c0-0.2,0-0.3-0.1-0.4c0-0.1-0.1-0.2-0.1-0.4c0-1.8,0.8-3.3,2.3-4.5c1.5-1.2,3.2-1.8,5-1.8
						c1.4,0,2.7,0.4,4.1,1.2c1.4,0.8,2.3,2,2.7,3.5c1.3,4.1,2.5,8.1,3.8,12.1c1.3,4,2.5,8,3.8,12.1c1.3,4.1,2.4,8.1,3.3,12
						c0.9,3.9,2,7.9,3.1,12c1-4.1,1.9-8.1,2.8-12c0.9-3.9,2-7.9,3.3-12c1.3-4.1,2.5-8.1,3.7-12.1c1.2-4,2.5-8,3.7-12.1
						c0.5-1.4,1.3-2.5,2.6-3.3c1.3-0.9,2.7-1.3,4.1-1.3c1.9,0,3.5,0.6,4.9,1.8c1.4,1.2,2.1,2.8,2.1,4.7v0.8L215.1,526.5z"/>
					<path class="st2" d="M252,556.3c-1.9,0-3.8-0.1-5.8-0.2c-2-0.1-4.1-0.4-6.2-0.7v6.2c0,3.1,1,5.5,3.1,7.3
						c2.1,1.8,5.3,2.7,9.6,2.7c2.5,0,4.8-0.3,6.8-0.9c2-0.6,4.1-1.4,6.4-2.4c0.2-0.2,0.5-0.3,1-0.5c0.5-0.1,1.2-0.2,2-0.2
						c2.4,0,4,0.7,5.1,2c1,1.4,1.6,2.7,1.6,4.1c0,2.1-0.9,3.8-2.6,5.1c-1.8,1.3-3.9,2.4-6.4,3.2c-2.5,0.8-5.1,1.4-7.9,1.7
						c-2.8,0.3-5.1,0.5-7.1,0.5c-4.2,0-7.9-0.6-11.1-1.8c-3.3-1.2-6-2.8-8.2-4.9c-2.2-2.1-3.9-4.5-5.1-7.4c-1.2-2.8-1.8-5.9-1.8-9.2
						v-24c0-3.3,0.6-6.4,1.8-9.3c1.2-2.8,2.9-5.3,5.2-7.4c2.3-2.1,5.1-3.7,8.4-4.9c3.3-1.2,7.2-1.8,11.5-1.8
						c8.2,0,14.4,2.1,18.4,6.2c4.1,4.1,6.1,9.6,6.1,16.3c0,6.4-1.9,11.4-5.8,15C266.9,554.5,260.6,556.3,252,556.3z M262.1,535.6
						c0-3.6-0.9-6.2-2.6-7.7c-1.8-1.5-4.3-2.3-7.7-2.3c-3.8,0-6.7,0.9-8.8,2.8c-2.1,1.9-3.1,4.5-3.1,7.7v8c2.4,0.3,4.7,0.5,7,0.6
						c2.3,0.1,4,0.2,4.9,0.2c3.9,0,6.6-0.8,8.1-2.5C261.4,540.7,262.1,538.5,262.1,535.6z"/>
					<path class="st2" d="M320.7,527.6c-1.4,0-2.8,0-4,0c-1.2,0-2.4,0.1-3.5,0.3c-1.1,0.2-2.3,0.5-3.5,0.9c-1.2,0.5-2.6,1.1-4,1.9
						c0.1,0.6,0.2,1.2,0.2,1.7c0,0.5,0.1,1,0.1,1.4v43.4c0,2-0.7,3.6-2.1,5c-1.4,1.3-3.1,2-5.2,2c-2.1,0-3.8-0.7-5.2-2
						c-1.4-1.3-2.1-3-2.1-5v-43.4c0-1.9-0.1-3.4-0.4-4.6c-0.3-1.2-0.8-2.3-1.5-3.3c-0.5-0.5-0.8-1.1-1-1.6c-0.2-0.5-0.3-1.2-0.3-2
						c0-1.9,0.7-3.4,2.1-4.6c1.4-1.2,3.1-1.8,4.9-1.8c1.3,0,2.4,0.4,3.5,1.1c1,0.7,2,1.7,2.8,2.8c3.1-1.8,6.2-3.2,9.4-4.3
						c3.2-1,6-1.6,8.3-1.6c3.4,0,5.8,0.6,7.1,1.9c1.3,1.3,2,2.8,2,4.7c0,2.2-0.7,3.9-2.2,5.2C324.6,527.2,322.8,527.7,320.7,527.6z"
						/>
					<path class="st2" d="M354.5,538.5l19.5-20.7c0.9-1,1.9-1.9,3-2.6c1.1-0.8,2.4-1.2,3.9-1.2c2,0,3.7,0.6,5,1.8
						c1.4,1.2,2,2.7,2,4.5c0,1.8-0.6,3.3-1.9,4.6l-18.3,19c3.6,5.1,7.2,10.1,10.8,15.1c3.6,5,7.1,10,10.6,15.1
						c0.5,0.5,0.8,1.2,0.9,2c0.2,0.8,0.3,1.5,0.3,2.1c-0.2,1.8-0.9,3.2-2.2,4.3c-1.3,1-2.9,1.6-4.8,1.6c-1.1,0-2-0.1-2.6-0.3
						c-0.7-0.2-1.3-0.5-1.8-0.9c-0.5-0.5-1.1-1-1.6-1.8c-0.5-0.7-1.1-1.6-1.8-2.7l-17.9-25.8c-0.5,0.5-1.1,1-1.6,1.6
						c-0.5,0.6-1,1.1-1.6,1.6v18.6c0,2.5-0.5,4.8-1.6,6.8c-1,2-3,3-5.8,3c-2.1,0-3.8-0.6-5.2-1.9c-1.4-1.3-2.1-2.9-2.1-4.9v-76.9
						c0-1.4,0.1-2.6,0.3-3.9c0.2-1.2,0.5-2.3,1.1-3.3c0.5-0.9,1.3-1.7,2.2-2.2c0.9-0.5,2.2-0.8,3.7-0.8c2.1,0,3.8,0.7,5.2,2
						c1.4,1.3,2.1,2.9,2.1,4.8V538.5z"/>
					<path class="st2" d="M425.4,556.3c-1.9,0-3.8-0.1-5.8-0.2c-2-0.1-4.1-0.4-6.2-0.7v6.2c0,3.1,1,5.5,3.1,7.3
						c2.1,1.8,5.3,2.7,9.6,2.7c2.5,0,4.8-0.3,6.8-0.9c2-0.6,4.1-1.4,6.4-2.4c0.2-0.2,0.5-0.3,1-0.5c0.5-0.1,1.2-0.2,2-0.2
						c2.4,0,4,0.7,5.1,2c1,1.4,1.6,2.7,1.6,4.1c0,2.1-0.9,3.8-2.6,5.1c-1.8,1.3-3.9,2.4-6.4,3.2c-2.5,0.8-5.1,1.4-7.9,1.7
						c-2.8,0.3-5.1,0.5-7.1,0.5c-4.2,0-7.9-0.6-11.1-1.8c-3.3-1.2-6-2.8-8.2-4.9c-2.2-2.1-3.9-4.5-5.1-7.4c-1.2-2.8-1.8-5.9-1.8-9.2
						v-24c0-3.3,0.6-6.4,1.8-9.3c1.2-2.8,2.9-5.3,5.2-7.4c2.3-2.1,5.1-3.7,8.4-4.9c3.3-1.2,7.2-1.8,11.5-1.8
						c8.2,0,14.4,2.1,18.4,6.2c4.1,4.1,6.1,9.6,6.1,16.3c0,6.4-1.9,11.4-5.8,15C440.4,554.5,434.1,556.3,425.4,556.3z M435.6,535.6
						c0-3.6-0.9-6.2-2.6-7.7c-1.8-1.5-4.3-2.3-7.7-2.3c-3.8,0-6.7,0.9-8.8,2.8c-2.1,1.9-3.1,4.5-3.1,7.7v8c2.4,0.3,4.7,0.5,7,0.6
						c2.3,0.1,4,0.2,4.9,0.2c3.9,0,6.6-0.8,8.1-2.5C434.8,540.7,435.6,538.5,435.6,535.6z"/>
					<g>
						<g>
							<path class="st6" d="M484.6,583.2c-0.6,1.4-1.5,2.5-2.9,3.2c-1.3,0.7-2.8,1-4.3,0.7c-0.9-0.2-1.7-0.5-2.4-0.9
								c-0.7-0.4-1.3-1-1.8-1.6c-0.5-0.6-0.8-1.3-1-2c-0.2-0.8-0.2-1.5,0.1-2.3l24.5-64.7c0.6-1.4,1.5-2.5,2.8-3.2
								c1.3-0.7,2.7-0.9,4.2-0.6c1.6,0.3,2.9,1.1,3.9,2.4c1,1.3,1.4,2.7,1.3,4.1c-0.1,0.5-0.2,1-0.5,1.4L484.6,583.2z"/>
						</g>
					</g>
					<path class="st2" d="M534.6,525c0-5.2,0.7-10,2-14.4c1.3-4.3,3.3-8,6-11.1c2.7-3,6-5.4,10.1-7.1c4.1-1.7,8.9-2.5,14.5-2.5
						c3.3,0,6.6,0.3,9.7,1c3.1,0.7,5.9,1.6,8.3,2.8c2.4,1.2,4.4,2.6,5.8,4.2c1.4,1.6,2.2,3.2,2.2,4.9c0,1.8-0.7,3.3-2,4.6
						c-1.3,1.3-3,1.9-4.9,1.9c-1.3,0-2.2-0.2-2.9-0.6c-0.7-0.4-1.5-0.9-2.5-1.6l-0.7-0.4c-3.6-2.5-7.7-3.8-12.3-3.8
						c-3.4,0-6.3,0.5-8.7,1.5c-2.4,1-4.3,2.4-5.7,4.3c-1.4,1.9-2.5,4.2-3.1,6.9c-0.6,2.7-0.9,5.7-0.9,9.1v24.1
						c0,3.3,0.3,6.4,0.9,9.1c0.6,2.7,1.6,5,3.1,6.9c1.4,1.9,3.3,3.3,5.7,4.3c2.4,1,5.2,1.5,8.7,1.5c4.5,0,8.6-1.2,12.3-3.7l0.7-0.4
						c1-0.6,1.8-1.2,2.5-1.6c0.7-0.4,1.6-0.6,2.9-0.6c2,0,3.6,0.6,4.9,1.9c1.3,1.3,2,2.8,2,4.5c0,1.8-0.7,3.5-2.2,5.1
						c-1.4,1.6-3.4,3-5.8,4.1c-2.4,1.2-5.2,2.1-8.3,2.8c-3.1,0.7-6.4,1-9.7,1c-5.6,0-10.4-0.8-14.5-2.5c-4.1-1.7-7.4-4-10.1-7.1
						c-2.7-3-4.7-6.7-6-11c-1.3-4.3-2-9.1-2-14.4V525z"/>
					<path class="st2" d="M630.7,584.1c-4.5,0-8.5-0.6-11.9-1.9c-3.4-1.3-6.2-3-8.5-5.2c-2.3-2.2-4-4.8-5.2-7.9
						c-1.2-3-1.8-6.3-1.8-9.7V538c0-3.5,0.6-6.8,1.8-9.8c1.2-3,2.9-5.6,5.2-7.8c2.3-2.2,5.2-4,8.5-5.2c3.4-1.3,7.3-1.9,11.9-1.9
						c4.4,0,8.4,0.6,11.8,1.9c3.4,1.3,6.3,3,8.6,5.2c2.3,2.2,4,4.8,5.2,7.8c1.2,3,1.8,6.2,1.8,9.8v21.4c0,3.4-0.6,6.7-1.8,9.7
						c-1.2,3-2.9,5.7-5.2,7.9c-2.3,2.2-5.2,4-8.6,5.2C639.1,583.5,635.1,584.1,630.7,584.1z M630.7,571.2c4.2,0,7.4-1,9.6-3.1
						c2.1-2.1,3.2-5,3.2-8.7v-21.6c0-3.6-1.1-6.5-3.2-8.5c-2.1-2.1-5.3-3.1-9.6-3.1c-4.3,0-7.4,1-9.6,3.1c-2.1,2.1-3.2,4.9-3.2,8.5
						v21.6c0,3.7,1.1,6.6,3.2,8.7C623.3,570.2,626.5,571.2,630.7,571.2z"/>
					<path class="st2" d="M684.3,584.1c-1.1,0-2.3-0.2-3.5-0.5c-1.3-0.3-2.4-1-3.5-2c-1-1-1.9-2.6-2.6-4.5c-0.7-2-1.1-4.6-1.1-7.9
						v-72.3c0-1.8,0.7-3.4,2.1-4.7c1.4-1.4,3.1-2,5.2-2c2.1,0,3.8,0.7,5.2,2c1.4,1.3,2.1,2.9,2.1,4.8v71.5c0,1.4,0.1,2.6,0.3,3.3
						c0.2,0.8,0.7,1.7,1.6,2.6c0.5,0.5,0.9,0.9,1.2,1.4c0.4,0.5,0.5,1.2,0.5,2.2c0,1.9-0.7,3.4-2,4.5S686.6,584.1,684.3,584.1z"/>
					<path class="st2" d="M717.9,584.1c-1.1,0-2.3-0.2-3.5-0.5c-1.3-0.3-2.4-1-3.5-2c-1-1-1.9-2.6-2.6-4.5c-0.7-2-1.1-4.6-1.1-7.9
						v-72.3c0-1.8,0.7-3.4,2.1-4.7c1.4-1.4,3.1-2,5.2-2c2.1,0,3.8,0.7,5.2,2c1.4,1.3,2.1,2.9,2.1,4.8v71.5c0,1.4,0.1,2.6,0.3,3.3
						c0.2,0.8,0.7,1.7,1.6,2.6c0.5,0.5,0.9,0.9,1.2,1.4c0.4,0.5,0.5,1.2,0.5,2.2c0,1.9-0.7,3.4-2,4.5S720.3,584.1,717.9,584.1z"/>
					<path class="st2" d="M764.3,556.3c-1.9,0-3.8-0.1-5.8-0.2c-2-0.1-4.1-0.4-6.2-0.7v6.2c0,3.1,1,5.5,3.1,7.3
						c2.1,1.8,5.3,2.7,9.6,2.7c2.5,0,4.8-0.3,6.8-0.9c2-0.6,4.1-1.4,6.4-2.4c0.2-0.2,0.5-0.3,1-0.5c0.5-0.1,1.2-0.2,2-0.2
						c2.4,0,4,0.7,5.1,2c1,1.4,1.6,2.7,1.6,4.1c0,2.1-0.9,3.8-2.6,5.1c-1.8,1.3-3.9,2.4-6.4,3.2c-2.5,0.8-5.1,1.4-7.9,1.7
						c-2.8,0.3-5.1,0.5-7.1,0.5c-4.2,0-7.9-0.6-11.1-1.8c-3.3-1.2-6-2.8-8.2-4.9c-2.2-2.1-3.9-4.5-5.1-7.4c-1.2-2.8-1.8-5.9-1.8-9.2
						v-24c0-3.3,0.6-6.4,1.8-9.3c1.2-2.8,2.9-5.3,5.2-7.4c2.3-2.1,5.1-3.7,8.4-4.9c3.3-1.2,7.2-1.8,11.5-1.8
						c8.2,0,14.4,2.1,18.4,6.2c4.1,4.1,6.1,9.6,6.1,16.3c0,6.4-1.9,11.4-5.8,15C779.2,554.5,773,556.3,764.3,556.3z M774.5,535.6
						c0-3.6-0.9-6.2-2.6-7.7c-1.8-1.5-4.3-2.3-7.7-2.3c-3.8,0-6.7,0.9-8.8,2.8c-2.1,1.9-3.1,4.5-3.1,7.7v8c2.4,0.3,4.7,0.5,7,0.6
						c2.3,0.1,4,0.2,4.9,0.2c3.9,0,6.6-0.8,8.1-2.5C773.7,540.7,774.5,538.5,774.5,535.6z"/>
					<path class="st2" d="M826.3,513.5c3.3,0,6.5,0.4,9.4,1.2c2.9,0.8,5.8,1.9,8.6,3.5c1.6-2.6,3.5-4.6,5.6-5.8
						c2.1-1.3,4-1.9,5.8-1.9c1.7,0,3.3,0.6,4.7,1.8c1.4,1.2,2.2,2.7,2.2,4.5c0,0.9-0.2,1.7-0.5,2.3c-0.4,0.6-0.7,1.1-1.1,1.5l-2,2
						c-0.9,0.9-1.7,1.7-2.2,2.4c-0.6,0.7-1.1,1.3-1.4,2c-0.4,0.6-0.6,1.3-0.7,2.1c-0.1,0.8-0.2,1.7-0.2,2.6v8c0,3.5-0.5,6.8-1.6,9.8
						c-1.1,3-2.8,5.6-5,7.7c-2.3,2.2-5.1,3.9-8.4,5.2c-3.3,1.3-7.3,1.9-11.8,1.9c-1.5,0-3.1-0.1-4.7-0.3c-1.6-0.2-3.1-0.5-4.4-0.9
						c-0.5,1-0.8,1.9-0.9,2.6c-0.2,0.7-0.3,1.4-0.3,2.2c0,2.1,0.6,3.5,1.9,4.1c1.3,0.7,2.5,1,3.7,1h5.7c4.2,0,8,0.4,11.5,1.2
						c3.5,0.8,6.6,2.1,9.2,3.7c2.6,1.7,4.7,3.8,6.2,6.3c1.5,2.5,2.2,5.6,2.2,9.1s-0.7,6.7-2.2,9.4c-1.5,2.8-3.6,5.1-6.2,7.1
						c-2.7,2-5.8,3.5-9.4,4.5c-3.6,1-7.6,1.6-11.9,1.6c-4.2,0-8-0.5-11.4-1.5c-3.4-1-6.4-2.4-8.9-4.2c-2.5-1.8-4.4-4-5.8-6.7
						c-1.4-2.7-2-5.7-2-9c0-3,0.6-5.7,1.9-8.2c1.3-2.5,3.3-4.9,6-7.3c-1.3-1.8-2.1-3.7-2.6-5.6c-0.5-1.9-0.7-3.7-0.7-5.2
						c0-1.5,0.3-3.2,0.9-5c0.6-1.8,1.8-3.6,3.5-5.4c-5.3-4.8-8-11.1-8-19c0-3.6,0.5-7,1.6-10c1.1-3.1,2.7-5.7,4.9-8
						c2.2-2.3,4.8-4,8-5.3C818.3,514.1,822,513.5,826.3,513.5z M825.8,585.3c-1.4,0-2.8,0-4.1-0.1c-1.3-0.1-2.6-0.2-3.9-0.3
						c-2.4,2.3-3.5,5.1-3.5,8.1c0,3.3,1.1,5.8,3.4,7.6c2.3,1.8,5.7,2.7,10.3,2.7c4.3,0,7.9-0.8,10.7-2.5c2.8-1.7,4.2-4.1,4.2-7.4
						c0-5.4-4.7-8.1-14.2-8.1H825.8z M839.7,535.6c0-1.1,0-2.2,0-3.3c0-1.1,0-2.2,0.1-3.3c-2-1-3.9-1.8-5.8-2.4
						c-1.9-0.6-3.8-0.9-5.9-0.9c-4.3,0-7.6,1.1-9.7,3.4c-2.1,2.3-3.2,5.6-3.2,9.9c0,4,1,7.1,2.9,9.5c1.9,2.4,5.1,3.5,9.6,3.5
						c4.1,0,7.1-1.1,9-3.2c1.9-2.1,2.9-5.1,2.9-8.9V535.6z"/>
					<path class="st2" d="M896,556.3c-1.9,0-3.8-0.1-5.8-0.2c-2-0.1-4.1-0.4-6.2-0.7v6.2c0,3.1,1,5.5,3.1,7.3
						c2.1,1.8,5.3,2.7,9.6,2.7c2.5,0,4.8-0.3,6.8-0.9c2-0.6,4.1-1.4,6.4-2.4c0.2-0.2,0.5-0.3,1-0.5c0.5-0.1,1.2-0.2,2-0.2
						c2.4,0,4,0.7,5.1,2c1,1.4,1.6,2.7,1.6,4.1c0,2.1-0.9,3.8-2.6,5.1c-1.8,1.3-3.9,2.4-6.4,3.2c-2.5,0.8-5.1,1.4-7.9,1.7
						c-2.8,0.3-5.1,0.5-7.1,0.5c-4.2,0-7.9-0.6-11.1-1.8c-3.3-1.2-6-2.8-8.2-4.9c-2.2-2.1-3.9-4.5-5.1-7.4c-1.2-2.8-1.8-5.9-1.8-9.2
						v-24c0-3.3,0.6-6.4,1.8-9.3c1.2-2.8,2.9-5.3,5.2-7.4c2.3-2.1,5.1-3.7,8.4-4.9c3.3-1.2,7.2-1.8,11.5-1.8
						c8.2,0,14.4,2.1,18.4,6.2c4.1,4.1,6.1,9.6,6.1,16.3c0,6.4-1.9,11.4-5.8,15C910.9,554.5,904.6,556.3,896,556.3z M906.1,535.6
						c0-3.6-0.9-6.2-2.6-7.7c-1.8-1.5-4.3-2.3-7.7-2.3c-3.8,0-6.7,0.9-8.8,2.8c-2.1,1.9-3.1,4.5-3.1,7.7v8c2.4,0.3,4.7,0.5,7,0.6
						c2.3,0.1,4,0.2,4.9,0.2c3.9,0,6.6-0.8,8.1-2.5C905.4,540.7,906.1,538.5,906.1,535.6z"/>
				</g>
			</g>
			<g>
				<g>
					<path class="st6" d="M45.7,686.7c-0.9,2.7-2,3.7-4.1,3.7s-3.2-1.2-4-3.6L25,647.9c-0.6-1.8,1-3.4,2.8-3.4c1,0,2,0.4,2.5,1.9
						l11.3,36.5l11.1-36.5c0.3-0.9,1.2-1.9,2.6-1.9c1.5,0.1,2.8,1.3,2.8,2.9c0,0.3,0,0.4-0.1,0.7L45.7,686.7z"/>
					<path class="st6" d="M73.7,687.6c0,1.6-1.3,2.8-2.8,2.8c-1.7,0-2.9-1.2-2.9-2.8v-30.8c0-3.1-0.4-5-1.6-6.7
						c-0.4-0.4-0.5-1-0.5-1.5c0-1.5,1.2-2.6,2.7-2.6c1.2,0,2.5,1.1,3.5,2.7c4.2-2.7,9.4-4.2,12.7-4.2c3.1,0,4.1,1.2,4.1,2.8
						c0,1.8-1.3,3.1-2.8,3c-4-0.1-7.3-0.1-12.2,3.5v0.1c0,0,0.1,0.1,0.1,2.7V687.6z"/>
					<path class="st6" d="M100.8,633.2c-2.1,0-3.7-1.7-3.7-3.6c0-2.1,1.6-3.7,3.7-3.7c1.9,0,3.6,1.6,3.6,3.7
						C104.4,631.5,102.8,633.2,100.8,633.2z M100.8,690.5c-1.7,0-2.9-1.2-2.9-2.8v-40.2c0-1.6,1.2-2.9,2.9-2.9
						c1.5,0,2.8,1.3,2.8,2.9v40.2C103.7,689.2,102.3,690.5,100.8,690.5z"/>
					<path class="st6" d="M125.4,691.9c0,8.9-4.8,15.1-12.3,16.4c-0.7,0.1-1.1,0-1.6,0c-1.1,0-2.1-0.7-2.4-1.8
						c-0.4-2,1.1-2.9,2.2-3.1c5.3-1.2,8.3-4.1,8.3-11.1v-44.8c0-1.6,1.2-2.9,2.9-2.9c1.5,0,2.8,1.3,2.8,2.9V691.9z M122.6,633.2
						c-2.1,0-3.8-1.7-3.8-3.6c0-2.1,1.7-3.7,3.8-3.7c1.9,0,3.6,1.6,3.6,3.7C126.2,631.5,124.5,633.2,122.6,633.2z"/>
					<path class="st6" d="M163.8,683c0.2-0.1,0.6-0.3,1-0.3c1.4,0,2.5,1.2,2.5,2.5c0,4-9.4,5.2-14.1,5.2c-9.9,0-15.6-6.3-15.6-14.4
						v-17c0-8.4,5.7-14.8,16.1-14.8c9.6,0,14.3,5.6,14.3,14.2c0,8-4.3,12.8-14.7,12.8c-2.9,0-6.5-0.3-10-1v6.3c0,5.4,3.6,9,10.7,9
						C158.1,685.6,160.6,684.4,163.8,683z M153.5,649.3c-6.4,0-10.1,3.5-10.1,9v7.5c3.8,0.5,8.5,0.7,10.4,0.7c7.4,0,8.7-4,8.7-8.1
						C162.4,652,159.1,649.3,153.5,649.3z"/>
					<path class="st6" d="M195.8,627.8c0-1.4,1.1-2.8,2.9-2.8c1.9,0,2.8,1.4,2.8,2.8v20.8c4-2.8,8.1-4.3,12.9-4.3
						c9.8,0,13.4,5.9,13.4,13.5V675c0,8.8-5.3,15.5-15.9,15.5c-10.3,0-16.1-6-16.1-13.6V627.8z M201.6,676.8c0,5.2,4,8.4,10.4,8.4
						c7,0,10.2-3.9,10.2-10.3v-17.2c0-5.5-2.8-8.8-9.4-8.8c-4.7,0-8.3,1.9-11.1,5V676.8z"/>
					<path class="st6" d="M261.4,659.7c0-7.2-3.4-10.5-10.4-10.5c-3.3,0-5.1,0.7-7.2,1.9c-0.5,0.4-1.2,0.7-2.1,0.7
						c-1.3,0-1.9-1.2-1.9-2.3c-0.4-3.7,6.2-5.2,12.1-5.2c10.9,0,15.2,6.2,15.2,17.8v20c0,2.3,0.8,3.5,2.4,3.5c0.4,0,0.5-0.1,0.7-0.1
						c1.3,0,1.9,1.2,1.9,2.4c0,1.8-1.8,2.4-3.4,2.4c-2.7,0-5.1-1.9-6.7-5c-3.7,3.5-7.9,5.3-12.7,5.3c-8.9,0-13.3-5.3-13.3-13v-0.4
						c0-8.5,5-12.9,15.4-12.9c3,0,6.4,0.6,9.8,1.6V659.7z M241.8,677.2v0.4c0,4.6,2,8,8.8,8c4.1,0,7.3-1.4,10.8-4.3v-10.6
						c-3.5-1.1-7.3-1.7-9.9-1.7C243.3,668.9,241.8,672.7,241.8,677.2z"/>
					<path class="st6" d="M294.4,644.3c4.5,0,11.4,1.1,11.4,4.4c0,1.4-1.1,2.6-2.6,2.6c-0.5,0-0.9-0.2-1.3-0.4c-2-1-3.8-1.8-7.3-1.8
						c-6,0-8.8,2.5-8.8,7.2c0,3.2,1.2,4.8,4.7,6.6c7,3.5,16.5,4.3,16.5,15c0,7.8-5,12.6-14.6,12.6c-4.5,0-12.8-0.9-12.8-4.5
						c0-1.3,1.1-2.7,2.7-2.7c0.2,0,0.3,0,0.5,0.1c2.7,1.1,5.6,2.2,9.6,2.2c5.4,0,9-2.2,9-7.4c0-3.7-1.7-5.4-3.6-6.5
						c-6.9-3.5-17.6-4.3-17.6-15C280.3,649.2,285.2,644.3,294.4,644.3z"/>
					<path class="st6" d="M320.6,633.2c-2.1,0-3.7-1.7-3.7-3.6c0-2.1,1.6-3.7,3.7-3.7c1.9,0,3.6,1.6,3.6,3.7
						C324.2,631.5,322.5,633.2,320.6,633.2z M320.6,690.5c-1.7,0-2.9-1.2-2.9-2.8v-40.2c0-1.6,1.2-2.9,2.9-2.9
						c1.5,0,2.8,1.3,2.8,2.9v40.2C323.4,689.2,322.1,690.5,320.6,690.5z"/>
					<path class="st6" d="M350.6,644.3c4.5,0,11.4,1.1,11.4,4.4c0,1.4-1.1,2.6-2.6,2.6c-0.5,0-0.9-0.2-1.3-0.4c-2-1-3.8-1.8-7.3-1.8
						c-6,0-8.8,2.5-8.8,7.2c0,3.2,1.2,4.8,4.7,6.6c7,3.5,16.5,4.3,16.5,15c0,7.8-5,12.6-14.6,12.6c-4.5,0-12.8-0.9-12.8-4.5
						c0-1.3,1.1-2.7,2.7-2.7c0.2,0,0.3,0,0.5,0.1c2.7,1.1,5.6,2.2,9.6,2.2c5.4,0,9-2.2,9-7.4c0-3.7-1.7-5.4-3.6-6.5
						c-6.9-3.5-17.6-4.3-17.6-15C336.5,649.2,341.4,644.3,350.6,644.3z"/>
					<path class="st6" d="M385.7,644.3c4.5,0,11.4,1.1,11.4,4.4c0,1.4-1.1,2.6-2.6,2.6c-0.5,0-0.9-0.2-1.3-0.4c-2-1-3.8-1.8-7.3-1.8
						c-6,0-8.8,2.5-8.8,7.2c0,3.2,1.2,4.8,4.7,6.6c7,3.5,16.5,4.3,16.5,15c0,7.8-5,12.6-14.6,12.6c-4.5,0-12.8-0.9-12.8-4.5
						c0-1.3,1.1-2.7,2.7-2.7c0.2,0,0.3,0,0.5,0.1c2.7,1.1,5.6,2.2,9.6,2.2c5.4,0,9-2.2,9-7.4c0-3.7-1.7-5.4-3.6-6.5
						c-6.9-3.5-17.6-4.3-17.6-15C371.6,649.2,376.5,644.3,385.7,644.3z"/>
					<path class="st6" d="M406.7,660.6c0-9,4.8-16.1,15.7-16.1c4,0,11.9,1.1,11.9,4.9c0,1.3-1.1,2.4-2.4,2.4c-0.5,0-0.9-0.1-1.3-0.2
						h0.1c-2.2-1.2-4.3-2.2-7.6-2.2c-7.7,0-10.7,4.2-10.7,11.2v13.8c0,7,3,11.1,10.7,11.1c3.4,0,5.5-1.1,7.6-2.1h-0.1
						c0.6-0.2,1-0.3,1.3-0.3c1.3,0,2.4,1.1,2.4,2.5c0,3.7-8,4.8-11.9,4.8c-11,0-15.7-7-15.7-16V660.6z"/>
					<path class="st6" d="M446.4,690.5c-1.7,0-2.9-1.2-2.9-2.8v-60.3c0-1.4,1.1-2.9,2.7-2.9s2.8,1.2,2.8,2.9v21.5
						c3.8-2.9,8.1-4.6,12.2-4.6c9.3,0,13.4,6,13.4,14.5v28.8c0,1.6-1.2,2.8-2.8,2.8s-2.9-1.2-2.9-2.8v-28.8c0-6-2.5-9.4-8.6-9.4
						c-3.8,0-8.3,1.9-11.3,5.8v32.3C449,689.2,447.9,690.5,446.4,690.5z"/>
					<path class="st6" d="M485.6,675v-15.2c0-8.8,5.8-15.6,16.4-15.6c10.7,0,16.4,6.8,16.4,15.6V675c0,8.8-5.7,15.5-16.4,15.5
						C491.4,690.5,485.6,683.7,485.6,675z M512.6,675v-15.3c0-6.4-3.5-10.4-10.6-10.4c-7,0-10.6,4-10.6,10.4V675
						c0,6.4,3.6,10.3,10.6,10.3C509.1,685.2,512.6,681.3,512.6,675z"/>
					<path class="st6" d="M526.7,675v-15.2c0-8.8,5.8-15.6,16.4-15.6c10.7,0,16.4,6.8,16.4,15.6V675c0,8.8-5.7,15.5-16.4,15.5
						C532.4,690.5,526.7,683.7,526.7,675z M553.7,675v-15.3c0-6.4-3.5-10.4-10.6-10.4c-7,0-10.6,4-10.6,10.4V675
						c0,6.4,3.6,10.3,10.6,10.3C550.1,685.2,553.7,681.3,553.7,675z"/>
					<path class="st6" d="M570.6,627.9c0-1.5,1.2-2.9,2.8-2.9s2.8,1.3,2.8,2.9v54c0,2,0.4,3.5,1.6,4.8c0.2,0.3,0.4,0.9,0.4,1.2
						c0,1.5-1.1,2.6-2.6,2.6c-1.9,0-5-1-5-8.6V627.9z"/>
					<path class="st6" d="M635.3,637.9c-3.3,14.8-7.9,34.4-11.1,49.1c-0.5,1.6-1.7,3.6-4.2,3.6c-2.2,0-3.6-1.6-4.2-3.6l-13.5-57.3
						v-0.4c0-1.6,1.9-2.5,3.5-2.5c1.1,0,2.2,0.9,2.7,2.1l11.9,51.1l11.1-48.8c0.7-2.9,1.6-4.8,4.1-4.8c2.4,0,3.4,1.9,4,4.8
						l11.2,48.9l11.8-51.2c0.4-1.2,1.3-2.1,2.4-2.1c1.6,0,3.6,0.8,3.6,2.6c0,0.1,0,0.5-0.1,0.8v0.1L654.8,687
						c-0.5,1.9-1.9,3.6-4.2,3.6c-2.3,0-3.7-1.9-4.2-3.7L635.3,637.9z"/>
					<path class="st6" d="M696.1,659.7c0-7.2-3.4-10.5-10.4-10.5c-3.3,0-5.1,0.7-7.2,1.9c-0.5,0.4-1.2,0.7-2.1,0.7
						c-1.3,0-1.9-1.2-1.9-2.3c-0.4-3.7,6.2-5.2,12.1-5.2c10.9,0,15.2,6.2,15.2,17.8v20c0,2.3,0.8,3.5,2.4,3.5c0.4,0,0.5-0.1,0.7-0.1
						c1.3,0,1.9,1.2,1.9,2.4c0,1.8-1.8,2.4-3.4,2.4c-2.7,0-5.1-1.9-6.7-5c-3.7,3.5-7.9,5.3-12.7,5.3c-8.9,0-13.3-5.3-13.3-13v-0.4
						c0-8.5,5-12.9,15.4-12.9c3,0,6.4,0.6,9.8,1.6V659.7z M676.6,677.2v0.4c0,4.6,2,8,8.8,8c4.1,0,7.3-1.4,10.8-4.3v-10.6
						c-3.5-1.1-7.3-1.7-9.9-1.7C678.1,668.9,676.6,672.7,676.6,677.2z"/>
					<path class="st6" d="M722.3,687.6c0,1.6-1.3,2.8-2.8,2.8c-1.7,0-2.9-1.2-2.9-2.8v-30.8c0-3.1-0.4-5-1.6-6.7
						c-0.4-0.4-0.5-1-0.5-1.5c0-1.5,1.2-2.6,2.7-2.6c1.1,0,2.5,1.1,3.5,2.7c4.2-2.7,9.4-4.2,12.7-4.2c3.1,0,4.1,1.2,4.1,2.8
						c0,1.8-1.3,3.1-2.8,3c-4-0.1-7.3-0.1-12.2,3.5v0.1c0,0,0.1,0.1,0.1,2.7V687.6z"/>
					<path class="st6" d="M769.4,683c0.2-0.1,0.6-0.3,1-0.3c1.4,0,2.5,1.2,2.5,2.5c0,4-9.4,5.2-14.1,5.2c-9.9,0-15.6-6.3-15.6-14.4
						v-17c0-8.4,5.7-14.8,16.1-14.8c9.6,0,14.3,5.6,14.3,14.2c0,8-4.3,12.8-14.7,12.8c-2.9,0-6.5-0.3-10-1v6.3c0,5.4,3.6,9,10.7,9
						C763.7,685.6,766.2,684.4,769.4,683z M759,649.3c-6.4,0-10.1,3.5-10.1,9v7.5c3.8,0.5,8.5,0.7,10.4,0.7c7.4,0,8.7-4,8.7-8.1
						C767.9,652,764.7,649.3,759,649.3z"/>
					<path class="st6" d="M810.1,647.6c2.1-3.9,5.2-5.6,6.9-5.6c1.5,0,2.7,1.1,2.7,2.6c0,0.7-0.2,1.2-0.4,1.3l-0.8,0.9
						c-3,2.8-4.4,4.2-4.4,8.4v5.7c0,8.8-5.2,15.7-15.7,15.7c-2.7,0-5.2-0.5-7.5-1.4c-1.1,2-1.5,3.8-1.5,5.1c0,3.7,3.4,4.6,5.7,4.6
						h3.8c10,0,17.5,3.9,17.5,12.3c0,8.8-7.6,14.1-18,14.1c-9.9,0-16.8-4.9-16.8-13.3c0-4.1,1.8-7.5,5-10.4c-2.3-2.2-3-5-3-7
						c0-1.9,0.8-4.7,3.9-7.4c-3.5-3.3-5.3-7.7-5.3-12.9c0-9.1,5.1-16,15.7-16C801.8,644.3,806.3,645.4,810.1,647.6z M790.8,689.8
						c-2.5,1.9-3.6,4.4-3.6,7.3c0,5.9,3.9,9.1,11.3,9.1c7,0,12-2.8,12-8.8c0-5.1-3.8-7.3-11.6-7.3h-3.8
						C793.4,690.2,791.9,690,790.8,689.8z M808.6,652.3c-3.2-1.9-6.5-3.1-10-3.1c-7.2,0-10.8,4.1-10.8,11.2c0,6.5,3.1,11,10.4,11
						c7,0,10.1-3.9,10.1-10.4v-5.8C808.4,654.9,808.5,653.7,808.6,652.3z"/>
					<path class="st6" d="M850.3,683c0.2-0.1,0.6-0.3,1-0.3c1.4,0,2.5,1.2,2.5,2.5c0,4-9.4,5.2-14.1,5.2c-9.9,0-15.6-6.3-15.6-14.4
						v-17c0-8.4,5.7-14.8,16.1-14.8c9.6,0,14.3,5.6,14.3,14.2c0,8-4.3,12.8-14.7,12.8c-2.9,0-6.5-0.3-10-1v6.3c0,5.4,3.6,9,10.7,9
						C844.6,685.6,847.1,684.4,850.3,683z M840,649.3c-6.4,0-10.1,3.5-10.1,9v7.5c3.8,0.5,8.5,0.7,10.4,0.7c7.4,0,8.7-4,8.7-8.1
						C848.9,652,845.6,649.3,840,649.3z"/>
					<path class="st6" d="M882.8,644.3c4.7,0,8,1.8,10.4,5c4.1-3.1,8.5-5,13.4-5c9.4,0,14.4,6,14.4,14.9v28.5c0,1.6-0.9,2.7-2.8,2.7
						c-1.9,0-2.9-1.2-2.9-2.7v-28.3c0-5.5-2.8-9.9-8.9-9.9c-4.2,0-8.3,2.3-10.7,5.3c0.3,1.3,0.4,2.7,0.4,4.4v28.5
						c0,1.6-0.9,2.7-2.8,2.7c-1.9,0-2.9-1.2-2.9-2.7v-26.5c0-6.9-1.2-11.8-8.2-11.8c-4.1,0-8.4,1.9-11.2,4.1c0.2,1.1,0.3,2,0.3,3.2
						v31c0,1.6-1,2.7-2.8,2.7c-1.9,0-2.9-1.2-2.9-2.7v-31c0-3.1-0.4-5-1.6-6.7c-0.4-0.4-0.5-1-0.5-1.5c0-1.5,1.2-2.6,2.6-2.6
						c1.2,0,2.5,0.8,3.5,2.7C873.5,645.9,878.1,644.3,882.8,644.3z"/>
				</g>
			</g>
		</g>
		<g>
			<circle class="st7" cx="187.7" cy="334.3" r="32.8"/>
			<circle class="st8" cx="386.5" cy="124.4" r="107.5"/>
			<circle class="st9" cx="480.7" cy="335.8" r="77.8"/>
			<circle class="st6" cx="306.8" cy="305.9" r="52.6"/>
			<path class="st10" d="M533.7,159.6c0,72,58.4,130.4,130.4,130.4s130.4-58.4,130.4-130.4S736.1,29.3,664.1,29.3
				S533.7,87.6,533.7,159.6z M590.9,161.9c0-40.4,32.8-73.2,73.2-73.2c40.4,0,73.2,32.8,73.2,73.2c0,40.4-32.8,73.2-73.2,73.2
				C623.7,235.1,590.9,202.3,590.9,161.9z"/>
		</g>
	</g>
</g>
</svg>
