<?xml version="1.0" encoding="utf-8"?>
<!-- Generator: Adobe Illustrator 22.0.1, SVG Export Plug-In . SVG Version: 6.00 Build 0)  -->
<svg version="1.1" id="Laag_1" xmlns="http://www.w3.org/2000/svg" xmlns:xlink="http://www.w3.org/1999/xlink" x="0px" y="0px"
	 viewBox="0 0 1000 1000" style="enable-background:new 0 0 1000 1000;" xml:space="preserve">
<style type="text/css">
	.st0{fill:#4C4C4C;}
	.st1{fill:#714FB2;}
	.st2{font-family:'BloggerSans-Light';}
	.st3{font-size:69.4396px;}
	.st4{font-size:44.8682px;}
	.st5{fill:#FC9732;}
	.st6{fill:#D7E100;}
	.st7{fill:#DB169F;}
	.st8{fill:#3FA8EF;}
</style>
<g>
	<g>
		<g>
			<path class="st0" d="M147.3,616.6c0,2.6,0.2,5,0.7,7.1c0.5,2.1,1.3,3.9,2.4,5.4c1.1,1.5,2.6,2.6,4.5,3.4c1.8,0.8,4.1,1.2,6.8,1.2
				c2.2,0,4.1-0.3,5.8-0.8c1.7-0.5,3.2-1.3,4.6-2.3V611h-8c-1.4,0-2.7-0.5-3.7-1.6c-1.1-1.1-1.6-2.3-1.6-3.8c0-1.5,0.5-2.7,1.6-3.8
				c1.1-1,2.3-1.5,3.7-1.5h12.1c2,0,3.7,0.5,5.2,1.5c1.5,1,2.2,2.6,2.2,4.6v24.5c0,2.3-0.7,4.3-2.1,6c-1.4,1.7-3.2,3-5.4,4.1
				c-2.2,1.1-4.6,1.8-7.3,2.3c-2.7,0.5-5.3,0.7-7.8,0.7c-4.4,0-8.2-0.7-11.4-2c-3.2-1.3-5.8-3.2-7.9-5.5c-2.1-2.4-3.7-5.3-4.7-8.6
				c-1-3.4-1.5-7.1-1.5-11.3v-18.9c0-4.1,0.5-7.9,1.5-11.3c1-3.4,2.6-6.3,4.7-8.7c2.1-2.4,4.7-4.2,7.9-5.5c3.2-1.3,7-2,11.4-2
				c2.6,0,5.2,0.3,7.6,0.8c2.4,0.5,4.6,1.3,6.5,2.2c1.9,1,3.4,2.1,4.6,3.3c1.1,1.2,1.7,2.5,1.7,3.9c0,1.4-0.5,2.6-1.5,3.6
				c-1,1-2.3,1.5-3.9,1.5c-1,0-1.8-0.2-2.3-0.5c-0.5-0.3-1.2-0.7-2-1.2l-0.5-0.3c-1.4-1-2.9-1.7-4.5-2.2c-1.6-0.5-3.3-0.7-5.2-0.7
				c-2.7,0-5,0.4-6.8,1.2c-1.8,0.8-3.3,1.9-4.5,3.4c-1.1,1.5-1.9,3.3-2.4,5.4c-0.5,2.1-0.7,4.5-0.7,7.1V616.6z"/>
			<path class="st0" d="M222.6,607.8c0-6.2-3.3-9.4-9.8-9.4c-1.4,0-2.6,0.1-3.5,0.4c-0.9,0.3-1.8,0.6-2.8,1l-2,0.9
				c-0.7,0.4-1.6,0.5-2.8,0.5c-1.6,0-2.7-0.5-3.4-1.5c-0.7-1-1-2.1-1-3.2c0-1.4,0.5-2.6,1.4-3.6c0.9-1,2.2-1.8,3.7-2.4
				c1.6-0.6,3.3-1.1,5.3-1.4c2-0.3,4-0.4,6.1-0.4c7.2,0,12.4,1.8,15.5,5.5c3.1,3.7,4.7,9.1,4.7,16.2V632c0,1.3,0.2,2.2,0.7,2.6
				c0.5,0.4,1.1,0.7,1.9,0.8c2.1,0.4,3.2,1.7,3.2,3.8c0,3-2.1,4.5-6.3,4.5c-3.7,0-6.5-1.6-8.5-4.8c-4,3.4-8.8,5.1-14.5,5.1
				c-5.8,0-10.2-1.5-13.1-4.5c-2.9-3-4.4-7-4.4-11.9v-0.3c0-10.7,6.6-16.1,19.9-16.1c3.3,0,6.5,0.4,9.6,1.3V607.8z M213.3,619.9
				c-1.8,0-3.4,0.2-4.5,0.6c-1.2,0.4-2.1,0.9-2.7,1.6c-0.6,0.7-1.1,1.5-1.3,2.4c-0.2,0.9-0.3,1.9-0.3,2.9v0.3c0,2.1,0.6,3.8,1.8,4.9
				c1.2,1.2,3.2,1.8,6.2,1.8c1.8,0,3.6-0.3,5.2-0.9c1.6-0.6,3.3-1.5,4.9-2.9v-9.6c-1.6-0.4-3.2-0.6-4.8-0.9
				C216.2,620,214.7,619.9,213.3,619.9z"/>
			<path class="st0" d="M285,598.9c-2.3,6.6-4.6,13.2-6.8,19.7c-2.2,6.5-4.4,13.1-6.7,19.8c-0.7,2.1-1.6,3.5-2.7,4.4
				c-1.1,0.9-2.5,1.3-4.3,1.3c-1.9,0-3.4-0.4-4.4-1.3c-1-0.9-1.9-2.3-2.6-4.3c-2.3-6.7-4.6-13.3-6.9-19.9
				c-2.3-6.6-4.6-13.2-6.9-19.9l-1.2-4.2c0-0.1,0-0.2-0.1-0.3c0-0.1-0.1-0.2-0.1-0.3c0-1.4,0.6-2.6,1.8-3.6c1.2-1,2.5-1.4,3.9-1.4
				c1.1,0,2.1,0.3,3.2,1c1.1,0.6,1.8,1.6,2.1,2.8c1,3.2,2,6.4,3,9.5c1,3.1,2,6.3,3,9.5c1,3.2,1.9,6.3,2.6,9.4
				c0.7,3.1,1.5,6.2,2.4,9.4c0.8-3.2,1.5-6.3,2.2-9.4c0.7-3.1,1.6-6.2,2.6-9.4c1-3.2,2-6.3,2.9-9.5c1-3.1,1.9-6.3,2.9-9.5
				c0.4-1.1,1-1.9,2.1-2.6c1-0.7,2.1-1,3.2-1c1.5,0,2.8,0.5,3.9,1.4c1.1,1,1.7,2.2,1.7,3.7v0.6L285,598.9z"/>
			<path class="st0" d="M313.9,622.3c-1.5,0-3-0.1-4.6-0.2c-1.6-0.1-3.2-0.3-4.9-0.6v4.9c0,2.4,0.8,4.3,2.4,5.7
				c1.6,1.4,4.2,2.1,7.6,2.1c2,0,3.8-0.2,5.3-0.7c1.6-0.5,3.2-1.1,5-1.9c0.1-0.1,0.4-0.3,0.8-0.4c0.4-0.1,0.9-0.2,1.5-0.2
				c1.8,0,3.2,0.5,4,1.6c0.8,1.1,1.2,2.1,1.2,3.2c0,1.6-0.7,3-2.1,4c-1.4,1-3.1,1.9-5,2.5c-2,0.6-4,1.1-6.2,1.3
				c-2.2,0.2-4,0.4-5.6,0.4c-3.3,0-6.2-0.5-8.7-1.4c-2.6-0.9-4.7-2.2-6.4-3.8c-1.7-1.6-3.1-3.6-4-5.8c-0.9-2.2-1.4-4.6-1.4-7.2
				v-18.8c0-2.6,0.5-5.1,1.4-7.3c0.9-2.2,2.3-4.2,4-5.8c1.8-1.6,4-2.9,6.6-3.9c2.6-1,5.6-1.4,9-1.4c6.5,0,11.3,1.6,14.5,4.8
				c3.2,3.2,4.8,7.5,4.8,12.8c0,5-1.5,9-4.6,11.8C325.7,620.9,320.7,622.3,313.9,622.3z M321.9,606c0-2.8-0.7-4.9-2.1-6.1
				c-1.4-1.2-3.4-1.8-6-1.8c-3,0-5.3,0.7-6.9,2.2c-1.6,1.5-2.4,3.5-2.4,6.1v6.3c1.8,0.2,3.7,0.4,5.5,0.5c1.8,0.1,3.1,0.2,3.9,0.2
				c3,0,5.2-0.7,6.3-2C321.3,610.1,321.9,608.3,321.9,606z"/>
			<path class="st0" d="M367.9,599.7c-1.1,0-2.2,0-3.1,0c-1,0-1.9,0.1-2.8,0.2c-0.9,0.1-1.8,0.4-2.8,0.7c-1,0.4-2,0.9-3.1,1.5
				c0.1,0.5,0.1,0.9,0.2,1.3c0,0.4,0.1,0.8,0.1,1.1v34.1c0,1.6-0.6,2.9-1.6,3.9c-1.1,1-2.5,1.5-4.1,1.5c-1.6,0-3-0.5-4.1-1.5
				c-1.1-1-1.7-2.3-1.7-3.9v-34.1c0-1.5-0.1-2.7-0.3-3.6c-0.2-0.9-0.6-1.8-1.2-2.6c-0.4-0.4-0.6-0.9-0.8-1.3c-0.2-0.4-0.3-1-0.3-1.6
				c0-1.5,0.5-2.7,1.6-3.6c1.1-0.9,2.4-1.4,3.9-1.4c1,0,1.9,0.3,2.7,0.9c0.8,0.6,1.5,1.3,2.2,2.2c2.4-1.4,4.9-2.5,7.4-3.4
				c2.5-0.8,4.7-1.2,6.5-1.2c2.7,0,4.6,0.5,5.6,1.5c1,1,1.5,2.2,1.5,3.7c0,1.7-0.6,3.1-1.7,4.1C370.9,599.4,369.5,599.9,367.9,599.7
				z"/>
			<path class="st0" d="M394.4,608.3l15.3-16.3c0.7-0.8,1.5-1.5,2.3-2.1c0.9-0.6,1.9-0.9,3.1-0.9c1.6,0,2.9,0.5,3.9,1.4
				c1.1,1,1.6,2.1,1.6,3.6c0,1.4-0.5,2.6-1.5,3.6l-14.4,14.9c2.8,4,5.7,7.9,8.5,11.8c2.8,3.9,5.6,7.8,8.4,11.8
				c0.4,0.4,0.6,0.9,0.7,1.5c0.1,0.6,0.2,1.2,0.2,1.7c-0.1,1.4-0.7,2.5-1.8,3.4c-1,0.8-2.3,1.2-3.8,1.2c-0.9,0-1.5-0.1-2.1-0.2
				c-0.5-0.1-1-0.4-1.4-0.7c-0.4-0.4-0.8-0.8-1.2-1.4c-0.4-0.6-0.9-1.3-1.4-2.1l-14.1-20.2c-0.4,0.4-0.8,0.8-1.2,1.2
				c-0.4,0.5-0.8,0.9-1.2,1.2v14.6c0,2-0.4,3.8-1.2,5.3c-0.8,1.6-2.3,2.3-4.5,2.3c-1.6,0-3-0.5-4.1-1.5c-1.1-1-1.7-2.3-1.7-3.8
				v-60.4c0-1.1,0.1-2.1,0.2-3c0.1-1,0.4-1.8,0.9-2.6c0.4-0.7,1-1.3,1.8-1.8c0.7-0.4,1.7-0.6,2.9-0.6c1.6,0,3,0.5,4.1,1.5
				c1.1,1,1.7,2.3,1.7,3.8V608.3z"/>
			<path class="st0" d="M450.1,622.3c-1.5,0-3-0.1-4.6-0.2c-1.6-0.1-3.2-0.3-4.9-0.6v4.9c0,2.4,0.8,4.3,2.4,5.7
				c1.6,1.4,4.2,2.1,7.6,2.1c2,0,3.8-0.2,5.3-0.7c1.6-0.5,3.2-1.1,5-1.9c0.1-0.1,0.4-0.3,0.8-0.4c0.4-0.1,0.9-0.2,1.5-0.2
				c1.8,0,3.2,0.5,4,1.6c0.8,1.1,1.2,2.1,1.2,3.2c0,1.6-0.7,3-2.1,4c-1.4,1-3.1,1.9-5,2.5c-2,0.6-4,1.1-6.2,1.3
				c-2.2,0.2-4,0.4-5.6,0.4c-3.3,0-6.2-0.5-8.7-1.4c-2.6-0.9-4.7-2.2-6.4-3.8c-1.7-1.6-3.1-3.6-4-5.8c-0.9-2.2-1.4-4.6-1.4-7.2
				v-18.8c0-2.6,0.5-5.1,1.4-7.3c0.9-2.2,2.3-4.2,4-5.8c1.8-1.6,4-2.9,6.6-3.9c2.6-1,5.6-1.4,9-1.4c6.5,0,11.3,1.6,14.5,4.8
				c3.2,3.2,4.8,7.5,4.8,12.8c0,5-1.5,9-4.6,11.8C461.8,620.9,456.9,622.3,450.1,622.3z M458,606c0-2.8-0.7-4.9-2.1-6.1
				c-1.4-1.2-3.4-1.8-6-1.8c-3,0-5.3,0.7-6.9,2.2c-1.6,1.5-2.4,3.5-2.4,6.1v6.3c1.8,0.2,3.7,0.4,5.5,0.5c1.8,0.1,3.1,0.2,3.9,0.2
				c3,0,5.2-0.7,6.3-2C457.5,610.1,458,608.3,458,606z"/>
			<g>
				<g>
					<path class="st1" d="M496.5,643.4c-0.4,1.1-1.2,2-2.3,2.5c-1.1,0.6-2.2,0.7-3.4,0.6c-0.7-0.1-1.3-0.4-1.9-0.7
						c-0.6-0.3-1-0.8-1.4-1.2c-0.4-0.5-0.6-1-0.8-1.6c-0.1-0.6-0.1-1.2,0.1-1.8l19.3-50.8c0.4-1.1,1.2-2,2.2-2.5
						c1-0.6,2.1-0.7,3.3-0.5c1.3,0.2,2.3,0.9,3.1,1.9c0.8,1,1.1,2.1,1,3.2c0,0.4-0.2,0.8-0.4,1.1L496.5,643.4z"/>
				</g>
			</g>
			<path class="st0" d="M535.7,597.7c0-4.1,0.5-7.9,1.5-11.3c1-3.4,2.6-6.3,4.7-8.7c2.1-2.4,4.7-4.2,7.9-5.5c3.2-1.3,7-2,11.4-2
				c2.6,0,5.2,0.3,7.6,0.8c2.4,0.5,4.6,1.3,6.5,2.2c1.9,1,3.4,2.1,4.6,3.3c1.1,1.2,1.7,2.5,1.7,3.9c0,1.4-0.5,2.6-1.5,3.6
				c-1,1-2.3,1.5-3.9,1.5c-1,0-1.8-0.2-2.3-0.5c-0.5-0.3-1.2-0.7-2-1.2l-0.5-0.3c-2.8-2-6.1-3-9.7-3c-2.7,0-5,0.4-6.8,1.2
				c-1.8,0.8-3.3,1.9-4.5,3.4c-1.1,1.5-1.9,3.3-2.4,5.4c-0.5,2.1-0.7,4.5-0.7,7.1v18.9c0,2.6,0.2,5,0.7,7.1c0.5,2.1,1.3,3.9,2.4,5.4
				c1.1,1.5,2.6,2.6,4.5,3.4c1.8,0.8,4.1,1.2,6.8,1.2c3.5,0,6.8-1,9.7-2.9l0.5-0.3c0.8-0.5,1.4-0.9,2-1.2s1.3-0.5,2.3-0.5
				c1.6,0,2.9,0.5,3.9,1.5c1,1,1.5,2.2,1.5,3.5c0,1.4-0.6,2.7-1.7,4c-1.1,1.2-2.7,2.3-4.6,3.2c-1.9,0.9-4.1,1.7-6.5,2.2
				c-2.4,0.5-5,0.8-7.6,0.8c-4.4,0-8.2-0.7-11.4-2c-3.2-1.3-5.8-3.2-7.9-5.5c-2.1-2.4-3.7-5.3-4.7-8.6c-1-3.4-1.5-7.1-1.5-11.3
				V597.7z"/>
			<path class="st0" d="M611.2,644.1c-3.5,0-6.7-0.5-9.3-1.5c-2.7-1-4.9-2.4-6.7-4.1c-1.8-1.7-3.2-3.8-4.1-6.2
				c-0.9-2.4-1.4-4.9-1.4-7.6v-16.8c0-2.8,0.5-5.3,1.4-7.7c0.9-2.3,2.3-4.4,4.1-6.1c1.8-1.7,4-3.1,6.7-4.1c2.7-1,5.8-1.5,9.3-1.5
				c3.5,0,6.6,0.5,9.3,1.5c2.7,1,4.9,2.4,6.8,4.1c1.8,1.7,3.2,3.8,4.1,6.1c0.9,2.3,1.4,4.9,1.4,7.7v16.8c0,2.7-0.5,5.2-1.4,7.6
				c-0.9,2.4-2.3,4.4-4.1,6.2c-1.8,1.7-4.1,3.1-6.8,4.1C617.8,643.6,614.7,644.1,611.2,644.1z M611.2,634c3.3,0,5.8-0.8,7.5-2.4
				c1.7-1.6,2.5-3.9,2.5-6.8v-16.9c0-2.8-0.8-5.1-2.5-6.7c-1.7-1.6-4.2-2.4-7.5-2.4c-3.3,0-5.8,0.8-7.5,2.4
				c-1.7,1.6-2.5,3.9-2.5,6.7v16.9c0,2.9,0.8,5.2,2.5,6.8C605.4,633.2,607.9,634,611.2,634z"/>
			<path class="st0" d="M653.2,644.1c-0.9,0-1.8-0.1-2.8-0.4c-1-0.2-1.9-0.8-2.7-1.6c-0.8-0.8-1.5-2-2.1-3.6
				c-0.6-1.6-0.9-3.6-0.9-6.2v-56.8c0-1.4,0.5-2.7,1.7-3.7c1.1-1.1,2.5-1.6,4.1-1.6c1.6,0,3,0.5,4.1,1.5c1.1,1,1.7,2.3,1.7,3.8v56.1
				c0,1.1,0.1,2,0.2,2.6c0.1,0.6,0.6,1.3,1.3,2.1c0.4,0.4,0.7,0.7,1,1.1c0.3,0.4,0.4,1,0.4,1.8c0,1.5-0.5,2.7-1.6,3.5
				C656.5,643.7,655.1,644.1,653.2,644.1z"/>
			<path class="st0" d="M679.6,644.1c-0.9,0-1.8-0.1-2.8-0.4c-1-0.2-1.9-0.8-2.7-1.6c-0.8-0.8-1.5-2-2.1-3.6
				c-0.6-1.6-0.9-3.6-0.9-6.2v-56.8c0-1.4,0.5-2.7,1.7-3.7c1.1-1.1,2.5-1.6,4.1-1.6c1.6,0,3,0.5,4.1,1.5c1.1,1,1.7,2.3,1.7,3.8v56.1
				c0,1.1,0.1,2,0.2,2.6c0.1,0.6,0.6,1.3,1.3,2.1c0.4,0.4,0.7,0.7,1,1.1c0.3,0.4,0.4,1,0.4,1.8c0,1.5-0.5,2.7-1.6,3.5
				C682.9,643.7,681.5,644.1,679.6,644.1z"/>
			<path class="st0" d="M716,622.3c-1.5,0-3-0.1-4.6-0.2c-1.6-0.1-3.2-0.3-4.9-0.6v4.9c0,2.4,0.8,4.3,2.4,5.7
				c1.6,1.4,4.2,2.1,7.6,2.1c2,0,3.8-0.2,5.3-0.7c1.6-0.5,3.2-1.1,5-1.9c0.1-0.1,0.4-0.3,0.8-0.4c0.4-0.1,0.9-0.2,1.5-0.2
				c1.8,0,3.2,0.5,4,1.6c0.8,1.1,1.2,2.1,1.2,3.2c0,1.6-0.7,3-2.1,4c-1.4,1-3.1,1.9-5,2.5c-2,0.6-4,1.1-6.2,1.3
				c-2.2,0.2-4,0.4-5.6,0.4c-3.3,0-6.2-0.5-8.7-1.4c-2.6-0.9-4.7-2.2-6.4-3.8c-1.7-1.6-3.1-3.6-4-5.8c-0.9-2.2-1.4-4.6-1.4-7.2
				v-18.8c0-2.6,0.5-5.1,1.4-7.3c0.9-2.2,2.3-4.2,4-5.8c1.8-1.6,4-2.9,6.6-3.9c2.6-1,5.6-1.4,9-1.4c6.5,0,11.3,1.6,14.5,4.8
				c3.2,3.2,4.8,7.5,4.8,12.8c0,5-1.5,9-4.6,11.8C727.8,620.9,722.9,622.3,716,622.3z M724,606c0-2.8-0.7-4.9-2.1-6.1
				c-1.4-1.2-3.4-1.8-6-1.8c-3,0-5.3,0.7-6.9,2.2c-1.6,1.5-2.4,3.5-2.4,6.1v6.3c1.8,0.2,3.7,0.4,5.5,0.5c1.8,0.1,3.1,0.2,3.9,0.2
				c3,0,5.2-0.7,6.3-2C723.4,610.1,724,608.3,724,606z"/>
			<path class="st0" d="M764.7,588.6c2.6,0,5.1,0.3,7.4,0.9c2.3,0.6,4.6,1.5,6.8,2.7c1.3-2.1,2.7-3.6,4.4-4.6c1.7-1,3.2-1.5,4.5-1.5
				c1.3,0,2.6,0.5,3.7,1.4c1.1,1,1.7,2.1,1.7,3.6c0,0.7-0.1,1.3-0.4,1.8c-0.3,0.5-0.6,0.9-0.9,1.2l-1.6,1.6
				c-0.7,0.7-1.3,1.3-1.8,1.9c-0.5,0.5-0.8,1-1.1,1.5c-0.3,0.5-0.5,1-0.6,1.6c-0.1,0.6-0.2,1.3-0.2,2.1v6.3c0,2.8-0.4,5.3-1.3,7.7
				c-0.9,2.3-2.2,4.4-3.9,6.1c-1.8,1.7-4,3.1-6.6,4c-2.6,1-5.7,1.5-9.3,1.5c-1.2,0-2.4-0.1-3.7-0.2c-1.2-0.1-2.4-0.4-3.5-0.7
				c-0.4,0.8-0.6,1.5-0.7,2c-0.1,0.6-0.2,1.1-0.2,1.7c0,1.6,0.5,2.7,1.5,3.2c1,0.5,2,0.8,2.9,0.8h4.5c3.3,0,6.3,0.3,9,1
				c2.8,0.6,5.2,1.6,7.2,2.9c2.1,1.3,3.7,3,4.8,4.9c1.2,2,1.8,4.4,1.8,7.1s-0.6,5.2-1.8,7.4c-1.2,2.2-2.8,4-4.9,5.6
				c-2.1,1.6-4.6,2.7-7.4,3.6c-2.8,0.8-6,1.2-9.4,1.2c-3.3,0-6.2-0.4-8.9-1.2c-2.7-0.8-5-1.9-7-3.3c-2-1.4-3.5-3.2-4.5-5.3
				c-1.1-2.1-1.6-4.5-1.6-7.1c0-2.3,0.5-4.5,1.5-6.4c1-2,2.6-3.8,4.7-5.7c-1-1.4-1.7-2.9-2.1-4.4c-0.4-1.5-0.6-2.9-0.6-4.1
				c0-1.2,0.2-2.5,0.7-3.9c0.5-1.4,1.4-2.8,2.8-4.3c-4.2-3.8-6.3-8.7-6.3-14.9c0-2.8,0.4-5.5,1.3-7.9c0.9-2.4,2.1-4.5,3.8-6.3
				c1.7-1.8,3.8-3.2,6.3-4.2C758.4,589.1,761.3,588.6,764.7,588.6z M764.4,645.1c-1.1,0-2.2,0-3.2-0.1c-1-0.1-2-0.1-3-0.2
				c-1.8,1.8-2.8,4-2.8,6.4c0,2.6,0.9,4.5,2.7,6c1.8,1.4,4.5,2.1,8.1,2.1c3.4,0,6.2-0.7,8.4-2c2.2-1.3,3.3-3.2,3.3-5.8
				c0-4.3-3.7-6.4-11.2-6.4H764.4z M775.2,606c0-0.9,0-1.7,0-2.6c0-0.9,0-1.8,0.1-2.6c-1.6-0.8-3.1-1.4-4.5-1.9
				c-1.5-0.5-3-0.7-4.6-0.7c-3.4,0-5.9,0.9-7.6,2.7c-1.7,1.8-2.5,4.4-2.5,7.8c0,3.1,0.8,5.6,2.3,7.5c1.5,1.8,4,2.8,7.5,2.8
				c3.2,0,5.6-0.8,7.1-2.5c1.5-1.7,2.3-4,2.3-7V606z"/>
			<path class="st0" d="M819.4,622.3c-1.5,0-3-0.1-4.6-0.2c-1.6-0.1-3.2-0.3-4.9-0.6v4.9c0,2.4,0.8,4.3,2.4,5.7
				c1.6,1.4,4.2,2.1,7.6,2.1c2,0,3.8-0.2,5.3-0.7c1.6-0.5,3.2-1.1,5-1.9c0.1-0.1,0.4-0.3,0.8-0.4c0.4-0.1,0.9-0.2,1.5-0.2
				c1.8,0,3.2,0.5,4,1.6c0.8,1.1,1.2,2.1,1.2,3.2c0,1.6-0.7,3-2.1,4c-1.4,1-3.1,1.9-5,2.5c-2,0.6-4,1.1-6.2,1.3
				c-2.2,0.2-4,0.4-5.6,0.4c-3.3,0-6.2-0.5-8.7-1.4c-2.6-0.9-4.7-2.2-6.4-3.8c-1.7-1.6-3.1-3.6-4-5.8c-0.9-2.2-1.4-4.6-1.4-7.2
				v-18.8c0-2.6,0.5-5.1,1.4-7.3c0.9-2.2,2.3-4.2,4-5.8c1.8-1.6,4-2.9,6.6-3.9c2.6-1,5.6-1.4,9-1.4c6.5,0,11.3,1.6,14.5,4.8
				c3.2,3.2,4.8,7.5,4.8,12.8c0,5-1.5,9-4.6,11.8C831.1,620.9,826.2,622.3,819.4,622.3z M827.4,606c0-2.8-0.7-4.9-2.1-6.1
				c-1.4-1.2-3.4-1.8-6-1.8c-3,0-5.3,0.7-6.9,2.2c-1.6,1.5-2.4,3.5-2.4,6.1v6.3c1.8,0.2,3.7,0.4,5.5,0.5c1.8,0.1,3.1,0.2,3.9,0.2
				c3,0,5.2-0.7,6.3-2C826.8,610.1,827.4,608.3,827.4,606z"/>
		</g>
	</g>
	<g>
		<text transform="matrix(1 0 0 1 133.5655 727.0889)"><tspan x="0" y="0" class="st1 st2 st3">vrije</tspan><tspan x="117.5" y="0" class="st1 st2 st4"> </tspan><tspan x="130.9" y="0" class="st1 st2 st3">basisschool</tspan><tspan x="442.4" y="0" class="st1 st2 st4"> </tspan><tspan x="455.9" y="0" class="st1 st2 st3">Waregem</tspan></text>
	</g>
</g>
<g>
	<circle class="st5" cx="276.5" cy="448" r="25.7"/>
	<circle class="st6" cx="432.6" cy="283.3" r="84.4"/>
	<circle class="st7" cx="506.5" cy="449.2" r="61"/>
	<circle class="st1" cx="370" cy="425.7" r="41.3"/>
	<path class="st8" d="M545.1,307.9c0,56.5,45.8,102.3,102.3,102.3s102.3-45.8,102.3-102.3s-45.8-102.3-102.3-102.3
		S545.1,251.4,545.1,307.9z M590,309.7c0-31.7,25.7-57.4,57.4-57.4s57.4,25.7,57.4,57.4c0,31.7-25.7,57.4-57.4,57.4
		S590,341.4,590,309.7z"/>
</g>
</svg>
