<?xml version="1.0" encoding="utf-8"?>
<!-- Generator: Adobe Illustrator 22.0.1, SVG Export Plug-In . SVG Version: 6.00 Build 0)  -->
<svg version="1.1" id="Laag_1" xmlns="http://www.w3.org/2000/svg" xmlns:xlink="http://www.w3.org/1999/xlink" x="0px" y="0px"
	 viewBox="0 0 765.6 518.6" style="enable-background:new 0 0 765.6 518.6;" xml:space="preserve">
<style type="text/css">
	.st0{fill:#4C4C4C;}
	.st1{fill:#714FB2;}
	.st2{fill:#FC9732;}
	.st3{fill:#D7E100;}
	.st4{fill:#DB169F;}
	.st5{fill:#3FA8EF;}
</style>
<g>
	<g>
		<g>
			<path class="st0" d="M41.3,450.6c0,2.6,0.2,5,0.7,7.1s1.3,3.9,2.4,5.4c1.1,1.5,2.6,2.6,4.5,3.4c1.8,0.8,4.1,1.2,6.8,1.2
				c2.2,0,4.1-0.3,5.8-0.8s3.2-1.3,4.6-2.3V445h-8c-1.4,0-2.7-0.5-3.7-1.6c-1.1-1.1-1.6-2.3-1.6-3.8s0.5-2.7,1.6-3.8
				c1.1-1,2.3-1.5,3.7-1.5h12.1c2,0,3.7,0.5,5.2,1.5s2.2,2.6,2.2,4.6v24.5c0,2.3-0.7,4.3-2.1,6c-1.4,1.7-3.2,3-5.4,4.1
				s-4.6,1.8-7.3,2.3S57.5,478,55,478c-4.4,0-8.2-0.7-11.4-2s-5.8-3.2-7.9-5.5c-2.1-2.4-3.7-5.3-4.7-8.6c-1-3.4-1.5-7.1-1.5-11.3
				v-18.9c0-4.1,0.5-7.9,1.5-11.3c1-3.4,2.6-6.3,4.7-8.7c2.1-2.4,4.7-4.2,7.9-5.5s7-2,11.4-2c2.6,0,5.2,0.3,7.6,0.8
				c2.4,0.5,4.6,1.3,6.5,2.2c1.9,1,3.4,2.1,4.6,3.3c1.1,1.2,1.7,2.5,1.7,3.9s-0.5,2.6-1.5,3.6s-2.3,1.5-3.9,1.5
				c-1,0-1.8-0.2-2.3-0.5s-1.2-0.7-2-1.2l-0.5-0.3c-1.4-1-2.9-1.7-4.5-2.2s-3.3-0.7-5.2-0.7c-2.7,0-5,0.4-6.8,1.2s-3.3,1.9-4.5,3.4
				c-1.1,1.5-1.9,3.3-2.4,5.4c-0.5,2.1-0.7,4.5-0.7,7.1v18.9H41.3z"/>
			<path class="st0" d="M116.6,441.8c0-6.2-3.3-9.4-9.8-9.4c-1.4,0-2.6,0.1-3.5,0.4c-0.9,0.3-1.8,0.6-2.8,1l-2,0.9
				c-0.7,0.4-1.6,0.5-2.8,0.5c-1.6,0-2.7-0.5-3.4-1.5s-1-2.1-1-3.2c0-1.4,0.5-2.6,1.4-3.6s2.2-1.8,3.7-2.4c1.6-0.6,3.3-1.1,5.3-1.4
				c2-0.3,4-0.4,6.1-0.4c7.2,0,12.4,1.8,15.5,5.5s4.7,9.1,4.7,16.2V466c0,1.3,0.2,2.2,0.7,2.6c0.5,0.4,1.1,0.7,1.9,0.8
				c2.1,0.4,3.2,1.7,3.2,3.8c0,3-2.1,4.5-6.3,4.5c-3.7,0-6.5-1.6-8.5-4.8c-4,3.4-8.8,5.1-14.5,5.1c-5.8,0-10.2-1.5-13.1-4.5
				c-2.9-3-4.4-7-4.4-11.9v-0.3c0-10.7,6.6-16.1,19.9-16.1c3.3,0,6.5,0.4,9.6,1.3v-4.7H116.6z M107.3,453.9c-1.8,0-3.4,0.2-4.5,0.6
				c-1.2,0.4-2.1,0.9-2.7,1.6c-0.6,0.7-1.1,1.5-1.3,2.4s-0.3,1.9-0.3,2.9v0.3c0,2.1,0.6,3.8,1.8,4.9c1.2,1.2,3.2,1.8,6.2,1.8
				c1.8,0,3.6-0.3,5.2-0.9c1.6-0.6,3.3-1.5,4.9-2.9V455c-1.6-0.4-3.2-0.6-4.8-0.9C110.2,454,108.7,453.9,107.3,453.9z"/>
			<path class="st0" d="M179,432.9c-2.3,6.6-4.6,13.2-6.8,19.7c-2.2,6.5-4.4,13.1-6.7,19.8c-0.7,2.1-1.6,3.5-2.7,4.4
				s-2.5,1.3-4.3,1.3c-1.9,0-3.4-0.4-4.4-1.3c-1-0.9-1.9-2.3-2.6-4.3c-2.3-6.7-4.6-13.3-6.9-19.9c-2.3-6.6-4.6-13.2-6.9-19.9
				l-1.2-4.2c0-0.1,0-0.2-0.1-0.3c0-0.1-0.1-0.2-0.1-0.3c0-1.4,0.6-2.6,1.8-3.6s2.5-1.4,3.9-1.4c1.1,0,2.1,0.3,3.2,1
				c1.1,0.6,1.8,1.6,2.1,2.8c1,3.2,2,6.4,3,9.5c1,3.1,2,6.3,3,9.5s1.9,6.3,2.6,9.4c0.7,3.1,1.5,6.2,2.4,9.4c0.8-3.2,1.5-6.3,2.2-9.4
				c0.7-3.1,1.6-6.2,2.6-9.4s2-6.3,2.9-9.5c1-3.1,1.9-6.3,2.9-9.5c0.4-1.1,1-1.9,2.1-2.6c1-0.7,2.1-1,3.2-1c1.5,0,2.8,0.5,3.9,1.4
				c1.1,1,1.7,2.2,1.7,3.7v0.6L179,432.9z"/>
			<path class="st0" d="M207.9,456.3c-1.5,0-3-0.1-4.6-0.2c-1.6-0.1-3.2-0.3-4.9-0.6v4.9c0,2.4,0.8,4.3,2.4,5.7s4.2,2.1,7.6,2.1
				c2,0,3.8-0.2,5.3-0.7c1.6-0.5,3.2-1.1,5-1.9c0.1-0.1,0.4-0.3,0.8-0.4c0.4-0.1,0.9-0.2,1.5-0.2c1.8,0,3.2,0.5,4,1.6
				s1.2,2.1,1.2,3.2c0,1.6-0.7,3-2.1,4s-3.1,1.9-5,2.5c-2,0.6-4,1.1-6.2,1.3s-4,0.4-5.6,0.4c-3.3,0-6.2-0.5-8.7-1.4
				c-2.6-0.9-4.7-2.2-6.4-3.8c-1.7-1.6-3.1-3.6-4-5.8s-1.4-4.6-1.4-7.2V441c0-2.6,0.5-5.1,1.4-7.3s2.3-4.2,4-5.8
				c1.8-1.6,4-2.9,6.6-3.9s5.6-1.4,9-1.4c6.5,0,11.3,1.6,14.5,4.8s4.8,7.5,4.8,12.8c0,5-1.5,9-4.6,11.8
				C219.7,454.9,214.7,456.3,207.9,456.3z M215.9,440c0-2.8-0.7-4.9-2.1-6.1c-1.4-1.2-3.4-1.8-6-1.8c-3,0-5.3,0.7-6.9,2.2
				s-2.4,3.5-2.4,6.1v6.3c1.8,0.2,3.7,0.4,5.5,0.5s3.1,0.2,3.9,0.2c3,0,5.2-0.7,6.3-2C215.3,444.1,215.9,442.3,215.9,440z"/>
			<path class="st0" d="M261.9,433.7c-1.1,0-2.2,0-3.1,0c-1,0-1.9,0.1-2.8,0.2c-0.9,0.1-1.8,0.4-2.8,0.7c-1,0.4-2,0.9-3.1,1.5
				c0.1,0.5,0.1,0.9,0.2,1.3c0,0.4,0.1,0.8,0.1,1.1v34.1c0,1.6-0.6,2.9-1.6,3.9c-1.1,1-2.5,1.5-4.1,1.5s-3-0.5-4.1-1.5
				s-1.7-2.3-1.7-3.9v-34.1c0-1.5-0.1-2.7-0.3-3.6c-0.2-0.9-0.6-1.8-1.2-2.6c-0.4-0.4-0.6-0.9-0.8-1.3c-0.2-0.4-0.3-1-0.3-1.6
				c0-1.5,0.5-2.7,1.6-3.6c1.1-0.9,2.4-1.4,3.9-1.4c1,0,1.9,0.3,2.7,0.9c0.8,0.6,1.5,1.3,2.2,2.2c2.4-1.4,4.9-2.5,7.4-3.4
				c2.5-0.8,4.7-1.2,6.5-1.2c2.7,0,4.6,0.5,5.6,1.5s1.5,2.2,1.5,3.7c0,1.7-0.6,3.1-1.7,4.1C264.9,433.4,263.5,433.9,261.9,433.7z"/>
			<path class="st0" d="M288.4,442.3l15.3-16.3c0.7-0.8,1.5-1.5,2.3-2.1c0.9-0.6,1.9-0.9,3.1-0.9c1.6,0,2.9,0.5,3.9,1.4
				c1.1,1,1.6,2.1,1.6,3.6c0,1.4-0.5,2.6-1.5,3.6l-14.4,14.9c2.8,4,5.7,7.9,8.5,11.8c2.8,3.9,5.6,7.8,8.4,11.8
				c0.4,0.4,0.6,0.9,0.7,1.5s0.2,1.2,0.2,1.7c-0.1,1.4-0.7,2.5-1.8,3.4c-1,0.8-2.3,1.2-3.8,1.2c-0.9,0-1.5-0.1-2.1-0.2
				c-0.5-0.1-1-0.4-1.4-0.7c-0.4-0.4-0.8-0.8-1.2-1.4c-0.4-0.6-0.9-1.3-1.4-2.1l-14.1-20.2c-0.4,0.4-0.8,0.8-1.2,1.2
				c-0.4,0.5-0.8,0.9-1.2,1.2v14.6c0,2-0.4,3.8-1.2,5.3c-0.8,1.6-2.3,2.3-4.5,2.3c-1.6,0-3-0.5-4.1-1.5s-1.7-2.3-1.7-3.8v-60.4
				c0-1.1,0.1-2.1,0.2-3c0.1-1,0.4-1.8,0.9-2.6c0.4-0.7,1-1.3,1.8-1.8c0.7-0.4,1.7-0.6,2.9-0.6c1.6,0,3,0.5,4.1,1.5s1.7,2.3,1.7,3.8
				L288.4,442.3L288.4,442.3z"/>
			<path class="st0" d="M344.1,456.3c-1.5,0-3-0.1-4.6-0.2c-1.6-0.1-3.2-0.3-4.9-0.6v4.9c0,2.4,0.8,4.3,2.4,5.7s4.2,2.1,7.6,2.1
				c2,0,3.8-0.2,5.3-0.7c1.6-0.5,3.2-1.1,5-1.9c0.1-0.1,0.4-0.3,0.8-0.4c0.4-0.1,0.9-0.2,1.5-0.2c1.8,0,3.2,0.5,4,1.6
				s1.2,2.1,1.2,3.2c0,1.6-0.7,3-2.1,4s-3.1,1.9-5,2.5c-2,0.6-4,1.1-6.2,1.3s-4,0.4-5.6,0.4c-3.3,0-6.2-0.5-8.7-1.4
				c-2.6-0.9-4.7-2.2-6.4-3.8c-1.7-1.6-3.1-3.6-4-5.8s-1.4-4.6-1.4-7.2V441c0-2.6,0.5-5.1,1.4-7.3s2.3-4.2,4-5.8
				c1.8-1.6,4-2.9,6.6-3.9s5.6-1.4,9-1.4c6.5,0,11.3,1.6,14.5,4.8s4.8,7.5,4.8,12.8c0,5-1.5,9-4.6,11.8
				C355.8,454.9,350.9,456.3,344.1,456.3z M352,440c0-2.8-0.7-4.9-2.1-6.1c-1.4-1.2-3.4-1.8-6-1.8c-3,0-5.3,0.7-6.9,2.2
				s-2.4,3.5-2.4,6.1v6.3c1.8,0.2,3.7,0.4,5.5,0.5s3.1,0.2,3.9,0.2c3,0,5.2-0.7,6.3-2C351.5,444.1,352,442.3,352,440z"/>
			<g>
				<g>
					<path class="st1" d="M390.5,477.4c-0.4,1.1-1.2,2-2.3,2.5c-1.1,0.6-2.2,0.7-3.4,0.6c-0.7-0.1-1.3-0.4-1.9-0.7s-1-0.8-1.4-1.2
						c-0.4-0.5-0.6-1-0.8-1.6c-0.1-0.6-0.1-1.2,0.1-1.8l19.3-50.8c0.4-1.1,1.2-2,2.2-2.5c1-0.6,2.1-0.7,3.3-0.5
						c1.3,0.2,2.3,0.9,3.1,1.9s1.1,2.1,1,3.2c0,0.4-0.2,0.8-0.4,1.1L390.5,477.4z"/>
				</g>
			</g>
			<path class="st0" d="M429.7,431.7c0-4.1,0.5-7.9,1.5-11.3c1-3.4,2.6-6.3,4.7-8.7c2.1-2.4,4.7-4.2,7.9-5.5s7-2,11.4-2
				c2.6,0,5.2,0.3,7.6,0.8c2.4,0.5,4.6,1.3,6.5,2.2c1.9,1,3.4,2.1,4.6,3.3c1.1,1.2,1.7,2.5,1.7,3.9s-0.5,2.6-1.5,3.6
				s-2.3,1.5-3.9,1.5c-1,0-1.8-0.2-2.3-0.5s-1.2-0.7-2-1.2l-0.5-0.3c-2.8-2-6.1-3-9.7-3c-2.7,0-5,0.4-6.8,1.2s-3.3,1.9-4.5,3.4
				c-1.1,1.5-1.9,3.3-2.4,5.4c-0.5,2.1-0.7,4.5-0.7,7.1v18.9c0,2.6,0.2,5,0.7,7.1s1.3,3.9,2.4,5.4c1.1,1.5,2.6,2.6,4.5,3.4
				c1.8,0.8,4.1,1.2,6.8,1.2c3.5,0,6.8-1,9.7-2.9l0.5-0.3c0.8-0.5,1.4-0.9,2-1.2s1.3-0.5,2.3-0.5c1.6,0,2.9,0.5,3.9,1.5
				s1.5,2.2,1.5,3.5c0,1.4-0.6,2.7-1.7,4c-1.1,1.2-2.7,2.3-4.6,3.2c-1.9,0.9-4.1,1.7-6.5,2.2s-5,0.8-7.6,0.8c-4.4,0-8.2-0.7-11.4-2
				s-5.8-3.2-7.9-5.5c-2.1-2.4-3.7-5.3-4.7-8.6c-1-3.4-1.5-7.1-1.5-11.3V431.7z"/>
			<path class="st0" d="M505.2,478.1c-3.5,0-6.7-0.5-9.3-1.5c-2.7-1-4.9-2.4-6.7-4.1c-1.8-1.7-3.2-3.8-4.1-6.2
				c-0.9-2.4-1.4-4.9-1.4-7.6v-16.8c0-2.8,0.5-5.3,1.4-7.7c0.9-2.3,2.3-4.4,4.1-6.1c1.8-1.7,4-3.1,6.7-4.1s5.8-1.5,9.3-1.5
				s6.6,0.5,9.3,1.5s4.9,2.4,6.8,4.1c1.8,1.7,3.2,3.8,4.1,6.1c0.9,2.3,1.4,4.9,1.4,7.7v16.8c0,2.7-0.5,5.2-1.4,7.6
				c-0.9,2.4-2.3,4.4-4.1,6.2c-1.8,1.7-4.1,3.1-6.8,4.1S508.7,478.1,505.2,478.1z M505.2,468c3.3,0,5.8-0.8,7.5-2.4
				c1.7-1.6,2.5-3.9,2.5-6.8v-16.9c0-2.8-0.8-5.1-2.5-6.7c-1.7-1.6-4.2-2.4-7.5-2.4s-5.8,0.8-7.5,2.4c-1.7,1.6-2.5,3.9-2.5,6.7v16.9
				c0,2.9,0.8,5.2,2.5,6.8C499.4,467.2,501.9,468,505.2,468z"/>
			<path class="st0" d="M547.2,478.1c-0.9,0-1.8-0.1-2.8-0.4c-1-0.2-1.9-0.8-2.7-1.6s-1.5-2-2.1-3.6s-0.9-3.6-0.9-6.2v-56.8
				c0-1.4,0.5-2.7,1.7-3.7c1.1-1.1,2.5-1.6,4.1-1.6s3,0.5,4.1,1.5s1.7,2.3,1.7,3.8v56.1c0,1.1,0.1,2,0.2,2.6
				c0.1,0.6,0.6,1.3,1.3,2.1c0.4,0.4,0.7,0.7,1,1.1c0.3,0.4,0.4,1,0.4,1.8c0,1.5-0.5,2.7-1.6,3.5
				C550.5,477.7,549.1,478.1,547.2,478.1z"/>
			<path class="st0" d="M573.6,478.1c-0.9,0-1.8-0.1-2.8-0.4c-1-0.2-1.9-0.8-2.7-1.6s-1.5-2-2.1-3.6s-0.9-3.6-0.9-6.2v-56.8
				c0-1.4,0.5-2.7,1.7-3.7c1.1-1.1,2.5-1.6,4.1-1.6s3,0.5,4.1,1.5s1.7,2.3,1.7,3.8v56.1c0,1.1,0.1,2,0.2,2.6
				c0.1,0.6,0.6,1.3,1.3,2.1c0.4,0.4,0.7,0.7,1,1.1c0.3,0.4,0.4,1,0.4,1.8c0,1.5-0.5,2.7-1.6,3.5
				C576.9,477.7,575.5,478.1,573.6,478.1z"/>
			<path class="st0" d="M610,456.3c-1.5,0-3-0.1-4.6-0.2c-1.6-0.1-3.2-0.3-4.9-0.6v4.9c0,2.4,0.8,4.3,2.4,5.7
				c1.6,1.4,4.2,2.1,7.6,2.1c2,0,3.8-0.2,5.3-0.7c1.6-0.5,3.2-1.1,5-1.9c0.1-0.1,0.4-0.3,0.8-0.4c0.4-0.1,0.9-0.2,1.5-0.2
				c1.8,0,3.2,0.5,4,1.6s1.2,2.1,1.2,3.2c0,1.6-0.7,3-2.1,4c-1.4,1-3.1,1.9-5,2.5c-2,0.6-4,1.1-6.2,1.3s-4,0.4-5.6,0.4
				c-3.3,0-6.2-0.5-8.7-1.4c-2.6-0.9-4.7-2.2-6.4-3.8s-3.1-3.6-4-5.8s-1.4-4.6-1.4-7.2V441c0-2.6,0.5-5.1,1.4-7.3s2.3-4.2,4-5.8
				c1.8-1.6,4-2.9,6.6-3.9s5.6-1.4,9-1.4c6.5,0,11.3,1.6,14.5,4.8s4.8,7.5,4.8,12.8c0,5-1.5,9-4.6,11.8
				C621.8,454.9,616.9,456.3,610,456.3z M618,440c0-2.8-0.7-4.9-2.1-6.1c-1.4-1.2-3.4-1.8-6-1.8c-3,0-5.3,0.7-6.9,2.2
				c-1.6,1.5-2.4,3.5-2.4,6.1v6.3c1.8,0.2,3.7,0.4,5.5,0.5s3.1,0.2,3.9,0.2c3,0,5.2-0.7,6.3-2C617.4,444.1,618,442.3,618,440z"/>
			<path class="st0" d="M658.7,422.6c2.6,0,5.1,0.3,7.4,0.9c2.3,0.6,4.6,1.5,6.8,2.7c1.3-2.1,2.7-3.6,4.4-4.6s3.2-1.5,4.5-1.5
				s2.6,0.5,3.7,1.4c1.1,1,1.7,2.1,1.7,3.6c0,0.7-0.1,1.3-0.4,1.8c-0.3,0.5-0.6,0.9-0.9,1.2l-1.6,1.6c-0.7,0.7-1.3,1.3-1.8,1.9
				c-0.5,0.5-0.8,1-1.1,1.5s-0.5,1-0.6,1.6s-0.2,1.3-0.2,2.1v6.3c0,2.8-0.4,5.3-1.3,7.7c-0.9,2.3-2.2,4.4-3.9,6.1
				c-1.8,1.7-4,3.1-6.6,4c-2.6,1-5.7,1.5-9.3,1.5c-1.2,0-2.4-0.1-3.7-0.2c-1.2-0.1-2.4-0.4-3.5-0.7c-0.4,0.8-0.6,1.5-0.7,2
				c-0.1,0.6-0.2,1.1-0.2,1.7c0,1.6,0.5,2.7,1.5,3.2s2,0.8,2.9,0.8h4.5c3.3,0,6.3,0.3,9,1c2.8,0.6,5.2,1.6,7.2,2.9
				c2.1,1.3,3.7,3,4.8,4.9c1.2,2,1.8,4.4,1.8,7.1s-0.6,5.2-1.8,7.4s-2.8,4-4.9,5.6c-2.1,1.6-4.6,2.7-7.4,3.6c-2.8,0.8-6,1.2-9.4,1.2
				c-3.3,0-6.2-0.4-8.9-1.2s-5-1.9-7-3.3c-2-1.4-3.5-3.2-4.5-5.3c-1.1-2.1-1.6-4.5-1.6-7.1c0-2.3,0.5-4.5,1.5-6.4
				c1-2,2.6-3.8,4.7-5.7c-1-1.4-1.7-2.9-2.1-4.4c-0.4-1.5-0.6-2.9-0.6-4.1c0-1.2,0.2-2.5,0.7-3.9s1.4-2.8,2.8-4.3
				c-4.2-3.8-6.3-8.7-6.3-14.9c0-2.8,0.4-5.5,1.3-7.9c0.9-2.4,2.1-4.5,3.8-6.3s3.8-3.2,6.3-4.2C652.4,423.1,655.3,422.6,658.7,422.6
				z M658.4,479.1c-1.1,0-2.2,0-3.2-0.1s-2-0.1-3-0.2c-1.8,1.8-2.8,4-2.8,6.4c0,2.6,0.9,4.5,2.7,6c1.8,1.4,4.5,2.1,8.1,2.1
				c3.4,0,6.2-0.7,8.4-2s3.3-3.2,3.3-5.8c0-4.3-3.7-6.4-11.2-6.4H658.4z M669.2,440c0-0.9,0-1.7,0-2.6c0-0.9,0-1.8,0.1-2.6
				c-1.6-0.8-3.1-1.4-4.5-1.9c-1.5-0.5-3-0.7-4.6-0.7c-3.4,0-5.9,0.9-7.6,2.7c-1.7,1.8-2.5,4.4-2.5,7.8c0,3.1,0.8,5.6,2.3,7.5
				c1.5,1.8,4,2.8,7.5,2.8c3.2,0,5.6-0.8,7.1-2.5s2.3-4,2.3-7L669.2,440L669.2,440z"/>
			<path class="st0" d="M713.4,456.3c-1.5,0-3-0.1-4.6-0.2c-1.6-0.1-3.2-0.3-4.9-0.6v4.9c0,2.4,0.8,4.3,2.4,5.7
				c1.6,1.4,4.2,2.1,7.6,2.1c2,0,3.8-0.2,5.3-0.7c1.6-0.5,3.2-1.1,5-1.9c0.1-0.1,0.4-0.3,0.8-0.4c0.4-0.1,0.9-0.2,1.5-0.2
				c1.8,0,3.2,0.5,4,1.6s1.2,2.1,1.2,3.2c0,1.6-0.7,3-2.1,4c-1.4,1-3.1,1.9-5,2.5c-2,0.6-4,1.1-6.2,1.3s-4,0.4-5.6,0.4
				c-3.3,0-6.2-0.5-8.7-1.4c-2.6-0.9-4.7-2.2-6.4-3.8s-3.1-3.6-4-5.8s-1.4-4.6-1.4-7.2V441c0-2.6,0.5-5.1,1.4-7.3s2.3-4.2,4-5.8
				c1.8-1.6,4-2.9,6.6-3.9s5.6-1.4,9-1.4c6.5,0,11.3,1.6,14.5,4.8s4.8,7.5,4.8,12.8c0,5-1.5,9-4.6,11.8
				C725.1,454.9,720.2,456.3,713.4,456.3z M721.4,440c0-2.8-0.7-4.9-2.1-6.1c-1.4-1.2-3.4-1.8-6-1.8c-3,0-5.3,0.7-6.9,2.2
				c-1.6,1.5-2.4,3.5-2.4,6.1v6.3c1.8,0.2,3.7,0.4,5.5,0.5s3.1,0.2,3.9,0.2c3,0,5.2-0.7,6.3-2C720.8,444.1,721.4,442.3,721.4,440z"
				/>
		</g>
	</g>
</g>
<g>
	<circle class="st2" cx="170.5" cy="282" r="25.7"/>
	<circle class="st3" cx="326.6" cy="117.3" r="84.4"/>
	<circle class="st4" cx="400.5" cy="283.2" r="61"/>
	<circle class="st1" cx="264" cy="259.7" r="41.3"/>
	<path class="st5" d="M439.1,141.9c0,56.5,45.8,102.3,102.3,102.3s102.3-45.8,102.3-102.3S597.9,39.6,541.4,39.6
		S439.1,85.4,439.1,141.9z M484,143.7c0-31.7,25.7-57.4,57.4-57.4s57.4,25.7,57.4,57.4s-25.7,57.4-57.4,57.4S484,175.4,484,143.7z"
		/>
</g>
</svg>
