<?xml version="1.0" encoding="utf-8"?>
<!-- Generator: Adobe Illustrator 22.0.1, SVG Export Plug-In . SVG Version: 6.00 Build 0)  -->
<svg version="1.1" id="Laag_1" xmlns="http://www.w3.org/2000/svg" xmlns:xlink="http://www.w3.org/1999/xlink" x="0px" y="0px"
	 viewBox="0 0 841.9 595.3" style="enable-background:new 0 0 841.9 595.3;" xml:space="preserve">
<style type="text/css">
	.st0{fill:#4C4C4C;}
	.st1{fill:#714FB2;}
	.st2{fill:#FC9732;}
	.st3{fill:#D7E100;}
	.st4{fill:#DB169F;}
	.st5{fill:#3FA8EF;}
</style>
<g>
	<g>
		<g>
			<path class="st0" d="M114.4,429c0,2.4,0.2,4.6,0.6,6.5c0.4,1.9,1.1,3.6,2.2,5c1,1.4,2.4,2.4,4.1,3.1c1.7,0.7,3.8,1.1,6.2,1.1
				c2,0,3.8-0.2,5.3-0.7c1.5-0.5,2.9-1.2,4.2-2.1v-18h-7.3c-1.3,0-2.4-0.5-3.4-1.5c-1-1-1.5-2.1-1.5-3.5c0-1.4,0.5-2.5,1.5-3.4
				c1-0.9,2.1-1.4,3.4-1.4h11.1c1.8,0,3.4,0.5,4.8,1.4c1.4,0.9,2,2.3,2,4.2V442c0,2.1-0.6,4-1.9,5.5c-1.3,1.5-2.9,2.8-4.9,3.7
				c-2,1-4.2,1.7-6.7,2.1c-2.4,0.5-4.8,0.7-7.1,0.7c-4,0-7.5-0.6-10.4-1.8c-2.9-1.2-5.3-2.9-7.2-5.1c-1.9-2.2-3.3-4.8-4.3-7.9
				c-0.9-3.1-1.4-6.5-1.4-10.3v-17.3c0-3.8,0.5-7.2,1.4-10.3c0.9-3.1,2.4-5.7,4.3-7.9c1.9-2.2,4.3-3.9,7.2-5.1s6.4-1.8,10.4-1.8
				c2.4,0,4.7,0.2,6.9,0.7c2.2,0.5,4.2,1.2,6,2c1.7,0.9,3.1,1.9,4.2,3c1,1.1,1.6,2.3,1.6,3.5c0,1.3-0.5,2.4-1.4,3.3
				c-0.9,0.9-2.1,1.4-3.5,1.4c-0.9,0-1.6-0.1-2.1-0.4c-0.5-0.3-1.1-0.7-1.8-1.1l-0.5-0.3c-1.3-0.9-2.7-1.6-4.1-2
				c-1.5-0.5-3-0.7-4.7-0.7c-2.5,0-4.5,0.4-6.2,1.1c-1.7,0.7-3,1.7-4.1,3.1c-1,1.4-1.8,3-2.2,5c-0.4,1.9-0.6,4.1-0.6,6.5V429z"/>
			<path class="st0" d="M183.1,420.9c0-5.7-3-8.6-8.9-8.6c-1.3,0-2.4,0.1-3.2,0.4c-0.8,0.3-1.7,0.6-2.5,0.9l-1.8,0.8
				c-0.6,0.3-1.5,0.5-2.5,0.5c-1.4,0-2.4-0.5-3.1-1.4c-0.6-0.9-0.9-1.9-0.9-2.9c0-1.3,0.4-2.4,1.3-3.3c0.8-0.9,2-1.7,3.4-2.2
				c1.4-0.6,3-1,4.9-1.3c1.8-0.3,3.7-0.4,5.5-0.4c6.6,0,11.3,1.7,14.2,5.1c2.9,3.4,4.3,8.3,4.3,14.8V443c0,1.2,0.2,2,0.7,2.4
				c0.5,0.4,1,0.6,1.7,0.7c1.9,0.4,2.9,1.6,2.9,3.5c0,2.7-1.9,4.1-5.7,4.1c-3.4,0-6-1.5-7.8-4.4c-3.6,3.1-8,4.7-13.2,4.7
				c-5.3,0-9.3-1.4-12-4.1c-2.7-2.7-4-6.3-4-10.9v-0.3c0-9.8,6.1-14.7,18.2-14.7c3,0,5.9,0.4,8.7,1.2V420.9z M174.7,432
				c-1.7,0-3.1,0.2-4.1,0.5c-1.1,0.4-1.9,0.8-2.5,1.5c-0.6,0.6-1,1.3-1.2,2.2c-0.2,0.8-0.3,1.7-0.3,2.6v0.3c0,1.9,0.5,3.4,1.6,4.5
				c1.1,1.1,3,1.6,5.7,1.6c1.7,0,3.3-0.3,4.8-0.8c1.5-0.5,3-1.4,4.5-2.6v-8.7c-1.4-0.3-2.9-0.6-4.4-0.8
				C177.3,432.1,175.9,432,174.7,432z"/>
			<path class="st0" d="M240.1,412.7c-2.1,6-4.2,12-6.2,18c-2,6-4,12-6.1,18.1c-0.6,1.9-1.5,3.2-2.4,4c-1,0.8-2.3,1.2-3.9,1.2
				c-1.7,0-3.1-0.4-4-1.2c-0.9-0.8-1.7-2.1-2.4-3.9c-2.1-6.1-4.2-12.1-6.3-18.2c-2.1-6-4.2-12.1-6.3-18.2l-1.1-3.8
				c0-0.1,0-0.2,0-0.3c0-0.1,0-0.2,0-0.3c0-1.3,0.5-2.4,1.7-3.3c1.1-0.9,2.3-1.3,3.6-1.3c1,0,1.9,0.3,2.9,0.9c1,0.6,1.6,1.4,1.9,2.5
				c0.9,2.9,1.8,5.8,2.7,8.6c0.9,2.9,1.8,5.7,2.7,8.6c0.9,2.9,1.7,5.8,2.4,8.6c0.7,2.8,1.4,5.7,2.2,8.6c0.7-2.9,1.4-5.8,2-8.6
				c0.6-2.8,1.4-5.7,2.3-8.6c0.9-2.9,1.8-5.8,2.7-8.6c0.9-2.8,1.8-5.7,2.7-8.6c0.3-1,1-1.8,1.9-2.4c0.9-0.6,1.9-0.9,3-0.9
				c1.4,0,2.5,0.4,3.5,1.3c1,0.9,1.5,2,1.5,3.4v0.6L240.1,412.7z"/>
			<path class="st0" d="M266.5,434.1c-1.4,0-2.8,0-4.2-0.1c-1.4-0.1-2.9-0.3-4.5-0.5v4.5c0,2.2,0.7,4,2.2,5.2
				c1.5,1.3,3.8,1.9,6.9,1.9c1.8,0,3.4-0.2,4.9-0.7c1.4-0.5,2.9-1,4.6-1.7c0.1-0.1,0.4-0.2,0.7-0.3c0.4-0.1,0.8-0.1,1.4-0.1
				c1.7,0,2.9,0.5,3.6,1.5c0.7,1,1.1,1.9,1.1,2.9c0,1.5-0.6,2.7-1.9,3.6c-1.3,0.9-2.8,1.7-4.6,2.3c-1.8,0.6-3.7,1-5.6,1.2
				c-2,0.2-3.7,0.3-5.1,0.3c-3,0-5.6-0.4-8-1.3c-2.3-0.8-4.3-2-5.9-3.5c-1.6-1.5-2.8-3.3-3.6-5.3c-0.8-2-1.3-4.2-1.3-6.6v-17.2
				c0-2.4,0.4-4.6,1.3-6.7c0.8-2,2.1-3.8,3.7-5.3c1.6-1.5,3.6-2.7,6-3.5c2.4-0.9,5.2-1.3,8.3-1.3c5.9,0,10.3,1.5,13.2,4.4
				c2.9,2.9,4.4,6.9,4.4,11.7c0,4.6-1.4,8.2-4.2,10.7C277.2,432.8,272.7,434.1,266.5,434.1z M273.8,419.3c0-2.6-0.6-4.4-1.9-5.5
				c-1.3-1.1-3.1-1.7-5.5-1.7c-2.7,0-4.8,0.7-6.3,2c-1.5,1.4-2.2,3.2-2.2,5.5v5.7c1.7,0.2,3.4,0.3,5,0.4c1.7,0.1,2.8,0.1,3.5,0.1
				c2.8,0,4.7-0.6,5.8-1.8C273.3,423,273.8,421.3,273.8,419.3z"/>
			<path class="st0" d="M315.8,413.5c-1,0-2,0-2.9,0c-0.9,0-1.7,0.1-2.5,0.2c-0.8,0.1-1.7,0.4-2.5,0.7c-0.9,0.3-1.8,0.8-2.9,1.4
				c0.1,0.5,0.1,0.9,0.1,1.2c0,0.4,0,0.7,0,1v31.1c0,1.4-0.5,2.6-1.5,3.5c-1,0.9-2.3,1.4-3.7,1.4c-1.5,0-2.7-0.5-3.7-1.4
				c-1-0.9-1.5-2.1-1.5-3.5V418c0-1.4-0.1-2.5-0.3-3.3c-0.2-0.8-0.6-1.6-1.1-2.3c-0.3-0.4-0.6-0.8-0.7-1.2c-0.2-0.4-0.2-0.9-0.2-1.5
				c0-1.4,0.5-2.5,1.5-3.3c1-0.8,2.2-1.3,3.5-1.3c0.9,0,1.7,0.3,2.5,0.8c0.7,0.5,1.4,1.2,2,2c2.2-1.3,4.5-2.3,6.8-3.1
				c2.3-0.7,4.3-1.1,6-1.1c2.5,0,4.2,0.5,5.1,1.4c0.9,0.9,1.4,2,1.4,3.4c0,1.6-0.5,2.8-1.6,3.7C318.5,413.2,317.3,413.7,315.8,413.5
				z"/>
			<path class="st0" d="M340,421.4l14-14.9c0.6-0.7,1.4-1.3,2.1-1.9c0.8-0.5,1.7-0.8,2.8-0.8c1.4,0,2.6,0.4,3.6,1.3
				c1,0.9,1.5,2,1.5,3.3c0,1.3-0.5,2.4-1.4,3.3l-13.1,13.6c2.6,3.6,5.2,7.2,7.7,10.8c2.6,3.6,5.1,7.2,7.6,10.8
				c0.3,0.4,0.5,0.9,0.7,1.4c0.1,0.6,0.2,1.1,0.2,1.5c-0.1,1.3-0.7,2.3-1.6,3.1c-0.9,0.7-2.1,1.1-3.4,1.1c-0.8,0-1.4-0.1-1.9-0.2
				c-0.5-0.1-0.9-0.4-1.3-0.7c-0.4-0.3-0.8-0.7-1.1-1.3c-0.4-0.5-0.8-1.2-1.3-1.9l-12.8-18.5c-0.4,0.3-0.8,0.7-1.1,1.1
				c-0.4,0.4-0.7,0.8-1.1,1.1V447c0,1.8-0.4,3.4-1.1,4.9c-0.7,1.4-2.1,2.1-4.1,2.1c-1.5,0-2.7-0.5-3.7-1.4c-1-0.9-1.5-2.1-1.5-3.5
				V394c0-1,0.1-1.9,0.2-2.8c0.1-0.9,0.4-1.7,0.8-2.3c0.4-0.7,0.9-1.2,1.6-1.6c0.7-0.4,1.6-0.6,2.7-0.6c1.5,0,2.7,0.5,3.7,1.4
				c1,0.9,1.5,2.1,1.5,3.4V421.4z"/>
			<path class="st0" d="M390.8,434.1c-1.4,0-2.8,0-4.2-0.1c-1.4-0.1-2.9-0.3-4.5-0.5v4.5c0,2.2,0.7,4,2.2,5.2
				c1.5,1.3,3.8,1.9,6.9,1.9c1.8,0,3.4-0.2,4.9-0.7c1.4-0.5,2.9-1,4.6-1.7c0.1-0.1,0.4-0.2,0.7-0.3c0.4-0.1,0.8-0.1,1.4-0.1
				c1.7,0,2.9,0.5,3.6,1.5c0.7,1,1.1,1.9,1.1,2.9c0,1.5-0.6,2.7-1.9,3.6c-1.3,0.9-2.8,1.7-4.6,2.3c-1.8,0.6-3.7,1-5.6,1.2
				c-2,0.2-3.7,0.3-5.1,0.3c-3,0-5.6-0.4-8-1.3c-2.3-0.8-4.3-2-5.9-3.5c-1.6-1.5-2.8-3.3-3.6-5.3c-0.8-2-1.3-4.2-1.3-6.6v-17.2
				c0-2.4,0.4-4.6,1.3-6.7c0.8-2,2.1-3.8,3.7-5.3c1.6-1.5,3.6-2.7,6-3.5c2.4-0.9,5.2-1.3,8.3-1.3c5.9,0,10.3,1.5,13.2,4.4
				c2.9,2.9,4.4,6.9,4.4,11.7c0,4.6-1.4,8.2-4.2,10.7C401.5,432.8,397,434.1,390.8,434.1z M398.1,419.3c0-2.6-0.6-4.4-1.9-5.5
				c-1.3-1.1-3.1-1.7-5.5-1.7c-2.7,0-4.8,0.7-6.3,2c-1.5,1.4-2.2,3.2-2.2,5.5v5.7c1.7,0.2,3.4,0.3,5,0.4c1.7,0.1,2.8,0.1,3.5,0.1
				c2.8,0,4.7-0.6,5.8-1.8C397.6,423,398.1,421.3,398.1,419.3z"/>
			<g>
				<g>
					<path class="st1" d="M433.2,453.4c-0.4,1-1.1,1.8-2.1,2.3c-1,0.5-2,0.7-3.1,0.5c-0.6-0.1-1.2-0.4-1.7-0.7
						c-0.5-0.3-0.9-0.7-1.3-1.1c-0.3-0.4-0.6-0.9-0.7-1.4c-0.1-0.5-0.1-1.1,0.1-1.6L442,405c0.4-1,1.1-1.8,2-2.3
						c0.9-0.5,2-0.7,3-0.4c1.2,0.2,2.1,0.8,2.8,1.8c0.7,0.9,1,1.9,0.9,3c0,0.4-0.2,0.7-0.3,1L433.2,453.4z"/>
				</g>
			</g>
			<path class="st0" d="M469,411.7c0-3.8,0.5-7.2,1.4-10.3c0.9-3.1,2.4-5.7,4.3-7.9c1.9-2.2,4.3-3.9,7.2-5.1s6.4-1.8,10.4-1.8
				c2.4,0,4.7,0.2,6.9,0.7c2.2,0.5,4.2,1.2,6,2c1.7,0.9,3.1,1.9,4.2,3c1,1.1,1.6,2.3,1.6,3.5c0,1.3-0.5,2.4-1.4,3.3
				c-0.9,0.9-2.1,1.4-3.5,1.4c-0.9,0-1.6-0.1-2.1-0.4c-0.5-0.3-1.1-0.7-1.8-1.1l-0.5-0.3c-2.6-1.8-5.5-2.7-8.8-2.7
				c-2.5,0-4.5,0.4-6.2,1.1c-1.7,0.7-3,1.7-4.1,3.1c-1,1.4-1.8,3-2.2,5c-0.4,1.9-0.6,4.1-0.6,6.5V429c0,2.4,0.2,4.6,0.6,6.5
				c0.4,1.9,1.1,3.6,2.2,5c1,1.4,2.4,2.4,4.1,3.1c1.7,0.7,3.8,1.1,6.2,1.1c3.2,0,6.2-0.9,8.8-2.6l0.5-0.3c0.7-0.5,1.3-0.8,1.8-1.1
				c0.5-0.3,1.2-0.4,2.1-0.4c1.4,0,2.6,0.5,3.5,1.4c0.9,0.9,1.4,2,1.4,3.2c0,1.3-0.5,2.5-1.6,3.6c-1,1.1-2.4,2.1-4.2,3
				c-1.7,0.8-3.7,1.5-6,2c-2.2,0.5-4.6,0.7-6.9,0.7c-4,0-7.5-0.6-10.4-1.8c-2.9-1.2-5.3-2.9-7.2-5.1c-1.9-2.2-3.3-4.8-4.3-7.9
				c-0.9-3.1-1.4-6.5-1.4-10.3V411.7z"/>
			<path class="st0" d="M537.9,454c-3.2,0-6.1-0.5-8.5-1.4c-2.4-0.9-4.5-2.2-6.1-3.7c-1.7-1.6-2.9-3.5-3.7-5.6
				c-0.8-2.2-1.3-4.5-1.3-6.9V421c0-2.5,0.4-4.9,1.3-7c0.8-2.1,2.1-4,3.7-5.6c1.7-1.6,3.7-2.8,6.1-3.7s5.3-1.4,8.5-1.4
				c3.2,0,6,0.5,8.5,1.4c2.5,0.9,4.5,2.2,6.2,3.7c1.7,1.6,2.9,3.4,3.7,5.6c0.8,2.1,1.3,4.5,1.3,7v15.4c0,2.5-0.4,4.8-1.3,6.9
				c-0.8,2.2-2.1,4-3.7,5.6c-1.7,1.6-3.7,2.8-6.2,3.7C543.9,453.6,541.1,454,537.9,454z M537.9,444.8c3,0,5.3-0.7,6.9-2.2
				c1.5-1.5,2.3-3.6,2.3-6.2v-15.5c0-2.6-0.8-4.6-2.3-6.1c-1.5-1.5-3.8-2.2-6.9-2.2c-3,0-5.3,0.7-6.9,2.2c-1.5,1.5-2.3,3.5-2.3,6.1
				v15.5c0,2.7,0.8,4.7,2.3,6.2C532.6,444.1,534.9,444.8,537.9,444.8z"/>
			<path class="st0" d="M576.3,454c-0.8,0-1.6-0.1-2.5-0.3c-0.9-0.2-1.7-0.7-2.5-1.5c-0.7-0.7-1.4-1.8-1.9-3.3
				c-0.5-1.4-0.8-3.3-0.8-5.6v-51.8c0-1.3,0.5-2.4,1.5-3.4c1-1,2.3-1.5,3.7-1.5c1.5,0,2.7,0.5,3.7,1.4c1,0.9,1.5,2.1,1.5,3.4v51.2
				c0,1,0.1,1.8,0.2,2.4c0.1,0.6,0.5,1.2,1.2,1.9c0.3,0.3,0.6,0.7,0.9,1c0.3,0.4,0.4,0.9,0.4,1.6c0,1.4-0.5,2.4-1.5,3.2
				C579.3,453.7,578,454,576.3,454z"/>
			<path class="st0" d="M600.4,454c-0.8,0-1.6-0.1-2.5-0.3c-0.9-0.2-1.7-0.7-2.5-1.5c-0.7-0.7-1.4-1.8-1.9-3.3
				c-0.5-1.4-0.8-3.3-0.8-5.6v-51.8c0-1.3,0.5-2.4,1.5-3.4c1-1,2.3-1.5,3.7-1.5c1.5,0,2.7,0.5,3.7,1.4c1,0.9,1.5,2.1,1.5,3.4v51.2
				c0,1,0.1,1.8,0.2,2.4c0.1,0.6,0.5,1.2,1.2,1.9c0.3,0.3,0.6,0.7,0.9,1c0.3,0.4,0.4,0.9,0.4,1.6c0,1.4-0.5,2.4-1.5,3.2
				C603.4,453.7,602.1,454,600.4,454z"/>
			<path class="st0" d="M633.6,434.1c-1.4,0-2.8,0-4.2-0.1c-1.4-0.1-2.9-0.3-4.5-0.5v4.5c0,2.2,0.7,4,2.2,5.2
				c1.5,1.3,3.8,1.9,6.9,1.9c1.8,0,3.4-0.2,4.9-0.7c1.4-0.5,2.9-1,4.6-1.7c0.1-0.1,0.4-0.2,0.7-0.3c0.4-0.1,0.8-0.1,1.4-0.1
				c1.7,0,2.9,0.5,3.6,1.5c0.7,1,1.1,1.9,1.1,2.9c0,1.5-0.6,2.7-1.9,3.6c-1.3,0.9-2.8,1.7-4.6,2.3c-1.8,0.6-3.7,1-5.6,1.2
				c-2,0.2-3.7,0.3-5.1,0.3c-3,0-5.6-0.4-8-1.3c-2.3-0.8-4.3-2-5.9-3.5c-1.6-1.5-2.8-3.3-3.6-5.3c-0.8-2-1.3-4.2-1.3-6.6v-17.2
				c0-2.4,0.4-4.6,1.3-6.7c0.8-2,2.1-3.8,3.7-5.3c1.6-1.5,3.6-2.7,6-3.5c2.4-0.9,5.2-1.3,8.3-1.3c5.9,0,10.3,1.5,13.2,4.4
				c2.9,2.9,4.4,6.9,4.4,11.7c0,4.6-1.4,8.2-4.2,10.7C644.4,432.8,639.9,434.1,633.6,434.1z M640.9,419.3c0-2.6-0.6-4.4-1.9-5.5
				c-1.3-1.1-3.1-1.7-5.5-1.7c-2.7,0-4.8,0.7-6.3,2c-1.5,1.4-2.2,3.2-2.2,5.5v5.7c1.7,0.2,3.4,0.3,5,0.4c1.7,0.1,2.8,0.1,3.5,0.1
				c2.8,0,4.7-0.6,5.8-1.8C640.4,423,640.9,421.3,640.9,419.3z"/>
			<path class="st0" d="M678.1,403.4c2.4,0,4.6,0.3,6.8,0.8c2.1,0.6,4.2,1.4,6.2,2.5c1.2-1.9,2.5-3.3,4-4.2c1.5-0.9,2.9-1.4,4.1-1.4
				c1.2,0,2.4,0.4,3.4,1.3c1,0.9,1.6,2,1.6,3.3c0,0.6-0.1,1.2-0.4,1.7c-0.3,0.5-0.5,0.8-0.8,1.1l-1.5,1.5c-0.6,0.6-1.2,1.2-1.6,1.7
				c-0.4,0.5-0.8,1-1,1.4c-0.3,0.5-0.4,1-0.5,1.5c-0.1,0.6-0.1,1.2-0.1,1.9v5.7c0,2.5-0.4,4.9-1.2,7c-0.8,2.1-2,4-3.6,5.5
				c-1.6,1.6-3.6,2.8-6,3.7c-2.4,0.9-5.2,1.4-8.5,1.4c-1.1,0-2.2-0.1-3.4-0.2c-1.1-0.1-2.2-0.4-3.2-0.7c-0.3,0.7-0.6,1.3-0.7,1.8
				c-0.1,0.5-0.2,1-0.2,1.6c0,1.5,0.5,2.5,1.4,3c0.9,0.5,1.8,0.7,2.6,0.7h4.1c3,0,5.7,0.3,8.3,0.9c2.5,0.6,4.7,1.5,6.6,2.7
				c1.9,1.2,3.4,2.7,4.4,4.5c1.1,1.8,1.6,4,1.6,6.5c0,2.5-0.5,4.8-1.6,6.8c-1.1,2-2.6,3.7-4.5,5.1c-1.9,1.4-4.2,2.5-6.8,3.3
				c-2.6,0.7-5.4,1.1-8.6,1.1c-3,0-5.7-0.4-8.2-1.1c-2.5-0.7-4.6-1.7-6.4-3c-1.8-1.3-3.2-2.9-4.1-4.8c-1-1.9-1.5-4.1-1.5-6.5
				c0-2.1,0.5-4.1,1.4-5.9c0.9-1.8,2.3-3.5,4.3-5.2c-0.9-1.3-1.5-2.6-1.9-4c-0.4-1.4-0.5-2.6-0.5-3.7c0-1.1,0.2-2.3,0.7-3.6
				c0.5-1.3,1.3-2.6,2.5-3.9c-3.8-3.4-5.7-8-5.7-13.6c0-2.6,0.4-5,1.2-7.2c0.8-2.2,1.9-4.1,3.5-5.7c1.6-1.6,3.5-2.9,5.7-3.8
				C672.4,403.9,675,403.4,678.1,403.4z M677.8,454.9c-1,0-2,0-3-0.1c-0.9-0.1-1.9-0.1-2.8-0.2c-1.7,1.7-2.5,3.6-2.5,5.8
				c0,2.3,0.8,4.1,2.4,5.4c1.6,1.3,4.1,1.9,7.4,1.9c3.1,0,5.7-0.6,7.7-1.8c2-1.2,3-3,3-5.3c0-3.9-3.4-5.8-10.2-5.8H677.8z
				 M687.7,419.3c0-0.8,0-1.6,0-2.4c0-0.8,0-1.6,0.1-2.4c-1.4-0.7-2.8-1.3-4.1-1.7c-1.3-0.4-2.7-0.6-4.2-0.6c-3.1,0-5.4,0.8-6.9,2.4
				c-1.5,1.6-2.3,4-2.3,7.1c0,2.9,0.7,5.1,2.1,6.8c1.4,1.7,3.7,2.5,6.9,2.5c2.9,0,5.1-0.8,6.5-2.3c1.4-1.5,2.1-3.6,2.1-6.4V419.3z"
				/>
			<path class="st0" d="M728,434.1c-1.4,0-2.8,0-4.2-0.1c-1.4-0.1-2.9-0.3-4.5-0.5v4.5c0,2.2,0.7,4,2.2,5.2c1.5,1.3,3.8,1.9,6.9,1.9
				c1.8,0,3.4-0.2,4.9-0.7c1.4-0.5,2.9-1,4.6-1.7c0.1-0.1,0.4-0.2,0.7-0.3c0.4-0.1,0.8-0.1,1.4-0.1c1.7,0,2.9,0.5,3.6,1.5
				c0.7,1,1.1,1.9,1.1,2.9c0,1.5-0.6,2.7-1.9,3.6c-1.3,0.9-2.8,1.7-4.6,2.3c-1.8,0.6-3.7,1-5.6,1.2c-2,0.2-3.7,0.3-5.1,0.3
				c-3,0-5.6-0.4-8-1.3c-2.3-0.8-4.3-2-5.9-3.5c-1.6-1.5-2.8-3.3-3.6-5.3c-0.8-2-1.3-4.2-1.3-6.6v-17.2c0-2.4,0.4-4.6,1.3-6.7
				c0.8-2,2.1-3.8,3.7-5.3c1.6-1.5,3.6-2.7,6-3.5c2.4-0.9,5.2-1.3,8.3-1.3c5.9,0,10.3,1.5,13.2,4.4c2.9,2.9,4.4,6.9,4.4,11.7
				c0,4.6-1.4,8.2-4.2,10.7C738.7,432.8,734.2,434.1,728,434.1z M735.3,419.3c0-2.6-0.6-4.4-1.9-5.5c-1.3-1.1-3.1-1.7-5.5-1.7
				c-2.7,0-4.8,0.7-6.3,2c-1.5,1.4-2.2,3.2-2.2,5.5v5.7c1.7,0.2,3.4,0.3,5,0.4c1.7,0.1,2.8,0.1,3.5,0.1c2.8,0,4.7-0.6,5.8-1.8
				C734.8,423,735.3,421.3,735.3,419.3z"/>
		</g>
	</g>
	<g>
		<g>
			<path class="st1" d="M118.7,527.6c-0.3,1-0.7,1.7-1.2,2.1c-0.4,0.4-1,0.6-1.7,0.6c-1.4,0-2.3-0.9-2.9-2.6l-9.1-27.9
				c-0.2-0.6-0.1-1.2,0.3-1.7c0.4-0.5,1-0.7,1.7-0.7c0.3,0,0.7,0.1,1,0.3c0.3,0.2,0.6,0.5,0.8,1.1l8.1,26.2l8-26.2
				c0.1-0.3,0.3-0.7,0.6-1c0.3-0.3,0.7-0.4,1.2-0.4c0.5,0,1,0.3,1.4,0.6c0.4,0.4,0.6,0.9,0.6,1.5c0,0.2,0,0.4-0.1,0.5L118.7,527.6z"
				/>
			<path class="st1" d="M138.8,528.2c0,0.6-0.2,1.1-0.6,1.5c-0.4,0.4-0.9,0.6-1.4,0.6c-0.6,0-1.1-0.2-1.5-0.6
				c-0.4-0.4-0.6-0.9-0.6-1.5v-22.1c0-1.1-0.1-2-0.2-2.8c-0.1-0.7-0.5-1.4-0.9-2.1c-0.3-0.3-0.4-0.7-0.4-1.1c0-0.5,0.2-1,0.6-1.3
				c0.4-0.3,0.8-0.5,1.3-0.5c0.4,0,0.9,0.2,1.3,0.5c0.4,0.4,0.8,0.8,1.2,1.4c1.5-1,3.1-1.7,4.8-2.2c1.7-0.5,3.1-0.8,4.3-0.8
				c1.1,0,1.9,0.2,2.3,0.6c0.4,0.4,0.6,0.9,0.6,1.5c0,0.6-0.2,1.2-0.6,1.6c-0.4,0.4-0.9,0.6-1.4,0.6c-0.7,0-1.4,0-2.1,0
				c-0.7,0-1.4,0.1-2.1,0.3c-0.7,0.1-1.4,0.4-2.2,0.8c-0.7,0.4-1.6,0.9-2.4,1.5v0.1v0.3c0,0.1,0,0.3,0,0.6c0,0.3,0,0.6,0,1.1V528.2z
				"/>
			<path class="st1" d="M160.8,486.6c0,0.7-0.3,1.3-0.8,1.8c-0.5,0.5-1.1,0.8-1.8,0.8c-0.8,0-1.4-0.3-1.9-0.8
				c-0.5-0.5-0.8-1.1-0.8-1.8c0-0.8,0.3-1.4,0.8-1.9c0.5-0.5,1.1-0.8,1.9-0.8c0.7,0,1.3,0.3,1.8,0.8
				C160.6,485.2,160.8,485.9,160.8,486.6z M160.2,528.2c0,0.6-0.2,1.1-0.6,1.5c-0.4,0.4-0.9,0.6-1.4,0.6c-0.6,0-1.1-0.2-1.5-0.6
				c-0.4-0.4-0.6-0.9-0.6-1.5v-28.8c0-0.6,0.2-1.1,0.6-1.5c0.4-0.4,0.9-0.6,1.5-0.6c0.5,0,1,0.2,1.4,0.6c0.4,0.4,0.6,0.9,0.6,1.5
				V528.2z"/>
			<path class="st1" d="M175.8,531.3c0,3.2-0.8,5.9-2.4,7.9c-1.6,2.1-3.7,3.3-6.4,3.8c-0.3,0-0.5,0.1-0.6,0c-0.1,0-0.3,0-0.5,0
				c-0.4,0-0.7-0.1-1.1-0.3c-0.3-0.2-0.5-0.5-0.6-0.9c-0.2-0.7-0.1-1.2,0.3-1.6c0.4-0.3,0.8-0.5,1.2-0.6c1.9-0.5,3.4-1.3,4.4-2.4
				c1-1.2,1.6-3,1.6-5.5v-32.1c0-0.6,0.2-1.1,0.6-1.5c0.4-0.4,0.9-0.6,1.5-0.6c0.5,0,1,0.2,1.4,0.6c0.4,0.4,0.6,0.9,0.6,1.5V531.3z
				 M176.4,486.6c0,0.7-0.3,1.3-0.8,1.8c-0.5,0.5-1.1,0.8-1.8,0.8c-0.8,0-1.4-0.3-1.9-0.8c-0.5-0.5-0.8-1.1-0.8-1.8
				c0-0.8,0.3-1.4,0.8-1.9c0.5-0.5,1.2-0.8,1.9-0.8c0.7,0,1.3,0.3,1.8,0.8C176.2,485.2,176.4,485.9,176.4,486.6z"/>
			<path class="st1" d="M196.4,526.8c1.5,0,2.7-0.2,3.7-0.5c1-0.4,2.1-0.8,3.2-1.3c0.1,0,0.2-0.1,0.3-0.1c0.1,0,0.3-0.1,0.4-0.1
				c0.5,0,0.9,0.2,1.3,0.5c0.3,0.4,0.5,0.8,0.5,1.2c0,0.7-0.4,1.3-1.1,1.8c-0.7,0.5-1.6,0.9-2.7,1.1c-1,0.3-2.1,0.5-3.3,0.6
				c-1.2,0.1-2.2,0.2-3,0.2c-1.8,0-3.4-0.3-4.8-0.8c-1.4-0.5-2.6-1.3-3.5-2.2c-1-0.9-1.7-2-2.2-3.3c-0.5-1.2-0.7-2.6-0.7-4.1v-12.2
				c0-1.5,0.3-2.9,0.8-4.2c0.5-1.3,1.2-2.4,2.2-3.4c1-1,2.2-1.7,3.6-2.2c1.4-0.5,3.1-0.8,4.9-0.8c3.5,0,6,0.9,7.7,2.8
				c1.7,1.8,2.5,4.3,2.5,7.4c0,2.9-0.8,5.1-2.5,6.8c-1.6,1.6-4.3,2.4-8.1,2.4c-1.1,0-2.2-0.1-3.5-0.2c-1.2-0.1-2.5-0.3-3.7-0.5v4.5
				c0,1.9,0.6,3.5,1.9,4.7C191.9,526.2,193.8,526.8,196.4,526.8z M202.3,507.3c0-2.3-0.6-4-1.7-5c-1.1-1-2.7-1.5-4.7-1.5
				c-2.3,0-4.1,0.6-5.3,1.7c-1.3,1.2-1.9,2.7-1.9,4.7v5.4c0.7,0.1,1.4,0.2,2.1,0.2c0.7,0.1,1.4,0.1,2.1,0.2c0.7,0,1.3,0.1,1.8,0.1
				c0.5,0,1,0,1.3,0c1.3,0,2.4-0.2,3.2-0.5c0.8-0.3,1.5-0.8,1.9-1.3c0.4-0.5,0.7-1.1,0.9-1.8C202.3,508.8,202.3,508.1,202.3,507.3z"
				/>
			<path class="st1" d="M226.3,485.4c0-0.5,0.2-1,0.5-1.4c0.4-0.4,0.9-0.6,1.6-0.6c0.7,0,1.2,0.2,1.5,0.6c0.3,0.4,0.5,0.9,0.5,1.4
				v14.9c1.4-1,2.9-1.8,4.4-2.3c1.5-0.5,3.1-0.8,4.9-0.8s3.3,0.3,4.5,0.8c1.2,0.5,2.2,1.2,2.9,2.1c0.8,0.9,1.3,1.9,1.6,3.1
				c0.3,1.2,0.5,2.5,0.5,3.8v12.3c0,1.6-0.2,3-0.7,4.4c-0.5,1.4-1.2,2.5-2.2,3.5c-1,1-2.1,1.8-3.6,2.3c-1.4,0.6-3.1,0.9-5,0.9
				c-1.9,0-3.5-0.3-4.9-0.8c-1.4-0.5-2.6-1.2-3.6-2.1c-1-0.9-1.7-1.9-2.3-3.1c-0.5-1.2-0.8-2.5-0.8-3.8V485.4z M230.4,520.5
				c0,1.9,0.7,3.4,2,4.4c1.3,1.1,3.1,1.6,5.4,1.6c2.5,0,4.4-0.7,5.5-2c1.2-1.3,1.7-3.1,1.7-5.4v-12.3c0-2-0.5-3.5-1.6-4.6
				c-1.1-1.1-2.8-1.6-5.1-1.6c-1.7,0-3.2,0.3-4.5,1c-1.3,0.7-2.5,1.5-3.5,2.6V520.5z"/>
			<path class="st1" d="M273.3,508.2c0-5-2.5-7.5-7.4-7.5c-1.2,0-2.2,0.1-2.9,0.3c-0.8,0.2-1.5,0.6-2.2,1c-0.2,0.1-0.4,0.2-0.7,0.3
				c-0.2,0.1-0.5,0.2-0.9,0.2c-0.5,0-0.8-0.2-1-0.5c-0.2-0.4-0.3-0.7-0.4-1.1c-0.1-0.7,0.1-1.2,0.6-1.7c0.5-0.5,1.2-0.8,2-1.1
				c0.8-0.3,1.8-0.5,2.9-0.7c1.1-0.1,2.1-0.2,3.2-0.2c3.9,0,6.7,1.1,8.4,3.3c1.7,2.2,2.5,5.3,2.5,9.5v14.3c0,1.6,0.6,2.5,1.7,2.5
				c0.1,0,0.2,0,0.3,0c0.1,0,0.1,0,0.2,0c0.5,0,0.8,0.2,1,0.5c0.2,0.4,0.3,0.8,0.3,1.2c0,0.6-0.3,1.1-0.8,1.3
				c-0.5,0.3-1.1,0.4-1.6,0.4c-1,0-1.9-0.3-2.7-1c-0.8-0.7-1.5-1.5-2.1-2.6c-2.7,2.5-5.7,3.8-9.1,3.8c-3.2,0-5.6-0.9-7.2-2.6
				c-1.6-1.7-2.3-4-2.3-6.8v-0.3c0-6.2,3.7-9.3,11-9.3c1.1,0,2.2,0.1,3.4,0.3c1.2,0.2,2.4,0.5,3.6,0.8V508.2z M266.2,514.8
				c-1.5,0-2.7,0.2-3.6,0.5c-0.9,0.3-1.6,0.8-2.1,1.3c-0.5,0.5-0.8,1.2-1,1.9c-0.2,0.7-0.3,1.5-0.3,2.3v0.3c0,1.6,0.4,3,1.3,4.1
				c0.9,1.1,2.5,1.6,4.9,1.6c1.5,0,2.8-0.3,4.1-0.8c1.2-0.5,2.5-1.3,3.7-2.3V516c-1.3-0.4-2.5-0.7-3.8-0.9
				C268.3,514.9,267.1,514.8,266.2,514.8z"/>
			<path class="st1" d="M286.8,506.1c0-2.7,0.9-4.9,2.6-6.5c1.7-1.6,4.2-2.4,7.5-2.4c0.8,0,1.7,0.1,2.6,0.2c1,0.1,1.8,0.3,2.7,0.5
				c0.8,0.3,1.5,0.6,2.1,1c0.5,0.4,0.8,0.9,0.8,1.5c0,0.5-0.2,0.9-0.5,1.3c-0.3,0.4-0.8,0.5-1.3,0.5c-0.2,0-0.4,0-0.5-0.1
				c-0.1,0-0.3-0.1-0.4-0.2c-0.7-0.3-1.5-0.6-2.2-0.9c-0.8-0.3-1.8-0.4-3-0.4c-2.2,0-3.7,0.4-4.8,1.3c-1,0.9-1.5,2.1-1.5,3.8
				c0,1.1,0.3,2.1,0.8,2.7c0.5,0.7,1.4,1.4,2.6,2c1.3,0.6,2.6,1.2,4,1.6c1.4,0.5,2.7,1.1,3.8,1.8c1.2,0.7,2.2,1.6,2.9,2.8
				c0.8,1.1,1.1,2.6,1.1,4.5c0,2.8-0.9,5-2.6,6.6c-1.8,1.6-4.4,2.4-7.8,2.4c-0.8,0-1.7,0-2.8-0.1c-1.1-0.1-2.1-0.3-3-0.5
				c-1-0.3-1.8-0.6-2.4-1c-0.7-0.4-1-1-1-1.6c0-0.5,0.2-0.9,0.5-1.3c0.4-0.4,0.8-0.6,1.4-0.6c0.1,0,0.3,0,0.4,0.1
				c1,0.4,2,0.7,3.1,1.1c1.1,0.3,2.3,0.5,3.8,0.5c1.9,0,3.5-0.4,4.7-1.2c1.2-0.8,1.8-2.2,1.8-4.1c0-1.4-0.3-2.4-0.8-3
				c-0.5-0.7-1.1-1.2-1.8-1.6c-1.2-0.6-2.6-1.2-4.1-1.6c-1.5-0.5-2.9-1.1-4.1-1.8c-1.3-0.7-2.3-1.6-3.2-2.8
				C287.3,509.5,286.8,508,286.8,506.1z"/>
			<path class="st1" d="M318.3,486.6c0,0.7-0.3,1.3-0.8,1.8c-0.5,0.5-1.1,0.8-1.8,0.8c-0.8,0-1.4-0.3-1.9-0.8
				c-0.5-0.5-0.8-1.1-0.8-1.8c0-0.8,0.3-1.4,0.8-1.9c0.5-0.5,1.1-0.8,1.9-0.8c0.7,0,1.3,0.3,1.8,0.8
				C318,485.2,318.3,485.9,318.3,486.6z M317.7,528.2c0,0.6-0.2,1.1-0.6,1.5c-0.4,0.4-0.9,0.6-1.4,0.6c-0.6,0-1.1-0.2-1.5-0.6
				c-0.4-0.4-0.6-0.9-0.6-1.5v-28.8c0-0.6,0.2-1.1,0.6-1.5c0.4-0.4,0.9-0.6,1.5-0.6c0.5,0,1,0.2,1.4,0.6c0.4,0.4,0.6,0.9,0.6,1.5
				V528.2z"/>
			<path class="st1" d="M327.1,506.1c0-2.7,0.9-4.9,2.6-6.5c1.7-1.6,4.2-2.4,7.5-2.4c0.8,0,1.7,0.1,2.6,0.2c1,0.1,1.8,0.3,2.7,0.5
				c0.8,0.3,1.5,0.6,2.1,1c0.5,0.4,0.8,0.9,0.8,1.5c0,0.5-0.2,0.9-0.5,1.3c-0.3,0.4-0.8,0.5-1.3,0.5c-0.2,0-0.4,0-0.5-0.1
				c-0.1,0-0.3-0.1-0.4-0.2c-0.7-0.3-1.5-0.6-2.2-0.9c-0.8-0.3-1.8-0.4-3-0.4c-2.2,0-3.7,0.4-4.8,1.3c-1,0.9-1.5,2.1-1.5,3.8
				c0,1.1,0.3,2.1,0.8,2.7c0.5,0.7,1.4,1.4,2.6,2c1.3,0.6,2.6,1.2,4,1.6c1.4,0.5,2.7,1.1,3.8,1.8c1.2,0.7,2.2,1.6,2.9,2.8
				c0.8,1.1,1.1,2.6,1.1,4.5c0,2.8-0.9,5-2.6,6.6c-1.8,1.6-4.4,2.4-7.8,2.4c-0.8,0-1.7,0-2.8-0.1c-1.1-0.1-2.1-0.3-3-0.5
				c-1-0.3-1.8-0.6-2.4-1c-0.7-0.4-1-1-1-1.6c0-0.5,0.2-0.9,0.5-1.3c0.4-0.4,0.8-0.6,1.4-0.6c0.1,0,0.3,0,0.4,0.1
				c1,0.4,2,0.7,3.1,1.1c1.1,0.3,2.3,0.5,3.8,0.5c1.9,0,3.5-0.4,4.7-1.2c1.2-0.8,1.8-2.2,1.8-4.1c0-1.4-0.3-2.4-0.8-3
				c-0.5-0.7-1.1-1.2-1.8-1.6c-1.2-0.6-2.6-1.2-4.1-1.6c-1.5-0.5-2.9-1.1-4.1-1.8c-1.3-0.7-2.3-1.6-3.2-2.8
				C327.5,509.5,327.1,508,327.1,506.1z"/>
			<path class="st1" d="M352.3,506.1c0-2.7,0.9-4.9,2.6-6.5c1.7-1.6,4.2-2.4,7.5-2.4c0.8,0,1.7,0.1,2.6,0.2c1,0.1,1.8,0.3,2.7,0.5
				c0.8,0.3,1.5,0.6,2.1,1c0.5,0.4,0.8,0.9,0.8,1.5c0,0.5-0.2,0.9-0.5,1.3c-0.3,0.4-0.8,0.5-1.3,0.5c-0.2,0-0.4,0-0.5-0.1
				c-0.1,0-0.3-0.1-0.4-0.2c-0.7-0.3-1.5-0.6-2.2-0.9c-0.8-0.3-1.8-0.4-3-0.4c-2.2,0-3.7,0.4-4.8,1.3c-1,0.9-1.5,2.1-1.5,3.8
				c0,1.1,0.3,2.1,0.8,2.7c0.5,0.7,1.4,1.4,2.6,2c1.3,0.6,2.6,1.2,4,1.6c1.4,0.5,2.7,1.1,3.8,1.8c1.2,0.7,2.2,1.6,2.9,2.8
				c0.8,1.1,1.1,2.6,1.1,4.5c0,2.8-0.9,5-2.6,6.6c-1.8,1.6-4.4,2.4-7.8,2.4c-0.8,0-1.7,0-2.8-0.1c-1.1-0.1-2.1-0.3-3-0.5
				c-1-0.3-1.8-0.6-2.4-1c-0.7-0.4-1-1-1-1.6c0-0.5,0.2-0.9,0.5-1.3c0.4-0.4,0.8-0.6,1.4-0.6c0.1,0,0.3,0,0.4,0.1
				c1,0.4,2,0.7,3.1,1.1c1.1,0.3,2.3,0.5,3.8,0.5c1.9,0,3.5-0.4,4.7-1.2c1.2-0.8,1.8-2.2,1.8-4.1c0-1.4-0.3-2.4-0.8-3
				c-0.5-0.7-1.1-1.2-1.8-1.6c-1.2-0.6-2.6-1.2-4.1-1.6c-1.5-0.5-2.9-1.1-4.1-1.8c-1.3-0.7-2.3-1.6-3.2-2.8
				C352.7,509.5,352.3,508,352.3,506.1z"/>
			<path class="st1" d="M377.4,508.9c0-1.6,0.2-3.1,0.7-4.5c0.4-1.4,1.1-2.6,2-3.7c0.9-1,2.1-1.8,3.5-2.4c1.4-0.6,3.1-0.9,5.1-0.9
				c0.7,0,1.6,0.1,2.5,0.2c1,0.1,1.9,0.3,2.8,0.6c0.9,0.3,1.6,0.6,2.3,1.1s1,1,1,1.7c0,0.5-0.2,0.9-0.5,1.2
				c-0.3,0.3-0.7,0.5-1.2,0.5c-0.2,0-0.4,0-0.5,0c-0.1,0-0.3-0.1-0.4-0.1h0.1c-0.8-0.4-1.6-0.8-2.4-1.1c-0.8-0.3-1.8-0.5-3-0.5
				c-2.8,0-4.8,0.7-5.9,2.1c-1.2,1.4-1.7,3.4-1.7,5.9v9.9c0,2.5,0.6,4.5,1.7,5.9c1.2,1.4,3.1,2.1,5.9,2.1c1.2,0,2.3-0.2,3.1-0.5
				c0.8-0.3,1.6-0.7,2.4-1h-0.1c0.4-0.1,0.7-0.2,1-0.2c0.5,0,0.9,0.2,1.2,0.5c0.3,0.4,0.5,0.8,0.5,1.2c0,0.7-0.3,1.2-1,1.7
				c-0.6,0.4-1.4,0.8-2.3,1c-0.9,0.3-1.8,0.4-2.8,0.5c-1,0.1-1.8,0.2-2.5,0.2c-2,0-3.7-0.3-5.1-0.9c-1.4-0.6-2.6-1.4-3.5-2.4
				c-0.9-1-1.6-2.3-2-3.6c-0.4-1.4-0.7-2.9-0.7-4.5V508.9z"/>
			<path class="st1" d="M407.2,529.7c-0.4,0.4-0.8,0.6-1.4,0.6c-0.6,0-1.1-0.2-1.5-0.6c-0.4-0.4-0.6-0.9-0.6-1.5v-43.2
				c0-0.5,0.2-1,0.5-1.4c0.4-0.4,0.8-0.7,1.4-0.7c0.6,0,1.1,0.2,1.5,0.6c0.4,0.4,0.6,0.9,0.6,1.5v15.4c1.4-1.1,2.8-1.9,4.3-2.4
				c1.5-0.6,3-0.9,4.5-0.9c3.3,0,5.8,1,7.3,2.9c1.5,1.9,2.3,4.4,2.3,7.5v20.7c0,0.6-0.2,1.1-0.6,1.5c-0.4,0.4-0.9,0.6-1.5,0.6
				c-0.6,0-1.1-0.2-1.5-0.6c-0.4-0.4-0.6-0.9-0.6-1.5v-20.6c0-2.2-0.5-3.8-1.4-5c-1-1.2-2.5-1.7-4.7-1.7c-1.4,0-2.8,0.3-4.2,1
				c-1.5,0.7-2.8,1.7-3.9,3.2v23.1C407.7,528.8,407.6,529.3,407.2,529.7z"/>
			<path class="st1" d="M445.7,530.3c-1.9,0-3.6-0.3-5-0.9s-2.7-1.4-3.7-2.3c-1-1-1.7-2.2-2.3-3.5c-0.5-1.4-0.8-2.8-0.8-4.4v-10.9
				c0-1.6,0.3-3,0.8-4.4c0.5-1.4,1.3-2.5,2.3-3.6c1-1,2.2-1.8,3.7-2.4c1.5-0.6,3.1-0.9,5-0.9s3.6,0.3,5.1,0.9
				c1.5,0.6,2.7,1.4,3.7,2.4c1,1,1.7,2.2,2.2,3.6c0.5,1.4,0.8,2.8,0.8,4.4v10.9c0,1.6-0.3,3-0.8,4.4c-0.5,1.4-1.2,2.5-2.2,3.5
				c-1,1-2.2,1.8-3.7,2.3S447.6,530.3,445.7,530.3z M445.7,526.5c2.5,0,4.4-0.7,5.7-2c1.3-1.3,1.9-3.1,1.9-5.4v-11
				c0-2.3-0.6-4.1-1.9-5.4c-1.3-1.3-3.2-2-5.7-2c-2.5,0-4.4,0.7-5.7,2c-1.3,1.3-1.9,3.1-1.9,5.4v11c0,2.3,0.6,4.1,1.9,5.4
				C441.3,525.9,443.2,526.5,445.7,526.5z"/>
			<path class="st1" d="M475.1,530.3c-1.9,0-3.6-0.3-5-0.9s-2.7-1.4-3.7-2.3c-1-1-1.7-2.2-2.3-3.5c-0.5-1.4-0.8-2.8-0.8-4.4v-10.9
				c0-1.6,0.3-3,0.8-4.4c0.5-1.4,1.3-2.5,2.3-3.6c1-1,2.2-1.8,3.7-2.4c1.5-0.6,3.1-0.9,5-0.9s3.6,0.3,5.1,0.9
				c1.5,0.6,2.7,1.4,3.7,2.4c1,1,1.7,2.2,2.2,3.6c0.5,1.4,0.8,2.8,0.8,4.4v10.9c0,1.6-0.3,3-0.8,4.4c-0.5,1.4-1.2,2.5-2.2,3.5
				c-1,1-2.2,1.8-3.7,2.3C478.7,530,477,530.3,475.1,530.3z M475.1,526.5c2.5,0,4.4-0.7,5.7-2c1.3-1.3,1.9-3.1,1.9-5.4v-11
				c0-2.3-0.6-4.1-1.9-5.4c-1.3-1.3-3.2-2-5.7-2c-2.5,0-4.4,0.7-5.7,2c-1.3,1.3-1.9,3.1-1.9,5.4v11c0,2.3,0.6,4.1,1.9,5.4
				C470.7,525.9,472.6,526.5,475.1,526.5z"/>
			<path class="st1" d="M494.8,485.4c0-0.5,0.2-1,0.6-1.5c0.4-0.4,0.9-0.6,1.5-0.6c0.6,0,1.1,0.2,1.5,0.6c0.4,0.4,0.6,0.9,0.6,1.5
				v38.7c0,1.5,0.4,2.6,1.1,3.4c0.2,0.3,0.3,0.6,0.3,0.9c0,0.5-0.2,1-0.5,1.3c-0.3,0.3-0.8,0.5-1.3,0.5c-0.3,0-0.7-0.1-1.1-0.2
				c-0.4-0.1-0.8-0.4-1.2-0.8c-0.4-0.4-0.7-1-0.9-1.9c-0.3-0.8-0.4-1.9-0.4-3.3V485.4z"/>
			<path class="st1" d="M541.2,492.6c-0.6,2.7-1.2,5.5-1.9,8.5c-0.7,3-1.4,6-2.1,9.1c-0.7,3.1-1.4,6.1-2.1,9.1
				c-0.7,3-1.3,5.8-1.9,8.4c-0.2,0.6-0.5,1.2-1,1.7c-0.4,0.6-1.1,0.9-2,0.9c-0.8,0-1.5-0.3-2-0.8c-0.5-0.5-0.9-1.1-1.1-1.8
				l-9.7-41.1v-0.3c0-0.6,0.3-1,0.8-1.3c0.5-0.3,1.1-0.4,1.7-0.4c0.4,0,0.7,0.1,1.1,0.4c0.4,0.3,0.6,0.6,0.8,1.1l8.5,36.6l7.9-35
				c0.3-1.1,0.6-1.9,1-2.5c0.4-0.6,1-0.9,1.9-0.9c0.8,0,1.5,0.3,1.9,1c0.4,0.6,0.7,1.5,1,2.5l8.1,35.1l8.4-36.7
				c0.2-0.5,0.4-0.8,0.7-1.1c0.3-0.3,0.6-0.4,1-0.4c0.6,0,1.2,0.1,1.7,0.4c0.6,0.3,0.9,0.8,0.9,1.4c0,0,0,0.1,0,0.3
				c0,0.1,0,0.2-0.1,0.3v0.1l-9.6,40.6c-0.2,0.7-0.6,1.3-1,1.8c-0.5,0.5-1.1,0.8-1.9,0.8c-0.8,0-1.5-0.3-2-0.8
				c-0.5-0.5-0.8-1.2-1-1.8L541.2,492.6z"/>
			<path class="st1" d="M584.8,508.2c0-5-2.5-7.5-7.4-7.5c-1.2,0-2.2,0.1-2.9,0.3c-0.8,0.2-1.5,0.6-2.2,1c-0.2,0.1-0.4,0.2-0.7,0.3
				c-0.2,0.1-0.5,0.2-0.9,0.2c-0.5,0-0.8-0.2-1-0.5c-0.2-0.4-0.3-0.7-0.4-1.1c-0.1-0.7,0.1-1.2,0.6-1.7c0.5-0.5,1.2-0.8,2-1.1
				c0.8-0.3,1.8-0.5,2.9-0.7c1.1-0.1,2.1-0.2,3.2-0.2c3.9,0,6.7,1.1,8.4,3.3c1.7,2.2,2.5,5.3,2.5,9.5v14.3c0,1.6,0.6,2.5,1.7,2.5
				c0.1,0,0.2,0,0.3,0c0.1,0,0.1,0,0.2,0c0.5,0,0.8,0.2,1,0.5c0.2,0.4,0.3,0.8,0.3,1.2c0,0.6-0.3,1.1-0.8,1.3
				c-0.5,0.3-1.1,0.4-1.6,0.4c-1,0-1.9-0.3-2.7-1c-0.8-0.7-1.5-1.5-2.1-2.6c-2.7,2.5-5.7,3.8-9.1,3.8c-3.2,0-5.6-0.9-7.2-2.6
				c-1.6-1.7-2.3-4-2.3-6.8v-0.3c0-6.2,3.7-9.3,11-9.3c1.1,0,2.2,0.1,3.4,0.3c1.2,0.2,2.4,0.5,3.6,0.8V508.2z M577.7,514.8
				c-1.5,0-2.7,0.2-3.6,0.5c-0.9,0.3-1.6,0.8-2.1,1.3c-0.5,0.5-0.8,1.2-1,1.9c-0.2,0.7-0.3,1.5-0.3,2.3v0.3c0,1.6,0.4,3,1.3,4.1
				c0.9,1.1,2.5,1.6,4.9,1.6c1.5,0,2.8-0.3,4.1-0.8c1.2-0.5,2.5-1.3,3.7-2.3V516c-1.3-0.4-2.5-0.7-3.8-0.9
				C579.8,514.9,578.7,514.8,577.7,514.8z"/>
			<path class="st1" d="M603.6,528.2c0,0.6-0.2,1.1-0.6,1.5c-0.4,0.4-0.9,0.6-1.4,0.6c-0.6,0-1.1-0.2-1.5-0.6
				c-0.4-0.4-0.6-0.9-0.6-1.5v-22.1c0-1.1-0.1-2-0.2-2.8c-0.1-0.7-0.5-1.4-0.9-2.1c-0.3-0.3-0.4-0.7-0.4-1.1c0-0.5,0.2-1,0.6-1.3
				c0.4-0.3,0.8-0.5,1.3-0.5c0.4,0,0.9,0.2,1.3,0.5c0.4,0.4,0.8,0.8,1.2,1.4c1.5-1,3.1-1.7,4.8-2.2c1.7-0.5,3.1-0.8,4.3-0.8
				c1.1,0,1.9,0.2,2.3,0.6c0.4,0.4,0.6,0.9,0.6,1.5c0,0.6-0.2,1.2-0.6,1.6c-0.4,0.4-0.9,0.6-1.4,0.6c-0.7,0-1.4,0-2.1,0
				c-0.7,0-1.4,0.1-2.1,0.3c-0.7,0.1-1.4,0.4-2.2,0.8c-0.7,0.4-1.6,0.9-2.4,1.5v0.1v0.3c0,0.1,0,0.3,0,0.6c0,0.3,0,0.6,0,1.1V528.2z
				"/>
			<path class="st1" d="M630.3,526.8c1.5,0,2.7-0.2,3.7-0.5c1-0.4,2.1-0.8,3.2-1.3c0.1,0,0.2-0.1,0.3-0.1c0.1,0,0.3-0.1,0.4-0.1
				c0.5,0,0.9,0.2,1.3,0.5c0.3,0.4,0.5,0.8,0.5,1.2c0,0.7-0.4,1.3-1.1,1.8c-0.7,0.5-1.6,0.9-2.7,1.1c-1,0.3-2.1,0.5-3.3,0.6
				c-1.2,0.1-2.2,0.2-3,0.2c-1.8,0-3.4-0.3-4.8-0.8c-1.4-0.5-2.6-1.3-3.5-2.2c-1-0.9-1.7-2-2.2-3.3c-0.5-1.2-0.7-2.6-0.7-4.1v-12.2
				c0-1.5,0.3-2.9,0.8-4.2c0.5-1.3,1.2-2.4,2.2-3.4c1-1,2.2-1.7,3.6-2.2c1.4-0.5,3.1-0.8,4.9-0.8c3.5,0,6,0.9,7.7,2.8
				c1.7,1.8,2.5,4.3,2.5,7.4c0,2.9-0.8,5.1-2.5,6.8c-1.6,1.6-4.3,2.4-8.1,2.4c-1.1,0-2.2-0.1-3.5-0.2c-1.2-0.1-2.5-0.3-3.7-0.5v4.5
				c0,1.9,0.6,3.5,1.9,4.7C625.9,526.2,627.8,526.8,630.3,526.8z M636.3,507.3c0-2.3-0.6-4-1.7-5c-1.1-1-2.7-1.5-4.7-1.5
				c-2.3,0-4.1,0.6-5.3,1.7c-1.3,1.2-1.9,2.7-1.9,4.7v5.4c0.7,0.1,1.4,0.2,2.1,0.2c0.7,0.1,1.4,0.1,2.1,0.2c0.7,0,1.3,0.1,1.8,0.1
				c0.5,0,1,0,1.3,0c1.3,0,2.4-0.2,3.2-0.5c0.8-0.3,1.5-0.8,1.9-1.3c0.4-0.5,0.7-1.1,0.9-1.8C636.2,508.8,636.3,508.1,636.3,507.3z"
				/>
			<path class="st1" d="M657.6,497.2c1.5,0,3,0.2,4.5,0.6c1.5,0.4,3,1,4.3,1.8c0.8-1.4,1.6-2.4,2.6-3c1-0.6,1.8-1,2.3-1
				c0.5,0,1,0.2,1.4,0.5c0.4,0.3,0.5,0.8,0.5,1.3c0,0.5-0.1,0.8-0.3,1l-0.6,0.6c-0.6,0.5-1,1-1.4,1.4c-0.4,0.4-0.7,0.8-1,1.3
				c-0.3,0.4-0.4,0.9-0.6,1.5c-0.1,0.5-0.2,1.2-0.2,1.9v4.1c0,1.6-0.2,3.1-0.7,4.5c-0.5,1.4-1.2,2.6-2.1,3.6c-1,1-2.1,1.8-3.5,2.4
				c-1.4,0.6-3,0.9-4.9,0.9c-1,0-1.9-0.1-2.8-0.3c-0.9-0.2-1.8-0.4-2.6-0.8c-0.4,0.7-0.7,1.4-0.9,2c-0.1,0.6-0.2,1.2-0.2,1.6
				c0,0.7,0.1,1.2,0.4,1.6c0.3,0.4,0.6,0.8,1,1c0.4,0.3,0.8,0.4,1.3,0.5c0.5,0.1,0.9,0.1,1.3,0.1h2.7c1.8,0,3.4,0.2,5,0.5
				c1.5,0.4,2.9,0.9,4,1.6c1.1,0.7,2,1.6,2.6,2.7c0.6,1.1,1,2.4,1,3.9c0,1.6-0.3,3-1,4.2c-0.7,1.2-1.6,2.3-2.7,3.2
				c-1.1,0.9-2.5,1.5-4.1,2c-1.6,0.5-3.3,0.7-5.1,0.7c-1.8,0-3.4-0.2-4.9-0.6c-1.5-0.4-2.7-1-3.8-1.9c-1.1-0.8-1.9-1.8-2.5-3
				c-0.6-1.2-0.9-2.5-0.9-4c0-2.8,1.2-5.3,3.6-7.5c-0.8-0.8-1.4-1.7-1.7-2.6c-0.3-0.9-0.4-1.7-0.4-2.4c0-0.7,0.2-1.5,0.6-2.5
				c0.4-0.9,1.1-1.9,2.2-2.9c-2.5-2.3-3.8-5.4-3.8-9.3c0-1.6,0.2-3.2,0.7-4.6c0.5-1.4,1.2-2.6,2.1-3.6c0.9-1,2.1-1.8,3.5-2.4
				C654.1,497.5,655.7,497.2,657.6,497.2z M655.7,530.1c-1.1,0-2.2-0.1-3.1-0.3c-1.7,1.4-2.6,3.1-2.6,5.3c0,4.4,2.7,6.5,8.1,6.5
				c2.5,0,4.6-0.5,6.2-1.6c1.6-1,2.4-2.6,2.4-4.7c0-1.9-0.7-3.2-2.1-4c-1.4-0.8-3.5-1.2-6.2-1.2H655.7z M665.2,505.1
				c0-0.2,0-0.5,0-0.9c0-0.4,0.1-0.8,0.2-1.3c-1.1-0.7-2.3-1.3-3.5-1.6c-1.2-0.4-2.4-0.6-3.6-0.6c-2.6,0-4.5,0.7-5.8,2.1
				c-1.3,1.4-1.9,3.4-1.9,6c0,2.4,0.6,4.3,1.7,5.7c1.2,1.4,3.1,2.2,5.7,2.2c2.5,0,4.4-0.7,5.5-2c1.1-1.3,1.7-3.1,1.7-5.5V505.1z"/>
			<path class="st1" d="M688.3,526.8c1.5,0,2.7-0.2,3.7-0.5c1-0.4,2.1-0.8,3.2-1.3c0.1,0,0.2-0.1,0.3-0.1c0.1,0,0.3-0.1,0.4-0.1
				c0.5,0,0.9,0.2,1.3,0.5c0.3,0.4,0.5,0.8,0.5,1.2c0,0.7-0.4,1.3-1.1,1.8c-0.7,0.5-1.6,0.9-2.7,1.1c-1,0.3-2.1,0.5-3.3,0.6
				c-1.2,0.1-2.2,0.2-3,0.2c-1.8,0-3.4-0.3-4.8-0.8c-1.4-0.5-2.6-1.3-3.5-2.2c-1-0.9-1.7-2-2.2-3.3c-0.5-1.2-0.7-2.6-0.7-4.1v-12.2
				c0-1.5,0.3-2.9,0.8-4.2c0.5-1.3,1.2-2.4,2.2-3.4c1-1,2.2-1.7,3.6-2.2c1.4-0.5,3.1-0.8,4.9-0.8c3.5,0,6,0.9,7.7,2.8
				c1.7,1.8,2.5,4.3,2.5,7.4c0,2.9-0.8,5.1-2.5,6.8c-1.6,1.6-4.3,2.4-8.1,2.4c-1.1,0-2.2-0.1-3.5-0.2c-1.2-0.1-2.5-0.3-3.7-0.5v4.5
				c0,1.9,0.6,3.5,1.9,4.7C683.9,526.2,685.8,526.8,688.3,526.8z M694.3,507.3c0-2.3-0.6-4-1.7-5c-1.1-1-2.7-1.5-4.7-1.5
				c-2.3,0-4.1,0.6-5.3,1.7c-1.3,1.2-1.9,2.7-1.9,4.7v5.4c0.7,0.1,1.4,0.2,2.1,0.2c0.7,0.1,1.4,0.1,2.1,0.2c0.7,0,1.3,0.1,1.8,0.1
				c0.5,0,1,0,1.3,0c1.3,0,2.4-0.2,3.2-0.5c0.8-0.3,1.5-0.8,1.9-1.3c0.4-0.5,0.7-1.1,0.9-1.8C694.2,508.8,694.3,508.1,694.3,507.3z"
				/>
			<path class="st1" d="M708.9,500.3c1.5-1,3.1-1.7,4.7-2.3c1.6-0.5,3.3-0.8,5-0.8c1.7,0,3.1,0.3,4.3,0.9c1.2,0.6,2.3,1.5,3.1,2.6
				c1.5-1.1,3-2,4.6-2.6c1.6-0.6,3.2-1,5-1c3.4,0,5.9,1,7.7,2.9c1.8,2,2.6,4.5,2.6,7.7v20.4c0,0.6-0.2,1.1-0.5,1.4
				c-0.3,0.4-0.8,0.5-1.6,0.5c-0.7,0-1.2-0.2-1.6-0.5c-0.4-0.4-0.5-0.8-0.5-1.4v-20.3c0-2-0.5-3.7-1.6-5c-1-1.4-2.7-2.1-4.8-2.1
				c-1.5,0-2.9,0.4-4.3,1.1c-1.4,0.7-2.5,1.6-3.4,2.7c0.1,0.5,0.2,1,0.2,1.5c0.1,0.5,0.1,1.1,0.1,1.7v20.4c0,0.6-0.2,1.1-0.5,1.4
				c-0.3,0.4-0.8,0.5-1.6,0.5c-0.7,0-1.2-0.2-1.6-0.5c-0.3-0.4-0.5-0.8-0.5-1.4v-19c0-1.2-0.1-2.4-0.2-3.4c-0.1-1-0.4-1.9-0.8-2.7
				c-0.4-0.7-1-1.3-1.8-1.7s-1.8-0.6-3.1-0.6c-1.5,0-2.9,0.3-4.4,0.9c-1.4,0.6-2.7,1.3-3.7,2c0.1,0.8,0.2,1.5,0.2,2.3v22.2
				c0,0.6-0.2,1.1-0.5,1.4c-0.3,0.4-0.8,0.5-1.5,0.5c-0.7,0-1.2-0.2-1.6-0.5c-0.3-0.4-0.5-0.8-0.5-1.4V506c0-1.1-0.1-2-0.2-2.8
				c-0.1-0.7-0.5-1.4-0.9-2.1c-0.3-0.3-0.4-0.7-0.4-1.1c0-0.5,0.2-1,0.6-1.3c0.4-0.3,0.8-0.5,1.3-0.5c0.4,0,0.9,0.1,1.3,0.4
				C708.1,499,708.5,499.6,708.9,500.3z"/>
		</g>
	</g>
</g>
<g>
	<circle class="st2" cx="232.4" cy="275.1" r="23.5"/>
	<circle class="st3" cx="374.8" cy="124.7" r="77"/>
	<circle class="st4" cx="442.3" cy="276.1" r="55.7"/>
	<circle class="st1" cx="317.7" cy="254.7" r="37.7"/>
	<path class="st5" d="M477.6,147.1c0,51.6,41.8,93.4,93.4,93.4s93.4-41.8,93.4-93.4S622.6,53.7,571,53.7S477.6,95.5,477.6,147.1z
		 M518.5,148.8c0-29,23.5-52.4,52.4-52.4s52.4,23.5,52.4,52.4c0,29-23.5,52.4-52.4,52.4S518.5,177.7,518.5,148.8z"/>
</g>
</svg>
