<?xml version="1.0" encoding="utf-8"?>
<!-- Generator: Adobe Illustrator 22.0.1, SVG Export Plug-In . SVG Version: 6.00 Build 0)  -->
<svg version="1.1" xmlns="http://www.w3.org/2000/svg" xmlns:xlink="http://www.w3.org/1999/xlink" x="0px" y="0px"
	 viewBox="0 0 881.8 453.5" style="enable-background:new 0 0 881.8 453.5;" xml:space="preserve">
<style type="text/css">
	.st0{fill:#BBCC00;}
	.st1{fill:#EE9900;}
	.st2{fill:#00AACC;}
	.st3{fill:#AAAAAA;}
</style>
<g id="Logo">
	<polygon class="st0" points="508,236.5 577.1,236.5 577.1,167.4 508.3,167.4 	"/>
	<rect x="508" y="29.3" class="st0" width="69.1" height="69.1"/>
	<path class="st1" d="M334.4,27.5C276.7,27.5,230,74.3,230,132c0,57.7,46.8,104.5,104.5,104.5h104.5V132
		C438.9,74.3,392.1,27.5,334.4,27.5z M369.3,166.8h-34.8c0,0,0,0,0,0c-19.2,0-34.8-15.6-34.8-34.8c0-19.2,15.6-34.8,34.8-34.8
		c19.2,0,34.8,15.6,34.8,34.8V166.8z"/>
	<g>
		<path class="st2" d="M93.3,349.5h-8.8c-0.9,0-1.6-0.7-1.6-1.6v-1.3c-3.1,2.2-6.2,3.5-10.9,3.5c-6.8,0-13.4-3.3-13.4-13.5V336
			c0-9.2,5.9-13.3,19.3-13.3h4.2v-2.8c0-4.5-2.2-5.4-5.9-5.4c-5,0-10.6,0.3-13.1,0.6h-0.4c-0.8,0-1.4-0.4-1.4-1.4v-6.4
			c0-0.9,0.6-1.5,1.5-1.7c2.9-0.7,8.4-1.7,13.6-1.7c11.3,0,18.4,4.6,18.4,16v28.1C94.9,348.8,94.2,349.5,93.3,349.5z M82.4,330.2
			h-4.5c-5.5,0-6.9,1.9-6.9,5.7v0.7c0,3.3,1.7,3.9,5,3.9c2.4,0,4.6-0.8,6.4-1.7V330.2z"/>
		<path class="st2" d="M129.4,314.3h-0.6c-3.9,0-7.2,1.2-10.1,2.8v30.7c0,0.9-0.7,1.7-1.6,1.7h-9.5c-0.9,0-1.7-0.8-1.7-1.7V306
			c0-0.9,0.7-1.6,1.6-1.6h9.4c0.9,0,1.6,0.7,1.6,1.6v1.6c2.9-2.4,6.8-3.8,10.6-3.8c0.9,0,1.6,0.7,1.6,1.6v7.5
			C130.6,313.5,130.1,314.3,129.4,314.3z"/>
		<path class="st2" d="M164.2,349.6c-2.4,0.4-3.9,0.6-6.2,0.6c-8.6,0-13.2-2.3-13.2-13.4v-22.8l-6.3-1c-0.9-0.2-1.7-0.8-1.7-1.7
			v-5.2c0-0.9,0.8-1.7,1.7-1.7h6.3V298c0-0.9,0.7-1.4,1.6-1.6l9.6-1.7c0.1,0,0.2,0,0.2,0c0.8,0,1.4,0.5,1.4,1.3v8.3h6.4
			c0.9,0,1.6,0.7,1.6,1.6v6.4c0,0.9-0.7,1.6-1.6,1.6h-6.4v22.9c0,3.1,0.2,3.7,2.6,3.7h3.9c1,0,1.7,0.5,1.7,1.3v6.1
			C165.7,348.8,165.2,349.4,164.2,349.6z"/>
		<path class="st2" d="M210.9,330.9h-25.1v0.2c0,4.5,1.9,8.6,8.1,8.6c5,0,12-0.4,15.1-0.7c0.1,0,0.2,0,0.2,0c0.9,0,1.5,0.4,1.5,1.3
			v6c0,1.3-0.3,1.8-1.7,2.1c-5,1.3-9.3,1.9-16.1,1.9c-9.5,0-19.7-5-19.7-20.2v-5.5c0-12.7,7.4-20.7,19.9-20.7
			c12.9,0,19.4,8.8,19.4,20.7v4.6C212.6,330.2,211.9,330.9,210.9,330.9z M200.1,322.7c0-5.8-2.7-8.7-7.1-8.7c-4.3,0-7.2,3-7.2,8.7
			v0.3h14.3V322.7z"/>
		<path class="st2" d="M260.7,306.2l-9.9,35.7c-2,7-6.8,8.3-11.4,8.3c-4.6,0-9.4-1.3-11.3-8.3l-9.8-35.7c-0.1-0.2-0.1-0.3-0.1-0.5
			c0-0.8,0.6-1.3,1.3-1.3h10.4c0.8,0,1.4,0.7,1.7,1.7l6.8,30.8c0.2,1.2,0.6,1.7,1.2,1.7c0.6,0,1-0.5,1.3-1.7l6.8-30.8
			c0.2-0.9,0.9-1.7,1.7-1.7h10.4c0.7,0,1.3,0.6,1.3,1.3C260.8,305.9,260.8,306.1,260.7,306.2z"/>
		<path class="st2" d="M304,330.9h-25.1v0.2c0,4.5,1.9,8.6,8.1,8.6c5,0,12-0.4,15.1-0.7c0.1,0,0.2,0,0.2,0c0.9,0,1.5,0.4,1.5,1.3v6
			c0,1.3-0.3,1.8-1.7,2.1c-5,1.3-9.3,1.9-16.1,1.9c-9.5,0-19.7-5-19.7-20.2v-5.5c0-12.7,7.4-20.7,19.9-20.7
			c12.9,0,19.4,8.8,19.4,20.7v4.6C305.7,330.2,305,330.9,304,330.9z M293.2,322.7c0-5.8-2.7-8.7-7.1-8.7c-4.3,0-7.2,3-7.2,8.7v0.3
			h14.3V322.7z"/>
		<path class="st2" d="M326.7,349.5h-9.6c-0.9,0-1.7-0.8-1.7-1.7v-57.1c0-0.9,0.8-1.6,1.7-1.6h9.6c0.9,0,1.5,0.7,1.5,1.6v57.1
			C328.1,348.7,327.5,349.5,326.7,349.5z"/>
		<path class="st2" d="M374.1,348.1c-4.5,1.1-10.7,2-16.7,2c-12.7,0-19.7-7.4-19.7-20.1v-6.1c0-12.3,6.4-20.1,19.7-20.1
			c1.6,0,4.2,0.2,6.4,0.5v-13.6c0-0.9,0.7-1.6,1.6-1.6h9.5c0.9,0,1.7,0.7,1.7,1.6v55.1C376.6,347.1,376.3,347.7,374.1,348.1z
			 M363.8,314.7c-1.9-0.2-4.6-0.4-6.4-0.4c-5.6,0-7,4.1-7,9.6v6.1c0,5.6,1.4,9.7,7,9.7c2.6,0,5-0.2,6.4-0.5V314.7z"/>
		<path class="st2" d="M424.1,330.9H399v0.2c0,4.5,1.9,8.6,8.1,8.6c5,0,12-0.4,15.1-0.7c0.1,0,0.2,0,0.2,0c0.9,0,1.5,0.4,1.5,1.3v6
			c0,1.3-0.3,1.8-1.7,2.1c-5,1.3-9.3,1.9-16.1,1.9c-9.5,0-19.7-5-19.7-20.2v-5.5c0-12.7,7.4-20.7,19.9-20.7
			c12.9,0,19.4,8.8,19.4,20.7v4.6C425.7,330.2,425.1,330.9,424.1,330.9z M413.3,322.7c0-5.8-2.7-8.7-7.1-8.7c-4.3,0-7.2,3-7.2,8.7
			v0.3h14.3V322.7z"/>
	</g>
	<g>
		<path class="st2" d="M471.5,349.5h-3.8c-0.9,0-1.6-0.7-1.6-1.6V322c0-7.9-3.3-10.3-8.4-10.3c-2.4,0-7.4,0.6-10.9,2.2v34
			c0,0.8-0.7,1.6-1.6,1.6h-3.9c-0.8,0-1.5-0.7-1.5-1.6v-56c0-0.9,0.6-1.6,1.5-1.6h3.9c0.9,0,1.5,0.7,1.5,1.6v16.2
			c3.8-1.7,8.6-2.4,12-2.4c8.3,0,14.2,4.8,14.2,16.4v25.9C473.1,348.8,472.4,349.5,471.5,349.5z"/>
		<path class="st2" d="M499.6,350c-11.6,0-17.5-7.6-17.5-19.2v-6c0-11.6,5.9-19.2,17.5-19.2c11.6,0,17.5,7.6,17.5,19.2v6
			C517.1,342.4,511.1,350,499.6,350z M510.2,324.9c0-8-3.2-13.1-10.6-13.1c-7.3,0-10.5,5-10.5,13.1v6c0,8,3.1,13.1,10.5,13.1
			c7.3,0,10.6-5,10.6-13.1V324.9z"/>
		<path class="st2" d="M561,311.5l-2.8,0.6c1.4,1.5,2.7,3.9,2.7,8.1v0.6c0,8.6-5.3,13.4-17.5,13.4c-4.2,0-6.8-0.6-9.1-1.6
			c-1.3,0.6-2,1.5-2,2.7c0,1.3,0.6,2,2.4,2.5l11.7,3c7.7,2,15.1,4.2,15.1,11.6v0.6c0,7.5-5,12.2-17.9,12.2
			c-12.4,0-18.1-4.8-18.1-12.5V352c0-4.4,2.4-8,5-10l-0.5-0.2c-2.5-1.1-3.6-3.7-3.6-6.1v-0.1c0-2.1,1-4.4,3.2-5.7
			c-2.4-2.3-3.6-5.1-3.6-9.1v-0.6c0-7,3.9-13.9,17.5-13.9h17.2c0.9,0,1.8,0.8,1.8,1.7v2C562.4,311,561.8,311.3,561,311.5z
			 M554.6,352.4c0-3.1-2.5-4.3-9.6-6.1l-8.9-2.3c-2.3,2-3.9,3.9-3.9,8v0.7c0,4.4,2.6,7.2,11.3,7.2c9,0,11-2.5,11-6.8V352.4z
			 M554,320.2c0-4.7-2.1-8.4-10.6-8.4c-8.8,0-10.6,4-10.6,8.4v0.6c0,3.5,1.6,8,10.6,8c8.5,0,10.6-3.3,10.6-8V320.2z"/>
		<path class="st2" d="M602.4,330.1h-26.3v1.1c0,9.4,3.7,12.8,10.9,12.8c4.6,0,10.4-0.3,14-0.9c0.2,0,0.2,0,0.4,0
			c0.6,0,1.3,0.3,1.3,1.1v2.7c0,1-0.3,1.6-1.6,1.8c-4.5,0.9-8.8,1.3-14.1,1.3c-9,0-17.8-4.2-17.8-18.9v-7.1
			c0-11.2,6.2-18.4,17.5-18.4c11.5,0,17.3,7.2,17.3,18.4v4.2C603.9,329.3,603.3,330.1,602.4,330.1z M596.9,324.1
			c0-8.9-3.4-12.3-10.3-12.3c-6.8,0-10.5,3.9-10.5,12.3v0.7h20.8V324.1z"/>
		<path class="st2" d="M626,350c-2.9,0-8.6-0.2-12.4-1.2c-1-0.2-1.7-0.7-1.7-1.6v-2.8c0-0.7,0.6-1.2,1.4-1.2c0.2,0,0.2,0,0.3,0
			c3.8,0.5,9.5,0.9,12.3,0.9c5.1,0,7.8-1.3,7.8-5.6c0-2.4-1.4-3.9-5.9-6.5l-7.9-4.7c-4.8-2.9-8-6.3-8-11.2c0-8.2,6.1-10.5,14.2-10.5
			c4.4,0,8.6,0.4,12.3,1c1,0.2,1.5,0.7,1.5,1.6v2.6c0,0.9-0.5,1.3-1.3,1.3c-0.1,0-0.2,0-0.2,0c-2.8-0.2-7.8-0.6-12.2-0.6
			c-4.4,0-7.3,0.6-7.3,4.6c0,2.4,1.8,3.9,5.4,6l7.8,4.6c6.5,3.9,8.6,7.2,8.6,11.9C640.7,346.6,634.8,350,626,350z"/>
		<path class="st2" d="M675.1,349.2c-2.6,0.5-6.1,0.9-9.8,0.9c-10.7,0-16.7-7.5-16.7-19.1v-6.1c0-11.6,6-19.1,16.7-19.1
			c3.6,0,7.2,0.4,9.8,0.9c1.3,0.2,1.6,0.6,1.6,1.7v2.8c0,0.8-0.6,1.2-1.3,1.2c-0.2,0-0.2,0-0.3,0c-3.5-0.4-5.9-0.5-9.8-0.5
			c-6.3,0-9.8,4.2-9.8,13.1v6.1c0,8.8,3.5,13.1,9.8,13.1c3.9,0,6.3-0.2,9.8-0.6c0.1,0,0.2,0,0.3,0c0.7,0,1.3,0.4,1.3,1.2v2.8
			C676.7,348.5,676.4,348.9,675.1,349.2z"/>
		<path class="st2" d="M717,349.5h-3.8c-0.9,0-1.6-0.7-1.6-1.6V322c0-7.9-3.3-10.3-8.4-10.3c-2.4,0-7.4,0.6-10.8,2.2v34
			c0,0.8-0.7,1.6-1.6,1.6H687c-0.8,0-1.5-0.7-1.5-1.6v-56c0-0.9,0.6-1.6,1.5-1.6h3.9c0.9,0,1.5,0.7,1.5,1.6v16.2
			c3.8-1.7,8.6-2.4,12-2.4c8.3,0,14.2,4.8,14.2,16.4v25.9C718.6,348.8,717.9,349.5,717,349.5z"/>
		<path class="st2" d="M744.3,350c-11.6,0-17.5-7.6-17.5-19.2v-6c0-11.6,5.9-19.2,17.5-19.2c11.6,0,17.5,7.6,17.5,19.2v6
			C761.9,342.4,755.9,350,744.3,350z M755,324.9c0-8-3.2-13.1-10.6-13.1c-7.3,0-10.5,5-10.5,13.1v6c0,8,3.1,13.1,10.5,13.1
			c7.3,0,10.6-5,10.6-13.1V324.9z"/>
		<path class="st2" d="M787,350c-11.6,0-17.5-7.6-17.5-19.2v-6c0-11.6,5.9-19.2,17.5-19.2c11.6,0,17.5,7.6,17.5,19.2v6
			C804.6,342.4,798.6,350,787,350z M797.6,324.9c0-8-3.2-13.1-10.6-13.1c-7.3,0-10.5,5-10.5,13.1v6c0,8,3.1,13.1,10.5,13.1
			c7.3,0,10.6-5,10.6-13.1V324.9z"/>
		<path class="st2" d="M818.2,349.5h-4.1c-0.8,0-1.4-0.7-1.4-1.6v-56.1c0-0.8,0.6-1.5,1.4-1.5h4.1c0.8,0,1.4,0.6,1.4,1.5v56.1
			C819.6,348.7,819,349.5,818.2,349.5z"/>
	</g>
</g>
<g id="woordbeeld_zonder__baseline">
	<g>
		<g>
			<path class="st3" d="M72.5,401.4c-1,0.2-4.1,0.5-5.9,0.5c-4.5,0-8-1.2-8-7.2v-18.4c0-0.4,0.3-0.7,0.7-0.7h3.4
				c0.4,0,0.7,0.3,0.7,0.7v18.4c0,2.3,0.7,3,2.7,3h6.4c0.4,0,0.7,0.3,0.7,0.7v2.2C73.2,401.1,73,401.3,72.5,401.4z"/>
			<path class="st3" d="M82.2,401.6h-3.4c-0.4,0-0.7-0.3-0.7-0.7v-24.6c0-0.4,0.3-0.7,0.7-0.7h3.4c0.4,0,0.7,0.3,0.7,0.7v24.6
				C82.9,401.3,82.5,401.6,82.2,401.6z"/>
			<path class="st3" d="M97.3,401.8c-2.5,0-5.8-0.2-6.8-0.4c-0.6-0.1-0.9-0.4-0.9-1.1v-23.5c0-0.7,0.3-1,0.9-1.1
				c1-0.2,4.4-0.4,6.8-0.4c6.9,0,10.9,3.8,10.9,10.7v5.1C108.2,398.1,104.3,401.8,97.3,401.8z M103.5,386c0-5.2-2.6-6.6-6.1-6.6
				c-1.3,0-2.2,0.1-2.9,0.1v18.1c0.7,0,1.6,0.1,2.9,0.1c3.5,0,6.1-1.4,6.1-6.6V386z"/>
			<path class="st3" d="M143.8,376.4l-5.7,21.9c-0.8,3.2-3.3,3.6-4.8,3.6c-1.5,0-4-0.3-4.8-3.6l-5.7-21.9c0-0.1,0-0.1,0-0.2
				c0-0.3,0.3-0.6,0.6-0.6h3.7c0.3,0,0.6,0.3,0.7,0.6l5,21c0.1,0.4,0.2,0.6,0.6,0.6c0.3,0,0.5-0.1,0.6-0.6l5-21
				c0.1-0.3,0.3-0.6,0.7-0.6h3.7c0.3,0,0.6,0.2,0.6,0.6C143.8,376.3,143.8,376.3,143.8,376.4z"/>
			<path class="st3" d="M167.3,401.6h-3.7c-0.3,0-0.6-0.3-0.7-0.6l-1.6-6.6h-8l-1.6,6.6c-0.1,0.3-0.3,0.6-0.7,0.6h-3.7
				c-0.3,0-0.6-0.2-0.6-0.6c0,0,0-0.1,0-0.2l5.7-21.9c0.8-3.2,3.3-3.6,4.8-3.6c1.5,0,4,0.3,4.8,3.6l5.7,21.9c0,0.1,0,0.1,0,0.2
				C168,401.3,167.7,401.6,167.3,401.6z M158,380c-0.1-0.4-0.2-0.6-0.6-0.6c-0.3,0-0.4,0.1-0.6,0.6l-2.5,10.4h6.1L158,380z"/>
			<path class="st3" d="M190.8,401.6h-3.5c-0.8,0-1.6,0-2.1-1.3l-7.7-17c-0.1-0.2-0.2-0.3-0.3-0.3c-0.1,0-0.2,0.1-0.2,0.3v17.6
				c0,0.4-0.3,0.7-0.7,0.7h-2.9c-0.4,0-0.7-0.3-0.7-0.7V377c0-0.8,0.6-1.4,1.4-1.4h3.7c0.7,0,1.1,0.2,1.5,1.1l8.1,17.9
				c0.1,0.2,0.2,0.3,0.3,0.3c0.1,0,0.2-0.1,0.2-0.3v-18.4c0-0.4,0.3-0.7,0.7-0.7h3c0.4,0,0.7,0.3,0.7,0.7v23.9
				C192.2,400.9,191.6,401.6,190.8,401.6z"/>
			<path class="st3" d="M216.9,401.8c-2.5,0-5.8-0.2-6.8-0.4c-0.6-0.1-0.9-0.4-0.9-1.1v-23.5c0-0.7,0.3-1,0.9-1.1
				c1-0.2,4.4-0.4,6.8-0.4c6.9,0,10.9,3.8,10.9,10.7v5.1C227.8,398.1,223.9,401.8,216.9,401.8z M223,386c0-5.2-2.6-6.6-6.1-6.6
				c-1.3,0-2.2,0.1-2.9,0.1v18.1c0.7,0,1.6,0.1,2.9,0.1c3.5,0,6.1-1.4,6.1-6.6V386z"/>
			<path class="st3" d="M248.5,401.4c-1.1,0.2-2.5,0.5-6.6,0.5c-4.5,0-8-1.2-8-7.2v-12.2c0-5.9,3.5-7.2,8-7.2c4.1,0,5.5,0.3,6.6,0.5
				c0.5,0.1,0.7,0.2,0.7,0.7v2.2c0,0.4-0.3,0.7-0.7,0.7h-7.1c-2,0-2.7,0.7-2.7,3v3.8h9.4c0.4,0,0.7,0.3,0.7,0.7v2.5
				c0,0.4-0.3,0.7-0.7,0.7h-9.4v4.5c0,2.3,0.7,3,2.7,3h7.1c0.4,0,0.7,0.3,0.7,0.7v2.2C249.2,401.1,249,401.3,248.5,401.4z"/>
		</g>
		<g>
			<path class="st3" d="M284.3,401.6h-3.7c-0.3,0-0.6-0.3-0.7-0.6l-1.6-6.6h-8l-1.6,6.6c-0.1,0.3-0.3,0.6-0.7,0.6h-3.7
				c-0.3,0-0.6-0.2-0.6-0.6c0,0,0-0.1,0-0.2l5.7-21.9c0.8-3.2,3.3-3.6,4.8-3.6c1.5,0,4,0.3,4.8,3.6l5.7,21.9c0,0.1,0,0.1,0,0.2
				C284.9,401.3,284.6,401.6,284.3,401.6z M274.9,380c-0.1-0.4-0.2-0.6-0.6-0.6s-0.5,0.1-0.6,0.6l-2.5,10.4h6.1L274.9,380z"/>
		</g>
		<g>
			<path class="st3" d="M296.2,401.8c-2.6,0-4.5-0.2-6.1-0.6c-0.3-0.1-0.7-0.3-0.7-0.7V398c0-0.4,0.3-0.7,0.7-0.7c0,0,0,0,0.1,0
				c1.4,0.2,4.9,0.4,6.1,0.4c3.1,0,4-1.1,4-3.1c0-1.4-0.7-2.1-2.9-3.4l-4.6-2.8c-3.2-1.9-4.1-3.9-4.1-6.4c0-3.8,2.2-6.6,8.7-6.6
				c2.3,0,5.5,0.3,6.7,0.6c0.3,0.1,0.6,0.3,0.6,0.7v2.6c0,0.3-0.2,0.6-0.6,0.6c0,0,0,0-0.1,0c-2.3-0.2-4.6-0.3-6.8-0.3
				c-2.6,0-3.6,0.9-3.6,2.5c0,1.2,0.6,1.9,2.8,3.1l4.2,2.3c3.8,2.1,4.8,4.4,4.8,7.1C305.3,398.1,303.1,401.8,296.2,401.8z"/>
			<path class="st3" d="M317.5,401.8c-2.6,0-4.5-0.2-6.1-0.6c-0.3-0.1-0.7-0.3-0.7-0.7V398c0-0.4,0.3-0.7,0.7-0.7c0,0,0,0,0.1,0
				c1.4,0.2,4.9,0.4,6.1,0.4c3.1,0,4-1.1,4-3.1c0-1.4-0.7-2.1-2.9-3.4l-4.6-2.8c-3.2-1.9-4.1-3.9-4.1-6.4c0-3.8,2.2-6.6,8.7-6.6
				c2.3,0,5.5,0.3,6.7,0.6c0.3,0.1,0.6,0.3,0.6,0.7v2.6c0,0.3-0.2,0.6-0.6,0.6c0,0,0,0-0.1,0c-2.3-0.2-4.6-0.3-6.8-0.3
				c-2.6,0-3.6,0.9-3.6,2.5c0,1.2,0.6,1.9,2.8,3.1l4.2,2.3c3.8,2.1,4.8,4.4,4.8,7.1C326.6,398.1,324.5,401.8,317.5,401.8z"/>
			<path class="st3" d="M341.6,401.8c-5.7,0-9.9-3.2-9.9-10.9v-4.7c0-7.7,4.2-10.9,9.9-10.9s9.9,3.2,9.9,10.9v4.7
				C351.4,398.6,347.3,401.8,341.6,401.8z M346.6,386.3c0-4.6-1.6-6.7-5-6.7c-3.4,0-5,2.1-5,6.7v4.7c0,4.6,1.6,6.7,5,6.7
				c3.4,0,5-2.1,5-6.7V386.3z"/>
			<path class="st3" d="M372.1,401.3c-0.5,0.1-2.8,0.6-5.5,0.6c-4.2,0-9.8-2.1-9.8-10.7V386c0-8.8,5.7-10.7,9.8-10.7
				c2.7,0,5,0.4,5.5,0.6c0.4,0.1,0.8,0.3,0.8,0.8v2.3c0,0.4-0.2,0.7-0.7,0.7c0,0,0,0-0.1,0c-1.2-0.1-3.6-0.3-5.4-0.3
				c-2.9,0-5,1.6-5,6.5v5.1c0,4.9,2.1,6.5,5,6.5c1.8,0,4.2-0.2,5.4-0.3c0,0,0.1,0,0.1,0c0.5,0,0.7,0.3,0.7,0.7v2.3
				C372.9,401,372.6,401.1,372.1,401.3z"/>
			<path class="st3" d="M382.7,401.6h-3.4c-0.4,0-0.7-0.3-0.7-0.7v-24.6c0-0.4,0.3-0.7,0.7-0.7h3.4c0.4,0,0.7,0.3,0.7,0.7v24.6
				C383.4,401.3,383.1,401.6,382.7,401.6z"/>
			<path class="st3" d="M408.7,401.6H405c-0.3,0-0.6-0.3-0.7-0.6l-1.6-6.6h-8l-1.6,6.6c-0.1,0.3-0.3,0.6-0.7,0.6h-3.7
				c-0.3,0-0.6-0.2-0.6-0.6c0,0,0-0.1,0-0.2l5.7-21.9c0.8-3.2,3.3-3.6,4.8-3.6c1.5,0,4,0.3,4.8,3.6l5.7,21.9c0,0.1,0,0.1,0,0.2
				C409.3,401.3,409,401.6,408.7,401.6z M399.3,380c-0.1-0.4-0.2-0.6-0.6-0.6c-0.3,0-0.5,0.1-0.6,0.6l-2.5,10.4h6.1L399.3,380z"/>
			<path class="st3" d="M430.1,379.7H424v21.2c0,0.4-0.3,0.7-0.7,0.7h-3.4c-0.4,0-0.7-0.3-0.7-0.7v-21.2h-6.1
				c-0.4,0-0.7-0.2-0.7-0.6v-2.8c0-0.4,0.3-0.7,0.7-0.7h17c0.4,0,0.7,0.3,0.7,0.7v2.8C430.7,379.4,430.4,379.7,430.1,379.7z"/>
			<path class="st3" d="M439.9,401.6h-3.4c-0.4,0-0.7-0.3-0.7-0.7v-24.6c0-0.4,0.3-0.7,0.7-0.7h3.4c0.4,0,0.7,0.3,0.7,0.7v24.6
				C440.6,401.3,440.2,401.6,439.9,401.6z"/>
			<path class="st3" d="M461.9,401.4c-1.1,0.2-2.5,0.5-6.6,0.5c-4.5,0-8-1.2-8-7.2v-12.2c0-5.9,3.5-7.2,8-7.2c4.1,0,5.5,0.3,6.6,0.5
				c0.5,0.1,0.7,0.2,0.7,0.7v2.2c0,0.4-0.3,0.7-0.7,0.7h-7.1c-2,0-2.7,0.7-2.7,3v3.8h9.4c0.4,0,0.7,0.3,0.7,0.7v2.5
				c0,0.4-0.3,0.7-0.7,0.7h-9.4v4.5c0,2.3,0.7,3,2.7,3h7.1c0.4,0,0.7,0.3,0.7,0.7v2.2C462.6,401.1,462.4,401.3,461.9,401.4z"/>
			<path class="st3" d="M488.4,401.8c-5.6,0-9.5-2.4-9.5-9.9v-15.7c0-0.4,0.3-0.7,0.7-0.7h3.4c0.4,0,0.7,0.3,0.7,0.7V392
				c0,4,1,5.9,4.7,5.9c3.7,0,4.7-1.9,4.7-5.9v-15.7c0-0.4,0.3-0.7,0.7-0.7h3.4c0.4,0,0.7,0.3,0.7,0.7V392
				C498,399.4,494,401.8,488.4,401.8z"/>
			<path class="st3" d="M522.7,401.6h-3.5c-0.8,0-1.6,0-2.1-1.3l-7.7-17c-0.1-0.2-0.2-0.3-0.3-0.3c-0.1,0-0.2,0.1-0.2,0.3v17.6
				c0,0.4-0.3,0.7-0.7,0.7h-2.9c-0.4,0-0.7-0.3-0.7-0.7V377c0-0.8,0.6-1.4,1.4-1.4h3.7c0.7,0,1.1,0.2,1.5,1.1l8.1,17.9
				c0.1,0.2,0.2,0.3,0.3,0.3c0.1,0,0.2-0.1,0.2-0.3v-18.4c0-0.4,0.3-0.7,0.7-0.7h3c0.4,0,0.7,0.3,0.7,0.7v23.9
				C524.1,400.9,523.4,401.6,522.7,401.6z"/>
			<path class="st3" d="M535,401.6h-3.4c-0.4,0-0.7-0.3-0.7-0.7v-24.6c0-0.4,0.3-0.7,0.7-0.7h3.4c0.4,0,0.7,0.3,0.7,0.7v24.6
				C535.6,401.3,535.3,401.6,535,401.6z"/>
			<path class="st3" d="M561.7,376.4l-5.7,21.9c-0.8,3.2-3.3,3.6-4.8,3.6c-1.5,0-4-0.3-4.8-3.6l-5.7-21.9c0-0.1,0-0.1,0-0.2
				c0-0.3,0.3-0.6,0.6-0.6h3.7c0.3,0,0.6,0.3,0.7,0.6l5,21c0.1,0.4,0.2,0.6,0.5,0.6c0.3,0,0.5-0.1,0.6-0.6l5-21
				c0.1-0.3,0.3-0.6,0.7-0.6h3.7c0.3,0,0.6,0.2,0.6,0.6C561.7,376.3,561.7,376.3,561.7,376.4z"/>
			<path class="st3" d="M581.3,401.4c-1.1,0.2-2.5,0.5-6.6,0.5c-4.5,0-8-1.2-8-7.2v-12.2c0-5.9,3.5-7.2,8-7.2c4.1,0,5.5,0.3,6.6,0.5
				c0.5,0.1,0.7,0.2,0.7,0.7v2.2c0,0.4-0.3,0.7-0.7,0.7h-7.1c-2,0-2.7,0.7-2.7,3v3.8h9.4c0.4,0,0.7,0.3,0.7,0.7v2.5
				c0,0.4-0.3,0.7-0.7,0.7h-9.4v4.5c0,2.3,0.7,3,2.7,3h7.1c0.4,0,0.7,0.3,0.7,0.7v2.2C582,401.1,581.8,401.3,581.3,401.4z"/>
			<path class="st3" d="M606.6,401.6h-4.2c-0.4,0-0.5-0.4-0.7-0.7l-5-9.3h-0.5c-0.9,0-2.3-0.1-3.1-0.1v9.5c0,0.4-0.3,0.7-0.7,0.7
				h-3.5c-0.4,0-0.7-0.3-0.7-0.7v-24c0-0.7,0.4-0.9,1.1-1c1.8-0.3,4.3-0.5,6.8-0.5c5.3,0,10,1.9,10,7.9v0.3c0,3.7-1.8,6-4.7,7.1
				l5.4,10.2c0.1,0.1,0.1,0.2,0.1,0.3C607,401.4,606.8,401.6,606.6,401.6z M601.4,383.2c0-2.6-1.7-3.7-5.2-3.7
				c-0.7,0-2.5,0.1-3.1,0.1v7.9c0.6,0,2.5,0.1,3.1,0.1c3.6,0,5.2-1,5.2-4V383.2z"/>
			<path class="st3" d="M618.9,401.8c-2.6,0-4.5-0.2-6.1-0.6c-0.3-0.1-0.7-0.3-0.7-0.7V398c0-0.4,0.3-0.7,0.7-0.7c0,0,0,0,0.1,0
				c1.4,0.2,4.9,0.4,6.1,0.4c3.1,0,4-1.1,4-3.1c0-1.4-0.7-2.1-2.9-3.4l-4.6-2.8c-3.2-1.9-4.1-3.9-4.1-6.4c0-3.8,2.2-6.6,8.7-6.6
				c2.3,0,5.5,0.3,6.7,0.6c0.3,0.1,0.6,0.3,0.6,0.7v2.6c0,0.3-0.2,0.6-0.6,0.6c0,0,0,0-0.1,0c-2.3-0.2-4.6-0.3-6.8-0.3
				c-2.6,0-3.6,0.9-3.6,2.5c0,1.2,0.6,1.9,2.8,3.1l4.2,2.3c3.8,2.1,4.8,4.4,4.8,7.1C628.1,398.1,625.9,401.8,618.9,401.8z"/>
			<path class="st3" d="M637.9,401.6h-3.4c-0.4,0-0.7-0.3-0.7-0.7v-24.6c0-0.4,0.3-0.7,0.7-0.7h3.4c0.4,0,0.7,0.3,0.7,0.7v24.6
				C638.6,401.3,638.3,401.6,637.9,401.6z"/>
			<path class="st3" d="M661.3,379.7h-6.1v21.2c0,0.4-0.3,0.7-0.7,0.7h-3.4c-0.4,0-0.7-0.3-0.7-0.7v-21.2h-6.1
				c-0.4,0-0.7-0.2-0.7-0.6v-2.8c0-0.4,0.3-0.7,0.7-0.7h17c0.4,0,0.7,0.3,0.7,0.7v2.8C662,379.4,661.7,379.7,661.3,379.7z"/>
			<path class="st3" d="M681.6,401.4c-1.1,0.2-2.5,0.5-6.6,0.5c-4.5,0-8-1.2-8-7.2v-12.2c0-5.9,3.5-7.2,8-7.2c4.1,0,5.5,0.3,6.6,0.5
				c0.5,0.1,0.7,0.2,0.7,0.7v2.2c0,0.4-0.3,0.7-0.7,0.7h-7.1c-2,0-2.7,0.7-2.7,3v3.8h9.4c0.4,0,0.7,0.3,0.7,0.7v2.5
				c0,0.4-0.3,0.7-0.7,0.7h-9.4v4.5c0,2.3,0.7,3,2.7,3h7.1c0.4,0,0.7,0.3,0.7,0.7v2.2C682.3,401.1,682.1,401.3,681.6,401.4z"/>
			<path class="st3" d="M692.7,401.6h-3.4c-0.4,0-0.7-0.3-0.7-0.7v-24.6c0-0.4,0.3-0.7,0.7-0.7h3.4c0.4,0,0.7,0.3,0.7,0.7v24.6
				C693.4,401.3,693,401.6,692.7,401.6z"/>
			<path class="st3" d="M716,379.7H710v21.2c0,0.4-0.3,0.7-0.7,0.7h-3.4c-0.4,0-0.7-0.3-0.7-0.7v-21.2h-6.1c-0.4,0-0.7-0.2-0.7-0.6
				v-2.8c0-0.4,0.3-0.7,0.7-0.7h17c0.4,0,0.7,0.3,0.7,0.7v2.8C716.7,379.4,716.4,379.7,716,379.7z"/>
			<path class="st3" d="M748.1,401.3c-1.7,0.4-4,0.6-7.6,0.6c-3.7,0-9.3-2.5-9.3-10.7v-5c0-8.3,5.3-10.7,9.4-10.7
				c3.3,0,6.3,0.4,7.5,0.6c0.5,0.1,0.7,0.3,0.7,0.7v2.3c0,0.5-0.1,0.7-0.7,0.7c0,0-0.1,0-0.1,0c-1.6-0.1-4-0.3-7.3-0.3
				c-2.3,0-4.5,1.6-4.5,6.6v5c0,5,2.4,6.6,4.4,6.6c1.3,0,2.4,0,3.4-0.1v-8.9c0-0.4,0.3-0.7,0.7-0.7h3.4c0.4,0,0.7,0.3,0.7,0.7v11.7
				C748.8,400.9,748.6,401.1,748.1,401.3z"/>
			<path class="st3" d="M770.1,401.4c-1.1,0.2-2.5,0.5-6.6,0.5c-4.5,0-8-1.2-8-7.2v-12.2c0-5.9,3.5-7.2,8-7.2c4.1,0,5.5,0.3,6.6,0.5
				c0.5,0.1,0.7,0.2,0.7,0.7v2.2c0,0.4-0.3,0.7-0.7,0.7H763c-2,0-2.7,0.7-2.7,3v3.8h9.4c0.4,0,0.7,0.3,0.7,0.7v2.5
				c0,0.4-0.3,0.7-0.7,0.7h-9.4v4.5c0,2.3,0.7,3,2.7,3h7.1c0.4,0,0.7,0.3,0.7,0.7v2.2C770.8,401.1,770.6,401.3,770.1,401.4z"/>
			<path class="st3" d="M795.1,401.6h-3.5c-0.8,0-1.6,0-2.1-1.3l-7.7-17c-0.1-0.2-0.2-0.3-0.3-0.3c-0.1,0-0.2,0.1-0.2,0.3v17.6
				c0,0.4-0.3,0.7-0.7,0.7h-3c-0.4,0-0.7-0.3-0.7-0.7V377c0-0.8,0.6-1.4,1.4-1.4h3.7c0.7,0,1.1,0.2,1.5,1.1l8.1,17.9
				c0.1,0.2,0.2,0.3,0.3,0.3c0.1,0,0.2-0.1,0.2-0.3v-18.4c0-0.4,0.3-0.7,0.7-0.7h3c0.4,0,0.7,0.3,0.7,0.7v23.9
				C796.5,400.9,795.9,401.6,795.1,401.6z"/>
			<path class="st3" d="M819.2,379.7h-6.1v21.2c0,0.4-0.3,0.7-0.7,0.7H809c-0.4,0-0.7-0.3-0.7-0.7v-21.2h-6.1
				c-0.4,0-0.7-0.2-0.7-0.6v-2.8c0-0.4,0.3-0.7,0.7-0.7h17c0.4,0,0.7,0.3,0.7,0.7v2.8C819.9,379.4,819.6,379.7,819.2,379.7z"/>
		</g>
	</g>
</g>
</svg>
