<?xml version="1.0" standalone="no"?>
<!DOCTYPE svg PUBLIC "-//W3C//DTD SVG 20010904//EN"
 "http://www.w3.org/TR/2001/REC-SVG-20010904/DTD/svg10.dtd">
<svg version="1.0" xmlns="http://www.w3.org/2000/svg"
 width="1136.000000pt" height="1136.000000pt" viewBox="0 0 1136.000000 1136.000000"
 preserveAspectRatio="xMidYMid meet">
<metadata>
Created by potrace 1.11, written by Peter Selinger 2001-2013
</metadata>
<g transform="translate(0.000000,1136.000000) scale(0.100000,-0.100000)"
fill="#000000" stroke="none">
<path d="M4126 9083 c-1 -1 -38 -4 -81 -7 -85 -5 -144 -13 -185 -23 -14 -3
-34 -7 -45 -8 -11 -1 -47 -10 -80 -19 -33 -9 -67 -19 -75 -21 -56 -14 -155
-52 -236 -90 -53 -25 -98 -45 -100 -45 -3 0 -10 -5 -17 -10 -7 -6 -51 -34 -99
-64 -47 -29 -92 -58 -100 -64 -7 -6 -25 -22 -40 -34 -15 -13 -42 -34 -59 -48
-46 -35 -188 -177 -224 -224 -16 -21 -35 -44 -40 -50 -20 -22 -105 -145 -105
-152 0 -4 -6 -15 -14 -23 -32 -37 -145 -273 -161 -336 -1 -5 -5 -17 -8 -25
-31 -77 -71 -255 -84 -375 -14 -122 -7 -433 12 -520 3 -11 7 -31 9 -45 13 -71
46 -190 66 -245 5 -11 14 -36 21 -55 12 -36 110 -240 132 -275 122 -200 292
-393 453 -514 38 -28 75 -56 81 -61 46 -38 305 -180 327 -180 4 0 25 -9 49
-19 44 -20 185 -66 227 -75 14 -2 48 -9 75 -15 159 -33 387 -45 535 -28 131
15 153 18 217 32 139 32 363 108 371 128 2 4 9 7 16 7 25 0 279 145 296 170 3
4 12 11 21 16 48 26 244 212 322 304 44 53 137 187 137 199 0 6 3 11 8 11 4 0
12 9 17 19 6 11 27 52 48 93 65 123 139 320 153 408 3 19 8 38 10 41 4 7 16
77 17 97 0 6 3 12 6 12 9 0 14 103 14 280 1 211 -3 239 -59 489 -16 72 -88
258 -135 346 -53 101 -143 244 -184 292 -5 6 -28 33 -50 59 -108 129 -279 276
-436 376 -71 45 -245 129 -329 159 -36 12 -71 27 -77 32 -7 5 -13 7 -13 4 0
-3 -30 3 -67 14 -38 11 -86 22 -107 25 -21 2 -42 6 -45 8 -23 14 -373 40 -385
29z"/>
<path d="M8688 8935 c-2 -2 -30 -5 -63 -8 -33 -3 -60 -6 -60 -7 0 -1 -16 -3
-35 -5 -45 -4 -111 -14 -130 -20 -8 -2 -29 -7 -47 -10 -18 -3 -43 -9 -57 -15
-15 -5 -26 -8 -26 -5 0 11 -277 -92 -375 -140 -161 -79 -324 -175 -333 -197
-2 -5 -10 -8 -17 -8 -7 0 -15 -3 -17 -8 -1 -4 -34 -32 -73 -62 -75 -59 -235
-215 -300 -293 -22 -27 -46 -55 -54 -63 -8 -9 -24 -30 -35 -47 -87 -128 -126
-187 -142 -217 -10 -19 -24 -42 -30 -50 -6 -8 -15 -26 -19 -40 -4 -14 -13 -32
-20 -40 -24 -29 -136 -327 -150 -398 -2 -12 -6 -25 -8 -30 -3 -4 -8 -25 -12
-47 -8 -47 -13 -70 -15 -70 -1 0 -3 -9 -4 -20 -2 -11 -6 -38 -9 -60 -4 -22
-10 -62 -13 -90 -3 -27 -8 -63 -10 -80 -4 -36 -4 -304 1 -358 2 -33 14 -123
20 -167 2 -8 6 -35 9 -60 4 -25 9 -53 12 -62 6 -20 14 -56 19 -83 6 -33 76
-247 97 -295 49 -110 122 -253 158 -309 22 -34 40 -66 40 -71 0 -6 5 -10 10
-10 6 0 10 -4 10 -10 0 -5 7 -18 14 -27 8 -10 32 -41 53 -70 75 -100 197 -231
309 -331 163 -144 324 -247 564 -361 107 -50 359 -129 464 -145 21 -4 48 -8
60 -11 168 -38 580 -38 746 0 14 3 41 8 60 11 19 3 53 10 75 16 22 6 45 11 50
12 6 1 16 5 23 10 7 4 16 5 19 2 3 -3 14 -1 25 5 11 6 27 12 36 14 87 17 368
145 502 228 181 113 407 307 512 439 14 18 38 47 52 63 15 17 39 48 53 70 15
22 33 47 41 55 17 20 76 113 77 122 0 4 7 16 15 26 31 38 155 302 142 302 -4
0 -2 4 3 8 10 7 43 95 50 132 2 10 11 40 20 66 18 51 23 73 30 114 2 14 7 36
10 50 11 50 18 96 19 128 1 17 3 32 6 32 8 0 12 76 13 265 2 184 -8 313 -29
415 -3 14 -8 41 -11 60 -3 19 -9 43 -14 52 -5 9 -9 25 -9 36 0 22 -49 175 -87
272 -31 80 -126 272 -153 310 -11 16 -20 31 -20 34 0 7 -61 97 -81 119 -9 9
-22 29 -30 44 -8 15 -21 35 -29 43 -8 9 -42 47 -75 85 -52 60 -195 206 -195
200 0 -2 -19 15 -42 36 -24 22 -61 52 -83 67 -22 15 -44 33 -48 39 -4 7 -13
13 -18 13 -6 0 -17 6 -24 13 -33 29 -45 37 -54 37 -5 0 -16 6 -23 13 -31 31
-254 146 -368 190 -148 57 -343 113 -425 121 -16 2 -48 6 -70 10 -22 4 -56 9
-75 12 -39 6 -396 14 -402 9z m309 -1019 c23 -4 55 -9 70 -11 15 -2 43 -8 61
-14 17 -5 32 -7 32 -4 0 3 7 0 15 -7 8 -7 15 -10 15 -6 0 3 17 -1 38 -10 20
-8 44 -17 52 -19 60 -13 288 -141 320 -180 7 -8 17 -15 22 -15 12 0 188 -176
188 -188 0 -5 7 -15 15 -22 24 -20 100 -140 137 -220 60 -125 100 -262 115
-386 13 -121 5 -328 -17 -404 -5 -17 -9 -34 -10 -38 -7 -54 -68 -220 -111
-300 -92 -169 -244 -338 -395 -440 -66 -43 -117 -72 -129 -72 -8 0 -15 -3 -15
-7 0 -6 -78 -44 -100 -49 -3 0 -16 -5 -30 -11 -198 -83 -554 -99 -750 -34 -14
5 -45 15 -70 22 -25 7 -51 17 -57 22 -7 5 -13 7 -13 4 0 -12 -161 74 -240 128
-211 144 -374 352 -463 590 -27 74 -48 145 -52 182 -2 11 -6 29 -9 40 -6 21
-19 163 -19 208 1 45 12 176 17 205 12 62 15 76 20 98 4 12 8 31 10 41 17 76
138 341 166 361 3 3 25 30 47 60 40 54 107 126 175 186 47 43 181 134 196 134
7 0 12 3 12 8 0 4 15 13 33 20 17 8 44 20 58 27 34 19 152 60 211 74 45 10 74
16 168 30 53 8 227 6 287 -3z"/>
<path d="M2656 5039 c-91 -18 -112 -25 -203 -66 -195 -87 -379 -285 -453 -487
-41 -112 -53 -180 -54 -306 -1 -69 2 -141 6 -160 4 -19 9 -48 13 -65 16 -84
100 -259 159 -332 26 -33 145 -150 175 -172 47 -35 121 -81 121 -76 0 3 10 -1
23 -9 20 -14 84 -38 167 -64 98 -30 278 -34 410 -9 46 9 141 42 196 68 65 31
166 96 172 111 2 4 10 8 18 8 8 0 14 7 14 15 0 8 4 15 9 15 26 0 144 149 194
245 31 60 65 144 72 183 3 15 11 54 18 87 28 135 4 345 -54 473 -15 34 -25 62
-22 62 3 0 -1 8 -9 18 -8 9 -26 36 -38 60 -13 23 -27 42 -32 42 -4 0 -8 6 -8
13 0 24 -167 185 -232 223 -63 37 -184 94 -198 94 -9 0 -21 5 -28 12 -7 7 -12
9 -12 6 0 -4 -15 -2 -32 3 -97 29 -273 33 -392 8z"/>
<path d="M5635 4969 c-22 -4 -62 -10 -89 -13 -27 -4 -57 -11 -68 -17 -10 -5
-18 -8 -18 -5 0 3 -26 -4 -57 -15 -32 -11 -67 -22 -77 -24 -41 -9 -193 -90
-283 -151 -100 -68 -303 -262 -303 -289 0 -3 -8 -15 -19 -26 -17 -19 -125
-195 -127 -208 0 -3 -7 -19 -14 -36 -7 -16 -14 -32 -14 -35 -1 -3 -9 -25 -18
-50 -9 -25 -22 -65 -29 -90 -7 -25 -14 -49 -15 -55 -2 -5 -5 -23 -8 -40 -4
-16 -9 -46 -13 -65 -9 -50 -11 -318 -2 -360 4 -19 10 -53 13 -75 7 -50 20
-101 35 -137 6 -16 9 -28 6 -28 -8 0 80 -200 108 -245 110 -178 226 -310 347
-395 19 -14 37 -28 40 -31 21 -25 253 -149 279 -149 9 0 21 -4 26 -8 15 -13
123 -44 239 -68 97 -19 305 -19 431 1 68 10 73 12 200 49 6 2 23 8 38 14 16 7
31 12 34 12 16 0 158 73 224 115 158 101 283 224 389 383 81 124 156 289 174
384 3 13 5 24 7 26 1 1 3 7 4 12 1 6 3 11 5 13 3 4 9 40 16 102 4 33 8 71 10
85 13 94 -2 310 -28 405 -6 22 -12 46 -14 53 -16 81 -134 338 -185 400 -13 16
-33 42 -44 57 -11 16 -31 40 -45 55 -14 15 -37 40 -51 56 -44 48 -118 114
-129 114 -5 0 -15 9 -22 20 -7 11 -18 20 -25 20 -7 0 -13 5 -13 10 0 6 -5 10
-11 10 -6 0 -30 13 -54 30 -55 38 -240 125 -290 137 -5 1 -28 7 -50 13 -71 19
-80 21 -107 25 -16 3 -43 8 -60 11 -51 9 -298 11 -343 3z"/>
<path d="M740 4240 c0 -3 -14 -7 -31 -8 -73 -6 -207 -69 -262 -124 -16 -15
-33 -28 -38 -28 -5 0 -9 -4 -9 -10 0 -5 -10 -20 -23 -32 -66 -66 -119 -208
-123 -329 -4 -135 26 -238 102 -344 50 -69 81 -100 144 -141 42 -27 63 -38
123 -63 68 -29 217 -39 297 -19 19 5 45 11 57 13 61 14 191 99 243 159 58 68
113 171 125 234 2 9 4 17 5 17 3 0 11 72 12 110 1 37 -6 97 -17 155 -11 57
-85 187 -137 239 -56 56 -148 121 -173 121 -8 0 -15 5 -15 12 0 6 -3 8 -6 5
-4 -3 -14 -2 -24 3 -39 21 -250 46 -250 30z"/>
</g>
</svg>
