<?xml version="1.0" encoding="utf-8"?>
<!-- Generator: Adobe Illustrator 22.0.1, SVG Export Plug-In . SVG Version: 6.00 Build 0)  -->
<svg version="1.1" xmlns="http://www.w3.org/2000/svg" xmlns:xlink="http://www.w3.org/1999/xlink" x="0px" y="0px"
	 viewBox="0 0 881.8 453.5" style="enable-background:new 0 0 881.8 453.5;" xml:space="preserve">
<style type="text/css">
	.st0{fill:#BBCC00;}
	.st1{fill:#EE9900;}
	.st2{fill:#00AACC;}
</style>
<g id="Logo">
	<polygon class="st0" points="508,266.9 577.1,266.9 577.1,197.8 508.3,197.8 	"/>
	<rect x="508" y="59.7" class="st0" width="69.1" height="69.1"/>
	<path class="st1" d="M334.4,57.9c-57.7,0-104.5,46.8-104.5,104.5c0,57.7,46.8,104.5,104.5,104.5h104.5V162.4
		C438.9,104.7,392.1,57.9,334.4,57.9z M369.3,197.2h-34.8c0,0,0,0,0,0c-19.2,0-34.8-15.6-34.8-34.8c0-19.2,15.6-34.8,34.8-34.8
		c19.2,0,34.8,15.6,34.8,34.8V197.2z"/>
	<g>
		<path class="st2" d="M93.3,379.9h-8.8c-0.9,0-1.6-0.7-1.6-1.6V377c-3.1,2.2-6.2,3.5-10.9,3.5c-6.8,0-13.4-3.3-13.4-13.5v-0.7
			c0-9.2,5.9-13.3,19.3-13.3h4.2v-2.8c0-4.5-2.2-5.4-5.9-5.4c-5,0-10.6,0.3-13.1,0.6h-0.4c-0.8,0-1.4-0.4-1.4-1.4v-6.4
			c0-0.9,0.6-1.5,1.5-1.7c2.9-0.7,8.4-1.7,13.6-1.7c11.3,0,18.4,4.6,18.4,16v28.1C94.9,379.2,94.2,379.9,93.3,379.9z M82.4,360.6
			h-4.5c-5.5,0-6.9,1.9-6.9,5.7v0.7c0,3.3,1.7,3.9,5,3.9c2.4,0,4.6-0.8,6.4-1.7V360.6z"/>
		<path class="st2" d="M129.4,344.7h-0.6c-3.9,0-7.2,1.2-10.1,2.8v30.7c0,0.9-0.7,1.7-1.6,1.7h-9.5c-0.9,0-1.7-0.8-1.7-1.7v-41.8
			c0-0.9,0.7-1.6,1.6-1.6h9.4c0.9,0,1.6,0.7,1.6,1.6v1.6c2.9-2.4,6.8-3.8,10.6-3.8c0.9,0,1.6,0.7,1.6,1.6v7.5
			C130.6,343.9,130.1,344.7,129.4,344.7z"/>
		<path class="st2" d="M164.2,380c-2.4,0.4-3.9,0.6-6.2,0.6c-8.6,0-13.2-2.3-13.2-13.4v-22.8l-6.3-1c-0.9-0.2-1.7-0.8-1.7-1.7v-5.2
			c0-0.9,0.8-1.7,1.7-1.7h6.3v-6.4c0-0.9,0.7-1.4,1.6-1.6l9.6-1.7c0.1,0,0.2,0,0.2,0c0.8,0,1.4,0.5,1.4,1.3v8.3h6.4
			c0.9,0,1.6,0.7,1.6,1.6v6.4c0,0.9-0.7,1.6-1.6,1.6h-6.4v22.9c0,3.1,0.2,3.7,2.6,3.7h3.9c1,0,1.7,0.5,1.7,1.3v6.1
			C165.7,379.2,165.2,379.8,164.2,380z"/>
		<path class="st2" d="M210.9,361.3h-25.1v0.2c0,4.5,1.9,8.6,8.1,8.6c5,0,12-0.4,15.1-0.7c0.1,0,0.2,0,0.2,0c0.9,0,1.5,0.4,1.5,1.3
			v6c0,1.3-0.3,1.8-1.7,2.1c-5,1.3-9.3,1.9-16.1,1.9c-9.5,0-19.7-5-19.7-20.2v-5.5c0-12.7,7.4-20.7,19.9-20.7
			c12.9,0,19.4,8.8,19.4,20.7v4.6C212.6,360.6,211.9,361.3,210.9,361.3z M200.1,353.1c0-5.8-2.7-8.7-7.1-8.7c-4.3,0-7.2,3-7.2,8.7
			v0.3h14.3V353.1z"/>
		<path class="st2" d="M260.7,336.6l-9.9,35.7c-2,7-6.8,8.3-11.4,8.3c-4.6,0-9.4-1.3-11.3-8.3l-9.8-35.7c-0.1-0.2-0.1-0.3-0.1-0.5
			c0-0.8,0.6-1.3,1.3-1.3h10.4c0.8,0,1.4,0.7,1.7,1.7l6.8,30.8c0.2,1.2,0.6,1.7,1.2,1.7c0.6,0,1-0.5,1.3-1.7l6.8-30.8
			c0.2-0.9,0.9-1.7,1.7-1.7h10.4c0.7,0,1.3,0.6,1.3,1.3C260.8,336.3,260.8,336.5,260.7,336.6z"/>
		<path class="st2" d="M304,361.3h-25.1v0.2c0,4.5,1.9,8.6,8.1,8.6c5,0,12-0.4,15.1-0.7c0.1,0,0.2,0,0.2,0c0.9,0,1.5,0.4,1.5,1.3v6
			c0,1.3-0.3,1.8-1.7,2.1c-5,1.3-9.3,1.9-16.1,1.9c-9.5,0-19.7-5-19.7-20.2v-5.5c0-12.7,7.4-20.7,19.9-20.7
			c12.9,0,19.4,8.8,19.4,20.7v4.6C305.7,360.6,305,361.3,304,361.3z M293.2,353.1c0-5.8-2.7-8.7-7.1-8.7c-4.3,0-7.2,3-7.2,8.7v0.3
			h14.3V353.1z"/>
		<path class="st2" d="M326.7,379.9h-9.6c-0.9,0-1.7-0.8-1.7-1.7v-57.1c0-0.9,0.8-1.6,1.7-1.6h9.6c0.9,0,1.5,0.7,1.5,1.6v57.1
			C328.1,379.1,327.5,379.9,326.7,379.9z"/>
		<path class="st2" d="M374.1,378.5c-4.5,1.1-10.7,2-16.7,2c-12.7,0-19.7-7.4-19.7-20.1v-6.1c0-12.3,6.4-20.1,19.7-20.1
			c1.6,0,4.2,0.2,6.4,0.5v-13.6c0-0.9,0.7-1.6,1.6-1.6h9.5c0.9,0,1.7,0.7,1.7,1.6v55.1C376.6,377.5,376.3,378.1,374.1,378.5z
			 M363.8,345.1c-1.9-0.2-4.6-0.4-6.4-0.4c-5.6,0-7,4.1-7,9.6v6.1c0,5.6,1.4,9.7,7,9.7c2.6,0,5-0.2,6.4-0.5V345.1z"/>
		<path class="st2" d="M424.1,361.3H399v0.2c0,4.5,1.9,8.6,8.1,8.6c5,0,12-0.4,15.1-0.7c0.1,0,0.2,0,0.2,0c0.9,0,1.5,0.4,1.5,1.3v6
			c0,1.3-0.3,1.8-1.7,2.1c-5,1.3-9.3,1.9-16.1,1.9c-9.5,0-19.7-5-19.7-20.2v-5.5c0-12.7,7.4-20.7,19.9-20.7
			c12.9,0,19.4,8.8,19.4,20.7v4.6C425.7,360.6,425.1,361.3,424.1,361.3z M413.3,353.1c0-5.8-2.7-8.7-7.1-8.7c-4.3,0-7.2,3-7.2,8.7
			v0.3h14.3V353.1z"/>
	</g>
	<g>
		<path class="st2" d="M471.5,379.9h-3.8c-0.9,0-1.6-0.7-1.6-1.6v-25.9c0-7.9-3.3-10.3-8.4-10.3c-2.4,0-7.4,0.6-10.9,2.2v34
			c0,0.8-0.7,1.6-1.6,1.6h-3.9c-0.8,0-1.5-0.7-1.5-1.6v-56c0-0.9,0.6-1.6,1.5-1.6h3.9c0.9,0,1.5,0.7,1.5,1.6v16.2
			c3.8-1.7,8.6-2.4,12-2.4c8.3,0,14.2,4.8,14.2,16.4v25.9C473.1,379.2,472.4,379.9,471.5,379.9z"/>
		<path class="st2" d="M499.6,380.4c-11.6,0-17.5-7.6-17.5-19.2v-6c0-11.6,5.9-19.2,17.5-19.2c11.6,0,17.5,7.6,17.5,19.2v6
			C517.1,372.8,511.1,380.4,499.6,380.4z M510.2,355.3c0-8-3.2-13.1-10.6-13.1c-7.3,0-10.5,5-10.5,13.1v6c0,8,3.1,13.1,10.5,13.1
			c7.3,0,10.6-5,10.6-13.1V355.3z"/>
		<path class="st2" d="M561,341.9l-2.8,0.6c1.4,1.5,2.7,3.9,2.7,8.1v0.6c0,8.6-5.3,13.4-17.5,13.4c-4.2,0-6.8-0.6-9.1-1.6
			c-1.3,0.6-2,1.5-2,2.7c0,1.3,0.6,2,2.4,2.5l11.7,3c7.7,2,15.1,4.2,15.1,11.6v0.6c0,7.5-5,12.2-17.9,12.2
			c-12.4,0-18.1-4.8-18.1-12.5v-0.7c0-4.4,2.4-8,5-10l-0.5-0.2c-2.5-1.1-3.6-3.7-3.6-6.1V366c0-2.1,1-4.4,3.2-5.7
			c-2.4-2.3-3.6-5.1-3.6-9.1v-0.6c0-7,3.9-13.9,17.5-13.9h17.2c0.9,0,1.8,0.8,1.8,1.7v2C562.4,341.4,561.8,341.7,561,341.9z
			 M554.6,382.8c0-3.1-2.5-4.3-9.6-6.1l-8.9-2.3c-2.3,2-3.9,3.9-3.9,8v0.7c0,4.4,2.6,7.2,11.3,7.2c9,0,11-2.5,11-6.8V382.8z
			 M554,350.6c0-4.7-2.1-8.4-10.6-8.4c-8.8,0-10.6,4-10.6,8.4v0.6c0,3.5,1.6,8,10.6,8c8.5,0,10.6-3.3,10.6-8V350.6z"/>
		<path class="st2" d="M602.4,360.5h-26.3v1.1c0,9.4,3.7,12.8,10.9,12.8c4.6,0,10.4-0.3,14-0.9c0.2,0,0.2,0,0.4,0
			c0.6,0,1.3,0.3,1.3,1.1v2.7c0,1-0.3,1.6-1.6,1.8c-4.5,0.9-8.8,1.3-14.1,1.3c-9,0-17.8-4.2-17.8-18.9v-7.1
			c0-11.2,6.2-18.4,17.5-18.4c11.5,0,17.3,7.2,17.3,18.4v4.2C603.9,359.8,603.3,360.5,602.4,360.5z M596.9,354.5
			c0-8.9-3.4-12.3-10.3-12.3c-6.8,0-10.5,3.9-10.5,12.3v0.7h20.8V354.5z"/>
		<path class="st2" d="M626,380.4c-2.9,0-8.6-0.2-12.4-1.2c-1-0.2-1.7-0.7-1.7-1.6v-2.8c0-0.7,0.6-1.2,1.4-1.2c0.2,0,0.2,0,0.3,0
			c3.8,0.5,9.5,0.9,12.3,0.9c5.1,0,7.8-1.3,7.8-5.6c0-2.4-1.4-3.9-5.9-6.5l-7.9-4.7c-4.8-2.9-8-6.3-8-11.2c0-8.2,6.1-10.5,14.2-10.5
			c4.4,0,8.6,0.4,12.3,1c1,0.2,1.5,0.7,1.5,1.6v2.6c0,0.9-0.5,1.3-1.3,1.3c-0.1,0-0.2,0-0.2,0c-2.8-0.2-7.8-0.6-12.2-0.6
			c-4.4,0-7.3,0.6-7.3,4.6c0,2.4,1.8,3.9,5.4,6l7.8,4.6c6.5,3.9,8.6,7.2,8.6,11.9C640.7,377,634.8,380.4,626,380.4z"/>
		<path class="st2" d="M675.1,379.6c-2.6,0.5-6.1,0.9-9.8,0.9c-10.7,0-16.7-7.5-16.7-19.1v-6.1c0-11.6,6-19.1,16.7-19.1
			c3.6,0,7.2,0.4,9.8,0.9c1.3,0.2,1.6,0.6,1.6,1.7v2.8c0,0.8-0.6,1.2-1.3,1.2c-0.2,0-0.2,0-0.3,0c-3.5-0.4-5.9-0.5-9.8-0.5
			c-6.3,0-9.8,4.2-9.8,13.1v6.1c0,8.8,3.5,13.1,9.8,13.1c3.9,0,6.3-0.2,9.8-0.6c0.1,0,0.2,0,0.3,0c0.7,0,1.3,0.4,1.3,1.2v2.8
			C676.7,378.9,676.4,379.3,675.1,379.6z"/>
		<path class="st2" d="M717,379.9h-3.8c-0.9,0-1.6-0.7-1.6-1.6v-25.9c0-7.9-3.3-10.3-8.4-10.3c-2.4,0-7.4,0.6-10.8,2.2v34
			c0,0.8-0.7,1.6-1.6,1.6H687c-0.8,0-1.5-0.7-1.5-1.6v-56c0-0.9,0.6-1.6,1.5-1.6h3.9c0.9,0,1.5,0.7,1.5,1.6v16.2
			c3.8-1.7,8.6-2.4,12-2.4c8.3,0,14.2,4.8,14.2,16.4v25.9C718.6,379.2,717.9,379.9,717,379.9z"/>
		<path class="st2" d="M744.3,380.4c-11.6,0-17.5-7.6-17.5-19.2v-6c0-11.6,5.9-19.2,17.5-19.2c11.6,0,17.5,7.6,17.5,19.2v6
			C761.9,372.8,755.9,380.4,744.3,380.4z M755,355.3c0-8-3.2-13.1-10.6-13.1c-7.3,0-10.5,5-10.5,13.1v6c0,8,3.1,13.1,10.5,13.1
			c7.3,0,10.6-5,10.6-13.1V355.3z"/>
		<path class="st2" d="M787,380.4c-11.6,0-17.5-7.6-17.5-19.2v-6c0-11.6,5.9-19.2,17.5-19.2c11.6,0,17.5,7.6,17.5,19.2v6
			C804.6,372.8,798.6,380.4,787,380.4z M797.6,355.3c0-8-3.2-13.1-10.6-13.1c-7.3,0-10.5,5-10.5,13.1v6c0,8,3.1,13.1,10.5,13.1
			c7.3,0,10.6-5,10.6-13.1V355.3z"/>
		<path class="st2" d="M818.2,379.9h-4.1c-0.8,0-1.4-0.7-1.4-1.6v-56.1c0-0.8,0.6-1.5,1.4-1.5h4.1c0.8,0,1.4,0.6,1.4,1.5v56.1
			C819.6,379.1,819,379.9,818.2,379.9z"/>
	</g>
</g>
<g id="woordbeeld_zonder__baseline">
</g>
</svg>
