<?xml version="1.0" encoding="utf-8"?>
<!-- Generator: Adobe Illustrator 22.0.1, SVG Export Plug-In . SVG Version: 6.00 Build 0)  -->
<svg version="1.1" xmlns="http://www.w3.org/2000/svg" xmlns:xlink="http://www.w3.org/1999/xlink" x="0px" y="0px"
	 viewBox="0 0 736.8 453.5" style="enable-background:new 0 0 736.8 453.5;" xml:space="preserve">
<style type="text/css">
	.st0{fill:#BBCC00;}
	.st1{fill:#EE9900;}
	.st2{fill:#00AACC;}
	.st3{fill:#AAAAAA;}
</style>
<g id="Logo">
	<polygon class="st0" points="383.3,250.1 440,250.1 440,193.4 383.6,193.4 	"/>
	<rect x="383.3" y="80" class="st0" width="56.7" height="56.7"/>
	<path class="st1" d="M240.9,78.6c-47.4,0-85.7,38.4-85.7,85.7c0,47.4,38.4,85.7,85.7,85.7h85.7v-85.7
		C326.6,117,288.3,78.6,240.9,78.6z M269.5,192.9h-28.6c0,0,0,0,0,0c-15.8,0-28.6-12.8-28.6-28.6c0-15.8,12.8-28.6,28.6-28.6
		c15.8,0,28.6,12.8,28.6,28.6V192.9z"/>
	<g>
		<path class="st2" d="M43,342.8h-7.2c-0.7,0-1.3-0.6-1.3-1.3v-1c-2.5,1.8-5.1,2.9-9,2.9c-5.6,0-11-2.7-11-11.1v-0.6
			c0-7.6,4.8-10.9,15.9-10.9h3.5v-2.3c0-3.7-1.8-4.5-4.8-4.5c-4.1,0-8.7,0.3-10.7,0.5H18c-0.6,0-1.2-0.3-1.2-1.2v-5.2
			c0-0.7,0.5-1.2,1.2-1.4c2.4-0.6,6.9-1.4,11.2-1.4c9.3,0,15.1,3.7,15.1,13.2v23C44.3,342.2,43.7,342.8,43,342.8z M34.1,327h-3.7
			c-4.5,0-5.7,1.5-5.7,4.7v0.6c0,2.7,1.4,3.2,4.1,3.2c1.9,0,3.7-0.6,5.3-1.4V327z"/>
		<path class="st2" d="M72.6,313.9h-0.5c-3.2,0-5.9,1-8.3,2.3v25.2c0,0.7-0.6,1.4-1.3,1.4h-7.8c-0.7,0-1.4-0.6-1.4-1.4v-34.3
			c0-0.7,0.6-1.3,1.3-1.3h7.7c0.7,0,1.3,0.6,1.3,1.3v1.3c2.4-2,5.6-3.1,8.7-3.1c0.7,0,1.3,0.6,1.3,1.3v6.1
			C73.6,313.3,73.2,313.9,72.6,313.9z"/>
		<path class="st2" d="M101.2,342.9c-1.9,0.3-3.2,0.5-5.1,0.5c-7.1,0-10.8-1.9-10.8-11v-18.7l-5.2-0.8c-0.7-0.1-1.4-0.6-1.4-1.4
			v-4.3c0-0.7,0.6-1.4,1.4-1.4h5.2v-5.3c0-0.7,0.6-1.2,1.3-1.3l7.9-1.4c0.1,0,0.1,0,0.2,0c0.6,0,1.2,0.5,1.2,1.1v6.8h5.3
			c0.7,0,1.3,0.6,1.3,1.3v5.2c0,0.7-0.6,1.3-1.3,1.3h-5.3v18.8c0,2.6,0.2,3,2.1,3h3.2c0.8,0,1.4,0.4,1.4,1.1v5
			C102.4,342.2,102,342.7,101.2,342.9z"/>
		<path class="st2" d="M139.5,327.6h-20.6v0.1c0,3.7,1.5,7,6.6,7c4.1,0,9.8-0.3,12.4-0.6c0.1,0,0.1,0,0.2,0c0.7,0,1.2,0.3,1.2,1v4.9
			c0,1-0.3,1.5-1.4,1.7c-4.1,1-7.6,1.5-13.2,1.5c-7.8,0-16.2-4.1-16.2-16.6v-4.5c0-10.4,6.1-17,16.3-17c10.6,0,15.9,7.2,15.9,17v3.7
			C140.9,327,140.4,327.6,139.5,327.6z M130.7,320.9c0-4.8-2.2-7.2-5.8-7.2c-3.5,0-5.9,2.5-5.9,7.2v0.3h11.7V320.9z"/>
		<path class="st2" d="M180.4,307.3l-8.1,29.3c-1.6,5.7-5.5,6.8-9.4,6.8c-3.8,0-7.7-1-9.3-6.8l-8.1-29.3c-0.1-0.1-0.1-0.3-0.1-0.4
			c0-0.6,0.5-1.1,1-1.1h8.5c0.6,0,1.2,0.6,1.4,1.4l5.5,25.3c0.2,1,0.5,1.4,1,1.4c0.5,0,0.8-0.4,1-1.4l5.5-25.3
			c0.2-0.8,0.7-1.4,1.4-1.4h8.5c0.6,0,1.1,0.5,1.1,1.1C180.5,307,180.5,307.2,180.4,307.3z"/>
		<path class="st2" d="M215.9,327.6h-20.6v0.1c0,3.7,1.5,7,6.6,7c4.1,0,9.8-0.3,12.4-0.6c0.1,0,0.1,0,0.2,0c0.7,0,1.2,0.3,1.2,1v4.9
			c0,1-0.3,1.5-1.4,1.7c-4.1,1-7.6,1.5-13.2,1.5c-7.8,0-16.2-4.1-16.2-16.6v-4.5c0-10.4,6.1-17,16.3-17c10.6,0,15.9,7.2,15.9,17v3.7
			C217.3,327,216.8,327.6,215.9,327.6z M207.1,320.9c0-4.8-2.2-7.2-5.8-7.2c-3.5,0-5.9,2.5-5.9,7.2v0.3h11.7V320.9z"/>
		<path class="st2" d="M234.5,342.8h-7.9c-0.7,0-1.4-0.6-1.4-1.4v-46.8c0-0.7,0.6-1.3,1.4-1.3h7.9c0.7,0,1.2,0.6,1.2,1.3v46.8
			C235.7,342.1,235.2,342.8,234.5,342.8z"/>
		<path class="st2" d="M273.5,341.7c-3.7,0.9-8.8,1.7-13.7,1.7c-10.5,0-16.2-6.1-16.2-16.5v-5c0-10.1,5.3-16.5,16.2-16.5
			c1.3,0,3.4,0.2,5.3,0.5v-11.2c0-0.7,0.6-1.3,1.3-1.3h7.8c0.7,0,1.4,0.6,1.4,1.3v45.2C275.5,340.9,275.2,341.3,273.5,341.7z
			 M265,314.3c-1.5-0.2-3.7-0.3-5.3-0.3c-4.6,0-5.7,3.4-5.7,7.9v5c0,4.6,1.2,7.9,5.7,7.9c2.1,0,4.1-0.2,5.3-0.4V314.3z"/>
		<path class="st2" d="M314.5,327.6h-20.6v0.1c0,3.7,1.5,7,6.6,7c4.1,0,9.8-0.3,12.4-0.6c0.1,0,0.1,0,0.2,0c0.7,0,1.2,0.3,1.2,1v4.9
			c0,1-0.3,1.5-1.4,1.7c-4.1,1-7.6,1.5-13.2,1.5c-7.8,0-16.2-4.1-16.2-16.6v-4.5c0-10.4,6.1-17,16.3-17c10.6,0,15.9,7.2,15.9,17v3.7
			C315.8,327,315.3,327.6,314.5,327.6z M305.6,320.9c0-4.8-2.2-7.2-5.8-7.2c-3.5,0-5.9,2.5-5.9,7.2v0.3h11.7V320.9z"/>
	</g>
	<g>
		<path class="st2" d="M353.4,342.8h-3.1c-0.7,0-1.3-0.6-1.3-1.3v-21.2c0-6.5-2.7-8.5-6.9-8.5c-2,0-6.1,0.5-8.9,1.8v27.9
			c0,0.6-0.6,1.3-1.3,1.3h-3.2c-0.6,0-1.2-0.6-1.2-1.3v-45.9c0-0.7,0.5-1.3,1.2-1.3h3.2c0.7,0,1.2,0.6,1.2,1.3v13.3
			c3.1-1.4,7.1-2,9.9-2c6.8,0,11.6,3.9,11.6,13.4v21.2C354.7,342.2,354.1,342.8,353.4,342.8z"/>
		<path class="st2" d="M376.4,343.2c-9.5,0-14.3-6.3-14.3-15.7v-4.9c0-9.5,4.8-15.7,14.3-15.7c9.5,0,14.4,6.3,14.4,15.7v4.9
			C390.8,337,385.9,343.2,376.4,343.2z M385.1,322.6c0-6.6-2.6-10.8-8.7-10.8c-6,0-8.6,4.1-8.6,10.8v4.9c0,6.6,2.6,10.8,8.6,10.8
			c6,0,8.7-4.1,8.7-10.8V322.6z"/>
		<path class="st2" d="M426.8,311.6l-2.3,0.5c1.2,1.2,2.2,3.2,2.2,6.6v0.5c0,7.1-4.4,11-14.3,11c-3.4,0-5.6-0.5-7.5-1.3
			c-1.1,0.5-1.6,1.2-1.6,2.2c0,1.1,0.5,1.7,2,2.1l9.6,2.5c6.3,1.6,12.4,3.4,12.4,9.5v0.5c0,6.2-4.1,10-14.7,10
			c-10.2,0-14.8-3.9-14.8-10.3v-0.6c0-3.6,1.9-6.6,4.1-8.2l-0.5-0.2c-2.1-0.9-3-3-3-5v-0.1c0-1.7,0.8-3.6,2.6-4.6
			c-2-1.9-3-4.2-3-7.5v-0.5c0-5.7,3.2-11.4,14.3-11.4h14.1c0.8,0,1.5,0.6,1.5,1.4v1.7C428,311.2,427.5,311.5,426.8,311.6z
			 M421.6,345.2c0-2.5-2.1-3.5-7.9-5l-7.3-1.9c-1.9,1.6-3.2,3.2-3.2,6.6v0.6c0,3.6,2.1,5.9,9.3,5.9c7.4,0,9-2.1,9-5.6V345.2z
			 M421.1,318.7c0-3.9-1.7-6.9-8.7-6.9c-7.2,0-8.7,3.3-8.7,6.9v0.5c0,2.8,1.3,6.6,8.7,6.6c7,0,8.7-2.7,8.7-6.6V318.7z"/>
		<path class="st2" d="M460.8,326.9h-21.6v0.9c0,7.7,3,10.5,9,10.5c3.7,0,8.5-0.3,11.5-0.7c0.1,0,0.2,0,0.3,0c0.5,0,1,0.3,1,0.9v2.2
			c0,0.8-0.3,1.3-1.3,1.5c-3.7,0.7-7.2,1.1-11.6,1.1c-7.4,0-14.6-3.5-14.6-15.5V322c0-9.2,5.1-15.1,14.3-15.1
			c9.4,0,14.2,5.9,14.2,15.1v3.5C462,326.3,461.6,326.9,460.8,326.9z M456.3,322c0-7.3-2.8-10.1-8.5-10.1c-5.5,0-8.6,3.2-8.6,10.1
			v0.6h17.1V322z"/>
		<path class="st2" d="M480.2,343.2c-2.4,0-7-0.2-10.2-1c-0.8-0.2-1.4-0.6-1.4-1.3v-2.3c0-0.6,0.5-1,1.2-1c0.1,0,0.2,0,0.3,0
			c3.1,0.4,7.8,0.7,10.1,0.7c4.2,0,6.4-1.1,6.4-4.6c0-1.9-1.2-3.2-4.8-5.4l-6.5-3.9c-3.9-2.4-6.6-5.2-6.6-9.2c0-6.7,5-8.6,11.7-8.6
			c3.6,0,7,0.3,10.1,0.8c0.8,0.1,1.2,0.6,1.2,1.3v2.1c0,0.8-0.5,1.1-1.1,1.1c-0.1,0-0.1,0-0.2,0c-2.3-0.2-6.4-0.5-10-0.5
			c-3.6,0-6,0.5-6,3.7c0,1.9,1.5,3.2,4.5,4.9l6.4,3.8c5.4,3.2,7.1,5.9,7.1,9.7C492.2,340.5,487.4,343.2,480.2,343.2z"/>
		<path class="st2" d="M520.5,342.5c-2.1,0.4-5,0.7-8.1,0.7c-8.8,0-13.7-6.2-13.7-15.7v-5c0-9.5,4.9-15.7,13.7-15.7
			c3,0,5.9,0.3,8.1,0.7c1,0.2,1.3,0.5,1.3,1.4v2.3c0,0.6-0.5,1-1.1,1c-0.1,0-0.2,0-0.3,0c-2.8-0.3-4.8-0.5-8-0.5
			c-5.2,0-8.1,3.4-8.1,10.7v5c0,7.2,2.8,10.7,8.1,10.7c3.2,0,5.2-0.1,8-0.5c0.1,0,0.1,0,0.3,0c0.6,0,1.1,0.3,1.1,1v2.3
			C521.8,342,521.5,342.3,520.5,342.5z"/>
		<path class="st2" d="M554.9,342.8h-3.1c-0.7,0-1.3-0.6-1.3-1.3v-21.2c0-6.5-2.7-8.5-6.9-8.5c-2,0-6.1,0.5-8.9,1.8v27.9
			c0,0.6-0.6,1.3-1.3,1.3h-3.2c-0.6,0-1.2-0.6-1.2-1.3v-45.9c0-0.7,0.5-1.3,1.2-1.3h3.2c0.7,0,1.2,0.6,1.2,1.3v13.3
			c3.1-1.4,7.1-2,9.9-2c6.8,0,11.6,3.9,11.6,13.4v21.2C556.2,342.2,555.6,342.8,554.9,342.8z"/>
		<path class="st2" d="M577.3,343.2c-9.5,0-14.3-6.3-14.3-15.7v-4.9c0-9.5,4.8-15.7,14.3-15.7c9.5,0,14.4,6.3,14.4,15.7v4.9
			C591.7,337,586.8,343.2,577.3,343.2z M586,322.6c0-6.6-2.6-10.8-8.7-10.8c-6,0-8.6,4.1-8.6,10.8v4.9c0,6.6,2.6,10.8,8.6,10.8
			c6,0,8.7-4.1,8.7-10.8V322.6z"/>
		<path class="st2" d="M612.3,343.2c-9.5,0-14.3-6.3-14.3-15.7v-4.9c0-9.5,4.8-15.7,14.3-15.7c9.5,0,14.4,6.3,14.4,15.7v4.9
			C626.7,337,621.8,343.2,612.3,343.2z M621,322.6c0-6.6-2.6-10.8-8.7-10.8c-6,0-8.6,4.1-8.6,10.8v4.9c0,6.6,2.6,10.8,8.6,10.8
			c6,0,8.7-4.1,8.7-10.8V322.6z"/>
		<path class="st2" d="M637.9,342.8h-3.4c-0.6,0-1.2-0.6-1.2-1.3v-46c0-0.6,0.5-1.2,1.2-1.2h3.4c0.6,0,1.2,0.5,1.2,1.2v46
			C639,342.1,638.6,342.8,637.9,342.8z"/>
	</g>
</g>
<g id="woordbeeld_zonder__baseline">
	<g>
		<g>
			<path class="st3" d="M25.9,385.4c-0.9,0.2-3.3,0.4-4.8,0.4c-3.7,0-6.6-1-6.6-5.9v-15.1c0-0.3,0.3-0.6,0.6-0.6h2.8
				c0.3,0,0.6,0.3,0.6,0.6v15.1c0,1.9,0.6,2.5,2.2,2.5h5.2c0.3,0,0.6,0.3,0.6,0.6v1.8C26.5,385.2,26.3,385.3,25.9,385.4z"/>
			<path class="st3" d="M33.9,385.5H31c-0.3,0-0.6-0.3-0.6-0.6v-20.2c0-0.3,0.3-0.5,0.6-0.5h2.8c0.3,0,0.6,0.2,0.6,0.5V385
				C34.4,385.3,34.2,385.5,33.9,385.5z"/>
			<path class="st3" d="M46.3,385.8c-2,0-4.8-0.2-5.6-0.3c-0.5-0.1-0.7-0.3-0.7-0.9v-19.3c0-0.6,0.3-0.8,0.7-0.9
				c0.9-0.1,3.6-0.3,5.6-0.3c5.7,0,8.9,3.1,8.9,8.8v4.2C55.3,382.7,52,385.8,46.3,385.8z M51.3,372.8c0-4.3-2.2-5.4-5-5.4
				c-1.1,0-1.8,0.1-2.4,0.1v14.9c0.6,0,1.3,0.1,2.4,0.1c2.8,0,5-1.1,5-5.4V372.8z"/>
			<path class="st3" d="M84.4,364.9l-4.7,18c-0.7,2.7-2.7,2.9-4,2.9c-1.2,0-3.3-0.3-4-2.9l-4.7-18c0-0.1,0-0.1,0-0.1
				c0-0.3,0.2-0.5,0.5-0.5h3c0.3,0,0.5,0.2,0.5,0.5l4.1,17.2c0.1,0.3,0.2,0.5,0.5,0.5c0.3,0,0.4-0.1,0.5-0.5l4.1-17.2
				c0.1-0.3,0.3-0.5,0.5-0.5h3c0.3,0,0.5,0.2,0.5,0.5C84.5,364.8,84.4,364.8,84.4,364.9z"/>
			<path class="st3" d="M103.7,385.5h-3c-0.3,0-0.5-0.2-0.5-0.5l-1.3-5.4h-6.6l-1.3,5.4c-0.1,0.3-0.3,0.5-0.5,0.5h-3
				c-0.3,0-0.5-0.2-0.5-0.5c0,0,0-0.1,0-0.1l4.7-18c0.7-2.7,2.7-2.9,4-2.9c1.2,0,3.3,0.3,4,2.9l4.7,18c0,0.1,0,0.1,0,0.1
				C104.3,385.3,104,385.5,103.7,385.5z M96.1,367.8c-0.1-0.3-0.2-0.5-0.5-0.5c-0.3,0-0.4,0.1-0.5,0.5l-2.1,8.5h5L96.1,367.8z"/>
			<path class="st3" d="M123,385.5h-2.9c-0.7,0-1.3,0-1.7-1l-6.3-13.9c-0.1-0.2-0.2-0.2-0.3-0.2s-0.1,0.1-0.1,0.2V385
				c0,0.3-0.2,0.6-0.5,0.6h-2.4c-0.3,0-0.6-0.3-0.6-0.6v-19.6c0-0.6,0.5-1.1,1.1-1.1h3.1c0.6,0,0.9,0.2,1.3,0.9l6.6,14.7
				c0.1,0.1,0.1,0.2,0.2,0.2c0.1,0,0.1-0.1,0.1-0.3v-15.1c0-0.3,0.2-0.5,0.5-0.5h2.4c0.3,0,0.5,0.2,0.5,0.5v19.6
				C124.2,385,123.7,385.5,123,385.5z"/>
			<path class="st3" d="M144.4,385.8c-2,0-4.8-0.2-5.6-0.3c-0.5-0.1-0.7-0.3-0.7-0.9v-19.3c0-0.6,0.3-0.8,0.7-0.9
				c0.9-0.1,3.6-0.3,5.6-0.3c5.7,0,8.9,3.1,8.9,8.8v4.2C153.4,382.7,150.1,385.8,144.4,385.8z M149.5,372.8c0-4.3-2.2-5.4-5-5.4
				c-1.1,0-1.8,0.1-2.4,0.1v14.9c0.6,0,1.3,0.1,2.4,0.1c2.8,0,5-1.1,5-5.4V372.8z"/>
			<path class="st3" d="M170.3,385.4c-0.9,0.1-2,0.4-5.4,0.4c-3.7,0-6.6-1-6.6-5.9v-10c0-4.9,2.9-5.9,6.6-5.9c3.4,0,4.5,0.3,5.4,0.4
				c0.4,0.1,0.6,0.2,0.6,0.6v1.8c0,0.3-0.3,0.6-0.6,0.6h-5.8c-1.7,0-2.3,0.6-2.3,2.5v3.1h7.7c0.3,0,0.6,0.3,0.6,0.6v2.1
				c0,0.3-0.3,0.6-0.6,0.6h-7.7v3.7c0,1.9,0.6,2.5,2.3,2.5h5.8c0.3,0,0.6,0.3,0.6,0.6v1.8C170.9,385.2,170.8,385.3,170.3,385.4z"/>
		</g>
		<g>
			<path class="st3" d="M199.7,385.5h-3c-0.3,0-0.5-0.2-0.5-0.5l-1.3-5.4h-6.5l-1.3,5.4c-0.1,0.3-0.3,0.5-0.5,0.5h-3
				c-0.3,0-0.5-0.2-0.5-0.5c0,0,0-0.1,0-0.1l4.7-18c0.7-2.7,2.7-2.9,4-2.9c1.2,0,3.3,0.3,4,2.9l4.7,18c0,0.1,0,0.1,0,0.1
				C200.2,385.3,200,385.5,199.7,385.5z M192,367.8c-0.1-0.3-0.2-0.5-0.5-0.5s-0.4,0.1-0.5,0.5l-2,8.5h5L192,367.8z"/>
		</g>
		<g>
			<path class="st3" d="M209.5,385.8c-2.1,0-3.7-0.2-5-0.5c-0.3-0.1-0.5-0.3-0.5-0.6v-2.1c0-0.3,0.3-0.5,0.5-0.5c0,0,0,0,0.1,0
				c1.1,0.1,4,0.3,5,0.3c2.5,0,3.3-0.9,3.3-2.6c0-1.1-0.5-1.7-2.4-2.8l-3.8-2.3c-2.6-1.6-3.4-3.2-3.4-5.2c0-3.1,1.8-5.4,7.1-5.4
				c1.9,0,4.5,0.3,5.5,0.5c0.3,0.1,0.5,0.3,0.5,0.5v2.1c0,0.3-0.2,0.5-0.5,0.5c0,0,0,0-0.1,0c-1.9-0.2-3.8-0.3-5.6-0.3
				c-2.1,0-3,0.7-3,2c0,0.9,0.5,1.5,2.3,2.5l3.4,1.9c3.1,1.7,4,3.6,4,5.8C217,382.7,215.2,385.8,209.5,385.8z"/>
			<path class="st3" d="M227,385.8c-2.1,0-3.7-0.2-5-0.5c-0.3-0.1-0.5-0.3-0.5-0.6v-2.1c0-0.3,0.3-0.5,0.5-0.5c0,0,0,0,0.1,0
				c1.1,0.1,4,0.3,5,0.3c2.5,0,3.3-0.9,3.3-2.6c0-1.1-0.5-1.7-2.4-2.8l-3.8-2.3c-2.6-1.6-3.4-3.2-3.4-5.2c0-3.1,1.8-5.4,7.1-5.4
				c1.9,0,4.5,0.3,5.5,0.5c0.3,0.1,0.5,0.3,0.5,0.5v2.1c0,0.3-0.2,0.5-0.5,0.5c0,0,0,0-0.1,0c-1.9-0.2-3.8-0.3-5.6-0.3
				c-2.1,0-3,0.7-3,2c0,0.9,0.5,1.5,2.3,2.5l3.4,1.9c3.1,1.7,4,3.6,4,5.8C234.5,382.7,232.7,385.8,227,385.8z"/>
			<path class="st3" d="M246.7,385.8c-4.7,0-8.1-2.6-8.1-8.9V373c0-6.3,3.4-8.9,8.1-8.9c4.7,0,8.1,2.6,8.1,8.9v3.9
				C254.8,383.1,251.4,385.8,246.7,385.8z M250.9,373c0-3.8-1.3-5.5-4.1-5.5c-2.8,0-4.1,1.7-4.1,5.5v3.9c0,3.8,1.3,5.5,4.1,5.5
				c2.8,0,4.1-1.7,4.1-5.5V373z"/>
			<path class="st3" d="M271.8,385.3c-0.4,0.1-2.3,0.5-4.5,0.5c-3.4,0-8.1-1.7-8.1-8.8v-4.2c0-7.2,4.6-8.8,8.1-8.8
				c2.2,0,4.1,0.3,4.5,0.5c0.4,0.1,0.6,0.3,0.6,0.7v1.9c0,0.3-0.1,0.6-0.6,0.6c0,0,0,0-0.1,0c-1-0.1-2.9-0.2-4.4-0.2
				c-2.4,0-4.1,1.3-4.1,5.4v4.2c0,4,1.7,5.4,4.1,5.4c1.5,0,3.4-0.1,4.4-0.2c0,0,0.1,0,0.1,0c0.4,0,0.6,0.3,0.6,0.6v1.9
				C272.4,385.1,272.2,385.2,271.8,385.3z"/>
			<path class="st3" d="M280.5,385.5h-2.8c-0.3,0-0.6-0.3-0.6-0.6v-20.2c0-0.3,0.3-0.5,0.6-0.5h2.8c0.3,0,0.6,0.2,0.6,0.5V385
				C281.1,385.3,280.8,385.5,280.5,385.5z"/>
			<path class="st3" d="M301.8,385.5h-3c-0.3,0-0.5-0.2-0.5-0.5l-1.3-5.4h-6.5l-1.3,5.4c-0.1,0.3-0.3,0.5-0.5,0.5h-3
				c-0.3,0-0.5-0.2-0.5-0.5c0,0,0-0.1,0-0.1l4.7-18c0.7-2.7,2.7-2.9,4-2.9s3.3,0.3,4,2.9l4.7,18c0,0.1,0,0.1,0,0.1
				C302.3,385.3,302.1,385.5,301.8,385.5z M294.1,367.8c-0.1-0.3-0.2-0.5-0.5-0.5c-0.3,0-0.4,0.1-0.5,0.5l-2.1,8.5h5L294.1,367.8z"
				/>
			<path class="st3" d="M319.4,367.6h-5V385c0,0.3-0.3,0.6-0.6,0.6H311c-0.3,0-0.6-0.3-0.6-0.6v-17.4h-5c-0.3,0-0.6-0.2-0.6-0.5
				v-2.3c0-0.3,0.3-0.5,0.6-0.5h13.9c0.3,0,0.6,0.2,0.6,0.5v2.3C319.9,367.4,319.7,367.6,319.4,367.6z"/>
			<path class="st3" d="M327.4,385.5h-2.8c-0.3,0-0.6-0.3-0.6-0.6v-20.2c0-0.3,0.3-0.5,0.6-0.5h2.8c0.3,0,0.6,0.2,0.6,0.5V385
				C328,385.3,327.7,385.5,327.4,385.5z"/>
			<path class="st3" d="M345.5,385.4c-0.9,0.1-2,0.4-5.4,0.4c-3.7,0-6.6-1-6.6-5.9v-10c0-4.9,2.9-5.9,6.6-5.9c3.4,0,4.5,0.3,5.4,0.4
				c0.4,0.1,0.6,0.2,0.6,0.6v1.8c0,0.3-0.3,0.6-0.6,0.6h-5.8c-1.7,0-2.3,0.6-2.3,2.5v3.1h7.7c0.3,0,0.6,0.3,0.6,0.6v2.1
				c0,0.3-0.3,0.6-0.6,0.6h-7.7v3.7c0,1.9,0.6,2.5,2.3,2.5h5.8c0.3,0,0.6,0.3,0.6,0.6v1.8C346.1,385.2,345.9,385.3,345.5,385.4z"/>
			<path class="st3" d="M367.3,385.8c-4.6,0-7.8-2-7.8-8.1v-12.9c0-0.3,0.3-0.5,0.6-0.5h2.8c0.3,0,0.6,0.2,0.6,0.5v12.9
				c0,3.3,0.8,4.8,3.9,4.8c3.1,0,3.9-1.5,3.9-4.8v-12.9c0-0.3,0.3-0.5,0.6-0.5h2.8c0.3,0,0.6,0.2,0.6,0.5v12.9
				C375.1,383.8,371.9,385.8,367.3,385.8z"/>
			<path class="st3" d="M395.4,385.5h-2.9c-0.7,0-1.3,0-1.7-1l-6.3-13.9c-0.1-0.2-0.2-0.2-0.3-0.2c-0.1,0-0.1,0.1-0.1,0.2V385
				c0,0.3-0.2,0.6-0.5,0.6h-2.4c-0.3,0-0.6-0.3-0.6-0.6v-19.6c0-0.6,0.5-1.1,1.1-1.1h3.1c0.6,0,0.9,0.2,1.3,0.9l6.6,14.7
				c0.1,0.1,0.1,0.2,0.2,0.2c0.1,0,0.1-0.1,0.1-0.3v-15.1c0-0.3,0.2-0.5,0.5-0.5h2.5c0.3,0,0.5,0.2,0.5,0.5v19.6
				C396.5,385,396,385.5,395.4,385.5z"/>
			<path class="st3" d="M405.4,385.5h-2.8c-0.3,0-0.6-0.3-0.6-0.6v-20.2c0-0.3,0.3-0.5,0.6-0.5h2.8c0.3,0,0.6,0.2,0.6,0.5V385
				C406,385.3,405.8,385.5,405.4,385.5z"/>
			<path class="st3" d="M427.4,364.9l-4.7,18c-0.7,2.7-2.7,2.9-4,2.9c-1.2,0-3.3-0.3-4-2.9l-4.7-18c0-0.1,0-0.1,0-0.1
				c0-0.3,0.2-0.5,0.5-0.5h3c0.3,0,0.5,0.2,0.5,0.5l4.1,17.2c0.1,0.3,0.2,0.5,0.5,0.5c0.3,0,0.4-0.1,0.5-0.5l4.1-17.2
				c0.1-0.3,0.3-0.5,0.5-0.5h3c0.3,0,0.5,0.2,0.5,0.5C427.4,364.8,427.4,364.8,427.4,364.9z"/>
			<path class="st3" d="M443.5,385.4c-0.9,0.1-2,0.4-5.4,0.4c-3.7,0-6.6-1-6.6-5.9v-10c0-4.9,2.9-5.9,6.6-5.9c3.4,0,4.5,0.3,5.4,0.4
				c0.4,0.1,0.6,0.2,0.6,0.6v1.8c0,0.3-0.3,0.6-0.6,0.6h-5.8c-1.7,0-2.3,0.6-2.3,2.5v3.1h7.7c0.3,0,0.6,0.3,0.6,0.6v2.1
				c0,0.3-0.3,0.6-0.6,0.6h-7.7v3.7c0,1.9,0.6,2.5,2.3,2.5h5.8c0.3,0,0.6,0.3,0.6,0.6v1.8C444.1,385.2,443.9,385.3,443.5,385.4z"/>
			<path class="st3" d="M464.2,385.5h-3.5c-0.3,0-0.4-0.3-0.6-0.6l-4.1-7.6h-0.4c-0.7,0-1.9-0.1-2.5-0.1v7.8c0,0.3-0.2,0.6-0.5,0.6
				h-2.8c-0.3,0-0.6-0.3-0.6-0.6v-19.7c0-0.6,0.3-0.8,0.9-0.9c1.5-0.2,3.5-0.4,5.6-0.4c4.4,0,8.2,1.6,8.2,6.5v0.3
				c0,3-1.5,4.9-3.8,5.8l4.5,8.4c0.1,0.1,0.1,0.2,0.1,0.2C464.6,385.4,464.4,385.5,464.2,385.5z M459.9,370.5c0-2.1-1.4-3.1-4.3-3.1
				c-0.6,0-2,0.1-2.5,0.1v6.4c0.5,0,2.1,0.1,2.5,0.1c2.9,0,4.3-0.8,4.3-3.3V370.5z"/>
			<path class="st3" d="M474.4,385.8c-2.1,0-3.7-0.2-5-0.5c-0.3-0.1-0.5-0.3-0.5-0.6v-2.1c0-0.3,0.3-0.5,0.5-0.5c0,0,0,0,0.1,0
				c1.1,0.1,4,0.3,5,0.3c2.5,0,3.3-0.9,3.3-2.6c0-1.1-0.5-1.7-2.4-2.8l-3.8-2.3c-2.6-1.6-3.4-3.2-3.4-5.2c0-3.1,1.8-5.4,7.1-5.4
				c1.9,0,4.5,0.3,5.5,0.5c0.3,0.1,0.5,0.3,0.5,0.5v2.1c0,0.3-0.2,0.5-0.5,0.5c0,0,0,0-0.1,0c-1.9-0.2-3.8-0.3-5.6-0.3
				c-2.1,0-3,0.7-3,2c0,0.9,0.5,1.5,2.3,2.5l3.4,1.9c3.1,1.7,4,3.6,4,5.8C481.9,382.7,480.1,385.8,474.4,385.8z"/>
			<path class="st3" d="M489.9,385.5h-2.8c-0.3,0-0.6-0.3-0.6-0.6v-20.2c0-0.3,0.3-0.5,0.6-0.5h2.8c0.3,0,0.6,0.2,0.6,0.5V385
				C490.5,385.3,490.3,385.5,489.9,385.5z"/>
			<path class="st3" d="M509.1,367.6h-5V385c0,0.3-0.3,0.6-0.6,0.6h-2.8c-0.3,0-0.6-0.3-0.6-0.6v-17.4h-5c-0.3,0-0.6-0.2-0.6-0.5
				v-2.3c0-0.3,0.3-0.5,0.6-0.5h13.9c0.3,0,0.6,0.2,0.6,0.5v2.3C509.7,367.4,509.4,367.6,509.1,367.6z"/>
			<path class="st3" d="M525.8,385.4c-0.9,0.1-2,0.4-5.4,0.4c-3.7,0-6.6-1-6.6-5.9v-10c0-4.9,2.9-5.9,6.6-5.9c3.4,0,4.5,0.3,5.4,0.4
				c0.4,0.1,0.6,0.2,0.6,0.6v1.8c0,0.3-0.3,0.6-0.6,0.6H520c-1.7,0-2.3,0.6-2.3,2.5v3.1h7.7c0.3,0,0.6,0.3,0.6,0.6v2.1
				c0,0.3-0.3,0.6-0.6,0.6h-7.7v3.7c0,1.9,0.6,2.5,2.3,2.5h5.8c0.3,0,0.6,0.3,0.6,0.6v1.8C526.4,385.2,526.2,385.3,525.8,385.4z"/>
			<path class="st3" d="M534.9,385.5h-2.8c-0.3,0-0.6-0.3-0.6-0.6v-20.2c0-0.3,0.3-0.5,0.6-0.5h2.8c0.3,0,0.6,0.2,0.6,0.5V385
				C535.4,385.3,535.2,385.5,534.9,385.5z"/>
			<path class="st3" d="M554.1,367.6h-5V385c0,0.3-0.3,0.6-0.6,0.6h-2.8c-0.3,0-0.6-0.3-0.6-0.6v-17.4h-5c-0.3,0-0.6-0.2-0.6-0.5
				v-2.3c0-0.3,0.3-0.5,0.6-0.5h13.9c0.3,0,0.6,0.2,0.6,0.5v2.3C554.6,367.4,554.4,367.6,554.1,367.6z"/>
			<path class="st3" d="M580.4,385.3c-1.4,0.3-3.3,0.5-6.2,0.5c-3.1,0-7.6-2-7.6-8.8v-4.1c0-6.8,4.3-8.8,7.7-8.8
				c2.7,0,5.2,0.3,6.1,0.5c0.4,0.1,0.5,0.2,0.5,0.6v1.9c0,0.4-0.1,0.6-0.6,0.6c0,0-0.1,0-0.1,0c-1.3-0.1-3.3-0.2-6-0.2
				c-1.9,0-3.7,1.3-3.7,5.4v4.1c0,4.1,2,5.4,3.6,5.4c1,0,1.9,0,2.8-0.1V375c0-0.3,0.2-0.6,0.5-0.6h2.8c0.3,0,0.6,0.3,0.6,0.6v9.6
				C580.9,385,580.8,385.2,580.4,385.3z"/>
			<path class="st3" d="M598.4,385.4c-0.9,0.1-2,0.4-5.4,0.4c-3.7,0-6.6-1-6.6-5.9v-10c0-4.9,2.9-5.9,6.6-5.9c3.4,0,4.5,0.3,5.4,0.4
				c0.4,0.1,0.6,0.2,0.6,0.6v1.8c0,0.3-0.3,0.6-0.6,0.6h-5.8c-1.7,0-2.3,0.6-2.3,2.5v3.1h7.7c0.3,0,0.6,0.3,0.6,0.6v2.1
				c0,0.3-0.3,0.6-0.6,0.6h-7.7v3.7c0,1.9,0.6,2.5,2.3,2.5h5.8c0.3,0,0.6,0.3,0.6,0.6v1.8C599,385.2,598.9,385.3,598.4,385.4z"/>
			<path class="st3" d="M619,385.5h-2.9c-0.7,0-1.3,0-1.7-1l-6.3-13.9c-0.1-0.2-0.2-0.2-0.3-0.2c-0.1,0-0.1,0.1-0.1,0.2V385
				c0,0.3-0.2,0.6-0.5,0.6h-2.4c-0.3,0-0.6-0.3-0.6-0.6v-19.6c0-0.6,0.5-1.1,1.1-1.1h3.1c0.6,0,0.9,0.2,1.3,0.9l6.6,14.7
				c0.1,0.1,0.1,0.2,0.2,0.2c0.1,0,0.1-0.1,0.1-0.3v-15.1c0-0.3,0.2-0.5,0.5-0.5h2.5c0.3,0,0.5,0.2,0.5,0.5v19.6
				C620.1,385,619.6,385.5,619,385.5z"/>
			<path class="st3" d="M638.7,367.6h-5V385c0,0.3-0.3,0.6-0.6,0.6h-2.8c-0.3,0-0.6-0.3-0.6-0.6v-17.4h-5c-0.3,0-0.6-0.2-0.6-0.5
				v-2.3c0-0.3,0.3-0.5,0.6-0.5h13.9c0.3,0,0.6,0.2,0.6,0.5v2.3C639.3,367.4,639,367.6,638.7,367.6z"/>
		</g>
	</g>
</g>
</svg>
