<?xml version="1.0" encoding="utf-8"?>
<!-- Generator: Adobe Illustrator 22.0.1, SVG Export Plug-In . SVG Version: 6.00 Build 0)  -->
<svg version="1.1" id="Laag_1" xmlns="http://www.w3.org/2000/svg" xmlns:xlink="http://www.w3.org/1999/xlink" x="0px" y="0px"
	 viewBox="0 0 634 500" style="enable-background:new 0 0 634 500;" xml:space="preserve">
<style type="text/css">
	.st0{fill:#4D5055;}
	.st1{fill:#5D4792;}
	.st2{fill:#DF9937;}
	.st3{fill:#CCD42F;}
	.st4{fill:#B83285;}
	.st5{fill:#6FB2E3;}
</style>
<g>
	<g id="Woordmerk">
		<g id="Gaverke__x2F__College">
			<g>
				<path class="st0" d="M20,377.4c0,2.3,0.2,4.4,0.6,6.2c0.4,1.9,1.1,3.4,2.1,4.7c1,1.3,2.3,2.3,3.9,3c1.6,0.7,3.6,1,5.9,1
					c1.9,0,3.6-0.2,5-0.7c1.4-0.5,2.8-1.1,4-2v-17.1h-6.9c-1.2,0-2.3-0.5-3.2-1.4c-0.9-0.9-1.4-2-1.4-3.3c0-1.3,0.5-2.4,1.4-3.3
					c0.9-0.9,2-1.3,3.2-1.3h10.6c1.7,0,3.2,0.4,4.5,1.3c1.3,0.9,1.9,2.2,1.9,4v21.3c0,2-0.6,3.8-1.8,5.2c-1.2,1.5-2.8,2.6-4.7,3.6
					c-1.9,0.9-4,1.6-6.3,2c-2.3,0.4-4.6,0.6-6.8,0.6c-3.8,0-7.1-0.6-9.9-1.7c-2.8-1.1-5.1-2.7-6.9-4.8c-1.8-2.1-3.2-4.6-4.1-7.5
					c-0.9-2.9-1.3-6.2-1.3-9.9v-16.5c0-3.6,0.4-6.9,1.3-9.8c0.9-3,2.3-5.5,4.1-7.5c1.8-2.1,4.1-3.7,6.9-4.8c2.8-1.1,6.1-1.7,9.9-1.7
					c2.3,0,4.5,0.2,6.6,0.7c2.1,0.5,4,1.1,5.7,1.9c1.7,0.8,3,1.8,4,2.9c1,1.1,1.5,2.2,1.5,3.4c0,1.2-0.4,2.3-1.3,3.1
					c-0.9,0.9-2,1.3-3.4,1.3c-0.9,0-1.5-0.1-2-0.4c-0.5-0.3-1-0.6-1.7-1.1l-0.5-0.3c-1.2-0.9-2.5-1.5-3.9-1.9
					c-1.4-0.4-2.9-0.6-4.5-0.6c-2.3,0-4.3,0.3-5.9,1c-1.6,0.7-2.9,1.7-3.9,3c-1,1.3-1.7,2.9-2.1,4.7c-0.4,1.9-0.6,3.9-0.6,6.2V377.4
					z"/>
				<path class="st0" d="M85.5,369.7c0-5.4-2.8-8.1-8.5-8.1c-1.2,0-2.3,0.1-3.1,0.4c-0.8,0.2-1.6,0.5-2.4,0.8l-1.8,0.7
					c-0.6,0.3-1.4,0.5-2.4,0.5c-1.4,0-2.3-0.4-2.9-1.3c-0.6-0.9-0.9-1.8-0.9-2.8c0-1.2,0.4-2.3,1.2-3.1c0.8-0.9,1.9-1.6,3.2-2.1
					c1.4-0.6,2.9-1,4.6-1.2c1.7-0.2,3.5-0.4,5.3-0.4c6.3,0,10.8,1.6,13.5,4.8c2.7,3.2,4.1,7.9,4.1,14.1v18.8c0,1.2,0.2,1.9,0.6,2.3
					c0.4,0.3,1,0.6,1.7,0.7c1.9,0.4,2.8,1.5,2.8,3.3c0,2.6-1.8,3.9-5.5,3.9c-3.2,0-5.7-1.4-7.4-4.2c-3.5,3-7.7,4.4-12.6,4.4
					c-5.1,0-8.9-1.3-11.4-3.9c-2.6-2.6-3.8-6-3.8-10.4v-0.3c0-9.3,5.8-14,17.3-14c2.8,0,5.6,0.4,8.3,1.1V369.7z M77.4,380.3
					c-1.6,0-2.9,0.2-3.9,0.5c-1,0.3-1.8,0.8-2.4,1.4c-0.6,0.6-0.9,1.3-1.1,2.1c-0.2,0.8-0.3,1.6-0.3,2.5v0.3c0,1.9,0.5,3.3,1.5,4.3
					c1,1,2.8,1.5,5.4,1.5c1.6,0,3.1-0.2,4.5-0.7c1.4-0.5,2.8-1.3,4.3-2.5v-8.3c-1.4-0.3-2.7-0.6-4.2-0.7
					C79.9,380.4,78.6,380.3,77.4,380.3z"/>
				<path class="st0" d="M139.7,361.9c-2,5.7-4,11.4-5.9,17.1c-1.9,5.7-3.9,11.4-5.8,17.2c-0.6,1.8-1.4,3.1-2.3,3.8
					c-0.9,0.7-2.2,1.1-3.7,1.1c-1.7,0-2.9-0.4-3.8-1.1c-0.9-0.7-1.7-2-2.3-3.7c-2-5.8-4-11.6-6-17.3c-2-5.7-4-11.5-6-17.3l-1-3.6
					c0-0.1,0-0.2,0-0.3c0-0.1,0-0.2,0-0.3c0-1.2,0.5-2.3,1.6-3.1c1-0.8,2.2-1.2,3.4-1.2c0.9,0,1.9,0.3,2.8,0.8
					c0.9,0.6,1.5,1.4,1.9,2.4c0.9,2.8,1.7,5.5,2.6,8.2c0.9,2.7,1.7,5.5,2.6,8.2c0.9,2.8,1.6,5.5,2.3,8.2c0.6,2.7,1.3,5.4,2.1,8.2
					c0.7-2.8,1.3-5.5,1.9-8.2c0.6-2.7,1.4-5.4,2.2-8.2c0.9-2.8,1.7-5.5,2.5-8.2c0.8-2.7,1.7-5.5,2.5-8.2c0.3-0.9,0.9-1.7,1.8-2.3
					c0.9-0.6,1.8-0.9,2.8-0.9c1.3,0,2.4,0.4,3.4,1.2c1,0.8,1.4,1.9,1.4,3.2v0.6L139.7,361.9z"/>
				<path class="st0" d="M164.9,382.3c-1.3,0-2.6,0-4-0.1c-1.4-0.1-2.8-0.3-4.3-0.5v4.3c0,2.1,0.7,3.8,2.1,5
					c1.4,1.2,3.6,1.9,6.6,1.9c1.7,0,3.3-0.2,4.6-0.6c1.4-0.4,2.8-1,4.4-1.7c0.1-0.1,0.4-0.2,0.7-0.3c0.3-0.1,0.8-0.1,1.3-0.1
					c1.6,0,2.8,0.5,3.5,1.4c0.7,0.9,1.1,1.9,1.1,2.8c0,1.4-0.6,2.6-1.8,3.5c-1.2,0.9-2.7,1.6-4.4,2.2c-1.7,0.6-3.5,0.9-5.4,1.2
					c-1.9,0.2-3.5,0.3-4.9,0.3c-2.8,0-5.4-0.4-7.6-1.2c-2.2-0.8-4.1-1.9-5.6-3.3c-1.5-1.4-2.7-3.1-3.5-5c-0.8-1.9-1.2-4-1.2-6.2
					v-16.4c0-2.3,0.4-4.4,1.2-6.3c0.8-1.9,2-3.6,3.5-5c1.5-1.4,3.5-2.5,5.7-3.4c2.3-0.8,4.9-1.2,7.9-1.2c5.6,0,9.8,1.4,12.6,4.2
					c2.8,2.8,4.2,6.5,4.2,11.2c0,4.4-1.3,7.8-4,10.2C175.1,381.1,170.8,382.3,164.9,382.3z M171.8,368.1c0-2.5-0.6-4.2-1.8-5.3
					c-1.2-1-2.9-1.6-5.2-1.6c-2.6,0-4.6,0.6-6,1.9c-1.4,1.3-2.1,3.1-2.1,5.3v5.5c1.6,0.2,3.2,0.3,4.8,0.4c1.6,0.1,2.7,0.1,3.4,0.1
					c2.7,0,4.5-0.6,5.5-1.7C171.3,371.7,171.8,370.1,171.8,368.1z"/>
				<path class="st0" d="M211.8,362.7c-1,0-1.9,0-2.7,0c-0.8,0-1.6,0.1-2.4,0.2c-0.8,0.1-1.6,0.3-2.4,0.6c-0.8,0.3-1.7,0.7-2.7,1.3
					c0.1,0.4,0.1,0.8,0.1,1.2c0,0.3,0,0.7,0,1v29.6c0,1.4-0.5,2.5-1.4,3.4c-1,0.9-2.1,1.3-3.6,1.3c-1.4,0-2.6-0.4-3.6-1.3
					c-1-0.9-1.4-2-1.4-3.4v-29.6c0-1.3-0.1-2.3-0.3-3.1c-0.2-0.8-0.5-1.5-1-2.2c-0.3-0.4-0.5-0.7-0.7-1.1c-0.2-0.4-0.2-0.8-0.2-1.4
					c0-1.3,0.5-2.3,1.4-3.1c1-0.8,2.1-1.2,3.4-1.2c0.9,0,1.7,0.2,2.4,0.7c0.7,0.5,1.3,1.1,1.9,1.9c2.1-1.2,4.2-2.2,6.4-2.9
					c2.2-0.7,4.1-1.1,5.7-1.1c2.3,0,4,0.4,4.9,1.3c0.9,0.9,1.3,1.9,1.3,3.2c0,1.5-0.5,2.7-1.5,3.6
					C214.5,362.4,213.3,362.8,211.8,362.7z"/>
				<path class="st0" d="M234.9,370.2l13.3-14.2c0.6-0.7,1.3-1.3,2-1.8c0.7-0.5,1.6-0.8,2.7-0.8c1.4,0,2.5,0.4,3.4,1.2
					c0.9,0.8,1.4,1.9,1.4,3.1c0,1.2-0.4,2.3-1.3,3.1l-12.5,13c2.5,3.5,4.9,6.9,7.4,10.3c2.4,3.4,4.9,6.8,7.3,10.3
					c0.3,0.4,0.5,0.8,0.6,1.3c0.1,0.5,0.2,1,0.2,1.4c-0.1,1.2-0.6,2.2-1.5,2.9c-0.9,0.7-2,1.1-3.3,1.1c-0.7,0-1.3-0.1-1.8-0.2
					c-0.5-0.1-0.9-0.3-1.3-0.6c-0.4-0.3-0.7-0.7-1.1-1.2c-0.3-0.5-0.8-1.1-1.2-1.9L237,379.7c-0.4,0.3-0.7,0.7-1.1,1.1
					c-0.3,0.4-0.7,0.8-1.1,1.1v12.7c0,1.7-0.4,3.3-1.1,4.6c-0.7,1.4-2,2-3.9,2c-1.4,0-2.6-0.4-3.6-1.3c-1-0.9-1.4-2-1.4-3.3V344
					c0-0.9,0.1-1.8,0.2-2.6c0.1-0.8,0.4-1.6,0.7-2.2s0.9-1.2,1.5-1.5c0.6-0.4,1.5-0.6,2.5-0.6c1.4,0,2.6,0.4,3.6,1.3
					c1,0.9,1.4,2,1.4,3.3V370.2z"/>
				<path class="st0" d="M283.3,382.3c-1.3,0-2.6,0-4-0.1c-1.4-0.1-2.8-0.3-4.3-0.5v4.3c0,2.1,0.7,3.8,2.1,5
					c1.4,1.2,3.6,1.9,6.6,1.9c1.7,0,3.3-0.2,4.6-0.6c1.4-0.4,2.8-1,4.4-1.7c0.1-0.1,0.4-0.2,0.7-0.3c0.3-0.1,0.8-0.1,1.3-0.1
					c1.6,0,2.8,0.5,3.5,1.4c0.7,0.9,1.1,1.9,1.1,2.8c0,1.4-0.6,2.6-1.8,3.5c-1.2,0.9-2.7,1.6-4.4,2.2c-1.7,0.6-3.5,0.9-5.4,1.2
					c-1.9,0.2-3.5,0.3-4.9,0.3c-2.8,0-5.4-0.4-7.6-1.2c-2.2-0.8-4.1-1.9-5.6-3.3c-1.5-1.4-2.7-3.1-3.5-5c-0.8-1.9-1.2-4-1.2-6.2
					v-16.4c0-2.3,0.4-4.4,1.2-6.3c0.8-1.9,2-3.6,3.5-5c1.5-1.4,3.5-2.5,5.7-3.4c2.3-0.8,4.9-1.2,7.9-1.2c5.6,0,9.8,1.4,12.6,4.2
					c2.8,2.8,4.2,6.5,4.2,11.2c0,4.4-1.3,7.8-4,10.2C293.5,381.1,289.2,382.3,283.3,382.3z M290.2,368.1c0-2.5-0.6-4.2-1.8-5.3
					c-1.2-1-2.9-1.6-5.2-1.6c-2.6,0-4.6,0.6-6,1.9c-1.4,1.3-2.1,3.1-2.1,5.3v5.5c1.6,0.2,3.2,0.3,4.8,0.4c1.6,0.1,2.7,0.1,3.4,0.1
					c2.7,0,4.5-0.6,5.5-1.7C289.7,371.7,290.2,370.1,290.2,368.1z"/>
				<g>
					<g>
						<path class="st1" d="M323.7,400.7c-0.4,1-1,1.7-2,2.2c-0.9,0.5-1.9,0.7-2.9,0.5c-0.6-0.1-1.1-0.3-1.6-0.6
							c-0.5-0.3-0.9-0.7-1.2-1.1s-0.5-0.9-0.7-1.4c-0.1-0.5-0.1-1,0.1-1.5l16.8-44.2c0.4-1,1-1.7,1.9-2.2c0.9-0.5,1.9-0.6,2.9-0.4
							c1.1,0.2,2,0.8,2.7,1.7c0.7,0.9,1,1.8,0.9,2.8c0,0.3-0.2,0.7-0.3,1L323.7,400.7z"/>
					</g>
				</g>
				<path class="st0" d="M357.8,360.9c0-3.6,0.4-6.9,1.3-9.8c0.9-3,2.3-5.5,4.1-7.5c1.8-2.1,4.1-3.7,6.9-4.8
					c2.8-1.1,6.1-1.7,9.9-1.7c2.3,0,4.5,0.2,6.6,0.7c2.1,0.5,4,1.1,5.7,1.9c1.7,0.8,3,1.8,4,2.9c1,1.1,1.5,2.2,1.5,3.4
					c0,1.2-0.4,2.3-1.3,3.1c-0.9,0.9-2,1.3-3.4,1.3c-0.9,0-1.5-0.1-2-0.4c-0.5-0.3-1-0.6-1.7-1.1l-0.5-0.3c-2.5-1.7-5.3-2.6-8.4-2.6
					c-2.3,0-4.3,0.3-5.9,1c-1.6,0.7-2.9,1.7-3.9,3c-1,1.3-1.7,2.9-2.1,4.7c-0.4,1.9-0.6,3.9-0.6,6.2v16.5c0,2.3,0.2,4.4,0.6,6.2
					c0.4,1.9,1.1,3.4,2.1,4.7c1,1.3,2.3,2.3,3.9,3c1.6,0.7,3.6,1,5.9,1c3.1,0,5.9-0.8,8.4-2.5l0.5-0.3c0.7-0.4,1.3-0.8,1.7-1.1
					c0.5-0.3,1.1-0.4,2-0.4c1.4,0,2.5,0.4,3.4,1.3c0.9,0.9,1.3,1.9,1.3,3.1c0,1.2-0.5,2.4-1.5,3.5c-1,1.1-2.3,2-4,2.8
					c-1.7,0.8-3.6,1.4-5.7,1.9c-2.1,0.5-4.3,0.7-6.6,0.7c-3.8,0-7.1-0.6-9.9-1.7c-2.8-1.1-5.1-2.7-6.9-4.8c-1.8-2.1-3.2-4.6-4.1-7.5
					c-0.9-2.9-1.3-6.2-1.3-9.9V360.9z"/>
				<path class="st0" d="M423.4,401.3c-3.1,0-5.8-0.4-8.1-1.3c-2.3-0.9-4.3-2.1-5.8-3.6c-1.6-1.5-2.8-3.3-3.6-5.4
					c-0.8-2.1-1.2-4.3-1.2-6.6v-14.6c0-2.4,0.4-4.6,1.2-6.7c0.8-2,2-3.8,3.6-5.3c1.6-1.5,3.5-2.7,5.8-3.6c2.3-0.9,5-1.3,8.1-1.3
					c3,0,5.7,0.4,8.1,1.3c2.3,0.9,4.3,2.1,5.9,3.6c1.6,1.5,2.8,3.3,3.6,5.3c0.8,2,1.2,4.3,1.2,6.7v14.6c0,2.3-0.4,4.6-1.2,6.6
					c-0.8,2.1-2,3.9-3.6,5.4c-1.6,1.5-3.5,2.7-5.9,3.6C429.2,400.8,426.5,401.3,423.4,401.3z M423.4,392.5c2.9,0,5.1-0.7,6.5-2.1
					c1.4-1.4,2.2-3.4,2.2-5.9v-14.7c0-2.5-0.7-4.4-2.2-5.8c-1.5-1.4-3.6-2.1-6.5-2.1c-2.9,0-5.1,0.7-6.5,2.1
					c-1.5,1.4-2.2,3.4-2.2,5.8v14.7c0,2.5,0.7,4.5,2.2,5.9C418.4,391.8,420.5,392.5,423.4,392.5z"/>
				<path class="st0" d="M460,401.3c-0.7,0-1.5-0.1-2.4-0.3c-0.9-0.2-1.7-0.7-2.4-1.4c-0.7-0.7-1.3-1.7-1.8-3.1
					c-0.5-1.4-0.7-3.1-0.7-5.4v-49.4c0-1.2,0.5-2.3,1.4-3.2c1-0.9,2.1-1.4,3.6-1.4c1.4,0,2.6,0.4,3.6,1.3c1,0.9,1.4,2,1.4,3.3v48.8
					c0,1,0.1,1.7,0.2,2.3c0.1,0.5,0.5,1.1,1.1,1.8c0.3,0.3,0.6,0.6,0.8,1c0.2,0.3,0.4,0.8,0.4,1.5c0,1.3-0.5,2.3-1.4,3.1
					C462.9,400.9,461.6,401.3,460,401.3z"/>
				<path class="st0" d="M483,401.3c-0.7,0-1.5-0.1-2.4-0.3c-0.9-0.2-1.7-0.7-2.4-1.4c-0.7-0.7-1.3-1.7-1.8-3.1
					c-0.5-1.4-0.7-3.1-0.7-5.4v-49.4c0-1.2,0.5-2.3,1.4-3.2c1-0.9,2.1-1.4,3.6-1.4c1.4,0,2.6,0.4,3.6,1.3c1,0.9,1.4,2,1.4,3.3v48.8
					c0,1,0.1,1.7,0.2,2.3c0.1,0.5,0.5,1.1,1.1,1.8c0.3,0.3,0.6,0.6,0.8,1c0.2,0.3,0.4,0.8,0.4,1.5c0,1.3-0.5,2.3-1.4,3.1
					C485.8,400.9,484.6,401.3,483,401.3z"/>
				<path class="st0" d="M514.6,382.3c-1.3,0-2.6,0-4-0.1c-1.4-0.1-2.8-0.3-4.3-0.5v4.3c0,2.1,0.7,3.8,2.1,5
					c1.4,1.2,3.6,1.9,6.6,1.9c1.7,0,3.3-0.2,4.6-0.6c1.4-0.4,2.8-1,4.4-1.7c0.1-0.1,0.4-0.2,0.7-0.3c0.3-0.1,0.8-0.1,1.3-0.1
					c1.6,0,2.8,0.5,3.5,1.4c0.7,0.9,1.1,1.9,1.1,2.8c0,1.4-0.6,2.6-1.8,3.5c-1.2,0.9-2.7,1.6-4.4,2.2c-1.7,0.6-3.5,0.9-5.4,1.2
					c-1.9,0.2-3.5,0.3-4.9,0.3c-2.8,0-5.4-0.4-7.6-1.2c-2.2-0.8-4.1-1.9-5.6-3.3c-1.5-1.4-2.7-3.1-3.5-5c-0.8-1.9-1.2-4-1.2-6.2
					v-16.4c0-2.3,0.4-4.4,1.2-6.3c0.8-1.9,2-3.6,3.5-5c1.5-1.4,3.5-2.5,5.7-3.4c2.3-0.8,4.9-1.2,7.9-1.2c5.6,0,9.8,1.4,12.6,4.2
					c2.8,2.8,4.2,6.5,4.2,11.2c0,4.4-1.3,7.8-4,10.2C524.8,381.1,520.5,382.3,514.6,382.3z M521.6,368.1c0-2.5-0.6-4.2-1.8-5.3
					c-1.2-1-2.9-1.6-5.2-1.6c-2.6,0-4.6,0.6-6,1.9c-1.4,1.3-2.1,3.1-2.1,5.3v5.5c1.6,0.2,3.2,0.3,4.8,0.4c1.6,0.1,2.7,0.1,3.4,0.1
					c2.7,0,4.5-0.6,5.5-1.7C521.1,371.7,521.6,370.1,521.6,368.1z"/>
				<path class="st0" d="M556.9,353.1c2.3,0,4.4,0.3,6.4,0.8c2,0.5,4,1.3,5.9,2.4c1.1-1.8,2.4-3.1,3.8-4c1.4-0.9,2.8-1.3,3.9-1.3
					c1.2,0,2.3,0.4,3.2,1.2c1,0.8,1.5,1.9,1.5,3.1c0,0.6-0.1,1.1-0.4,1.6c-0.2,0.4-0.5,0.8-0.7,1l-1.4,1.4c-0.6,0.6-1.1,1.2-1.5,1.6
					c-0.4,0.5-0.7,0.9-1,1.3c-0.2,0.4-0.4,0.9-0.5,1.4c-0.1,0.5-0.1,1.1-0.1,1.8v5.5c0,2.4-0.4,4.6-1.1,6.7c-0.7,2-1.9,3.8-3.4,5.3
					c-1.5,1.5-3.5,2.7-5.7,3.5c-2.3,0.9-5,1.3-8.1,1.3c-1.1,0-2.1-0.1-3.2-0.2c-1.1-0.1-2.1-0.3-3-0.6c-0.3,0.7-0.5,1.3-0.6,1.8
					c-0.1,0.5-0.2,1-0.2,1.5c0,1.4,0.4,2.4,1.3,2.8c0.9,0.5,1.7,0.7,2.5,0.7h3.9c2.8,0,5.5,0.3,7.9,0.8c2.4,0.6,4.5,1.4,6.3,2.5
					c1.8,1.1,3.2,2.6,4.2,4.3c1,1.7,1.5,3.8,1.5,6.2s-0.5,4.6-1.5,6.4c-1,1.9-2.4,3.5-4.3,4.9c-1.8,1.4-4,2.4-6.4,3.1
					c-2.5,0.7-5.2,1.1-8.1,1.1c-2.8,0-5.4-0.3-7.8-1c-2.3-0.7-4.4-1.6-6.1-2.9c-1.7-1.2-3-2.8-3.9-4.6c-0.9-1.8-1.4-3.9-1.4-6.2
					c0-2,0.4-3.9,1.3-5.6c0.9-1.7,2.2-3.3,4.1-5c-0.9-1.2-1.5-2.5-1.8-3.8c-0.3-1.3-0.5-2.5-0.5-3.6c0-1,0.2-2.2,0.6-3.4
					c0.4-1.2,1.2-2.5,2.4-3.7c-3.6-3.3-5.5-7.6-5.5-13c0-2.5,0.4-4.8,1.1-6.8c0.7-2.1,1.9-3.9,3.3-5.5c1.5-1.5,3.3-2.7,5.5-3.6
					C551.5,353.5,554,353.1,556.9,353.1z M556.7,402.1c-1,0-1.9,0-2.8-0.1c-0.9-0.1-1.8-0.1-2.6-0.2c-1.6,1.6-2.4,3.5-2.4,5.6
					c0,2.2,0.8,3.9,2.3,5.2c1.5,1.2,3.9,1.9,7,1.9c3,0,5.4-0.6,7.3-1.7c1.9-1.1,2.9-2.8,2.9-5c0-3.7-3.2-5.6-9.7-5.6H556.7z
					 M566.1,368.1c0-0.7,0-1.5,0-2.3c0-0.8,0-1.5,0.1-2.3c-1.4-0.7-2.7-1.2-3.9-1.6c-1.3-0.4-2.6-0.6-4-0.6c-3,0-5.2,0.8-6.6,2.3
					c-1.5,1.5-2.2,3.8-2.2,6.8c0,2.7,0.7,4.9,2,6.5c1.3,1.6,3.5,2.4,6.5,2.4c2.8,0,4.8-0.7,6.2-2.2c1.3-1.4,2-3.5,2-6.1V368.1z"/>
				<path class="st0" d="M604.5,382.3c-1.3,0-2.6,0-4-0.1c-1.4-0.1-2.8-0.3-4.3-0.5v4.3c0,2.1,0.7,3.8,2.1,5
					c1.4,1.2,3.6,1.9,6.6,1.9c1.7,0,3.3-0.2,4.6-0.6c1.4-0.4,2.8-1,4.4-1.7c0.1-0.1,0.4-0.2,0.7-0.3c0.3-0.1,0.8-0.1,1.3-0.1
					c1.6,0,2.8,0.5,3.5,1.4c0.7,0.9,1.1,1.9,1.1,2.8c0,1.4-0.6,2.6-1.8,3.5c-1.2,0.9-2.7,1.6-4.4,2.2c-1.7,0.6-3.5,0.9-5.4,1.2
					c-1.9,0.2-3.5,0.3-4.9,0.3c-2.8,0-5.4-0.4-7.6-1.2c-2.2-0.8-4.1-1.9-5.6-3.3c-1.5-1.4-2.7-3.1-3.5-5c-0.8-1.9-1.2-4-1.2-6.2
					v-16.4c0-2.3,0.4-4.4,1.2-6.3c0.8-1.9,2-3.6,3.5-5c1.5-1.4,3.5-2.5,5.7-3.4c2.3-0.8,4.9-1.2,7.9-1.2c5.6,0,9.8,1.4,12.6,4.2
					c2.8,2.8,4.2,6.5,4.2,11.2c0,4.4-1.3,7.8-4,10.2C614.7,381.1,610.4,382.3,604.5,382.3z M611.5,368.1c0-2.5-0.6-4.2-1.8-5.3
					c-1.2-1-2.9-1.6-5.2-1.6c-2.6,0-4.6,0.6-6,1.9c-1.4,1.3-2.1,3.1-2.1,5.3v5.5c1.6,0.2,3.2,0.3,4.8,0.4c1.6,0.1,2.7,0.1,3.4,0.1
					c2.7,0,4.5-0.6,5.5-1.7C610.9,371.7,611.5,370.1,611.5,368.1z"/>
			</g>
		</g>
		<g id="vrije_bassisschool_Waregem">
			<g>
				<path class="st1" d="M24.1,471.3c-0.3,0.9-0.7,1.6-1.1,2c-0.4,0.4-1,0.6-1.7,0.6c-1.3,0-2.2-0.8-2.7-2.5L10,444.8
					c-0.2-0.6-0.1-1.1,0.3-1.6c0.4-0.5,1-0.7,1.6-0.7c0.3,0,0.6,0.1,1,0.2c0.3,0.2,0.6,0.5,0.7,1l7.7,24.9l7.6-24.9
					c0.1-0.3,0.3-0.6,0.6-0.9c0.3-0.3,0.7-0.4,1.2-0.4c0.5,0,1,0.2,1.4,0.6c0.4,0.4,0.6,0.8,0.6,1.4c0,0.2,0,0.4-0.1,0.5L24.1,471.3
					z"/>
				<path class="st1" d="M43.3,472c0,0.6-0.2,1-0.6,1.4c-0.4,0.4-0.8,0.5-1.4,0.5c-0.6,0-1-0.2-1.4-0.5c-0.4-0.4-0.6-0.8-0.6-1.4
					v-21c0-1-0.1-1.9-0.2-2.6c-0.1-0.7-0.4-1.4-0.9-2c-0.2-0.3-0.4-0.6-0.4-1c0-0.5,0.2-0.9,0.5-1.3c0.4-0.3,0.8-0.5,1.3-0.5
					c0.4,0,0.8,0.2,1.2,0.5c0.4,0.3,0.8,0.8,1.1,1.4c1.4-0.9,2.9-1.6,4.5-2.1c1.6-0.5,3-0.7,4.1-0.7c1,0,1.8,0.2,2.2,0.5
					c0.4,0.4,0.6,0.8,0.6,1.4c0,0.6-0.2,1.1-0.6,1.5c-0.4,0.4-0.8,0.6-1.4,0.5c-0.7,0-1.3,0-2,0c-0.6,0-1.3,0.1-2,0.2
					c-0.7,0.1-1.3,0.4-2.1,0.7c-0.7,0.3-1.5,0.8-2.3,1.4v0.1v0.2c0,0.1,0,0.3,0,0.6c0,0.3,0,0.6,0,1.1V472z"/>
				<path class="st1" d="M64.2,432.3c0,0.7-0.2,1.3-0.7,1.8c-0.5,0.5-1.1,0.7-1.8,0.7c-0.7,0-1.3-0.2-1.8-0.7
					c-0.5-0.5-0.7-1.1-0.7-1.8c0-0.7,0.2-1.3,0.7-1.8c0.5-0.5,1.1-0.7,1.8-0.7c0.7,0,1.3,0.2,1.8,0.7C64,431,64.2,431.6,64.2,432.3z
					 M63.7,472c0,0.6-0.2,1-0.6,1.4c-0.4,0.4-0.8,0.5-1.4,0.5c-0.6,0-1-0.2-1.4-0.5c-0.4-0.4-0.6-0.8-0.6-1.4v-27.4
					c0-0.6,0.2-1,0.6-1.4c0.4-0.4,0.9-0.6,1.4-0.6c0.5,0,1,0.2,1.4,0.6c0.4,0.4,0.6,0.9,0.6,1.4V472z"/>
				<path class="st1" d="M78.5,474.8c0,3.1-0.8,5.6-2.3,7.5c-1.5,2-3.6,3.2-6.1,3.6c-0.2,0-0.4,0.1-0.6,0c-0.1,0-0.3,0-0.5,0
					c-0.4,0-0.7-0.1-1-0.3c-0.3-0.2-0.5-0.5-0.6-0.9c-0.2-0.7-0.1-1.2,0.3-1.5c0.4-0.3,0.8-0.5,1.2-0.6c1.8-0.4,3.2-1.2,4.2-2.3
					c1-1.1,1.5-2.9,1.5-5.3v-30.6c0-0.6,0.2-1,0.6-1.4c0.4-0.4,0.9-0.6,1.4-0.6c0.5,0,1,0.2,1.4,0.6c0.4,0.4,0.6,0.9,0.6,1.4V474.8z
					 M79.1,432.3c0,0.7-0.2,1.3-0.7,1.8c-0.5,0.5-1.1,0.7-1.8,0.7c-0.7,0-1.3-0.2-1.8-0.7c-0.5-0.5-0.8-1.1-0.8-1.8
					c0-0.7,0.3-1.3,0.8-1.8c0.5-0.5,1.1-0.7,1.8-0.7c0.7,0,1.3,0.2,1.8,0.7C78.8,431,79.1,431.6,79.1,432.3z"/>
				<path class="st1" d="M98.1,470.6c1.4,0,2.6-0.2,3.6-0.5c1-0.3,2-0.8,3.1-1.2c0.1,0,0.2-0.1,0.3-0.1c0.1,0,0.2-0.1,0.4-0.1
					c0.5,0,0.9,0.2,1.2,0.5c0.3,0.3,0.5,0.7,0.5,1.2c0,0.7-0.4,1.3-1.1,1.7c-0.7,0.5-1.6,0.8-2.5,1.1c-1,0.3-2,0.5-3.1,0.6
					c-1.1,0.1-2.1,0.2-2.9,0.2c-1.7,0-3.2-0.3-4.5-0.8c-1.3-0.5-2.4-1.2-3.4-2.1c-0.9-0.9-1.6-1.9-2.1-3.1c-0.5-1.2-0.7-2.5-0.7-3.9
					v-11.6c0-1.4,0.2-2.8,0.7-4c0.5-1.2,1.2-2.3,2.1-3.2c0.9-0.9,2.1-1.6,3.4-2.1c1.4-0.5,2.9-0.8,4.7-0.8c3.3,0,5.8,0.9,7.4,2.6
					c1.6,1.8,2.4,4.1,2.4,7c0,2.7-0.8,4.9-2.4,6.4c-1.6,1.6-4.1,2.3-7.7,2.3c-1,0-2.1-0.1-3.3-0.2c-1.2-0.1-2.4-0.3-3.5-0.5v4.3
					c0,1.9,0.6,3.3,1.8,4.5C93.8,470,95.7,470.6,98.1,470.6z M103.8,452c0-2.2-0.5-3.8-1.6-4.8c-1.1-1-2.6-1.4-4.5-1.4
					c-2.2,0-3.9,0.6-5.1,1.7c-1.2,1.1-1.8,2.6-1.8,4.5v5.1c0.6,0.1,1.3,0.2,2,0.2c0.7,0.1,1.4,0.1,2,0.2c0.6,0,1.2,0.1,1.8,0.1
					c0.5,0,0.9,0,1.3,0c1.2,0,2.3-0.2,3-0.5c0.8-0.3,1.4-0.7,1.8-1.2c0.4-0.5,0.7-1.1,0.8-1.8C103.7,453.4,103.8,452.7,103.8,452z"
					/>
				<path class="st1" d="M126.6,431.1c0-0.5,0.2-0.9,0.5-1.3c0.3-0.4,0.8-0.6,1.5-0.6c0.6,0,1.1,0.2,1.4,0.6
					c0.3,0.4,0.5,0.8,0.5,1.3v14.2c1.4-1,2.8-1.7,4.2-2.2c1.4-0.5,3-0.8,4.7-0.8c1.7,0,3.1,0.2,4.3,0.7c1.1,0.5,2.1,1.1,2.8,2
					c0.7,0.8,1.2,1.8,1.6,2.9c0.3,1.1,0.5,2.3,0.5,3.6v11.7c0,1.5-0.2,2.9-0.7,4.2c-0.5,1.3-1.1,2.4-2.1,3.4c-0.9,0.9-2,1.7-3.4,2.2
					c-1.3,0.5-2.9,0.8-4.7,0.8c-1.8,0-3.3-0.2-4.7-0.7c-1.3-0.5-2.5-1.1-3.4-2c-0.9-0.8-1.7-1.8-2.1-3c-0.5-1.1-0.7-2.3-0.7-3.6
					V431.1z M130.5,464.6c0,1.8,0.6,3.2,1.9,4.2c1.3,1,3,1.5,5.2,1.5c2.4,0,4.2-0.6,5.3-1.9c1.1-1.2,1.7-3,1.7-5.1v-11.7
					c0-1.9-0.5-3.4-1.5-4.4c-1-1-2.6-1.6-4.9-1.6c-1.6,0-3,0.3-4.3,0.9c-1.2,0.6-2.4,1.5-3.3,2.5V464.6z"/>
				<path class="st1" d="M171.3,452.9c0-4.8-2.4-7.2-7.1-7.2c-1.1,0-2.1,0.1-2.8,0.3c-0.7,0.2-1.4,0.6-2.1,1
					c-0.2,0.1-0.4,0.2-0.6,0.3c-0.2,0.1-0.5,0.2-0.8,0.2c-0.4,0-0.8-0.2-1-0.5c-0.2-0.3-0.3-0.7-0.4-1.1c-0.1-0.6,0.1-1.2,0.6-1.6
					c0.5-0.4,1.1-0.8,1.9-1.1c0.8-0.3,1.7-0.5,2.7-0.6c1-0.1,2-0.2,3-0.2c3.7,0,6.4,1,8,3.1c1.6,2.1,2.4,5.1,2.4,9v13.6
					c0,1.6,0.5,2.4,1.6,2.4c0.1,0,0.2,0,0.3,0c0.1,0,0.1,0,0.2,0c0.4,0,0.8,0.2,1,0.5c0.2,0.3,0.3,0.7,0.3,1.1c0,0.6-0.2,1-0.7,1.3
					c-0.5,0.2-1,0.4-1.6,0.4c-0.9,0-1.8-0.3-2.6-0.9c-0.8-0.6-1.5-1.5-2-2.5c-2.5,2.4-5.4,3.6-8.6,3.6c-3.1,0-5.3-0.8-6.8-2.4
					c-1.5-1.6-2.2-3.8-2.2-6.4v-0.2c0-5.9,3.5-8.8,10.5-8.8c1,0,2.1,0.1,3.3,0.3c1.1,0.2,2.3,0.5,3.4,0.8V452.9z M164.6,459.1
					c-1.4,0-2.5,0.2-3.4,0.5c-0.8,0.3-1.5,0.7-2,1.2c-0.5,0.5-0.8,1.1-1,1.8c-0.2,0.7-0.2,1.4-0.2,2.2v0.2c0,1.6,0.4,2.9,1.3,3.9
					c0.8,1,2.4,1.5,4.7,1.5c1.4,0,2.7-0.2,3.9-0.7c1.2-0.5,2.3-1.2,3.5-2.2v-7.2c-1.2-0.4-2.4-0.7-3.6-0.9
					C166.6,459.2,165.5,459.1,164.6,459.1z"/>
				<path class="st1" d="M184.3,450.9c0-2.6,0.8-4.6,2.4-6.2c1.6-1.5,4-2.3,7.2-2.3c0.8,0,1.6,0.1,2.5,0.2c0.9,0.1,1.8,0.3,2.5,0.5
					c0.8,0.2,1.4,0.6,2,0.9c0.5,0.4,0.8,0.9,0.8,1.4c0,0.5-0.2,0.9-0.5,1.2c-0.3,0.3-0.7,0.5-1.3,0.5c-0.2,0-0.4,0-0.5-0.1
					c-0.1,0-0.3-0.1-0.4-0.2c-0.7-0.3-1.4-0.6-2.1-0.8c-0.7-0.2-1.7-0.4-2.8-0.4c-2.1,0-3.6,0.4-4.5,1.2c-1,0.8-1.4,2-1.4,3.7
					c0,1.1,0.2,2,0.7,2.6c0.5,0.6,1.3,1.3,2.5,1.9c1.2,0.6,2.5,1.1,3.8,1.6c1.3,0.4,2.5,1,3.7,1.7c1.1,0.7,2.1,1.6,2.8,2.6
					c0.7,1.1,1.1,2.5,1.1,4.3c0,2.7-0.8,4.8-2.5,6.3c-1.7,1.5-4.2,2.3-7.5,2.3c-0.8,0-1.7,0-2.7-0.1c-1-0.1-2-0.2-2.9-0.5
					c-0.9-0.2-1.7-0.6-2.3-1c-0.6-0.4-0.9-0.9-0.9-1.5c0-0.4,0.2-0.9,0.5-1.2c0.3-0.4,0.8-0.6,1.4-0.6c0.1,0,0.2,0,0.4,0.1
					c0.9,0.4,1.9,0.7,2.9,1c1,0.3,2.2,0.5,3.6,0.5c1.9,0,3.3-0.4,4.5-1.2c1.1-0.8,1.7-2.1,1.7-3.9c0-1.3-0.2-2.3-0.7-2.9
					c-0.5-0.6-1.1-1.1-1.8-1.5c-1.2-0.6-2.5-1.1-3.9-1.6c-1.4-0.4-2.7-1-3.9-1.7c-1.2-0.7-2.2-1.6-3-2.6
					C184.7,454.1,184.3,452.7,184.3,450.9z"/>
				<path class="st1" d="M214.2,432.3c0,0.7-0.2,1.3-0.7,1.8c-0.5,0.5-1.1,0.7-1.8,0.7c-0.7,0-1.3-0.2-1.8-0.7
					c-0.5-0.5-0.7-1.1-0.7-1.8c0-0.7,0.2-1.3,0.7-1.8c0.5-0.5,1.1-0.7,1.8-0.7c0.7,0,1.3,0.2,1.8,0.7
					C214,431,214.2,431.6,214.2,432.3z M213.7,472c0,0.6-0.2,1-0.6,1.4c-0.4,0.4-0.8,0.5-1.4,0.5c-0.6,0-1-0.2-1.4-0.5
					c-0.4-0.4-0.6-0.8-0.6-1.4v-27.4c0-0.6,0.2-1,0.6-1.4c0.4-0.4,0.9-0.6,1.4-0.6c0.5,0,1,0.2,1.4,0.6c0.4,0.4,0.6,0.9,0.6,1.4V472
					z"/>
				<path class="st1" d="M222.6,450.9c0-2.6,0.8-4.6,2.4-6.2c1.6-1.5,4-2.3,7.2-2.3c0.8,0,1.6,0.1,2.5,0.2c0.9,0.1,1.8,0.3,2.5,0.5
					c0.8,0.2,1.4,0.6,2,0.9c0.5,0.4,0.8,0.9,0.8,1.4c0,0.5-0.2,0.9-0.5,1.2c-0.3,0.3-0.7,0.5-1.3,0.5c-0.2,0-0.4,0-0.5-0.1
					c-0.1,0-0.3-0.1-0.4-0.2c-0.7-0.3-1.4-0.6-2.1-0.8c-0.7-0.2-1.7-0.4-2.8-0.4c-2.1,0-3.6,0.4-4.5,1.2c-1,0.8-1.4,2-1.4,3.7
					c0,1.1,0.2,2,0.7,2.6c0.5,0.6,1.3,1.3,2.5,1.9c1.2,0.6,2.5,1.1,3.8,1.6c1.3,0.4,2.5,1,3.7,1.7c1.1,0.7,2.1,1.6,2.8,2.6
					c0.7,1.1,1.1,2.5,1.1,4.3c0,2.7-0.8,4.8-2.5,6.3c-1.7,1.5-4.2,2.3-7.5,2.3c-0.8,0-1.7,0-2.7-0.1c-1-0.1-2-0.2-2.9-0.5
					c-0.9-0.2-1.7-0.6-2.3-1c-0.6-0.4-0.9-0.9-0.9-1.5c0-0.4,0.2-0.9,0.5-1.2c0.3-0.4,0.8-0.6,1.4-0.6c0.1,0,0.2,0,0.4,0.1
					c0.9,0.4,1.9,0.7,2.9,1c1,0.3,2.2,0.5,3.6,0.5c1.9,0,3.3-0.4,4.5-1.2c1.1-0.8,1.7-2.1,1.7-3.9c0-1.3-0.2-2.3-0.7-2.9
					c-0.5-0.6-1.1-1.1-1.8-1.5c-1.2-0.6-2.5-1.1-3.9-1.6c-1.4-0.4-2.7-1-3.9-1.7c-1.2-0.7-2.2-1.6-3-2.6
					C223,454.1,222.6,452.7,222.6,450.9z"/>
				<path class="st1" d="M246.6,450.9c0-2.6,0.8-4.6,2.4-6.2c1.6-1.5,4-2.3,7.2-2.3c0.8,0,1.6,0.1,2.5,0.2c0.9,0.1,1.8,0.3,2.5,0.5
					c0.8,0.2,1.4,0.6,2,0.9c0.5,0.4,0.8,0.9,0.8,1.4c0,0.5-0.2,0.9-0.5,1.2c-0.3,0.3-0.7,0.5-1.3,0.5c-0.2,0-0.4,0-0.5-0.1
					c-0.1,0-0.3-0.1-0.4-0.2c-0.7-0.3-1.4-0.6-2.1-0.8c-0.7-0.2-1.7-0.4-2.8-0.4c-2.1,0-3.6,0.4-4.5,1.2c-1,0.8-1.4,2-1.4,3.7
					c0,1.1,0.2,2,0.7,2.6c0.5,0.6,1.3,1.3,2.5,1.9c1.2,0.6,2.5,1.1,3.8,1.6c1.3,0.4,2.5,1,3.7,1.7c1.1,0.7,2.1,1.6,2.8,2.6
					c0.7,1.1,1.1,2.5,1.1,4.3c0,2.7-0.8,4.8-2.5,6.3c-1.7,1.5-4.2,2.3-7.5,2.3c-0.8,0-1.7,0-2.7-0.1c-1-0.1-2-0.2-2.9-0.5
					c-0.9-0.2-1.7-0.6-2.3-1c-0.6-0.4-0.9-0.9-0.9-1.5c0-0.4,0.2-0.9,0.5-1.2c0.3-0.4,0.8-0.6,1.4-0.6c0.1,0,0.2,0,0.4,0.1
					c0.9,0.4,1.9,0.7,2.9,1c1,0.3,2.2,0.5,3.6,0.5c1.9,0,3.3-0.4,4.5-1.2c1.1-0.8,1.7-2.1,1.7-3.9c0-1.3-0.2-2.3-0.7-2.9
					c-0.5-0.6-1.1-1.1-1.8-1.5c-1.2-0.6-2.5-1.1-3.9-1.6c-1.4-0.4-2.7-1-3.9-1.7c-1.2-0.7-2.2-1.6-3-2.6
					C247,454.1,246.6,452.7,246.6,450.9z"/>
				<path class="st1" d="M270.6,453.5c0-1.5,0.2-3,0.6-4.3c0.4-1.3,1.1-2.5,1.9-3.5c0.9-1,2-1.8,3.3-2.3c1.3-0.6,3-0.8,4.9-0.8
					c0.7,0,1.5,0.1,2.4,0.2c0.9,0.1,1.8,0.3,2.7,0.5c0.8,0.3,1.6,0.6,2.2,1c0.6,0.4,0.9,1,0.9,1.6c0,0.4-0.2,0.8-0.5,1.1
					c-0.3,0.3-0.7,0.5-1.1,0.5c-0.2,0-0.4,0-0.5,0c-0.1,0-0.3-0.1-0.4-0.1h0.1c-0.8-0.4-1.5-0.8-2.3-1.1c-0.8-0.3-1.7-0.5-2.9-0.5
					c-2.7,0-4.5,0.7-5.6,2c-1.1,1.3-1.7,3.2-1.7,5.6v9.4c0,2.4,0.6,4.3,1.7,5.6c1.1,1.3,3,2,5.6,2c1.2,0,2.1-0.2,2.9-0.5
					c0.8-0.3,1.5-0.6,2.3-1h-0.1c0.4-0.1,0.7-0.2,0.9-0.2c0.4,0,0.8,0.2,1.1,0.5c0.3,0.3,0.5,0.7,0.5,1.2c0,0.6-0.3,1.2-0.9,1.6
					c-0.6,0.4-1.3,0.8-2.2,1c-0.8,0.2-1.7,0.4-2.7,0.5c-0.9,0.1-1.7,0.2-2.4,0.2c-1.9,0-3.5-0.3-4.9-0.8c-1.3-0.6-2.5-1.3-3.3-2.3
					c-0.9-1-1.5-2.1-1.9-3.5c-0.4-1.3-0.6-2.8-0.6-4.3V453.5z"/>
				<path class="st1" d="M298.9,473.3c-0.3,0.4-0.8,0.5-1.3,0.5c-0.6,0-1-0.2-1.4-0.5c-0.4-0.4-0.6-0.8-0.6-1.4v-41.1
					c0-0.5,0.2-0.9,0.5-1.4c0.3-0.4,0.8-0.6,1.4-0.6c0.6,0,1,0.2,1.4,0.6c0.4,0.4,0.5,0.9,0.5,1.4v14.7c1.3-1,2.6-1.8,4.1-2.3
					c1.4-0.5,2.8-0.8,4.3-0.8c3.2,0,5.5,0.9,7,2.8c1.5,1.9,2.2,4.2,2.2,7.1V472c0,0.6-0.2,1-0.5,1.4c-0.4,0.4-0.8,0.5-1.4,0.5
					c-0.6,0-1-0.2-1.4-0.5c-0.4-0.4-0.6-0.8-0.6-1.4v-19.6c0-2.1-0.5-3.6-1.4-4.7c-0.9-1.1-2.4-1.7-4.5-1.7c-1.3,0-2.6,0.3-4,1
					c-1.4,0.6-2.6,1.7-3.7,3v22C299.4,472.5,299.2,473,298.9,473.3z"/>
				<path class="st1" d="M335.6,473.9c-1.8,0-3.4-0.3-4.8-0.8s-2.6-1.3-3.5-2.2c-0.9-0.9-1.7-2.1-2.1-3.4c-0.5-1.3-0.7-2.7-0.7-4.2
					v-10.4c0-1.5,0.2-2.9,0.7-4.2c0.5-1.3,1.2-2.4,2.1-3.4c0.9-1,2.1-1.7,3.5-2.3c1.4-0.5,3-0.8,4.8-0.8c1.8,0,3.4,0.3,4.8,0.8
					c1.4,0.5,2.6,1.3,3.5,2.3c0.9,1,1.6,2.1,2.1,3.4c0.5,1.3,0.7,2.7,0.7,4.2v10.4c0,1.5-0.2,2.9-0.7,4.2c-0.5,1.3-1.2,2.4-2.1,3.4
					c-0.9,0.9-2.1,1.7-3.5,2.2S337.4,473.9,335.6,473.9z M335.6,470.3c2.4,0,4.2-0.6,5.4-1.9c1.2-1.2,1.8-3,1.8-5.1v-10.4
					c0-2.2-0.6-3.9-1.8-5.2c-1.2-1.3-3-1.9-5.4-1.9c-2.4,0-4.2,0.6-5.4,1.9c-1.2,1.3-1.8,3-1.8,5.2v10.4c0,2.2,0.6,3.9,1.8,5.1
					C331.4,469.7,333.2,470.3,335.6,470.3z"/>
				<path class="st1" d="M363.6,473.9c-1.8,0-3.4-0.3-4.8-0.8s-2.6-1.3-3.5-2.2c-0.9-0.9-1.7-2.1-2.1-3.4c-0.5-1.3-0.7-2.7-0.7-4.2
					v-10.4c0-1.5,0.2-2.9,0.7-4.2c0.5-1.3,1.2-2.4,2.1-3.4c0.9-1,2.1-1.7,3.5-2.3c1.4-0.5,3-0.8,4.8-0.8c1.8,0,3.4,0.3,4.8,0.8
					c1.4,0.5,2.6,1.3,3.5,2.3c0.9,1,1.6,2.1,2.1,3.4c0.5,1.3,0.7,2.7,0.7,4.2v10.4c0,1.5-0.2,2.9-0.7,4.2c-0.5,1.3-1.2,2.4-2.1,3.4
					c-0.9,0.9-2.1,1.7-3.5,2.2S365.4,473.9,363.6,473.9z M363.6,470.3c2.4,0,4.2-0.6,5.4-1.9c1.2-1.2,1.8-3,1.8-5.1v-10.4
					c0-2.2-0.6-3.9-1.8-5.2c-1.2-1.3-3-1.9-5.4-1.9s-4.2,0.6-5.4,1.9c-1.2,1.3-1.8,3-1.8,5.2v10.4c0,2.2,0.6,3.9,1.8,5.1
					C359.4,469.7,361.2,470.3,363.6,470.3z"/>
				<path class="st1" d="M382.4,431.2c0-0.5,0.2-1,0.5-1.4c0.4-0.4,0.8-0.6,1.4-0.6c0.6,0,1,0.2,1.4,0.6c0.4,0.4,0.5,0.9,0.5,1.4
					V468c0,1.4,0.4,2.5,1.1,3.3c0.2,0.2,0.2,0.5,0.2,0.8c0,0.5-0.2,0.9-0.5,1.3c-0.3,0.3-0.7,0.5-1.3,0.5c-0.3,0-0.7-0.1-1.1-0.2
					c-0.4-0.1-0.8-0.4-1.1-0.8c-0.3-0.4-0.6-1-0.9-1.8c-0.2-0.8-0.4-1.8-0.4-3.1V431.2z"/>
				<path class="st1" d="M426.6,438c-0.6,2.5-1.2,5.2-1.8,8.1c-0.6,2.9-1.3,5.8-2,8.7c-0.7,2.9-1.3,5.8-2,8.7
					c-0.6,2.9-1.2,5.5-1.8,8c-0.2,0.6-0.5,1.1-0.9,1.7c-0.4,0.5-1.1,0.8-1.9,0.8c-0.8,0-1.4-0.2-1.9-0.7c-0.5-0.5-0.8-1.1-1-1.8
					l-9.2-39.1v-0.2c0-0.6,0.3-1,0.8-1.3c0.5-0.3,1-0.4,1.6-0.4c0.4,0,0.7,0.1,1.1,0.4c0.3,0.3,0.6,0.6,0.8,1.1l8.1,34.9l7.5-33.3
					c0.2-1,0.6-1.8,0.9-2.4c0.4-0.6,1-0.9,1.8-0.9c0.8,0,1.4,0.3,1.8,0.9c0.4,0.6,0.7,1.4,0.9,2.4l7.7,33.4l8-35
					c0.2-0.4,0.4-0.8,0.7-1.1c0.3-0.3,0.6-0.4,1-0.4c0.6,0,1.1,0.1,1.7,0.4c0.5,0.3,0.8,0.7,0.8,1.3c0,0,0,0.1,0,0.2s0,0.2-0.1,0.3
					v0.1l-9.2,38.7c-0.2,0.6-0.5,1.2-1,1.7c-0.5,0.5-1.1,0.8-1.8,0.8c-0.8,0-1.4-0.3-1.9-0.8c-0.5-0.5-0.8-1.1-1-1.8L426.6,438z"/>
				<path class="st1" d="M468.1,452.9c0-4.8-2.4-7.2-7.1-7.2c-1.1,0-2.1,0.1-2.8,0.3c-0.7,0.2-1.4,0.6-2.1,1
					c-0.2,0.1-0.4,0.2-0.6,0.3c-0.2,0.1-0.5,0.2-0.8,0.2c-0.4,0-0.8-0.2-1-0.5c-0.2-0.3-0.3-0.7-0.4-1.1c-0.1-0.6,0.1-1.2,0.6-1.6
					c0.5-0.4,1.1-0.8,1.9-1.1c0.8-0.3,1.7-0.5,2.7-0.6c1-0.1,2-0.2,3-0.2c3.7,0,6.4,1,8,3.1c1.6,2.1,2.4,5.1,2.4,9v13.6
					c0,1.6,0.5,2.4,1.6,2.4c0.1,0,0.2,0,0.3,0c0.1,0,0.1,0,0.2,0c0.4,0,0.8,0.2,1,0.5c0.2,0.3,0.3,0.7,0.3,1.1c0,0.6-0.2,1-0.7,1.3
					c-0.5,0.2-1,0.4-1.6,0.4c-0.9,0-1.8-0.3-2.6-0.9c-0.8-0.6-1.5-1.5-2-2.5c-2.5,2.4-5.4,3.6-8.6,3.6c-3.1,0-5.3-0.8-6.8-2.4
					c-1.5-1.6-2.2-3.8-2.2-6.4v-0.2c0-5.9,3.5-8.8,10.5-8.8c1,0,2.1,0.1,3.3,0.3c1.1,0.2,2.3,0.5,3.4,0.8V452.9z M461.3,459.1
					c-1.4,0-2.5,0.2-3.4,0.5c-0.8,0.3-1.5,0.7-2,1.2c-0.5,0.5-0.8,1.1-1,1.8c-0.2,0.7-0.2,1.4-0.2,2.2v0.2c0,1.6,0.4,2.9,1.3,3.9
					c0.8,1,2.4,1.5,4.7,1.5c1.4,0,2.7-0.2,3.9-0.7c1.2-0.5,2.3-1.2,3.5-2.2v-7.2c-1.2-0.4-2.4-0.7-3.6-0.9
					C463.3,459.2,462.2,459.1,461.3,459.1z"/>
				<path class="st1" d="M486,472c0,0.6-0.2,1-0.6,1.4c-0.4,0.4-0.8,0.5-1.4,0.5c-0.6,0-1-0.2-1.4-0.5c-0.4-0.4-0.6-0.8-0.6-1.4v-21
					c0-1-0.1-1.9-0.2-2.6c-0.1-0.7-0.4-1.4-0.9-2c-0.2-0.3-0.4-0.6-0.4-1c0-0.5,0.2-0.9,0.5-1.3c0.4-0.3,0.8-0.5,1.3-0.5
					c0.4,0,0.8,0.2,1.2,0.5c0.4,0.3,0.8,0.8,1.1,1.4c1.4-0.9,2.9-1.6,4.5-2.1c1.6-0.5,3-0.7,4.1-0.7c1,0,1.8,0.2,2.2,0.5
					c0.4,0.4,0.6,0.8,0.6,1.4c0,0.6-0.2,1.1-0.6,1.5c-0.4,0.4-0.8,0.6-1.4,0.5c-0.7,0-1.3,0-2,0c-0.6,0-1.3,0.1-2,0.2
					c-0.7,0.1-1.3,0.4-2.1,0.7c-0.7,0.3-1.5,0.8-2.3,1.4v0.1v0.2c0,0.1,0,0.3,0,0.6c0,0.3,0,0.6,0,1.1V472z"/>
				<path class="st1" d="M511.4,470.6c1.4,0,2.6-0.2,3.6-0.5c1-0.3,2-0.8,3.1-1.2c0.1,0,0.2-0.1,0.3-0.1s0.2-0.1,0.4-0.1
					c0.5,0,0.9,0.2,1.2,0.5c0.3,0.3,0.5,0.7,0.5,1.2c0,0.7-0.4,1.3-1.1,1.7c-0.7,0.5-1.6,0.8-2.5,1.1c-1,0.3-2,0.5-3.1,0.6
					c-1.1,0.1-2.1,0.2-2.9,0.2c-1.7,0-3.2-0.3-4.5-0.8s-2.4-1.2-3.4-2.1c-0.9-0.9-1.6-1.9-2.1-3.1c-0.5-1.2-0.7-2.5-0.7-3.9v-11.6
					c0-1.4,0.2-2.8,0.7-4c0.5-1.2,1.2-2.3,2.1-3.2c0.9-0.9,2.1-1.6,3.4-2.1c1.4-0.5,2.9-0.8,4.7-0.8c3.3,0,5.8,0.9,7.4,2.6
					c1.6,1.8,2.4,4.1,2.4,7c0,2.7-0.8,4.9-2.4,6.4c-1.6,1.6-4.1,2.3-7.7,2.3c-1,0-2.1-0.1-3.3-0.2c-1.2-0.1-2.4-0.3-3.5-0.5v4.3
					c0,1.9,0.6,3.3,1.8,4.5C507.2,470,509,470.6,511.4,470.6z M517.1,452c0-2.2-0.5-3.8-1.6-4.8c-1.1-1-2.6-1.4-4.5-1.4
					c-2.2,0-3.9,0.6-5.1,1.7c-1.2,1.1-1.8,2.6-1.8,4.5v5.1c0.6,0.1,1.3,0.2,2,0.2c0.7,0.1,1.4,0.1,2,0.2c0.6,0,1.2,0.1,1.8,0.1
					c0.5,0,0.9,0,1.3,0c1.2,0,2.3-0.2,3-0.5c0.8-0.3,1.4-0.7,1.8-1.2c0.4-0.5,0.7-1.1,0.8-1.8C517.1,453.4,517.1,452.7,517.1,452z"
					/>
				<path class="st1" d="M537.5,442.4c1.4,0,2.8,0.2,4.3,0.6c1.4,0.4,2.8,1,4.1,1.7c0.7-1.3,1.5-2.3,2.5-2.9
					c0.9-0.6,1.7-0.9,2.2-0.9c0.5,0,1,0.2,1.3,0.5c0.3,0.3,0.5,0.7,0.5,1.3c0,0.4-0.1,0.7-0.2,0.9l-0.5,0.6c-0.5,0.5-1,0.9-1.4,1.3
					c-0.4,0.4-0.7,0.8-0.9,1.2c-0.2,0.4-0.4,0.9-0.5,1.4c-0.1,0.5-0.2,1.1-0.2,1.8v3.9c0,1.5-0.2,2.9-0.7,4.3
					c-0.4,1.3-1.1,2.4-2,3.4c-0.9,1-2,1.7-3.4,2.3c-1.3,0.5-2.9,0.8-4.7,0.8c-0.9,0-1.8-0.1-2.7-0.2c-0.8-0.2-1.7-0.4-2.5-0.7
					c-0.4,0.7-0.7,1.3-0.8,1.9c-0.1,0.6-0.2,1.1-0.2,1.6c0,0.6,0.1,1.2,0.4,1.6c0.3,0.4,0.6,0.7,1,1c0.4,0.2,0.8,0.4,1.2,0.5
					c0.4,0.1,0.9,0.1,1.3,0.1h2.6c1.7,0,3.3,0.2,4.7,0.5c1.5,0.3,2.7,0.9,3.8,1.5c1.1,0.7,1.9,1.5,2.5,2.6c0.6,1,0.9,2.3,0.9,3.7
					c0,1.5-0.3,2.8-0.9,4c-0.6,1.2-1.5,2.2-2.6,3c-1.1,0.8-2.4,1.5-3.9,1.9c-1.5,0.4-3.1,0.7-4.9,0.7c-1.7,0-3.2-0.2-4.7-0.6
					c-1.4-0.4-2.6-1-3.6-1.8c-1-0.8-1.8-1.7-2.4-2.8c-0.6-1.1-0.8-2.4-0.8-3.8c0-2.7,1.1-5.1,3.4-7.1c-0.8-0.8-1.3-1.6-1.6-2.4
					c-0.3-0.9-0.4-1.6-0.4-2.3c0-0.7,0.2-1.5,0.5-2.4c0.4-0.9,1.1-1.8,2.1-2.7c-2.4-2.2-3.6-5.2-3.6-8.8c0-1.6,0.2-3,0.7-4.3
					c0.4-1.3,1.1-2.5,2-3.4c0.9-1,2-1.7,3.3-2.3C534.1,442.6,535.7,442.4,537.5,442.4z M535.7,473.7c-1.1,0-2.1-0.1-3-0.3
					c-1.7,1.3-2.5,3-2.5,5c0,4.1,2.6,6.2,7.7,6.2c2.4,0,4.3-0.5,5.9-1.5c1.5-1,2.3-2.5,2.3-4.5c0-1.8-0.7-3-2-3.8
					c-1.3-0.8-3.3-1.1-5.9-1.1H535.7z M544.7,449.9c0-0.2,0-0.4,0-0.8c0-0.4,0.1-0.8,0.2-1.2c-1.1-0.7-2.2-1.2-3.4-1.6
					c-1.1-0.4-2.3-0.5-3.5-0.5c-2.5,0-4.3,0.7-5.5,2c-1.2,1.3-1.8,3.2-1.8,5.7c0,2.3,0.6,4.1,1.7,5.4c1.1,1.4,2.9,2.1,5.5,2.1
					c2.4,0,4.2-0.6,5.3-1.9c1.1-1.2,1.6-3,1.6-5.2V449.9z"/>
				<path class="st1" d="M566.7,470.6c1.4,0,2.6-0.2,3.6-0.5c1-0.3,2-0.8,3.1-1.2c0.1,0,0.2-0.1,0.3-0.1s0.2-0.1,0.4-0.1
					c0.5,0,0.9,0.2,1.2,0.5c0.3,0.3,0.5,0.7,0.5,1.2c0,0.7-0.4,1.3-1.1,1.7c-0.7,0.5-1.6,0.8-2.5,1.1c-1,0.3-2,0.5-3.1,0.6
					c-1.1,0.1-2.1,0.2-2.9,0.2c-1.7,0-3.2-0.3-4.5-0.8s-2.4-1.2-3.4-2.1c-0.9-0.9-1.6-1.9-2.1-3.1c-0.5-1.2-0.7-2.5-0.7-3.9v-11.6
					c0-1.4,0.2-2.8,0.7-4c0.5-1.2,1.2-2.3,2.1-3.2c0.9-0.9,2.1-1.6,3.4-2.1c1.4-0.5,2.9-0.8,4.7-0.8c3.3,0,5.8,0.9,7.4,2.6
					c1.6,1.8,2.4,4.1,2.4,7c0,2.7-0.8,4.9-2.4,6.4c-1.6,1.6-4.1,2.3-7.7,2.3c-1,0-2.1-0.1-3.3-0.2c-1.2-0.1-2.4-0.3-3.5-0.5v4.3
					c0,1.9,0.6,3.3,1.8,4.5C562.5,470,564.3,470.6,566.7,470.6z M572.4,452c0-2.2-0.5-3.8-1.6-4.8c-1.1-1-2.6-1.4-4.5-1.4
					c-2.2,0-3.9,0.6-5.1,1.7c-1.2,1.1-1.8,2.6-1.8,4.5v5.1c0.6,0.1,1.3,0.2,2,0.2c0.7,0.1,1.4,0.1,2,0.2c0.6,0,1.2,0.1,1.8,0.1
					c0.5,0,0.9,0,1.3,0c1.2,0,2.3-0.2,3-0.5c0.8-0.3,1.4-0.7,1.8-1.2c0.4-0.5,0.7-1.1,0.8-1.8C572.3,453.4,572.4,452.7,572.4,452z"
					/>
				<path class="st1" d="M586.3,445.3c1.4-0.9,2.9-1.7,4.5-2.2c1.5-0.5,3.1-0.8,4.7-0.8c1.6,0,3,0.3,4.1,0.9c1.1,0.6,2.1,1.4,3,2.5
					c1.4-1,2.9-1.9,4.3-2.5c1.5-0.6,3.1-0.9,4.8-0.9c3.2,0,5.7,0.9,7.3,2.8c1.7,1.9,2.5,4.3,2.5,7.3V472c0,0.6-0.2,1-0.5,1.4
					c-0.3,0.3-0.8,0.5-1.5,0.5c-0.6,0-1.1-0.2-1.5-0.5c-0.3-0.3-0.5-0.8-0.5-1.4v-19.3c0-1.9-0.5-3.5-1.5-4.8c-1-1.3-2.5-2-4.6-2
					c-1.4,0-2.8,0.3-4.1,1c-1.3,0.7-2.4,1.6-3.2,2.6c0.1,0.4,0.2,0.9,0.2,1.4c0.1,0.5,0.1,1,0.1,1.6V472c0,0.6-0.2,1-0.5,1.4
					c-0.3,0.3-0.8,0.5-1.5,0.5c-0.7,0-1.2-0.2-1.5-0.5c-0.3-0.3-0.5-0.8-0.5-1.4v-18.1c0-1.2-0.1-2.2-0.2-3.2
					c-0.1-1-0.4-1.8-0.8-2.5c-0.4-0.7-0.9-1.3-1.7-1.7c-0.7-0.4-1.7-0.6-2.9-0.6c-1.4,0-2.8,0.3-4.2,0.8c-1.4,0.6-2.5,1.2-3.5,1.9
					c0.1,0.7,0.2,1.4,0.2,2.2V472c0,0.6-0.2,1-0.5,1.4c-0.3,0.3-0.8,0.5-1.4,0.5c-0.7,0-1.2-0.2-1.5-0.5c-0.3-0.3-0.5-0.8-0.5-1.4
					v-21.1c0-1-0.1-1.9-0.2-2.6c-0.1-0.7-0.4-1.4-0.9-2c-0.2-0.3-0.4-0.6-0.4-1c0-0.5,0.2-0.9,0.5-1.3c0.4-0.3,0.8-0.5,1.2-0.5
					c0.4,0,0.8,0.1,1.2,0.4C585.6,444.2,585.9,444.6,586.3,445.3z"/>
			</g>
		</g>
	</g>
	<g id="Beeldmerk">
		<circle id="Oranje" class="st2" cx="132.4" cy="230.8" r="22.4"/>
		<circle id="Groen" class="st3" cx="268.1" cy="87.5" r="73.4"/>
		<circle id="Roze" class="st4" cx="332.4" cy="231.8" r="53.1"/>
		<circle id="Paars" class="st1" cx="213.6" cy="211.4" r="35.9"/>
		<path id="Blauw" class="st5" d="M366,108.9c0,49.1,39.8,89,89,89s89-39.8,89-89s-39.8-89-89-89S366,59.8,366,108.9z M405,110.5
			c0-27.6,22.4-50,50-50s50,22.4,50,50c0,27.6-22.4,50-50,50S405,138.1,405,110.5z"/>
	</g>
</g>
</svg>
