<?xml version="1.0" encoding="utf-8"?>
<!-- Generator: Adobe Illustrator 22.0.1, SVG Export Plug-In . SVG Version: 6.00 Build 0)  -->
<svg version="1.1" xmlns="http://www.w3.org/2000/svg" xmlns:xlink="http://www.w3.org/1999/xlink" x="0px" y="0px"
	 viewBox="0 0 2880 6000" style="enable-background:new 0 0 2880 6000;" xml:space="preserve">
<style type="text/css">
	.st0{fill:#DFD8E8;}
	.st1{fill:url(#SVGID_1_);}
	.st2{fill:#FFFFFF;}
	.st3{clip-path:url(#SVGID_3_);fill:none;}
	.st4{fill:#EAEAEA;}
	.st5{fill:#4C4C4C;}
	.st6{fill:#714FB2;}
	.st7{fill:#FC9732;}
	.st8{fill:#D7E100;}
	.st9{fill:#DB169F;}
	.st10{fill:#3FA8EF;}
	.st11{font-family:'BloggerSans-Medium';}
	.st12{font-size:37.9847px;}
	.st13{font-family:'BloggerSans-Light';}
	.st14{font-family:'BloggerSans-Bold';}
	.st15{font-size:27.3808px;}
	.st16{opacity:0.5;fill:url(#SVGID_4_);}
	.st17{opacity:0.5;fill:url(#SVGID_5_);}
	.st18{opacity:0.5;fill:url(#SVGID_6_);}
	.st19{opacity:0.5;fill:url(#SVGID_7_);}
	.st20{opacity:0.5;fill:url(#SVGID_8_);}
	.st21{opacity:0.5;fill:url(#SVGID_9_);}
	.st22{opacity:0.5;fill:url(#SVGID_10_);}
	.st23{fill:#FFFFFF;fill-opacity:0.45;}
	.st24{font-size:77.6093px;}
	.st25{font-family:'Roboto-Regular';}
	.st26{font-size:36px;}
	.st27{font-size:61.8008px;}
	.st28{fill:none;}
	.st29{font-family:'Roboto-Bold';}
	.st30{font-size:29.8092px;}
	.st31{font-family:'Roboto-Light';}
	.st32{fill:#3FA8EF;stroke:#222221;stroke-width:0.5655;stroke-miterlimit:10;}
	.st33{font-size:61.2569px;}
	.st34{font-size:50px;}
	.st35{clip-path:url(#SVGID_24_);fill:none;}
	.st36{font-size:50.9154px;}
	.st37{font-size:49.5382px;}
</style>
<g id="Achtergrond">
	<rect x="-37.8" y="-66.9" class="st0" width="2981.3" height="5518.4"/>
	<linearGradient id="SVGID_1_" gradientUnits="userSpaceOnUse" x1="737.5882" y1="305.061" x2="2173.2202" y2="5256.2412">
		<stop  offset="0" style="stop-color:#714FB2;stop-opacity:0.2"/>
		<stop  offset="3.401015e-02" style="stop-color:#714FB2;stop-opacity:0.2416"/>
		<stop  offset="0.4906" style="stop-color:#714FB2;stop-opacity:0.8"/>
		<stop  offset="1" style="stop-color:#714FB2;stop-opacity:0.2"/>
	</linearGradient>
	<rect x="-47.9" y="-73.3" class="st1" width="2972.1" height="5589.2"/>
</g>
<g id="Witte_bollen">
	<circle class="st2" cx="1430.3" cy="1479.1" r="772.7"/>
	<circle class="st2" cx="1439.3" cy="3882.4" r="772.7"/>
	<g>
		<defs>
			<ellipse id="SVGID_2_" cx="1420.4" cy="4987.9" rx="776.1" ry="746.9"/>
		</defs>
		<clipPath id="SVGID_3_">
			<use xlink:href="#SVGID_2_"  style="overflow:visible;"/>
		</clipPath>
		
			<rect x="508.2" y="4703.1" transform="matrix(0.9998 -2.231114e-02 2.231114e-02 0.9998 -116.4187 31.7878)" class="st3" width="1716.3" height="1060.2"/>
	</g>
	<rect x="-71.9" y="5148.2" class="st4" width="2984.6" height="851.8"/>
	<g>
		<g>
			<g>
				<g>
					<g>
						<path class="st5" d="M1299.7,5534.7c0,1.1,0.1,2.1,0.3,2.9c0.2,0.9,0.5,1.6,1,2.2c0.5,0.6,1.1,1.1,1.8,1.4
							c0.8,0.3,1.7,0.5,2.8,0.5c0.9,0,1.7-0.1,2.4-0.3c0.7-0.2,1.3-0.5,1.9-0.9v-8.1h-3.3c-0.6,0-1.1-0.2-1.5-0.7
							c-0.4-0.4-0.7-1-0.7-1.6c0-0.6,0.2-1.1,0.7-1.6c0.4-0.4,1-0.6,1.5-0.6h5c0.8,0,1.5,0.2,2.2,0.6s0.9,1.1,0.9,1.9v10.1
							c0,1-0.3,1.8-0.9,2.5c-0.6,0.7-1.3,1.3-2.2,1.7c-0.9,0.4-1.9,0.8-3,1c-1.1,0.2-2.2,0.3-3.2,0.3c-1.8,0-3.4-0.3-4.7-0.8
							c-1.3-0.5-2.4-1.3-3.3-2.3c-0.9-1-1.5-2.2-1.9-3.6c-0.4-1.4-0.6-2.9-0.6-4.7v-7.8c0-1.7,0.2-3.2,0.6-4.7
							c0.4-1.4,1.1-2.6,1.9-3.6c0.9-1,2-1.7,3.3-2.3c1.3-0.5,2.9-0.8,4.7-0.8c1.1,0,2.1,0.1,3.1,0.3c1,0.2,1.9,0.5,2.7,0.9
							c0.8,0.4,1.4,0.8,1.9,1.4c0.5,0.5,0.7,1,0.7,1.6c0,0.6-0.2,1.1-0.6,1.5c-0.4,0.4-1,0.6-1.6,0.6c-0.4,0-0.7-0.1-0.9-0.2
							c-0.2-0.1-0.5-0.3-0.8-0.5l-0.2-0.1c-0.6-0.4-1.2-0.7-1.9-0.9c-0.7-0.2-1.4-0.3-2.1-0.3c-1.1,0-2,0.2-2.8,0.5
							c-0.8,0.3-1.4,0.8-1.8,1.4c-0.5,0.6-0.8,1.4-1,2.2c-0.2,0.9-0.3,1.9-0.3,2.9V5534.7z"/>
						<path class="st5" d="M1330.8,5531c0-2.6-1.3-3.9-4-3.9c-0.6,0-1.1,0.1-1.4,0.2c-0.4,0.1-0.8,0.2-1.1,0.4l-0.8,0.4
							c-0.3,0.1-0.7,0.2-1.1,0.2c-0.6,0-1.1-0.2-1.4-0.6c-0.3-0.4-0.4-0.8-0.4-1.3c0-0.6,0.2-1.1,0.6-1.5c0.4-0.4,0.9-0.7,1.5-1
							c0.6-0.3,1.4-0.5,2.2-0.6c0.8-0.1,1.7-0.2,2.5-0.2c3,0,5.1,0.8,6.4,2.3c1.3,1.5,1.9,3.7,1.9,6.7v8.9c0,0.6,0.1,0.9,0.3,1.1
							c0.2,0.2,0.5,0.3,0.8,0.3c0.9,0.2,1.3,0.7,1.3,1.6c0,1.2-0.9,1.8-2.6,1.8c-1.5,0-2.7-0.7-3.5-2c-1.6,1.4-3.6,2.1-6,2.1
							c-2.4,0-4.2-0.6-5.4-1.8c-1.2-1.2-1.8-2.9-1.8-4.9v-0.1c0-4.4,2.7-6.6,8.2-6.6c1.3,0,2.7,0.2,4,0.5V5531z M1327,5536
							c-0.8,0-1.4,0.1-1.9,0.2c-0.5,0.2-0.9,0.4-1.1,0.7c-0.3,0.3-0.4,0.6-0.5,1c-0.1,0.4-0.1,0.8-0.1,1.2v0.1c0,0.9,0.2,1.6,0.7,2
							c0.5,0.5,1.3,0.7,2.6,0.7c0.8,0,1.5-0.1,2.2-0.4c0.7-0.2,1.3-0.6,2-1.2v-4c-0.6-0.1-1.3-0.3-2-0.4
							C1328.1,5536.1,1327.5,5536,1327,5536z"/>
						<path class="st5" d="M1356.5,5527.4c-1,2.7-1.9,5.4-2.8,8.1c-0.9,2.7-1.8,5.4-2.8,8.2c-0.3,0.8-0.7,1.4-1.1,1.8
							c-0.4,0.4-1,0.5-1.8,0.5c-0.8,0-1.4-0.2-1.8-0.5c-0.4-0.4-0.8-0.9-1.1-1.8c-0.9-2.8-1.9-5.5-2.8-8.2c-1-2.7-1.9-5.5-2.8-8.2
							l-0.5-1.7c0-0.1,0-0.1,0-0.1c0,0,0-0.1,0-0.1c0-0.6,0.2-1.1,0.7-1.5c0.5-0.4,1-0.6,1.6-0.6c0.4,0,0.9,0.1,1.3,0.4
							c0.4,0.3,0.7,0.6,0.9,1.1c0.4,1.3,0.8,2.6,1.2,3.9c0.4,1.3,0.8,2.6,1.2,3.9c0.4,1.3,0.8,2.6,1.1,3.9c0.3,1.3,0.6,2.6,1,3.9
							c0.3-1.3,0.6-2.6,0.9-3.9c0.3-1.3,0.6-2.6,1.1-3.9c0.4-1.3,0.8-2.6,1.2-3.9c0.4-1.3,0.8-2.6,1.2-3.9c0.1-0.4,0.4-0.8,0.9-1.1
							c0.4-0.3,0.9-0.4,1.3-0.4c0.6,0,1.1,0.2,1.6,0.6c0.5,0.4,0.7,0.9,0.7,1.5v0.3L1356.5,5527.4z"/>
						<path class="st5" d="M1368.5,5537c-0.6,0-1.2,0-1.9-0.1c-0.6,0-1.3-0.1-2-0.2v2c0,1,0.3,1.8,1,2.4c0.7,0.6,1.7,0.9,3.1,0.9
							c0.8,0,1.6-0.1,2.2-0.3c0.6-0.2,1.3-0.5,2.1-0.8c0.1-0.1,0.2-0.1,0.3-0.2c0.2,0,0.4-0.1,0.6-0.1c0.8,0,1.3,0.2,1.6,0.7
							c0.3,0.4,0.5,0.9,0.5,1.3c0,0.7-0.3,1.2-0.9,1.6c-0.6,0.4-1.3,0.8-2.1,1c-0.8,0.3-1.7,0.4-2.5,0.5c-0.9,0.1-1.7,0.2-2.3,0.2
							c-1.3,0-2.5-0.2-3.6-0.6c-1.1-0.4-1.9-0.9-2.7-1.6c-0.7-0.7-1.3-1.5-1.6-2.4c-0.4-0.9-0.6-1.9-0.6-3v-7.8c0-1.1,0.2-2.1,0.6-3
							c0.4-0.9,0.9-1.7,1.7-2.4c0.7-0.7,1.6-1.2,2.7-1.6c1.1-0.4,2.3-0.6,3.7-0.6c2.7,0,4.7,0.7,6,2c1.3,1.3,2,3.1,2,5.3
							c0,2.1-0.6,3.7-1.9,4.9C1373.3,5536.4,1371.3,5537,1368.5,5537z M1371.8,5530.3c0-1.2-0.3-2-0.9-2.5c-0.6-0.5-1.4-0.7-2.5-0.7
							c-1.2,0-2.2,0.3-2.9,0.9c-0.7,0.6-1,1.4-1,2.5v2.6c0.8,0.1,1.5,0.2,2.3,0.2c0.7,0,1.3,0.1,1.6,0.1c1.3,0,2.1-0.3,2.6-0.8
							C1371.5,5532,1371.8,5531.2,1371.8,5530.3z"/>
						<path class="st5" d="M1390.7,5527.7c-0.5,0-0.9,0-1.3,0c-0.4,0-0.8,0-1.1,0.1c-0.4,0.1-0.7,0.2-1.1,0.3
							c-0.4,0.1-0.8,0.4-1.3,0.6c0,0.2,0.1,0.4,0.1,0.5c0,0.2,0,0.3,0,0.5v14.1c0,0.6-0.2,1.2-0.7,1.6c-0.5,0.4-1,0.6-1.7,0.6
							c-0.7,0-1.2-0.2-1.7-0.6c-0.5-0.4-0.7-1-0.7-1.6v-14.1c0-0.6,0-1.1-0.1-1.5c-0.1-0.4-0.2-0.7-0.5-1.1
							c-0.1-0.2-0.3-0.4-0.3-0.5c-0.1-0.2-0.1-0.4-0.1-0.7c0-0.6,0.2-1.1,0.7-1.5c0.5-0.4,1-0.6,1.6-0.6c0.4,0,0.8,0.1,1.1,0.4
							c0.3,0.2,0.6,0.5,0.9,0.9c1-0.6,2-1,3.1-1.4c1-0.3,1.9-0.5,2.7-0.5c1.1,0,1.9,0.2,2.3,0.6c0.4,0.4,0.6,0.9,0.6,1.5
							c0,0.7-0.2,1.3-0.7,1.7C1392,5527.6,1391.4,5527.8,1390.7,5527.7z"/>
						<path class="st5" d="M1401.7,5531.3l6.3-6.7c0.3-0.3,0.6-0.6,1-0.9c0.4-0.2,0.8-0.4,1.3-0.4c0.6,0,1.2,0.2,1.6,0.6
							c0.4,0.4,0.7,0.9,0.7,1.5c0,0.6-0.2,1.1-0.6,1.5l-5.9,6.1c1.2,1.6,2.3,3.3,3.5,4.9c1.2,1.6,2.3,3.2,3.4,4.9
							c0.1,0.2,0.2,0.4,0.3,0.6c0.1,0.2,0.1,0.5,0.1,0.7c-0.1,0.6-0.3,1-0.7,1.4c-0.4,0.3-0.9,0.5-1.6,0.5c-0.4,0-0.6,0-0.9-0.1
							c-0.2-0.1-0.4-0.2-0.6-0.3c-0.2-0.1-0.3-0.3-0.5-0.6c-0.2-0.2-0.4-0.5-0.6-0.9l-5.8-8.3c-0.2,0.1-0.3,0.3-0.5,0.5
							c-0.2,0.2-0.3,0.4-0.5,0.5v6c0,0.8-0.2,1.6-0.5,2.2c-0.3,0.6-1,1-1.9,1c-0.7,0-1.2-0.2-1.7-0.6c-0.5-0.4-0.7-0.9-0.7-1.6
							v-24.9c0-0.4,0-0.9,0.1-1.3c0.1-0.4,0.2-0.7,0.4-1.1s0.4-0.5,0.7-0.7c0.3-0.2,0.7-0.3,1.2-0.3c0.7,0,1.2,0.2,1.7,0.6
							c0.5,0.4,0.7,0.9,0.7,1.6V5531.3z"/>
						<path class="st5" d="M1424.6,5537c-0.6,0-1.2,0-1.9-0.1c-0.6,0-1.3-0.1-2-0.2v2c0,1,0.3,1.8,1,2.4c0.7,0.6,1.7,0.9,3.1,0.9
							c0.8,0,1.6-0.1,2.2-0.3c0.6-0.2,1.3-0.5,2.1-0.8c0.1-0.1,0.2-0.1,0.3-0.2c0.2,0,0.4-0.1,0.6-0.1c0.8,0,1.3,0.2,1.6,0.7
							c0.3,0.4,0.5,0.9,0.5,1.3c0,0.7-0.3,1.2-0.9,1.6c-0.6,0.4-1.3,0.8-2.1,1c-0.8,0.3-1.7,0.4-2.5,0.5c-0.9,0.1-1.7,0.2-2.3,0.2
							c-1.3,0-2.5-0.2-3.6-0.6c-1.1-0.4-1.9-0.9-2.7-1.6c-0.7-0.7-1.3-1.5-1.6-2.4c-0.4-0.9-0.6-1.9-0.6-3v-7.8c0-1.1,0.2-2.1,0.6-3
							c0.4-0.9,0.9-1.7,1.7-2.4c0.7-0.7,1.6-1.2,2.7-1.6c1.1-0.4,2.3-0.6,3.7-0.6c2.7,0,4.7,0.7,6,2c1.3,1.3,2,3.1,2,5.3
							c0,2.1-0.6,3.7-1.9,4.9C1429.5,5536.4,1427.4,5537,1424.6,5537z M1427.9,5530.3c0-1.2-0.3-2-0.9-2.5c-0.6-0.5-1.4-0.7-2.5-0.7
							c-1.2,0-2.2,0.3-2.9,0.9c-0.7,0.6-1,1.4-1,2.5v2.6c0.8,0.1,1.5,0.2,2.3,0.2c0.7,0,1.3,0.1,1.6,0.1c1.3,0,2.1-0.3,2.6-0.8
							C1427.7,5532,1427.9,5531.2,1427.9,5530.3z"/>
						<g>
							<g>
								<path class="st6" d="M1443.8,5545.7c-0.2,0.5-0.5,0.8-0.9,1.1c-0.4,0.2-0.9,0.3-1.4,0.2c-0.3-0.1-0.5-0.2-0.8-0.3
									c-0.2-0.1-0.4-0.3-0.6-0.5c-0.2-0.2-0.3-0.4-0.3-0.7c-0.1-0.2-0.1-0.5,0-0.7l7.9-21c0.2-0.5,0.5-0.8,0.9-1.1
									s0.9-0.3,1.4-0.2c0.5,0.1,0.9,0.4,1.3,0.8c0.3,0.4,0.5,0.9,0.4,1.3c0,0.2-0.1,0.3-0.2,0.5L1443.8,5545.7z"/>
							</g>
						</g>
						<path class="st5" d="M1460,5526.9c0-1.7,0.2-3.2,0.6-4.7c0.4-1.4,1.1-2.6,1.9-3.6c0.9-1,2-1.7,3.3-2.3
							c1.3-0.5,2.9-0.8,4.7-0.8c1.1,0,2.1,0.1,3.1,0.3c1,0.2,1.9,0.5,2.7,0.9c0.8,0.4,1.4,0.8,1.9,1.4c0.5,0.5,0.7,1,0.7,1.6
							c0,0.6-0.2,1.1-0.6,1.5c-0.4,0.4-1,0.6-1.6,0.6c-0.4,0-0.7-0.1-0.9-0.2c-0.2-0.1-0.5-0.3-0.8-0.5l-0.2-0.1
							c-1.2-0.8-2.5-1.2-4-1.2c-1.1,0-2,0.2-2.8,0.5c-0.8,0.3-1.4,0.8-1.8,1.4c-0.5,0.6-0.8,1.4-1,2.2c-0.2,0.9-0.3,1.9-0.3,2.9v7.8
							c0,1.1,0.1,2.1,0.3,2.9c0.2,0.9,0.5,1.6,1,2.2c0.5,0.6,1.1,1.1,1.8,1.4c0.8,0.3,1.7,0.5,2.8,0.5c1.5,0,2.8-0.4,4-1.2l0.2-0.1
							c0.3-0.2,0.6-0.4,0.8-0.5c0.2-0.1,0.5-0.2,0.9-0.2c0.6,0,1.2,0.2,1.6,0.6c0.4,0.4,0.6,0.9,0.6,1.4c0,0.6-0.2,1.1-0.7,1.6
							c-0.5,0.5-1.1,1-1.9,1.3c-0.8,0.4-1.7,0.7-2.7,0.9c-1,0.2-2.1,0.3-3.1,0.3c-1.8,0-3.4-0.3-4.7-0.8c-1.3-0.5-2.4-1.3-3.3-2.3
							c-0.9-1-1.5-2.2-1.9-3.6c-0.4-1.4-0.6-2.9-0.6-4.7V5526.9z"/>
						<path class="st5" d="M1491.1,5546c-1.5,0-2.7-0.2-3.8-0.6c-1.1-0.4-2-1-2.8-1.7c-0.7-0.7-1.3-1.6-1.7-2.5
							c-0.4-1-0.6-2-0.6-3.1v-6.9c0-1.1,0.2-2.2,0.6-3.2c0.4-1,0.9-1.8,1.7-2.5c0.7-0.7,1.7-1.3,2.8-1.7c1.1-0.4,2.4-0.6,3.8-0.6
							c1.4,0,2.7,0.2,3.8,0.6c1.1,0.4,2,1,2.8,1.7c0.7,0.7,1.3,1.6,1.7,2.5c0.4,1,0.6,2,0.6,3.2v6.9c0,1.1-0.2,2.2-0.6,3.1
							c-0.4,1-0.9,1.8-1.7,2.5c-0.7,0.7-1.7,1.3-2.8,1.7C1493.8,5545.8,1492.5,5546,1491.1,5546z M1491.1,5541.8
							c1.4,0,2.4-0.3,3.1-1c0.7-0.7,1-1.6,1-2.8v-7c0-1.2-0.3-2.1-1-2.8c-0.7-0.7-1.7-1-3.1-1c-1.4,0-2.4,0.3-3.1,1
							c-0.7,0.7-1,1.6-1,2.8v7c0,1.2,0.3,2.1,1,2.8C1488.7,5541.5,1489.7,5541.8,1491.1,5541.8z"/>
						<path class="st5" d="M1508.4,5546c-0.4,0-0.7-0.1-1.1-0.2c-0.4-0.1-0.8-0.3-1.1-0.7c-0.3-0.3-0.6-0.8-0.9-1.5
							c-0.2-0.6-0.4-1.5-0.4-2.5v-23.4c0-0.6,0.2-1.1,0.7-1.5c0.5-0.4,1-0.7,1.7-0.7c0.7,0,1.2,0.2,1.7,0.6c0.5,0.4,0.7,0.9,0.7,1.6
							v23.2c0,0.5,0,0.8,0.1,1.1c0.1,0.2,0.2,0.5,0.5,0.9c0.1,0.1,0.3,0.3,0.4,0.5c0.1,0.2,0.2,0.4,0.2,0.7c0,0.6-0.2,1.1-0.7,1.4
							S1509.2,5546,1508.4,5546z"/>
						<path class="st5" d="M1519.3,5546c-0.4,0-0.7-0.1-1.1-0.2c-0.4-0.1-0.8-0.3-1.1-0.7c-0.3-0.3-0.6-0.8-0.9-1.5
							c-0.2-0.6-0.4-1.5-0.4-2.5v-23.4c0-0.6,0.2-1.1,0.7-1.5c0.5-0.4,1-0.7,1.7-0.7c0.7,0,1.2,0.2,1.7,0.6c0.5,0.4,0.7,0.9,0.7,1.6
							v23.2c0,0.5,0,0.8,0.1,1.1c0.1,0.2,0.2,0.5,0.5,0.9c0.1,0.1,0.3,0.3,0.4,0.5c0.1,0.2,0.2,0.4,0.2,0.7c0,0.6-0.2,1.1-0.7,1.4
							S1520.1,5546,1519.3,5546z"/>
						<path class="st5" d="M1534.3,5537c-0.6,0-1.2,0-1.9-0.1c-0.6,0-1.3-0.1-2-0.2v2c0,1,0.3,1.8,1,2.4c0.7,0.6,1.7,0.9,3.1,0.9
							c0.8,0,1.6-0.1,2.2-0.3c0.6-0.2,1.3-0.5,2.1-0.8c0.1-0.1,0.2-0.1,0.3-0.2c0.2,0,0.4-0.1,0.6-0.1c0.8,0,1.3,0.2,1.6,0.7
							c0.3,0.4,0.5,0.9,0.5,1.3c0,0.7-0.3,1.2-0.9,1.6c-0.6,0.4-1.3,0.8-2.1,1c-0.8,0.3-1.7,0.4-2.5,0.5c-0.9,0.1-1.7,0.2-2.3,0.2
							c-1.3,0-2.5-0.2-3.6-0.6c-1.1-0.4-1.9-0.9-2.7-1.6c-0.7-0.7-1.3-1.5-1.6-2.4c-0.4-0.9-0.6-1.9-0.6-3v-7.8c0-1.1,0.2-2.1,0.6-3
							c0.4-0.9,0.9-1.7,1.7-2.4c0.7-0.7,1.6-1.2,2.7-1.6c1.1-0.4,2.3-0.6,3.7-0.6c2.7,0,4.7,0.7,6,2c1.3,1.3,2,3.1,2,5.3
							c0,2.1-0.6,3.7-1.9,4.9C1539.2,5536.4,1537.2,5537,1534.3,5537z M1537.6,5530.3c0-1.2-0.3-2-0.9-2.5c-0.6-0.5-1.4-0.7-2.5-0.7
							c-1.2,0-2.2,0.3-2.9,0.9c-0.7,0.6-1,1.4-1,2.5v2.6c0.8,0.1,1.5,0.2,2.3,0.2c0.7,0,1.3,0.1,1.6,0.1c1.3,0,2.1-0.3,2.6-0.8
							C1537.4,5532,1537.6,5531.2,1537.6,5530.3z"/>
						<path class="st5" d="M1554.4,5523.1c1.1,0,2.1,0.1,3.1,0.4c1,0.2,1.9,0.6,2.8,1.1c0.5-0.8,1.1-1.5,1.8-1.9
							c0.7-0.4,1.3-0.6,1.9-0.6c0.6,0,1.1,0.2,1.5,0.6c0.5,0.4,0.7,0.9,0.7,1.5c0,0.3-0.1,0.5-0.2,0.7c-0.1,0.2-0.2,0.4-0.4,0.5
							l-0.7,0.7c-0.3,0.3-0.5,0.5-0.7,0.8c-0.2,0.2-0.3,0.4-0.5,0.6c-0.1,0.2-0.2,0.4-0.2,0.7c0,0.2-0.1,0.5-0.1,0.9v2.6
							c0,1.1-0.2,2.2-0.5,3.2c-0.4,1-0.9,1.8-1.6,2.5c-0.7,0.7-1.6,1.3-2.7,1.7c-1.1,0.4-2.4,0.6-3.8,0.6c-0.5,0-1,0-1.5-0.1
							c-0.5-0.1-1-0.2-1.4-0.3c-0.1,0.3-0.2,0.6-0.3,0.8c-0.1,0.2-0.1,0.5-0.1,0.7c0,0.7,0.2,1.1,0.6,1.3c0.4,0.2,0.8,0.3,1.2,0.3
							h1.8c1.3,0,2.6,0.1,3.7,0.4c1.1,0.3,2.1,0.7,3,1.2c0.8,0.5,1.5,1.2,2,2c0.5,0.8,0.7,1.8,0.7,2.9s-0.2,2.2-0.7,3.1
							c-0.5,0.9-1.2,1.7-2,2.3c-0.9,0.6-1.9,1.1-3.1,1.5c-1.2,0.3-2.5,0.5-3.9,0.5c-1.3,0-2.6-0.2-3.7-0.5c-1.1-0.3-2.1-0.8-2.9-1.4
							c-0.8-0.6-1.4-1.3-1.9-2.2c-0.4-0.9-0.7-1.8-0.7-2.9c0-1,0.2-1.9,0.6-2.7c0.4-0.8,1.1-1.6,1.9-2.3c-0.4-0.6-0.7-1.2-0.9-1.8
							c-0.2-0.6-0.2-1.2-0.2-1.7c0-0.5,0.1-1,0.3-1.6c0.2-0.6,0.6-1.2,1.1-1.8c-1.7-1.6-2.6-3.6-2.6-6.1c0-1.2,0.2-2.3,0.5-3.2
							c0.4-1,0.9-1.9,1.6-2.6s1.6-1.3,2.6-1.7C1551.8,5523.3,1553,5523.1,1554.4,5523.1z M1554.3,5546.4c-0.5,0-0.9,0-1.3,0
							c-0.4,0-0.8-0.1-1.3-0.1c-0.8,0.8-1.1,1.6-1.1,2.6c0,1.1,0.4,1.9,1.1,2.5c0.7,0.6,1.8,0.9,3.3,0.9c1.4,0,2.6-0.3,3.5-0.8
							c0.9-0.5,1.4-1.3,1.4-2.4c0-1.8-1.5-2.6-4.6-2.6H1554.3z M1558.8,5530.3c0-0.4,0-0.7,0-1.1c0-0.4,0-0.7,0-1.1
							c-0.6-0.3-1.3-0.6-1.9-0.8c-0.6-0.2-1.2-0.3-1.9-0.3c-1.4,0-2.5,0.4-3.1,1.1c-0.7,0.7-1,1.8-1,3.2c0,1.3,0.3,2.3,0.9,3.1
							c0.6,0.8,1.7,1.1,3.1,1.1c1.3,0,2.3-0.3,2.9-1c0.6-0.7,0.9-1.6,0.9-2.9V5530.3z"/>
						<path class="st5" d="M1577,5537c-0.6,0-1.2,0-1.9-0.1c-0.6,0-1.3-0.1-2-0.2v2c0,1,0.3,1.8,1,2.4c0.7,0.6,1.7,0.9,3.1,0.9
							c0.8,0,1.6-0.1,2.2-0.3c0.6-0.2,1.3-0.5,2.1-0.8c0.1-0.1,0.2-0.1,0.3-0.2c0.2,0,0.4-0.1,0.6-0.1c0.8,0,1.3,0.2,1.6,0.7
							c0.3,0.4,0.5,0.9,0.5,1.3c0,0.7-0.3,1.2-0.9,1.6c-0.6,0.4-1.3,0.8-2.1,1c-0.8,0.3-1.7,0.4-2.5,0.5c-0.9,0.1-1.7,0.2-2.3,0.2
							c-1.3,0-2.5-0.2-3.6-0.6c-1.1-0.4-1.9-0.9-2.7-1.6c-0.7-0.7-1.3-1.5-1.6-2.4c-0.4-0.9-0.6-1.9-0.6-3v-7.8c0-1.1,0.2-2.1,0.6-3
							c0.4-0.9,0.9-1.7,1.7-2.4c0.7-0.7,1.6-1.2,2.7-1.6c1.1-0.4,2.3-0.6,3.7-0.6c2.7,0,4.7,0.7,6,2c1.3,1.3,2,3.1,2,5.3
							c0,2.1-0.6,3.7-1.9,4.9C1581.8,5536.4,1579.8,5537,1577,5537z M1580.3,5530.3c0-1.2-0.3-2-0.9-2.5c-0.6-0.5-1.4-0.7-2.5-0.7
							c-1.2,0-2.2,0.3-2.9,0.9c-0.7,0.6-1,1.4-1,2.5v2.6c0.8,0.1,1.5,0.2,2.3,0.2c0.7,0,1.3,0.1,1.6,0.1c1.3,0,2.1-0.3,2.6-0.8
							C1580,5532,1580.3,5531.2,1580.3,5530.3z"/>
					</g>
				</g>
				<g>
					<g>
						<path class="st6" d="M1301.7,5579.2c-0.3,0.9-0.7,1.2-1.3,1.2c-0.7,0-1-0.4-1.3-1.2l-4.1-12.6c-0.2-0.6,0.3-1.1,0.9-1.1
							c0.3,0,0.7,0.1,0.8,0.6l3.7,11.8l3.6-11.8c0.1-0.3,0.4-0.6,0.8-0.6c0.5,0,0.9,0.4,0.9,0.9c0,0.1,0,0.1,0,0.2L1301.7,5579.2z"
							/>
						<path class="st6" d="M1310.8,5579.5c0,0.5-0.4,0.9-0.9,0.9c-0.5,0-0.9-0.4-0.9-0.9v-10c0-1-0.1-1.6-0.5-2.2
							c-0.1-0.1-0.2-0.3-0.2-0.5c0-0.5,0.4-0.8,0.9-0.8c0.4,0,0.8,0.4,1.1,0.9c1.3-0.9,3-1.3,4.1-1.3c1,0,1.3,0.4,1.3,0.9
							c0,0.6-0.4,1-0.9,1c-1.3,0-2.4,0-4,1.1v0c0,0,0,0,0,0.9V5579.5z"/>
						<path class="st6" d="M1319.5,5561.9c-0.7,0-1.2-0.5-1.2-1.2c0-0.7,0.5-1.2,1.2-1.2c0.6,0,1.2,0.5,1.2,1.2
							C1320.7,5561.4,1320.2,5561.9,1319.5,5561.9z M1319.5,5580.5c-0.5,0-0.9-0.4-0.9-0.9v-13c0-0.5,0.4-0.9,0.9-0.9
							c0.5,0,0.9,0.4,0.9,0.9v13C1320.4,5580.1,1320,5580.5,1319.5,5580.5z"/>
						<path class="st6" d="M1327.5,5580.9c0,2.9-1.5,4.9-4,5.3c-0.2,0-0.3,0-0.5,0c-0.3,0-0.7-0.2-0.8-0.6c-0.1-0.7,0.3-0.9,0.7-1
							c1.7-0.4,2.7-1.3,2.7-3.6v-14.5c0-0.5,0.4-0.9,0.9-0.9c0.5,0,0.9,0.4,0.9,0.9V5580.9z M1326.6,5561.9c-0.7,0-1.2-0.5-1.2-1.2
							c0-0.7,0.5-1.2,1.2-1.2c0.6,0,1.2,0.5,1.2,1.2C1327.7,5561.4,1327.2,5561.9,1326.6,5561.9z"/>
						<path class="st6" d="M1339.9,5578c0.1,0,0.2-0.1,0.3-0.1c0.5,0,0.8,0.4,0.8,0.8c0,1.3-3,1.7-4.6,1.7c-3.2,0-5-2-5-4.7v-5.5
							c0-2.7,1.8-4.8,5.2-4.8c3.1,0,4.6,1.8,4.6,4.6c0,2.6-1.4,4.2-4.8,4.2c-0.9,0-2.1-0.1-3.2-0.3v2c0,1.7,1.2,2.9,3.5,2.9
							C1338.1,5578.9,1338.9,5578.5,1339.9,5578z M1336.6,5567.1c-2.1,0-3.3,1.1-3.3,2.9v2.4c1.2,0.2,2.8,0.2,3.4,0.2
							c2.4,0,2.8-1.3,2.8-2.6C1339.5,5568,1338.4,5567.1,1336.6,5567.1z"/>
						<path class="st6" d="M1350.3,5560.2c0-0.5,0.3-0.9,0.9-0.9c0.6,0,0.9,0.5,0.9,0.9v6.7c1.3-0.9,2.6-1.4,4.2-1.4
							c3.2,0,4.3,1.9,4.3,4.4v5.6c0,2.8-1.7,5-5.2,5c-3.3,0-5.2-1.9-5.2-4.4V5560.2z M1352.1,5576c0,1.7,1.3,2.7,3.4,2.7
							c2.3,0,3.3-1.3,3.3-3.3v-5.6c0-1.8-0.9-2.8-3-2.8c-1.5,0-2.7,0.6-3.6,1.6V5576z"/>
						<path class="st6" d="M1371.5,5570.5c0-2.3-1.1-3.4-3.4-3.4c-1.1,0-1.7,0.2-2.3,0.6c-0.2,0.1-0.4,0.2-0.7,0.2
							c-0.4,0-0.6-0.4-0.6-0.7c-0.1-1.2,2-1.7,3.9-1.7c3.5,0,4.9,2,4.9,5.8v6.5c0,0.7,0.3,1.1,0.8,1.1c0.1,0,0.2,0,0.2,0
							c0.4,0,0.6,0.4,0.6,0.8c0,0.6-0.6,0.8-1.1,0.8c-0.9,0-1.7-0.6-2.2-1.6c-1.2,1.1-2.5,1.7-4.1,1.7c-2.9,0-4.3-1.7-4.3-4.2v-0.1
							c0-2.8,1.6-4.2,5-4.2c1,0,2.1,0.2,3.2,0.5V5570.5z M1365.2,5576.2v0.1c0,1.5,0.7,2.6,2.8,2.6c1.3,0,2.4-0.5,3.5-1.4v-3.4
							c-1.1-0.4-2.3-0.5-3.2-0.5C1365.7,5573.5,1365.2,5574.7,1365.2,5576.2z"/>
						<path class="st6" d="M1382.2,5565.5c1.5,0,3.7,0.3,3.7,1.4c0,0.5-0.3,0.8-0.8,0.8c-0.2,0-0.3-0.1-0.4-0.1
							c-0.7-0.3-1.2-0.6-2.3-0.6c-1.9,0-2.8,0.8-2.8,2.3c0,1,0.4,1.5,1.5,2.1c2.3,1.1,5.4,1.4,5.4,4.8c0,2.5-1.6,4.1-4.7,4.1
							c-1.5,0-4.2-0.3-4.2-1.5c0-0.4,0.3-0.9,0.9-0.9c0.1,0,0.1,0,0.2,0c0.9,0.3,1.8,0.7,3.1,0.7c1.7,0,2.9-0.7,2.9-2.4
							c0-1.2-0.5-1.7-1.2-2.1c-2.2-1.1-5.7-1.4-5.7-4.8C1377.6,5567.1,1379.2,5565.5,1382.2,5565.5z"/>
						<path class="st6" d="M1390.7,5561.9c-0.7,0-1.2-0.5-1.2-1.2c0-0.7,0.5-1.2,1.2-1.2c0.6,0,1.2,0.5,1.2,1.2
							C1391.8,5561.4,1391.3,5561.9,1390.7,5561.9z M1390.7,5580.5c-0.5,0-0.9-0.4-0.9-0.9v-13c0-0.5,0.4-0.9,0.9-0.9
							c0.5,0,0.9,0.4,0.9,0.9v13C1391.6,5580.1,1391.2,5580.5,1390.7,5580.5z"/>
						<path class="st6" d="M1400.4,5565.5c1.5,0,3.7,0.3,3.7,1.4c0,0.5-0.3,0.8-0.8,0.8c-0.2,0-0.3-0.1-0.4-0.1
							c-0.7-0.3-1.2-0.6-2.3-0.6c-1.9,0-2.8,0.8-2.8,2.3c0,1,0.4,1.5,1.5,2.1c2.3,1.1,5.4,1.4,5.4,4.8c0,2.5-1.6,4.1-4.7,4.1
							c-1.5,0-4.2-0.3-4.2-1.5c0-0.4,0.3-0.9,0.9-0.9c0.1,0,0.1,0,0.2,0c0.9,0.3,1.8,0.7,3.1,0.7c1.7,0,2.9-0.7,2.9-2.4
							c0-1.2-0.5-1.7-1.2-2.1c-2.2-1.1-5.7-1.4-5.7-4.8C1395.8,5567.1,1397.4,5565.5,1400.4,5565.5z"/>
						<path class="st6" d="M1411.8,5565.5c1.5,0,3.7,0.3,3.7,1.4c0,0.5-0.3,0.8-0.8,0.8c-0.2,0-0.3-0.1-0.4-0.1
							c-0.7-0.3-1.2-0.6-2.3-0.6c-1.9,0-2.8,0.8-2.8,2.3c0,1,0.4,1.5,1.5,2.1c2.3,1.1,5.4,1.4,5.4,4.8c0,2.5-1.6,4.1-4.7,4.1
							c-1.5,0-4.2-0.3-4.2-1.5c0-0.4,0.3-0.9,0.9-0.9c0.1,0,0.1,0,0.2,0c0.9,0.3,1.8,0.7,3.1,0.7c1.7,0,2.9-0.7,2.9-2.4
							c0-1.2-0.5-1.7-1.2-2.1c-2.2-1.1-5.7-1.4-5.7-4.8C1407.2,5567.1,1408.8,5565.5,1411.8,5565.5z"/>
						<path class="st6" d="M1418.6,5570.8c0-2.9,1.5-5.2,5.1-5.2c1.3,0,3.9,0.3,3.9,1.6c0,0.4-0.3,0.8-0.8,0.8c-0.2,0-0.3,0-0.4-0.1
							h0c-0.7-0.4-1.4-0.7-2.5-0.7c-2.5,0-3.5,1.3-3.5,3.6v4.5c0,2.3,1,3.6,3.5,3.6c1.1,0,1.8-0.3,2.5-0.7h0
							c0.2-0.1,0.3-0.1,0.4-0.1c0.4,0,0.8,0.4,0.8,0.8c0,1.2-2.6,1.5-3.9,1.5c-3.6,0-5.1-2.3-5.1-5.2V5570.8z"/>
						<path class="st6" d="M1431.4,5580.5c-0.5,0-0.9-0.4-0.9-0.9V5560c0-0.5,0.4-0.9,0.9-0.9c0.5,0,0.9,0.4,0.9,0.9v7
							c1.2-0.9,2.6-1.5,4-1.5c3,0,4.4,1.9,4.4,4.7v9.3c0,0.5-0.4,0.9-0.9,0.9c-0.5,0-0.9-0.4-0.9-0.9v-9.3c0-1.9-0.8-3-2.8-3
							c-1.2,0-2.7,0.6-3.7,1.9v10.5C1432.3,5580.1,1431.9,5580.5,1431.4,5580.5z"/>
						<path class="st6" d="M1444.1,5575.4v-4.9c0-2.8,1.9-5,5.3-5c3.5,0,5.3,2.2,5.3,5v4.9c0,2.8-1.8,5-5.3,5
							C1446,5580.5,1444.1,5578.3,1444.1,5575.4z M1452.9,5575.4v-5c0-2.1-1.1-3.4-3.4-3.4c-2.3,0-3.4,1.3-3.4,3.4v5
							c0,2.1,1.2,3.3,3.4,3.3C1451.7,5578.8,1452.9,5577.5,1452.9,5575.4z"/>
						<path class="st6" d="M1457.4,5575.4v-4.9c0-2.8,1.9-5,5.3-5c3.5,0,5.3,2.2,5.3,5v4.9c0,2.8-1.8,5-5.3,5
							C1459.3,5580.5,1457.4,5578.3,1457.4,5575.4z M1466.2,5575.4v-5c0-2.1-1.1-3.4-3.4-3.4c-2.3,0-3.4,1.3-3.4,3.4v5
							c0,2.1,1.2,3.3,3.4,3.3C1465,5578.8,1466.2,5577.5,1466.2,5575.4z"/>
						<path class="st6" d="M1471.6,5560.2c0-0.5,0.4-0.9,0.9-0.9c0.5,0,0.9,0.4,0.9,0.9v17.5c0,0.7,0.1,1.1,0.5,1.5
							c0.1,0.1,0.1,0.3,0.1,0.4c0,0.5-0.3,0.8-0.8,0.8c-0.6,0-1.6-0.3-1.6-2.8V5560.2z"/>
						<path class="st6" d="M1492.6,5563.4c-1.1,4.8-2.5,11.1-3.6,15.9c-0.2,0.5-0.5,1.2-1.3,1.2c-0.7,0-1.2-0.5-1.4-1.2l-4.4-18.6
							v-0.1c0-0.5,0.6-0.8,1.1-0.8c0.3,0,0.7,0.3,0.9,0.7l3.8,16.6l3.6-15.8c0.2-0.9,0.5-1.5,1.3-1.5c0.8,0,1.1,0.6,1.3,1.5
							l3.6,15.8l3.8-16.6c0.1-0.4,0.4-0.7,0.8-0.7c0.5,0,1.2,0.3,1.2,0.8c0,0,0,0.2,0,0.3v0l-4.4,18.4c-0.2,0.6-0.6,1.2-1.3,1.2
							c-0.7,0-1.2-0.6-1.4-1.2L1492.6,5563.4z"/>
						<path class="st6" d="M1512.3,5570.5c0-2.3-1.1-3.4-3.4-3.4c-1.1,0-1.7,0.2-2.3,0.6c-0.2,0.1-0.4,0.2-0.7,0.2
							c-0.4,0-0.6-0.4-0.6-0.7c-0.1-1.2,2-1.7,3.9-1.7c3.5,0,4.9,2,4.9,5.8v6.5c0,0.7,0.3,1.1,0.8,1.1c0.1,0,0.2,0,0.2,0
							c0.4,0,0.6,0.4,0.6,0.8c0,0.6-0.6,0.8-1.1,0.8c-0.9,0-1.7-0.6-2.2-1.6c-1.2,1.1-2.5,1.7-4.1,1.7c-2.9,0-4.3-1.7-4.3-4.2v-0.1
							c0-2.8,1.6-4.2,5-4.2c1,0,2.1,0.2,3.2,0.5V5570.5z M1505.9,5576.2v0.1c0,1.5,0.7,2.6,2.8,2.6c1.3,0,2.4-0.5,3.5-1.4v-3.4
							c-1.1-0.4-2.3-0.5-3.2-0.5C1506.4,5573.5,1505.9,5574.7,1505.9,5576.2z"/>
						<path class="st6" d="M1520.8,5579.5c0,0.5-0.4,0.9-0.9,0.9c-0.5,0-0.9-0.4-0.9-0.9v-10c0-1-0.1-1.6-0.5-2.2
							c-0.1-0.1-0.2-0.3-0.2-0.5c0-0.5,0.4-0.8,0.9-0.8c0.4,0,0.8,0.4,1.1,0.9c1.3-0.9,3-1.3,4.1-1.3c1,0,1.3,0.4,1.3,0.9
							c0,0.6-0.4,1-0.9,1c-1.3,0-2.4,0-4,1.1v0c0,0,0,0,0,0.9V5579.5z"/>
						<path class="st6" d="M1536,5578c0.1,0,0.2-0.1,0.3-0.1c0.5,0,0.8,0.4,0.8,0.8c0,1.3-3,1.7-4.6,1.7c-3.2,0-5-2-5-4.7v-5.5
							c0-2.7,1.8-4.8,5.2-4.8c3.1,0,4.6,1.8,4.6,4.6c0,2.6-1.4,4.2-4.8,4.2c-0.9,0-2.1-0.1-3.2-0.3v2c0,1.7,1.2,2.9,3.5,2.9
							C1534.2,5578.9,1535,5578.5,1536,5578z M1532.6,5567.1c-2.1,0-3.3,1.1-3.3,2.9v2.4c1.2,0.2,2.7,0.2,3.4,0.2
							c2.4,0,2.8-1.3,2.8-2.6C1535.5,5568,1534.5,5567.1,1532.6,5567.1z"/>
						<path class="st6" d="M1549.2,5566.6c0.7-1.3,1.7-1.8,2.2-1.8c0.5,0,0.9,0.3,0.9,0.8c0,0.2-0.1,0.4-0.1,0.4l-0.3,0.3
							c-1,0.9-1.4,1.4-1.4,2.7v1.8c0,2.9-1.7,5.1-5.1,5.1c-0.9,0-1.7-0.2-2.4-0.5c-0.4,0.7-0.5,1.2-0.5,1.7c0,1.2,1.1,1.5,1.8,1.5
							h1.2c3.2,0,5.7,1.3,5.7,4c0,2.8-2.5,4.6-5.8,4.6c-3.2,0-5.4-1.6-5.4-4.3c0-1.3,0.6-2.4,1.6-3.4c-0.7-0.7-1-1.6-1-2.3
							c0-0.6,0.3-1.5,1.3-2.4c-1.1-1.1-1.7-2.5-1.7-4.2c0-3,1.7-5.2,5.1-5.2C1546.5,5565.5,1548,5565.9,1549.2,5566.6z
							 M1542.9,5580.2c-0.8,0.6-1.2,1.4-1.2,2.4c0,1.9,1.3,3,3.7,3c2.3,0,3.9-0.9,3.9-2.8c0-1.7-1.2-2.3-3.8-2.3h-1.2
							C1543.8,5580.4,1543.3,5580.3,1542.9,5580.2z M1548.7,5568.1c-1-0.6-2.1-1-3.2-1c-2.3,0-3.5,1.3-3.5,3.6c0,2.1,1,3.6,3.4,3.6
							c2.3,0,3.3-1.3,3.3-3.4v-1.9C1548.6,5568.9,1548.7,5568.5,1548.7,5568.1z"/>
						<path class="st6" d="M1562.2,5578c0.1,0,0.2-0.1,0.3-0.1c0.5,0,0.8,0.4,0.8,0.8c0,1.3-3,1.7-4.6,1.7c-3.2,0-5-2-5-4.7v-5.5
							c0-2.7,1.8-4.8,5.2-4.8c3.1,0,4.6,1.8,4.6,4.6c0,2.6-1.4,4.2-4.8,4.2c-0.9,0-2.1-0.1-3.2-0.3v2c0,1.7,1.2,2.9,3.5,2.9
							C1560.4,5578.9,1561.2,5578.5,1562.2,5578z M1558.8,5567.1c-2.1,0-3.3,1.1-3.3,2.9v2.4c1.2,0.2,2.8,0.2,3.4,0.2
							c2.4,0,2.8-1.3,2.8-2.6C1561.7,5568,1560.7,5567.1,1558.8,5567.1z"/>
						<path class="st6" d="M1572.7,5565.5c1.5,0,2.6,0.6,3.4,1.6c1.3-1,2.8-1.6,4.3-1.6c3,0,4.7,1.9,4.7,4.8v9.2
							c0,0.5-0.3,0.9-0.9,0.9c-0.6,0-0.9-0.4-0.9-0.9v-9.2c0-1.8-0.9-3.2-2.9-3.2c-1.3,0-2.7,0.7-3.5,1.7c0.1,0.4,0.1,0.9,0.1,1.4
							v9.2c0,0.5-0.3,0.9-0.9,0.9c-0.6,0-0.9-0.4-0.9-0.9v-8.6c0-2.2-0.4-3.8-2.7-3.8c-1.3,0-2.7,0.6-3.6,1.3c0.1,0.3,0.1,0.7,0.1,1
							v10c0,0.5-0.3,0.9-0.9,0.9c-0.6,0-0.9-0.4-0.9-0.9v-10c0-1-0.1-1.6-0.5-2.2c-0.1-0.1-0.2-0.3-0.2-0.5c0-0.5,0.4-0.8,0.8-0.8
							c0.4,0,0.8,0.3,1.1,0.9C1569.7,5566,1571.2,5565.5,1572.7,5565.5z"/>
					</g>
				</g>
			</g>
			<g>
				<circle class="st7" cx="1347.7" cy="5465.1" r="10.6"/>
				<circle class="st8" cx="1412" cy="5397.2" r="34.8"/>
				<circle class="st9" cx="1442.5" cy="5465.6" r="25.2"/>
				<circle class="st6" cx="1386.2" cy="5455.9" r="17"/>
				<path class="st10" d="M1459.7,5408.6c0,23.3,18.9,42.2,42.2,42.2c23.3,0,42.2-18.9,42.2-42.2c0-23.3-18.9-42.2-42.2-42.2
					C1478.6,5366.4,1459.7,5385.3,1459.7,5408.6z M1478.2,5409.3c0-13.1,10.6-23.7,23.7-23.7c13.1,0,23.7,10.6,23.7,23.7
					s-10.6,23.7-23.7,23.7C1488.8,5433,1478.2,5422.4,1478.2,5409.3z"/>
			</g>
		</g>
		<text transform="matrix(1 0 0 1 1031.0764 5670.9795)"><tspan x="0" y="0" class="st5 st11 st12">Mariaschool Gaverke</tspan><tspan x="322.6" y="0" class="st13 st12"> </tspan><tspan x="334" y="0" class="st6 st14 st15">/</tspan><tspan x="343.9" y="0" class="st13 st12"> </tspan><tspan x="355.3" y="0" class="st5 st13 st12">Broekstraat 8 </tspan><tspan x="570.5" y="0" class="st6 st14 st15">/ </tspan><tspan x="588.6" y="0" class="st5 st13 st12">8790 Waregem</tspan><tspan x="-58.6" y="50.3" class="st5 st11 st12">H.-Hartcollege Gaverke</tspan><tspan x="300.1" y="50.3" class="st13 st12"> </tspan><tspan x="311.5" y="50.3" class="st6 st14 st15">/</tspan><tspan x="321.3" y="50.3" class="st13 st12"> </tspan><tspan x="332.7" y="50.3" class="st5 st13 st12">Zeswegenstraat 97 </tspan><tspan x="629.1" y="50.3" class="st6 st14 st15">/ </tspan><tspan x="647.1" y="50.3" class="st5 st13 st12">8790 Waregem</tspan><tspan x="18.7" y="100.5" class="st5 st11 st12">H.-Hartcollege</tspan><tspan x="243.2" y="100.5" class="st13 st12"> </tspan><tspan x="254.6" y="100.5" class="st6 st14 st15">/</tspan><tspan x="264.4" y="100.5" class="st13 st12"> </tspan><tspan x="275.8" y="100.5" class="st5 st13 st12">Stationsstraat 85 </tspan><tspan x="548.6" y="100.5" class="st6 st14 st15">/</tspan><tspan x="558.5" y="100.5" class="st5 st13 st12"> 8790 Waregem</tspan></text>
	</g>
	<circle class="st2" cx="1529.9" cy="3115.2" r="596.2"/>
</g>
<g id="Bubbles">
	<radialGradient id="SVGID_4_" cx="2514.1421" cy="1163.9153" r="156.1277" gradientUnits="userSpaceOnUse">
		<stop  offset="0" style="stop-color:#714FB2;stop-opacity:0.2"/>
		<stop  offset="0.8648" style="stop-color:#714FB2;stop-opacity:0.373"/>
		<stop  offset="1" style="stop-color:#714FB2;stop-opacity:0.4"/>
	</radialGradient>
	<circle class="st16" cx="2514.1" cy="1163.9" r="156.1"/>
	<radialGradient id="SVGID_5_" cx="290.6505" cy="3559.4661" r="156.1277" gradientUnits="userSpaceOnUse">
		<stop  offset="0" style="stop-color:#714FB2;stop-opacity:0.2"/>
		<stop  offset="0.8648" style="stop-color:#714FB2;stop-opacity:0.373"/>
		<stop  offset="1" style="stop-color:#714FB2;stop-opacity:0.4"/>
	</radialGradient>
	<circle class="st17" cx="290.7" cy="3559.5" r="156.1"/>
	<radialGradient id="SVGID_6_" cx="277.9053" cy="1435.28" r="63.7256" gradientUnits="userSpaceOnUse">
		<stop  offset="0" style="stop-color:#714FB2;stop-opacity:0.2"/>
		<stop  offset="0.8648" style="stop-color:#714FB2;stop-opacity:0.373"/>
		<stop  offset="1" style="stop-color:#714FB2;stop-opacity:0.4"/>
	</radialGradient>
	<circle class="st18" cx="277.9" cy="1435.3" r="63.7"/>
	<radialGradient id="SVGID_7_" cx="2737.3499" cy="3913.6738" r="63.7256" gradientUnits="userSpaceOnUse">
		<stop  offset="0" style="stop-color:#714FB2;stop-opacity:0.2"/>
		<stop  offset="0.8648" style="stop-color:#714FB2;stop-opacity:0.373"/>
		<stop  offset="1" style="stop-color:#714FB2;stop-opacity:0.4"/>
	</radialGradient>
	<circle class="st19" cx="2737.3" cy="3913.7" r="63.7"/>
	<radialGradient id="SVGID_8_" cx="2486.5276" cy="1993.4099" r="63.7256" gradientUnits="userSpaceOnUse">
		<stop  offset="0" style="stop-color:#714FB2;stop-opacity:0.2"/>
		<stop  offset="0.8648" style="stop-color:#714FB2;stop-opacity:0.373"/>
		<stop  offset="1" style="stop-color:#714FB2;stop-opacity:0.4"/>
	</radialGradient>
	<circle class="st20" cx="2486.5" cy="1993.4" r="63.7"/>
	<radialGradient id="SVGID_9_" cx="2499.8037" cy="2763.4272" r="31.8628" gradientUnits="userSpaceOnUse">
		<stop  offset="0" style="stop-color:#714FB2;stop-opacity:0.2"/>
		<stop  offset="0.8648" style="stop-color:#714FB2;stop-opacity:0.373"/>
		<stop  offset="1" style="stop-color:#714FB2;stop-opacity:0.4"/>
	</radialGradient>
	<circle class="st21" cx="2499.8" cy="2763.4" r="31.9"/>
	<radialGradient id="SVGID_10_" cx="441.9987" cy="2581.8093" r="31.8628" gradientUnits="userSpaceOnUse">
		<stop  offset="0" style="stop-color:#714FB2;stop-opacity:0.2"/>
		<stop  offset="0.8648" style="stop-color:#714FB2;stop-opacity:0.373"/>
		<stop  offset="1" style="stop-color:#714FB2;stop-opacity:0.4"/>
	</radialGradient>
	<circle class="st22" cx="442" cy="2581.8" r="31.9"/>
</g>
<g id="Sint">
	<g>
		<defs>
			<circle id="SVGID_11_" cx="1434.5" cy="2376.2" r="630.1"/>
		</defs>
		<clipPath id="SVGID_12_">
			<use xlink:href="#SVGID_11_"  style="overflow:visible;"/>
		</clipPath>
		<g style="clip-path:url(#SVGID_12_);">
			
				<image style="overflow:visible;" width="1067" height="800" xlink:href="../../../../../Digitale nieuwsbrief/dscn1706-1067x800_orig.jpg"  transform="matrix(1.6713 0 0 1.6713 664.2025 1739.5009)">
			</image>
		</g>
	</g>
	<circle class="st23" cx="1529.9" cy="3115.2" r="596.2"/>
	<g>
		<text transform="matrix(1 0 0 1 1219.6963 2739.2344)" class="st6 st11 st24">De Sint op bezoek!</text>
		<text transform="matrix(1 0 0 1 1215.6963 2737.2344)" class="st2 st11 st24">De Sint op bezoek!</text>
	</g>
	<g>
		<path class="st8" d="M1641.6,2890h-270.1c-22.2,0-40.4-18.2-40.4-40.4l0,0c0-22.2,18.2-40.4,40.4-40.4h270.1
			c22.2,0,40.4,18.2,40.4,40.4l0,0C1682,2871.9,1663.8,2890,1641.6,2890z"/>
		<text transform="matrix(1 0 0 1 1387.2363 2860.9702)" class="st2 st25 st26">bekijk de foto’s</text>
	</g>
</g>
<g id="Weekmenu">
	<text transform="matrix(1 0 0 1 1256.3008 3591.3054)" class="st10 st11 st27">Menu week 50</text>
	<g>
		<g>
			<g>
				<defs>
					<circle id="SVGID_13_" cx="930.8" cy="3786.9" r="110.9"/>
				</defs>
				<clipPath id="SVGID_14_">
					<use xlink:href="#SVGID_13_"  style="overflow:visible;"/>
				</clipPath>
				<g style="clip-path:url(#SVGID_14_);">
					
						<image style="overflow:visible;" width="348" height="500" xlink:href="../../../../../Digitale nieuwsbrief/hachis parmentier met 8-groenten-stoemp P40-41 def_MR.jpg"  transform="matrix(0.7016 0 0 0.7016 816.7295 3561.1675)">
					</image>
				</g>
			</g>
			<rect x="805.4" y="3928" class="st28" width="241.1" height="84"/>
			<text transform="matrix(1 0 0 1 863.6451 3950.3521)"><tspan x="0" y="0" class="st29 st30">Maandag</tspan><tspan x="-39.5" y="37.6" class="st31 st30">Groetenstoemp</tspan></text>
		</g>
		<g>
			<g>
				<defs>
					<circle id="SVGID_15_" cx="1183" cy="3786.9" r="110.9"/>
				</defs>
				<clipPath id="SVGID_16_">
					<use xlink:href="#SVGID_15_"  style="overflow:visible;"/>
				</clipPath>
				<g transform="matrix(1 0 0 1 0 -2.441406e-04)" style="clip-path:url(#SVGID_16_);">
					
						<image style="overflow:visible;" width="331" height="500" xlink:href="../../../../../Digitale nieuwsbrief/Kippenborstfilet met bloemkool in tomatensaus_MR.jpg"  transform="matrix(0.7319 0 0 0.7319 1057.9061 3611.5049)">
					</image>
				</g>
			</g>
			<rect x="1062.4" y="3928" class="st28" width="241.1" height="146"/>
			<text transform="matrix(1 0 0 1 1128.4178 3950.3521)"><tspan x="0" y="0" class="st29 st30">Dinsdag</tspan><tspan x="-48.7" y="37.6" class="st31 st30">Kippenborstfilet</tspan><tspan x="-40.5" y="75.2" class="st31 st30">met tomaatjes</tspan></text>
		</g>
		<g>
			<g>
				<defs>
					<circle id="SVGID_17_" cx="1440" cy="3786.9" r="110.9"/>
				</defs>
				<clipPath id="SVGID_18_">
					<use xlink:href="#SVGID_17_"  style="overflow:visible;"/>
				</clipPath>
				<g style="clip-path:url(#SVGID_18_);">
					
						<image style="overflow:visible;" width="413" height="500" xlink:href="../../../../../Digitale nieuwsbrief/Pasta met scampi’s en rucola in pestoroomsaus_MR.jpg"  transform="matrix(0.7427 0 0 0.7427 1261.4589 3606.7859)">
					</image>
				</g>
			</g>
			<rect x="1319.4" y="3928" class="st28" width="241.1" height="146"/>
			<text transform="matrix(1 0 0 1 1369.5745 3950.3521)"><tspan x="0" y="0" class="st29 st30">Woensdag</tspan><tspan x="3.6" y="37.6" class="st31 st30">Pasta met </tspan><tspan x="-10" y="75.2" class="st31 st30">groentjes en </tspan><tspan x="12.2" y="112.8" class="st31 st30">scampi’s</tspan></text>
		</g>
		<g>
			<g>
				<defs>
					<circle id="SVGID_19_" cx="1697" cy="3786.9" r="110.9"/>
				</defs>
				<clipPath id="SVGID_20_">
					<use xlink:href="#SVGID_19_"  style="overflow:visible;"/>
				</clipPath>
				<g style="clip-path:url(#SVGID_20_);">
					
						<image style="overflow:visible;" width="800" height="660" xlink:href="../../../../../Digitale nieuwsbrief/visbrochette en pasta met pestogroentjes WEB_MR.jpg"  transform="matrix(0.3992 0 0 0.3992 1520.0684 3650.2805)">
					</image>
				</g>
			</g>
			<rect x="1576.5" y="3928" class="st28" width="241.1" height="146"/>
			<text transform="matrix(1 0 0 1 1623.7871 3950.3521)"><tspan x="0" y="0" class="st29 st30">Donderdag</tspan><tspan x="-19.4" y="37.6" class="st31 st30">Brochette met </tspan><tspan x="-2" y="75.2" class="st31 st30">prinsessen-</tspan><tspan x="16.7" y="112.8" class="st31 st30">boontjes</tspan></text>
		</g>
		<g>
			<g>
				<defs>
					<circle id="SVGID_21_" cx="1954.1" cy="3786.9" r="110.9"/>
				</defs>
				<clipPath id="SVGID_22_">
					<use xlink:href="#SVGID_21_"  style="overflow:visible;"/>
				</clipPath>
				<g style="clip-path:url(#SVGID_22_);">
					
						<image style="overflow:visible;" width="372" height="500" xlink:href="../../../../../Digitale nieuwsbrief/Vleeskoek met prei in mosterdsaus_MR.jpg"  transform="matrix(0.7104 0 0 0.7104 1819.5771 3619.3701)">
					</image>
				</g>
			</g>
			<rect x="1833.5" y="3928" class="st28" width="241.1" height="146"/>
			<text transform="matrix(1 0 0 1 1906.1718 3950.3521)"><tspan x="0" y="0" class="st29 st30">Vrijdag</tspan><tspan x="-25.8" y="37.6" class="st31 st30">Vleesbrood </tspan><tspan x="-5.7" y="75.2" class="st31 st30">met prei</tspan></text>
		</g>
	</g>
	<g>
		<path class="st32" d="M1686.5,4201.8h-493.1c-23,0-41.6-18.6-41.6-41.6l0,0c0-23,18.6-41.6,41.6-41.6h493.1
			c23,0,41.6,18.6,41.6,41.6l0,0C1728.2,4183.2,1709.5,4201.8,1686.5,4201.8z"/>
		<text transform="matrix(1 0 0 1 1227.5654 4169.3955)" class="st2 st25 st26">Bekijk de rest van het menu</text>
	</g>
</g>
<g id="Knuffeldag">
	<text transform="matrix(1 0 0 1 1226.8818 3187.1755)" class="st7 st11 st33">Schrijf in voor de knuffeldag!</text>
	<g>
		<path class="st7" d="M1694.5,3321.2h-192.9c-19,0-34.6-15.6-34.6-34.6v-10.1c0-19,15.6-34.6,34.6-34.6h192.9
			c19,0,34.6,15.6,34.6,34.6v10.1C1729,3305.7,1713.5,3321.2,1694.5,3321.2z"/>
		<text transform="matrix(1 0 0 1 1530.9785 3292.9463)" class="st2 st25 st26">schrijf in</text>
	</g>
</g>
<g id="Inleidingstekst">
	<text transform="matrix(1 0 0 1 792.8848 1397.3054)"><tspan x="0" y="0" class="st9 st11 st27">De afgelopen week op Gaverke </tspan><tspan x="795.9" y="0" class="st9 st14 st34">/</tspan><tspan x="813.9" y="0" class="st9 st11 st27"> College Waregem</tspan></text>
	<rect x="846.9" y="1458" class="st28" width="1188.1" height="185.9"/>
	<text transform="matrix(1 0 0 1 931.4946 1480.3523)"><tspan x="0" y="0" class="st31 st30">Wat hebben jullie lieverds de afgelopen week allemaal beleefd op onze school? </tspan><tspan x="-68.4" y="37.6" class="st31 st30">Wel, we hadden hoog bezoek deze week! De goedheilig man uit Spanje is namelijk komen </tspan><tspan x="90.1" y="75.2" class="st31 st30">vertellen dat er dit jaar geen stoute kindjes op onze school zitten! </tspan><tspan x="-62.5" y="112.8" class="st31 st30">Verder geven we ook al het weekmenu voor volgende week mee en kun je je allerkleinste </tspan><tspan x="311.3" y="150.5" class="st31 st30">inschrijven voor de knuffeldag.</tspan></text>
</g>
<g id="Header">
	<g>
		<defs>
			<ellipse id="SVGID_23_" cx="1440" cy="400.1" rx="776" ry="746.9"/>
		</defs>
		<clipPath id="SVGID_24_">
			<use xlink:href="#SVGID_23_"  style="overflow:visible;"/>
		</clipPath>
		
			<rect x="527.9" y="115.4" transform="matrix(0.9998 -2.231114e-02 2.231114e-02 0.9998 -14.0561 31.0834)" class="st35" width="1716.1" height="1060.1"/>
	</g>
</g>
<g id="Laag_4">
	<rect x="-250.3" y="-25.1" class="st8" width="3421.3" height="157.7"/>
	<g>
		<circle class="st2" cx="1477" cy="77.6" r="151.6"/>
		<text transform="matrix(1 0 0 1 1012.7271 75.1918)" class="st2 st11 st36">nieuwsbrief</text>
		<text transform="matrix(1 0 0 1 1711.8193 77.494)" class="st2 st11 st37">week 49</text>
		<g>
			<g>
				<g>
					<g>
						<path class="st5" d="M1396.8,131.2c0,0.6,0.1,1.2,0.2,1.7c0.1,0.5,0.3,0.9,0.6,1.3c0.3,0.4,0.6,0.6,1.1,0.8
							c0.4,0.2,1,0.3,1.6,0.3c0.5,0,1-0.1,1.4-0.2c0.4-0.1,0.8-0.3,1.1-0.5v-4.7h-1.9c-0.3,0-0.6-0.1-0.9-0.4
							c-0.3-0.3-0.4-0.6-0.4-0.9c0-0.4,0.1-0.7,0.4-0.9c0.3-0.2,0.6-0.4,0.9-0.4h2.9c0.5,0,0.9,0.1,1.2,0.4c0.4,0.2,0.5,0.6,0.5,1.1
							v5.9c0,0.6-0.2,1-0.5,1.4c-0.3,0.4-0.8,0.7-1.3,1c-0.5,0.3-1.1,0.4-1.7,0.6c-0.6,0.1-1.3,0.2-1.9,0.2c-1.1,0-2-0.2-2.7-0.5
							c-0.8-0.3-1.4-0.8-1.9-1.3c-0.5-0.6-0.9-1.3-1.1-2.1c-0.2-0.8-0.4-1.7-0.4-2.7v-4.5c0-1,0.1-1.9,0.4-2.7
							c0.2-0.8,0.6-1.5,1.1-2.1c0.5-0.6,1.1-1,1.9-1.3c0.8-0.3,1.7-0.5,2.7-0.5c0.6,0,1.2,0.1,1.8,0.2c0.6,0.1,1.1,0.3,1.6,0.5
							c0.5,0.2,0.8,0.5,1.1,0.8c0.3,0.3,0.4,0.6,0.4,0.9c0,0.3-0.1,0.6-0.4,0.9c-0.2,0.2-0.6,0.4-0.9,0.4c-0.2,0-0.4,0-0.5-0.1
							c-0.1-0.1-0.3-0.2-0.5-0.3l-0.1-0.1c-0.3-0.2-0.7-0.4-1.1-0.5c-0.4-0.1-0.8-0.2-1.2-0.2c-0.6,0-1.2,0.1-1.6,0.3
							c-0.4,0.2-0.8,0.5-1.1,0.8c-0.3,0.4-0.5,0.8-0.6,1.3c-0.1,0.5-0.2,1.1-0.2,1.7V131.2z"/>
						<path class="st5" d="M1414.8,129c0-1.5-0.8-2.2-2.3-2.2c-0.3,0-0.6,0-0.8,0.1c-0.2,0.1-0.4,0.1-0.7,0.2l-0.5,0.2
							c-0.2,0.1-0.4,0.1-0.7,0.1c-0.4,0-0.6-0.1-0.8-0.4c-0.2-0.2-0.2-0.5-0.2-0.8c0-0.3,0.1-0.6,0.3-0.9c0.2-0.2,0.5-0.4,0.9-0.6
							c0.4-0.2,0.8-0.3,1.3-0.3c0.5-0.1,1-0.1,1.5-0.1c1.7,0,3,0.4,3.7,1.3c0.7,0.9,1.1,2.2,1.1,3.9v5.2c0,0.3,0.1,0.5,0.2,0.6
							c0.1,0.1,0.3,0.2,0.5,0.2c0.5,0.1,0.8,0.4,0.8,0.9c0,0.7-0.5,1.1-1.5,1.1c-0.9,0-1.6-0.4-2-1.1c-1,0.8-2.1,1.2-3.5,1.2
							c-1.4,0-2.4-0.4-3.1-1.1c-0.7-0.7-1.1-1.7-1.1-2.9v-0.1c0-2.6,1.6-3.8,4.8-3.8c0.8,0,1.5,0.1,2.3,0.3V129z M1412.6,132
							c-0.4,0-0.8,0-1.1,0.1c-0.3,0.1-0.5,0.2-0.6,0.4c-0.2,0.2-0.3,0.4-0.3,0.6c-0.1,0.2-0.1,0.5-0.1,0.7v0.1
							c0,0.5,0.1,0.9,0.4,1.2c0.3,0.3,0.8,0.4,1.5,0.4c0.4,0,0.9-0.1,1.2-0.2c0.4-0.1,0.8-0.4,1.2-0.7v-2.3
							c-0.4-0.1-0.8-0.2-1.1-0.2C1413.3,132,1412.9,132,1412.6,132z"/>
						<path class="st5" d="M1429.7,126.9c-0.6,1.6-1.1,3.1-1.6,4.7c-0.5,1.6-1.1,3.1-1.6,4.7c-0.2,0.5-0.4,0.8-0.6,1
							c-0.3,0.2-0.6,0.3-1,0.3c-0.5,0-0.8-0.1-1.1-0.3c-0.2-0.2-0.5-0.5-0.6-1c-0.5-1.6-1.1-3.2-1.6-4.8c-0.6-1.6-1.1-3.2-1.6-4.8
							l-0.3-1c0,0,0-0.1,0-0.1c0,0,0,0,0-0.1c0-0.3,0.1-0.6,0.4-0.9c0.3-0.2,0.6-0.3,0.9-0.3c0.3,0,0.5,0.1,0.8,0.2
							c0.3,0.2,0.4,0.4,0.5,0.7c0.2,0.8,0.5,1.5,0.7,2.3c0.2,0.7,0.5,1.5,0.7,2.3c0.2,0.8,0.4,1.5,0.6,2.3c0.2,0.7,0.4,1.5,0.6,2.3
							c0.2-0.8,0.4-1.5,0.5-2.3c0.2-0.7,0.4-1.5,0.6-2.3c0.2-0.8,0.5-1.5,0.7-2.3c0.2-0.7,0.5-1.5,0.7-2.3c0.1-0.3,0.3-0.5,0.5-0.6
							c0.2-0.2,0.5-0.2,0.8-0.2c0.4,0,0.7,0.1,0.9,0.3c0.3,0.2,0.4,0.5,0.4,0.9v0.2L1429.7,126.9z"/>
						<path class="st5" d="M1436.6,132.5c-0.4,0-0.7,0-1.1,0c-0.4,0-0.8-0.1-1.2-0.1v1.2c0,0.6,0.2,1,0.6,1.4c0.4,0.3,1,0.5,1.8,0.5
							c0.5,0,0.9-0.1,1.3-0.2c0.4-0.1,0.8-0.3,1.2-0.5c0,0,0.1-0.1,0.2-0.1c0.1,0,0.2,0,0.4,0c0.4,0,0.8,0.1,1,0.4
							c0.2,0.3,0.3,0.5,0.3,0.8c0,0.4-0.2,0.7-0.5,1c-0.3,0.2-0.7,0.4-1.2,0.6c-0.5,0.2-1,0.3-1.5,0.3c-0.5,0.1-1,0.1-1.3,0.1
							c-0.8,0-1.5-0.1-2.1-0.3c-0.6-0.2-1.1-0.5-1.5-0.9c-0.4-0.4-0.7-0.9-1-1.4c-0.2-0.5-0.3-1.1-0.3-1.7v-4.5
							c0-0.6,0.1-1.2,0.3-1.7c0.2-0.5,0.5-1,1-1.4c0.4-0.4,1-0.7,1.6-0.9c0.6-0.2,1.3-0.3,2.2-0.3c1.5,0,2.7,0.4,3.5,1.2
							c0.8,0.8,1.1,1.8,1.1,3.1c0,1.2-0.4,2.1-1.1,2.8C1439.4,132.2,1438.3,132.5,1436.6,132.5z M1438.5,128.6
							c0-0.7-0.2-1.2-0.5-1.5c-0.3-0.3-0.8-0.4-1.4-0.4c-0.7,0-1.3,0.2-1.7,0.5c-0.4,0.4-0.6,0.8-0.6,1.5v1.5
							c0.4,0.1,0.9,0.1,1.3,0.1c0.4,0,0.7,0,0.9,0c0.7,0,1.2-0.2,1.5-0.5C1438.4,129.6,1438.5,129.2,1438.5,128.6z"/>
						<path class="st5" d="M1449.5,127.1c-0.3,0-0.5,0-0.8,0c-0.2,0-0.4,0-0.7,0.1c-0.2,0-0.4,0.1-0.7,0.2c-0.2,0.1-0.5,0.2-0.8,0.4
							c0,0.1,0,0.2,0,0.3c0,0.1,0,0.2,0,0.3v8.1c0,0.4-0.1,0.7-0.4,0.9c-0.3,0.2-0.6,0.4-1,0.4c-0.4,0-0.7-0.1-1-0.4
							c-0.3-0.2-0.4-0.6-0.4-0.9v-8.1c0-0.4,0-0.6-0.1-0.9c-0.1-0.2-0.1-0.4-0.3-0.6c-0.1-0.1-0.1-0.2-0.2-0.3
							c0-0.1-0.1-0.2-0.1-0.4c0-0.4,0.1-0.6,0.4-0.9c0.3-0.2,0.6-0.3,0.9-0.3c0.2,0,0.5,0.1,0.6,0.2c0.2,0.1,0.4,0.3,0.5,0.5
							c0.6-0.3,1.2-0.6,1.8-0.8c0.6-0.2,1.1-0.3,1.6-0.3c0.6,0,1.1,0.1,1.3,0.4c0.2,0.2,0.4,0.5,0.4,0.9c0,0.4-0.1,0.7-0.4,1
							C1450.3,127,1449.9,127.1,1449.5,127.1z"/>
						<path class="st5" d="M1455.9,129.2l3.7-3.9c0.2-0.2,0.4-0.4,0.6-0.5c0.2-0.1,0.4-0.2,0.7-0.2c0.4,0,0.7,0.1,0.9,0.3
							c0.3,0.2,0.4,0.5,0.4,0.9c0,0.3-0.1,0.6-0.4,0.9l-3.4,3.6c0.7,1,1.4,1.9,2,2.8c0.7,0.9,1.3,1.9,2,2.8c0.1,0.1,0.1,0.2,0.2,0.4
							c0,0.1,0.1,0.3,0.1,0.4c0,0.3-0.2,0.6-0.4,0.8c-0.2,0.2-0.5,0.3-0.9,0.3c-0.2,0-0.4,0-0.5-0.1c-0.1,0-0.2-0.1-0.3-0.2
							c-0.1-0.1-0.2-0.2-0.3-0.3c-0.1-0.1-0.2-0.3-0.3-0.5l-3.4-4.8c-0.1,0.1-0.2,0.2-0.3,0.3c-0.1,0.1-0.2,0.2-0.3,0.3v3.5
							c0,0.5-0.1,0.9-0.3,1.3c-0.2,0.4-0.6,0.6-1.1,0.6c-0.4,0-0.7-0.1-1-0.4c-0.3-0.2-0.4-0.5-0.4-0.9V122c0-0.3,0-0.5,0.1-0.7
							c0-0.2,0.1-0.4,0.2-0.6c0.1-0.2,0.2-0.3,0.4-0.4s0.4-0.2,0.7-0.2c0.4,0,0.7,0.1,1,0.4c0.3,0.2,0.4,0.5,0.4,0.9V129.2z"/>
						<path class="st5" d="M1469.2,132.5c-0.4,0-0.7,0-1.1,0c-0.4,0-0.8-0.1-1.2-0.1v1.2c0,0.6,0.2,1,0.6,1.4c0.4,0.3,1,0.5,1.8,0.5
							c0.5,0,0.9-0.1,1.3-0.2c0.4-0.1,0.8-0.3,1.2-0.5c0,0,0.1-0.1,0.2-0.1c0.1,0,0.2,0,0.4,0c0.4,0,0.8,0.1,1,0.4
							c0.2,0.3,0.3,0.5,0.3,0.8c0,0.4-0.2,0.7-0.5,1c-0.3,0.2-0.7,0.4-1.2,0.6c-0.5,0.2-1,0.3-1.5,0.3c-0.5,0.1-1,0.1-1.3,0.1
							c-0.8,0-1.5-0.1-2.1-0.3c-0.6-0.2-1.1-0.5-1.5-0.9c-0.4-0.4-0.7-0.9-1-1.4c-0.2-0.5-0.3-1.1-0.3-1.7v-4.5
							c0-0.6,0.1-1.2,0.3-1.7c0.2-0.5,0.5-1,1-1.4c0.4-0.4,1-0.7,1.6-0.9c0.6-0.2,1.3-0.3,2.2-0.3c1.5,0,2.7,0.4,3.5,1.2
							c0.8,0.8,1.1,1.8,1.1,3.1c0,1.2-0.4,2.1-1.1,2.8C1472,132.2,1470.8,132.5,1469.2,132.5z M1471.1,128.6c0-0.7-0.2-1.2-0.5-1.5
							c-0.3-0.3-0.8-0.4-1.4-0.4c-0.7,0-1.3,0.2-1.7,0.5c-0.4,0.4-0.6,0.8-0.6,1.5v1.5c0.4,0.1,0.9,0.1,1.3,0.1c0.4,0,0.7,0,0.9,0
							c0.7,0,1.2-0.2,1.5-0.5C1471,129.6,1471.1,129.2,1471.1,128.6z"/>
						<g>
							<g>
								<path class="st6" d="M1480.3,137.6c-0.1,0.3-0.3,0.5-0.5,0.6c-0.3,0.1-0.5,0.2-0.8,0.1c-0.2,0-0.3-0.1-0.5-0.2
									c-0.1-0.1-0.2-0.2-0.3-0.3c-0.1-0.1-0.2-0.2-0.2-0.4c0-0.1,0-0.3,0-0.4l4.6-12.2c0.1-0.3,0.3-0.5,0.5-0.6
									c0.2-0.1,0.5-0.2,0.8-0.1c0.3,0.1,0.6,0.2,0.7,0.5c0.2,0.2,0.3,0.5,0.2,0.8c0,0.1,0,0.2-0.1,0.3L1480.3,137.6z"/>
							</g>
						</g>
						<path class="st5" d="M1489.7,126.6c0-1,0.1-1.9,0.4-2.7c0.2-0.8,0.6-1.5,1.1-2.1c0.5-0.6,1.1-1,1.9-1.3
							c0.8-0.3,1.7-0.5,2.7-0.5c0.6,0,1.2,0.1,1.8,0.2c0.6,0.1,1.1,0.3,1.6,0.5c0.5,0.2,0.8,0.5,1.1,0.8c0.3,0.3,0.4,0.6,0.4,0.9
							c0,0.3-0.1,0.6-0.4,0.9c-0.2,0.2-0.6,0.4-0.9,0.4c-0.2,0-0.4,0-0.5-0.1c-0.1-0.1-0.3-0.2-0.5-0.3l-0.1-0.1
							c-0.7-0.5-1.5-0.7-2.3-0.7c-0.6,0-1.2,0.1-1.6,0.3c-0.4,0.2-0.8,0.5-1.1,0.8c-0.3,0.4-0.5,0.8-0.6,1.3
							c-0.1,0.5-0.2,1.1-0.2,1.7v4.5c0,0.6,0.1,1.2,0.2,1.7c0.1,0.5,0.3,0.9,0.6,1.3c0.3,0.4,0.6,0.6,1.1,0.8c0.4,0.2,1,0.3,1.6,0.3
							c0.8,0,1.6-0.2,2.3-0.7l0.1-0.1c0.2-0.1,0.3-0.2,0.5-0.3c0.1-0.1,0.3-0.1,0.5-0.1c0.4,0,0.7,0.1,0.9,0.4
							c0.2,0.2,0.4,0.5,0.4,0.8c0,0.3-0.1,0.7-0.4,1c-0.3,0.3-0.6,0.6-1.1,0.8c-0.5,0.2-1,0.4-1.6,0.5c-0.6,0.1-1.2,0.2-1.8,0.2
							c-1.1,0-2-0.2-2.7-0.5c-0.8-0.3-1.4-0.8-1.9-1.3c-0.5-0.6-0.9-1.3-1.1-2.1c-0.2-0.8-0.4-1.7-0.4-2.7V126.6z"/>
						<path class="st5" d="M1507.8,137.7c-0.8,0-1.6-0.1-2.2-0.4c-0.6-0.2-1.2-0.6-1.6-1c-0.4-0.4-0.8-0.9-1-1.5
							c-0.2-0.6-0.3-1.2-0.3-1.8v-4c0-0.7,0.1-1.3,0.3-1.8c0.2-0.6,0.5-1,1-1.5c0.4-0.4,1-0.7,1.6-1s1.4-0.4,2.2-0.4
							c0.8,0,1.6,0.1,2.2,0.4c0.6,0.2,1.2,0.6,1.6,1c0.4,0.4,0.8,0.9,1,1.5c0.2,0.6,0.3,1.2,0.3,1.8v4c0,0.6-0.1,1.3-0.3,1.8
							c-0.2,0.6-0.5,1.1-1,1.5c-0.4,0.4-1,0.7-1.6,1C1509.3,137.6,1508.6,137.7,1507.8,137.7z M1507.8,135.3c0.8,0,1.4-0.2,1.8-0.6
							c0.4-0.4,0.6-0.9,0.6-1.6v-4c0-0.7-0.2-1.2-0.6-1.6c-0.4-0.4-1-0.6-1.8-0.6c-0.8,0-1.4,0.2-1.8,0.6c-0.4,0.4-0.6,0.9-0.6,1.6
							v4c0,0.7,0.2,1.2,0.6,1.6C1506.4,135.1,1507,135.3,1507.8,135.3z"/>
						<path class="st5" d="M1517.8,137.7c-0.2,0-0.4,0-0.7-0.1c-0.2-0.1-0.5-0.2-0.6-0.4c-0.2-0.2-0.4-0.5-0.5-0.9
							c-0.1-0.4-0.2-0.9-0.2-1.5v-13.6c0-0.3,0.1-0.6,0.4-0.9c0.3-0.3,0.6-0.4,1-0.4c0.4,0,0.7,0.1,1,0.4c0.3,0.2,0.4,0.5,0.4,0.9
							v13.4c0,0.3,0,0.5,0.1,0.6c0,0.1,0.1,0.3,0.3,0.5c0.1,0.1,0.2,0.2,0.2,0.3c0.1,0.1,0.1,0.2,0.1,0.4c0,0.4-0.1,0.6-0.4,0.8
							S1518.3,137.7,1517.8,137.7z"/>
						<path class="st5" d="M1524.1,137.7c-0.2,0-0.4,0-0.7-0.1c-0.2-0.1-0.5-0.2-0.6-0.4c-0.2-0.2-0.4-0.5-0.5-0.9
							c-0.1-0.4-0.2-0.9-0.2-1.5v-13.6c0-0.3,0.1-0.6,0.4-0.9c0.3-0.3,0.6-0.4,1-0.4c0.4,0,0.7,0.1,1,0.4c0.3,0.2,0.4,0.5,0.4,0.9
							v13.4c0,0.3,0,0.5,0.1,0.6c0,0.1,0.1,0.3,0.3,0.5c0.1,0.1,0.2,0.2,0.2,0.3c0.1,0.1,0.1,0.2,0.1,0.4c0,0.4-0.1,0.6-0.4,0.8
							C1524.9,137.6,1524.6,137.7,1524.1,137.7z"/>
						<path class="st5" d="M1532.8,132.5c-0.4,0-0.7,0-1.1,0c-0.4,0-0.8-0.1-1.2-0.1v1.2c0,0.6,0.2,1,0.6,1.4c0.4,0.3,1,0.5,1.8,0.5
							c0.5,0,0.9-0.1,1.3-0.2c0.4-0.1,0.8-0.3,1.2-0.5c0,0,0.1-0.1,0.2-0.1c0.1,0,0.2,0,0.4,0c0.4,0,0.8,0.1,1,0.4
							c0.2,0.3,0.3,0.5,0.3,0.8c0,0.4-0.2,0.7-0.5,1c-0.3,0.2-0.7,0.4-1.2,0.6c-0.5,0.2-1,0.3-1.5,0.3c-0.5,0.1-1,0.1-1.3,0.1
							c-0.8,0-1.5-0.1-2.1-0.3c-0.6-0.2-1.1-0.5-1.5-0.9c-0.4-0.4-0.7-0.9-1-1.4c-0.2-0.5-0.3-1.1-0.3-1.7v-4.5
							c0-0.6,0.1-1.2,0.3-1.7c0.2-0.5,0.5-1,1-1.4c0.4-0.4,1-0.7,1.6-0.9c0.6-0.2,1.3-0.3,2.2-0.3c1.5,0,2.7,0.4,3.5,1.2
							c0.8,0.8,1.1,1.8,1.1,3.1c0,1.2-0.4,2.1-1.1,2.8C1535.6,132.2,1534.5,132.5,1532.8,132.5z M1534.7,128.6
							c0-0.7-0.2-1.2-0.5-1.5c-0.3-0.3-0.8-0.4-1.4-0.4c-0.7,0-1.3,0.2-1.7,0.5c-0.4,0.4-0.6,0.8-0.6,1.5v1.5
							c0.4,0.1,0.9,0.1,1.3,0.1c0.4,0,0.7,0,0.9,0c0.7,0,1.2-0.2,1.5-0.5C1534.6,129.6,1534.7,129.2,1534.7,128.6z"/>
						<path class="st5" d="M1544.5,124.5c0.6,0,1.2,0.1,1.8,0.2c0.6,0.1,1.1,0.4,1.6,0.6c0.3-0.5,0.7-0.9,1.1-1.1
							c0.4-0.2,0.8-0.4,1.1-0.4c0.3,0,0.6,0.1,0.9,0.3c0.3,0.2,0.4,0.5,0.4,0.9c0,0.2,0,0.3-0.1,0.4c-0.1,0.1-0.1,0.2-0.2,0.3
							l-0.4,0.4c-0.2,0.2-0.3,0.3-0.4,0.4c-0.1,0.1-0.2,0.3-0.3,0.4c-0.1,0.1-0.1,0.3-0.1,0.4c0,0.1,0,0.3,0,0.5v1.5
							c0,0.7-0.1,1.3-0.3,1.8c-0.2,0.6-0.5,1-0.9,1.5c-0.4,0.4-1,0.7-1.6,1c-0.6,0.2-1.4,0.4-2.2,0.4c-0.3,0-0.6,0-0.9-0.1
							c-0.3,0-0.6-0.1-0.8-0.2c-0.1,0.2-0.1,0.3-0.2,0.5c0,0.1-0.1,0.3-0.1,0.4c0,0.4,0.1,0.6,0.4,0.8c0.2,0.1,0.5,0.2,0.7,0.2h1.1
							c0.8,0,1.5,0.1,2.2,0.2c0.7,0.2,1.2,0.4,1.7,0.7c0.5,0.3,0.9,0.7,1.2,1.2c0.3,0.5,0.4,1,0.4,1.7c0,0.7-0.1,1.3-0.4,1.8
							c-0.3,0.5-0.7,1-1.2,1.3c-0.5,0.4-1.1,0.7-1.8,0.9c-0.7,0.2-1.4,0.3-2.2,0.3c-0.8,0-1.5-0.1-2.1-0.3c-0.6-0.2-1.2-0.5-1.7-0.8
							c-0.5-0.3-0.8-0.8-1.1-1.3c-0.3-0.5-0.4-1.1-0.4-1.7c0-0.6,0.1-1.1,0.4-1.5c0.2-0.5,0.6-0.9,1.1-1.4c-0.2-0.3-0.4-0.7-0.5-1.1
							c-0.1-0.4-0.1-0.7-0.1-1c0-0.3,0.1-0.6,0.2-0.9c0.1-0.3,0.3-0.7,0.7-1c-1-0.9-1.5-2.1-1.5-3.6c0-0.7,0.1-1.3,0.3-1.9
							c0.2-0.6,0.5-1.1,0.9-1.5c0.4-0.4,0.9-0.8,1.5-1C1543,124.6,1543.7,124.5,1544.5,124.5z M1544.4,138c-0.3,0-0.5,0-0.8,0
							c-0.2,0-0.5,0-0.7-0.1c-0.4,0.4-0.7,1-0.7,1.5c0,0.6,0.2,1.1,0.6,1.4c0.4,0.3,1.1,0.5,1.9,0.5c0.8,0,1.5-0.2,2-0.5
							c0.5-0.3,0.8-0.8,0.8-1.4c0-1-0.9-1.5-2.7-1.5H1544.4z M1547,128.6c0-0.2,0-0.4,0-0.6c0-0.2,0-0.4,0-0.6
							c-0.4-0.2-0.7-0.3-1.1-0.4c-0.3-0.1-0.7-0.2-1.1-0.2c-0.8,0-1.4,0.2-1.8,0.6c-0.4,0.4-0.6,1-0.6,1.9c0,0.7,0.2,1.3,0.5,1.8
							c0.4,0.4,1,0.7,1.8,0.7c0.8,0,1.3-0.2,1.7-0.6c0.4-0.4,0.5-1,0.5-1.7V128.6z"/>
						<path class="st5" d="M1557.6,132.5c-0.4,0-0.7,0-1.1,0c-0.4,0-0.8-0.1-1.2-0.1v1.2c0,0.6,0.2,1,0.6,1.4c0.4,0.3,1,0.5,1.8,0.5
							c0.5,0,0.9-0.1,1.3-0.2c0.4-0.1,0.8-0.3,1.2-0.5c0,0,0.1-0.1,0.2-0.1c0.1,0,0.2,0,0.4,0c0.4,0,0.8,0.1,1,0.4
							c0.2,0.3,0.3,0.5,0.3,0.8c0,0.4-0.2,0.7-0.5,1c-0.3,0.2-0.7,0.4-1.2,0.6c-0.5,0.2-1,0.3-1.5,0.3c-0.5,0.1-1,0.1-1.3,0.1
							c-0.8,0-1.5-0.1-2.1-0.3c-0.6-0.2-1.1-0.5-1.5-0.9c-0.4-0.4-0.7-0.9-1-1.4c-0.2-0.5-0.3-1.1-0.3-1.7v-4.5
							c0-0.6,0.1-1.2,0.3-1.7c0.2-0.5,0.5-1,1-1.4c0.4-0.4,1-0.7,1.6-0.9c0.6-0.2,1.3-0.3,2.2-0.3c1.5,0,2.7,0.4,3.5,1.2
							c0.8,0.8,1.1,1.8,1.1,3.1c0,1.2-0.4,2.1-1.1,2.8C1560.4,132.2,1559.2,132.5,1557.6,132.5z M1559.5,128.6
							c0-0.7-0.2-1.2-0.5-1.5c-0.3-0.3-0.8-0.4-1.4-0.4c-0.7,0-1.3,0.2-1.7,0.5c-0.4,0.4-0.6,0.8-0.6,1.5v1.5
							c0.4,0.1,0.9,0.1,1.3,0.1c0.4,0,0.7,0,0.9,0c0.7,0,1.2-0.2,1.5-0.5C1559.3,129.6,1559.5,129.2,1559.5,128.6z"/>
					</g>
				</g>
				<g>
					<g>
						<path class="st6" d="M1397.9,157c-0.2,0.5-0.4,0.7-0.8,0.7c-0.4,0-0.6-0.2-0.7-0.7l-2.4-7.3c-0.1-0.3,0.2-0.6,0.5-0.6
							c0.2,0,0.4,0.1,0.5,0.3l2.1,6.9l2.1-6.9c0-0.2,0.2-0.4,0.5-0.3c0.3,0,0.5,0.2,0.5,0.5c0,0,0,0.1,0,0.1L1397.9,157z"/>
						<path class="st6" d="M1403.2,157.2c0,0.3-0.2,0.5-0.5,0.5c-0.3,0-0.5-0.2-0.5-0.5v-5.8c0-0.6-0.1-0.9-0.3-1.3
							c-0.1-0.1-0.1-0.2-0.1-0.3c0-0.3,0.2-0.5,0.5-0.5c0.2,0,0.5,0.2,0.6,0.5c0.8-0.5,1.8-0.8,2.4-0.8c0.6,0,0.8,0.2,0.8,0.5
							c0,0.3-0.2,0.6-0.5,0.6c-0.7,0-1.4,0-2.3,0.7v0c0,0,0,0,0,0.5V157.2z"/>
						<path class="st6" d="M1408.3,147c-0.4,0-0.7-0.3-0.7-0.7c0-0.4,0.3-0.7,0.7-0.7c0.4,0,0.7,0.3,0.7,0.7
							C1408.9,146.6,1408.6,147,1408.3,147z M1408.3,157.7c-0.3,0-0.5-0.2-0.5-0.5v-7.5c0-0.3,0.2-0.5,0.5-0.5
							c0.3,0,0.5,0.2,0.5,0.5v7.5C1408.8,157.5,1408.5,157.7,1408.3,157.7z"/>
						<path class="st6" d="M1412.9,158c0,1.7-0.9,2.8-2.3,3.1c-0.1,0-0.2,0-0.3,0c-0.2,0-0.4-0.1-0.4-0.3c-0.1-0.4,0.2-0.5,0.4-0.6
							c1-0.2,1.6-0.8,1.6-2.1v-8.4c0-0.3,0.2-0.5,0.5-0.5c0.3,0,0.5,0.2,0.5,0.5V158z M1412.3,147c-0.4,0-0.7-0.3-0.7-0.7
							c0-0.4,0.3-0.7,0.7-0.7c0.4,0,0.7,0.3,0.7,0.7C1413,146.6,1412.7,147,1412.3,147z"/>
						<path class="st6" d="M1420.1,156.3c0,0,0.1,0,0.2,0c0.3,0,0.5,0.2,0.5,0.5c0,0.7-1.8,1-2.6,1c-1.9,0-2.9-1.2-2.9-2.7v-3.2
							c0-1.6,1.1-2.8,3-2.8c1.8,0,2.7,1,2.7,2.7c0,1.5-0.8,2.4-2.8,2.4c-0.5,0-1.2,0-1.9-0.2v1.2c0,1,0.7,1.7,2,1.7
							C1419,156.8,1419.5,156.6,1420.1,156.3z M1418.1,150c-1.2,0-1.9,0.7-1.9,1.7v1.4c0.7,0.1,1.6,0.1,1.9,0.1
							c1.4,0,1.6-0.7,1.6-1.5C1419.8,150.5,1419.2,150,1418.1,150z"/>
						<path class="st6" d="M1426.1,145.9c0-0.3,0.2-0.5,0.5-0.5s0.5,0.3,0.5,0.5v3.9c0.7-0.5,1.5-0.8,2.4-0.8c1.8,0,2.5,1.1,2.5,2.5
							v3.2c0,1.6-1,2.9-3,2.9c-1.9,0-3-1.1-3-2.6V145.9z M1427.2,155.1c0,1,0.7,1.6,1.9,1.6c1.3,0,1.9-0.7,1.9-1.9v-3.2
							c0-1-0.5-1.6-1.8-1.6c-0.9,0-1.6,0.4-2.1,0.9V155.1z"/>
						<path class="st6" d="M1438.4,151.9c0-1.3-0.6-2-1.9-2c-0.6,0-1,0.1-1.3,0.4c-0.1,0.1-0.2,0.1-0.4,0.1c-0.2,0-0.3-0.2-0.4-0.4
							c-0.1-0.7,1.2-1,2.3-1c2,0,2.9,1.2,2.9,3.3v3.8c0,0.4,0.1,0.6,0.4,0.6c0.1,0,0.1,0,0.1,0c0.2,0,0.4,0.2,0.4,0.4
							c0,0.3-0.3,0.4-0.6,0.4c-0.5,0-1-0.4-1.3-0.9c-0.7,0.7-1.5,1-2.4,1c-1.7,0-2.5-1-2.5-2.4v-0.1c0-1.6,0.9-2.4,2.9-2.4
							c0.6,0,1.2,0.1,1.8,0.3V151.9z M1434.7,155.2L1434.7,155.2c0,0.9,0.4,1.6,1.6,1.6c0.8,0,1.4-0.3,2-0.8v-2
							c-0.7-0.2-1.4-0.3-1.9-0.3C1435,153.6,1434.7,154.4,1434.7,155.2z"/>
						<path class="st6" d="M1444.6,149c0.8,0,2.1,0.2,2.1,0.8c0,0.3-0.2,0.5-0.5,0.5c-0.1,0-0.2,0-0.2-0.1c-0.4-0.2-0.7-0.3-1.4-0.3
							c-1.1,0-1.6,0.5-1.6,1.3c0,0.6,0.2,0.9,0.9,1.2c1.3,0.6,3.1,0.8,3.1,2.8c0,1.5-0.9,2.4-2.7,2.4c-0.8,0-2.4-0.2-2.4-0.8
							c0-0.2,0.2-0.5,0.5-0.5c0,0,0,0,0.1,0c0.5,0.2,1,0.4,1.8,0.4c1,0,1.7-0.4,1.7-1.4c0-0.7-0.3-1-0.7-1.2
							c-1.3-0.6-3.3-0.8-3.3-2.8C1442,150,1442.9,149,1444.6,149z"/>
						<path class="st6" d="M1449.5,147c-0.4,0-0.7-0.3-0.7-0.7c0-0.4,0.3-0.7,0.7-0.7c0.4,0,0.7,0.3,0.7,0.7
							C1450.2,146.6,1449.9,147,1449.5,147z M1449.5,157.7c-0.3,0-0.5-0.2-0.5-0.5v-7.5c0-0.3,0.2-0.5,0.5-0.5
							c0.3,0,0.5,0.2,0.5,0.5v7.5C1450.1,157.5,1449.8,157.7,1449.5,157.7z"/>
						<path class="st6" d="M1455.2,149c0.8,0,2.1,0.2,2.1,0.8c0,0.3-0.2,0.5-0.5,0.5c-0.1,0-0.2,0-0.2-0.1c-0.4-0.2-0.7-0.3-1.4-0.3
							c-1.1,0-1.6,0.5-1.6,1.3c0,0.6,0.2,0.9,0.9,1.2c1.3,0.6,3.1,0.8,3.1,2.8c0,1.5-0.9,2.4-2.7,2.4c-0.8,0-2.4-0.2-2.4-0.8
							c0-0.2,0.2-0.5,0.5-0.5c0,0,0,0,0.1,0c0.5,0.2,1,0.4,1.8,0.4c1,0,1.7-0.4,1.7-1.4c0-0.7-0.3-1-0.7-1.2
							c-1.3-0.6-3.3-0.8-3.3-2.8C1452.5,150,1453.4,149,1455.2,149z"/>
						<path class="st6" d="M1461.7,149c0.8,0,2.1,0.2,2.1,0.8c0,0.3-0.2,0.5-0.5,0.5c-0.1,0-0.2,0-0.2-0.1c-0.4-0.2-0.7-0.3-1.4-0.3
							c-1.1,0-1.6,0.5-1.6,1.3c0,0.6,0.2,0.9,0.9,1.2c1.3,0.6,3.1,0.8,3.1,2.8c0,1.5-0.9,2.4-2.7,2.4c-0.8,0-2.4-0.2-2.4-0.8
							c0-0.2,0.2-0.5,0.5-0.5c0,0,0,0,0.1,0c0.5,0.2,1,0.4,1.8,0.4c1,0,1.7-0.4,1.7-1.4c0-0.7-0.3-1-0.7-1.2
							c-1.3-0.6-3.3-0.8-3.3-2.8C1459.1,150,1460,149,1461.7,149z"/>
						<path class="st6" d="M1465.7,152.1c0-1.7,0.9-3,3-3c0.7,0,2.2,0.2,2.2,0.9c0,0.2-0.2,0.4-0.4,0.4c-0.1,0-0.2,0-0.2,0h0
							c-0.4-0.2-0.8-0.4-1.4-0.4c-1.4,0-2,0.8-2,2.1v2.6c0,1.3,0.6,2.1,2,2.1c0.6,0,1-0.2,1.4-0.4h0c0.1,0,0.2,0,0.2,0
							c0.2,0,0.4,0.2,0.4,0.5c0,0.7-1.5,0.9-2.2,0.9c-2.1,0-3-1.3-3-3V152.1z"/>
						<path class="st6" d="M1473.1,157.7c-0.3,0-0.5-0.2-0.5-0.5v-11.3c0-0.3,0.2-0.5,0.5-0.5c0.3,0,0.5,0.2,0.5,0.5v4
							c0.7-0.5,1.5-0.9,2.3-0.9c1.7,0,2.5,1.1,2.5,2.7v5.4c0,0.3-0.2,0.5-0.5,0.5c-0.3,0-0.5-0.2-0.5-0.5v-5.4
							c0-1.1-0.5-1.8-1.6-1.8c-0.7,0-1.6,0.3-2.1,1.1v6.1C1473.6,157.5,1473.4,157.7,1473.1,157.7z"/>
						<path class="st6" d="M1480.5,154.8v-2.9c0-1.6,1.1-2.9,3.1-2.9c2,0,3.1,1.3,3.1,2.9v2.9c0,1.6-1.1,2.9-3.1,2.9
							C1481.6,157.7,1480.5,156.4,1480.5,154.8z M1485.6,154.8v-2.9c0-1.2-0.7-1.9-2-1.9c-1.3,0-2,0.7-2,1.9v2.9
							c0,1.2,0.7,1.9,2,1.9C1484.9,156.7,1485.6,156,1485.6,154.8z"/>
						<path class="st6" d="M1488.2,154.8v-2.9c0-1.6,1.1-2.9,3.1-2.9c2,0,3.1,1.3,3.1,2.9v2.9c0,1.6-1.1,2.9-3.1,2.9
							C1489.3,157.7,1488.2,156.4,1488.2,154.8z M1493.3,154.8v-2.9c0-1.2-0.7-1.9-2-1.9c-1.3,0-2,0.7-2,1.9v2.9
							c0,1.2,0.7,1.9,2,1.9C1492.6,156.7,1493.3,156,1493.3,154.8z"/>
						<path class="st6" d="M1496.5,146c0-0.3,0.2-0.5,0.5-0.5c0.3,0,0.5,0.2,0.5,0.5v10.1c0,0.4,0.1,0.7,0.3,0.9
							c0,0,0.1,0.2,0.1,0.2c0,0.3-0.2,0.5-0.5,0.5c-0.4,0-0.9-0.2-0.9-1.6V146z"/>
						<path class="st6" d="M1508.6,147.8c-0.6,2.8-1.5,6.5-2.1,9.2c-0.1,0.3-0.3,0.7-0.8,0.7c-0.4,0-0.7-0.3-0.8-0.7l-2.5-10.8v-0.1
							c0-0.3,0.3-0.5,0.6-0.5c0.2,0,0.4,0.2,0.5,0.4l2.2,9.6l2.1-9.2c0.1-0.5,0.3-0.9,0.8-0.9c0.4,0,0.6,0.4,0.7,0.9l2.1,9.2
							l2.2-9.6c0.1-0.2,0.2-0.4,0.4-0.4c0.3,0,0.7,0.1,0.7,0.5c0,0,0,0.1,0,0.1v0l-2.5,10.6c-0.1,0.3-0.4,0.7-0.8,0.7
							c-0.4,0-0.7-0.3-0.8-0.7L1508.6,147.8z"/>
						<path class="st6" d="M1520,151.9c0-1.3-0.6-2-1.9-2c-0.6,0-1,0.1-1.3,0.4c-0.1,0.1-0.2,0.1-0.4,0.1c-0.2,0-0.3-0.2-0.4-0.4
							c-0.1-0.7,1.2-1,2.3-1c2,0,2.9,1.2,2.9,3.3v3.8c0,0.4,0.1,0.6,0.4,0.6c0.1,0,0.1,0,0.1,0c0.2,0,0.4,0.2,0.4,0.4
							c0,0.3-0.3,0.4-0.6,0.4c-0.5,0-1-0.4-1.3-0.9c-0.7,0.7-1.5,1-2.4,1c-1.7,0-2.5-1-2.5-2.4v-0.1c0-1.6,0.9-2.4,2.9-2.4
							c0.6,0,1.2,0.1,1.8,0.3V151.9z M1516.4,155.2L1516.4,155.2c0,0.9,0.4,1.6,1.6,1.6c0.8,0,1.4-0.3,2-0.8v-2
							c-0.7-0.2-1.4-0.3-1.9-0.3C1516.6,153.6,1516.4,154.4,1516.4,155.2z"/>
						<path class="st6" d="M1524.9,157.2c0,0.3-0.2,0.5-0.5,0.5c-0.3,0-0.5-0.2-0.5-0.5v-5.8c0-0.6-0.1-0.9-0.3-1.3
							c-0.1-0.1-0.1-0.2-0.1-0.3c0-0.3,0.2-0.5,0.5-0.5c0.2,0,0.5,0.2,0.6,0.5c0.8-0.5,1.8-0.8,2.4-0.8c0.6,0,0.8,0.2,0.8,0.5
							c0,0.3-0.2,0.6-0.5,0.6c-0.7,0-1.4,0-2.3,0.7v0c0,0,0,0,0,0.5V157.2z"/>
						<path class="st6" d="M1533.8,156.3c0,0,0.1,0,0.2,0c0.3,0,0.5,0.2,0.5,0.5c0,0.7-1.8,1-2.6,1c-1.9,0-2.9-1.2-2.9-2.7v-3.2
							c0-1.6,1.1-2.8,3-2.8c1.8,0,2.7,1,2.7,2.7c0,1.5-0.8,2.4-2.8,2.4c-0.5,0-1.2,0-1.9-0.2v1.2c0,1,0.7,1.7,2,1.7
							C1532.7,156.8,1533.2,156.6,1533.8,156.3z M1531.8,150c-1.2,0-1.9,0.7-1.9,1.7v1.4c0.7,0.1,1.6,0.1,1.9,0.1
							c1.4,0,1.6-0.7,1.6-1.5C1533.5,150.5,1532.9,150,1531.8,150z"/>
						<path class="st6" d="M1541.4,149.7c0.4-0.7,1-1,1.3-1c0.3,0,0.5,0.2,0.5,0.5c0,0.1,0,0.2-0.1,0.2l-0.1,0.2
							c-0.6,0.5-0.8,0.8-0.8,1.6v1.1c0,1.7-1,3-3,3c-0.5,0-1-0.1-1.4-0.3c-0.2,0.4-0.3,0.7-0.3,1c0,0.7,0.6,0.9,1.1,0.9h0.7
							c1.9,0,3.3,0.7,3.3,2.3c0,1.6-1.4,2.6-3.4,2.6c-1.9,0-3.2-0.9-3.2-2.5c0-0.8,0.3-1.4,0.9-2c-0.4-0.4-0.6-0.9-0.6-1.3
							c0-0.4,0.1-0.9,0.7-1.4c-0.7-0.6-1-1.4-1-2.4c0-1.7,1-3,2.9-3C1539.9,149,1540.7,149.2,1541.4,149.7z M1537.8,157.6
							c-0.5,0.4-0.7,0.8-0.7,1.4c0,1.1,0.7,1.7,2.1,1.7c1.3,0,2.3-0.5,2.3-1.6c0-1-0.7-1.4-2.2-1.4h-0.7
							C1538.3,157.7,1538,157.6,1537.8,157.6z M1541.2,150.5c-0.6-0.4-1.2-0.6-1.9-0.6c-1.3,0-2,0.8-2,2.1c0,1.2,0.6,2.1,2,2.1
							c1.3,0,1.9-0.7,1.9-1.9v-1.1C1541.1,151,1541.1,150.8,1541.2,150.5z"/>
						<path class="st6" d="M1549,156.3c0,0,0.1,0,0.2,0c0.3,0,0.5,0.2,0.5,0.5c0,0.7-1.8,1-2.6,1c-1.9,0-2.9-1.2-2.9-2.7v-3.2
							c0-1.6,1.1-2.8,3-2.8c1.8,0,2.7,1,2.7,2.7c0,1.5-0.8,2.4-2.8,2.4c-0.5,0-1.2,0-1.9-0.2v1.2c0,1,0.7,1.7,2,1.7
							C1547.9,156.8,1548.4,156.6,1549,156.3z M1547,150c-1.2,0-1.9,0.7-1.9,1.7v1.4c0.7,0.1,1.6,0.1,1.9,0.1c1.4,0,1.6-0.7,1.6-1.5
							C1548.7,150.5,1548.1,150,1547,150z"/>
						<path class="st6" d="M1555.1,149c0.9,0,1.5,0.3,2,0.9c0.8-0.6,1.6-0.9,2.5-0.9c1.8,0,2.7,1.1,2.7,2.8v5.3
							c0,0.3-0.2,0.5-0.5,0.5c-0.3,0-0.5-0.2-0.5-0.5v-5.3c0-1-0.5-1.9-1.7-1.9c-0.8,0-1.6,0.4-2,1c0,0.2,0.1,0.5,0.1,0.8v5.3
							c0,0.3-0.2,0.5-0.5,0.5c-0.4,0-0.5-0.2-0.5-0.5v-5c0-1.3-0.2-2.2-1.5-2.2c-0.8,0-1.6,0.4-2.1,0.8c0,0.2,0,0.4,0,0.6v5.8
							c0,0.3-0.2,0.5-0.5,0.5c-0.4,0-0.5-0.2-0.5-0.5v-5.8c0-0.6-0.1-0.9-0.3-1.3c-0.1-0.1-0.1-0.2-0.1-0.3c0-0.3,0.2-0.5,0.5-0.5
							c0.2,0,0.5,0.1,0.6,0.5C1553.3,149.3,1554.2,149,1555.1,149z"/>
					</g>
				</g>
			</g>
			<g>
				<circle class="st7" cx="1424.6" cy="90.8" r="6.2"/>
				<circle class="st8" cx="1461.9" cy="51.4" r="20.2"/>
				<circle class="st9" cx="1479.6" cy="91.1" r="14.6"/>
				<circle class="st6" cx="1446.9" cy="85.5" r="9.9"/>
				<path class="st10" d="M1489.5,58c0,13.5,11,24.5,24.5,24.5s24.5-11,24.5-24.5s-11-24.5-24.5-24.5S1489.5,44.5,1489.5,58z
					 M1500.3,58.5c0-7.6,6.2-13.7,13.7-13.7s13.7,6.2,13.7,13.7c0,7.6-6.2,13.7-13.7,13.7S1500.3,66,1500.3,58.5z"/>
			</g>
		</g>
	</g>
</g>
</svg>
